<svg height="600px" id="tc7cedf9bf0de4a3d86373e8ad0c0d0ee" style="background-color:transparent;fill:#292724;fill-opacity:1.0;font-family:helvetica;font-size:12px;opacity:1.0;stroke:#292724;stroke-opacity:1.0;stroke-width:1.0" width="600px" xmlns="http://www.w3.org/2000/svg" xmlns:toyplot="http://www.sandia.gov/toyplot"><g class="toyplot-axes-Cartesian" id="tb6a3bc98d4c047f9b37bb2e3cbff6d53"><toyplot:axes>{"x": [{"domain": {"max": 1.0, "min": 0.0}, "range": {"max": 540.0, "min": 60.0}, "scale": "linear"}], "y": [{"domain": {"max": 5.0, "min": -2.880898411336608}, "range": {"max": 60.0, "min": 540.0}, "scale": "linear"}]}</toyplot:axes><clipPath id="tdb1fd5e0c26f4838bec20c6122f16d07"><rect height="500" width="500" x="50" y="50" /></clipPath><g class="toyplot-coordinate-events" clip-path="url(#tdb1fd5e0c26f4838bec20c6122f16d07)" style="cursor:crosshair"><rect height="500" style="pointer-events:all;visibility:hidden" width="500" x="50" y="50" /><g class="toyplot-mark-FillBoundaries" id="t9a128f848e474f7ea93f52900392b9ac" style="stroke:none"><toyplot:data-table title="Fill Data">{"data": [[0.0, 0.02040816326530612, 0.04081632653061224, 0.061224489795918366, 0.08163265306122448, 0.1020408163265306, 0.12244897959183673, 0.14285714285714285, 0.16326530612244897, 0.18367346938775508, 0.2040816326530612, 0.22448979591836732, 0.24489795918367346, 0.26530612244897955, 0.2857142857142857, 0.3061224489795918, 0.32653061224489793, 0.3469387755102041, 0.36734693877551017, 0.3877551020408163, 0.4081632653061224, 0.42857142857142855, 0.44897959183673464, 0.4693877551020408, 0.4897959183673469, 0.5102040816326531, 0.5306122448979591, 0.5510204081632653, 0.5714285714285714, 0.5918367346938775, 0.6122448979591836, 0.6326530612244897, 0.6530612244897959, 0.673469387755102, 0.6938775510204082, 0.7142857142857142, 0.7346938775510203, 0.7551020408163265, 0.7755102040816326, 0.7959183673469387, 0.8163265306122448, 0.836734693877551, 0.8571428571428571, 0.8775510204081632, 0.8979591836734693, 0.9183673469387754, 0.9387755102040816, 0.9591836734693877, 0.9795918367346939, 1.0], [-2.5635166606247353, -1.1478550376436099, -1.397503976138816, -0.7517059477920245, -1.226117620977587, -0.7240502035381267, -1.5960623967791756, -1.6230042844775308, -1.4416707402428321, -1.1969217399884924, -1.5308579773773405, -1.1922935764856581, -1.019652146662179, -0.9789954872979618, -0.9410283554719527, -1.218380612891945, -2.880898411336608, -1.3340467456314773, -0.8674800242068357, -1.569458331707609, -2.2773040752401994, -1.0460926313720758, -1.101305492621314, -1.3027434720919882, -1.9445730668452152, -1.7556511041330318, -1.5977196483098974, -1.1527073956668956, -1.1915386961591126, -1.1785482358583024, -1.2206424626602637, -2.233504530199399, -1.2103460982815846, -1.5625508235228684, -1.583352515219207, -1.1680877087030987, -0.8470182539603341, -1.9441917950656031, -1.602245572388675, -2.4348191548712017, -1.9856637565830342, -1.381239787579701, -1.0734790488021515, -1.401548299944416, -2.0163868101209346, -2.1507615883789035, -1.4254170589868598, -0.8908121399184641, -1.0797656821614594, -1.6812610018509457], [1.0351122831254365, 0.9498458768684002, 1.1507970320775929, 1.1049555429606308, 0.807945709909621, 1.1090655736764765, 1.037988825762077, 0.9864318063963854, 0.9547062279072969, 1.0205569428537036, 0.802614794891213, 1.0855094402685852, 1.1029238496529725, 1.1166961861435067, 0.9954385766896854, 1.097299969992776, 1.06421898196488, 0.9542607229165534, 1.0574825979443427, 1.1411735277559425, 0.9540820169715661, 1.022717331251831, 1.0965369726115335, 1.075722675446814, 1.1700133189124973, 1.0453093592076066, 0.973397497590803, 1.0309941396372841, 0.9602224053841464, 1.1218866073455147, 1.0020626355947773, 1.0357697627121683, 0.9533595086475567, 1.0361813408882299, 0.7013334745815212, 1.1546929617170507, 1.029927852857588, 1.0627818217908453, 0.9234110359208207, 0.9113895749450291, 0.9891268025699628, 1.0534278178269016, 1.2056927511887974, 0.985674998141523, 1.0606920143135579, 1.11934969390231, 0.9541983472224251, 1.0356685750175452, 0.974442252102361, 0.9987763290331094], [3.390960515463033, 3.365768628840039, 3.7638440798495663, 3.6377912107038637, 3.0751854067317823, 3.1040773666293053, 2.850810168972202, 3.6519991181342113, 3.6429226847057117, 3.2035145562945293, 2.84151047047156, 3.7103620617407675, 3.5779001224171667, 4.125635148964697, 3.1710430692093534, 3.511214813564921, 3.1337760762638616, 3.1881393198419006, 3.5507841069818413, 3.4542187458687965, 3.0803198355852417, 3.603918370341428, 4.220568426691976, 3.833682870980027, 3.116854054589167, 3.2712432023610916, 3.563992529670414, 2.846290228666585, 3.3572655370054134, 3.6798537090318453, 3.0229458307277604, 3.371181285335491, 3.7144044555237934, 3.231617110038247, 2.4072213865592937, 3.261312546932776, 3.0044388984911894, 3.3703062846551894, 2.981986669443329, 2.7637444096204105, 3.5802651261555125, 3.1150205552327854, 3.1323872830147343, 3.1335462075806086, 3.8516509113226447, 3.2507940351442364, 3.4033886229870745, 4.001146969754897, 3.904142634559703, 3.1137091235319296]], "names": ["x", "y0", "y1", "y2"]}</toyplot:data-table><polygon points="60.0,520.66930540272483 69.795918367346943,434.44594055723212 79.591836734693871,449.65124891462983 89.387755102040813,410.31778242043521 99.183673469387742,439.21266105527468 108.97959183673468,408.63336060086505 118.77551020408163,461.74479928577443 128.57142857142856,463.38574241436595 138.36734693877551,452.34130348244815 148.16326530612244,437.43443449488569 157.95918367346937,457.77340926406589 167.75510204081633,437.15254804420334 177.55102040816325,426.63751765172105 187.34693877551018,424.16125219615418 197.14285714285714,421.84879715292345 206.93877551020407,438.74142494902492 216.73469387755102,540.0 226.53061224489795,445.78627451022606 236.32653061224488,417.36920648132281 246.12244897959184,460.12443183934442 255.91836734693874,503.23702372441335 265.71428571428572,428.2479219480756 275.51020408163265,431.61075852030081 285.30612244897958,443.87969349436867 295.10204081632651,482.97145555012384 304.89795918367349,471.46483062378263 314.69387755102036,461.84573710951321 324.48979591836735,434.74148197010283 334.28571428571428,437.1065707281881 344.08163265306121,436.31536386078079 353.87755102040813,438.87918689342848 363.67346938775506,500.56933528049922 373.46938775510199,438.25206868382736 383.26530612244892,459.70371788572891 393.0612244897959,460.97068156081946 402.85714285714283,435.67824702810157 412.65306122448976,416.12294632090862 422.44897959183675,482.94823352077361 432.24489795918367,462.12139648797802 442.04081632653055,512.83075711325148 451.83673469387747,485.4741563901423 461.63265306122446,448.66064986095529 471.42857142857139,429.91593994301979 481.22448979591832,449.89757558011456 491.0204081632653,487.34539808474136 500.81632653061223,495.52973065665253 510.61224489795916,451.35134439458017 520.40816326530614,418.79029008842411 530.20408163265301,430.29883842171694 540.0,466.93397040560797 540.0,303.70157586365508 530.20408163265301,305.18368568376872 520.40816326530614,301.45458863602431 510.61224489795916,306.4166763702608 500.81632653061223,296.35784268547286 491.0204081632653,299.93049198673771 481.22448979591832,304.49953549969291 471.42857142857139,291.09896668754146 461.63265306122446,300.37293066969028 451.83673469387747,304.28929727060125 442.04081632653055,309.02402005376672 432.24489795918367,308.29183179714875 422.44897959183675,299.80320858112304 412.65306122448976,301.80423743149868 402.85714285714283,294.20519870180317 393.0612244897959,321.8178568616928 383.26530612244892,301.42335772742956 373.46938775510199,306.46776731128324 363.67346938775506,301.44842562124046 353.87755102040813,303.50141757366475 344.08163265306121,296.20332750342379 334.28571428571428,306.04977049650074 324.48979591836735,301.73929335690968 314.69387755102036,305.24731829763749 304.89795918367349,300.86739969262004 295.10204081632651,293.27208535989843 285.30612244897958,299.01502309380226 275.51020408163265,297.74729166045535 265.71428571428572,302.24340695128137 255.91836734693874,306.42376166910594 246.12244897959184,295.02862364178173 236.32653061224488,300.12596714411416 226.53061224489795,306.41287726873475 216.73469387755102,299.71567580915581 206.93877551020407,297.70081996092557 197.14285714285714,303.90486754960534 187.34693877551018,296.51945924969522 177.55102040816325,297.35828766371804 167.75510204081633,298.41894294287778 157.95918367346937,315.6491396404785 148.16326530612244,302.37498921220862 138.36734693877551,306.38574300251338 128.57142857142856,304.45344075980751 118.77551020408163,301.31326967729069 108.97959183673468,296.98421514337679 99.183673469387742,315.32445087083835 89.387755102040813,297.23454380397311 79.591836734693871,294.44248715920162 69.795918367346943,306.68177124407964 60.0,301.48847057362519" style="fill:rgba(40%,76.1%,64.7%,1);opacity:1.0;stroke:none" /><polygon points="60.0,301.48847057362519 69.795918367346943,306.68177124407964 79.591836734693871,294.44248715920162 89.387755102040813,297.23454380397311 99.183673469387742,315.32445087083835 108.97959183673468,296.98421514337679 118.77551020408163,301.31326967729069 128.57142857142856,304.45344075980751 138.36734693877551,306.38574300251338 148.16326530612244,302.37498921220862 157.95918367346937,315.6491396404785 167.75510204081633,298.41894294287778 177.55102040816325,297.35828766371804 187.34693877551018,296.51945924969522 197.14285714285714,303.90486754960534 206.93877551020407,297.70081996092557 216.73469387755102,299.71567580915581 226.53061224489795,306.41287726873475 236.32653061224488,300.12596714411416 246.12244897959184,295.02862364178173 255.91836734693874,306.42376166910594 265.71428571428572,302.24340695128137 275.51020408163265,297.74729166045535 285.30612244897958,299.01502309380226 295.10204081632651,293.27208535989843 304.89795918367349,300.86739969262004 314.69387755102036,305.24731829763749 324.48979591836735,301.73929335690968 334.28571428571428,306.04977049650074 344.08163265306121,296.20332750342379 353.87755102040813,303.50141757366475 363.67346938775506,301.44842562124046 373.46938775510199,306.46776731128324 383.26530612244892,301.42335772742956 393.0612244897959,321.8178568616928 402.85714285714283,294.20519870180317 412.65306122448976,301.80423743149868 422.44897959183675,299.80320858112304 432.24489795918367,308.29183179714875 442.04081632653055,309.02402005376672 451.83673469387747,304.28929727060125 461.63265306122446,300.37293066969028 471.42857142857139,291.09896668754146 481.22448979591832,304.49953549969291 491.0204081632653,299.93049198673771 500.81632653061223,296.35784268547286 510.61224489795916,306.4166763702608 520.40816326530614,301.45458863602431 530.20408163265301,305.18368568376872 540.0,303.70157586365508 540.0,174.88786854582912 530.20408163265301,126.74512320253733 520.40816326530614,120.83690329366071 510.61224489795916,157.24442835905384 500.81632653061223,166.53847052805315 491.0204081632653,129.94222407082708 481.22448979591832,173.67965599868228 471.42857142857139,173.75024234082062 461.63265306122446,174.80799348799241 451.83673469387747,146.47145336438552 442.04081632653055,196.20308591189576 432.24489795918367,182.91065664211735 422.44897959183675,159.25936644992714 412.65306122448976,181.5431640821993 402.85714285714283,165.89782203914027 393.0612244897959,217.91774864922596 383.26530612244892,167.70647493192087 373.46938775510199,138.30146122184576 363.67346938775506,159.20607299217352 353.87755102040813,180.4159667742407 344.08163265306121,140.40583529831883 334.28571428571428,160.05363615690467 324.48979591836735,191.17548739785221 314.69387755102036,147.46256451760274 304.89795918367349,165.2929779773599 295.10204081632651,174.69632097997007 285.30612244897958,131.03659921872267 275.51020408163265,107.47265294648039 265.71428571428572,145.03081086188766 255.91836734693874,176.92150194368583 246.12244897959184,154.1485301873264 236.32653061224488,148.26704676817894 226.53061224489795,170.35456633026013 216.73469387755102,173.6656554416135 206.93877551020407,150.67708428532302 197.14285714285714,171.39584359020023 187.34693877551018,113.25473145209148 177.55102040816325,146.61549808304005 167.75510204081633,138.54767033590576 157.95918367346937,191.46660699029769 148.16326530612244,169.4181104705265 138.36734693877551,142.65518438915907 128.57142857142856,142.10236822299552 118.77551020408163,190.90019247163224 108.97959183673468,175.47450766639048 99.183673469387742,177.23422337733803 89.387755102040813,142.96772585236886 79.591836734693871,135.29025381404128 69.795918367346943,159.5357403704613 60.0,158.00138414000369" style="fill:rgba(98.8%,55.3%,38.4%,1);opacity:1.0;stroke:none" /></g></g><g class="toyplot-coordinates" style="visibility:hidden"><rect height="14" style="fill:white;opacity:0.75;stroke:none" width="90" x="450" y="60" /><text style="alignment-baseline:middle;font-size:10px;font-weight:normal;stroke:none;text-anchor:middle" x="495.0" y="67.0" /></g><line style="" x1="60.0" x2="540.0" y1="550" y2="550" /><g><text style="alignment-baseline:middle;baseline-shift:-80%;font-size:10px;font-weight:normal;stroke:none;text-anchor:middle" x="60.0" y="550">0.0</text><text style="alignment-baseline:middle;baseline-shift:-80%;font-size:10px;font-weight:normal;stroke:none;text-anchor:middle" x="300.0" y="550">0.5</text><text style="alignment-baseline:middle;baseline-shift:-80%;font-size:10px;font-weight:normal;stroke:none;text-anchor:middle" x="540.0" y="550">1.0</text></g><line style="" x1="50" x2="50" y1="107.4726529464804" y2="540.0" /><g><text style="alignment-baseline:middle;baseline-shift:80%;font-size:10px;font-weight:normal;stroke:none;text-anchor:middle" transform="rotate(-90, 50, 516.8007113023344)" x="50" y="516.8007113023344">-2</text><text style="alignment-baseline:middle;baseline-shift:80%;font-size:10px;font-weight:normal;stroke:none;text-anchor:middle" transform="rotate(-90, 50, 364.5338075348896)" x="50" y="364.5338075348896">0</text><text style="alignment-baseline:middle;baseline-shift:80%;font-size:10px;font-weight:normal;stroke:none;text-anchor:middle" transform="rotate(-90, 50, 212.2669037674448)" x="50" y="212.2669037674448">2</text><text style="alignment-baseline:middle;baseline-shift:80%;font-size:10px;font-weight:normal;stroke:none;text-anchor:middle" transform="rotate(-90, 50, 60.0)" x="50" y="60.0">5</text></g></g></svg>