<svg height="600px" id="ta393fedf1ca240fbbe0e142261f32ca2" preserveAspectRatio="xMidYMid meet" style="background-color:transparent;fill:rgb(16.1%,15.3%,14.1%);fill-opacity:1.0;font-family:Helvetica;font-size:12px;opacity:1.0;stroke:rgb(16.1%,15.3%,14.1%);stroke-opacity:1.0;stroke-width:1.0" viewBox="0 0 600 600" width="600px" xmlns="http://www.w3.org/2000/svg" xmlns:toyplot="http://www.sandia.gov/toyplot"><g class="toyplot-axes-Cartesian" id="tc65e5a93580d4fd4b38f9e774f9fb5d9"><clipPath id="t4f4852bf2ec142e0a524c58caf3df814"><rect height="520.0" width="520.0" x="40.0" y="40.0" /></clipPath><g class="toyplot-coordinate-events" clip-path="url(#t4f4852bf2ec142e0a524c58caf3df814)" style="cursor:crosshair"><rect height="520.0" style="pointer-events:all;visibility:hidden" width="520.0" x="40.0" y="40.0" /><g class="toyplot-mark-FillMagnitudes" id="t23e152ce1eda4490a51384c8e0ee8a93" style="stroke:none"><polygon points="50.0,550.0 60.204081632653057,550.0 70.408163265306115,550.0 80.612244897959187,550.0 90.816326530612244,550.0 101.0204081632653,550.0 111.22448979591836,550.0 121.42857142857143,550.0 131.63265306122449,550.0 141.83673469387753,550.0 152.0408163265306,550.0 162.24489795918365,550.0 172.44897959183672,550.0 182.65306122448979,550.0 192.85714285714286,550.0 203.0612244897959,550.0 213.26530612244898,550.0 223.46938775510202,550.0 233.67346938775509,550.0 243.87755102040816,550.0 254.08163265306121,550.0 264.28571428571428,550.0 274.48979591836729,550.0 284.69387755102036,550.0 294.89795918367344,550.0 305.10204081632656,550.0 315.30612244897958,550.0 325.51020408163265,550.0 335.71428571428572,550.0 345.91836734693879,550.0 356.12244897959181,550.0 366.32653061224488,550.0 376.5306122448979,550.0 386.73469387755097,550.0 396.93877551020404,550.0 407.14285714285711,550.0 417.34693877551018,550.0 427.55102040816325,550.0 437.75510204081633,550.0 447.95918367346934,550.0 458.16326530612241,550.0 468.36734693877548,550.0 478.57142857142856,550.0 488.77551020408163,550.0 498.97959183673458,550.0 509.18367346938771,550.0 519.38775510204073,550.0 529.59183673469386,550.0 539.79591836734687,550.0 550.0,550.0 550.0,326.87993710422552 539.79591836734687,332.31600984391025 529.59183673469386,318.63845199375811 519.38775510204073,336.8383650487437 509.18367346938771,299.94464041050571 498.97959183673458,313.04838023564992 488.77551020408163,329.80668825718783 478.57142857142856,280.65616929603266 468.36734693877548,314.67115395372463 458.16326530612241,329.0355778505936 447.95918367346934,346.40156321971966 437.75510204081633,343.71604790357844 427.55102040816325,312.5815309900097 417.34693877551018,319.92089156722784 407.14285714285711,292.04918683542826 396.93877551020404,393.32671448969262 386.73469387755097,318.52390347073822 376.5306122448979,337.02575606927905 366.32653061224488,318.6158473282967 356.12244897959181,326.14579783257909 345.91836734693879,299.37791063272152 335.71428571428572,335.49263007599734 325.51020408163265,319.68269011367408 315.30612244897958,332.54940113038083 305.10204081632656,316.48476421369884 294.89795918367344,288.62671980084912 284.69387755102036,309.69062939601633 274.48979591836729,305.04085230626549 264.28571428571428,321.53167466993239 254.08163265306121,336.86435246167474 243.87755102040816,295.06933946423345 233.67346938775509,313.76534274401382 223.46938775510202,336.82443072892409 213.26530612244898,312.26047885941671 203.0612244897959,304.8704037095743 192.85714285714286,327.62556902515445 182.65306122448979,300.53741659154696 172.44897959183672,303.61406598207117 162.24489795918365,307.50433050295618 152.0408163265306,370.70113366566369 141.83673469387753,322.01429122907336 131.63265306122449,336.72490784410434 121.42857142857143,329.63762227062369 111.22448979591836,318.12012323785427 101.0204081632653,302.24204522969779 90.816326530612244,369.51024231229064 80.612244897959187,303.1601990597058 70.408163265306115,292.91951189312647 60.204081632653057,337.81067829938127 50.0,318.76272394369096" style="fill:rgb(40%,76.1%,64.7%);fill-opacity:1.0;opacity:1.0;stroke:none"><title>1st half</title></polygon><polygon points="50.0,318.76272394369096 60.204081632653057,337.81067829938127 70.408163265306115,292.91951189312647 80.612244897959187,303.1601990597058 90.816326530612244,369.51024231229064 101.0204081632653,302.24204522969779 111.22448979591836,318.12012323785427 121.42857142857143,329.63762227062369 131.63265306122449,336.72490784410434 141.83673469387753,322.01429122907336 152.0408163265306,370.70113366566369 162.24489795918365,307.50433050295618 172.44897959183672,303.61406598207117 182.65306122448979,300.53741659154696 192.85714285714286,327.62556902515445 203.0612244897959,304.8704037095743 213.26530612244898,312.26047885941671 223.46938775510202,336.82443072892409 233.67346938775509,313.76534274401382 243.87755102040816,295.06933946423345 254.08163265306121,336.86435246167474 264.28571428571428,321.53167466993239 274.48979591836729,305.04085230626549 284.69387755102036,309.69062939601633 294.89795918367344,288.62671980084912 305.10204081632656,316.48476421369884 315.30612244897958,332.54940113038083 325.51020408163265,319.68269011367408 335.71428571428572,335.49263007599734 345.91836734693879,299.37791063272152 356.12244897959181,326.14579783257909 366.32653061224488,318.6158473282967 376.5306122448979,337.02575606927905 386.73469387755097,318.52390347073822 396.93877551020404,393.32671448969262 407.14285714285711,292.04918683542826 417.34693877551018,319.92089156722784 427.55102040816325,312.5815309900097 437.75510204081633,343.71604790357844 447.95918367346934,346.40156321971966 458.16326530612241,329.0355778505936 468.36734693877548,314.67115395372463 478.57142857142856,280.65616929603266 488.77551020408163,329.80668825718783 498.97959183673458,313.04838023564992 509.18367346938771,299.94464041050571 519.38775510204073,336.8383650487437 529.59183673469386,318.63845199375811 539.79591836734687,332.31600984391025 550.0,326.87993710422552 550.0,98.005790671021572 539.79591836734687,102.03427581370518 529.59183673469386,90.628001463814513 519.38775510204073,122.00629128878921 509.18367346938771,50.0 498.97959183673458,83.729087675597782 488.77551020408163,117.59500659960926 478.57142857142856,77.915911131502327 468.36734693877548,84.431400748976984 458.16326530612241,86.415382536546588 447.95918367346934,139.66022440678518 437.75510204081633,97.022112544218118 427.55102040816325,97.965739951263686 417.34693877551018,120.58282059379084 407.14285714285711,92.390420371840662 396.93877551020404,205.54723928518254 386.73469387755097,89.040760324275396 376.5306122448979,104.7545000902529 366.32653061224488,83.458729155562082 356.12244897959181,108.91222660880402 345.91836734693879,63.959100367842765 335.71428571428572,116.34965711153157 325.51020408163265,123.37800656258719 315.30612244897958,105.05039887686459 305.10204081632656,86.640197664789923 294.89795918367344,51.373956537839504 284.69387755102036,96.817033753431389 274.48979591836729,92.818196238981699 264.28571428571428,114.86615755819673 254.08163265306121,107.83443097559311 243.87755102040816,93.138781436849285 233.67346938775509,108.87642489556272 223.46938775510202,125.12299805879576 213.26530612244898,70.013581344761377 203.0612244897959,88.710358661701193 192.85714285714286,118.78834089556258 182.65306122448979,68.860357643487305 172.44897959183672,70.622690751525951 162.24489795918365,70.41834559131145 152.0408163265306,158.99149072506552 141.83673469387753,106.2560995995693 131.63265306122449,123.61764534758426 121.42857142857143,100.08364110583319 111.22448979591836,87.261688939471014 101.0204081632653,92.155273206242953 90.816326530612244,171.0337164570131 80.612244897959187,90.598088672843204 70.408163265306115,82.66379204738368 60.204081632653057,119.20713170669396 50.0,96.333277056148262" style="fill:rgb(98.8%,55.3%,38.4%);fill-opacity:1.0;opacity:1.0;stroke:none"><title>2nd half</title></polygon></g></g><g class="toyplot-coordinates" style="visibility:hidden"><rect height="14.0" style="fill:rgb(100%,100%,100%);fill-opacity:1.0;opacity:0.75;stroke:none" width="90.0" x="450.0" y="60.0" /><text style="alignment-baseline:middle;font-size:10px;font-weight:normal;stroke:none;text-anchor:middle" x="495.0" y="67.0" /></g><g class="toyplot-axes-Axis" id="tc12df92d48a54d62bfda2d2fd0843e43" transform="translate(50.0,550.0) rotate(0.0) translate(0,10.0)"><line style="" x1="0" x2="500.0" y1="0" y2="0" /><g><text style="alignment-baseline:middle;baseline-shift:-80%;font-size:10px;font-weight:normal;stroke:none;text-anchor:middle" transform="translate(0.0,0) rotate(0)" x="0" y="0">0.0</text><text style="alignment-baseline:middle;baseline-shift:-80%;font-size:10px;font-weight:normal;stroke:none;text-anchor:middle" transform="translate(250.0,0) rotate(0)" x="0" y="0">0.5</text><text style="alignment-baseline:middle;baseline-shift:-80%;font-size:10px;font-weight:normal;stroke:none;text-anchor:middle" transform="translate(500.0,0) rotate(0)" x="0" y="0">1.0</text></g></g><g class="toyplot-axes-Axis" id="tf0879ff0bd20444997f57dff682d32b4" transform="translate(50.0,550.0) rotate(-90.0) translate(0,-10.0)"><line style="" x1="0" x2="500.0" y1="0" y2="0" /><g><text style="alignment-baseline:middle;baseline-shift:80%;font-size:10px;font-weight:normal;stroke:none;text-anchor:middle" transform="translate(0.0,0) rotate(0)" x="0" y="0">0</text><text style="alignment-baseline:middle;baseline-shift:80%;font-size:10px;font-weight:normal;stroke:none;text-anchor:middle" transform="translate(223.3934229416224,0) rotate(0)" x="0" y="0">1</text><text style="alignment-baseline:middle;baseline-shift:80%;font-size:10px;font-weight:normal;stroke:none;text-anchor:middle" transform="translate(446.7868458832448,0) rotate(0)" x="0" y="0">2</text></g></g></g></svg>