<svg height="600px" id="t09dc72b10946474bba0f31d3b474381c" preserveAspectRatio="xMidYMid meet" style="background-color:transparent;fill:rgb(16.1%,15.3%,14.1%);fill-opacity:1.0;font-family:Helvetica;font-size:12px;opacity:1.0;stroke:rgb(16.1%,15.3%,14.1%);stroke-opacity:1.0;stroke-width:1.0" viewBox="0 0 600 600" width="600px" xmlns="http://www.w3.org/2000/svg" xmlns:toyplot="http://www.sandia.gov/toyplot"><g class="toyplot-axes-Cartesian" id="t7fb0a5c16dcd472db48bd960ccd56419"><clipPath id="ta56d17d367ae4dbcbc85f1fd85713bd3"><rect height="520.0" width="520.0" x="40.0" y="40.0" /></clipPath><g class="toyplot-coordinate-events" clip-path="url(#ta56d17d367ae4dbcbc85f1fd85713bd3)" style="cursor:crosshair"><rect height="520.0" style="pointer-events:all;visibility:hidden" width="520.0" x="40.0" y="40.0" /><g class="toyplot-mark-Plot" id="ta8086aa5bdf248e699145e4b5befeb06" style="fill:none"><g class="toyplot-Series"><path d="M 50.0 300.0 L 550.0 249.33301586294976 L 1050.0 200.7689627687694 L 1550.0 156.32348969595523 L 2050.0 117.84130413266243 L 2550.0 86.91960757009538 L 3050.0 64.841803721878321 L 3550.0 52.524230906969017 L 4050.0 50.478129466320418 L 4550.0 58.788422754059219 L 5050.0 77.110192397249094 L 5550.0 104.68299411843402 L 6050.0 140.36241994334947 L 6550.0 182.66759680569973 L 7050.0 229.84265012141077 L 7550.0 279.92958128929666 L 8050.0 330.84953434054472 L 8550.0 380.48907876815468 L 9050.0 426.7879273711286 L 9550.0 467.82444838798307 L 10050.0 501.89542274208412 L 10550.0 527.58673607769572 L 11050.0 543.8320715167614 L 11550.0 549.95716709602243 L 12050.0 545.70780098140767 L 12550.0 531.26034293455075 L 13050.0 507.21443409326065 L 13550.0 474.56809889134985 L 14050.0 434.67632209653908 L 14550.0 389.19481022473451 L 15050.0 340.01127151081261 L 15550.0 289.16706665782914 L 16050.0 238.77248224700517 L 16550.0 190.91914338204515 L 17050.0 147.59320087729196 L 17550.0 110.59289615181996 L 18050.0 81.453925295066625 L 18550.0 61.385700065312029 L 19050.0 51.221151305584094 L 19550.0 51.382158184095815 L 20050.0 61.862038117134936 L 20550.0 82.22582412941982 L 21050.0 111.62831814009061 L 21550.0 148.84917087346145 L 22050.0 192.34353240431562 L 22550.0 240.30617108899227 L 23050.0 290.74639962873437 L 23550.0 341.57069846218906 L 24050.0 390.66960720663724 L 24550.0 436.0052777223425" style="stroke:rgb(40%,76.1%,64.7%);stroke-opacity:1.0;stroke-width:2.0" /></g></g></g><g class="toyplot-coordinates" style="visibility:hidden"><rect height="14.0" style="fill:rgb(100%,100%,100%);fill-opacity:1.0;opacity:0.75;stroke:none" width="90.0" x="450.0" y="60.0" /><text style="alignment-baseline:middle;font-size:10px;font-weight:normal;stroke:none;text-anchor:middle" x="495.0" y="67.0" /></g><g class="toyplot-axes-Axis" id="t07b80611294a49b4a740399cad2dcb3f" transform="translate(50.0,550.0) rotate(0.0) translate(0,10.0)"><line style="" x1="0" x2="500.0" y1="0" y2="0" /><g><text style="dominant-baseline:hanging;font-size:10px;font-weight:normal;stroke:none;text-anchor:middle" transform="translate(0.0,6)"><tspan style="dominant-baseline:inherit">0.0</tspan></text><text style="dominant-baseline:hanging;font-size:10px;font-weight:normal;stroke:none;text-anchor:middle" transform="translate(250.0,6)"><tspan style="dominant-baseline:inherit">0.5</tspan></text><text style="dominant-baseline:hanging;font-size:10px;font-weight:normal;stroke:none;text-anchor:middle" transform="translate(500.0,6)"><tspan style="dominant-baseline:inherit">1.0</tspan></text></g></g><g class="toyplot-axes-Axis" id="t62b88db923494dc6a03f1ca3741cbe97" transform="translate(50.0,550.0) rotate(-90.0) translate(0,-10.0)"><line style="" x1="0.04283290397760764" x2="499.5218705336796" y1="0" y2="0" /><g><text style="dominant-baseline:alphabetic;font-size:10px;font-weight:normal;stroke:none;text-anchor:middle" transform="translate(0.0,-6)"><tspan style="dominant-baseline:inherit">-1.0</tspan></text><text style="dominant-baseline:alphabetic;font-size:10px;font-weight:normal;stroke:none;text-anchor:middle" transform="translate(125.0,-6)"><tspan style="dominant-baseline:inherit">-0.5</tspan></text><text style="dominant-baseline:alphabetic;font-size:10px;font-weight:normal;stroke:none;text-anchor:middle" transform="translate(250.0,-6)"><tspan style="dominant-baseline:inherit">0.0</tspan></text><text style="dominant-baseline:alphabetic;font-size:10px;font-weight:normal;stroke:none;text-anchor:middle" transform="translate(375.0,-6)"><tspan style="dominant-baseline:inherit">0.5</tspan></text><text style="dominant-baseline:alphabetic;font-size:10px;font-weight:normal;stroke:none;text-anchor:middle" transform="translate(500.0,-6)"><tspan style="dominant-baseline:inherit">1.0</tspan></text></g></g></g></svg>