<svg height="600px" id="ta8444e5af2ba48f890cc1efd45cdbc23" preserveAspectRatio="xMidYMid meet" style="background-color:transparent;fill:rgb(16.1%,15.3%,14.1%);fill-opacity:1.0;font-family:helvetica;font-size:12px;opacity:1.0;stroke:rgb(16.1%,15.3%,14.1%);stroke-opacity:1.0;stroke-width:1.0" viewBox="0 0 600 600" width="600px" xmlns="http://www.w3.org/2000/svg" xmlns:toyplot="http://www.sandia.gov/toyplot"><g class="toyplot-axes-Cartesian" id="t9505ad37f2dc479fa0c0b34d482e3491"><clipPath id="t1de8faff2d834bc4bc2e609835843f66"><rect height="500.0" width="500.0" x="50.0" y="50.0" /></clipPath><g class="toyplot-coordinate-events" clip-path="url(#t1de8faff2d834bc4bc2e609835843f66)" style="cursor:crosshair"><rect height="500.0" style="pointer-events:all;visibility:hidden" width="500.0" x="50.0" y="50.0" /><g class="toyplot-mark-FillMagnitudes" id="t81d3fc753bd149a3b7edcf3a91baa2dc" style="stroke:none"><polygon points="60.0,540.0 69.795918367346943,540.0 79.591836734693871,540.0 89.387755102040813,540.0 99.183673469387742,540.0 108.97959183673468,540.0 118.77551020408163,540.0 128.57142857142856,540.0 138.36734693877551,540.0 148.16326530612244,540.0 157.95918367346937,540.0 167.75510204081633,540.0 177.55102040816325,540.0 187.34693877551018,540.0 197.14285714285714,540.0 206.93877551020407,540.0 216.73469387755102,540.0 226.53061224489795,540.0 236.32653061224488,540.0 246.12244897959184,540.0 255.91836734693874,540.0 265.71428571428572,540.0 275.51020408163265,540.0 285.30612244897958,540.0 295.10204081632651,540.0 304.89795918367349,540.0 314.69387755102036,540.0 324.48979591836735,540.0 334.28571428571428,540.0 344.08163265306121,540.0 353.87755102040813,540.0 363.67346938775506,540.0 373.46938775510199,540.0 383.26530612244892,540.0 393.0612244897959,540.0 402.85714285714283,540.0 412.65306122448976,540.0 422.44897959183675,540.0 432.24489795918367,540.0 442.04081632653055,540.0 451.83673469387747,540.0 461.63265306122446,540.0 471.42857142857139,540.0 481.22448979591832,540.0 491.0204081632653,540.0 500.81632653061223,540.0 510.61224489795916,540.0 520.40816326530614,540.0 530.20408163265301,540.0 540.0,540.0 540.0,142.37578150553043 530.20408163265301,152.06345435190241 520.40816326530614,127.68855869933124 510.61224489795916,160.12278317575766 500.81632653061223,94.374153329403399 491.0204081632653,117.72644285328073 481.22448979591832,147.59157037194015 471.42857142857139,60.0 461.63265306122446,120.61840211085863 451.83673469387747,146.21736776184946 442.04081632653055,177.16544240456184 432.24489795918367,172.37956203604296 422.44897959183675,116.89446672328498 412.65306122448976,129.97400549667037 402.85714285714283,80.303596353466958 393.0612244897959,260.79116552106046 383.26530612244892,127.48442077307595 373.46938775510199,160.45673435489499 363.67346938775506,127.6482747270081 353.87755102040813,141.06746547887664 344.08163265306121,93.364179228176013 334.28571428571428,157.72453709293501 324.48979591836735,129.54950459977974 314.69387755102036,152.47938300789986 304.89795918367349,123.85045284137797 295.10204081632651,74.204387872231891 285.30612244897958,111.74256566993584 275.51020408163265,103.45615718882453 265.71428571428572,132.84459617356615 255.91836734693874,160.16909557197741 246.12244897959184,85.685836808121365 236.32653061224488,119.0041480196296 226.53061224489795,160.09795070235012 216.73469387755102,116.32231690911681 206.93877551020407,103.15239925162594 197.14285714285714,143.7045786831396 187.34693877551018,95.430544954027269 177.55102040816325,100.91346878262152 167.75510204081633,107.84634326184865 157.95918367346937,220.46991974702865 148.16326530612244,133.70467137106453 138.36734693877551,159.9205900975476 128.57142857142856,147.29027639635993 118.77551020408163,126.76484048316277 108.97959183673468,98.468378581676717 99.183673469387742,218.34762183463522 89.387755102040813,100.10462856465185 79.591836734693871,81.854610262355351 69.795918367346943,161.85555113664324 60.0,127.91002482985985" style="fill:rgb(40%,76.1%,64.7%);fill-opacity:1.0;opacity:1.0;stroke:none" /></g></g><g class="toyplot-coordinates" style="visibility:hidden"><rect height="14.0" style="fill:rgb(100%,100%,100%);fill-opacity:1.0;opacity:0.75;stroke:none" width="90.0" x="450.0" y="60.0" /><text style="alignment-baseline:middle;font-size:10px;font-weight:normal;stroke:none;text-anchor:middle" x="495.0" y="67.0" /></g><line style="" x1="60.0" x2="540.0" y1="550.0" y2="550.0" /><g><text style="alignment-baseline:middle;baseline-shift:-80%;font-size:10px;font-weight:normal;stroke:none;text-anchor:middle" x="60.0" y="550.0">0.0</text><text style="alignment-baseline:middle;baseline-shift:-80%;font-size:10px;font-weight:normal;stroke:none;text-anchor:middle" x="300.0" y="550.0">0.5</text><text style="alignment-baseline:middle;baseline-shift:-80%;font-size:10px;font-weight:normal;stroke:none;text-anchor:middle" x="540.0" y="550.0">1.0</text></g><line style="" x1="50.0" x2="50.0" y1="60.0" y2="540.0" /><g><text style="alignment-baseline:middle;baseline-shift:80%;font-size:10px;font-weight:normal;stroke:none;text-anchor:middle" transform="rotate(-90, 50.0, 540.0)" x="50.0" y="540.0">0.0</text><text style="alignment-baseline:middle;baseline-shift:80%;font-size:10px;font-weight:normal;stroke:none;text-anchor:middle" transform="rotate(-90, 50.0, 380.75544966933705)" x="50.0" y="380.75544966933705">0.4</text><text style="alignment-baseline:middle;baseline-shift:80%;font-size:10px;font-weight:normal;stroke:none;text-anchor:middle" transform="rotate(-90, 50.0, 221.510899338674)" x="50.0" y="221.510899338674">0.8</text><text style="alignment-baseline:middle;baseline-shift:80%;font-size:10px;font-weight:normal;stroke:none;text-anchor:middle" transform="rotate(-90, 50.0, 62.2663490080109)" x="50.0" y="62.2663490080109">1.2</text></g></g></svg>