<svg height="600px" id="tb7402f3286dd4f87931f7b98cf23fe33" style="background-color:transparent;fill:#292724;fill-opacity:1.0;font-family:helvetica;font-size:12px;opacity:1.0;stroke:#292724;stroke-opacity:1.0;stroke-width:1.0" width="600px" xmlns="http://www.w3.org/2000/svg" xmlns:toyplot="http://www.sandia.gov/toyplot"><g class="toyplot-axes-Cartesian" id="td1b262bf424c4d15bac9d25e5e325bec"><toyplot:axes>{"x": [{"domain": {"bounds": {"max": 1.7976931348623157e+308, "min": -1.7976931348623157e+308}, "max": 2.2382037636383814, "min": 0.0}, "range": {"bounds": {"max": 1.7976931348623157e+308, "min": -1.7976931348623157e+308}, "max": 540.0, "min": 60.0}, "scale": "linear"}], "y": [{"domain": {"bounds": {"max": 1.7976931348623157e+308, "min": -1.7976931348623157e+308}, "max": 1.0, "min": 0.0}, "range": {"bounds": {"max": 1.7976931348623157e+308, "min": -1.7976931348623157e+308}, "max": 60.0, "min": 540.0}, "scale": "linear"}]}</toyplot:axes><clipPath id="t8e5975c8c7fc44ccb1855f808712ed30"><rect height="500" width="500" x="50" y="50" /></clipPath><g class="toyplot-coordinate-events" clip-path="url(#t8e5975c8c7fc44ccb1855f808712ed30)" style="cursor:crosshair"><rect height="500" style="pointer-events:all;visibility:hidden" width="500" x="50" y="50" /><g class="toyplot-mark-FillMagnitudes" id="t10ac6f13170e4e6e9f53ae8467644555" style="stroke:none"><toyplot:data-table title="Fill Data">{"data": [[0.0, 0.02040816326530612, 0.04081632653061224, 0.061224489795918366, 0.08163265306122448, 0.1020408163265306, 0.12244897959183673, 0.14285714285714285, 0.16326530612244897, 0.18367346938775508, 0.2040816326530612, 0.22448979591836732, 0.24489795918367346, 0.26530612244897955, 0.2857142857142857, 0.3061224489795918, 0.32653061224489793, 0.3469387755102041, 0.36734693877551017, 0.3877551020408163, 0.4081632653061224, 0.42857142857142855, 0.44897959183673464, 0.4693877551020408, 0.4897959183673469, 0.5102040816326531, 0.5306122448979591, 0.5510204081632653, 0.5714285714285714, 0.5918367346938775, 0.6122448979591836, 0.6326530612244897, 0.6530612244897959, 0.673469387755102, 0.6938775510204082, 0.7142857142857142, 0.7346938775510203, 0.7551020408163265, 0.7755102040816326, 0.7959183673469387, 0.8163265306122448, 0.836734693877551, 0.8571428571428571, 0.8775510204081632, 0.8979591836734693, 0.9183673469387754, 0.9387755102040816, 0.9591836734693877, 0.9795918367346939, 1.0], [0.0, 0.0, 0.0, 0.0, 0.0, 0.0, 0.0, 0.0, 0.0, 0.0, 0.0, 0.0, 0.0, 0.0, 0.0, 0.0, 0.0, 0.0, 0.0, 0.0, 0.0, 0.0, 0.0, 0.0, 0.0, 0.0, 0.0, 0.0, 0.0, 0.0, 0.0, 0.0, 0.0, 0.0, 0.0, 0.0, 0.0, 0.0, 0.0, 0.0, 0.0, 0.0, 0.0, 0.0, 0.0, 0.0, 0.0, 0.0, 0.0, 0.0], [1.0351122831254365, 0.9498458768684002, 1.1507970320775929, 1.1049555429606308, 0.807945709909621, 1.1090655736764765, 1.037988825762077, 0.9864318063963854, 0.9547062279072969, 1.0205569428537036, 0.802614794891213, 1.0855094402685852, 1.1029238496529725, 1.1166961861435067, 0.9954385766896854, 1.097299969992776, 1.06421898196488, 0.9542607229165534, 1.0574825979443427, 1.1411735277559425, 0.9540820169715661, 1.022717331251831, 1.0965369726115335, 1.075722675446814, 1.1700133189124973, 1.0453093592076066, 0.973397497590803, 1.0309941396372841, 0.9602224053841464, 1.1218866073455147, 1.0020626355947773, 1.0357697627121683, 0.9533595086475567, 1.0361813408882299, 0.7013334745815212, 1.1546929617170507, 1.029927852857588, 1.0627818217908453, 0.9234110359208207, 0.9113895749450291, 0.9891268025699628, 1.0534278178269016, 1.2056927511887974, 0.985674998141523, 1.0606920143135579, 1.11934969390231, 0.9541983472224251, 1.0356685750175452, 0.974442252102361, 0.9987763290331094], [0.995684850335403, 0.978558561456902, 0.9411902869704775, 0.9515146309495858, 0.8884618143263056, 0.9404340076670706, 1.0334164330286109, 1.0275771692024163, 0.9539549539567672, 0.9658215930819345, 0.9476986392563697, 1.0612934874703113, 1.042964345872577, 1.0370809305724362, 0.9348405399749199, 0.9676204527487828, 1.0843958354940457, 0.947661886739837, 0.9171662941123965, 0.9039234699409795, 1.025231264511902, 0.9251190764275182, 0.9499950950782569, 0.9529089658929366, 1.0620400553377485, 1.0288779478032004, 1.0183782461355935, 0.8787397630877682, 0.980973253727943, 1.0538305343322432, 0.9724259934033194, 1.0526590938811402, 1.0397407986345406, 1.0272600693639573, 0.8405774562735493, 0.8937540050843967, 0.8923184413783228, 0.9607077424782994, 1.1043025891761675, 0.9254584852614953, 1.086066868573159, 1.0306469643240763, 0.9075480177297381, 0.949945969148045, 1.0265266073655996, 1.1188540697360714, 0.9616759120795372, 1.0206676970500055, 1.0308348876071554, 1.0245339518926384]], "names": ["y", "baseline", "x0", "x1"]}</toyplot:data-table><polygon points="60.0,540.0 60.0,530.20408163265301 60.0,520.40816326530614 60.0,510.61224489795921 60.0,500.81632653061229 60.0,491.0204081632653 60.0,481.22448979591832 60.0,471.42857142857144 60.0,461.63265306122452 60.0,451.83673469387753 60.0,442.0408163265306 60.0,432.24489795918367 60.0,422.44897959183675 60.0,412.65306122448982 60.0,402.85714285714289 60.0,393.06122448979596 60.0,383.26530612244898 60.0,373.46938775510205 60.0,363.67346938775512 60.0,353.87755102040819 60.0,344.08163265306121 60.0,334.28571428571428 60.0,324.48979591836741 60.0,314.69387755102042 60.0,304.89795918367349 60.0,295.10204081632651 60.0,285.30612244897964 60.0,275.51020408163271 60.0,265.71428571428572 60.0,255.91836734693877 60.0,246.12244897959189 60.0,236.32653061224494 60.0,226.53061224489798 60.0,216.73469387755102 60.0,206.9387755102041 60.0,197.1428571428572 60.0,187.34693877551024 60.0,177.55102040816328 60.0,167.75510204081635 60.0,157.95918367346945 60.0,148.1632653061225 60.0,138.36734693877554 60.0,128.57142857142858 60.0,118.77551020408166 60.0,108.97959183673476 60.0,99.183673469387799 60.0,89.387755102040842 60.0,79.591836734693899 60.0,69.795918367346957 60.0,60.0 274.19526037994342,60.0 268.97663054984616,69.795918367346957 282.10708608599219,79.591836734693899 264.63516955320603,89.387755102040842 300.05314520591457,99.183673469387799 287.473554973776,108.97959183673476 271.38557927309967,118.77551020408166 318.5700774758086,128.57142857142858 285.91569220442437,138.36734693877554 272.12584526343011,148.1632653061225 255.45449930906915,157.95918367346945 258.03259401256469,167.75510204081635 287.92173024959067,177.55102040816328 280.87594409546131,187.34693877551024 307.63278063798884,197.1428571428572 210.40635408989505,206.9387755102041 282.2170526680913,216.73469387755102 264.45527417349211,226.53061224489798 282.12878656483514,236.32653061224494 274.90003408072408,246.12244897959189 300.59720579258726,255.91836734693877 265.92707512704254,265.71428571428572 281.1046174908729,275.51020408163271 268.75257491483438,285.30612244897964 284.17462635484912,295.10204081632651 310.91834899118481,304.89795918367349 290.69699577982442,314.69387755102042 295.16078178598514,324.48979591836741 279.32959231686493,334.28571428571428 264.61022163679223,344.08163265306121 304.73343411433586,353.87755102040819 286.78527096574675,363.67346938775512 264.64854650023295,373.46938775510205 288.22994029495993,383.26530612244898 295.32441243880874,393.06122448979596 273.47945373585168,402.85714285714289 299.48408007211498,412.65306122448982 296.5304966572117,422.44897959183675 292.79584271716209,432.24489795918367 232.12691168096282,442.0408163265306 278.86628042008954,451.83673469387753 264.74408846965986,461.63265306122452 271.54788262020128,471.42857142857144 282.60468169165983,481.22448979591832 297.84763657949014,491.0204081632653 233.27016738020097,500.81632653061229 296.96620890268247,510.61224489795921 306.79726858259858,520.40816326530614 263.70174883259398,530.20408163265301 281.98778501405667,540.0" style="fill:rgba(40%,76.1%,64.7%,1);opacity:1.0;stroke:none" /><polygon points="281.98778501405667,540.0 263.70174883259398,530.20408163265301 306.79726858259858,520.40816326530614 296.96620890268247,510.61224489795921 233.27016738020097,500.81632653061229 297.84763657949014,491.0204081632653 282.60468169165983,481.22448979591832 271.54788262020128,471.42857142857144 264.74408846965986,461.63265306122452 278.86628042008954,451.83673469387753 232.12691168096282,442.0408163265306 292.79584271716209,432.24489795918367 296.5304966572117,422.44897959183675 299.48408007211498,412.65306122448982 273.47945373585168,402.85714285714289 295.32441243880874,393.06122448979596 288.22994029495993,383.26530612244898 264.64854650023295,373.46938775510205 286.78527096574675,363.67346938775512 304.73343411433586,353.87755102040819 264.61022163679223,344.08163265306121 279.32959231686493,334.28571428571428 295.16078178598514,324.48979591836741 290.69699577982442,314.69387755102042 310.91834899118481,304.89795918367349 284.17462635484912,295.10204081632651 268.75257491483438,285.30612244897964 281.1046174908729,275.51020408163271 265.92707512704254,265.71428571428572 300.59720579258726,255.91836734693877 274.90003408072408,246.12244897959189 282.12878656483514,236.32653061224494 264.45527417349211,226.53061224489798 282.2170526680913,216.73469387755102 210.40635408989505,206.9387755102041 307.63278063798884,197.1428571428572 280.87594409546131,187.34693877551024 287.92173024959067,177.55102040816328 258.03259401256469,167.75510204081635 255.45449930906915,157.95918367346945 272.12584526343011,148.1632653061225 285.91569220442437,138.36734693877554 318.5700774758086,128.57142857142858 271.38557927309967,118.77551020408166 287.473554973776,108.97959183673476 300.05314520591457,99.183673469387799 264.63516955320603,89.387755102040842 282.10708608599219,79.591836734693899 268.97663054984616,69.795918367346957 274.19526037994342,60.0 493.91444095581932,60.0 490.04709521884303,69.795918367346957 500.99711859473808,79.591836734693899 470.87396036276238,89.387755102040842 540.0,99.183673469387799 507.62007583142611,108.97959183673476 475.10879366437507,118.77551020408166 513.20072531375774,128.57142857142858 506.94585528098213,138.36734693877554 505.04123276491532,148.1632653061225 453.92618456948622,157.95918367346945 494.85877195755057,167.75510204081635 493.95288964678684,177.55102040816328 472.24049222996081,187.34693877551024 499.30519644303297,197.1428571428572 390.67465028622473,206.9387755102041 502.52087008869563,216.73469387755102 487.43567991335726,226.53061224489798 507.8796200106604,236.32653061224494 483.44426245554814,246.12244897959189 526.59926364687101,255.91836734693877 476.30432917292973,265.71428571428572 469.55711369991627,275.51020408163271 487.15161707820999,285.30612244897964 504.82541024180165,295.10204081632651 538.68100172367406,304.89795918367349 495.05564759670585,314.69387755102042 498.89453161057759,324.48979591836741 477.72848874413114,334.28571428571428 484.4789462634306,344.08163265306121 498.58676982062468,353.87755102040819 483.4786321002598,363.67346938775512 467.88192186355604,373.46938775510205 520.78696190902906,383.26530612244898 502.83805568476686,393.06122448979596 473.96319274025996,402.85714285714289 521.89405666225218,412.65306122448982 520.20221687853507,422.44897959183675 520.39838823234106,432.24489795918367 435.36816890393709,442.0408163265306 485.99414438441346,451.83673469387753 469.32706046631915,461.63265306122452 491.91970453840014,471.42857142857144 504.22877861810781,481.22448979591832 499.53093772200674,491.0204081632653 423.80763220126738,500.81632653061229 501.02583487407054,510.61224489795921 508.64275963451166,520.40816326530614 473.5611535615738,530.20408163265301 495.52005402609768,540.0" style="fill:rgba(98.8%,55.3%,38.4%,1);opacity:1.0;stroke:none" /></g></g><g class="toyplot-coordinates" style="visibility:hidden"><rect height="14" style="fill:white;opacity:0.75;stroke:none" width="90" x="450" y="60" /><text style="alignment-baseline:middle;font-size:10px;font-weight:normal;stroke:none;text-anchor:middle" x="495.0" y="67.0" /></g><line style="" x1="60.0" x2="540.0" y1="550" y2="550" /><g><text style="alignment-baseline:middle;baseline-shift:-80%;font-size:10px;font-weight:normal;stroke:none;text-anchor:middle" x="60.0" y="550">0</text><text style="alignment-baseline:middle;baseline-shift:-80%;font-size:10px;font-weight:normal;stroke:none;text-anchor:middle" x="274.4576860239575" y="550">1</text><text style="alignment-baseline:middle;baseline-shift:-80%;font-size:10px;font-weight:normal;stroke:none;text-anchor:middle" x="488.915372047915" y="550">2</text></g><line style="" x1="50" x2="50" y1="60.0" y2="540.0" /><g><text style="alignment-baseline:middle;baseline-shift:80%;font-size:10px;font-weight:normal;stroke:none;text-anchor:middle" transform="rotate(-90, 50, 540.0)" x="50" y="540.0">0.0</text><text style="alignment-baseline:middle;baseline-shift:80%;font-size:10px;font-weight:normal;stroke:none;text-anchor:middle" transform="rotate(-90, 50, 300.0)" x="50" y="300.0">0.5</text><text style="alignment-baseline:middle;baseline-shift:80%;font-size:10px;font-weight:normal;stroke:none;text-anchor:middle" transform="rotate(-90, 50, 60.0)" x="50" y="60.0">1.0</text></g></g></svg>