<svg height="600px" id="tbf80cada2e634ca098f31a84632b8b84" preserveAspectRatio="xMidYMid meet" style="background-color:transparent;fill:rgb(16.1%,15.3%,14.1%);fill-opacity:1.0;font-family:helvetica;font-size:12px;opacity:1.0;stroke:rgb(16.1%,15.3%,14.1%);stroke-opacity:1.0;stroke-width:1.0" viewBox="0 0 600 600" width="600px" xmlns="http://www.w3.org/2000/svg" xmlns:toyplot="http://www.sandia.gov/toyplot"><g class="toyplot-axes-Cartesian" id="t630903b36bb74d389a0a850f8ac7b7a9"><clipPath id="ta36249acf28d4194b1dbbbeed2d5226b"><rect height="500.0" width="500.0" x="50.0" y="50.0" /></clipPath><g class="toyplot-coordinate-events" clip-path="url(#ta36249acf28d4194b1dbbbeed2d5226b)" style="cursor:crosshair"><rect height="500.0" style="pointer-events:all;visibility:hidden" width="500.0" x="50.0" y="50.0" /><g class="toyplot-mark-Plot" id="t13891cfe7f3e4579b3ee4a3855f89f43" style="fill:none"><g class="toyplot-Series"><path d="M 60.0 300.0 L 69.599999999999994 251.35969522843178 L 79.199999999999989 204.73820425801861 L 88.799999999999997 162.070550108117 L 98.400000000000006 125.12765196735594 L 108.0 95.442823267291573 L 117.59999999999999 74.248131573003178 L 127.20000000000002 62.423261670690259 L 136.80000000000001 60.459004287667604 L 146.40000000000001 68.436885843896846 L 156.0 86.025784701359129 L 165.59999999999999 112.49567435369667 L 175.19999999999999 146.74792314561549 L 184.80000000000001 187.36089293347175 L 194.40000000000001 232.64894411655433 L 204.0 280.73239803772481 L 213.60000000000002 329.61555296692291 L 223.20000000000002 377.26951561742851 L 232.80000000000001 421.71641027628345 L 242.39999999999998 461.11147045246372 L 252.0 493.81960583240078 L 261.59999999999997 518.48326663458784 L 271.19999999999999 534.07878865609086 L 280.80000000000001 539.95888041218154 L 290.39999999999998 535.87948894215128 L 300.0 522.00992921716863 L 309.60000000000002 498.92585672953027 L 319.20000000000005 467.58537493569588 L 328.80000000000001 429.28926921267748 L 338.39999999999998 385.62701781574515 L 348.0 338.41082065038012 L 357.60000000000002 289.60038399151591 L 367.20000000000005 241.22158295712495 L 376.80000000000001 195.28237764676334 L 386.40000000000003 153.68947284220027 L 396.0 118.16918030574715 L 405.60000000000002 90.195768283263959 L 415.20000000000005 70.930272062699544 L 424.79999999999995 61.172305253360726 L 434.39999999999998 61.326871856731984 L 444.0 71.387556592449528 L 453.59999999999997 90.936791164243033 L 463.19999999999999 119.163185414487 L 472.79999999999995 154.89520403852299 L 482.39999999999998 196.64979110814301 L 492.0 242.69392424543261 L 501.60000000000002 291.11654364358503 L 511.19999999999999 339.90787052370149 L 520.79999999999995 387.04282291837171 L 530.40000000000009 430.56506661344878" style="fill:none;stroke:rgb(40%,76.1%,64.7%);stroke-opacity:1.0;stroke-width:2.0" /></g></g></g><g class="toyplot-coordinates" style="visibility:hidden"><rect height="14.0" style="fill:rgb(100%,100%,100%);fill-opacity:1.0;opacity:0.75;stroke:none" width="90.0" x="450.0" y="60.0" /><text style="alignment-baseline:middle;font-size:10px;font-weight:normal;stroke:none;text-anchor:middle" x="495.0" y="67.0" /></g><line style="" x1="60.0" x2="530.4000000000001" y1="550.0" y2="550.0" /><g><line style="stroke:rgb(100%,0%,0%);stroke-opacity:1.0" x1="60.0" x2="60.0" y1="550.0" y2="545.0" /><line style="" x1="156.0" x2="156.0" y1="550.0" y2="545.0" /><line style="" x1="252.0" x2="252.0" y1="550.0" y2="545.0" /><line style="" x1="348.0" x2="348.0" y1="550.0" y2="545.0" /><line style="" x1="444.0" x2="444.0" y1="550.0" y2="545.0" /><line style="" x1="540.0" x2="540.0" y1="550.0" y2="545.0" /></g><g><text style="alignment-baseline:middle;baseline-shift:-80%;font-size:10px;font-weight:normal;stroke:none;text-anchor:middle" x="60.0" y="550.0">0</text><text style="alignment-baseline:middle;baseline-shift:-80%;font-size:10px;font-weight:normal;stroke:none;text-anchor:middle" x="156.0" y="550.0">10</text><text style="alignment-baseline:middle;baseline-shift:-80%;font-size:10px;font-weight:normal;stroke:none;text-anchor:middle" x="252.0" y="550.0">20</text><text style="alignment-baseline:middle;baseline-shift:-80%;font-size:10px;font-weight:normal;stroke:none;text-anchor:middle" x="348.0" y="550.0">30</text><text style="alignment-baseline:middle;baseline-shift:-80%;font-size:10px;font-weight:normal;stroke:none;text-anchor:middle" x="444.0" y="550.0">40</text><text style="alignment-baseline:middle;baseline-shift:-80%;font-size:10px;font-weight:normal;stroke:none;text-anchor:middle" x="540.0" y="550.0">50</text></g><line style="" x1="50.0" x2="50.0" y1="60.459004287667604" y2="539.9588804121815" /><g><text style="alignment-baseline:middle;baseline-shift:80%;font-size:10px;font-weight:normal;stroke:none;text-anchor:middle" transform="rotate(-90, 50.0, 540.0)" x="50.0" y="540.0">-1.0</text><text style="alignment-baseline:middle;baseline-shift:80%;font-size:10px;font-weight:normal;stroke:none;text-anchor:middle" transform="rotate(-90, 50.0, 420.0)" x="50.0" y="420.0">-0.5</text><text style="alignment-baseline:middle;baseline-shift:80%;font-size:10px;font-weight:normal;stroke:none;text-anchor:middle" transform="rotate(-90, 50.0, 300.0)" x="50.0" y="300.0">0.0</text><text style="alignment-baseline:middle;baseline-shift:80%;font-size:10px;font-weight:normal;stroke:none;text-anchor:middle" transform="rotate(-90, 50.0, 180.0)" x="50.0" y="180.0">0.5</text><text style="alignment-baseline:middle;baseline-shift:80%;font-size:10px;font-weight:normal;stroke:none;text-anchor:middle" transform="rotate(-90, 50.0, 60.0)" x="50.0" y="60.0">1.0</text></g></g></svg>