<svg class="toyplot-canvas-Canvas" height="600px" id="t9e05bf85afe94b01bd0b8d68513d9868" preserveAspectRatio="xMidYMid meet" style="background-color:transparent;border-color:#292724;border-style:none;border-width:1.0;fill:rgb(16.1%,15.3%,14.1%);fill-opacity:1.0;font-family:Helvetica;font-size:12px;opacity:1.0;stroke:rgb(16.1%,15.3%,14.1%);stroke-opacity:1.0;stroke-width:1.0" viewBox="0 0 600 600" width="600px" xmlns="http://www.w3.org/2000/svg" xmlns:toyplot="http://www.sandia.gov/toyplot" xmlns:xlink="http://www.w3.org/1999/xlink"><g class="toyplot-coordinates-Cartesian" id="t8c50052c81e4465688b0c7ee99e24d3d"><clipPath id="ta3316cd1bdaf4fc59879e6a1cd857f83"><rect height="520.0" width="520.0" x="40.0" y="40.0" /></clipPath><g clip-path="url(#ta3316cd1bdaf4fc59879e6a1cd857f83)"><g class="toyplot-mark-Plot" id="t545ebc566e6f4abd9cf2a3bd327b854c" style="fill:none"><g class="toyplot-Series"><path d="M 50.0 300.0 L 550.0 249.33301586294976 L 1050.0 200.7689627687694 L 1550.0 156.32348969595523 L 2050.0 117.84130413266243 L 2550.0 86.91960757009538 L 3050.0 64.84180372187832 L 3550.0 52.52423090696902 L 4050.0 50.47812946632042 L 4550.0 58.78842275405922 L 5050.0 77.1101923972491 L 5550.0 104.68299411843402 L 6050.0 140.36241994334947 L 6550.0 182.66759680569973 L 7050.0 229.84265012141077 L 7550.0 279.92958128929666 L 8050.0 330.8495343405447 L 8550.0 380.4890787681547 L 9050.0 426.7879273711286 L 9550.0 467.82444838798307 L 10050.0 501.8954227420841 L 10550.0 527.5867360776957 L 11050.0 543.8320715167614 L 11550.0 549.9571670960224 L 12050.0 545.7078009814077 L 12550.0 531.2603429345507 L 13050.0 507.21443409326065 L 13550.0 474.56809889134985 L 14050.0 434.6763220965391 L 14550.0 389.1948102247345 L 15050.0 340.0112715108126 L 15550.0 289.16706665782914 L 16050.0 238.77248224700517 L 16550.0 190.91914338204515 L 17050.0 147.59320087729196 L 17550.0 110.59289615181996 L 18050.0 81.45392529506663 L 18550.0 61.38570006531203 L 19050.0 51.221151305584094 L 19550.0 51.382158184095815 L 20050.0 61.86203811713494 L 20550.0 82.22582412941982 L 21050.0 111.62831814009061 L 21550.0 148.84917087346145 L 22050.0 192.34353240431562 L 22550.0 240.30617108899227 L 23050.0 290.74639962873437 L 23550.0 341.57069846218906 L 24050.0 390.66960720663724 L 24550.0 436.0052777223425" style="stroke:rgb(40%,76.1%,64.7%);stroke-opacity:1.0;stroke-width:2.0" /></g></g></g><g class="toyplot-coordinates-Axis" id="t826adafbb63f4f19ae64a2b39c75f334" transform="translate(50.0,550.0)translate(0,10.0)"><line style="" x1="0" x2="500.0" y1="0" y2="0" /><g><g transform="translate(0.0,6)"><text style="fill:rgb(16.1%,15.3%,14.1%);fill-opacity:1.0;font-family:helvetica;font-size:10.0px;font-weight:normal;stroke:none;vertical-align:baseline;white-space:pre" x="-6.95" y="8.555">0.0</text></g><g transform="translate(250.0,6)"><text style="fill:rgb(16.1%,15.3%,14.1%);fill-opacity:1.0;font-family:helvetica;font-size:10.0px;font-weight:normal;stroke:none;vertical-align:baseline;white-space:pre" x="-6.95" y="8.555">0.5</text></g><g transform="translate(500.0,6)"><text style="fill:rgb(16.1%,15.3%,14.1%);fill-opacity:1.0;font-family:helvetica;font-size:10.0px;font-weight:normal;stroke:none;vertical-align:baseline;white-space:pre" x="-6.95" y="8.555">1.0</text></g></g><g class="toyplot-coordinates-Axis-coordinates" style="visibility:hidden" transform=""><line style="stroke:rgb(43.9%,50.2%,56.5%);stroke-opacity:1.0;stroke-width:1.0" x1="0" x2="0" y1="-3.0" y2="4.5" /><text style="alignment-baseline:alphabetic;fill:rgb(43.9%,50.2%,56.5%);fill-opacity:1.0;font-size:10px;font-weight:normal;stroke:none;text-anchor:middle" x="0" y="-6" /></g></g><g class="toyplot-coordinates-Axis" id="t1f60c0cb47ae45a0879a11a22efce132" transform="translate(50.0,550.0)rotate(-90.0)translate(0,-10.0)"><line style="" x1="0.04283290397760764" x2="499.5218705336796" y1="0" y2="0" /><g><g transform="translate(0.0,-6)"><text style="fill:rgb(16.1%,15.3%,14.1%);fill-opacity:1.0;font-family:helvetica;font-size:10.0px;font-weight:normal;stroke:none;vertical-align:baseline;white-space:pre" x="-8.615" y="-4.440892098500626e-16">-1.0</text></g><g transform="translate(125.0,-6)"><text style="fill:rgb(16.1%,15.3%,14.1%);fill-opacity:1.0;font-family:helvetica;font-size:10.0px;font-weight:normal;stroke:none;vertical-align:baseline;white-space:pre" x="-8.615" y="-4.440892098500626e-16">-0.5</text></g><g transform="translate(250.0,-6)"><text style="fill:rgb(16.1%,15.3%,14.1%);fill-opacity:1.0;font-family:helvetica;font-size:10.0px;font-weight:normal;stroke:none;vertical-align:baseline;white-space:pre" x="-6.95" y="-4.440892098500626e-16">0.0</text></g><g transform="translate(375.0,-6)"><text style="fill:rgb(16.1%,15.3%,14.1%);fill-opacity:1.0;font-family:helvetica;font-size:10.0px;font-weight:normal;stroke:none;vertical-align:baseline;white-space:pre" x="-6.95" y="-4.440892098500626e-16">0.5</text></g><g transform="translate(500.0,-6)"><text style="fill:rgb(16.1%,15.3%,14.1%);fill-opacity:1.0;font-family:helvetica;font-size:10.0px;font-weight:normal;stroke:none;vertical-align:baseline;white-space:pre" x="-6.95" y="-4.440892098500626e-16">1.0</text></g></g><g class="toyplot-coordinates-Axis-coordinates" style="visibility:hidden" transform=""><line style="stroke:rgb(43.9%,50.2%,56.5%);stroke-opacity:1.0;stroke-width:1.0" x1="0" x2="0" y1="3.0" y2="-4.5" /><text style="alignment-baseline:hanging;fill:rgb(43.9%,50.2%,56.5%);fill-opacity:1.0;font-size:10px;font-weight:normal;stroke:none;text-anchor:middle" x="0" y="6" /></g></g></g></svg>