<svg class="toyplot-canvas-Canvas" height="600px" id="te61b3db656ad46579018d5850ecd86e8" preserveAspectRatio="xMidYMid meet" style="background-color:transparent;fill:rgb(16.1%,15.3%,14.1%);fill-opacity:1.0;font-family:Helvetica;font-size:12px;opacity:1.0;stroke:rgb(16.1%,15.3%,14.1%);stroke-opacity:1.0;stroke-width:1.0" viewBox="0 0 600 600" width="600px" xmlns="http://www.w3.org/2000/svg" xmlns:toyplot="http://www.sandia.gov/toyplot"><g class="toyplot-axes-Cartesian" id="te2fdac91b6454841b3b69f0b9c7fed0e"><clipPath id="ta6314c5857c44643aeb3852a806a38c7"><rect height="520.0" width="520.0" x="40.0" y="40.0" /></clipPath><g clip-path="url(#ta6314c5857c44643aeb3852a806a38c7)"><g class="toyplot-mark-FillMagnitudes" id="tf4043e8c6e364f62ac405f406b7aee59" style="stroke:none"><polygon points="50.0,550.0 60.0,550.0 70.0,550.0 80.0,550.0 90.0,550.0 100.0,550.0 110.0,550.0 120.00000000000001,550.0 130.0,550.0 140.0,550.0 150.0,550.0 160.0,550.0 170.0,550.0 180.0,550.0 190.00000000000003,550.0 200.0,550.0 210.0,550.0 220.0,550.0 230.0,550.0 240.0,550.0 250.0,550.0 260.0,550.0 270.0,550.0 280.0,550.0 290.0,550.0 300.0,550.0 310.0,550.0 320.0,550.0 330.00000000000006,550.0 340.0,550.0 350.0,550.0 360.0,550.0 370.0,550.0 380.0,550.0 390.0,550.0 400.0,550.0 410.0,550.0 420.0,550.0 430.0,550.0 440.0,550.0 450.0,550.0 460.0,550.0 470.0,550.0 480.0,550.0 490.0,550.0 500.0,550.0 510.0,550.0 520.0,550.0 530.0,550.0 540.0,550.0 540.0,326.87993710422552 530.0,332.31600984391025 520.0,318.63845199375811 510.0,336.8383650487437 500.0,299.94464041050571 490.0,313.04838023564992 480.0,329.80668825718783 470.0,280.65616929603266 460.0,314.67115395372463 450.0,329.0355778505936 440.0,346.40156321971966 430.0,343.71604790357844 420.0,312.5815309900097 410.0,319.92089156722784 400.0,292.04918683542826 390.0,393.32671448969262 380.0,318.52390347073822 370.0,337.02575606927905 360.0,318.6158473282967 350.0,326.14579783257909 340.0,299.37791063272152 330.00000000000006,335.49263007599734 320.0,319.68269011367408 310.0,332.54940113038083 300.0,316.48476421369884 290.0,288.62671980084912 280.0,309.69062939601633 270.0,305.04085230626549 260.0,321.53167466993239 250.0,336.86435246167474 240.0,295.06933946423345 230.0,313.76534274401382 220.0,336.82443072892409 210.0,312.26047885941671 200.0,304.8704037095743 190.00000000000003,327.62556902515445 180.0,300.53741659154696 170.0,303.61406598207117 160.0,307.50433050295618 150.0,370.70113366566369 140.0,322.01429122907336 130.0,336.72490784410434 120.00000000000001,329.63762227062369 110.0,318.12012323785427 100.0,302.24204522969779 90.0,369.51024231229064 80.0,303.1601990597058 70.0,292.91951189312647 60.0,337.81067829938127 50.0,318.76272394369096" style="fill:rgb(40%,76.1%,64.7%);fill-opacity:1.0;opacity:1.0;stroke:none" /><polygon points="50.0,318.76272394369096 60.0,337.81067829938127 70.0,292.91951189312647 80.0,303.1601990597058 90.0,369.51024231229064 100.0,302.24204522969779 110.0,318.12012323785427 120.00000000000001,329.63762227062369 130.0,336.72490784410434 140.0,322.01429122907336 150.0,370.70113366566369 160.0,307.50433050295618 170.0,303.61406598207117 180.0,300.53741659154696 190.00000000000003,327.62556902515445 200.0,304.8704037095743 210.0,312.26047885941671 220.0,336.82443072892409 230.0,313.76534274401382 240.0,295.06933946423345 250.0,336.86435246167474 260.0,321.53167466993239 270.0,305.04085230626549 280.0,309.69062939601633 290.0,288.62671980084912 300.0,316.48476421369884 310.0,332.54940113038083 320.0,319.68269011367408 330.00000000000006,335.49263007599734 340.0,299.37791063272152 350.0,326.14579783257909 360.0,318.6158473282967 370.0,337.02575606927905 380.0,318.52390347073822 390.0,393.32671448969262 400.0,292.04918683542826 410.0,319.92089156722784 420.0,312.5815309900097 430.0,343.71604790357844 440.0,346.40156321971966 450.0,329.0355778505936 460.0,314.67115395372463 470.0,280.65616929603266 480.0,329.80668825718783 490.0,313.04838023564992 500.0,299.94464041050571 510.0,336.8383650487437 520.0,318.63845199375811 530.0,332.31600984391025 540.0,326.87993710422552 540.0,98.005790671021572 530.0,102.03427581370518 520.0,90.628001463814513 510.0,122.00629128878921 500.0,50.0 490.0,83.729087675597782 480.0,117.59500659960926 470.0,77.915911131502327 460.0,84.431400748976984 450.0,86.415382536546588 440.0,139.66022440678518 430.0,97.022112544218118 420.0,97.965739951263686 410.0,120.58282059379084 400.0,92.390420371840662 390.0,205.54723928518254 380.0,89.040760324275396 370.0,104.7545000902529 360.0,83.458729155562082 350.0,108.91222660880402 340.0,63.959100367842765 330.00000000000006,116.34965711153157 320.0,123.37800656258719 310.0,105.05039887686459 300.0,86.640197664789923 290.0,51.373956537839504 280.0,96.817033753431389 270.0,92.818196238981699 260.0,114.86615755819673 250.0,107.83443097559311 240.0,93.138781436849285 230.0,108.87642489556272 220.0,125.12299805879576 210.0,70.013581344761377 200.0,88.710358661701193 190.00000000000003,118.78834089556258 180.0,68.860357643487305 170.0,70.622690751525951 160.0,70.41834559131145 150.0,158.99149072506552 140.0,106.2560995995693 130.0,123.61764534758426 120.00000000000001,100.08364110583319 110.0,87.261688939471014 100.0,92.155273206242953 90.0,171.0337164570131 80.0,90.598088672843204 70.0,82.66379204738368 60.0,119.20713170669396 50.0,96.333277056148262" style="fill:rgb(98.8%,55.3%,38.4%);fill-opacity:1.0;opacity:1.0;stroke:none" /></g></g><g class="toyplot-axes-Axis" id="t43a48bf1682c40279d3a3cbb43c3d37e" transform="translate(50.0,550.0) rotate(0.0) translate(0,10.0)"><line style="" x1="0" x2="490.0" y1="0" y2="0" /><g><text style="dominant-baseline:hanging;font-size:10px;font-weight:normal;stroke:none;text-anchor:middle" transform="translate(0.0,6)"><tspan style="dominant-baseline:inherit">0</tspan></text><text style="dominant-baseline:hanging;font-size:10px;font-weight:normal;stroke:none;text-anchor:middle" transform="translate(100.0,6)"><tspan style="dominant-baseline:inherit">10</tspan></text><text style="dominant-baseline:hanging;font-size:10px;font-weight:normal;stroke:none;text-anchor:middle" transform="translate(200.0,6)"><tspan style="dominant-baseline:inherit">20</tspan></text><text style="dominant-baseline:hanging;font-size:10px;font-weight:normal;stroke:none;text-anchor:middle" transform="translate(300.0,6)"><tspan style="dominant-baseline:inherit">30</tspan></text><text style="dominant-baseline:hanging;font-size:10px;font-weight:normal;stroke:none;text-anchor:middle" transform="translate(400.0,6)"><tspan style="dominant-baseline:inherit">40</tspan></text><text style="dominant-baseline:hanging;font-size:10px;font-weight:normal;stroke:none;text-anchor:middle" transform="translate(500.0,6)"><tspan style="dominant-baseline:inherit">50</tspan></text></g><g class="toyplot-axes-Axis-coordinates" style="visibility:hidden" transform=""><line style="stroke:rgb(43.9%,50.2%,56.5%);stroke-opacity:1.0;stroke-width:1.0" x1="0" x2="0" y1="-3.0" y2="4.5" /><text style="alignment-baseline:alphabetic;fill:rgb(43.9%,50.2%,56.5%);fill-opacity:1.0;font-size:10px;font-weight:normal;stroke:none;text-anchor:middle" x="0" y="-6" /></g></g><g class="toyplot-axes-Axis" id="t40085c0b8f1a465bb8c1a5096f38851f" transform="translate(50.0,550.0) rotate(-90.0) translate(0,-10.0)"><line style="" x1="0" x2="500.0" y1="0" y2="0" /><g><text style="dominant-baseline:alphabetic;font-size:10px;font-weight:normal;stroke:none;text-anchor:middle" transform="translate(0.0,-6)"><tspan style="dominant-baseline:inherit">0</tspan></text><text style="dominant-baseline:alphabetic;font-size:10px;font-weight:normal;stroke:none;text-anchor:middle" transform="translate(223.3934229416224,-6)"><tspan style="dominant-baseline:inherit">1</tspan></text><text style="dominant-baseline:alphabetic;font-size:10px;font-weight:normal;stroke:none;text-anchor:middle" transform="translate(446.7868458832448,-6)"><tspan style="dominant-baseline:inherit">2</tspan></text></g><g class="toyplot-axes-Axis-coordinates" style="visibility:hidden" transform=""><line style="stroke:rgb(43.9%,50.2%,56.5%);stroke-opacity:1.0;stroke-width:1.0" x1="0" x2="0" y1="3.0" y2="-4.5" /><text style="alignment-baseline:hanging;fill:rgb(43.9%,50.2%,56.5%);fill-opacity:1.0;font-size:10px;font-weight:normal;stroke:none;text-anchor:middle" x="0" y="6" /></g></g></g></svg>