<svg class="toyplot-canvas-Canvas" height="600px" id="t74016e4c73844d9390cd79f52f524204" preserveAspectRatio="xMidYMid meet" style="background-color:transparent;fill:rgb(16.1%,15.3%,14.1%);fill-opacity:1.0;font-family:Helvetica;font-size:12px;opacity:1.0;stroke:rgb(16.1%,15.3%,14.1%);stroke-opacity:1.0;stroke-width:1.0" viewBox="0 0 600 600" width="600px" xmlns="http://www.w3.org/2000/svg" xmlns:toyplot="http://www.sandia.gov/toyplot" xmlns:xlink="http://www.w3.org/1999/xlink"><g class="toyplot-coordinates-Cartesian" id="tf56b5c2f33104f00abfae86adaa43ece"><clipPath id="t950e1563bbaa4a6bad4fefefa174426f"><rect height="520.0" width="520.0" x="40.0" y="40.0" /></clipPath><g clip-path="url(#t950e1563bbaa4a6bad4fefefa174426f)"><g class="toyplot-mark-Plot" id="t4a02cc1730234471a9984d6f33c0f4c0" style="fill:none"><g class="toyplot-Series"><path d="M 50.0 550.0 L 60.0 448.66603172589953 L 70.0 351.53792553753885 L 80.0 262.64697939191046 L 90.0 185.68260826532486 L 100.0 123.83921514019082 L 110.0 79.683607443756642 L 120.00000000000001 55.048461813938033 L 130.0 50.956258932640843 L 140.0 67.576845508118396 L 150.0 104.22038479449814 L 160.0 159.36598823686805 L 170.0 230.72483988669896 L 180.0 315.33519361139952 L 190.00000000000003 409.6853002428216 L 200.0 509.85916257859327 L 210.0 611.69906868108933 L 220.0 710.97815753630937 L 230.0 803.57585474225721 L 240.0 885.64889677596614 L 250.0 953.79084548416824 L 260.0 1005.1734721553913 L 270.0 1037.6641430335228 L 280.0 1049.9143341920449 L 290.0 1041.4156019628153 L 300.0 1012.5206858691015 L 310.0 964.4288681865213 L 320.0 899.1361977826997 L 330.00000000000006 819.35264419307816 L 340.0 728.38962044946902 L 350.0 630.02254302162521 L 360.0 528.33413331565828 L 370.0 427.54496449401034 L 380.0 331.8382867640903 L 390.0 245.18640175458384 L 400.0 171.18579230363991 L 410.0 112.90785059013328 L 420.0 72.771400130624059 L 430.0 52.442302611168181 L 440.0 52.764316368191579 L 450.0 73.724076234269802 L 460.0 114.45164825883964 L 470.0 173.25663628018117 L 480.0 247.69834174692286 L 490.0 334.68706480863131 L 500.0 430.61234217798454 L 510.0 531.49279925746873 L 520.0 633.14139692437811 L 530.0 731.33921441327448 L 540.0 822.010555444685" style="stroke:rgb(40%,76.1%,64.7%);stroke-opacity:1.0;stroke-width:2.0" /></g></g></g><g class="toyplot-coordinates-Axis" id="t9f3a198352aa4cd5979faca34a611394" transform="translate(50.0,550.0)translate(0,10.0)"><line style="" x1="0" x2="490.0" y1="0" y2="0" /><g><g transform="translate(0.0,6)"><text style="fill:rgb(16.1%,15.3%,14.1%);fill-opacity:1.0;font-family:helvetica;font-size:10.0px;font-weight:normal;stroke:none;vertical-align:baseline;white-space:pre" x="-2.78" y="8.555">0</text></g><g transform="translate(100.0,6)"><text style="fill:rgb(16.1%,15.3%,14.1%);fill-opacity:1.0;font-family:helvetica;font-size:10.0px;font-weight:normal;stroke:none;vertical-align:baseline;white-space:pre" x="-5.56" y="8.555">10</text></g><g transform="translate(200.0,6)"><text style="fill:rgb(16.1%,15.3%,14.1%);fill-opacity:1.0;font-family:helvetica;font-size:10.0px;font-weight:normal;stroke:none;vertical-align:baseline;white-space:pre" x="-5.56" y="8.555">20</text></g><g transform="translate(300.0,6)"><text style="fill:rgb(16.1%,15.3%,14.1%);fill-opacity:1.0;font-family:helvetica;font-size:10.0px;font-weight:normal;stroke:none;vertical-align:baseline;white-space:pre" x="-5.56" y="8.555">30</text></g><g transform="translate(400.0,6)"><text style="fill:rgb(16.1%,15.3%,14.1%);fill-opacity:1.0;font-family:helvetica;font-size:10.0px;font-weight:normal;stroke:none;vertical-align:baseline;white-space:pre" x="-5.56" y="8.555">40</text></g><g transform="translate(500.0,6)"><text style="fill:rgb(16.1%,15.3%,14.1%);fill-opacity:1.0;font-family:helvetica;font-size:10.0px;font-weight:normal;stroke:none;vertical-align:baseline;white-space:pre" x="-5.56" y="8.555">50</text></g></g><g class="toyplot-coordinates-Axis-coordinates" style="visibility:hidden" transform=""><line style="stroke:rgb(43.9%,50.2%,56.5%);stroke-opacity:1.0;stroke-width:1.0" x1="0" x2="0" y1="-3.0" y2="4.5" /><text style="alignment-baseline:alphabetic;fill:rgb(43.9%,50.2%,56.5%);fill-opacity:1.0;font-size:10px;font-weight:normal;stroke:none;text-anchor:middle" x="0" y="-6" /></g></g><g class="toyplot-coordinates-Axis" id="t3a275cba74174d03a5ff02edd94d1e67" transform="translate(50.0,550.0)rotate(-90.0)translate(0,-10.0)"><line style="" x1="0" x2="499.0437410673592" y1="0" y2="0" /><g><g transform="translate(0.0,-6)"><text style="fill:rgb(16.1%,15.3%,14.1%);fill-opacity:1.0;font-family:helvetica;font-size:10.0px;font-weight:normal;stroke:none;vertical-align:baseline;white-space:pre" x="-6.95" y="-4.4408920985e-16">0.0</text></g><g transform="translate(250.0,-6)"><text style="fill:rgb(16.1%,15.3%,14.1%);fill-opacity:1.0;font-family:helvetica;font-size:10.0px;font-weight:normal;stroke:none;vertical-align:baseline;white-space:pre" x="-6.95" y="-4.4408920985e-16">0.5</text></g><g transform="translate(500.0,-6)"><text style="fill:rgb(16.1%,15.3%,14.1%);fill-opacity:1.0;font-family:helvetica;font-size:10.0px;font-weight:normal;stroke:none;vertical-align:baseline;white-space:pre" x="-6.95" y="-4.4408920985e-16">1.0</text></g></g><g class="toyplot-coordinates-Axis-coordinates" style="visibility:hidden" transform=""><line style="stroke:rgb(43.9%,50.2%,56.5%);stroke-opacity:1.0;stroke-width:1.0" x1="0" x2="0" y1="3.0" y2="-4.5" /><text style="alignment-baseline:hanging;fill:rgb(43.9%,50.2%,56.5%);fill-opacity:1.0;font-size:10px;font-weight:normal;stroke:none;text-anchor:middle" x="0" y="6" /></g></g></g></svg>