<svg class="toyplot-canvas-Canvas" height="600px" id="t524013291ce54db6b0eadd33cbe9cb6b" preserveAspectRatio="xMidYMid meet" style="background-color:transparent;border-color:#292724;border-style:none;border-width:1.0;fill:rgb(16.1%,15.3%,14.1%);fill-opacity:1.0;font-family:Helvetica;font-size:12px;opacity:1.0;stroke:rgb(16.1%,15.3%,14.1%);stroke-opacity:1.0;stroke-width:1.0" viewBox="0 0 600 600" width="600px" xmlns="http://www.w3.org/2000/svg" xmlns:toyplot="http://www.sandia.gov/toyplot" xmlns:xlink="http://www.w3.org/1999/xlink"><g class="toyplot-coordinates-Cartesian" id="t7aed7367d7ef45718f2d015601bc4ce7"><clipPath id="t0bb527564825418b87d31f08b02ec8a6"><rect height="520.0" width="520.0" x="40.0" y="40.0" /></clipPath><g clip-path="url(#t0bb527564825418b87d31f08b02ec8a6)"><g class="toyplot-mark-FillBoundaries" id="t420e9a7a513541369816c94570919a60" style="stroke:none"><polygon points="50.0,529.8638597945051 60.0,440.0478547471168 70.0,455.8867176194061 80.0,414.91435668795333 90.0,445.0131885992445 100.0,413.1597506259011 110.0,468.4841659226817 120.00000000000001,470.19348168163117 130.0,458.6888577942168 140.0,443.16086926550594 150.0,464.3473013167353 160.0,442.86723754604515 170.0,431.9140808872094 180.0,429.3346377043273 190.00000000000003,426.9258303676286 200.0,444.52231765523425 210.0,550.0 220.0,451.8607026148188 230.0,422.2595900847112 240.0,466.79628316598377 250.0,511.7052330462639 260.0,433.5915853625787 270.0,437.09454012531336 280.0,449.87468072330074 290.0,490.59526619804564 300.0,478.6091985664402 310.0,468.58930948907624 320.0,440.35571038552376 330.00000000000006,442.8193445085293 340.0,441.99517068831335 350.0,444.66581968065464 360.0,508.9263909171867 370.0,444.0125715456535 380.0,466.35803946430093 390.0,467.6777932925203 400.0,441.3315073209391 410.0,420.9614024176131 420.0,490.5710765841392 430.0,468.8764546749771 440.0,521.6987053263035 450.0,493.2022462397316 460.0,454.85484360516176 470.0,435.3291041073122 480.0,456.14330789595266 490.0,495.1514563382722 500.0,503.67680276734643 510.0,457.65765041102105 520.0,423.7398855087751 530.0,435.7279566892885 540.0,473.8895525058416 540.0,303.8558081913074 530.0,305.3996725872591 520.0,301.5151964958586 510.0,306.68403788568844 500.0,296.2060861307009 490.0,299.9275958195185 480.0,304.68701614551344 470.0,290.72809029952236 460.0,300.38846944759405 450.0,304.4680179902096 440.0,309.40002088934034 430.0,308.6373247886966 420.0,299.7950089386698 410.0,301.8794139911445 400.0,293.9637486477116 390.0,322.72693423092994 380.0,301.4826642994058 370.0,306.73725761592004 360.0,301.5087766887921 350.0,303.6473099725675 340.0,296.0451328160665 330.00000000000006,306.3018442671883 320.0,301.8117639134476 310.0,305.46595656003905 300.0,300.9035413464792 290.0,292.99175558322753 280.0,298.97398238937734 270.0,297.6534288129743 260.0,302.3368822409181 250.0,306.6914184053187 240.0,294.82148296018937 230.0,300.1312157751189 220.0,306.6800804882654 210.0,299.70382896787066 200.0,297.6050207926308 190.00000000000003,304.0675703641723 180.0,296.3744367184325 170.0,297.248216316373 160.0,298.3530655654977 150.0,316.3011871254984 140.0,302.47394709605067 130.0,306.6518156276181 120.00000000000001,304.6390007914662 110.0,301.3679892471779 100.0,296.8585574410175 90.0,315.9629696571233 80.0,297.11931646247206 70.0,294.2109241241684 60.0,306.9601783792496 50.0,301.55049018085964" style="fill:rgb(40%,76.1%,64.7%);fill-opacity:1.0;opacity:1.0;stroke:none"><title>1st half</title></polygon><polygon points="50.0,301.55049018085964 60.0,306.9601783792496 70.0,294.2109241241684 80.0,297.11931646247206 90.0,315.9629696571233 100.0,296.8585574410175 110.0,301.3679892471779 120.00000000000001,304.6390007914662 130.0,306.6518156276181 140.0,302.47394709605067 150.0,316.3011871254984 160.0,298.3530655654977 170.0,297.248216316373 180.0,296.3744367184325 190.00000000000003,304.0675703641723 200.0,297.6050207926308 210.0,299.70382896787066 220.0,306.6800804882654 230.0,300.1312157751189 240.0,294.82148296018937 250.0,306.6914184053187 260.0,302.3368822409181 270.0,297.6534288129743 280.0,298.97398238937734 290.0,292.99175558322753 300.0,300.9035413464792 310.0,305.46595656003905 320.0,301.8117639134476 330.00000000000006,306.3018442671883 340.0,296.0451328160665 350.0,303.6473099725675 360.0,301.5087766887921 370.0,306.73725761592004 380.0,301.4826642994058 390.0,322.72693423092994 400.0,293.9637486477116 410.0,301.8794139911445 420.0,299.7950089386698 430.0,308.6373247886966 440.0,309.40002088934034 450.0,304.4680179902096 460.0,300.38846944759405 470.0,290.72809029952236 480.0,304.68701614551344 490.0,299.9275958195185 500.0,296.2060861307009 510.0,306.68403788568844 520.0,301.5151964958586 530.0,305.3996725872591 540.0,303.8558081913074 540.0,169.674863068572 530.0,119.52617000264306 520.0,113.37177426422991 510.0,151.2962795406811 500.0,160.97757346672205 490.0,122.85648340711154 480.0,168.41630833196072 470.0,168.48983577168815 460.0,169.5916598833254 450.0,140.0744305879016 440.0,191.87821449155808 430.0,178.0319340022056 420.0,153.39517338534077 410.0,176.6074625856243 400.0,160.31023129077113 390.0,214.49765484294372 380.0,162.1942447207509 370.0,131.56402210608934 360.0,153.33965936684743 350.0,175.43329872316738 340.0,133.75607843574878 330.00000000000006,154.22253766344235 320.0,186.64113270609607 310.0,141.10683803916953 300.0,159.6801853930832 290.0,169.4753343541355 280.0,123.9964575195028 270.0,99.45068015258374 260.0,138.5737613144663 250.0,171.79323119133937 240.0,148.07138561179835 230.0,141.94484038351976 220.0,164.95267326068765 210.0,168.4017244183474 200.0,144.4552961305448 190.00000000000003,166.03733707312526 180.0,105.47367859592862 170.0,140.2244771698334 160.0,131.82048993323517 150.0,186.94438228156008 140.0,163.97719840679844 130.0,136.09915040537402 120.00000000000001,135.523300232287 110.0,186.35436715795026 100.0,170.2859454858234 90.0,172.1189826847271 80.0,136.4247144295509 70.0,128.42734772295967 60.0,153.6830628858972 50.0,152.08477514583717" style="fill:rgb(98.8%,55.3%,38.4%);fill-opacity:1.0;opacity:1.0;stroke:none"><title>2nd half</title></polygon></g></g><g class="toyplot-coordinates-Axis" id="t1024e0c966c84fc783ba9664aa469644" transform="translate(50.0,550.0)translate(0,10.0)"><line style="" x1="0" x2="490.0" y1="0" y2="0" /><g><g transform="translate(0.0,6)"><text style="fill:rgb(16.1%,15.3%,14.1%);fill-opacity:1.0;font-family:helvetica;font-size:10.0px;font-weight:normal;stroke:none;vertical-align:baseline;white-space:pre" x="-2.78" y="8.555">0</text></g><g transform="translate(100.0,6)"><text style="fill:rgb(16.1%,15.3%,14.1%);fill-opacity:1.0;font-family:helvetica;font-size:10.0px;font-weight:normal;stroke:none;vertical-align:baseline;white-space:pre" x="-5.56" y="8.555">10</text></g><g transform="translate(200.0,6)"><text style="fill:rgb(16.1%,15.3%,14.1%);fill-opacity:1.0;font-family:helvetica;font-size:10.0px;font-weight:normal;stroke:none;vertical-align:baseline;white-space:pre" x="-5.56" y="8.555">20</text></g><g transform="translate(300.0,6)"><text style="fill:rgb(16.1%,15.3%,14.1%);fill-opacity:1.0;font-family:helvetica;font-size:10.0px;font-weight:normal;stroke:none;vertical-align:baseline;white-space:pre" x="-5.56" y="8.555">30</text></g><g transform="translate(400.0,6)"><text style="fill:rgb(16.1%,15.3%,14.1%);fill-opacity:1.0;font-family:helvetica;font-size:10.0px;font-weight:normal;stroke:none;vertical-align:baseline;white-space:pre" x="-5.56" y="8.555">40</text></g><g transform="translate(500.0,6)"><text style="fill:rgb(16.1%,15.3%,14.1%);fill-opacity:1.0;font-family:helvetica;font-size:10.0px;font-weight:normal;stroke:none;vertical-align:baseline;white-space:pre" x="-5.56" y="8.555">50</text></g></g><g class="toyplot-coordinates-Axis-coordinates" style="visibility:hidden" transform=""><line style="stroke:rgb(43.9%,50.2%,56.5%);stroke-opacity:1.0;stroke-width:1.0" x1="0" x2="0" y1="-3.0" y2="4.5" /><text style="alignment-baseline:alphabetic;fill:rgb(43.9%,50.2%,56.5%);fill-opacity:1.0;font-size:10px;font-weight:normal;stroke:none;text-anchor:middle" x="0" y="-6" /></g></g><g class="toyplot-coordinates-Axis" id="t02d8880dd95943068b3f7ad05c29d41c" transform="translate(50.0,550.0)rotate(-90.0)translate(0,-10.0)"><line style="" x1="0" x2="450.54931984741626" y1="0" y2="0" /><g><g transform="translate(24.165925726734965,-6)"><text style="fill:rgb(16.1%,15.3%,14.1%);fill-opacity:1.0;font-family:helvetica;font-size:10.0px;font-weight:normal;stroke:none;vertical-align:baseline;white-space:pre" x="-4.445" y="-4.440892098500626e-16">-2</text></g><g transform="translate(182.77728381782333,-6)"><text style="fill:rgb(16.1%,15.3%,14.1%);fill-opacity:1.0;font-family:helvetica;font-size:10.0px;font-weight:normal;stroke:none;vertical-align:baseline;white-space:pre" x="-2.78" y="-4.440892098500626e-16">0</text></g><g transform="translate(341.38864190891167,-6)"><text style="fill:rgb(16.1%,15.3%,14.1%);fill-opacity:1.0;font-family:helvetica;font-size:10.0px;font-weight:normal;stroke:none;vertical-align:baseline;white-space:pre" x="-2.78" y="-4.440892098500626e-16">2</text></g><g transform="translate(500.0,-6)"><text style="fill:rgb(16.1%,15.3%,14.1%);fill-opacity:1.0;font-family:helvetica;font-size:10.0px;font-weight:normal;stroke:none;vertical-align:baseline;white-space:pre" x="-2.78" y="-4.440892098500626e-16">5</text></g></g><g class="toyplot-coordinates-Axis-coordinates" style="visibility:hidden" transform=""><line style="stroke:rgb(43.9%,50.2%,56.5%);stroke-opacity:1.0;stroke-width:1.0" x1="0" x2="0" y1="3.0" y2="-4.5" /><text style="alignment-baseline:hanging;fill:rgb(43.9%,50.2%,56.5%);fill-opacity:1.0;font-size:10px;font-weight:normal;stroke:none;text-anchor:middle" x="0" y="6" /></g></g></g></svg>