<svg class="toyplot-canvas-Canvas" height="600px" id="t97c0bf66ec08451ca0ad9d039b6bc2f4" preserveAspectRatio="xMidYMid meet" style="background-color:transparent;border-color:#292724;border-style:none;border-width:1.0;fill:rgb(16.1%,15.3%,14.1%);fill-opacity:1.0;font-family:Helvetica;font-size:12px;opacity:1.0;stroke:rgb(16.1%,15.3%,14.1%);stroke-opacity:1.0;stroke-width:1.0" viewBox="0 0 600 600" width="600px" xmlns="http://www.w3.org/2000/svg" xmlns:toyplot="http://www.sandia.gov/toyplot" xmlns:xlink="http://www.w3.org/1999/xlink"><g class="toyplot-coordinates-Cartesian" id="t8d9f35c7afb2495791301c6a84c2ab45"><clipPath id="t4b44d28d5d6e440a89e8bdaf1328eee0"><rect height="520.0" width="520.0" x="40.0" y="40.0" /></clipPath><g clip-path="url(#t4b44d28d5d6e440a89e8bdaf1328eee0)"><g class="toyplot-mark-Plot" id="t9094271fc5cb4928a424bb5a976b67ca" style="fill:none"><g class="toyplot-Series"><path d="M 50.0 300.0 L 60.20408163265306 249.33301586294976 L 70.40816326530611 200.7689627687694 L 80.61224489795919 156.32348969595523 L 90.81632653061224 117.84130413266243 L 101.0204081632653 86.91960757009538 L 111.22448979591836 64.84180372187832 L 121.42857142857143 52.52423090696902 L 131.6326530612245 50.47812946632042 L 141.83673469387756 58.78842275405922 L 152.0408163265306 77.1101923972491 L 162.24489795918367 104.68299411843402 L 172.44897959183672 140.36241994334947 L 182.65306122448982 182.66759680569973 L 192.85714285714286 229.84265012141077 L 203.0612244897959 279.92958128929666 L 213.26530612244898 330.8495343405447 L 223.46938775510202 380.4890787681547 L 233.67346938775512 426.7879273711286 L 243.87755102040816 467.82444838798307 L 254.08163265306123 501.8954227420841 L 264.2857142857143 527.5867360776957 L 274.48979591836735 543.8320715167614 L 284.6938775510204 549.9571670960224 L 294.89795918367344 545.7078009814077 L 305.10204081632656 531.2603429345507 L 315.30612244897964 507.21443409326065 L 325.51020408163265 474.56809889134985 L 335.7142857142857 434.6763220965391 L 345.9183673469388 389.1948102247345 L 356.12244897959187 340.0112715108126 L 366.3265306122449 289.16706665782914 L 376.5306122448979 238.77248224700517 L 386.73469387755097 190.91914338204515 L 396.93877551020404 147.59320087729196 L 407.14285714285717 110.59289615181996 L 417.34693877551024 81.45392529506663 L 427.55102040816325 61.38570006531203 L 437.7551020408163 51.221151305584094 L 447.9591836734694 51.382158184095815 L 458.16326530612247 61.86203811713494 L 468.36734693877554 82.22582412941982 L 478.57142857142856 111.62831814009061 L 488.7755102040816 148.84917087346145 L 498.97959183673464 192.34353240431562 L 509.18367346938777 240.30617108899227 L 519.3877551020408 290.74639962873437 L 529.5918367346939 341.57069846218906 L 539.7959183673469 390.66960720663724 L 550.0 436.0052777223425" style="stroke:rgb(40%,76.1%,64.7%);stroke-opacity:1.0;stroke-width:2.0" /></g></g></g><g class="toyplot-coordinates-Axis" id="t9d1b45604a49430b9194d525006844dd" transform="translate(50.0,550.0)rotate(-90.0)translate(0,-10.0)"><line style="" x1="0.04283290397760764" x2="499.5218705336796" y1="0" y2="0" /><g><g transform="translate(0.0,-6)"><text style="fill:rgb(16.1%,15.3%,14.1%);fill-opacity:1.0;font-family:helvetica;font-size:10.0px;font-weight:normal;stroke:none;vertical-align:baseline;white-space:pre" x="-8.615" y="-4.440892098500626e-16">-1.0</text></g><g transform="translate(125.0,-6)"><text style="fill:rgb(16.1%,15.3%,14.1%);fill-opacity:1.0;font-family:helvetica;font-size:10.0px;font-weight:normal;stroke:none;vertical-align:baseline;white-space:pre" x="-8.615" y="-4.440892098500626e-16">-0.5</text></g><g transform="translate(250.0,-6)"><text style="fill:rgb(16.1%,15.3%,14.1%);fill-opacity:1.0;font-family:helvetica;font-size:10.0px;font-weight:normal;stroke:none;vertical-align:baseline;white-space:pre" x="-6.95" y="-4.440892098500626e-16">0.0</text></g><g transform="translate(375.0,-6)"><text style="fill:rgb(16.1%,15.3%,14.1%);fill-opacity:1.0;font-family:helvetica;font-size:10.0px;font-weight:normal;stroke:none;vertical-align:baseline;white-space:pre" x="-6.95" y="-4.440892098500626e-16">0.5</text></g><g transform="translate(500.0,-6)"><text style="fill:rgb(16.1%,15.3%,14.1%);fill-opacity:1.0;font-family:helvetica;font-size:10.0px;font-weight:normal;stroke:none;vertical-align:baseline;white-space:pre" x="-6.95" y="-4.440892098500626e-16">1.0</text></g></g><g class="toyplot-coordinates-Axis-coordinates" style="visibility:hidden" transform=""><line style="stroke:rgb(43.9%,50.2%,56.5%);stroke-opacity:1.0;stroke-width:1.0" x1="0" x2="0" y1="3.0" y2="-4.5" /><text style="alignment-baseline:hanging;fill:rgb(43.9%,50.2%,56.5%);fill-opacity:1.0;font-size:10px;font-weight:normal;stroke:none;text-anchor:middle" x="0" y="6" /></g></g></g></svg>