<svg class="toyplot-canvas-Canvas" height="600px" id="t51971d2e0dc348059c6ac8590f4513d5" preserveAspectRatio="xMidYMid meet" style="background-color:transparent;fill:rgb(16.1%,15.3%,14.1%);fill-opacity:1.0;font-family:Helvetica;font-size:12px;opacity:1.0;stroke:rgb(16.1%,15.3%,14.1%);stroke-opacity:1.0;stroke-width:1.0" viewBox="0 0 600 600" width="600px" xmlns="http://www.w3.org/2000/svg" xmlns:toyplot="http://www.sandia.gov/toyplot"><g class="toyplot-axes-Cartesian" id="t773765936c044dcaad8ce9e0e2cc6b0b"><clipPath id="t83c006bf0c2c481bac06f74eb0a28411"><rect height="520.0" width="520.0" x="40.0" y="40.0" /></clipPath><g clip-path="url(#t83c006bf0c2c481bac06f74eb0a28411)"><rect height="520.0" style="pointer-events:all;visibility:hidden" width="520.0" x="40.0" y="40.0" /><g class="toyplot-mark-Plot" id="ta337a0a0fb804d24b297927af6eb883a" style="fill:none"><g class="toyplot-Series"><path d="M 50.0 299.78212470917276 L 60.204081632653057 249.06229432600742 L 70.408163265306115 200.44758836693157 L 80.612244897959187 155.95575815546559 L 90.816326530612244 117.43343523085244 L 101.0204081632653 86.479486983787666 L 111.22448979591836 64.378655732702299 L 121.42857142857143 52.048235547940536 L 131.63265306122449 50.0 L 141.83673469387756 58.318961019040557 L 152.0408163265306 76.659840478303323 L 162.24489795918367 104.26140094822097 L 172.44897959183672 139.97804082387384 L 182.65306122448982 182.32734247135758 L 192.85714285714286 229.55159990924946 L 203.0612244897959 279.69077232134447 L 213.26530612244898 330.66383546818918 L 223.46938775510202 380.35515451050219 L 233.67346938775512 426.7022933440827 L 243.87755102040816 467.78161592345947 L 254.08163265306123 501.88812669494877 L 264.28571428571428 527.60623636530727 L 274.48979591836735 543.86851587573335 L 284.69387755102042 550.0 L 294.89795918367344 545.74620174774475 L 305.10204081632656 531.28367483628722 L 315.30612244897964 507.21268583602722 L 325.51020408163265 474.53230013171884 L 335.71428571428572 434.59891575575097 L 345.91836734693879 389.06996614493352 L 356.12244897959187 339.83512843550295 L 366.32653061224488 288.93789249316319 L 376.5306122448979 238.4907459522658 L 386.73469387755097 190.58749550551039 L 396.93877551020404 147.21636354534013 L 407.14285714285717 110.17746707727372 L 417.34693877551024 81.008103939399632 L 427.55102040816325 60.918947320345936 L 437.75510204081633 50.743796819571983 L 447.9591836734694 50.904971630106282 L 458.16326530612247 61.395782198225234 L 468.36734693877554 81.780807873098496 L 478.57142857142856 111.21396902256483 L 488.77551020408163 148.47364353263427 L 498.97959183673464 192.0133701818832 L 509.18367346938777 240.026034449322 L 519.38775510204084 290.51887272648798 L 529.59183673469386 341.39618188709204 L 539.79591836734687 390.5463013570191 L 550.0 435.92925749752862" style="stroke:rgb(40%,76.1%,64.7%);stroke-opacity:1.0;stroke-width:2.0" /></g></g></g></g></svg>