<svg height="600px" id="ta86f3760bddd46fe80d13f4a6efa75e8" style="background-color:transparent;fill:#292724;fill-opacity:1.0;font-family:helvetica;font-size:12px;opacity:1.0;stroke:#292724;stroke-opacity:1.0;stroke-width:1.0" width="600px" xmlns="http://www.w3.org/2000/svg" xmlns:toyplot="http://www.sandia.gov/toyplot"><g class="toyplot-axes-Cartesian" id="t1094a9e946f746bc861f33efdf51a84b"><clipPath id="t9ee9aace19e742b992d422031b33cfa1"><rect height="500" width="500" x="50" y="50" /></clipPath><g class="toyplot-coordinate-events" clip-path="url(#t9ee9aace19e742b992d422031b33cfa1)" style="cursor:crosshair"><rect height="500" style="pointer-events:all;visibility:hidden" width="500" x="50" y="50" /><g class="toyplot-mark-Plot" id="t6eaebf2c2eda4058951b6f60e55038d3" style="fill:none"><g class="toyplot-Series"><path d="M 60.0 300.0 L 540.0 251.35969522843178 L 1020.0 204.73820425801861 L 1500.0 162.070550108117 L 1980.0 125.12765196735594 L 2460.0 95.442823267291573 L 2940.0 74.248131573003178 L 3420.0 62.423261670690259 L 3900.0 60.459004287667604 L 4380.0 68.436885843896846 L 4860.0 86.025784701359129 L 5340.0 112.49567435369667 L 5820.0 146.74792314561549 L 6300.0 187.36089293347175 L 6780.0 232.64894411655433 L 7260.0 280.73239803772481 L 7740.0 329.61555296692291 L 8220.0 377.26951561742851 L 8700.0 421.71641027628345 L 9180.0 461.11147045246372 L 9660.0 493.81960583240078 L 10140.0 518.48326663458784 L 10620.0 534.07878865609086 L 11100.0 539.95888041218154 L 11580.0 535.87948894215128 L 12060.0 522.00992921716863 L 12540.0 498.92585672953027 L 13020.0 467.58537493569588 L 13500.0 429.28926921267748 L 13980.0 385.62701781574515 L 14460.0 338.41082065038012 L 14940.0 289.60038399151591 L 15420.0 241.22158295712495 L 15900.0 195.28237764676334 L 16380.0 153.68947284220027 L 16860.0 118.16918030574715 L 17340.0 90.195768283263959 L 17820.0 70.930272062699544 L 18300.0 61.172305253360726 L 18780.0 61.326871856731984 L 19260.0 71.387556592449528 L 19740.0 90.936791164243033 L 20220.0 119.163185414487 L 20700.0 154.89520403852299 L 21180.0 196.64979110814301 L 21660.0 242.69392424543261 L 22140.0 291.11654364358503 L 22620.0 339.90787052370149 L 23100.0 387.04282291837171 L 23580.0 430.56506661344878" style="fill:none;stroke:rgba(40%,76.1%,64.7%,1);stroke-opacity:1.0;stroke-width:2.0" /></g></g></g><g class="toyplot-coordinates" style="visibility:hidden"><rect height="14" style="fill:white;opacity:0.75;stroke:none" width="90" x="450" y="60" /><text style="alignment-baseline:middle;font-size:10px;font-weight:normal;stroke:none;text-anchor:middle" x="495.0" y="67.0" /></g><line style="" x1="60.0" x2="550" y1="550" y2="550" /><g><text style="alignment-baseline:middle;baseline-shift:-80%;font-size:10px;font-weight:normal;stroke:none;text-anchor:middle" x="60.0" y="550">0.0</text><text style="alignment-baseline:middle;baseline-shift:-80%;font-size:10px;font-weight:normal;stroke:none;text-anchor:middle" x="300.0" y="550">0.5</text><text style="alignment-baseline:middle;baseline-shift:-80%;font-size:10px;font-weight:normal;stroke:none;text-anchor:middle" x="540.0" y="550">1.0</text></g><line style="" x1="50" x2="50" y1="60.459004287667604" y2="539.9588804121815" /><g><text style="alignment-baseline:middle;baseline-shift:80%;font-size:10px;font-weight:normal;stroke:none;text-anchor:middle" transform="rotate(-90, 50, 540.0)" x="50" y="540.0">-1.0</text><text style="alignment-baseline:middle;baseline-shift:80%;font-size:10px;font-weight:normal;stroke:none;text-anchor:middle" transform="rotate(-90, 50, 420.0)" x="50" y="420.0">-0.5</text><text style="alignment-baseline:middle;baseline-shift:80%;font-size:10px;font-weight:normal;stroke:none;text-anchor:middle" transform="rotate(-90, 50, 300.0)" x="50" y="300.0">0.0</text><text style="alignment-baseline:middle;baseline-shift:80%;font-size:10px;font-weight:normal;stroke:none;text-anchor:middle" transform="rotate(-90, 50, 180.0)" x="50" y="180.0">0.5</text><text style="alignment-baseline:middle;baseline-shift:80%;font-size:10px;font-weight:normal;stroke:none;text-anchor:middle" transform="rotate(-90, 50, 60.0)" x="50" y="60.0">1.0</text></g></g></svg>