<svg height="600px" id="t6dc8872c3f0d40a59a899bdf2bb687a9" style="background-color:transparent;fill:#292724;fill-opacity:1.0;font-family:helvetica;font-size:12px;opacity:1.0;stroke:#292724;stroke-opacity:1.0;stroke-width:1.0" width="600px" xmlns="http://www.w3.org/2000/svg" xmlns:toyplot="http://www.sandia.gov/toyplot"><g class="toyplot-axes-Cartesian" id="tcb551c63208848d19d915b3f8d5e5de2"><toyplot:axes>{"x": [{"domain": {"max": 5.0, "min": -2.8808984113366081}, "range": {"max": 540, "min": 60}, "scale": "linear"}], "y": [{"domain": {"max": 1.0, "min": 0.0}, "range": {"max": 540, "min": 60}, "scale": "linear"}]}</toyplot:axes><clipPath id="t319ecb6336994b0fbd44ffb34463f20a"><rect height="500" width="500" x="50" y="50" /></clipPath><g class="toyplot-coordinate-events" clip-path="url(#t319ecb6336994b0fbd44ffb34463f20a)" style="cursor:crosshair"><rect height="500" style="pointer-events:all;visibility:hidden" width="500" x="50" y="50" /><g class="toyplot-mark-FillBoundaries" id="t6960ecc0e91b457c953731fe8e6c6de9" style="stroke:none"><toyplot:data-table title="Fill Data">{"data": [[0.0, 0.02040816326530612, 0.04081632653061224, 0.061224489795918366, 0.08163265306122448, 0.1020408163265306, 0.12244897959183673, 0.14285714285714285, 0.16326530612244897, 0.18367346938775508, 0.2040816326530612, 0.22448979591836732, 0.24489795918367346, 0.26530612244897955, 0.2857142857142857, 0.3061224489795918, 0.32653061224489793, 0.3469387755102041, 0.36734693877551017, 0.3877551020408163, 0.4081632653061224, 0.42857142857142855, 0.44897959183673464, 0.4693877551020408, 0.4897959183673469, 0.5102040816326531, 0.5306122448979591, 0.5510204081632653, 0.5714285714285714, 0.5918367346938775, 0.6122448979591836, 0.6326530612244897, 0.6530612244897959, 0.673469387755102, 0.6938775510204082, 0.7142857142857142, 0.7346938775510203, 0.7551020408163265, 0.7755102040816326, 0.7959183673469387, 0.8163265306122448, 0.836734693877551, 0.8571428571428571, 0.8775510204081632, 0.8979591836734693, 0.9183673469387754, 0.9387755102040816, 0.9591836734693877, 0.9795918367346939, 1.0], [-2.5635166606247353, -1.1478550376436099, -1.397503976138816, -0.7517059477920245, -1.226117620977587, -0.7240502035381267, -1.5960623967791756, -1.6230042844775308, -1.4416707402428321, -1.1969217399884924, -1.5308579773773405, -1.1922935764856581, -1.019652146662179, -0.9789954872979618, -0.9410283554719527, -1.218380612891945, -2.880898411336608, -1.3340467456314773, -0.8674800242068357, -1.569458331707609, -2.2773040752401994, -1.0460926313720758, -1.101305492621314, -1.3027434720919882, -1.9445730668452152, -1.7556511041330318, -1.5977196483098974, -1.1527073956668956, -1.1915386961591126, -1.1785482358583024, -1.2206424626602637, -2.233504530199399, -1.2103460982815846, -1.5625508235228684, -1.583352515219207, -1.1680877087030987, -0.8470182539603341, -1.9441917950656031, -1.602245572388675, -2.4348191548712017, -1.9856637565830342, -1.381239787579701, -1.0734790488021515, -1.401548299944416, -2.0163868101209346, -2.1507615883789035, -1.4254170589868598, -0.8908121399184641, -1.0797656821614594, -1.6812610018509457], [1.0351122831254365, 0.9498458768684002, 1.1507970320775929, 1.1049555429606308, 0.807945709909621, 1.1090655736764765, 1.037988825762077, 0.9864318063963854, 0.9547062279072969, 1.0205569428537036, 0.802614794891213, 1.0855094402685852, 1.1029238496529725, 1.1166961861435067, 0.9954385766896854, 1.097299969992776, 1.06421898196488, 0.9542607229165534, 1.0574825979443427, 1.1411735277559425, 0.9540820169715661, 1.022717331251831, 1.0965369726115335, 1.075722675446814, 1.1700133189124973, 1.0453093592076066, 0.973397497590803, 1.0309941396372841, 0.9602224053841464, 1.1218866073455147, 1.0020626355947773, 1.0357697627121683, 0.9533595086475567, 1.0361813408882299, 0.7013334745815212, 1.1546929617170507, 1.029927852857588, 1.0627818217908453, 0.9234110359208207, 0.9113895749450291, 0.9891268025699628, 1.0534278178269016, 1.2056927511887974, 0.985674998141523, 1.0606920143135579, 1.11934969390231, 0.9541983472224251, 1.0356685750175452, 0.974442252102361, 0.9987763290331094], [3.390960515463033, 3.365768628840039, 3.7638440798495663, 3.6377912107038637, 3.0751854067317823, 3.1040773666293053, 2.850810168972202, 3.6519991181342113, 3.6429226847057117, 3.2035145562945293, 2.84151047047156, 3.7103620617407675, 3.5779001224171667, 4.125635148964697, 3.1710430692093534, 3.511214813564921, 3.1337760762638616, 3.1881393198419006, 3.5507841069818413, 3.4542187458687965, 3.0803198355852417, 3.603918370341428, 4.220568426691976, 3.833682870980027, 3.116854054589167, 3.2712432023610916, 3.563992529670414, 2.846290228666585, 3.3572655370054134, 3.6798537090318453, 3.0229458307277604, 3.371181285335491, 3.7144044555237934, 3.231617110038247, 2.4072213865592937, 3.261312546932776, 3.0044388984911894, 3.3703062846551894, 2.981986669443329, 2.7637444096204105, 3.5802651261555125, 3.1150205552327854, 3.1323872830147343, 3.1335462075806086, 3.8516509113226447, 3.2507940351442364, 3.4033886229870745, 4.001146969754897, 3.904142634559703, 3.1137091235319296]], "names": ["y", "x0", "x1", "x2"]}</toyplot:data-table><polygon points="79.330694597275155,540.0 165.55405944276788,530.20408163265301 150.34875108537017,520.40816326530603 189.68221757956476,510.61224489795921 160.78733894472532,500.81632653061223 191.3666393991349,491.0204081632653 138.25520071422557,481.22448979591837 136.61425758563405,471.42857142857144 147.65869651755187,461.63265306122452 162.56556550511425,451.83673469387759 142.22659073593411,442.0408163265306 162.84745195579666,432.24489795918367 173.36248234827897,422.44897959183669 175.83874780384579,412.65306122448982 178.15120284707649,402.85714285714289 161.25857505097508,393.06122448979596 60.0,383.26530612244903 154.21372548977394,373.46938775510205 182.63079351867719,363.67346938775512 139.87556816065558,353.87755102040819 96.762976275586638,344.08163265306121 171.7520780519244,334.28571428571428 168.38924147969919,324.48979591836735 156.12030650563131,314.69387755102042 117.02854444987621,304.89795918367349 128.53516937621734,295.10204081632651 138.15426289048682,285.30612244897964 165.25851802989712,275.51020408163265 162.8934292718119,265.71428571428572 163.68463613921921,255.91836734693879 161.12081310657152,246.12244897959189 99.430664719500811,236.32653061224494 161.74793131617264,226.53061224489798 140.29628211427109,216.73469387755102 139.02931843918051,206.9387755102041 164.32175297189843,197.1428571428572 183.87705367909143,187.34693877551024 117.05176647922639,177.55102040816328 137.87860351202201,167.75510204081633 87.169242886748549,157.95918367346945 114.52584360985765,148.1632653061225 151.33935013904468,138.36734693877554 170.08406005698023,128.57142857142861 150.10242441988549,118.77551020408164 112.65460191525864,108.97959183673476 104.47026934334747,99.183673469387799 148.64865560541983,89.387755102040842 181.20970991157586,79.591836734693899 169.70116157828303,69.795918367346957 133.06602959439206,60.0 296.29842413634492,60.0 294.81631431623134,69.795918367346957 298.54541136397569,79.591836734693899 293.5833236297392,89.387755102040842 303.64215731452714,99.183673469387799 300.06950801326229,108.97959183673476 295.50046450030709,118.77551020408164 308.90103331245854,128.57142857142861 299.62706933030972,138.36734693877554 295.71070272939875,148.1632653061225 290.97597994623322,157.95918367346945 291.70816820285125,167.75510204081633 300.19679141887696,177.55102040816328 298.19576256850132,187.34693877551024 305.79480129819683,197.1428571428572 278.18214313830725,206.9387755102041 298.57664227257044,216.73469387755102 293.53223268871682,226.53061224489798 298.55157437875954,236.32653061224494 296.49858242633525,246.12244897959189 303.79667249657621,255.91836734693879 293.95022950349926,265.71428571428572 298.26070664309032,275.51020408163265 294.75268170236257,285.30612244897964 299.13260030738002,295.10204081632651 306.72791464010152,304.89795918367349 300.98497690619774,314.69387755102042 302.25270833954465,324.48979591836735 297.75659304871863,334.28571428571428 293.57623833089406,344.08163265306121 304.97137635821821,353.87755102040819 299.8740328558859,363.67346938775512 293.58712273126525,373.46938775510205 300.28432419084419,383.26530612244903 302.29918003907443,393.06122448979596 296.09513245039466,402.85714285714289 303.48054075030478,412.65306122448982 302.64171233628196,422.44897959183669 301.58105705712222,432.24489795918367 284.3508603595215,442.0408163265306 297.62501078779144,451.83673469387759 293.61425699748662,461.63265306122452 295.54655924019244,471.42857142857144 298.68673032270931,481.22448979591837 303.01578485662321,491.0204081632653 284.67554912916165,500.81632653061223 302.76545619602683,510.61224489795921 305.55751284079838,520.40816326530603 293.31822875592036,530.20408163265301 298.51152942637475,540.0" style="fill:rgba(40%,76.1%,64.7%,1);opacity:1.0;stroke:none" /><polygon points="298.51152942637475,540.0 293.31822875592036,530.20408163265301 305.55751284079838,520.40816326530603 302.76545619602683,510.61224489795921 284.67554912916165,500.81632653061223 303.01578485662321,491.0204081632653 298.68673032270931,481.22448979591837 295.54655924019244,471.42857142857144 293.61425699748662,461.63265306122452 297.62501078779144,451.83673469387759 284.3508603595215,442.0408163265306 301.58105705712222,432.24489795918367 302.64171233628196,422.44897959183669 303.48054075030478,412.65306122448982 296.09513245039466,402.85714285714289 302.29918003907443,393.06122448979596 300.28432419084419,383.26530612244903 293.58712273126525,373.46938775510205 299.8740328558859,363.67346938775512 304.97137635821821,353.87755102040819 293.57623833089406,344.08163265306121 297.75659304871863,334.28571428571428 302.25270833954465,324.48979591836735 300.98497690619774,314.69387755102042 306.72791464010152,304.89795918367349 299.13260030738002,295.10204081632651 294.75268170236257,285.30612244897964 298.26070664309032,275.51020408163265 293.95022950349926,265.71428571428572 303.79667249657621,255.91836734693879 296.49858242633525,246.12244897959189 298.55157437875954,236.32653061224494 293.53223268871682,226.53061224489798 298.57664227257044,216.73469387755102 278.18214313830725,206.9387755102041 305.79480129819683,197.1428571428572 298.19576256850132,187.34693877551024 300.19679141887696,177.55102040816328 291.70816820285125,167.75510204081633 290.97597994623322,157.95918367346945 295.71070272939875,148.1632653061225 299.62706933030972,138.36734693877554 308.90103331245854,128.57142857142861 295.50046450030709,118.77551020408164 300.06950801326229,108.97959183673476 303.64215731452714,99.183673469387799 293.5833236297392,89.387755102040842 298.54541136397569,79.591836734693899 294.81631431623134,69.795918367346957 296.29842413634492,60.0 425.11213145417088,60.0 473.25487679746266,69.795918367346957 479.16309670633927,79.591836734693899 442.75557164094613,89.387755102040842 433.46152947194685,99.183673469387799 470.05777592917292,108.97959183673476 426.32034400131772,118.77551020408164 426.24975765917941,128.57142857142861 425.19200651200759,138.36734693877554 453.52854663561448,148.1632653061225 403.79691408810424,157.95918367346945 417.08934335788263,167.75510204081633 440.74063355007286,177.55102040816328 418.45683591780067,187.34693877551024 434.10217796085976,197.1428571428572 382.08225135077402,206.9387755102041 432.29352506807913,216.73469387755102 461.69853877815427,226.53061224489798 440.79392700782648,236.32653061224494 419.5840332257593,246.12244897959189 459.59416470168117,255.91836734693879 439.94636384309536,265.71428571428572 408.82451260214776,275.51020408163265 452.53743548239726,285.30612244897964 434.7070220226401,295.10204081632651 425.3036790200299,304.89795918367349 468.9634007812773,314.69387755102042 492.52734705351958,324.48979591836735 454.96918913811231,334.28571428571428 423.07849805631417,344.08163265306121 445.8514698126736,353.87755102040819 451.73295323182106,363.67346938775512 429.64543366973987,373.46938775510205 426.33434455838648,383.26530612244903 449.32291571467698,393.06122448979596 428.60415640979977,402.85714285714289 486.74526854790855,412.65306122448982 453.38450191695995,422.44897959183669 461.45232966409424,432.24489795918367 408.53339300970231,442.0408163265306 430.58188952947353,451.83673469387759 457.34481561084095,461.63265306122452 457.89763177700451,471.42857142857144 409.09980752836776,481.22448979591837 424.52549233360958,491.0204081632653 422.76577662266197,500.81632653061223 457.03227414763114,510.61224489795921 464.70974618595869,520.40816326530603 440.46425962953873,530.20408163265301 441.99861585999628,540.0" style="fill:rgba(98.8%,55.3%,38.4%,1);opacity:1.0;stroke:none" /></g></g><g class="toyplot-coordinates" style="visibility:hidden"><rect height="14" style="fill:white;opacity:0.75;stroke:none" width="90" x="450" y="60" /><text style="alignment-baseline:middle;font-size:10px;font-weight:normal;stroke:none;text-anchor:middle" x="495.0" y="67.0" /></g><line style="" x1="60.0" x2="492.52734705351958" y1="550" y2="550" /><g><text style="alignment-baseline:middle;baseline-shift:-80%;font-size:10px;font-weight:normal;stroke:none;text-anchor:middle" x="83.199288697665565" y="550">-2</text><text style="alignment-baseline:middle;baseline-shift:-80%;font-size:10px;font-weight:normal;stroke:none;text-anchor:middle" x="235.4661924651104" y="550">0</text><text style="alignment-baseline:middle;baseline-shift:-80%;font-size:10px;font-weight:normal;stroke:none;text-anchor:middle" x="387.73309623255517" y="550">2</text><text style="alignment-baseline:middle;baseline-shift:-80%;font-size:10px;font-weight:normal;stroke:none;text-anchor:middle" x="540.0" y="550">5</text></g><line style="" x1="50" x2="50" y1="60.0" y2="540.0" /><g><text style="alignment-baseline:middle;baseline-shift:80%;font-size:10px;font-weight:normal;stroke:none;text-anchor:middle" transform="rotate(-90, 50, 540.0)" x="50" y="540.0">0.0</text><text style="alignment-baseline:middle;baseline-shift:80%;font-size:10px;font-weight:normal;stroke:none;text-anchor:middle" transform="rotate(-90, 50, 300.0)" x="50" y="300.0">0.5</text><text style="alignment-baseline:middle;baseline-shift:80%;font-size:10px;font-weight:normal;stroke:none;text-anchor:middle" transform="rotate(-90, 50, 60.0)" x="50" y="60.0">1.0</text></g></g></svg>