<svg class="toyplot-canvas-Canvas" xmlns:toyplot="http://www.sandia.gov/toyplot" xmlns:xlink="http://www.w3.org/1999/xlink" xmlns="http://www.w3.org/2000/svg" width="600px" height="600px" viewBox="0 0 600 600" preserveAspectRatio="xMidYMid meet" style="background-color:transparent;border-color:#292724;border-style:none;border-width:1.0;fill:rgb(16.1%,15.3%,14.1%);fill-opacity:1.0;font-family:Helvetica;font-size:12px;opacity:1.0;stroke:rgb(16.1%,15.3%,14.1%);stroke-opacity:1.0;stroke-width:1.0" id="tf549cf6c18104a04b4f20c11a5272e82"><g class="toyplot-coordinates-Cartesian" id="t7919ec86762e41af87a7399c096a01c4"><clipPath id="t7502f1a1d2044d50ba6f2274b803ed59"><rect x="40.0" y="40.0" width="520.0" height="520.0" /></clipPath><g clip-path="url(#t7502f1a1d2044d50ba6f2274b803ed59)"><g class="toyplot-mark-Plot" style="fill:none" id="tb338675cd2ff4f1699e813f94239ada4"><g class="toyplot-Series"><path d="M 51.99203187250996 300.0 L 62.15545979347914 268.0307095788735 L 72.31888771444832 236.58635402262314 L 82.4823156354175 206.1832487801565 L 92.64574355638669 177.32061199901557 L 102.80917147735587 150.472367377196 L 112.97259939832506 126.07936234912839 L 123.13602731929426 104.54212938299253 L 133.29945524026343 86.21430924866348 L 143.4628831612326 71.39684424604692 L 153.6263110822018 60.33303674083486 L 163.78973900317098 53.20455414638743 L 173.95316692414016 50.12844594982803 L 184.11659484510938 51.155221762700435 L 194.28002276607853 56.268021954544125 L 204.44345068704772 65.38289448755992 L 214.60687860801693 78.35017340674995 L 224.77030652898608 94.95693635076103 L 234.93373444995527 114.93050073117108 L 245.09716237092445 137.9429011730528 L 255.26059029189366 163.61627469736274 L 265.42401821286285 191.52906522061042 L 275.58744613383203 221.22294549409477 L 285.75087405480116 252.2103428246569 L 295.9143019757704 283.98244500482167 L 306.0777298967396 316.01755499517816 L 316.24115781770877 347.78965717534305 L 326.4045857386779 378.7770545059051 L 336.56801365964714 408.47093477938955 L 346.7314415806163 436.38372530263706 L 356.8948695015855 462.0570988269471 L 367.0582974225547 485.0694992688288 L 377.2217253435238 505.04306364923895 L 387.38515326449306 521.6498265932499 L 397.54858118546224 534.6171055124402 L 407.7120091064314 543.7319780454559 L 417.87543702740055 548.8447782372996 L 428.0388649483698 549.8715540501719 L 438.2022928693389 546.7954458536126 L 448.3657207903081 539.6669632591653 L 458.5291487112773 528.6031557539532 L 468.6925766322465 513.7856907513366 L 478.8560045532157 495.4578706170075 L 489.01943247418484 473.9206376508717 L 499.1828603951541 449.52763262280405 L 509.34628831612326 422.67938800098466 L 519.5097162370923 393.8167512198437 L 529.6731441580615 363.4136459773771 L 539.8365720790308 331.96929042112663 L 550.0 300.00000000000006" style="stroke:rgb(40%,76.1%,64.7%);stroke-opacity:1.0;stroke-width:2.0" /></g></g><g class="toyplot-mark-Point" id="t15c892eb86ab4660baa019a454eb3a44"><g class="toyplot-Series"><g style="fill:rgb(100%,0%,0%);fill-opacity:1.0;opacity:1.0;stroke:rgb(100%,0%,0%);stroke-opacity:1.0" class="toyplot-Datum" transform="translate(51.99203187250996, 300.0)"><circle r="2.0" /></g></g></g></g><g class="toyplot-coordinates-Axis" id="tf81a48d957cc403db83a8fa4d6ced4fe" transform="translate(50.0,550.0)translate(0,10.0)"><line x1="1.9920318725099602" y1="0" x2="500.0" y2="0" style="" /><g><g transform="translate(1.9920318725099602,6)"><text x="-2.78" y="8.555" style="fill:rgb(16.1%,15.3%,14.1%);fill-opacity:1.0;font-family:helvetica;font-size:10.0px;font-weight:normal;stroke:none;vertical-align:baseline;white-space:pre">0</text></g><g transform="translate(160.51289152579218,6)"><text x="-2.78" y="8.555" style="fill:rgb(16.1%,15.3%,14.1%);fill-opacity:1.0;font-family:helvetica;font-size:10.0px;font-weight:normal;stroke:none;vertical-align:baseline;white-space:pre">2</text></g><g transform="translate(319.0337511790744,6)"><text x="-2.78" y="8.555" style="fill:rgb(16.1%,15.3%,14.1%);fill-opacity:1.0;font-family:helvetica;font-size:10.0px;font-weight:normal;stroke:none;vertical-align:baseline;white-space:pre">4</text></g><g transform="translate(477.5546108323566,6)"><text x="-2.78" y="8.555" style="fill:rgb(16.1%,15.3%,14.1%);fill-opacity:1.0;font-family:helvetica;font-size:10.0px;font-weight:normal;stroke:none;vertical-align:baseline;white-space:pre">6</text></g></g><g class="toyplot-coordinates-Axis-coordinates" style="visibility:hidden" transform=""><line x1="0" x2="0" y1="-3.0" y2="4.5" style="stroke:rgb(43.9%,50.2%,56.5%);stroke-opacity:1.0;stroke-width:1.0" /><text x="0" y="-6" style="alignment-baseline:alphabetic;fill:rgb(43.9%,50.2%,56.5%);fill-opacity:1.0;font-size:10px;font-weight:normal;stroke:none;text-anchor:middle" /></g></g><g class="toyplot-coordinates-Axis" id="tae293c3563894cfa832dc0e1d31038f5" transform="translate(50.0,550.0)rotate(-90.0)translate(0,-10.0)"><line x1="0.1284459498280266" y1="0" x2="499.871554050172" y2="0" style="" /><g><g transform="translate(0.0,-6)"><text x="-8.615" y="-4.440892098500626e-16" style="fill:rgb(16.1%,15.3%,14.1%);fill-opacity:1.0;font-family:helvetica;font-size:10.0px;font-weight:normal;stroke:none;vertical-align:baseline;white-space:pre">-1.0</text></g><g transform="translate(125.0,-6)"><text x="-8.615" y="-4.440892098500626e-16" style="fill:rgb(16.1%,15.3%,14.1%);fill-opacity:1.0;font-family:helvetica;font-size:10.0px;font-weight:normal;stroke:none;vertical-align:baseline;white-space:pre">-0.5</text></g><g transform="translate(250.0,-6)"><text x="-6.95" y="-4.440892098500626e-16" style="fill:rgb(16.1%,15.3%,14.1%);fill-opacity:1.0;font-family:helvetica;font-size:10.0px;font-weight:normal;stroke:none;vertical-align:baseline;white-space:pre">0.0</text></g><g transform="translate(375.0,-6)"><text x="-6.95" y="-4.440892098500626e-16" style="fill:rgb(16.1%,15.3%,14.1%);fill-opacity:1.0;font-family:helvetica;font-size:10.0px;font-weight:normal;stroke:none;vertical-align:baseline;white-space:pre">0.5</text></g><g transform="translate(500.0,-6)"><text x="-6.95" y="-4.440892098500626e-16" style="fill:rgb(16.1%,15.3%,14.1%);fill-opacity:1.0;font-family:helvetica;font-size:10.0px;font-weight:normal;stroke:none;vertical-align:baseline;white-space:pre">1.0</text></g></g><g class="toyplot-coordinates-Axis-coordinates" style="visibility:hidden" transform=""><line x1="0" x2="0" y1="3.0" y2="-4.5" style="stroke:rgb(43.9%,50.2%,56.5%);stroke-opacity:1.0;stroke-width:1.0" /><text x="0" y="6" style="alignment-baseline:hanging;fill:rgb(43.9%,50.2%,56.5%);fill-opacity:1.0;font-size:10px;font-weight:normal;stroke:none;text-anchor:middle" /></g></g></g></svg>