<svg height="600px" id="tff28dedd678643abaf06e2f5eaafda3a" preserveAspectRatio="xMidyMid meet" style="background-color:transparent;fill:rgb(16.1%,15.3%,14.1%);fill-opacity:1.0;font-family:helvetica;font-size:12px;opacity:1.0;stroke:rgb(16.1%,15.3%,14.1%);stroke-opacity:1.0;stroke-width:1.0" viewBox="0 0 600 600" width="600px" xmlns="http://www.w3.org/2000/svg" xmlns:toyplot="http://www.sandia.gov/toyplot"><g class="toyplot-axes-Cartesian" id="teac43aa8261c4f9989eef14563075073"><clipPath id="t59922047d7ea48bbb53e282c7d19de5a"><rect height="500.0" width="500.0" x="50.0" y="50.0" /></clipPath><g class="toyplot-coordinate-events" clip-path="url(#t59922047d7ea48bbb53e282c7d19de5a)" style="cursor:crosshair"><rect height="500.0" style="pointer-events:all;visibility:hidden" width="500.0" x="50.0" y="50.0" /><g class="toyplot-mark-AxisLines" id="tcd333f03c69f4fd78fcc07eac93f95d9" style="opacity:0.4;stroke:rgb(27.5%,51%,70.6%);stroke-opacity:1.0"><g class="toyplot-Series"><line class="toyplot-Datum" style="opacity:0.4;stroke:rgb(27.5%,51%,70.6%);stroke-opacity:1.0" x1="50.0" x2="550.0" y1="540.0" y2="540.0" /><line class="toyplot-Datum" style="opacity:0.4;stroke:rgb(27.5%,51%,70.6%);stroke-opacity:1.0" x1="50.0" x2="550.0" y1="530.20408163265301" y2="530.20408163265301" /><line class="toyplot-Datum" style="opacity:0.4;stroke:rgb(27.5%,51%,70.6%);stroke-opacity:1.0" x1="50.0" x2="550.0" y1="520.40816326530614" y2="520.40816326530614" /><line class="toyplot-Datum" style="opacity:0.4;stroke:rgb(27.5%,51%,70.6%);stroke-opacity:1.0" x1="50.0" x2="550.0" y1="510.61224489795921" y2="510.61224489795921" /><line class="toyplot-Datum" style="opacity:0.4;stroke:rgb(27.5%,51%,70.6%);stroke-opacity:1.0" x1="50.0" x2="550.0" y1="500.81632653061229" y2="500.81632653061229" /><line class="toyplot-Datum" style="opacity:0.4;stroke:rgb(27.5%,51%,70.6%);stroke-opacity:1.0" x1="50.0" x2="550.0" y1="491.0204081632653" y2="491.0204081632653" /><line class="toyplot-Datum" style="opacity:0.4;stroke:rgb(27.5%,51%,70.6%);stroke-opacity:1.0" x1="50.0" x2="550.0" y1="481.22448979591837" y2="481.22448979591837" /><line class="toyplot-Datum" style="opacity:0.4;stroke:rgb(27.5%,51%,70.6%);stroke-opacity:1.0" x1="50.0" x2="550.0" y1="471.42857142857144" y2="471.42857142857144" /><line class="toyplot-Datum" style="opacity:0.4;stroke:rgb(27.5%,51%,70.6%);stroke-opacity:1.0" x1="50.0" x2="550.0" y1="461.63265306122452" y2="461.63265306122452" /><line class="toyplot-Datum" style="opacity:0.4;stroke:rgb(27.5%,51%,70.6%);stroke-opacity:1.0" x1="50.0" x2="550.0" y1="451.83673469387753" y2="451.83673469387753" /><line class="toyplot-Datum" style="opacity:0.4;stroke:rgb(27.5%,51%,70.6%);stroke-opacity:1.0" x1="50.0" x2="550.0" y1="442.0408163265306" y2="442.0408163265306" /><line class="toyplot-Datum" style="opacity:0.4;stroke:rgb(27.5%,51%,70.6%);stroke-opacity:1.0" x1="50.0" x2="550.0" y1="432.24489795918367" y2="432.24489795918367" /><line class="toyplot-Datum" style="opacity:0.4;stroke:rgb(27.5%,51%,70.6%);stroke-opacity:1.0" x1="50.0" x2="550.0" y1="422.4489795918368" y2="422.4489795918368" /><line class="toyplot-Datum" style="opacity:0.4;stroke:rgb(27.5%,51%,70.6%);stroke-opacity:1.0" x1="50.0" x2="550.0" y1="412.65306122448982" y2="412.65306122448982" /><line class="toyplot-Datum" style="opacity:0.4;stroke:rgb(27.5%,51%,70.6%);stroke-opacity:1.0" x1="50.0" x2="550.0" y1="402.85714285714289" y2="402.85714285714289" /><line class="toyplot-Datum" style="opacity:0.4;stroke:rgb(27.5%,51%,70.6%);stroke-opacity:1.0" x1="50.0" x2="550.0" y1="393.06122448979596" y2="393.06122448979596" /><line class="toyplot-Datum" style="opacity:0.4;stroke:rgb(27.5%,51%,70.6%);stroke-opacity:1.0" x1="50.0" x2="550.0" y1="383.26530612244898" y2="383.26530612244898" /><line class="toyplot-Datum" style="opacity:0.4;stroke:rgb(27.5%,51%,70.6%);stroke-opacity:1.0" x1="50.0" x2="550.0" y1="373.46938775510205" y2="373.46938775510205" /><line class="toyplot-Datum" style="opacity:0.4;stroke:rgb(27.5%,51%,70.6%);stroke-opacity:1.0" x1="50.0" x2="550.0" y1="363.67346938775512" y2="363.67346938775512" /><line class="toyplot-Datum" style="opacity:0.4;stroke:rgb(27.5%,51%,70.6%);stroke-opacity:1.0" x1="50.0" x2="550.0" y1="353.87755102040819" y2="353.87755102040819" /><line class="toyplot-Datum" style="opacity:0.4;stroke:rgb(27.5%,51%,70.6%);stroke-opacity:1.0" x1="50.0" x2="550.0" y1="344.08163265306121" y2="344.08163265306121" /><line class="toyplot-Datum" style="opacity:0.4;stroke:rgb(27.5%,51%,70.6%);stroke-opacity:1.0" x1="50.0" x2="550.0" y1="334.28571428571433" y2="334.28571428571433" /><line class="toyplot-Datum" style="opacity:0.4;stroke:rgb(27.5%,51%,70.6%);stroke-opacity:1.0" x1="50.0" x2="550.0" y1="324.48979591836741" y2="324.48979591836741" /><line class="toyplot-Datum" style="opacity:0.4;stroke:rgb(27.5%,51%,70.6%);stroke-opacity:1.0" x1="50.0" x2="550.0" y1="314.69387755102053" y2="314.69387755102053" /><line class="toyplot-Datum" style="opacity:0.4;stroke:rgb(27.5%,51%,70.6%);stroke-opacity:1.0" x1="50.0" x2="550.0" y1="304.89795918367349" y2="304.89795918367349" /><line class="toyplot-Datum" style="opacity:0.4;stroke:rgb(27.5%,51%,70.6%);stroke-opacity:1.0" x1="50.0" x2="550.0" y1="295.10204081632656" y2="295.10204081632656" /><line class="toyplot-Datum" style="opacity:0.4;stroke:rgb(27.5%,51%,70.6%);stroke-opacity:1.0" x1="50.0" x2="550.0" y1="285.30612244897964" y2="285.30612244897964" /><line class="toyplot-Datum" style="opacity:0.4;stroke:rgb(27.5%,51%,70.6%);stroke-opacity:1.0" x1="50.0" x2="550.0" y1="275.51020408163276" y2="275.51020408163276" /><line class="toyplot-Datum" style="opacity:0.4;stroke:rgb(27.5%,51%,70.6%);stroke-opacity:1.0" x1="50.0" x2="550.0" y1="265.71428571428572" y2="265.71428571428572" /><line class="toyplot-Datum" style="opacity:0.4;stroke:rgb(27.5%,51%,70.6%);stroke-opacity:1.0" x1="50.0" x2="550.0" y1="255.91836734693885" y2="255.91836734693885" /><line class="toyplot-Datum" style="opacity:0.4;stroke:rgb(27.5%,51%,70.6%);stroke-opacity:1.0" x1="50.0" x2="550.0" y1="246.12244897959189" y2="246.12244897959189" /><line class="toyplot-Datum" style="opacity:0.4;stroke:rgb(27.5%,51%,70.6%);stroke-opacity:1.0" x1="50.0" x2="550.0" y1="236.32653061224494" y2="236.32653061224494" /><line class="toyplot-Datum" style="opacity:0.4;stroke:rgb(27.5%,51%,70.6%);stroke-opacity:1.0" x1="50.0" x2="550.0" y1="226.53061224489804" y2="226.53061224489804" /><line class="toyplot-Datum" style="opacity:0.4;stroke:rgb(27.5%,51%,70.6%);stroke-opacity:1.0" x1="50.0" x2="550.0" y1="216.73469387755108" y2="216.73469387755108" /><line class="toyplot-Datum" style="opacity:0.4;stroke:rgb(27.5%,51%,70.6%);stroke-opacity:1.0" x1="50.0" x2="550.0" y1="206.93877551020415" y2="206.93877551020415" /><line class="toyplot-Datum" style="opacity:0.4;stroke:rgb(27.5%,51%,70.6%);stroke-opacity:1.0" x1="50.0" x2="550.0" y1="197.1428571428572" y2="197.1428571428572" /><line class="toyplot-Datum" style="opacity:0.4;stroke:rgb(27.5%,51%,70.6%);stroke-opacity:1.0" x1="50.0" x2="550.0" y1="187.3469387755103" y2="187.3469387755103" /><line class="toyplot-Datum" style="opacity:0.4;stroke:rgb(27.5%,51%,70.6%);stroke-opacity:1.0" x1="50.0" x2="550.0" y1="177.55102040816334" y2="177.55102040816334" /><line class="toyplot-Datum" style="opacity:0.4;stroke:rgb(27.5%,51%,70.6%);stroke-opacity:1.0" x1="50.0" x2="550.0" y1="167.75510204081638" y2="167.75510204081638" /><line class="toyplot-Datum" style="opacity:0.4;stroke:rgb(27.5%,51%,70.6%);stroke-opacity:1.0" x1="50.0" x2="550.0" y1="157.95918367346951" y2="157.95918367346951" /><line class="toyplot-Datum" style="opacity:0.4;stroke:rgb(27.5%,51%,70.6%);stroke-opacity:1.0" x1="50.0" x2="550.0" y1="148.1632653061225" y2="148.1632653061225" /><line class="toyplot-Datum" style="opacity:0.4;stroke:rgb(27.5%,51%,70.6%);stroke-opacity:1.0" x1="50.0" x2="550.0" y1="138.36734693877554" y2="138.36734693877554" /><line class="toyplot-Datum" style="opacity:0.4;stroke:rgb(27.5%,51%,70.6%);stroke-opacity:1.0" x1="50.0" x2="550.0" y1="128.57142857142864" y2="128.57142857142864" /><line class="toyplot-Datum" style="opacity:0.4;stroke:rgb(27.5%,51%,70.6%);stroke-opacity:1.0" x1="50.0" x2="550.0" y1="118.7755102040817" y2="118.7755102040817" /><line class="toyplot-Datum" style="opacity:0.4;stroke:rgb(27.5%,51%,70.6%);stroke-opacity:1.0" x1="50.0" x2="550.0" y1="108.97959183673476" y2="108.97959183673476" /><line class="toyplot-Datum" style="opacity:0.4;stroke:rgb(27.5%,51%,70.6%);stroke-opacity:1.0" x1="50.0" x2="550.0" y1="99.183673469387855" y2="99.183673469387855" /><line class="toyplot-Datum" style="opacity:0.4;stroke:rgb(27.5%,51%,70.6%);stroke-opacity:1.0" x1="50.0" x2="550.0" y1="89.387755102040899" y2="89.387755102040899" /><line class="toyplot-Datum" style="opacity:0.4;stroke:rgb(27.5%,51%,70.6%);stroke-opacity:1.0" x1="50.0" x2="550.0" y1="79.591836734693942" y2="79.591836734693942" /><line class="toyplot-Datum" style="opacity:0.4;stroke:rgb(27.5%,51%,70.6%);stroke-opacity:1.0" x1="50.0" x2="550.0" y1="69.795918367347056" y2="69.795918367347056" /><line class="toyplot-Datum" style="opacity:0.4;stroke:rgb(27.5%,51%,70.6%);stroke-opacity:1.0" x1="50.0" x2="550.0" y1="60.000000000000107" y2="60.000000000000107" /></g></g><g class="toyplot-mark-AxisLines" id="td6f40bf55cc443828fedb29c0e6ca3ff" style="opacity:0.4;stroke:rgb(27.5%,51%,70.6%);stroke-opacity:1.0"><g class="toyplot-Series"><line class="toyplot-Datum" style="opacity:0.4;stroke:rgb(27.5%,51%,70.6%);stroke-opacity:1.0" x1="60.0" x2="60.0" y1="50.0" y2="550.0" /><line class="toyplot-Datum" style="opacity:0.4;stroke:rgb(27.5%,51%,70.6%);stroke-opacity:1.0" x1="69.795918367346943" x2="69.795918367346943" y1="50.0" y2="550.0" /><line class="toyplot-Datum" style="opacity:0.4;stroke:rgb(27.5%,51%,70.6%);stroke-opacity:1.0" x1="79.591836734693871" x2="79.591836734693871" y1="50.0" y2="550.0" /><line class="toyplot-Datum" style="opacity:0.4;stroke:rgb(27.5%,51%,70.6%);stroke-opacity:1.0" x1="89.387755102040813" x2="89.387755102040813" y1="50.0" y2="550.0" /><line class="toyplot-Datum" style="opacity:0.4;stroke:rgb(27.5%,51%,70.6%);stroke-opacity:1.0" x1="99.183673469387742" x2="99.183673469387742" y1="50.0" y2="550.0" /><line class="toyplot-Datum" style="opacity:0.4;stroke:rgb(27.5%,51%,70.6%);stroke-opacity:1.0" x1="108.97959183673468" x2="108.97959183673468" y1="50.0" y2="550.0" /><line class="toyplot-Datum" style="opacity:0.4;stroke:rgb(27.5%,51%,70.6%);stroke-opacity:1.0" x1="118.77551020408163" x2="118.77551020408163" y1="50.0" y2="550.0" /><line class="toyplot-Datum" style="opacity:0.4;stroke:rgb(27.5%,51%,70.6%);stroke-opacity:1.0" x1="128.57142857142856" x2="128.57142857142856" y1="50.0" y2="550.0" /><line class="toyplot-Datum" style="opacity:0.4;stroke:rgb(27.5%,51%,70.6%);stroke-opacity:1.0" x1="138.36734693877551" x2="138.36734693877551" y1="50.0" y2="550.0" /><line class="toyplot-Datum" style="opacity:0.4;stroke:rgb(27.5%,51%,70.6%);stroke-opacity:1.0" x1="148.16326530612244" x2="148.16326530612244" y1="50.0" y2="550.0" /><line class="toyplot-Datum" style="opacity:0.4;stroke:rgb(27.5%,51%,70.6%);stroke-opacity:1.0" x1="157.95918367346937" x2="157.95918367346937" y1="50.0" y2="550.0" /><line class="toyplot-Datum" style="opacity:0.4;stroke:rgb(27.5%,51%,70.6%);stroke-opacity:1.0" x1="167.75510204081633" x2="167.75510204081633" y1="50.0" y2="550.0" /><line class="toyplot-Datum" style="opacity:0.4;stroke:rgb(27.5%,51%,70.6%);stroke-opacity:1.0" x1="177.55102040816325" x2="177.55102040816325" y1="50.0" y2="550.0" /><line class="toyplot-Datum" style="opacity:0.4;stroke:rgb(27.5%,51%,70.6%);stroke-opacity:1.0" x1="187.34693877551018" x2="187.34693877551018" y1="50.0" y2="550.0" /><line class="toyplot-Datum" style="opacity:0.4;stroke:rgb(27.5%,51%,70.6%);stroke-opacity:1.0" x1="197.14285714285714" x2="197.14285714285714" y1="50.0" y2="550.0" /><line class="toyplot-Datum" style="opacity:0.4;stroke:rgb(27.5%,51%,70.6%);stroke-opacity:1.0" x1="206.93877551020407" x2="206.93877551020407" y1="50.0" y2="550.0" /><line class="toyplot-Datum" style="opacity:0.4;stroke:rgb(27.5%,51%,70.6%);stroke-opacity:1.0" x1="216.73469387755102" x2="216.73469387755102" y1="50.0" y2="550.0" /><line class="toyplot-Datum" style="opacity:0.4;stroke:rgb(27.5%,51%,70.6%);stroke-opacity:1.0" x1="226.53061224489795" x2="226.53061224489795" y1="50.0" y2="550.0" /><line class="toyplot-Datum" style="opacity:0.4;stroke:rgb(27.5%,51%,70.6%);stroke-opacity:1.0" x1="236.32653061224488" x2="236.32653061224488" y1="50.0" y2="550.0" /><line class="toyplot-Datum" style="opacity:0.4;stroke:rgb(27.5%,51%,70.6%);stroke-opacity:1.0" x1="246.12244897959184" x2="246.12244897959184" y1="50.0" y2="550.0" /><line class="toyplot-Datum" style="opacity:0.4;stroke:rgb(27.5%,51%,70.6%);stroke-opacity:1.0" x1="255.91836734693874" x2="255.91836734693874" y1="50.0" y2="550.0" /><line class="toyplot-Datum" style="opacity:0.4;stroke:rgb(27.5%,51%,70.6%);stroke-opacity:1.0" x1="265.71428571428572" x2="265.71428571428572" y1="50.0" y2="550.0" /><line class="toyplot-Datum" style="opacity:0.4;stroke:rgb(27.5%,51%,70.6%);stroke-opacity:1.0" x1="275.51020408163265" x2="275.51020408163265" y1="50.0" y2="550.0" /><line class="toyplot-Datum" style="opacity:0.4;stroke:rgb(27.5%,51%,70.6%);stroke-opacity:1.0" x1="285.30612244897958" x2="285.30612244897958" y1="50.0" y2="550.0" /><line class="toyplot-Datum" style="opacity:0.4;stroke:rgb(27.5%,51%,70.6%);stroke-opacity:1.0" x1="295.10204081632651" x2="295.10204081632651" y1="50.0" y2="550.0" /><line class="toyplot-Datum" style="opacity:0.4;stroke:rgb(27.5%,51%,70.6%);stroke-opacity:1.0" x1="304.89795918367349" x2="304.89795918367349" y1="50.0" y2="550.0" /><line class="toyplot-Datum" style="opacity:0.4;stroke:rgb(27.5%,51%,70.6%);stroke-opacity:1.0" x1="314.69387755102036" x2="314.69387755102036" y1="50.0" y2="550.0" /><line class="toyplot-Datum" style="opacity:0.4;stroke:rgb(27.5%,51%,70.6%);stroke-opacity:1.0" x1="324.48979591836735" x2="324.48979591836735" y1="50.0" y2="550.0" /><line class="toyplot-Datum" style="opacity:0.4;stroke:rgb(27.5%,51%,70.6%);stroke-opacity:1.0" x1="334.28571428571428" x2="334.28571428571428" y1="50.0" y2="550.0" /><line class="toyplot-Datum" style="opacity:0.4;stroke:rgb(27.5%,51%,70.6%);stroke-opacity:1.0" x1="344.08163265306121" x2="344.08163265306121" y1="50.0" y2="550.0" /><line class="toyplot-Datum" style="opacity:0.4;stroke:rgb(27.5%,51%,70.6%);stroke-opacity:1.0" x1="353.87755102040813" x2="353.87755102040813" y1="50.0" y2="550.0" /><line class="toyplot-Datum" style="opacity:0.4;stroke:rgb(27.5%,51%,70.6%);stroke-opacity:1.0" x1="363.67346938775506" x2="363.67346938775506" y1="50.0" y2="550.0" /><line class="toyplot-Datum" style="opacity:0.4;stroke:rgb(27.5%,51%,70.6%);stroke-opacity:1.0" x1="373.46938775510199" x2="373.46938775510199" y1="50.0" y2="550.0" /><line class="toyplot-Datum" style="opacity:0.4;stroke:rgb(27.5%,51%,70.6%);stroke-opacity:1.0" x1="383.26530612244892" x2="383.26530612244892" y1="50.0" y2="550.0" /><line class="toyplot-Datum" style="opacity:0.4;stroke:rgb(27.5%,51%,70.6%);stroke-opacity:1.0" x1="393.0612244897959" x2="393.0612244897959" y1="50.0" y2="550.0" /><line class="toyplot-Datum" style="opacity:0.4;stroke:rgb(27.5%,51%,70.6%);stroke-opacity:1.0" x1="402.85714285714283" x2="402.85714285714283" y1="50.0" y2="550.0" /><line class="toyplot-Datum" style="opacity:0.4;stroke:rgb(27.5%,51%,70.6%);stroke-opacity:1.0" x1="412.65306122448976" x2="412.65306122448976" y1="50.0" y2="550.0" /><line class="toyplot-Datum" style="opacity:0.4;stroke:rgb(27.5%,51%,70.6%);stroke-opacity:1.0" x1="422.44897959183675" x2="422.44897959183675" y1="50.0" y2="550.0" /><line class="toyplot-Datum" style="opacity:0.4;stroke:rgb(27.5%,51%,70.6%);stroke-opacity:1.0" x1="432.24489795918367" x2="432.24489795918367" y1="50.0" y2="550.0" /><line class="toyplot-Datum" style="opacity:0.4;stroke:rgb(27.5%,51%,70.6%);stroke-opacity:1.0" x1="442.04081632653055" x2="442.04081632653055" y1="50.0" y2="550.0" /><line class="toyplot-Datum" style="opacity:0.4;stroke:rgb(27.5%,51%,70.6%);stroke-opacity:1.0" x1="451.83673469387747" x2="451.83673469387747" y1="50.0" y2="550.0" /><line class="toyplot-Datum" style="opacity:0.4;stroke:rgb(27.5%,51%,70.6%);stroke-opacity:1.0" x1="461.63265306122446" x2="461.63265306122446" y1="50.0" y2="550.0" /><line class="toyplot-Datum" style="opacity:0.4;stroke:rgb(27.5%,51%,70.6%);stroke-opacity:1.0" x1="471.42857142857139" x2="471.42857142857139" y1="50.0" y2="550.0" /><line class="toyplot-Datum" style="opacity:0.4;stroke:rgb(27.5%,51%,70.6%);stroke-opacity:1.0" x1="481.22448979591832" x2="481.22448979591832" y1="50.0" y2="550.0" /><line class="toyplot-Datum" style="opacity:0.4;stroke:rgb(27.5%,51%,70.6%);stroke-opacity:1.0" x1="491.0204081632653" x2="491.0204081632653" y1="50.0" y2="550.0" /><line class="toyplot-Datum" style="opacity:0.4;stroke:rgb(27.5%,51%,70.6%);stroke-opacity:1.0" x1="500.81632653061223" x2="500.81632653061223" y1="50.0" y2="550.0" /><line class="toyplot-Datum" style="opacity:0.4;stroke:rgb(27.5%,51%,70.6%);stroke-opacity:1.0" x1="510.61224489795916" x2="510.61224489795916" y1="50.0" y2="550.0" /><line class="toyplot-Datum" style="opacity:0.4;stroke:rgb(27.5%,51%,70.6%);stroke-opacity:1.0" x1="520.40816326530614" x2="520.40816326530614" y1="50.0" y2="550.0" /><line class="toyplot-Datum" style="opacity:0.4;stroke:rgb(27.5%,51%,70.6%);stroke-opacity:1.0" x1="530.20408163265301" x2="530.20408163265301" y1="50.0" y2="550.0" /><line class="toyplot-Datum" style="opacity:0.4;stroke:rgb(27.5%,51%,70.6%);stroke-opacity:1.0" x1="540.0" x2="540.0" y1="50.0" y2="550.0" /></g></g><g class="toyplot-mark-Plot" id="t8d54e069c04843fd8c19156643414851" style="fill:none"><g class="toyplot-Series"><path d="M 180.0 490.0 L 184.89795918367346 485.8350687213661 L 189.79591836734696 481.50354019158681 L 194.69387755102042 477.00541441066224 L 199.59183673469386 472.34069137859228 L 204.48979591836735 467.50937109537693 L 209.38775510204084 462.5114535610162 L 214.28571428571428 457.34693877551024 L 219.18367346938774 452.01582673885883 L 224.08163265306123 446.5181174510621 L 228.9795918367347 440.85381091211997 L 233.87755102040816 435.02290712203251 L 238.77551020408163 429.02540608079966 L 243.67346938775509 422.86130778842153 L 248.57142857142856 416.53061224489801 L 253.46938775510202 410.0333194502291 L 258.36734693877548 403.36942940441486 L 263.26530612244898 396.53894210745523 L 268.16326530612241 389.54185755935032 L 273.0612244897959 382.37817576010002 L 277.9591836734694 375.04789670970433 L 282.85714285714289 367.55102040816325 L 287.75510204081633 359.8875468554769 L 292.65306122448982 352.05747605164515 L 297.55102040816325 344.06080799666807 L 302.44897959183675 335.89754269054566 L 307.34693877551018 327.5676801332778 L 312.24489795918367 319.07122032486473 L 317.14285714285711 310.40816326530626 L 322.0408163265306 301.57850895460228 L 326.93877551020404 292.58225739275315 L 331.83673469387753 283.41940857975845 L 336.73469387755102 274.08996251561865 L 341.63265306122452 264.59391920033318 L 346.53061224489795 254.93127863390262 L 351.42857142857139 245.10204081632662 L 356.32653061224488 235.10620574760526 L 361.22448979591832 224.94377342773853 L 366.12244897959181 214.61474385672648 L 371.0204081632653 204.11911703456909 L 375.91836734693879 193.45689296126616 L 380.81632653061223 182.62807163681811 L 385.71428571428572 171.63265306122452 L 390.61224489795916 160.47063723448576 L 395.51020408163259 149.14202415660148 L 400.40816326530609 137.64681382757192 L 405.30612244897958 125.98500624739701 L 410.20408163265307 114.15660141607671 L 415.10204081632651 102.16159933361114 L 420.0 90.000000000000057" style="fill:none;stroke:rgb(40%,76.1%,64.7%);stroke-opacity:1.0;stroke-width:2.0" /></g></g></g><g class="toyplot-coordinates" style="visibility:hidden"><rect height="14.0" style="fill:rgb(100%,100%,100%);fill-opacity:1.0;opacity:0.75;stroke:none" width="90.0" x="450.0" y="60.0" /><text style="alignment-baseline:middle;font-size:10px;font-weight:normal;stroke:none;text-anchor:middle" x="495.0" y="67.0" /></g><line style="" x1="60.0" x2="540.0" y1="550.0" y2="550.0" /><g><text style="alignment-baseline:middle;baseline-shift:-80%;font-size:10px;font-weight:normal;stroke:none;text-anchor:middle" x="60.0" y="550.0">0.0</text><text style="alignment-baseline:middle;baseline-shift:-80%;font-size:10px;font-weight:normal;stroke:none;text-anchor:middle" x="300.0" y="550.0">0.5</text><text style="alignment-baseline:middle;baseline-shift:-80%;font-size:10px;font-weight:normal;stroke:none;text-anchor:middle" x="540.0" y="550.0">1.0</text></g><line style="" x1="50.0" x2="50.0" y1="60.00000000000011" y2="540.0" /><g><text style="alignment-baseline:middle;baseline-shift:80%;font-size:10px;font-weight:normal;stroke:none;text-anchor:middle" transform="rotate(-90, 50.0, 540.0)" x="50.0" y="540.0">0.0</text><text style="alignment-baseline:middle;baseline-shift:80%;font-size:10px;font-weight:normal;stroke:none;text-anchor:middle" transform="rotate(-90, 50.0, 380.00000000000006)" x="50.0" y="380.00000000000006">0.2</text><text style="alignment-baseline:middle;baseline-shift:80%;font-size:10px;font-weight:normal;stroke:none;text-anchor:middle" transform="rotate(-90, 50.0, 220.00000000000003)" x="50.0" y="220.00000000000003">0.4</text><text style="alignment-baseline:middle;baseline-shift:80%;font-size:10px;font-weight:normal;stroke:none;text-anchor:middle" transform="rotate(-90, 50.0, 60.0)" x="50.0" y="60.0">0.6</text></g></g></svg>