<svg class="toyplot-canvas-Canvas" height="600px" id="tbb8b456f79134348ba33a6403ade97fb" preserveAspectRatio="xMidYMid meet" style="background-color:transparent;border-color:#292724;border-style:none;border-width:1.0;fill:rgb(16.1%,15.3%,14.1%);fill-opacity:1.0;font-family:Helvetica;font-size:12px;opacity:1.0;stroke:rgb(16.1%,15.3%,14.1%);stroke-opacity:1.0;stroke-width:1.0" viewBox="0 0 600 600" width="600px" xmlns="http://www.w3.org/2000/svg" xmlns:toyplot="http://www.sandia.gov/toyplot" xmlns:xlink="http://www.w3.org/1999/xlink"><g class="toyplot-coordinates-Cartesian" id="tc130efc799564640887476d65e1dfd02"><clipPath id="t60989b8a06ff4935b01b3dc1ae8455e6"><rect height="520.0" width="520.0" x="40.0" y="40.0" /></clipPath><g clip-path="url(#t60989b8a06ff4935b01b3dc1ae8455e6)"><g class="toyplot-mark-FillMagnitudes" id="tf123d6ee51934afab5927473cfd257d9" style="stroke:none"><polygon points="50.0,550.0 60.20408163265306,550.0 70.40816326530611,550.0 80.61224489795919,550.0 90.81632653061224,550.0 101.0204081632653,550.0 111.22448979591836,550.0 121.42857142857143,550.0 131.6326530612245,550.0 141.83673469387753,550.0 152.0408163265306,550.0 162.24489795918365,550.0 172.44897959183672,550.0 182.6530612244898,550.0 192.85714285714286,550.0 203.0612244897959,550.0 213.26530612244898,550.0 223.46938775510202,550.0 233.6734693877551,550.0 243.87755102040816,550.0 254.0816326530612,550.0 264.2857142857143,550.0 274.4897959183673,550.0 284.69387755102036,550.0 294.89795918367344,550.0 305.10204081632656,550.0 315.3061224489796,550.0 325.51020408163265,550.0 335.7142857142857,550.0 345.9183673469388,550.0 356.1224489795918,550.0 366.3265306122449,550.0 376.5306122448979,550.0 386.73469387755097,550.0 396.93877551020404,550.0 407.1428571428571,550.0 417.3469387755102,550.0 427.55102040816325,550.0 437.7551020408163,550.0 447.95918367346934,550.0 458.1632653061224,550.0 468.3673469387755,550.0 478.57142857142856,550.0 488.7755102040816,550.0 498.9795918367346,550.0 509.1836734693877,550.0 519.3877551020407,550.0 529.5918367346939,550.0 539.7959183673469,550.0 550.0,550.0 550.0,326.8799371042255 539.7959183673469,332.31600984391025 529.5918367346939,318.6384519937581 519.3877551020407,336.8383650487437 509.1836734693877,299.9446404105057 498.9795918367346,313.0483802356499 488.7755102040816,329.80668825718783 478.57142857142856,280.65616929603266 468.3673469387755,314.6711539537246 458.1632653061224,329.0355778505936 447.95918367346934,346.40156321971966 437.7551020408163,343.71604790357844 427.55102040816325,312.5815309900097 417.3469387755102,319.92089156722784 407.1428571428571,292.04918683542826 396.93877551020404,393.3267144896926 386.73469387755097,318.5239034707382 376.5306122448979,337.02575606927905 366.3265306122449,318.6158473282967 356.1224489795918,326.1457978325791 345.9183673469388,299.3779106327215 335.7142857142857,335.49263007599734 325.51020408163265,319.6826901136741 315.3061224489796,332.54940113038083 305.10204081632656,316.48476421369884 294.89795918367344,288.6267198008491 284.69387755102036,309.69062939601633 274.4897959183673,305.0408523062655 264.2857142857143,321.5316746699324 254.0816326530612,336.86435246167474 243.87755102040816,295.06933946423345 233.6734693877551,313.7653427440138 223.46938775510202,336.8244307289241 213.26530612244898,312.2604788594167 203.0612244897959,304.8704037095743 192.85714285714286,327.62556902515445 182.6530612244898,300.53741659154696 172.44897959183672,303.61406598207117 162.24489795918365,307.5043305029562 152.0408163265306,370.7011336656637 141.83673469387753,322.01429122907336 131.6326530612245,336.72490784410434 121.42857142857143,329.6376222706237 111.22448979591836,318.1201232378543 101.0204081632653,302.2420452296978 90.81632653061224,369.51024231229064 80.61224489795919,303.1601990597058 70.40816326530611,292.91951189312647 60.20408163265306,337.81067829938127 50.0,318.76272394369096" style="fill:rgb(40%,76.1%,64.7%);fill-opacity:1.0;opacity:1.0;stroke:none"><title>1st half</title></polygon><polygon points="50.0,318.76272394369096 60.20408163265306,337.81067829938127 70.40816326530611,292.91951189312647 80.61224489795919,303.1601990597058 90.81632653061224,369.51024231229064 101.0204081632653,302.2420452296978 111.22448979591836,318.1201232378543 121.42857142857143,329.6376222706237 131.6326530612245,336.72490784410434 141.83673469387753,322.01429122907336 152.0408163265306,370.7011336656637 162.24489795918365,307.5043305029562 172.44897959183672,303.61406598207117 182.6530612244898,300.53741659154696 192.85714285714286,327.62556902515445 203.0612244897959,304.8704037095743 213.26530612244898,312.2604788594167 223.46938775510202,336.8244307289241 233.6734693877551,313.7653427440138 243.87755102040816,295.06933946423345 254.0816326530612,336.86435246167474 264.2857142857143,321.5316746699324 274.4897959183673,305.0408523062655 284.69387755102036,309.69062939601633 294.89795918367344,288.6267198008491 305.10204081632656,316.48476421369884 315.3061224489796,332.54940113038083 325.51020408163265,319.6826901136741 335.7142857142857,335.49263007599734 345.9183673469388,299.3779106327215 356.1224489795918,326.1457978325791 366.3265306122449,318.6158473282967 376.5306122448979,337.02575606927905 386.73469387755097,318.5239034707382 396.93877551020404,393.3267144896926 407.1428571428571,292.04918683542826 417.3469387755102,319.92089156722784 427.55102040816325,312.5815309900097 437.7551020408163,343.71604790357844 447.95918367346934,346.40156321971966 458.1632653061224,329.0355778505936 468.3673469387755,314.6711539537246 478.57142857142856,280.65616929603266 488.7755102040816,329.80668825718783 498.9795918367346,313.0483802356499 509.1836734693877,299.9446404105057 519.3877551020407,336.8383650487437 529.5918367346939,318.6384519937581 539.7959183673469,332.31600984391025 550.0,326.8799371042255 550.0,98.00579067102157 539.7959183673469,102.03427581370518 529.5918367346939,90.62800146381451 519.3877551020407,122.00629128878921 509.1836734693877,50.0 498.9795918367346,83.72908767559778 488.7755102040816,117.59500659960926 478.57142857142856,77.91591113150233 468.3673469387755,84.43140074897698 458.1632653061224,86.41538253654659 447.95918367346934,139.66022440678518 437.7551020408163,97.02211254421812 427.55102040816325,97.96573995126369 417.3469387755102,120.58282059379084 407.1428571428571,92.39042037184066 396.93877551020404,205.54723928518254 386.73469387755097,89.0407603242754 376.5306122448979,104.7545000902529 366.3265306122449,83.45872915556208 356.1224489795918,108.91222660880402 345.9183673469388,63.959100367842765 335.7142857142857,116.34965711153157 325.51020408163265,123.37800656258719 315.3061224489796,105.05039887686459 305.10204081632656,86.64019766478992 294.89795918367344,51.373956537839504 284.69387755102036,96.81703375343139 274.4897959183673,92.8181962389817 264.2857142857143,114.86615755819673 254.0816326530612,107.83443097559311 243.87755102040816,93.13878143684929 233.6734693877551,108.87642489556272 223.46938775510202,125.12299805879576 213.26530612244898,70.01358134476138 203.0612244897959,88.71035866170119 192.85714285714286,118.78834089556258 182.6530612244898,68.8603576434873 172.44897959183672,70.62269075152595 162.24489795918365,70.41834559131145 152.0408163265306,158.99149072506552 141.83673469387753,106.2560995995693 131.6326530612245,123.61764534758426 121.42857142857143,100.0836411058332 111.22448979591836,87.26168893947101 101.0204081632653,92.15527320624295 90.81632653061224,171.0337164570131 80.61224489795919,90.5980886728432 70.40816326530611,82.66379204738368 60.20408163265306,119.20713170669396 50.0,96.33327705614826" style="fill:rgb(98.8%,55.3%,38.4%);fill-opacity:1.0;opacity:1.0;stroke:none"><title>2nd half</title></polygon></g></g><g class="toyplot-coordinates-Axis" id="t93c3aa6e4e064d37a7160a52f54d4691" transform="translate(50.0,550.0)translate(0,10.0)"><line style="" x1="0" x2="500.0" y1="0" y2="0" /><g><g transform="translate(0.0,6)"><text style="fill:rgb(16.1%,15.3%,14.1%);fill-opacity:1.0;font-family:helvetica;font-size:10.0px;font-weight:normal;stroke:none;vertical-align:baseline;white-space:pre" x="-6.95" y="8.555">0.0</text></g><g transform="translate(250.0,6)"><text style="fill:rgb(16.1%,15.3%,14.1%);fill-opacity:1.0;font-family:helvetica;font-size:10.0px;font-weight:normal;stroke:none;vertical-align:baseline;white-space:pre" x="-6.95" y="8.555">0.5</text></g><g transform="translate(500.0,6)"><text style="fill:rgb(16.1%,15.3%,14.1%);fill-opacity:1.0;font-family:helvetica;font-size:10.0px;font-weight:normal;stroke:none;vertical-align:baseline;white-space:pre" x="-6.95" y="8.555">1.0</text></g></g><g class="toyplot-coordinates-Axis-coordinates" style="visibility:hidden" transform=""><line style="stroke:rgb(43.9%,50.2%,56.5%);stroke-opacity:1.0;stroke-width:1.0" x1="0" x2="0" y1="-3.0" y2="4.5" /><text style="alignment-baseline:alphabetic;fill:rgb(43.9%,50.2%,56.5%);fill-opacity:1.0;font-size:10px;font-weight:normal;stroke:none;text-anchor:middle" x="0" y="-6" /></g></g><g class="toyplot-coordinates-Axis" id="t2cba52f4b5ce47f48f747409226c75d3" transform="translate(50.0,550.0)rotate(-90.0)translate(0,-10.0)"><line style="" x1="0" x2="500.0" y1="0" y2="0" /><g><g transform="translate(0.0,-6)"><text style="fill:rgb(16.1%,15.3%,14.1%);fill-opacity:1.0;font-family:helvetica;font-size:10.0px;font-weight:normal;stroke:none;vertical-align:baseline;white-space:pre" x="-2.78" y="-4.440892098500626e-16">0</text></g><g transform="translate(223.3934229416224,-6)"><text style="fill:rgb(16.1%,15.3%,14.1%);fill-opacity:1.0;font-family:helvetica;font-size:10.0px;font-weight:normal;stroke:none;vertical-align:baseline;white-space:pre" x="-2.78" y="-4.440892098500626e-16">1</text></g><g transform="translate(446.7868458832448,-6)"><text style="fill:rgb(16.1%,15.3%,14.1%);fill-opacity:1.0;font-family:helvetica;font-size:10.0px;font-weight:normal;stroke:none;vertical-align:baseline;white-space:pre" x="-2.78" y="-4.440892098500626e-16">2</text></g></g><g class="toyplot-coordinates-Axis-coordinates" style="visibility:hidden" transform=""><line style="stroke:rgb(43.9%,50.2%,56.5%);stroke-opacity:1.0;stroke-width:1.0" x1="0" x2="0" y1="3.0" y2="-4.5" /><text style="alignment-baseline:hanging;fill:rgb(43.9%,50.2%,56.5%);fill-opacity:1.0;font-size:10px;font-weight:normal;stroke:none;text-anchor:middle" x="0" y="6" /></g></g></g></svg>