<svg class="toyplot-canvas-Canvas" height="600px" id="t99f1b922f8d4436fb9989146534426c6" preserveAspectRatio="xMidYMid meet" style="background-color:transparent;border-color:#292724;border-style:none;border-width:1.0;fill:rgb(16.1%,15.3%,14.1%);fill-opacity:1.0;font-family:Helvetica;font-size:12px;opacity:1.0;stroke:rgb(16.1%,15.3%,14.1%);stroke-opacity:1.0;stroke-width:1.0" viewBox="0 0 600 600" width="600px" xmlns="http://www.w3.org/2000/svg" xmlns:toyplot="http://www.sandia.gov/toyplot" xmlns:xlink="http://www.w3.org/1999/xlink"><g class="toyplot-coordinates-Cartesian" id="tc955b224dd28426a9eef5c9c3b41b2e7"><clipPath id="td2f96764dcfc49f9be4aadf77448ecfe"><rect height="520.0" width="520.0" x="40.0" y="40.0" /></clipPath><g clip-path="url(#td2f96764dcfc49f9be4aadf77448ecfe)"><g class="toyplot-mark-FillMagnitudes" id="t8275504f61dd4340a5b83eae86ea33a6" style="stroke:none"><polygon points="50.0,526.8333614719259 60.0,515.3964341466531 70.0,533.6681039763081 80.0,529.7009556635784 90.0,489.4831417714934 100.0,528.9223633968785 110.0,531.3691555302645 120.00000000000001,524.9581794470834 130.0,513.1911773262079 140.0,521.8719502002152 150.0,495.5042546374672 160.0,539.7908272043442 170.0,539.6886546242371 180.0,540.5698211782563 190.00000000000003,515.6058295522188 200.0,530.6448206691495 210.0,539.9932093276193 220.0,512.4385009706021 230.0,520.5617875522187 240.0,528.4306092815752 250.0,521.0827845122034 260.0,517.5669212209017 270.0,528.5909018805091 280.0,526.5914831232843 290.0,549.3130217310802 300.0,531.679901167605 310.0,522.4748005615677 320.0,513.3109967187064 330.00000000000006,516.8251714442342 340.0,543.0204498160786 350.0,520.543886695598 360.0,533.2706354222189 370.0,522.6227499548736 380.0,530.4796198378623 390.0,472.2263803574087 400.0,528.8047898140796 410.0,514.7085897031046 420.0,526.0171300243682 430.0,526.488943727891 440.0,505.1698877966074 450.0,531.7923087317267 460.0,532.7842996255115 470.0,536.0420444342489 480.0,516.2024967001953 490.0,533.1354561622011 500.0,550.0 510.0,513.9968543556054 520.0,529.6859992680928 530.0,523.9828620931474 540.0,525.9971046644893 540.0,302.8770417687147 530.0,306.29887193705764 520.0,298.3244512618509 510.0,300.83521940434906 500.0,299.9446404105057 490.0,296.18383639785105 480.0,296.0091849573833 470.0,266.69821373028157 460.0,297.45545357923606 450.0,310.82788658232033 440.0,301.57145101632705 430.0,320.2049916314694 420.0,288.5986610143779 410.0,284.6294812703324 400.0,270.85397664950796 390.0,315.5530948471014 380.0,299.0035233086005 370.0,309.64850602415265 360.0,301.8864827505157 350.0,296.6896845281771 340.0,292.3983604488002 330.00000000000006,302.3178015202317 320.0,282.99368683238043 310.0,305.0242016919486 300.0,298.1646653813039 290.0,287.9397415319294 280.0,286.28211251930054 270.0,283.6317541867746 260.0,289.0985958908341 250.0,307.94713697387823 240.0,273.4999487458088 230.0,284.32713029623244 220.0,299.2629316995261 210.0,302.2536881870361 200.0,285.5152243787236 190.00000000000003,293.23139857737317 180.0,291.10723776980325 170.0,293.3027206063082 160.0,297.29515770730046 150.0,316.20538830313103 140.0,293.8862414292888 130.0,299.91608517031216 120.00000000000001,304.59580171770705 110.0,299.48927876811877 100.0,281.16440862657635 90.0,308.9933840837841 80.0,282.86115472328413 70.0,276.58761586943467 60.0,303.20711244603433 50.0,295.59608541561687" style="fill:rgb(40%,76.1%,64.7%);fill-opacity:1.0;opacity:1.0;stroke:none" /><polygon points="50.0,295.59608541561687 60.0,303.20711244603433 70.0,276.58761586943467 80.0,282.86115472328413 90.0,308.9933840837841 100.0,281.16440862657635 110.0,299.48927876811877 120.00000000000001,304.59580171770705 130.0,299.91608517031216 140.0,293.8862414292888 150.0,316.20538830313103 160.0,297.29515770730046 170.0,293.3027206063082 180.0,291.10723776980325 190.00000000000003,293.23139857737317 200.0,285.5152243787236 210.0,302.2536881870361 220.0,299.2629316995261 230.0,284.32713029623244 240.0,273.4999487458088 250.0,307.94713697387823 260.0,289.0985958908341 270.0,283.6317541867746 280.0,286.28211251930054 290.0,287.9397415319294 300.0,298.1646653813039 310.0,305.0242016919486 320.0,282.99368683238043 330.00000000000006,302.3178015202317 340.0,292.3983604488002 350.0,296.6896845281771 360.0,301.8864827505157 370.0,309.64850602415265 380.0,299.0035233086005 390.0,315.5530948471014 400.0,270.85397664950796 410.0,284.6294812703324 420.0,288.5986610143779 430.0,320.2049916314694 440.0,301.57145101632705 450.0,310.82788658232033 460.0,297.45545357923606 470.0,266.69821373028157 480.0,296.0091849573833 490.0,296.18383639785105 500.0,299.9446404105057 510.0,300.83521940434906 520.0,298.3244512618509 530.0,306.29887193705764 540.0,302.8770417687147 540.0,74.00289533551076 530.0,76.01713790685257 520.0,70.31400073190726 510.0,86.00314564439455 500.0,50.0 490.0,66.86454383779883 480.0,83.79750329980469 470.0,63.957955565751135 460.0,67.21570037448849 450.0,68.20769126827321 440.0,94.83011220339262 430.0,73.51105627210909 420.0,73.98286997563187 410.0,85.29141029689542 400.0,71.19521018592042 390.0,127.77361964259127 380.0,69.5203801621377 370.0,77.37725004512636 360.0,66.72936457778107 350.0,79.45611330440207 340.0,56.97955018392138 330.00000000000006,83.1748285557657 320.0,86.6890032812936 310.0,77.52519943843228 300.0,68.32009883239505 290.0,50.686978268919724 280.0,73.4085168767158 270.0,71.40909811949076 260.0,82.43307877909828 250.0,78.91721548779658 240.0,71.56939071842473 230.0,79.43821244778144 220.0,87.56149902939794 210.0,60.006790672380696 200.0,69.35517933085069 190.00000000000003,84.3941704477812 180.0,59.43017882174363 170.0,60.311345375763054 160.0,60.20917279565575 150.0,104.49574536253272 140.0,78.12804979978462 130.0,86.80882267379215 120.00000000000001,75.04182055291665 110.0,68.63084446973551 100.0,71.07763660312139 90.0,110.51685822850655 80.0,70.29904433642155 70.0,66.33189602369184 60.0,84.603565853347 50.0,73.16663852807416" style="fill:rgb(98.8%,55.3%,38.4%);fill-opacity:1.0;opacity:1.0;stroke:none" /></g></g><g class="toyplot-coordinates-Axis" id="ta7f4f262a2434decbe6ef485ea02e188" transform="translate(50.0,550.0)translate(0,10.0)"><line style="" x1="0" x2="490.0" y1="0" y2="0" /><g><g transform="translate(0.0,6)"><text style="fill:rgb(16.1%,15.3%,14.1%);fill-opacity:1.0;font-family:helvetica;font-size:10.0px;font-weight:normal;stroke:none;vertical-align:baseline;white-space:pre" x="-2.78" y="8.555">0</text></g><g transform="translate(100.0,6)"><text style="fill:rgb(16.1%,15.3%,14.1%);fill-opacity:1.0;font-family:helvetica;font-size:10.0px;font-weight:normal;stroke:none;vertical-align:baseline;white-space:pre" x="-5.56" y="8.555">10</text></g><g transform="translate(200.0,6)"><text style="fill:rgb(16.1%,15.3%,14.1%);fill-opacity:1.0;font-family:helvetica;font-size:10.0px;font-weight:normal;stroke:none;vertical-align:baseline;white-space:pre" x="-5.56" y="8.555">20</text></g><g transform="translate(300.0,6)"><text style="fill:rgb(16.1%,15.3%,14.1%);fill-opacity:1.0;font-family:helvetica;font-size:10.0px;font-weight:normal;stroke:none;vertical-align:baseline;white-space:pre" x="-5.56" y="8.555">30</text></g><g transform="translate(400.0,6)"><text style="fill:rgb(16.1%,15.3%,14.1%);fill-opacity:1.0;font-family:helvetica;font-size:10.0px;font-weight:normal;stroke:none;vertical-align:baseline;white-space:pre" x="-5.56" y="8.555">40</text></g><g transform="translate(500.0,6)"><text style="fill:rgb(16.1%,15.3%,14.1%);fill-opacity:1.0;font-family:helvetica;font-size:10.0px;font-weight:normal;stroke:none;vertical-align:baseline;white-space:pre" x="-5.56" y="8.555">50</text></g></g><g class="toyplot-coordinates-Axis-coordinates" style="visibility:hidden" transform=""><line style="stroke:rgb(43.9%,50.2%,56.5%);stroke-opacity:1.0;stroke-width:1.0" x1="0" x2="0" y1="-3.0" y2="4.5" /><text style="alignment-baseline:alphabetic;fill:rgb(43.9%,50.2%,56.5%);fill-opacity:1.0;font-size:10px;font-weight:normal;stroke:none;text-anchor:middle" x="0" y="-6" /></g></g><g class="toyplot-coordinates-Axis" id="t69c0a71cda624b498d04123e0d6fde44" transform="translate(50.0,550.0)rotate(-90.0)translate(0,-10.0)"><line style="" x1="0" x2="500.0" y1="0" y2="0" /><g><g transform="translate(26.606577058377592,-6)"><text style="fill:rgb(16.1%,15.3%,14.1%);fill-opacity:1.0;font-family:helvetica;font-size:10.0px;font-weight:normal;stroke:none;vertical-align:baseline;white-space:pre" x="-4.445" y="-4.440892098500626e-16">-1</text></g><g transform="translate(250.0,-6)"><text style="fill:rgb(16.1%,15.3%,14.1%);fill-opacity:1.0;font-family:helvetica;font-size:10.0px;font-weight:normal;stroke:none;vertical-align:baseline;white-space:pre" x="-2.78" y="-4.440892098500626e-16">0</text></g><g transform="translate(473.3934229416224,-6)"><text style="fill:rgb(16.1%,15.3%,14.1%);fill-opacity:1.0;font-family:helvetica;font-size:10.0px;font-weight:normal;stroke:none;vertical-align:baseline;white-space:pre" x="-2.78" y="-4.440892098500626e-16">1</text></g></g><g class="toyplot-coordinates-Axis-coordinates" style="visibility:hidden" transform=""><line style="stroke:rgb(43.9%,50.2%,56.5%);stroke-opacity:1.0;stroke-width:1.0" x1="0" x2="0" y1="3.0" y2="-4.5" /><text style="alignment-baseline:hanging;fill:rgb(43.9%,50.2%,56.5%);fill-opacity:1.0;font-size:10px;font-weight:normal;stroke:none;text-anchor:middle" x="0" y="6" /></g></g></g></svg>