<svg height="600px" id="tf0f33417e932479d9ed097a930f8a969" preserveAspectRatio="xMidYMid meet" style="background-color:transparent;fill:rgb(16.1%,15.3%,14.1%);fill-opacity:1.0;font-family:helvetica;font-size:12px;opacity:1.0;stroke:rgb(16.1%,15.3%,14.1%);stroke-opacity:1.0;stroke-width:1.0" viewBox="0 0 600 600" width="600px" xmlns="http://www.w3.org/2000/svg" xmlns:toyplot="http://www.sandia.gov/toyplot"><g class="toyplot-axes-Cartesian" id="t6f6cc93beec44095b5e67f19ec24a9a1"><clipPath id="t34bc8410199d4153867f6b3b861bf494"><rect height="520.0" width="520.0" x="40.0" y="40.0" /></clipPath><g class="toyplot-coordinate-events" clip-path="url(#t34bc8410199d4153867f6b3b861bf494)" style="cursor:crosshair"><rect height="520.0" style="pointer-events:all;visibility:hidden" width="520.0" x="40.0" y="40.0" /><g class="toyplot-mark-FillMagnitudes" id="ta480756a154449d1ba8606a766ce8f3b" style="stroke:none"><polygon points="50.0,550.0 50.0,539.79591836734687 50.0,529.59183673469386 50.0,519.38775510204084 50.0,509.18367346938777 50.0,498.97959183673464 50.0,488.77551020408157 50.0,478.57142857142861 50.0,468.36734693877554 50.0,458.16326530612247 50.0,447.9591836734694 50.0,437.75510204081633 50.0,427.55102040816325 50.0,417.34693877551024 50.0,407.14285714285717 50.0,396.93877551020415 50.0,386.73469387755102 50.0,376.53061224489795 50.0,366.32653061224488 50.0,356.12244897959187 50.0,345.91836734693879 50.0,335.71428571428572 50.0,325.51020408163271 50.0,315.30612244897964 50.0,305.10204081632656 50.0,294.89795918367344 50.0,284.69387755102042 50.0,274.48979591836741 50.0,264.28571428571428 50.0,254.08163265306123 50.0,243.87755102040822 50.0,233.67346938775515 50.0,223.46938775510208 50.0,213.26530612244898 50.0,203.0612244897959 50.0,192.85714285714289 50.0,182.65306122448985 50.0,172.44897959183677 50.0,162.2448979591837 50.0,152.04081632653066 50.0,141.83673469387759 50.0,131.63265306122452 50.0,121.42857142857144 50.0,111.22448979591839 50.0,101.02040816326536 50.0,90.816326530612287 50.0,80.612244897959215 50.0,70.408163265306143 50.0,60.204081632653072 50.0,50.0 273.12006289577442,50.0 267.68399015608975,60.204081632653072 281.36154800624183,70.408163265306143 263.1616349512563,80.612244897959215 300.05535958949429,90.816326530612287 286.95161976435008,101.02040816326536 270.19331174281217,111.22448979591839 319.34383070396734,121.42857142857144 285.32884604627537,131.63265306122452 270.96442214940635,141.83673469387759 253.59843678028037,152.04081632653066 256.28395209642156,162.2448979591837 287.4184690099903,172.44897959183677 280.07910843277216,182.65306122448985 307.95081316457174,192.85714285714289 206.67328551030732,203.0612244897959 281.47609652926178,213.26530612244898 262.97424393072095,223.46938775510208 281.3841526717033,233.67346938775515 273.85420216742091,243.87755102040822 300.62208936727848,254.08163265306123 264.50736992400266,264.28571428571428 280.31730988632592,274.48979591836741 267.45059886961911,284.69387755102042 283.51523578630116,294.89795918367344 311.37328019915088,305.10204081632656 290.30937060398378,315.30612244897964 294.95914769373456,325.51020408163271 278.46832533006761,335.71428571428572 263.1356475383252,345.91836734693879 304.93066053576655,356.12244897959187 286.23465725598618,366.32653061224488 263.17556927107597,376.53061224489795 287.73952114058324,386.73469387755102 295.12959629042575,396.93877551020415 272.3744309748455,407.14285714285717 299.4625834084531,417.34693877551024 296.38593401792883,427.55102040816325 292.49566949704382,437.75510204081633 229.29886633433628,447.9591836734694 277.98570877092658,458.16326530612247 263.27509215589572,468.36734693877554 270.36237772937631,478.57142857142861 281.87987676214567,488.77551020408157 297.75795477030221,498.97959183673464 230.48975768770933,509.18367346938777 296.8398009402942,519.38775510204084 307.08048810687353,529.59183673469386 262.18932170061873,539.79591836734687 281.23727605630904,550.0" style="fill:rgb(40%,76.1%,64.7%);fill-opacity:1.0;opacity:1.0;stroke:none" /><polygon points="281.23727605630904,550.0 262.18932170061873,539.79591836734687 307.08048810687353,529.59183673469386 296.8398009402942,519.38775510204084 230.48975768770933,509.18367346938777 297.75795477030221,498.97959183673464 281.87987676214567,488.77551020408157 270.36237772937631,478.57142857142861 263.27509215589572,468.36734693877554 277.98570877092658,458.16326530612247 229.29886633433628,447.9591836734694 292.49566949704382,437.75510204081633 296.38593401792883,427.55102040816325 299.4625834084531,417.34693877551024 272.3744309748455,407.14285714285717 295.12959629042575,396.93877551020415 287.73952114058324,386.73469387755102 263.17556927107597,376.53061224489795 286.23465725598618,366.32653061224488 304.93066053576655,356.12244897959187 263.1356475383252,345.91836734693879 278.46832533006761,335.71428571428572 294.95914769373456,325.51020408163271 290.30937060398378,315.30612244897964 311.37328019915088,305.10204081632656 283.51523578630116,294.89795918367344 267.45059886961911,284.69387755102042 280.31730988632592,274.48979591836741 264.50736992400266,264.28571428571428 300.62208936727848,254.08163265306123 273.85420216742091,243.87755102040822 281.3841526717033,233.67346938775515 262.97424393072095,223.46938775510208 281.47609652926178,213.26530612244898 206.67328551030732,203.0612244897959 307.95081316457174,192.85714285714289 280.07910843277216,182.65306122448985 287.4184690099903,172.44897959183677 256.28395209642156,162.2448979591837 253.59843678028037,152.04081632653066 270.96442214940635,141.83673469387759 285.32884604627537,131.63265306122452 319.34383070396734,121.42857142857144 270.19331174281217,111.22448979591839 286.95161976435008,101.02040816326536 300.05535958949429,90.816326530612287 263.1616349512563,80.612244897959215 281.36154800624183,70.408163265306143 267.68399015608975,60.204081632653072 273.12006289577442,50.0 501.9942093289784,50.0 497.96572418629484,60.204081632653072 509.37199853618546,70.408163265306143 477.99370871121079,80.612244897959215 550.0,90.816326530612287 516.27091232440227,101.02040816326536 482.40499340039071,111.22448979591839 522.0840888684977,121.42857142857144 515.56859925102299,131.63265306122452 513.58461746345347,141.83673469387759 460.33977559321482,152.04081632653066 502.97788745578185,162.2448979591837 502.03426004873631,172.44897959183677 479.41717940620919,182.65306122448985 507.60957962815934,192.85714285714289 394.45276071481743,203.0612244897959 510.95923967572463,213.26530612244898 495.24549990974708,223.46938775510208 516.54127084443792,233.67346938775515 491.08777339119604,243.87755102040822 536.04089963215722,254.08163265306123 483.6503428884684,264.28571428571428 476.62199343741281,274.48979591836741 494.94960112313544,284.69387755102042 513.35980233521013,294.89795918367344 548.62604346216051,305.10204081632656 503.18296624656864,315.30612244897964 507.18180376101833,325.51020408163271 485.13384244180327,335.71428571428572 492.16556902440692,345.91836734693879 506.86121856315071,356.12244897959187 491.12357510443729,366.32653061224488 474.8770019412043,376.53061224489795 529.98641865523859,386.73469387755102 511.28964133829879,396.93877551020415 481.21165910443744,407.14285714285717 531.1396423565127,417.34693877551024 529.37730924847403,427.55102040816325 529.58165440868856,437.75510204081633 441.00850927493445,447.9591836734694 493.74390040043073,458.16326530612247 476.38235465241576,468.36734693877554 499.91635889416682,478.57142857142861 512.73831106052899,488.77551020408157 507.84472679375705,498.97959183673464 428.9662835429869,509.18367346938777 509.40191132715682,519.38775510204084 517.33620795261629,529.59183673469386 480.79286829330601,539.79591836734687 503.66672294385171,550.0" style="fill:rgb(98.8%,55.3%,38.4%);fill-opacity:1.0;opacity:1.0;stroke:none" /></g></g><g class="toyplot-coordinates" style="visibility:hidden"><rect height="14.0" style="fill:rgb(100%,100%,100%);fill-opacity:1.0;opacity:0.75;stroke:none" width="90.0" x="450.0" y="60.0" /><text style="alignment-baseline:middle;font-size:10px;font-weight:normal;stroke:none;text-anchor:middle" x="495.0" y="67.0" /></g><g class="toyplot-axes-Axis" id="tf210d0282b454491b8f5b41578997380" transform="translate(50.0,560.0) rotate(0.0)"><line style="" x1="0" x2="500.0" y1="0" y2="0" /><g><text style="alignment-baseline:middle;baseline-shift:-80%;font-size:10px;font-weight:normal;stroke:none;text-anchor:middle" transform="translate(0.0,0) rotate(0)" x="0" y="0">0</text><text style="alignment-baseline:middle;baseline-shift:-80%;font-size:10px;font-weight:normal;stroke:none;text-anchor:middle" transform="translate(223.39342294162239,0) rotate(0)" x="0" y="0">1</text><text style="alignment-baseline:middle;baseline-shift:-80%;font-size:10px;font-weight:normal;stroke:none;text-anchor:middle" transform="translate(446.78684588324478,0) rotate(0)" x="0" y="0">2</text></g></g><g class="toyplot-axes-Axis" id="tffb8d925bfb84142a5309b668b62e425" transform="translate(40.0,550.0) rotate(-90.0)"><line style="" x1="0" x2="500.0" y1="0" y2="0" /><g><text style="alignment-baseline:middle;baseline-shift:80%;font-size:10px;font-weight:normal;stroke:none;text-anchor:middle" transform="translate(0.0,0) rotate(0)" x="0" y="0">0.0</text><text style="alignment-baseline:middle;baseline-shift:80%;font-size:10px;font-weight:normal;stroke:none;text-anchor:middle" transform="translate(250.0,0) rotate(0)" x="0" y="0">0.5</text><text style="alignment-baseline:middle;baseline-shift:80%;font-size:10px;font-weight:normal;stroke:none;text-anchor:middle" transform="translate(500.0,0) rotate(0)" x="0" y="0">1.0</text></g></g></g></svg>