<svg height="600px" id="td41d1a5fcb6a41118d446524cf30157e" preserveAspectRatio="xMidYMid meet" style="background-color:transparent;fill:rgb(16.1%,15.3%,14.1%);fill-opacity:1.0;font-family:Helvetica;font-size:12px;opacity:1.0;stroke:rgb(16.1%,15.3%,14.1%);stroke-opacity:1.0;stroke-width:1.0" viewBox="0 0 600 600" width="600px" xmlns="http://www.w3.org/2000/svg" xmlns:toyplot="http://www.sandia.gov/toyplot"><g class="toyplot-axes-Cartesian" id="t029d187d143c4439b4e4a013c486a8b3"><clipPath id="tfe0e9e0e33f44c27ae5cf552cbab19d8"><rect height="520.0" width="520.0" x="40.0" y="40.0" /></clipPath><g class="toyplot-coordinate-events" clip-path="url(#tfe0e9e0e33f44c27ae5cf552cbab19d8)" style="cursor:crosshair"><rect height="520.0" style="pointer-events:all;visibility:hidden" width="520.0" x="40.0" y="40.0" /><g class="toyplot-mark-FillBoundaries" id="t36e2cec777fe4ad6b69c408e452c2285" style="stroke:none"><polygon points="50.0,550.0 60.0,550.0 70.0,550.0 80.0,550.0 90.0,550.0 100.0,550.0 110.0,550.0 120.00000000000001,550.0 130.0,550.0 140.0,550.0 150.0,550.0 160.0,550.0 170.0,550.0 180.0,550.0 190.00000000000003,550.0 200.0,550.0 210.0,550.0 220.0,550.0 230.0,550.0 240.0,550.0 250.0,550.0 260.0,550.0 270.0,550.0 280.0,550.0 290.0,550.0 300.0,550.0 310.0,550.0 320.0,550.0 330.00000000000006,550.0 340.0,550.0 350.0,550.0 360.0,550.0 370.0,550.0 380.0,550.0 390.0,550.0 400.0,550.0 410.0,550.0 420.0,550.0 430.0,550.0 440.0,550.0 450.0,550.0 460.0,550.0 470.0,550.0 480.0,550.0 490.0,550.0 500.0,550.0 510.0,550.0 520.0,550.0 530.0,550.0 540.0,550.0 540.0,135.80810573492752 530.0,145.89943161656501 520.0,120.50891531180338 510.0,154.29456580808088 500.0,85.806409718128549 490.0,110.13171130550077 480.0,141.24121913743767 470.0,50.0 460.0,113.14416886547774 450.0,139.80975808525986 440.0,172.04733583808525 430.0,167.06204378754475 420.0,109.26506950342186 410.0,122.88958905903164 400.0,71.149579534861402 390.0,259.15746408443795 380.0,120.29627163862079 370.0,154.64243161968227 360.0,120.46695284063344 350.0,134.44527654049648 340.0,84.754353362683347 330.00000000000006,151.79639280514061 320.0,122.44740062477055 310.0,146.33269063322902 300.0,116.51088837643539 290.0,64.796237366908215 280.0,103.89850590618317 270.0,95.266830405025559 260.0,125.87978768079806 250.0,154.34280788747645 240.0,76.756080008459747 230.0,111.46265418711417 220.0,154.26869864828137 210.0,108.66908011366334 200.0,94.950415887110353 190.00000000000003,137.19226946160376 180.0,86.906817660445071 170.0,92.618196648564094 160.0,99.839940897759007 150.0,217.15616640315483 140.0,126.77569934485889 130.0,154.08394801827876 120.00000000000001,140.92737124620825 110.0,119.5467088366279 100.0,90.071227689246598 90.0,214.94543941107838 80.0,91.775654754845675 70.0,72.765219023286818 60.0,156.09953243400338 50.0,120.73960919777068" style="fill:rgb(40%,76.1%,64.7%);fill-opacity:1.0;opacity:1.0;stroke:none" /></g></g><g class="toyplot-coordinates" style="visibility:hidden"><rect height="14.0" style="fill:rgb(100%,100%,100%);fill-opacity:1.0;opacity:0.75;stroke:none" width="90.0" x="450.0" y="60.0" /><text style="alignment-baseline:middle;font-size:10px;font-weight:normal;stroke:none;text-anchor:middle" x="495.0" y="67.0" /></g><g class="toyplot-axes-Axis" id="t5e6930e680cf4058840f7a0702ca7d9e" transform="translate(50.0,550.0) rotate(0.0) translate(0,10.0)"><line style="" x1="0" x2="490.0" y1="0" y2="0" /><g><text style="dominant-baseline:middle;font-size:10px;font-weight:normal;stroke:none;text-anchor:middle" transform="translate(0.0,0)translate(0,8.0)"><tspan dominant-baseline="inherit">0</tspan></text><text style="dominant-baseline:middle;font-size:10px;font-weight:normal;stroke:none;text-anchor:middle" transform="translate(100.0,0)translate(0,8.0)"><tspan dominant-baseline="inherit">10</tspan></text><text style="dominant-baseline:middle;font-size:10px;font-weight:normal;stroke:none;text-anchor:middle" transform="translate(200.0,0)translate(0,8.0)"><tspan dominant-baseline="inherit">20</tspan></text><text style="dominant-baseline:middle;font-size:10px;font-weight:normal;stroke:none;text-anchor:middle" transform="translate(300.0,0)translate(0,8.0)"><tspan dominant-baseline="inherit">30</tspan></text><text style="dominant-baseline:middle;font-size:10px;font-weight:normal;stroke:none;text-anchor:middle" transform="translate(400.0,0)translate(0,8.0)"><tspan dominant-baseline="inherit">40</tspan></text><text style="dominant-baseline:middle;font-size:10px;font-weight:normal;stroke:none;text-anchor:middle" transform="translate(500.0,0)translate(0,8.0)"><tspan dominant-baseline="inherit">50</tspan></text></g></g><g class="toyplot-axes-Axis" id="tf2694c1aa9734e898300d67757639e9b" transform="translate(50.0,550.0) rotate(-90.0) translate(0,-10.0)"><line style="" x1="0" x2="500.0" y1="0" y2="0" /><g><text style="dominant-baseline:middle;font-size:10px;font-weight:normal;stroke:none;text-anchor:middle" transform="translate(0.0,0)translate(0,-8.0)"><tspan dominant-baseline="inherit">0.0</tspan></text><text style="dominant-baseline:middle;font-size:10px;font-weight:normal;stroke:none;text-anchor:middle" transform="translate(165.87973992777395,0)translate(0,-8.0)"><tspan dominant-baseline="inherit">0.4</tspan></text><text style="dominant-baseline:middle;font-size:10px;font-weight:normal;stroke:none;text-anchor:middle" transform="translate(331.7594798555479,0)translate(0,-8.0)"><tspan dominant-baseline="inherit">0.8</tspan></text><text style="dominant-baseline:middle;font-size:10px;font-weight:normal;stroke:none;text-anchor:middle" transform="translate(497.639219783322,0)translate(0,-8.0)"><tspan dominant-baseline="inherit">1.2</tspan></text></g></g></g></svg>