<svg height="600px" id="t1f306a4fc000494db60d03cc4de6545e" style="background-color:transparent;fill:#292724;fill-opacity:1.0;font-family:helvetica;font-size:12px;opacity:1.0;stroke:#292724;stroke-opacity:1.0;stroke-width:1.0" width="600px" xmlns="http://www.w3.org/2000/svg" xmlns:toyplot="http://www.sandia.gov/toyplot"><g class="toyplot-axes-Cartesian" id="tbf4e8b3517c74a5a83064ae79b7c1c09"><clipPath id="t5d54c508be7f4800b73889ef65ed9f56"><rect height="500" width="500" x="50" y="50" /></clipPath><g class="toyplot-coordinate-events" clip-path="url(#t5d54c508be7f4800b73889ef65ed9f56)" style="cursor:crosshair"><rect height="500" style="pointer-events:all;visibility:hidden" width="500" x="50" y="50" /><g class="toyplot-mark-FillMagnitudes" id="t8ffc0f59274640a88fceeddd121f059d" style="stroke:none"><toyplot:data-table title="Fill Data">{"data": [[0, 1, 2, 3, 4, 5, 6, 7, 8, 9, 10, 11, 12, 13, 14, 15, 16, 17, 18, 19, 20, 21, 22, 23, 24, 25, 26, 27, 28, 29, 30, 31, 32, 33, 34, 35, 36, 37, 38, 39, 40, 41, 42, 43, 44, 45, 46, 47, 48, 49], [-1.0153985667304197, -0.9642022191626511, -1.0459936595240351, -1.0282350869551082, -0.8482037621179632, -1.0247497906717735, -1.035702629395344, -1.0070044877994009, -0.9543305909320321, -0.993189267967819, -0.8751567170737913, -1.0734014638694482, -1.0729440977627749, -1.0768885583579715, -0.9651395583323026, -1.0324602113707795, -1.0743074087294628, -0.9509613048281952, -0.9873244460283697, -1.022548498848461, -0.989656640741734, -0.9739182038396745, -1.0232660338448951, -1.0143158206698755, -1.1160266871251228, -1.0370936535054036, -0.9958878718631983, -0.9548669513625262, -0.9705978295560447, -1.087858570838879, -0.9872443144990484, -1.0442144282966543, -0.9965501536410486, -1.0317207051260935, -0.7709554654275352, -1.0242234834007238, -0.9611231471179553, -1.0117447821345724, -1.0138568125484941, -0.9184240301032622, -1.0375968355715608, -1.042037391075489, -1.0566203844592676, -0.9678104836447841, -1.0436093108395788, -1.1191018818191907, -0.9579371296509811, -1.0281681360337753, -1.0026385698547582, -1.011655140462874], [1.0351122831254365, 0.9498458768684002, 1.1507970320775929, 1.1049555429606308, 0.807945709909621, 1.1090655736764765, 1.037988825762077, 0.9864318063963854, 0.9547062279072969, 1.0205569428537036, 0.802614794891213, 1.0855094402685852, 1.1029238496529725, 1.1166961861435067, 0.9954385766896854, 1.097299969992776, 1.06421898196488, 0.9542607229165534, 1.0574825979443427, 1.1411735277559425, 0.9540820169715661, 1.022717331251831, 1.0965369726115335, 1.075722675446814, 1.1700133189124973, 1.0453093592076066, 0.973397497590803, 1.0309941396372841, 0.9602224053841464, 1.1218866073455147, 1.0020626355947773, 1.0357697627121683, 0.9533595086475567, 1.0361813408882299, 0.7013334745815212, 1.1546929617170507, 1.029927852857588, 1.0627818217908453, 0.9234110359208207, 0.9113895749450291, 0.9891268025699628, 1.0534278178269016, 1.2056927511887974, 0.985674998141523, 1.0606920143135579, 1.11934969390231, 0.9541983472224251, 1.0356685750175452, 0.974442252102361, 0.9987763290331094], [0.995684850335403, 0.978558561456902, 0.9411902869704775, 0.9515146309495858, 0.8884618143263056, 0.9404340076670706, 1.0334164330286109, 1.0275771692024163, 0.9539549539567672, 0.9658215930819345, 0.9476986392563697, 1.0612934874703113, 1.042964345872577, 1.0370809305724362, 0.9348405399749199, 0.9676204527487828, 1.0843958354940457, 0.947661886739837, 0.9171662941123965, 0.9039234699409795, 1.025231264511902, 0.9251190764275182, 0.9499950950782569, 0.9529089658929366, 1.0620400553377485, 1.0288779478032004, 1.0183782461355935, 0.8787397630877682, 0.980973253727943, 1.0538305343322432, 0.9724259934033194, 1.0526590938811402, 1.0397407986345406, 1.0272600693639573, 0.8405774562735493, 0.8937540050843967, 0.8923184413783228, 0.9607077424782994, 1.1043025891761675, 0.9254584852614953, 1.086066868573159, 1.0306469643240763, 0.9075480177297381, 0.949945969148045, 1.0265266073655996, 1.1188540697360714, 0.9616759120795372, 1.0206676970500055, 1.0308348876071554, 1.0245339518926384]], "names": ["x", "baseline", "y0", "y1"]}</toyplot:data-table><polygon points="60.0,517.76002701304878 69.599999999999994,506.78057678078693 79.199999999999989,524.32137981725589 88.799999999999997,520.5129174370353 98.400000000000006,481.90381610063372 108.0,519.76546886100334 117.59999999999999,522.11438930905388 127.20000000000002,515.95985226920004 136.80000000000001,504.66353023315958 146.40000000000001,512.9970721922067 156.0,487.68408445196854 165.59999999999999,530.19919411617047 175.19999999999999,530.10110843926759 184.80000000000001,530.94702833112615 194.40000000000001,506.98159637013003 204.0,521.41902784238346 213.60000000000002,530.39348095451453 223.20000000000002,503.94096093177802 232.80000000000001,511.7393160501299 242.39999999999998,519.2933849103124 252.0,512.23947313171527 261.59999999999997,508.86424437206557 271.19999999999999,519.44726580528879 280.80000000000001,517.52782379835298 290.39999999999998,539.34050086183697 300.0,522.4127051209008 309.60000000000002,513.57580853910497 319.20000000000005,504.77855684995814 328.80000000000001,508.15216458646483 338.39999999999998,533.29963182343545 348.0,511.72213122777407 357.60000000000002,523.93981000533017 367.20000000000005,513.71783995667863 376.80000000000001,521.26043504434779 386.40000000000003,465.33732514311237 396.0,519.65259822151654 405.60000000000002,506.12024611498038 415.20000000000005,516.97644482339342 424.79999999999995,517.42938597877537 434.39999999999998,496.96309228474308 444.0,522.52061638245766 453.59999999999997,523.47292764049098 463.19999999999999,526.60036265687893 472.79999999999995,507.55439683218754 482.39999999999998,523.81003791571311 492.0,540.0 501.60000000000002,505.43698018138116 511.19999999999999,520.49855929736907 520.79999999999995,515.0235476094216 530.40000000000009,516.95722047790969 530.40000000000009,302.76196009796615 520.79999999999995,306.04691705957532 511.19999999999999,298.39147321137688 501.60000000000002,300.80181062817513 492.0,299.94685479408543 482.39999999999998,296.33648294193705 472.79999999999995,296.16881755908793 463.19999999999999,268.03028518107027 453.59999999999997,297.55723543606666 444.0,310.39477111902755 434.39999999999998,301.50859297567399 424.79999999999995,319.39679196621063 415.20000000000005,289.05471457380276 405.60000000000002,285.24430201951913 396.0,272.01981758352764 386.40000000000003,314.93097105321732 376.80000000000001,299.04338237625655 367.20000000000005,309.26256578318652 357.60000000000002,301.81102344049509 348.0,296.82209714704999 338.39999999999998,292.70242603084819 328.80000000000001,302.22508945942241 319.20000000000005,283.67393935908524 309.60000000000002,304.82323362427064 300.0,298.23807876605173 290.39999999999998,288.42215187065227 280.80000000000001,286.83082801852851 271.19999999999999,284.28648401930366 261.59999999999997,289.5346520552007 252.0,307.6292514949231 242.39999999999998,274.55995079597642 232.80000000000001,284.9540450843831 223.20000000000002,299.29241443154507 213.60000000000002,302.16354065955466 204.0,286.09461540357466 194.40000000000001,293.50214263427824 184.80000000000001,291.46294825901111 175.19999999999999,293.57061178205583 165.59999999999999,297.40335139900839 156.0,315.55717277100575 146.40000000000001,294.13079177211722 136.80000000000001,299.91944176349966 127.20000000000002,304.41196964899876 117.59999999999999,299.50970761739404 108.0,281.91783228151326 98.400000000000006,308.6336487204328 88.799999999999997,283.54670853435277 79.199999999999989,277.52411123465725 69.599999999999994,303.07882794819295 60.0,295.77224199899217" style="fill:rgba(40%,76.1%,64.7%,1);opacity:1.0;stroke:none" /><polygon points="60.0,295.77224199899217 69.599999999999994,303.07882794819295 79.199999999999989,277.52411123465725 88.799999999999997,283.54670853435277 98.400000000000006,308.6336487204328 108.0,281.91783228151326 117.59999999999999,299.50970761739404 127.20000000000002,304.41196964899876 136.80000000000001,299.91944176349966 146.40000000000001,294.13079177211722 156.0,315.55717277100575 165.59999999999999,297.40335139900839 175.19999999999999,293.57061178205583 184.80000000000001,291.46294825901111 194.40000000000001,293.50214263427824 204.0,286.09461540357466 213.60000000000002,302.16354065955466 223.20000000000002,299.29241443154507 232.80000000000001,284.9540450843831 242.39999999999998,274.55995079597642 252.0,307.6292514949231 261.59999999999997,289.5346520552007 271.19999999999999,284.28648401930366 280.80000000000001,286.83082801852851 290.39999999999998,288.42215187065227 300.0,298.23807876605173 309.60000000000002,304.82323362427064 319.20000000000005,283.67393935908524 328.80000000000001,302.22508945942241 338.39999999999998,292.70242603084819 348.0,296.82209714704999 357.60000000000002,301.81102344049509 367.20000000000005,309.26256578318652 376.80000000000001,299.04338237625655 386.40000000000003,314.93097105321732 396.0,272.01981758352764 405.60000000000002,285.24430201951913 415.20000000000005,289.05471457380276 424.79999999999995,319.39679196621063 434.39999999999998,301.50859297567399 444.0,310.39477111902755 453.59999999999997,297.55723543606666 463.19999999999999,268.03028518107027 472.79999999999995,296.16881755908793 482.39999999999998,296.33648294193705 492.0,299.94685479408543 501.60000000000002,300.80181062817513 511.19999999999999,298.39147321137688 520.79999999999995,306.04691705957532 530.40000000000009,302.76196009796615 530.40000000000009,83.042779522090328 520.79999999999995,84.976452390578459 511.19999999999999,79.501440702630958 501.60000000000002,94.56301981861877 492.0,60.0 482.39999999999998,76.18996208428689 472.79999999999995,92.445603167812493 463.19999999999999,73.399637343121086 453.59999999999997,76.527072359508963 444.0,77.479383617542283 434.39999999999998,103.03690771525692 424.79999999999995,82.570614021224713 415.20000000000005,83.023555176606607 405.60000000000002,93.879753885019596 396.0,80.347401778483601 386.40000000000003,134.66267485688763 376.80000000000001,78.739564955652185 367.20000000000005,86.282160043321312 357.60000000000002,76.060189994669827 348.0,88.277868772225986 338.39999999999998,66.700368176564524 328.80000000000001,91.84783541353508 319.20000000000005,95.22144315004185 309.60000000000002,86.424191460895003 300.0,77.587294879099247 290.39999999999998,60.659499138162936 280.80000000000001,82.472176201647159 271.19999999999999,80.552734194711135 261.59999999999997,91.135755627934358 252.0,87.760526868284714 242.39999999999998,80.706615089687745 232.80000000000001,88.260683949870185 223.20000000000002,96.059039068222006 213.60000000000002,69.60651904548547 204.0,78.580972157616657 194.40000000000001,93.018403629869951 184.80000000000001,69.05297166887388 175.19999999999999,69.898891560732537 165.59999999999999,69.800805883829526 156.0,112.3159155480314 146.40000000000001,87.002927807793228 136.80000000000001,95.336469766840466 127.20000000000002,84.040147730799987 117.59999999999999,77.885610690946095 108.0,80.234531138996545 98.400000000000006,118.09618389936628 88.799999999999997,79.487082562964673 79.199999999999989,75.678620182744169 69.599999999999994,93.219423219213127 60.0,82.239972986951187" style="fill:rgba(98.8%,55.3%,38.4%,1);opacity:1.0;stroke:none" /></g></g><g class="toyplot-coordinates" style="visibility:hidden"><rect height="14" style="fill:white;opacity:0.75;stroke:none" width="90" x="450" y="60" /><text style="alignment-baseline:middle;font-size:10px;font-weight:normal;stroke:none;text-anchor:middle" x="495.0" y="67.0" /></g><line style="" x1="60.0" x2="530.4000000000001" y1="550" y2="550" /><g><text style="alignment-baseline:middle;baseline-shift:-80%;font-size:10px;font-weight:normal;stroke:none;text-anchor:middle" x="60.0" y="550">0</text><text style="alignment-baseline:middle;baseline-shift:-80%;font-size:10px;font-weight:normal;stroke:none;text-anchor:middle" x="156.0" y="550">10</text><text style="alignment-baseline:middle;baseline-shift:-80%;font-size:10px;font-weight:normal;stroke:none;text-anchor:middle" x="252.0" y="550">20</text><text style="alignment-baseline:middle;baseline-shift:-80%;font-size:10px;font-weight:normal;stroke:none;text-anchor:middle" x="348.0" y="550">30</text><text style="alignment-baseline:middle;baseline-shift:-80%;font-size:10px;font-weight:normal;stroke:none;text-anchor:middle" x="444.0" y="550">40</text><text style="alignment-baseline:middle;baseline-shift:-80%;font-size:10px;font-weight:normal;stroke:none;text-anchor:middle" x="540.0" y="550">50</text></g><line style="" x1="50" x2="50" y1="60.0" y2="540.0" /><g><text style="alignment-baseline:middle;baseline-shift:80%;font-size:10px;font-weight:normal;stroke:none;text-anchor:middle" transform="rotate(-90, 50, 514.4576860239575)" x="50" y="514.4576860239575">-1</text><text style="alignment-baseline:middle;baseline-shift:80%;font-size:10px;font-weight:normal;stroke:none;text-anchor:middle" transform="rotate(-90, 50, 300.0)" x="50" y="300.0">0</text><text style="alignment-baseline:middle;baseline-shift:80%;font-size:10px;font-weight:normal;stroke:none;text-anchor:middle" transform="rotate(-90, 50, 85.5423139760425)" x="50" y="85.5423139760425">1</text></g></g></svg>