<svg class="toyplot-canvas-Canvas" height="600px" id="tb5921126764b434281d2af09317ebf7f" preserveAspectRatio="xMidYMid meet" style="background-color:transparent;fill:rgb(16.1%,15.3%,14.1%);fill-opacity:1.0;font-family:Helvetica;font-size:12px;opacity:1.0;stroke:rgb(16.1%,15.3%,14.1%);stroke-opacity:1.0;stroke-width:1.0" viewBox="0 0 600 600" width="600px" xmlns="http://www.w3.org/2000/svg" xmlns:toyplot="http://www.sandia.gov/toyplot"><g class="toyplot-axes-Cartesian" id="tbe73f11ae97445e58a3c6a433c064a0f"><clipPath id="t1ff092badc1a46a59aafd8afae8af701"><rect height="520.0" width="520.0" x="40.0" y="40.0" /></clipPath><g clip-path="url(#t1ff092badc1a46a59aafd8afae8af701)"><rect height="520.0" style="pointer-events:all;visibility:hidden" width="520.0" x="40.0" y="40.0" /><g class="toyplot-mark-FillBoundaries" id="t742f4fcd8b544841aea5a2ab3aad90f7" style="stroke:none"><polygon points="50.0,529.86385979450506 60.0,440.04785474711679 70.0,455.88671761940611 80.0,414.91435668795333 90.0,445.01318859924447 100.0,413.1597506259011 110.0,468.48416592268171 120.00000000000001,470.19348168163117 130.0,458.6888577942168 140.0,443.16086926550594 150.0,464.3473013167353 160.0,442.86723754604515 170.0,431.91408088720942 180.0,429.33463770432729 190.00000000000003,426.92583036762858 200.0,444.52231765523425 210.0,550.0 220.0,451.86070261481882 230.0,422.25959008471119 240.0,466.79628316598377 250.0,511.70523304626391 260.0,433.59158536257871 270.0,437.09454012531336 280.0,449.87468072330074 290.0,490.59526619804564 300.0,478.60919856644023 310.0,468.58930948907624 320.0,440.35571038552376 330.00000000000006,442.8193445085293 340.0,441.99517068831335 350.0,444.66581968065464 360.0,508.92639091718672 370.0,444.01257154565349 380.0,466.35803946430093 390.0,467.67779329252028 400.0,441.33150732093912 410.0,420.9614024176131 420.0,490.57107658413918 430.0,468.87645467497708 440.0,521.69870532630352 450.0,493.20224623973161 460.0,454.85484360516176 470.0,435.32910410731222 480.0,456.14330789595266 490.0,495.15145633827223 500.0,503.67680276734643 510.0,457.65765041102105 520.0,423.7398855087751 530.0,435.72795668928848 540.0,473.88955250584161 540.0,303.8558081913074 530.0,305.39967258725909 520.0,301.51519649585862 510.0,306.68403788568844 500.0,296.2060861307009 490.0,299.9275958195185 480.0,304.68701614551344 470.0,290.72809029952236 460.0,300.38846944759405 450.0,304.4680179902096 440.0,309.40002088934034 430.0,308.63732478869662 420.0,299.79500893866981 410.0,301.87941399114447 400.0,293.96374864771161 390.0,322.72693423092994 380.0,301.48266429940583 370.0,306.73725761592004 360.0,301.50877668879212 350.0,303.64730997256748 340.0,296.04513281606648 330.00000000000006,306.3018442671883 320.0,301.81176391344758 310.0,305.46595656003905 300.0,300.90354134647919 290.0,292.99175558322753 280.0,298.97398238937734 270.0,297.65342881297431 260.0,302.3368822409181 250.0,306.6914184053187 240.0,294.82148296018937 230.0,300.1312157751189 220.0,306.68008048826539 210.0,299.70382896787066 200.0,297.6050207926308 190.00000000000003,304.0675703641723 180.0,296.37443671843249 170.0,297.24821631637298 160.0,298.35306556549767 150.0,316.30118712549842 140.0,302.47394709605067 130.0,306.65181562761808 120.00000000000001,304.63900079146617 110.0,301.36798924717789 100.0,296.85855744101752 90.0,315.96296965712332 80.0,297.11931646247206 70.0,294.2109241241684 60.0,306.96017837924961 50.0,301.55049018085964" style="fill:rgb(40%,76.1%,64.7%);fill-opacity:1.0;opacity:1.0;stroke:none" /><polygon points="50.0,301.55049018085964 60.0,306.96017837924961 70.0,294.2109241241684 80.0,297.11931646247206 90.0,315.96296965712332 100.0,296.85855744101752 110.0,301.36798924717789 120.00000000000001,304.63900079146617 130.0,306.65181562761808 140.0,302.47394709605067 150.0,316.30118712549842 160.0,298.35306556549767 170.0,297.24821631637298 180.0,296.37443671843249 190.00000000000003,304.0675703641723 200.0,297.6050207926308 210.0,299.70382896787066 220.0,306.68008048826539 230.0,300.1312157751189 240.0,294.82148296018937 250.0,306.6914184053187 260.0,302.3368822409181 270.0,297.65342881297431 280.0,298.97398238937734 290.0,292.99175558322753 300.0,300.90354134647919 310.0,305.46595656003905 320.0,301.81176391344758 330.00000000000006,306.3018442671883 340.0,296.04513281606648 350.0,303.64730997256748 360.0,301.50877668879212 370.0,306.73725761592004 380.0,301.48266429940583 390.0,322.72693423092994 400.0,293.96374864771161 410.0,301.87941399114447 420.0,299.79500893866981 430.0,308.63732478869662 440.0,309.40002088934034 450.0,304.4680179902096 460.0,300.38846944759405 470.0,290.72809029952236 480.0,304.68701614551344 490.0,299.9275958195185 500.0,296.2060861307009 510.0,306.68403788568844 520.0,301.51519649585862 530.0,305.39967258725909 540.0,303.8558081913074 540.0,169.67486306857199 530.0,119.52617000264306 520.0,113.37177426422991 510.0,151.2962795406811 500.0,160.97757346672205 490.0,122.85648340711154 480.0,168.41630833196072 470.0,168.48983577168815 460.0,169.59165988332541 450.0,140.07443058790159 440.0,191.87821449155808 430.0,178.03193400220559 420.0,153.39517338534077 410.0,176.60746258562429 400.0,160.31023129077113 390.0,214.49765484294372 380.0,162.1942447207509 370.0,131.56402210608934 360.0,153.33965936684743 350.0,175.43329872316738 340.0,133.75607843574878 330.00000000000006,154.22253766344235 320.0,186.64113270609607 310.0,141.10683803916953 300.0,159.68018539308321 290.0,169.4753343541355 280.0,123.9964575195028 270.0,99.450680152583743 260.0,138.57376131446631 250.0,171.79323119133937 240.0,148.07138561179835 230.0,141.94484038351976 220.0,164.95267326068765 210.0,168.40172441834741 200.0,144.45529613054481 190.00000000000003,166.03733707312526 180.0,105.47367859592862 170.0,140.22447716983339 160.0,131.82048993323517 150.0,186.94438228156008 140.0,163.97719840679844 130.0,136.09915040537402 120.00000000000001,135.523300232287 110.0,186.35436715795026 100.0,170.28594548582339 90.0,172.11898268472709 80.0,136.4247144295509 70.0,128.42734772295967 60.0,153.68306288589719 50.0,152.08477514583717" style="fill:rgb(98.8%,55.3%,38.4%);fill-opacity:1.0;opacity:1.0;stroke:none" /></g></g><g class="toyplot-axes-Axis" id="tb65f7d8684044226a35494fd9bb29402" transform="translate(50.0,550.0) rotate(0.0) translate(0,10.0)"><line style="" x1="0" x2="490.0" y1="0" y2="0" /><g><text style="dominant-baseline:hanging;font-size:10px;font-weight:normal;stroke:none;text-anchor:middle" transform="translate(0.0,6)"><tspan style="dominant-baseline:inherit">0</tspan></text><text style="dominant-baseline:hanging;font-size:10px;font-weight:normal;stroke:none;text-anchor:middle" transform="translate(100.0,6)"><tspan style="dominant-baseline:inherit">10</tspan></text><text style="dominant-baseline:hanging;font-size:10px;font-weight:normal;stroke:none;text-anchor:middle" transform="translate(200.0,6)"><tspan style="dominant-baseline:inherit">20</tspan></text><text style="dominant-baseline:hanging;font-size:10px;font-weight:normal;stroke:none;text-anchor:middle" transform="translate(300.0,6)"><tspan style="dominant-baseline:inherit">30</tspan></text><text style="dominant-baseline:hanging;font-size:10px;font-weight:normal;stroke:none;text-anchor:middle" transform="translate(400.0,6)"><tspan style="dominant-baseline:inherit">40</tspan></text><text style="dominant-baseline:hanging;font-size:10px;font-weight:normal;stroke:none;text-anchor:middle" transform="translate(500.0,6)"><tspan style="dominant-baseline:inherit">50</tspan></text></g><g class="toyplot-axes-Axis-coordinates" style="visibility:hidden" transform=""><line x1="0" x2="0" y1="-10" y2="10" /><text style="alignment-baseline:alphabetic;font-weight:normal;stroke:none;text-anchor:middle" x="0" y="-20" /></g></g><g class="toyplot-axes-Axis" id="t5c15ebb37893425191af450a240ef2ac" transform="translate(50.0,550.0) rotate(-90.0) translate(0,-10.0)"><line style="" x1="0" x2="450.54931984741626" y1="0" y2="0" /><g><text style="dominant-baseline:alphabetic;font-size:10px;font-weight:normal;stroke:none;text-anchor:middle" transform="translate(24.165925726734965,-6)"><tspan style="dominant-baseline:inherit">-2</tspan></text><text style="dominant-baseline:alphabetic;font-size:10px;font-weight:normal;stroke:none;text-anchor:middle" transform="translate(182.77728381782333,-6)"><tspan style="dominant-baseline:inherit">0</tspan></text><text style="dominant-baseline:alphabetic;font-size:10px;font-weight:normal;stroke:none;text-anchor:middle" transform="translate(341.38864190891167,-6)"><tspan style="dominant-baseline:inherit">2</tspan></text><text style="dominant-baseline:alphabetic;font-size:10px;font-weight:normal;stroke:none;text-anchor:middle" transform="translate(500.0,-6)"><tspan style="dominant-baseline:inherit">5</tspan></text></g><g class="toyplot-axes-Axis-coordinates" style="visibility:hidden" transform=""><line x1="0" x2="0" y1="10" y2="-10" /><text style="alignment-baseline:hanging;font-weight:normal;stroke:none;text-anchor:middle" x="0" y="20" /></g></g></g></svg>