<svg class="toyplot-canvas-Canvas" height="600px" id="tb9ee6f5aa5964bf7adea577b7be33903" preserveAspectRatio="xMidYMid meet" style="background-color:transparent;fill:rgb(16.1%,15.3%,14.1%);fill-opacity:1.0;font-family:Helvetica;font-size:12px;opacity:1.0;stroke:rgb(16.1%,15.3%,14.1%);stroke-opacity:1.0;stroke-width:1.0" viewBox="0 0 600 600" width="600px" xmlns="http://www.w3.org/2000/svg" xmlns:toyplot="http://www.sandia.gov/toyplot"><g class="toyplot-axes-Cartesian" id="t2fba9b5352a24a37bffd21d0f29c7a12"><clipPath id="t988aecfa4fc14706b99ddde98fe157c5"><rect height="520.0" width="520.0" x="40.0" y="40.0" /></clipPath><g clip-path="url(#t988aecfa4fc14706b99ddde98fe157c5)"><rect height="520.0" style="pointer-events:all;visibility:hidden" width="520.0" x="40.0" y="40.0" /><g class="toyplot-mark-FillBoundaries" id="tc5f128c92a264f5799e46d930c6ef897" style="stroke:none"><polygon points="70.136140205494954,550.0 159.95214525288321,539.79591836734687 144.11328238059392,529.59183673469386 185.08564331204661,519.38775510204084 154.98681140075556,509.18367346938777 186.84024937409885,498.97959183673464 131.51583407731829,488.77551020408157 129.80651831836883,478.57142857142861 141.3111422057832,468.36734693877554 156.83913073449401,458.16326530612247 135.65269868326467,447.9591836734694 157.13276245395485,437.75510204081633 168.08591911279061,427.55102040816325 170.66536229567268,417.34693877551024 173.07416963237137,407.14285714285717 155.47768234476573,396.93877551020415 50.0,386.73469387755102 148.13929738518118,376.53061224489795 177.74040991528875,366.32653061224488 133.20371683401623,356.12244897959187 88.294766953736087,345.91836734693879 166.40841463742123,335.71428571428572 162.90545987468664,325.51020408163271 150.12531927669929,315.30612244897964 109.40473380195439,305.10204081632656 121.39080143355974,294.89795918367344 131.41069051092376,284.69387755102042 159.64428961447618,274.48979591836741 157.1806554914707,264.28571428571428 158.00482931168665,254.08163265306123 155.33418031934531,243.87755102040822 91.073609082813348,233.67346938775515 155.98742845434651,223.46938775510208 133.64196053569904,213.26530612244898 132.32220670747969,203.0612244897959 158.66849267906088,192.85714285714289 179.03859758238693,182.65306122448985 109.42892341586082,172.44897959183677 131.12354532502292,162.2448979591837 78.301294673696404,152.04081632653066 106.79775376026838,141.83673469387759 145.14515639483821,131.63265306122452 164.67089589268772,121.42857142857144 143.85669210404737,111.22448979591839 104.84854366172775,101.02040816326536 96.323197232653627,90.816326530612287 142.34234958897898,80.612244897959215 176.26011449122484,70.408163265306143 164.2720433107115,60.204081632653072 126.11044749415839,50.0 296.1441918086926,50.0 294.60032741274097,60.204081632653072 298.48480350414133,70.408163265306143 293.31596211431167,80.612244897959215 303.7939138692991,90.816326530612287 300.0724041804815,101.02040816326536 295.31298385448656,111.22448979591839 309.27190970047764,121.42857142857144 299.61153055240595,131.63265306122452 295.5319820097904,141.83673469387759 290.5999791106596,152.04081632653066 291.36267521130338,162.2448979591837 300.20499106133019,172.44897959183677 298.12058600885553,182.65306122448985 306.03625135228839,192.85714285714289 277.27306576907006,203.0612244897959 298.51733570059417,213.26530612244898 293.26274238407996,223.46938775510208 298.49122331120788,233.67346938775515 296.35269002743252,243.87755102040822 303.95486718393352,254.08163265306123 293.6981557328117,264.28571428571428 298.18823608655242,274.48979591836741 294.53404343996095,284.69387755102042 299.09645865352081,294.89795918367344 307.00824441677247,305.10204081632656 301.02601761062266,315.30612244897964 302.34657118702569,325.51020408163271 297.66311775908184,335.71428571428572 293.3085815946813,345.91836734693879 305.17851703981063,356.12244897959187 299.86878422488115,366.32653061224488 293.31991951173461,376.53061224489795 300.29617103212934,386.73469387755102 302.3949792073692,396.93877551020415 295.9324296358277,407.14285714285717 303.62556328156751,417.34693877551024 302.75178368362702,427.55102040816325 301.64693443450233,437.75510204081633 283.69881287450158,447.9591836734694 297.52605290394939,458.16326530612247 293.34818437238187,468.36734693877554 295.36099920853383,478.57142857142861 298.63201075282217,488.77551020408157 303.14144255898248,498.97959183673464 284.03703034287668,509.18367346938777 302.88068353752794,519.38775510204084 305.7890758758316,529.59183673469386 293.03982162075039,539.79591836734687 298.44950981914036,550.0" style="fill:rgb(40%,76.1%,64.7%);fill-opacity:1.0;opacity:1.0;stroke:none" /><polygon points="298.44950981914036,550.0 293.03982162075039,539.79591836734687 305.7890758758316,529.59183673469386 302.88068353752794,519.38775510204084 284.03703034287668,509.18367346938777 303.14144255898248,498.97959183673464 298.63201075282217,488.77551020408157 295.36099920853383,478.57142857142861 293.34818437238187,468.36734693877554 297.52605290394939,458.16326530612247 283.69881287450158,447.9591836734694 301.64693443450233,437.75510204081633 302.75178368362702,427.55102040816325 303.62556328156751,417.34693877551024 295.9324296358277,407.14285714285717 302.3949792073692,396.93877551020415 300.29617103212934,386.73469387755102 293.31991951173461,376.53061224489795 299.86878422488115,366.32653061224488 305.17851703981063,356.12244897959187 293.3085815946813,345.91836734693879 297.66311775908184,335.71428571428572 302.34657118702569,325.51020408163271 301.02601761062266,315.30612244897964 307.00824441677247,305.10204081632656 299.09645865352081,294.89795918367344 294.53404343996095,284.69387755102042 298.18823608655242,274.48979591836741 293.6981557328117,264.28571428571428 303.95486718393352,254.08163265306123 296.35269002743252,243.87755102040822 298.49122331120788,233.67346938775515 293.26274238407996,223.46938775510208 298.51733570059417,213.26530612244898 277.27306576907006,203.0612244897959 306.03625135228839,192.85714285714289 298.12058600885553,182.65306122448985 300.20499106133019,172.44897959183677 291.36267521130338,162.2448979591837 290.5999791106596,152.04081632653066 295.5319820097904,141.83673469387759 299.61153055240595,131.63265306122452 309.27190970047764,121.42857142857144 295.31298385448656,111.22448979591839 300.0724041804815,101.02040816326536 303.7939138692991,90.816326530612287 293.31596211431167,80.612244897959215 298.48480350414133,70.408163265306143 294.60032741274097,60.204081632653072 296.1441918086926,50.0 430.32513693142801,50.0 480.47382999735692,60.204081632653072 486.62822573577012,70.408163265306143 448.7037204593189,80.612244897959215 439.02242653327795,90.816326530612287 477.14351659288843,101.02040816326536 431.58369166803931,111.22448979591839 431.51016422831185,121.42857142857144 430.40834011667454,131.63265306122452 459.92556941209841,141.83673469387759 408.12178550844192,152.04081632653066 421.96806599779438,162.2448979591837 446.6048266146592,172.44897959183677 423.39253741437574,182.65306122448985 439.68976870922887,192.85714285714289 385.50234515705625,203.0612244897959 437.80575527924913,213.26530612244898 468.43597789391066,223.46938775510208 446.6603406331526,233.67346938775515 424.56670127683265,243.87755102040822 466.2439215642512,254.08163265306123 445.77746233655762,264.28571428571428 413.35886729390393,274.48979591836741 458.89316196083047,284.69387755102042 440.31981460691679,294.89795918367344 430.5246656458645,305.10204081632656 476.00354248049723,315.30612244897964 500.54931984741626,325.51020408163271 461.42623868553369,335.71428571428572 428.20676880866057,345.91836734693879 451.92861438820165,356.12244897959187 458.05515961648024,366.32653061224488 435.04732673931233,376.53061224489795 431.59827558165262,386.73469387755102 455.54470386945519,396.93877551020415 433.96266292687477,407.14285714285717 494.52632140407138,417.34693877551024 459.77552283016661,427.55102040816325 468.17951006676486,437.75510204081633 413.05561771843992,447.9591836734694 436.02280159320156,458.16326530612247 463.90084959462592,468.36734693877554 464.476699767713,478.57142857142861 413.64563284204979,488.77551020408157 429.71405451417661,498.97959183673464 427.88101731527286,509.18367346938777 463.57528557044907,519.38775510204084 471.57265227704033,529.59183673469386 446.31693711410281,539.79591836734687 447.91522485416277,550.0" style="fill:rgb(98.8%,55.3%,38.4%);fill-opacity:1.0;opacity:1.0;stroke:none" /></g></g><g class="toyplot-axes-Axis" id="tb1310b29001d4f618926d80b5e5f0e72" transform="translate(50.0,550.0) rotate(0.0) translate(0,10.0)"><line style="" x1="0" x2="450.54931984741626" y1="0" y2="0" /><g><text style="dominant-baseline:hanging;font-size:10px;font-weight:normal;stroke:none;text-anchor:middle" transform="translate(24.165925726734965,6)"><tspan style="dominant-baseline:inherit">-2</tspan></text><text style="dominant-baseline:hanging;font-size:10px;font-weight:normal;stroke:none;text-anchor:middle" transform="translate(182.77728381782333,6)"><tspan style="dominant-baseline:inherit">0</tspan></text><text style="dominant-baseline:hanging;font-size:10px;font-weight:normal;stroke:none;text-anchor:middle" transform="translate(341.38864190891167,6)"><tspan style="dominant-baseline:inherit">2</tspan></text><text style="dominant-baseline:hanging;font-size:10px;font-weight:normal;stroke:none;text-anchor:middle" transform="translate(500.0,6)"><tspan style="dominant-baseline:inherit">5</tspan></text></g><g class="toyplot-axes-Axis-coordinates" style="visibility:hidden" transform=""><line x1="0" x2="0" y1="-10" y2="10" /><text style="alignment-baseline:alphabetic;font-weight:normal;stroke:none;text-anchor:middle" x="0" y="-20" /></g></g><g class="toyplot-axes-Axis" id="t69c95b47c70f4834893bd22ef594a0ee" transform="translate(50.0,550.0) rotate(-90.0) translate(0,-10.0)"><line style="" x1="0" x2="500.0" y1="0" y2="0" /><g><text style="dominant-baseline:alphabetic;font-size:10px;font-weight:normal;stroke:none;text-anchor:middle" transform="translate(0.0,-6)"><tspan style="dominant-baseline:inherit">0.0</tspan></text><text style="dominant-baseline:alphabetic;font-size:10px;font-weight:normal;stroke:none;text-anchor:middle" transform="translate(250.0,-6)"><tspan style="dominant-baseline:inherit">0.5</tspan></text><text style="dominant-baseline:alphabetic;font-size:10px;font-weight:normal;stroke:none;text-anchor:middle" transform="translate(500.0,-6)"><tspan style="dominant-baseline:inherit">1.0</tspan></text></g><g class="toyplot-axes-Axis-coordinates" style="visibility:hidden" transform=""><line x1="0" x2="0" y1="10" y2="-10" /><text style="alignment-baseline:hanging;font-weight:normal;stroke:none;text-anchor:middle" x="0" y="20" /></g></g></g></svg>