<svg height="600px" id="t2d583c06d5f2400eb93e6492c979f02d" preserveAspectRatio="xMidYMid meet" style="background-color:transparent;fill:rgb(16.1%,15.3%,14.1%);fill-opacity:1.0;font-family:helvetica;font-size:12px;opacity:1.0;stroke:rgb(16.1%,15.3%,14.1%);stroke-opacity:1.0;stroke-width:1.0" viewBox="0 0 600 600" width="600px" xmlns="http://www.w3.org/2000/svg" xmlns:toyplot="http://www.sandia.gov/toyplot"><g class="toyplot-axes-Cartesian" id="t2471f2b915d64e9181d336b19eeb7861"><clipPath id="t3a3c944097134190a86ad42f2f3e5401"><rect height="520.0" width="520.0" x="40.0" y="40.0" /></clipPath><g class="toyplot-coordinate-events" clip-path="url(#t3a3c944097134190a86ad42f2f3e5401)" style="cursor:crosshair"><rect height="500.0" style="pointer-events:all;visibility:hidden" width="500.0" x="50.0" y="50.0" /><g class="toyplot-mark-Plot" id="tb30636cd6bd54519aa81f85e150c612a" style="fill:none"><g class="toyplot-Series"><path d="M 50.0 299.78212470917276 L 60.0 249.06229432600742 L 70.0 200.44758836693157 L 80.0 155.95575815546559 L 90.0 117.43343523085244 L 100.0 86.479486983787666 L 110.0 64.378655732702299 L 120.00000000000001 52.048235547940536 L 130.0 50.0 L 140.0 58.318961019040557 L 150.0 76.659840478303323 L 160.0 104.26140094822097 L 170.0 139.97804082387384 L 180.0 182.32734247135758 L 190.00000000000003 229.55159990924946 L 200.0 279.69077232134447 L 210.0 330.66383546818918 L 220.0 380.35515451050219 L 230.0 426.7022933440827 L 240.0 467.78161592345947 L 250.0 501.88812669494877 L 260.0 527.60623636530727 L 270.0 543.86851587573335 L 280.0 550.0 L 290.0 545.74620174774475 L 300.0 531.28367483628722 L 310.0 507.21268583602722 L 320.0 474.53230013171884 L 330.00000000000006 434.59891575575097 L 340.0 389.06996614493352 L 350.0 339.83512843550295 L 360.0 288.93789249316319 L 370.0 238.4907459522658 L 380.0 190.58749550551039 L 390.0 147.21636354534013 L 400.0 110.17746707727372 L 410.0 81.008103939399632 L 420.0 60.918947320345936 L 430.0 50.743796819571983 L 440.0 50.904971630106282 L 450.0 61.395782198225234 L 460.0 81.780807873098496 L 470.0 111.21396902256483 L 480.0 148.47364353263427 L 490.0 192.0133701818832 L 500.0 240.026034449322 L 510.0 290.51887272648798 L 520.0 341.39618188709204 L 530.0 390.5463013570191 L 540.0 435.92925749752862" style="fill:none;stroke:rgb(40%,76.1%,64.7%);stroke-opacity:1.0;stroke-width:2.0" /></g></g></g><g class="toyplot-coordinates" style="visibility:hidden"><rect height="14.0" style="fill:rgb(100%,100%,100%);fill-opacity:1.0;opacity:0.75;stroke:none" width="90.0" x="450.0" y="60.0" /><text style="alignment-baseline:middle;font-size:10px;font-weight:normal;stroke:none;text-anchor:middle" x="495.0" y="67.0" /></g><g class="toyplot-axes-Axis" id="t403b9d2e2cd64531882b23fcefe58819" transform="translate(50.0,560.0) rotate(0.0)"><line style="" x1="0" x2="490.0" y1="0" y2="0" /><g><text style="alignment-baseline:middle;baseline-shift:-80%;font-size:10px;font-weight:normal;stroke:none;text-anchor:middle" x="0.0" y="0">0</text><text style="alignment-baseline:middle;baseline-shift:-80%;font-size:10px;font-weight:normal;stroke:none;text-anchor:middle" x="100.0" y="0">10</text><text style="alignment-baseline:middle;baseline-shift:-80%;font-size:10px;font-weight:normal;stroke:none;text-anchor:middle" x="200.0" y="0">20</text><text style="alignment-baseline:middle;baseline-shift:-80%;font-size:10px;font-weight:normal;stroke:none;text-anchor:middle" x="300.0" y="0">30</text><text style="alignment-baseline:middle;baseline-shift:-80%;font-size:10px;font-weight:normal;stroke:none;text-anchor:middle" x="400.0" y="0">40</text><text style="alignment-baseline:middle;baseline-shift:-80%;font-size:10px;font-weight:normal;stroke:none;text-anchor:middle" x="500.0" y="0">50</text></g></g><g class="toyplot-axes-Axis" id="tcefa9e46d78c423da0dc148f62e8b728" transform="translate(40.0,550.0) rotate(-90.0)"><line style="" x1="0" x2="500.0" y1="0" y2="0" /><g><line style="" x1="0.0" x2="0.0" y1="0" y2="5" /><line style="" x1="125.00000000000003" x2="125.00000000000003" y1="0" y2="5" /><line style="" x1="250.0" x2="250.0" y1="0" y2="5" /><line style="" x1="375.0" x2="375.0" y1="0" y2="5" /><line style="" x1="500.0" x2="500.0" y1="0" y2="5" /></g><g><text style="alignment-baseline:middle;baseline-shift:80%;font-size:10px;font-weight:normal;stroke:none;text-anchor:middle" x="0.0" y="0">-0.999829</text><text style="alignment-baseline:middle;baseline-shift:80%;font-size:10px;font-weight:normal;stroke:none;text-anchor:middle" x="125.00000000000003" y="0">-0.50035</text><text style="alignment-baseline:middle;baseline-shift:80%;font-size:10px;font-weight:normal;stroke:none;text-anchor:middle" x="250.0" y="0">-0.000870593</text><text style="alignment-baseline:middle;baseline-shift:80%;font-size:10px;font-weight:normal;stroke:none;text-anchor:middle" x="375.0" y="0">0.498608</text><text style="alignment-baseline:middle;baseline-shift:80%;font-size:10px;font-weight:normal;stroke:none;text-anchor:middle" x="500.0" y="0">0.998087</text></g></g></g></svg>