<svg height="600px" id="tff2b1e45a0d4423bba104dac62e4cd84" preserveAspectRatio="xMidYMid meet" style="background-color:transparent;fill:rgb(16.1%,15.3%,14.1%);fill-opacity:1.0;font-family:helvetica;font-size:12px;opacity:1.0;stroke:rgb(16.1%,15.3%,14.1%);stroke-opacity:1.0;stroke-width:1.0" viewBox="0 0 600 600" width="600px" xmlns="http://www.w3.org/2000/svg" xmlns:toyplot="http://www.sandia.gov/toyplot"><g class="toyplot-axes-Cartesian" id="t7f2bd66d5c134969a4c67cb765bafea2"><clipPath id="teef7c6e76f9448178aca1b06e4fdddc7"><rect height="500.0" width="500.0" x="50.0" y="50.0" /></clipPath><g class="toyplot-coordinate-events" clip-path="url(#teef7c6e76f9448178aca1b06e4fdddc7)" style="cursor:crosshair"><rect height="500.0" style="pointer-events:all;visibility:hidden" width="500.0" x="50.0" y="50.0" /><g class="toyplot-mark-Plot" id="t0a5778e7a9b84d83a7b219fab1d861bf" style="fill:none"><g class="toyplot-Series"><path d="M 60.0 300.0 L 69.795918367346943 251.35969522843178 L 79.591836734693871 204.73820425801861 L 89.387755102040813 162.070550108117 L 99.183673469387742 125.12765196735594 L 108.9795918367347 95.442823267291573 L 118.77551020408163 74.248131573003178 L 128.57142857142856 62.423261670690259 L 138.36734693877551 60.459004287667604 L 148.16326530612247 68.436885843896846 L 157.9591836734694 86.025784701359129 L 167.75510204081633 112.49567435369667 L 177.55102040816325 146.74792314561549 L 187.34693877551018 187.36089293347175 L 197.14285714285714 232.64894411655433 L 206.9387755102041 280.73239803772481 L 216.73469387755102 329.61555296692291 L 226.53061224489795 377.26951561742851 L 236.32653061224491 421.71641027628345 L 246.12244897959184 461.11147045246372 L 255.91836734693877 493.81960583240078 L 265.71428571428572 518.48326663458784 L 275.51020408163265 534.07878865609086 L 285.30612244897958 539.95888041218154 L 295.10204081632651 535.87948894215128 L 304.89795918367349 522.00992921716863 L 314.69387755102042 498.92585672953027 L 324.48979591836735 467.58537493569588 L 334.28571428571428 429.28926921267748 L 344.08163265306121 385.62701781574515 L 353.87755102040819 338.41082065038012 L 363.67346938775512 289.60038399151591 L 373.46938775510199 241.22158295712495 L 383.26530612244892 195.28237764676334 L 393.0612244897959 153.68947284220027 L 402.85714285714289 118.16918030574715 L 412.65306122448982 90.195768283263959 L 422.44897959183675 70.930272062699544 L 432.24489795918367 61.172305253360726 L 442.0408163265306 61.326871856731984 L 451.83673469387753 71.387556592449528 L 461.63265306122452 90.936791164243033 L 471.42857142857139 119.163185414487 L 481.22448979591832 154.89520403852299 L 491.0204081632653 196.64979110814301 L 500.81632653061229 242.69392424543261 L 510.61224489795921 291.11654364358503 L 520.40816326530614 339.90787052370149 L 530.20408163265301 387.04282291837171 L 540.0 430.56506661344878" style="fill:none;stroke:rgb(40%,76.1%,64.7%);stroke-opacity:1.0;stroke-width:2.0" /></g></g></g><g class="toyplot-coordinates" style="visibility:hidden"><rect height="14.0" style="fill:rgb(100%,100%,100%);fill-opacity:1.0;opacity:0.75;stroke:none" width="90.0" x="450.0" y="60.0" /><text style="alignment-baseline:middle;font-size:10px;font-weight:normal;stroke:none;text-anchor:middle" x="495.0" y="67.0" /></g><line style="" x1="60.0" x2="540.0" y1="550.0" y2="550.0" /><g><line style="" x1="60.0" x2="60.0" y1="550.0" y2="545.0" /><line style="" x1="108.0" x2="108.0" y1="550.0" y2="545.0" /><line style="" x1="156.0" x2="156.0" y1="550.0" y2="545.0" /><line style="" x1="204.00000000000003" x2="204.00000000000003" y1="550.0" y2="545.0" /><line style="" x1="252.0" x2="252.0" y1="550.0" y2="545.0" /><line style="" x1="300.0" x2="300.0" y1="550.0" y2="545.0" /><line style="" x1="348.00000000000006" x2="348.00000000000006" y1="550.0" y2="545.0" /><line style="" x1="396.00000000000006" x2="396.00000000000006" y1="550.0" y2="545.0" /><line style="" x1="444.0" x2="444.0" y1="550.0" y2="545.0" /><line style="" x1="492.0" x2="492.0" y1="550.0" y2="545.0" /><line style="" x1="540.0" x2="540.0" y1="550.0" y2="545.0" /></g><g><text style="alignment-baseline:middle;baseline-shift:-80%;font-size:10px;font-weight:normal;stroke:none;text-anchor:middle" x="60.0" y="550.0">0</text><text style="alignment-baseline:middle;baseline-shift:-80%;font-size:10px;font-weight:normal;stroke:none;text-anchor:middle" x="108.0" y="550.0">4.9</text><text style="alignment-baseline:middle;baseline-shift:-80%;font-size:10px;font-weight:normal;stroke:none;text-anchor:middle" x="156.0" y="550.0">9.8</text><text style="alignment-baseline:middle;baseline-shift:-80%;font-size:10px;font-weight:normal;stroke:none;text-anchor:middle" x="204.00000000000003" y="550.0">14.7</text><text style="alignment-baseline:middle;baseline-shift:-80%;font-size:10px;font-weight:normal;stroke:none;text-anchor:middle" x="252.0" y="550.0">19.6</text><text style="alignment-baseline:middle;baseline-shift:-80%;font-size:10px;font-weight:normal;stroke:none;text-anchor:middle" x="300.0" y="550.0">24.5</text><text style="alignment-baseline:middle;baseline-shift:-80%;font-size:10px;font-weight:normal;stroke:none;text-anchor:middle" x="348.00000000000006" y="550.0">29.4</text><text style="alignment-baseline:middle;baseline-shift:-80%;font-size:10px;font-weight:normal;stroke:none;text-anchor:middle" x="396.00000000000006" y="550.0">34.3</text><text style="alignment-baseline:middle;baseline-shift:-80%;font-size:10px;font-weight:normal;stroke:none;text-anchor:middle" x="444.0" y="550.0">39.2</text><text style="alignment-baseline:middle;baseline-shift:-80%;font-size:10px;font-weight:normal;stroke:none;text-anchor:middle" x="492.0" y="550.0">44.1</text><text style="alignment-baseline:middle;baseline-shift:-80%;font-size:10px;font-weight:normal;stroke:none;text-anchor:middle" x="540.0" y="550.0">49</text></g><line style="" x1="50.0" x2="50.0" y1="60.459004287667604" y2="539.9588804121815" /><g><text style="alignment-baseline:middle;baseline-shift:80%;font-size:10px;font-weight:normal;stroke:none;text-anchor:middle" transform="rotate(-90, 50.0, 540.0)" x="50.0" y="540.0">-1.0</text><text style="alignment-baseline:middle;baseline-shift:80%;font-size:10px;font-weight:normal;stroke:none;text-anchor:middle" transform="rotate(-90, 50.0, 420.0)" x="50.0" y="420.0">-0.5</text><text style="alignment-baseline:middle;baseline-shift:80%;font-size:10px;font-weight:normal;stroke:none;text-anchor:middle" transform="rotate(-90, 50.0, 300.0)" x="50.0" y="300.0">0.0</text><text style="alignment-baseline:middle;baseline-shift:80%;font-size:10px;font-weight:normal;stroke:none;text-anchor:middle" transform="rotate(-90, 50.0, 180.0)" x="50.0" y="180.0">0.5</text><text style="alignment-baseline:middle;baseline-shift:80%;font-size:10px;font-weight:normal;stroke:none;text-anchor:middle" transform="rotate(-90, 50.0, 60.0)" x="50.0" y="60.0">1.0</text></g></g></svg>