<svg height="600px" id="tec7f9f4167be45df8aa78d163f30f5fc" style="background-color:transparent;fill:#292724;fill-opacity:1.0;font-family:helvetica;font-size:12px;opacity:1.0;stroke:#292724;stroke-opacity:1.0;stroke-width:1.0" width="600px" xmlns="http://www.w3.org/2000/svg" xmlns:toyplot="http://www.sandia.gov/toyplot"><g class="toyplot-axes-Cartesian" id="t0b549247c97541c789eef9129518d3a8"><toyplot:axes>{"x": [{"domain": {"max": 50.0, "min": 0}, "range": {"max": 540, "min": 60}, "scale": "linear"}], "y": [{"domain": {"max": 2.2382037636383814, "min": 0.0}, "range": {"max": 540, "min": 60}, "scale": "linear"}]}</toyplot:axes><clipPath id="t296bce59ccc94f5e8214a8e4c850364f"><rect height="500" width="500" x="50" y="50" /></clipPath><g class="toyplot-coordinate-events" clip-path="url(#t296bce59ccc94f5e8214a8e4c850364f)" style="cursor:crosshair"><rect height="500" style="pointer-events:all;visibility:hidden" width="500" x="50" y="50" /><g class="toyplot-mark-FillMagnitudes" id="t177f89fd6d414a99aeb0abf5b8eb2174" style="stroke:none"><toyplot:data-table title="Fill Data">{"data": [[0, 1, 2, 3, 4, 5, 6, 7, 8, 9, 10, 11, 12, 13, 14, 15, 16, 17, 18, 19, 20, 21, 22, 23, 24, 25, 26, 27, 28, 29, 30, 31, 32, 33, 34, 35, 36, 37, 38, 39, 40, 41, 42, 43, 44, 45, 46, 47, 48, 49], [0.0, 0.0, 0.0, 0.0, 0.0, 0.0, 0.0, 0.0, 0.0, 0.0, 0.0, 0.0, 0.0, 0.0, 0.0, 0.0, 0.0, 0.0, 0.0, 0.0, 0.0, 0.0, 0.0, 0.0, 0.0, 0.0, 0.0, 0.0, 0.0, 0.0, 0.0, 0.0, 0.0, 0.0, 0.0, 0.0, 0.0, 0.0, 0.0, 0.0, 0.0, 0.0, 0.0, 0.0, 0.0, 0.0, 0.0, 0.0, 0.0, 0.0], [1.0351122831254365, 0.9498458768684002, 1.1507970320775929, 1.1049555429606308, 0.807945709909621, 1.1090655736764765, 1.037988825762077, 0.9864318063963854, 0.9547062279072969, 1.0205569428537036, 0.802614794891213, 1.0855094402685852, 1.1029238496529725, 1.1166961861435067, 0.9954385766896854, 1.097299969992776, 1.06421898196488, 0.9542607229165534, 1.0574825979443427, 1.1411735277559425, 0.9540820169715661, 1.022717331251831, 1.0965369726115335, 1.075722675446814, 1.1700133189124973, 1.0453093592076066, 0.973397497590803, 1.0309941396372841, 0.9602224053841464, 1.1218866073455147, 1.0020626355947773, 1.0357697627121683, 0.9533595086475567, 1.0361813408882299, 0.7013334745815212, 1.1546929617170507, 1.029927852857588, 1.0627818217908453, 0.9234110359208207, 0.9113895749450291, 0.9891268025699628, 1.0534278178269016, 1.2056927511887974, 0.985674998141523, 1.0606920143135579, 1.11934969390231, 0.9541983472224251, 1.0356685750175452, 0.974442252102361, 0.9987763290331094], [0.995684850335403, 0.978558561456902, 0.9411902869704775, 0.9515146309495858, 0.8884618143263056, 0.9404340076670706, 1.0334164330286109, 1.0275771692024163, 0.9539549539567672, 0.9658215930819345, 0.9476986392563697, 1.0612934874703113, 1.042964345872577, 1.0370809305724362, 0.9348405399749199, 0.9676204527487828, 1.0843958354940457, 0.947661886739837, 0.9171662941123965, 0.9039234699409795, 1.025231264511902, 0.9251190764275182, 0.9499950950782569, 0.9529089658929366, 1.0620400553377485, 1.0288779478032004, 1.0183782461355935, 0.8787397630877682, 0.980973253727943, 1.0538305343322432, 0.9724259934033194, 1.0526590938811402, 1.0397407986345406, 1.0272600693639573, 0.8405774562735493, 0.8937540050843967, 0.8923184413783228, 0.9607077424782994, 1.1043025891761675, 0.9254584852614953, 1.086066868573159, 1.0306469643240763, 0.9075480177297381, 0.949945969148045, 1.0265266073655996, 1.1188540697360714, 0.9616759120795372, 1.0206676970500055, 1.0308348876071554, 1.0245339518926384]], "names": ["x", "baseline", "y0", "y1"]}</toyplot:data-table><polygon points="60.0,540.0 69.599999999999994,540.0 79.200000000000003,540.0 88.799999999999997,540.0 98.400000000000006,540.0 108.0,540.0 117.59999999999999,540.0 127.2,540.0 136.80000000000001,540.0 146.39999999999998,540.0 156.0,540.0 165.59999999999999,540.0 175.19999999999999,540.0 184.80000000000001,540.0 194.40000000000001,540.0 204.0,540.0 213.59999999999999,540.0 223.20000000000002,540.0 232.79999999999998,540.0 242.40000000000001,540.0 252.0,540.0 261.60000000000002,540.0 271.19999999999999,540.0 280.80000000000001,540.0 290.39999999999998,540.0 300.0,540.0 309.60000000000002,540.0 319.20000000000005,540.0 328.80000000000001,540.0 338.39999999999998,540.0 348.0,540.0 357.60000000000002,540.0 367.19999999999999,540.0 376.80000000000001,540.0 386.40000000000003,540.0 396.0,540.0 405.59999999999997,540.0 415.19999999999999,540.0 424.80000000000001,540.0 434.40000000000003,540.0 444.0,540.0 453.59999999999997,540.0 463.19999999999999,540.0 472.80000000000001,540.0 482.39999999999998,540.0 492.0,540.0 501.60000000000002,540.0 511.19999999999999,540.0 520.79999999999995,540.0 530.39999999999998,540.0 530.39999999999998,325.80473962005652 520.79999999999995,331.02336945015384 511.19999999999999,317.89291391400781 501.60000000000002,335.36483044679397 492.0,299.94685479408543 482.39999999999998,312.526445026224 472.80000000000001,328.61442072690033 463.19999999999999,281.4299225241914 453.59999999999997,314.08430779557557 444.0,327.87415473656989 434.40000000000003,344.54550069093091 424.80000000000001,341.96740598743526 415.19999999999999,312.07826975040928 405.59999999999997,319.12405590453869 396.0,292.36721936201116 386.40000000000003,389.59364591010495 376.80000000000001,317.7829473319087 367.19999999999999,335.54472582650789 357.60000000000002,317.8712134351648 348.0,325.09996591927592 338.39999999999998,299.40279420741274 328.80000000000001,334.07292487295746 319.20000000000005,318.8953825091271 309.60000000000002,331.24742508516562 300.0,315.82537364515088 290.39999999999998,289.08165100881519 280.80000000000001,309.30300422017564 271.19999999999999,304.83921821401486 261.60000000000002,320.67040768313507 252.0,335.38977836320777 242.40000000000001,295.26656588566414 232.79999999999998,313.21472903425325 223.20000000000002,335.3514534997671 213.59999999999999,311.77005970504007 204.0,304.67558756119126 194.40000000000001,326.52054626414827 184.80000000000001,300.51591992788508 175.19999999999999,303.4695033427883 165.59999999999999,307.20415728283797 156.0,367.87308831903715 146.39999999999998,321.13371957991046 136.80000000000001,335.25591153034014 127.2,328.45211737979878 117.59999999999999,317.39531830834011 108.0,302.15236342050991 98.400000000000006,366.72983261979903 88.799999999999997,303.03379109731753 79.200000000000003,293.20273141740142 69.599999999999994,336.29825116740602 60.0,318.01221498594327" style="fill:rgba(40%,76.1%,64.7%,1);opacity:1.0;stroke:none" /><polygon points="60.0,318.01221498594327 69.599999999999994,336.29825116740602 79.200000000000003,293.20273141740142 88.799999999999997,303.03379109731753 98.400000000000006,366.72983261979903 108.0,302.15236342050991 117.59999999999999,317.39531830834011 127.2,328.45211737979878 136.80000000000001,335.25591153034014 146.39999999999998,321.13371957991046 156.0,367.87308831903715 165.59999999999999,307.20415728283797 175.19999999999999,303.4695033427883 184.80000000000001,300.51591992788508 194.40000000000001,326.52054626414827 204.0,304.67558756119126 213.59999999999999,311.77005970504007 223.20000000000002,335.3514534997671 232.79999999999998,313.21472903425325 242.40000000000001,295.26656588566414 252.0,335.38977836320777 261.60000000000002,320.67040768313507 271.19999999999999,304.83921821401486 280.80000000000001,309.30300422017564 290.39999999999998,289.08165100881519 300.0,315.82537364515088 309.60000000000002,331.24742508516562 319.20000000000005,318.8953825091271 328.80000000000001,334.07292487295746 338.39999999999998,299.40279420741274 348.0,325.09996591927592 357.60000000000002,317.8712134351648 367.19999999999999,335.54472582650789 376.80000000000001,317.7829473319087 386.40000000000003,389.59364591010495 396.0,292.36721936201116 405.59999999999997,319.12405590453869 415.19999999999999,312.07826975040928 424.80000000000001,341.96740598743526 434.40000000000003,344.54550069093091 444.0,327.87415473656989 453.59999999999997,314.08430779557557 463.19999999999999,281.4299225241914 472.80000000000001,328.61442072690033 482.39999999999998,312.526445026224 492.0,299.94685479408543 501.60000000000002,335.36483044679397 511.19999999999999,317.89291391400781 520.79999999999995,331.02336945015384 530.39999999999998,325.80473962005652 530.39999999999998,106.0855590441807 520.79999999999995,109.95290478115697 511.19999999999999,99.002881405261931 501.60000000000002,129.12603963723765 492.0,60.0 482.39999999999998,92.379924168573879 472.80000000000001,124.8912063356249 463.19999999999999,86.799274686242228 453.59999999999997,93.054144719017913 444.0,94.958767235084721 434.40000000000003,146.07381543051378 424.80000000000001,105.1412280424494 415.19999999999999,106.04711035321314 405.59999999999997,127.75950777003921 396.0,100.69480355696703 386.40000000000003,209.32534971377524 376.80000000000001,97.479129911304369 367.19999999999999,112.56432008664278 357.60000000000002,92.120379989339597 348.0,116.55573754445186 338.39999999999998,73.400736353129048 328.80000000000001,123.6956708270703 319.20000000000005,130.4428863000837 309.60000000000002,112.84838292179001 300.0,95.174589758198337 290.39999999999998,61.318998276325928 280.80000000000001,104.94435240329412 271.19999999999999,101.10546838942243 261.60000000000002,122.27151125586887 252.0,115.52105373656937 242.40000000000001,101.41323017937532 232.79999999999998,116.52136789974021 223.20000000000002,132.1180781364439 213.59999999999999,79.21303809097094 204.0,97.161944315233143 194.40000000000001,126.03680725974007 184.80000000000001,78.105943337747817 175.19999999999999,79.797783121464917 165.59999999999999,79.601611767658994 156.0,164.63183109606291 146.39999999999998,114.00585561558651 136.80000000000001,130.67293953368088 127.2,108.08029546159986 117.59999999999999,95.771221381892175 108.0,100.46906227799325 98.400000000000006,176.19236779873259 88.799999999999997,98.974165125929474 79.200000000000003,91.357240365488337 69.599999999999994,126.4388464384262 60.0,104.47994597390233" style="fill:rgba(98.8%,55.3%,38.4%,1);opacity:1.0;stroke:none" /></g></g><g class="toyplot-coordinates" style="visibility:hidden"><rect height="14" style="fill:white;opacity:0.75;stroke:none" width="90" x="450" y="60" /><text style="alignment-baseline:middle;font-size:10px;font-weight:normal;stroke:none;text-anchor:middle" x="495.0" y="67.0" /></g><line style="" x1="60.0" x2="530.39999999999998" y1="550" y2="550" /><g><text style="alignment-baseline:middle;baseline-shift:-80%;font-size:10px;font-weight:normal;stroke:none;text-anchor:middle" x="60.0" y="550">0</text><text style="alignment-baseline:middle;baseline-shift:-80%;font-size:10px;font-weight:normal;stroke:none;text-anchor:middle" x="156.0" y="550">10</text><text style="alignment-baseline:middle;baseline-shift:-80%;font-size:10px;font-weight:normal;stroke:none;text-anchor:middle" x="252.0" y="550">20</text><text style="alignment-baseline:middle;baseline-shift:-80%;font-size:10px;font-weight:normal;stroke:none;text-anchor:middle" x="348.0" y="550">30</text><text style="alignment-baseline:middle;baseline-shift:-80%;font-size:10px;font-weight:normal;stroke:none;text-anchor:middle" x="444.0" y="550">40</text><text style="alignment-baseline:middle;baseline-shift:-80%;font-size:10px;font-weight:normal;stroke:none;text-anchor:middle" x="540.0" y="550">50</text></g><line style="" x1="50" x2="50" y1="60.0" y2="540.0" /><g><text style="alignment-baseline:middle;baseline-shift:80%;font-size:10px;font-weight:normal;stroke:none;text-anchor:middle" transform="rotate(-90, 50, 540.0)" x="50" y="540.0">0</text><text style="alignment-baseline:middle;baseline-shift:80%;font-size:10px;font-weight:normal;stroke:none;text-anchor:middle" transform="rotate(-90, 50, 325.54231397604252)" x="50" y="325.54231397604252">1</text><text style="alignment-baseline:middle;baseline-shift:80%;font-size:10px;font-weight:normal;stroke:none;text-anchor:middle" transform="rotate(-90, 50, 111.08462795208499)" x="50" y="111.08462795208499">2</text></g></g></svg>