<svg class="toyplot-canvas-Canvas" height="600px" id="t970fbb12cd8e462c80c9470cc4e85ba1" preserveAspectRatio="xMidYMid meet" style="background-color:transparent;border-color:#292724;border-style:none;border-width:1.0;fill:rgb(16.1%,15.3%,14.1%);fill-opacity:1.0;font-family:Helvetica;font-size:12px;opacity:1.0;stroke:rgb(16.1%,15.3%,14.1%);stroke-opacity:1.0;stroke-width:1.0" viewBox="0 0 600 600" width="600px" xmlns="http://www.w3.org/2000/svg" xmlns:toyplot="http://www.sandia.gov/toyplot" xmlns:xlink="http://www.w3.org/1999/xlink"><g class="toyplot-coordinates-Cartesian" id="tf243309945b2484cb44ce11e217b7488"><clipPath id="t4032ccc5531a42e9b22d2d93ad6188d0"><rect height="520.0" width="520.0" x="40.0" y="40.0" /></clipPath><g clip-path="url(#t4032ccc5531a42e9b22d2d93ad6188d0)"><g class="toyplot-mark-Plot" id="t01bb1d698bac429dbe14ccc2cd5682e4" style="fill:none"><g class="toyplot-Series"><path d="M 50.0 550.0 L 60.0 448.66603172589953 L 70.0 351.53792553753885 L 80.0 262.64697939191046 L 90.0 185.68260826532486 L 100.0 123.83921514019082 L 110.0 79.68360744375664 L 120.00000000000001 55.04846181393803 L 130.0 50.95625893264084 L 140.0 67.5768455081184 L 150.0 104.22038479449814 L 160.0 159.36598823686805 L 170.0 230.72483988669896 L 180.0 315.3351936113995 L 190.00000000000003 409.6853002428216 L 200.0 509.85916257859327 L 210.0 611.6990686810893 L 220.0 710.9781575363094 L 230.0 803.5758547422572 L 240.0 885.6488967759661 L 250.0 953.7908454841682 L 260.0 1005.1734721553913 L 270.0 1037.6641430335228 L 280.0 1049.9143341920449 L 290.0 1041.4156019628153 L 300.0 1012.5206858691015 L 310.0 964.4288681865213 L 320.0 899.1361977826997 L 330.00000000000006 819.3526441930782 L 340.0 728.389620449469 L 350.0 630.0225430216252 L 360.0 528.3341333156583 L 370.0 427.54496449401034 L 380.0 331.8382867640903 L 390.0 245.18640175458384 L 400.0 171.18579230363991 L 410.0 112.90785059013328 L 420.0 72.77140013062406 L 430.0 52.44230261116818 L 440.0 52.76431636819158 L 450.0 73.7240762342698 L 460.0 114.45164825883964 L 470.0 173.25663628018117 L 480.0 247.69834174692286 L 490.0 334.6870648086313 L 500.0 430.61234217798454 L 510.0 531.4927992574687 L 520.0 633.1413969243781 L 530.0 731.3392144132745 L 540.0 822.010555444685" style="stroke:rgb(40%,76.1%,64.7%);stroke-opacity:1.0;stroke-width:2.0" /></g></g></g><g class="toyplot-coordinates-Axis" id="td0311ab5f1474aacb9501d3fda0cda25" transform="translate(50.0,550.0)translate(0,10.0)"><line style="" x1="0" x2="490.0" y1="0" y2="0" /><g><g transform="translate(0.0,6)"><text style="fill:rgb(16.1%,15.3%,14.1%);fill-opacity:1.0;font-family:helvetica;font-size:10.0px;font-weight:normal;stroke:none;vertical-align:baseline;white-space:pre" x="-2.78" y="8.555">0</text></g><g transform="translate(100.0,6)"><text style="fill:rgb(16.1%,15.3%,14.1%);fill-opacity:1.0;font-family:helvetica;font-size:10.0px;font-weight:normal;stroke:none;vertical-align:baseline;white-space:pre" x="-5.56" y="8.555">10</text></g><g transform="translate(200.0,6)"><text style="fill:rgb(16.1%,15.3%,14.1%);fill-opacity:1.0;font-family:helvetica;font-size:10.0px;font-weight:normal;stroke:none;vertical-align:baseline;white-space:pre" x="-5.56" y="8.555">20</text></g><g transform="translate(300.0,6)"><text style="fill:rgb(16.1%,15.3%,14.1%);fill-opacity:1.0;font-family:helvetica;font-size:10.0px;font-weight:normal;stroke:none;vertical-align:baseline;white-space:pre" x="-5.56" y="8.555">30</text></g><g transform="translate(400.0,6)"><text style="fill:rgb(16.1%,15.3%,14.1%);fill-opacity:1.0;font-family:helvetica;font-size:10.0px;font-weight:normal;stroke:none;vertical-align:baseline;white-space:pre" x="-5.56" y="8.555">40</text></g><g transform="translate(500.0,6)"><text style="fill:rgb(16.1%,15.3%,14.1%);fill-opacity:1.0;font-family:helvetica;font-size:10.0px;font-weight:normal;stroke:none;vertical-align:baseline;white-space:pre" x="-5.56" y="8.555">50</text></g></g><g class="toyplot-coordinates-Axis-coordinates" style="visibility:hidden" transform=""><line style="stroke:rgb(43.9%,50.2%,56.5%);stroke-opacity:1.0;stroke-width:1.0" x1="0" x2="0" y1="-3.0" y2="4.5" /><text style="alignment-baseline:alphabetic;fill:rgb(43.9%,50.2%,56.5%);fill-opacity:1.0;font-size:10px;font-weight:normal;stroke:none;text-anchor:middle" x="0" y="-6" /></g></g><g class="toyplot-coordinates-Axis" id="tce740a8f09224a15b3f28cced27f8cd4" transform="translate(50.0,550.0)rotate(-90.0)translate(0,-10.0)"><line style="" x1="0" x2="499.0437410673592" y1="0" y2="0" /><g><g transform="translate(0.0,-6)"><text style="fill:rgb(16.1%,15.3%,14.1%);fill-opacity:1.0;font-family:helvetica;font-size:10.0px;font-weight:normal;stroke:none;vertical-align:baseline;white-space:pre" x="-6.95" y="-4.440892098500626e-16">0.0</text></g><g transform="translate(250.0,-6)"><text style="fill:rgb(16.1%,15.3%,14.1%);fill-opacity:1.0;font-family:helvetica;font-size:10.0px;font-weight:normal;stroke:none;vertical-align:baseline;white-space:pre" x="-6.95" y="-4.440892098500626e-16">0.5</text></g><g transform="translate(500.0,-6)"><text style="fill:rgb(16.1%,15.3%,14.1%);fill-opacity:1.0;font-family:helvetica;font-size:10.0px;font-weight:normal;stroke:none;vertical-align:baseline;white-space:pre" x="-6.95" y="-4.440892098500626e-16">1.0</text></g></g><g class="toyplot-coordinates-Axis-coordinates" style="visibility:hidden" transform=""><line style="stroke:rgb(43.9%,50.2%,56.5%);stroke-opacity:1.0;stroke-width:1.0" x1="0" x2="0" y1="3.0" y2="-4.5" /><text style="alignment-baseline:hanging;fill:rgb(43.9%,50.2%,56.5%);fill-opacity:1.0;font-size:10px;font-weight:normal;stroke:none;text-anchor:middle" x="0" y="6" /></g></g></g></svg>