<svg class="toyplot-canvas-Canvas" height="600px" id="t7e5df20870294729985198f24401a035" preserveAspectRatio="xMidYMid meet" style="background-color:transparent;fill:rgb(16.1%,15.3%,14.1%);fill-opacity:1.0;font-family:Helvetica;font-size:12px;opacity:1.0;stroke:rgb(16.1%,15.3%,14.1%);stroke-opacity:1.0;stroke-width:1.0" viewBox="0 0 600 600" width="600px" xmlns="http://www.w3.org/2000/svg" xmlns:toyplot="http://www.sandia.gov/toyplot"><g class="toyplot-axes-Cartesian" id="tdbe3b314f92448438a156c8d8ae50ac9"><clipPath id="tb18c90c9cc014c608307394f2e7016c6"><rect height="520.0" width="520.0" x="40.0" y="40.0" /></clipPath><g clip-path="url(#tb18c90c9cc014c608307394f2e7016c6)"><rect height="520.0" style="pointer-events:all;visibility:hidden" width="520.0" x="40.0" y="40.0" /><g class="toyplot-mark-FillMagnitudes" id="t29581d3190294d7fa616ff6b90584c76" style="stroke:none"><polygon points="50.0,519.0074855416957 60.0,513.32305845789335 70.0,526.71980213850622 80.0,523.66370286404208 90.0,503.8630473273081 100.0,523.93770491176519 110.0,519.19925505080505 120.00000000000001,515.76212042642567 130.0,513.64708186048642 140.0,518.03712952358023 150.0,503.50765299274752 160.0,522.36729601790569 170.0,523.52825664353145 180.0,524.44641240956707 190.00000000000003,516.36257177931225 200.0,523.15333133285162 210.0,520.94793213099194 220.0,513.61738152777025 230.0,520.49883986295617 240.0,526.07823518372948 250.0,513.60546779810443 260.0,518.18115541678878 270.0,523.1024648407689 280.0,521.71484502978763 290.0,528.00088792749989 300.0,519.68729061384045 310.0,514.89316650605349 320.0,518.73294264248557 330.00000000000006,514.01482702560975 340.0,524.79244048970099 350.0,516.80417570631846 360.0,519.05131751414444 370.0,513.55730057650374 380.0,519.07875605921538 390.0,496.75556497210135 400.0,526.97953078113676 410.0,518.66185685717255 420.0,520.85212145272305 430.0,511.56073572805468 440.0,510.75930499633529 450.0,515.94178683799748 460.0,520.22852118846015 470.0,530.37951674591977 480.0,515.71166654276817 490.0,520.7128009542372 500.0,524.62331292682063 510.0,513.61322314816164 520.0,519.04457166783629 530.0,514.96281680682409 540.0,516.58508860220718 540.0,316.82982279558541 530.0,320.07436638635187 520.0,311.9108566643273 510.0,322.77355370367661 500.0,300.75337414635868 490.0,308.57439809152561 480.0,318.5766669144636 470.0,289.2409665081604 460.0,309.54295762307976 450.0,318.11642632400498 440.0,328.48139000732942 430.0,326.87852854389052 420.0,308.29575709455389 410.0,312.67628628565495 400.0,296.04093843772654 390.0,356.48887005579718 380.0,311.84248788156935 370.0,322.88539884699253 360.0,311.89736497171089 350.0,316.39164858736302 340.0,300.41511902059796 330.00000000000006,321.97034594878045 320.0,312.53411471502875 310.0,320.21366698789296 300.0,310.62541877231911 290.0,293.99822414500039 280.0,306.57030994042475 270.0,303.79507031846219 260.0,313.63768916642255 250.0,322.7890644037912 240.0,297.84352963254099 230.0,309.00232027408759 220.0,322.76523694445956 210.0,308.104135738016 200.0,303.69333733429659 190.00000000000003,317.27485644137528 180.0,301.10717518086574 170.0,302.94348671293699 160.0,305.26540796418857 150.0,342.9846940145049 140.0,313.92574095283953 130.0,322.7058362790271 120.00000000000001,318.47575914714861 110.0,311.60148989838973 100.0,302.12459017646984 90.0,342.27390534538392 80.0,302.6725942719159 70.0,296.56039572298761 60.0,323.35388308421335 50.0,311.98502891660848" style="fill:rgb(40%,76.1%,64.7%);fill-opacity:1.0;opacity:1.0;stroke:none" /><polygon points="50.0,311.98502891660848 60.0,323.35388308421335 70.0,296.56039572298761 80.0,302.6725942719159 90.0,342.27390534538392 100.0,302.12459017646984 110.0,311.60148989838973 120.00000000000001,318.47575914714861 130.0,322.7058362790271 140.0,313.92574095283953 150.0,342.9846940145049 160.0,305.26540796418857 170.0,302.94348671293699 180.0,301.10717518086574 190.00000000000003,317.27485644137528 200.0,303.69333733429659 210.0,308.104135738016 220.0,322.76523694445956 230.0,309.00232027408759 240.0,297.84352963254099 250.0,322.7890644037912 260.0,313.63768916642255 270.0,303.79507031846219 280.0,306.57030994042475 290.0,293.99822414500039 300.0,310.62541877231911 310.0,320.21366698789296 320.0,312.53411471502875 330.00000000000006,321.97034594878045 340.0,300.41511902059796 350.0,316.39164858736302 360.0,311.89736497171089 370.0,322.88539884699253 380.0,311.84248788156935 390.0,356.48887005579718 400.0,296.04093843772654 410.0,312.67628628565495 420.0,308.29575709455389 430.0,326.87852854389052 440.0,328.48139000732942 450.0,318.11642632400498 460.0,309.54295762307976 470.0,289.2409665081604 480.0,318.5766669144636 490.0,308.57439809152561 500.0,300.75337414635868 510.0,322.77355370367661 520.0,311.9108566643273 530.0,320.07436638635187 540.0,316.82982279558541 540.0,111.92303241705775 530.0,113.90738886492076 520.0,107.77731725432622 510.0,130.43837128776926 500.0,76.982560199144416 490.0,103.26907661840573 480.0,128.58747308485459 470.0,107.73136296221271 460.0,103.41356475826453 450.0,100.90305260937311 440.0,143.38969295503043 430.0,106.01801070865707 420.0,116.15420859889409 410.0,134.21259800999036 400.0,117.29013742084716 390.0,188.37337880108731 380.0,106.39047400877783 370.0,114.93723912008431 360.0,101.36554619548284 350.0,121.90644990669915 340.0,89.649012154149403 330.00000000000006,125.77569520319189 320.0,136.78616209747514 310.0,116.53801776077428 300.0,104.84982921167897 290.0,81.590213077450699 280.0,115.98851676183743 270.0,113.79605130281087 260.0,128.6138738809189 250.0,117.74281150141076 240.0,117.05883564434511 230.0,125.56906145160835 220.0,133.23285959649212 210.0,91.224968639206878 200.0,110.16924678453995 190.00000000000003,130.30674844639131 180.0,93.690989066378535 170.0,94.350617538421574 160.0,93.006710470126379 150.0,153.44496616323102 140.0,120.76142233645265 130.0,131.91484548767363 120.00000000000001,112.96032530666534 110.0,104.91820329266756 100.0,114.03778864305565 90.0,164.58154248012275 80.0,112.36966808199878 70.0,108.3223383288921 60.0,127.64217079283293 50.0,112.84805884952787" style="fill:rgb(98.8%,55.3%,38.4%);fill-opacity:1.0;opacity:1.0;stroke:none" /></g></g><g class="toyplot-axes-Axis" id="t1c20e54e5abc4571b5cb398045ca88c8" transform="translate(50.0,550.0) rotate(0.0) translate(0,10.0)"><line style="" x1="0" x2="490.0" y1="0" y2="0" /><g><text style="dominant-baseline:hanging;font-size:10px;font-weight:normal;stroke:none;text-anchor:middle" transform="translate(0.0,6)"><tspan style="dominant-baseline:inherit">0</tspan></text><text style="dominant-baseline:hanging;font-size:10px;font-weight:normal;stroke:none;text-anchor:middle" transform="translate(100.0,6)"><tspan style="dominant-baseline:inherit">10</tspan></text><text style="dominant-baseline:hanging;font-size:10px;font-weight:normal;stroke:none;text-anchor:middle" transform="translate(200.0,6)"><tspan style="dominant-baseline:inherit">20</tspan></text><text style="dominant-baseline:hanging;font-size:10px;font-weight:normal;stroke:none;text-anchor:middle" transform="translate(300.0,6)"><tspan style="dominant-baseline:inherit">30</tspan></text><text style="dominant-baseline:hanging;font-size:10px;font-weight:normal;stroke:none;text-anchor:middle" transform="translate(400.0,6)"><tspan style="dominant-baseline:inherit">40</tspan></text><text style="dominant-baseline:hanging;font-size:10px;font-weight:normal;stroke:none;text-anchor:middle" transform="translate(500.0,6)"><tspan style="dominant-baseline:inherit">50</tspan></text></g><g class="toyplot-axes-Axis-coordinates" style="visibility:hidden" transform=""><line x1="0" x2="0" y1="10" y2="-10" /><text style="alignment-baseline:hanging;font-weight:normal;stroke:none;text-anchor:middle" x="0" y="20" /></g></g><g class="toyplot-axes-Axis" id="t89263b0aacc748debd756d7bcceb5103" transform="translate(50.0,550.0) rotate(-90.0) translate(0,-10.0)"><line style="" x1="19.620483254080177" x2="473.0174398008556" y1="0" y2="0" /><g><text style="dominant-baseline:alphabetic;font-size:10px;font-weight:normal;stroke:none;text-anchor:middle" transform="translate(0.0,-6)"><tspan style="dominant-baseline:inherit">-0.5</tspan></text><text style="dominant-baseline:alphabetic;font-size:10px;font-weight:normal;stroke:none;text-anchor:middle" transform="translate(100.0,-6)"><tspan style="dominant-baseline:inherit">0.0</tspan></text><text style="dominant-baseline:alphabetic;font-size:10px;font-weight:normal;stroke:none;text-anchor:middle" transform="translate(200.0,-6)"><tspan style="dominant-baseline:inherit">0.5</tspan></text><text style="dominant-baseline:alphabetic;font-size:10px;font-weight:normal;stroke:none;text-anchor:middle" transform="translate(300.0,-6)"><tspan style="dominant-baseline:inherit">1.0</tspan></text><text style="dominant-baseline:alphabetic;font-size:10px;font-weight:normal;stroke:none;text-anchor:middle" transform="translate(400.0,-6)"><tspan style="dominant-baseline:inherit">1.5</tspan></text><text style="dominant-baseline:alphabetic;font-size:10px;font-weight:normal;stroke:none;text-anchor:middle" transform="translate(500.0,-6)"><tspan style="dominant-baseline:inherit">2.0</tspan></text></g><g class="toyplot-axes-Axis-coordinates" style="visibility:hidden" transform=""><line x1="0" x2="0" y1="-10" y2="10" /><text style="alignment-baseline:alphabetic;font-weight:normal;stroke:none;text-anchor:middle" x="0" y="-20" /></g></g></g></svg>