<svg class="toyplot-canvas-Canvas" height="600px" id="ta2004515c7de4b7784289c82e5edd57c" preserveAspectRatio="xMidYMid meet" style="background-color:transparent;border-color:#292724;border-style:none;border-width:1.0;fill:rgb(16.1%,15.3%,14.1%);fill-opacity:1.0;font-family:Helvetica;font-size:12px;opacity:1.0;stroke:rgb(16.1%,15.3%,14.1%);stroke-opacity:1.0;stroke-width:1.0" viewBox="0 0 600 600" width="600px" xmlns="http://www.w3.org/2000/svg" xmlns:toyplot="http://www.sandia.gov/toyplot" xmlns:xlink="http://www.w3.org/1999/xlink"><g class="toyplot-coordinates-Cartesian" id="t9b8f9f447ddd4504b36e07680a9e8e75"><clipPath id="t5c71b966711d459e99abcf5b61a32253"><rect height="520.0" width="520.0" x="40.0" y="40.0" /></clipPath><g clip-path="url(#t5c71b966711d459e99abcf5b61a32253)"><g class="toyplot-mark-Plot" id="t8a0a30cbb91b44a99a496dc1b9913f05" style="fill:none"><g class="toyplot-Series"><path d="M 50.0 300.0 L 60.0 249.33301586294976 L 70.0 200.7689627687694 L 80.0 156.32348969595523 L 90.0 117.84130413266243 L 100.0 86.91960757009538 L 110.0 64.84180372187832 L 120.00000000000001 52.52423090696902 L 130.0 50.47812946632042 L 140.0 58.78842275405922 L 150.0 77.1101923972491 L 160.0 104.68299411843402 L 170.0 140.36241994334947 L 180.0 182.66759680569973 L 190.00000000000003 229.84265012141077 L 200.0 279.92958128929666 L 210.0 330.8495343405447 L 220.0 380.4890787681547 L 230.0 426.7879273711286 L 240.0 467.82444838798307 L 250.0 501.8954227420841 L 260.0 527.5867360776957 L 270.0 543.8320715167614 L 280.0 549.9571670960224 L 290.0 545.7078009814077 L 300.0 531.2603429345507 L 310.0 507.21443409326065 L 320.0 474.56809889134985 L 330.00000000000006 434.6763220965391 L 340.0 389.1948102247345 L 350.0 340.0112715108126 L 360.0 289.16706665782914 L 370.0 238.77248224700517 L 380.0 190.91914338204515 L 390.0 147.59320087729196 L 400.0 110.59289615181996 L 410.0 81.45392529506663 L 420.0 61.38570006531203 L 430.0 51.221151305584094 L 440.0 51.382158184095815 L 450.0 61.86203811713494 L 460.0 82.22582412941982 L 470.0 111.62831814009061 L 480.0 148.84917087346145 L 490.0 192.34353240431562 L 500.0 240.30617108899227 L 510.0 290.74639962873437 L 520.0 341.57069846218906 L 530.0 390.66960720663724 L 540.0 436.0052777223425" style="stroke:rgb(40%,76.1%,64.7%);stroke-opacity:1.0;stroke-width:2.0" /></g></g></g><g class="toyplot-coordinates-Axis" id="t8ca8ff665622495cb4f3a0cd2e6212dd" transform="translate(50.0,550.0)translate(0,10.0)"><line style="" x1="0" x2="490.0" y1="0" y2="0" /><g class="toyplot-coordinates-Axis-coordinates" style="visibility:hidden" transform=""><line style="stroke:rgb(43.9%,50.2%,56.5%);stroke-opacity:1.0;stroke-width:1.0" x1="0" x2="0" y1="-3.0" y2="4.5" /><text style="alignment-baseline:alphabetic;fill:rgb(43.9%,50.2%,56.5%);fill-opacity:1.0;font-size:10px;font-weight:normal;stroke:none;text-anchor:middle" x="0" y="-6" /></g></g><g class="toyplot-coordinates-Axis" id="tbeec251da1774241a386683350cdba57" transform="translate(50.0,550.0)rotate(-90.0)translate(0,-10.0)"><line style="" x1="0.04283290397760764" x2="499.5218705336796" y1="0" y2="0" /><g><g transform="translate(0.0,-6)"><text style="fill:rgb(16.1%,15.3%,14.1%);fill-opacity:1.0;font-family:helvetica;font-size:10.0px;font-weight:normal;stroke:none;vertical-align:baseline;white-space:pre" x="-8.615" y="-4.440892098500626e-16">-1.0</text></g><g transform="translate(125.0,-6)"><text style="fill:rgb(16.1%,15.3%,14.1%);fill-opacity:1.0;font-family:helvetica;font-size:10.0px;font-weight:normal;stroke:none;vertical-align:baseline;white-space:pre" x="-8.615" y="-4.440892098500626e-16">-0.5</text></g><g transform="translate(250.0,-6)"><text style="fill:rgb(16.1%,15.3%,14.1%);fill-opacity:1.0;font-family:helvetica;font-size:10.0px;font-weight:normal;stroke:none;vertical-align:baseline;white-space:pre" x="-6.95" y="-4.440892098500626e-16">0.0</text></g><g transform="translate(375.0,-6)"><text style="fill:rgb(16.1%,15.3%,14.1%);fill-opacity:1.0;font-family:helvetica;font-size:10.0px;font-weight:normal;stroke:none;vertical-align:baseline;white-space:pre" x="-6.95" y="-4.440892098500626e-16">0.5</text></g><g transform="translate(500.0,-6)"><text style="fill:rgb(16.1%,15.3%,14.1%);fill-opacity:1.0;font-family:helvetica;font-size:10.0px;font-weight:normal;stroke:none;vertical-align:baseline;white-space:pre" x="-6.95" y="-4.440892098500626e-16">1.0</text></g></g><g class="toyplot-coordinates-Axis-coordinates" style="visibility:hidden" transform=""><line style="stroke:rgb(43.9%,50.2%,56.5%);stroke-opacity:1.0;stroke-width:1.0" x1="0" x2="0" y1="3.0" y2="-4.5" /><text style="alignment-baseline:hanging;fill:rgb(43.9%,50.2%,56.5%);fill-opacity:1.0;font-size:10px;font-weight:normal;stroke:none;text-anchor:middle" x="0" y="6" /></g></g></g></svg>