<svg class="toyplot-canvas-Canvas" height="600px" id="td18ff66bd56b4c15963b0fd90a74b611" preserveAspectRatio="xMidYMid meet" style="background-color:transparent;fill:rgb(16.1%,15.3%,14.1%);fill-opacity:1.0;font-family:Helvetica;font-size:12px;opacity:1.0;stroke:rgb(16.1%,15.3%,14.1%);stroke-opacity:1.0;stroke-width:1.0" viewBox="0 0 600 600" width="600px" xmlns="http://www.w3.org/2000/svg" xmlns:toyplot="http://www.sandia.gov/toyplot"><g class="toyplot-axes-Cartesian" id="t5604d6089fa24a6f975713d3e15d1771"><clipPath id="tb4e08b1fabda492fba4a931aa0834860"><rect height="520.0" width="520.0" x="40.0" y="40.0" /></clipPath><g clip-path="url(#tb4e08b1fabda492fba4a931aa0834860)"><rect height="520.0" style="pointer-events:all;visibility:hidden" width="520.0" x="40.0" y="40.0" /><g class="toyplot-mark-FillMagnitudes" id="tb3cf18e8276e4054b80570077b2735c3" style="stroke:none"><polygon points="50.0,526.83336147192585 60.0,515.39643414665306 70.0,533.66810397630809 80.0,529.70095566357838 90.0,489.48314177149342 100.0,528.9223633968785 110.0,531.36915553026449 120.00000000000001,524.95817944708335 130.0,513.19117732620794 140.0,521.87195020021522 150.0,495.50425463746723 160.0,539.79082720434417 170.0,539.68865462423707 180.0,540.56982117825635 190.00000000000003,515.60582955221878 200.0,530.64482066914945 210.0,539.9932093276193 220.0,512.43850097060215 230.0,520.56178755221868 240.0,528.43060928157524 250.0,521.08278451220338 260.0,517.56692122090169 270.0,528.59090188050914 280.0,526.59148312328432 290.0,549.3130217310802 300.0,531.67990116760495 310.0,522.47480056156769 320.0,513.31099671870641 330.00000000000006,516.82517144423423 340.0,543.02044981607855 350.0,520.54388669559796 360.0,533.2706354222189 370.0,522.6227499548736 380.0,530.47961983786229 390.0,472.22638035740869 400.0,528.80478981407964 410.0,514.70858970310462 420.0,526.01713002436816 430.0,526.48894372789096 440.0,505.16988779660738 450.0,531.79230873172673 460.0,532.78429962551149 470.0,536.04204443424885 480.0,516.2024967001953 490.0,533.13545616220108 500.0,550.0 510.0,513.99685435560536 520.0,529.68599926809281 530.0,523.98286209314745 540.0,525.99710466448926 540.0,302.87704176871472 530.0,306.29887193705764 520.0,298.32445126185092 510.0,300.83521940434906 500.0,299.94464041050571 490.0,296.18383639785105 480.0,296.0091849573833 470.0,266.69821373028157 460.0,297.45545357923606 450.0,310.82788658232033 440.0,301.57145101632705 430.0,320.2049916314694 420.0,288.59866101437791 410.0,284.62948127033241 400.0,270.85397664950796 390.0,315.55309484710142 380.0,299.00352330860051 370.0,309.64850602415265 360.0,301.88648275051571 350.0,296.68968452817711 340.0,292.39836044880019 330.00000000000006,302.31780152023168 320.0,282.99368683238043 310.0,305.02420169194858 300.0,298.16466538130391 290.0,287.93974153192943 280.0,286.28211251930054 270.0,283.63175418677457 260.0,289.09859589083408 250.0,307.94713697387823 240.0,273.49994874580881 230.0,284.32713029623244 220.0,299.26293169952612 210.0,302.25368818703612 200.0,285.51522437872359 190.00000000000003,293.23139857737317 180.0,291.10723776980325 170.0,293.30272060630818 160.0,297.29515770730046 150.0,316.20538830313103 140.0,293.88624142928882 130.0,299.91608517031216 120.00000000000001,304.59580171770705 110.0,299.48927876811877 100.0,281.16440862657635 90.0,308.99338408378412 80.0,282.86115472328413 70.0,276.58761586943467 60.0,303.20711244603433 50.0,295.59608541561687" style="fill:rgb(40%,76.1%,64.7%);fill-opacity:1.0;opacity:1.0;stroke:none" /><polygon points="50.0,295.59608541561687 60.0,303.20711244603433 70.0,276.58761586943467 80.0,282.86115472328413 90.0,308.99338408378412 100.0,281.16440862657635 110.0,299.48927876811877 120.00000000000001,304.59580171770705 130.0,299.91608517031216 140.0,293.88624142928882 150.0,316.20538830313103 160.0,297.29515770730046 170.0,293.30272060630818 180.0,291.10723776980325 190.00000000000003,293.23139857737317 200.0,285.51522437872359 210.0,302.25368818703612 220.0,299.26293169952612 230.0,284.32713029623244 240.0,273.49994874580881 250.0,307.94713697387823 260.0,289.09859589083408 270.0,283.63175418677457 280.0,286.28211251930054 290.0,287.93974153192943 300.0,298.16466538130391 310.0,305.02420169194858 320.0,282.99368683238043 330.00000000000006,302.31780152023168 340.0,292.39836044880019 350.0,296.68968452817711 360.0,301.88648275051571 370.0,309.64850602415265 380.0,299.00352330860051 390.0,315.55309484710142 400.0,270.85397664950796 410.0,284.62948127033241 420.0,288.59866101437791 430.0,320.2049916314694 440.0,301.57145101632705 450.0,310.82788658232033 460.0,297.45545357923606 470.0,266.69821373028157 480.0,296.0091849573833 490.0,296.18383639785105 500.0,299.94464041050571 510.0,300.83521940434906 520.0,298.32445126185092 530.0,306.29887193705764 540.0,302.87704176871472 540.0,74.002895335510757 530.0,76.017137906852568 520.0,70.314000731907257 510.0,86.00314564439455 500.0,50.0 490.0,66.864543837798834 480.0,83.797503299804688 470.0,63.957955565751135 460.0,67.215700374488492 450.0,68.207691268273209 440.0,94.830112203392616 430.0,73.511056272109087 420.0,73.982869975631871 410.0,85.291410296895421 400.0,71.195210185920416 390.0,127.77361964259127 380.0,69.520380162137698 370.0,77.37725004512636 360.0,66.72936457778107 350.0,79.456113304402066 340.0,56.979550183921383 330.00000000000006,83.1748285557657 320.0,86.689003281293594 310.0,77.525199438432281 300.0,68.320098832395047 290.0,50.686978268919724 280.0,73.408516876715794 270.0,71.409098119490764 260.0,82.433078779098281 250.0,78.917215487796582 240.0,71.569390718424728 230.0,79.438212447781439 220.0,87.561499029397936 210.0,60.006790672380696 200.0,69.355179330850689 190.00000000000003,84.394170447781207 180.0,59.430178821743631 170.0,60.311345375763054 160.0,60.209172795655753 150.0,104.49574536253272 140.0,78.12804979978462 130.0,86.80882267379215 120.00000000000001,75.041820552916647 110.0,68.630844469735507 100.0,71.077636603121391 90.0,110.51685822850655 80.0,70.299044336421545 70.0,66.33189602369184 60.0,84.603565853347007 50.0,73.166638528074159" style="fill:rgb(98.8%,55.3%,38.4%);fill-opacity:1.0;opacity:1.0;stroke:none" /></g></g><g class="toyplot-axes-Axis" id="tc443d32fc25e42979ecc83278b12822d" transform="translate(50.0,550.0) rotate(0.0) translate(0,10.0)"><line style="" x1="0" x2="490.0" y1="0" y2="0" /><g><text style="dominant-baseline:hanging;font-size:10px;font-weight:normal;stroke:none;text-anchor:middle" transform="translate(0.0,6)"><tspan style="dominant-baseline:inherit">0</tspan></text><text style="dominant-baseline:hanging;font-size:10px;font-weight:normal;stroke:none;text-anchor:middle" transform="translate(100.0,6)"><tspan style="dominant-baseline:inherit">10</tspan></text><text style="dominant-baseline:hanging;font-size:10px;font-weight:normal;stroke:none;text-anchor:middle" transform="translate(200.0,6)"><tspan style="dominant-baseline:inherit">20</tspan></text><text style="dominant-baseline:hanging;font-size:10px;font-weight:normal;stroke:none;text-anchor:middle" transform="translate(300.0,6)"><tspan style="dominant-baseline:inherit">30</tspan></text><text style="dominant-baseline:hanging;font-size:10px;font-weight:normal;stroke:none;text-anchor:middle" transform="translate(400.0,6)"><tspan style="dominant-baseline:inherit">40</tspan></text><text style="dominant-baseline:hanging;font-size:10px;font-weight:normal;stroke:none;text-anchor:middle" transform="translate(500.0,6)"><tspan style="dominant-baseline:inherit">50</tspan></text></g><g class="toyplot-axes-Axis-coordinates" style="visibility:hidden" transform=""><line x1="0" x2="0" y1="-10" y2="10" /><text style="alignment-baseline:alphabetic;font-weight:normal;stroke:none;text-anchor:middle" x="0" y="-20" /></g></g><g class="toyplot-axes-Axis" id="t1d7715bf8a334987868da9dcdb1cc324" transform="translate(50.0,550.0) rotate(-90.0) translate(0,-10.0)"><line style="" x1="0" x2="500.0" y1="0" y2="0" /><g><text style="dominant-baseline:alphabetic;font-size:10px;font-weight:normal;stroke:none;text-anchor:middle" transform="translate(26.606577058377592,-6)"><tspan style="dominant-baseline:inherit">-1</tspan></text><text style="dominant-baseline:alphabetic;font-size:10px;font-weight:normal;stroke:none;text-anchor:middle" transform="translate(250.0,-6)"><tspan style="dominant-baseline:inherit">0</tspan></text><text style="dominant-baseline:alphabetic;font-size:10px;font-weight:normal;stroke:none;text-anchor:middle" transform="translate(473.3934229416224,-6)"><tspan style="dominant-baseline:inherit">1</tspan></text></g><g class="toyplot-axes-Axis-coordinates" style="visibility:hidden" transform=""><line x1="0" x2="0" y1="10" y2="-10" /><text style="alignment-baseline:hanging;font-weight:normal;stroke:none;text-anchor:middle" x="0" y="20" /></g></g></g></svg>