<svg class="toyplot-canvas-Canvas" height="600px" id="t943f7ae3b33442418a7a07b9158bbcef" preserveAspectRatio="xMidYMid meet" style="background-color:transparent;border-color:#292724;border-style:none;border-width:1.0;fill:rgb(16.1%,15.3%,14.1%);fill-opacity:1.0;font-family:Helvetica;font-size:12px;opacity:1.0;stroke:rgb(16.1%,15.3%,14.1%);stroke-opacity:1.0;stroke-width:1.0" viewBox="0 0 600 600" width="600px" xmlns="http://www.w3.org/2000/svg" xmlns:toyplot="http://www.sandia.gov/toyplot" xmlns:xlink="http://www.w3.org/1999/xlink"><g class="toyplot-coordinates-Cartesian" id="td62708df2ac341b3b11f9547d866a7f1"><clipPath id="t53c789706c054da1a0af0557c6c99629"><rect height="520.0" width="520.0" x="40.0" y="40.0" /></clipPath><g clip-path="url(#t53c789706c054da1a0af0557c6c99629)"><g class="toyplot-mark-FillBoundaries" id="t9990857165164a75a578ba45596ca36c" style="stroke:none"><polygon points="70.13614020549495,550.0 159.9521452528832,539.7959183673469 144.11328238059392,529.5918367346939 185.0856433120466,519.3877551020408 154.98681140075556,509.18367346938777 186.84024937409885,498.97959183673464 131.5158340773183,488.77551020408157 129.80651831836883,478.5714285714286 141.3111422057832,468.36734693877554 156.839130734494,458.16326530612247 135.65269868326467,447.9591836734694 157.13276245395485,437.7551020408163 168.0859191127906,427.55102040816325 170.66536229567268,417.34693877551024 173.07416963237137,407.14285714285717 155.47768234476573,396.93877551020415 50.0,386.734693877551 148.13929738518118,376.53061224489795 177.74040991528875,366.3265306122449 133.20371683401623,356.12244897959187 88.29476695373609,345.9183673469388 166.40841463742123,335.7142857142857 162.90545987468664,325.5102040816327 150.1253192766993,315.30612244897964 109.4047338019544,305.10204081632656 121.39080143355974,294.89795918367344 131.41069051092376,284.6938775510204 159.64428961447618,274.4897959183674 157.1806554914707,264.2857142857143 158.00482931168665,254.08163265306123 155.3341803193453,243.87755102040822 91.07360908281335,233.67346938775515 155.9874284543465,223.46938775510208 133.64196053569904,213.26530612244898 132.3222067074797,203.0612244897959 158.66849267906088,192.8571428571429 179.03859758238693,182.65306122448985 109.42892341586082,172.44897959183677 131.12354532502292,162.2448979591837 78.3012946736964,152.04081632653066 106.79775376026838,141.8367346938776 145.1451563948382,131.63265306122452 164.67089589268772,121.42857142857144 143.85669210404737,111.22448979591839 104.84854366172775,101.02040816326536 96.32319723265363,90.81632653061229 142.34234958897898,80.61224489795921 176.26011449122484,70.40816326530614 164.2720433107115,60.20408163265307 126.1104474941584,50.0 296.1441918086926,50.0 294.60032741274097,60.20408163265307 298.4848035041413,70.40816326530614 293.3159621143117,80.61224489795921 303.7939138692991,90.81632653061229 300.0724041804815,101.02040816326536 295.31298385448656,111.22448979591839 309.27190970047764,121.42857142857144 299.61153055240595,131.63265306122452 295.5319820097904,141.8367346938776 290.5999791106596,152.04081632653066 291.3626752113034,162.2448979591837 300.2049910613302,172.44897959183677 298.1205860088555,182.65306122448985 306.0362513522884,192.8571428571429 277.27306576907006,203.0612244897959 298.5173357005942,213.26530612244898 293.26274238407996,223.46938775510208 298.4912233112079,233.67346938775515 296.3526900274325,243.87755102040822 303.9548671839335,254.08163265306123 293.6981557328117,264.2857142857143 298.1882360865524,274.4897959183674 294.53404343996095,284.6938775510204 299.0964586535208,294.89795918367344 307.00824441677247,305.10204081632656 301.02601761062266,315.30612244897964 302.3465711870257,325.5102040816327 297.66311775908184,335.7142857142857 293.3085815946813,345.9183673469388 305.17851703981063,356.12244897959187 299.86878422488115,366.3265306122449 293.3199195117346,376.53061224489795 300.29617103212934,386.734693877551 302.3949792073692,396.93877551020415 295.9324296358277,407.14285714285717 303.6255632815675,417.34693877551024 302.751783683627,427.55102040816325 301.6469344345023,437.7551020408163 283.6988128745016,447.9591836734694 297.5260529039494,458.16326530612247 293.34818437238187,468.36734693877554 295.3609992085338,478.5714285714286 298.63201075282217,488.77551020408157 303.1414425589825,498.97959183673464 284.0370303428767,509.18367346938777 302.88068353752794,519.3877551020408 305.7890758758316,529.5918367346939 293.0398216207504,539.7959183673469 298.44950981914036,550.0" style="fill:rgb(40%,76.1%,64.7%);fill-opacity:1.0;opacity:1.0;stroke:none" /><polygon points="298.44950981914036,550.0 293.0398216207504,539.7959183673469 305.7890758758316,529.5918367346939 302.88068353752794,519.3877551020408 284.0370303428767,509.18367346938777 303.1414425589825,498.97959183673464 298.63201075282217,488.77551020408157 295.3609992085338,478.5714285714286 293.34818437238187,468.36734693877554 297.5260529039494,458.16326530612247 283.6988128745016,447.9591836734694 301.6469344345023,437.7551020408163 302.751783683627,427.55102040816325 303.6255632815675,417.34693877551024 295.9324296358277,407.14285714285717 302.3949792073692,396.93877551020415 300.29617103212934,386.734693877551 293.3199195117346,376.53061224489795 299.86878422488115,366.3265306122449 305.17851703981063,356.12244897959187 293.3085815946813,345.9183673469388 297.66311775908184,335.7142857142857 302.3465711870257,325.5102040816327 301.02601761062266,315.30612244897964 307.00824441677247,305.10204081632656 299.0964586535208,294.89795918367344 294.53404343996095,284.6938775510204 298.1882360865524,274.4897959183674 293.6981557328117,264.2857142857143 303.9548671839335,254.08163265306123 296.3526900274325,243.87755102040822 298.4912233112079,233.67346938775515 293.26274238407996,223.46938775510208 298.5173357005942,213.26530612244898 277.27306576907006,203.0612244897959 306.0362513522884,192.8571428571429 298.1205860088555,182.65306122448985 300.2049910613302,172.44897959183677 291.3626752113034,162.2448979591837 290.5999791106596,152.04081632653066 295.5319820097904,141.8367346938776 299.61153055240595,131.63265306122452 309.27190970047764,121.42857142857144 295.31298385448656,111.22448979591839 300.0724041804815,101.02040816326536 303.7939138692991,90.81632653061229 293.3159621143117,80.61224489795921 298.4848035041413,70.40816326530614 294.60032741274097,60.20408163265307 296.1441918086926,50.0 430.325136931428,50.0 480.4738299973569,60.20408163265307 486.6282257357701,70.40816326530614 448.7037204593189,80.61224489795921 439.02242653327795,90.81632653061229 477.14351659288843,101.02040816326536 431.5836916680393,111.22448979591839 431.51016422831185,121.42857142857144 430.40834011667454,131.63265306122452 459.9255694120984,141.8367346938776 408.1217855084419,152.04081632653066 421.9680659977944,162.2448979591837 446.6048266146592,172.44897959183677 423.39253741437574,182.65306122448985 439.6897687092289,192.8571428571429 385.50234515705625,203.0612244897959 437.8057552792491,213.26530612244898 468.43597789391066,223.46938775510208 446.6603406331526,233.67346938775515 424.56670127683265,243.87755102040822 466.2439215642512,254.08163265306123 445.7774623365576,264.2857142857143 413.3588672939039,274.4897959183674 458.89316196083047,284.6938775510204 440.3198146069168,294.89795918367344 430.5246656458645,305.10204081632656 476.00354248049723,315.30612244897964 500.54931984741626,325.5102040816327 461.4262386855337,335.7142857142857 428.20676880866057,345.9183673469388 451.92861438820165,356.12244897959187 458.05515961648024,366.3265306122449 435.0473267393123,376.53061224489795 431.5982755816526,386.734693877551 455.5447038694552,396.93877551020415 433.96266292687477,407.14285714285717 494.5263214040714,417.34693877551024 459.7755228301666,427.55102040816325 468.17951006676486,437.7551020408163 413.0556177184399,447.9591836734694 436.02280159320156,458.16326530612247 463.9008495946259,468.36734693877554 464.476699767713,478.5714285714286 413.6456328420498,488.77551020408157 429.7140545141766,498.97959183673464 427.88101731527286,509.18367346938777 463.57528557044907,519.3877551020408 471.57265227704033,529.5918367346939 446.3169371141028,539.7959183673469 447.9152248541628,550.0" style="fill:rgb(98.8%,55.3%,38.4%);fill-opacity:1.0;opacity:1.0;stroke:none" /></g></g><g class="toyplot-coordinates-Axis" id="t5421e00194b24233a1d4fba00b937b2b" transform="translate(50.0,550.0)translate(0,10.0)"><line style="" x1="0" x2="450.54931984741626" y1="0" y2="0" /><g><g transform="translate(24.165925726734965,6)"><text style="fill:rgb(16.1%,15.3%,14.1%);fill-opacity:1.0;font-family:helvetica;font-size:10.0px;font-weight:normal;stroke:none;vertical-align:baseline;white-space:pre" x="-4.445" y="8.555">-2</text></g><g transform="translate(182.77728381782333,6)"><text style="fill:rgb(16.1%,15.3%,14.1%);fill-opacity:1.0;font-family:helvetica;font-size:10.0px;font-weight:normal;stroke:none;vertical-align:baseline;white-space:pre" x="-2.78" y="8.555">0</text></g><g transform="translate(341.38864190891167,6)"><text style="fill:rgb(16.1%,15.3%,14.1%);fill-opacity:1.0;font-family:helvetica;font-size:10.0px;font-weight:normal;stroke:none;vertical-align:baseline;white-space:pre" x="-2.78" y="8.555">2</text></g><g transform="translate(500.0,6)"><text style="fill:rgb(16.1%,15.3%,14.1%);fill-opacity:1.0;font-family:helvetica;font-size:10.0px;font-weight:normal;stroke:none;vertical-align:baseline;white-space:pre" x="-2.78" y="8.555">5</text></g></g><g class="toyplot-coordinates-Axis-coordinates" style="visibility:hidden" transform=""><line style="stroke:rgb(43.9%,50.2%,56.5%);stroke-opacity:1.0;stroke-width:1.0" x1="0" x2="0" y1="-3.0" y2="4.5" /><text style="alignment-baseline:alphabetic;fill:rgb(43.9%,50.2%,56.5%);fill-opacity:1.0;font-size:10px;font-weight:normal;stroke:none;text-anchor:middle" x="0" y="-6" /></g></g><g class="toyplot-coordinates-Axis" id="tdfb7efd4914547f18068e10335042c46" transform="translate(50.0,550.0)rotate(-90.0)translate(0,-10.0)"><line style="" x1="0" x2="500.0" y1="0" y2="0" /><g><g transform="translate(0.0,-6)"><text style="fill:rgb(16.1%,15.3%,14.1%);fill-opacity:1.0;font-family:helvetica;font-size:10.0px;font-weight:normal;stroke:none;vertical-align:baseline;white-space:pre" x="-6.95" y="-4.440892098500626e-16">0.0</text></g><g transform="translate(250.0,-6)"><text style="fill:rgb(16.1%,15.3%,14.1%);fill-opacity:1.0;font-family:helvetica;font-size:10.0px;font-weight:normal;stroke:none;vertical-align:baseline;white-space:pre" x="-6.95" y="-4.440892098500626e-16">0.5</text></g><g transform="translate(500.0,-6)"><text style="fill:rgb(16.1%,15.3%,14.1%);fill-opacity:1.0;font-family:helvetica;font-size:10.0px;font-weight:normal;stroke:none;vertical-align:baseline;white-space:pre" x="-6.95" y="-4.440892098500626e-16">1.0</text></g></g><g class="toyplot-coordinates-Axis-coordinates" style="visibility:hidden" transform=""><line style="stroke:rgb(43.9%,50.2%,56.5%);stroke-opacity:1.0;stroke-width:1.0" x1="0" x2="0" y1="3.0" y2="-4.5" /><text style="alignment-baseline:hanging;fill:rgb(43.9%,50.2%,56.5%);fill-opacity:1.0;font-size:10px;font-weight:normal;stroke:none;text-anchor:middle" x="0" y="6" /></g></g></g></svg>