<svg class="toyplot-canvas-Canvas" height="600px" id="t09cca9c5371b4077aa0cb72d33912249" preserveAspectRatio="xMidYMid meet" style="background-color:transparent;fill:rgb(16.1%,15.3%,14.1%);fill-opacity:1.0;font-family:Helvetica;font-size:12px;opacity:1.0;stroke:rgb(16.1%,15.3%,14.1%);stroke-opacity:1.0;stroke-width:1.0" viewBox="0 0 600 600" width="600px" xmlns="http://www.w3.org/2000/svg" xmlns:toyplot="http://www.sandia.gov/toyplot"><g class="toyplot-axes-Cartesian" id="tff65e994cabe46d5ab72eb9fd4b0f20e"><clipPath id="tc9eccb3de1c2483a968cf401a70e0bfb"><rect height="520.0" width="520.0" x="40.0" y="40.0" /></clipPath><g clip-path="url(#tc9eccb3de1c2483a968cf401a70e0bfb)"><rect height="520.0" style="pointer-events:all;visibility:hidden" width="520.0" x="40.0" y="40.0" /><g class="toyplot-mark-Plot" id="td837de32cba94142af7482b326468307" style="fill:none"><g class="toyplot-Series"><path d="M 50.0 300.0 L 60.0 249.33301586294976 L 70.0 200.7689627687694 L 80.0 156.32348969595523 L 90.0 117.84130413266243 L 100.0 86.91960757009538 L 110.0 64.841803721878321 L 120.00000000000001 52.524230906969017 L 130.0 50.478129466320418 L 140.0 58.788422754059219 L 150.0 77.110192397249094 L 160.0 104.68299411843402 L 170.0 140.36241994334947 L 180.0 182.66759680569973 L 190.00000000000003 229.84265012141077 L 200.0 279.92958128929666 L 210.0 330.84953434054472 L 220.0 380.48907876815468 L 230.0 426.7879273711286 L 240.0 467.82444838798307 L 250.0 501.89542274208412 L 260.0 527.58673607769572 L 270.0 543.8320715167614 L 280.0 549.95716709602243 L 290.0 545.70780098140767 L 300.0 531.26034293455075 L 310.0 507.21443409326065 L 320.0 474.56809889134985 L 330.00000000000006 434.67632209653908 L 340.0 389.19481022473451 L 350.0 340.01127151081261 L 360.0 289.16706665782914 L 370.0 238.77248224700517 L 380.0 190.91914338204515 L 390.0 147.59320087729196 L 400.0 110.59289615181996 L 410.0 81.453925295066625 L 420.0 61.385700065312029 L 430.0 51.221151305584094 L 440.0 51.382158184095815 L 450.0 61.862038117134936 L 460.0 82.22582412941982 L 470.0 111.62831814009061 L 480.0 148.84917087346145 L 490.0 192.34353240431562 L 500.0 240.30617108899227 L 510.0 290.74639962873437 L 520.0 341.57069846218906 L 530.0 390.66960720663724 L 540.0 436.0052777223425" style="stroke:rgb(40%,76.1%,64.7%);stroke-opacity:1.0;stroke-width:2.0" /></g></g></g><g class="toyplot-axes-Axis" id="te9e041bf3c5a47439e92e0eba0bf3c95" transform="translate(50.0,550.0) rotate(0.0) translate(0,10.0)"><line style="" x1="0" x2="490.0" y1="0" y2="0" /><g><line style="stroke:rgb(100%,0%,0%);stroke-opacity:1.0" x1="0.0" x2="0.0" y1="0" y2="-5" /><line style="stroke:rgb(100%,0%,0%);stroke-opacity:1.0" x1="100.0" x2="100.0" y1="0" y2="-5" /><line style="stroke:rgb(100%,0%,0%);stroke-opacity:1.0" x1="200.0" x2="200.0" y1="0" y2="-5" /><line style="stroke:rgb(100%,0%,0%);stroke-opacity:1.0" x1="300.0" x2="300.0" y1="0" y2="-5" /><line style="stroke:rgb(100%,0%,0%);stroke-opacity:1.0" x1="400.0" x2="400.0" y1="0" y2="-5" /><line style="stroke:rgb(100%,0%,0%);stroke-opacity:1.0" x1="500.0" x2="500.0" y1="0" y2="-5" /></g><g><text style="dominant-baseline:hanging;font-size:10px;font-weight:normal;stroke:none;text-anchor:middle" transform="translate(0.0,6)"><tspan style="dominant-baseline:inherit">0</tspan></text><text style="dominant-baseline:hanging;font-size:10px;font-weight:normal;stroke:none;text-anchor:middle" transform="translate(100.0,6)"><tspan style="dominant-baseline:inherit">10</tspan></text><text style="dominant-baseline:hanging;font-size:10px;font-weight:normal;stroke:none;text-anchor:middle" transform="translate(200.0,6)"><tspan style="dominant-baseline:inherit">20</tspan></text><text style="dominant-baseline:hanging;font-size:10px;font-weight:normal;stroke:none;text-anchor:middle" transform="translate(300.0,6)"><tspan style="dominant-baseline:inherit">30</tspan></text><text style="dominant-baseline:hanging;font-size:10px;font-weight:normal;stroke:none;text-anchor:middle" transform="translate(400.0,6)"><tspan style="dominant-baseline:inherit">40</tspan></text><text style="dominant-baseline:hanging;font-size:10px;font-weight:normal;stroke:none;text-anchor:middle" transform="translate(500.0,6)"><tspan style="dominant-baseline:inherit">50</tspan></text></g><g class="toyplot-axes-Axis-coordinates" style="visibility:hidden" transform=""><line x1="0" x2="0" y1="10" y2="-10" /><text style="alignment-baseline:hanging;font-weight:normal;stroke:none;text-anchor:middle" x="0" y="20" /></g></g><g class="toyplot-axes-Axis" id="t74bb78be2242430fa605ff68747546f1" transform="translate(50.0,550.0) rotate(-90.0) translate(0,-10.0)"><line style="" x1="0.04283290397760764" x2="499.5218705336796" y1="0" y2="0" /><g><text style="dominant-baseline:alphabetic;font-size:10px;font-weight:normal;stroke:none;text-anchor:middle" transform="translate(0.0,-6)"><tspan style="dominant-baseline:inherit">-1.0</tspan></text><text style="dominant-baseline:alphabetic;font-size:10px;font-weight:normal;stroke:none;text-anchor:middle" transform="translate(125.0,-6)"><tspan style="dominant-baseline:inherit">-0.5</tspan></text><text style="dominant-baseline:alphabetic;font-size:10px;font-weight:normal;stroke:none;text-anchor:middle" transform="translate(250.0,-6)"><tspan style="dominant-baseline:inherit">0.0</tspan></text><text style="dominant-baseline:alphabetic;font-size:10px;font-weight:normal;stroke:none;text-anchor:middle" transform="translate(375.0,-6)"><tspan style="dominant-baseline:inherit">0.5</tspan></text><text style="dominant-baseline:alphabetic;font-size:10px;font-weight:normal;stroke:none;text-anchor:middle" transform="translate(500.0,-6)"><tspan style="dominant-baseline:inherit">1.0</tspan></text></g><g class="toyplot-axes-Axis-coordinates" style="visibility:hidden" transform=""><line x1="0" x2="0" y1="-10" y2="10" /><text style="alignment-baseline:alphabetic;font-weight:normal;stroke:none;text-anchor:middle" x="0" y="-20" /></g></g></g></svg>