<svg class="toyplot-canvas-Canvas" height="600px" id="t505c1b976e1847a98d649b1df4f5c2c2" preserveAspectRatio="xMidYMid meet" style="background-color:transparent;border-color:#292724;border-style:none;border-width:1.0;fill:rgb(16.1%,15.3%,14.1%);fill-opacity:1.0;font-family:Helvetica;font-size:12px;opacity:1.0;stroke:rgb(16.1%,15.3%,14.1%);stroke-opacity:1.0;stroke-width:1.0" viewBox="0 0 600 600" width="600px" xmlns="http://www.w3.org/2000/svg" xmlns:toyplot="http://www.sandia.gov/toyplot" xmlns:xlink="http://www.w3.org/1999/xlink"><g class="toyplot-coordinates-Cartesian" id="te35a04ced27741399c0feb0cc7d744da"><clipPath id="t0f35e9b4086d484a8b2749bf57e67428"><rect height="520.0" width="520.0" x="40.0" y="40.0" /></clipPath><g clip-path="url(#t0f35e9b4086d484a8b2749bf57e67428)"><g class="toyplot-mark-Plot" id="t483e9a662e4147c2b8e9a694b5a9262a" style="fill:none"><g class="toyplot-Series"><path d="M 50.0 300.0 L 150.0 249.33301586294976 L 210.20599913279625 200.7689627687694 L 245.42425094393246 156.32348969595523 L 270.4119982655925 117.84130413266243 L 289.79400086720375 86.91960757009538 L 305.6302500767287 64.84180372187832 L 319.0196080028513 52.52423090696902 L 330.6179973983887 50.47812946632042 L 340.8485018878649 58.78842275405922 L 350.0 77.1101923972491 L 358.278537031645 104.68299411843402 L 365.83624920952496 140.36241994334947 L 372.78867046136736 182.66759680569973 L 379.2256071356476 229.84265012141077 L 385.21825181113627 279.92958128929666 L 390.82399653118495 330.8495343405447 L 396.0897842756548 380.4890787681547 L 401.0545010206612 426.7879273711286 L 405.75072019056574 467.82444838798307 L 410.20599913279625 501.8954227420841 L 414.44385894678385 527.5867360776957 L 418.48453616444124 543.8320715167614 L 422.34556720351856 549.9571670960224 L 426.0422483423212 545.7078009814077 L 429.58800173440756 531.2603429345507 L 432.99466959416355 507.21443409326065 L 436.27275283179745 474.56809889134985 L 439.43160626844383 434.6763220965391 L 442.47959957979117 389.1948102247345 L 445.42425094393246 340.0112715108126 L 448.27233876685455 289.16706665782914 L 451.0299956639812 238.77248224700517 L 453.7027879755775 190.91914338204515 L 456.29578340845103 147.59320087729196 L 458.81360887005513 110.59289615181996 L 461.2605001534575 81.45392529506663 L 463.640344813399 61.38570006531203 L 465.95671932336205 51.221151305584094 L 468.2129214052998 51.382158184095815 L 470.41199826559244 61.86203811713494 L 472.5567713439471 82.22582412941982 L 474.6498580795801 111.62831814009061 L 476.69369111591726 148.84917087346145 L 478.6905352972375 192.34353240431562 L 480.64250275506873 240.30617108899227 L 482.5515663363148 290.74639962873437 L 484.41957158714354 341.57069846218906 L 486.2482474751174 390.66960720663724 L 488.03921600570277 436.0052777223425" style="stroke:rgb(40%,76.1%,64.7%);stroke-opacity:1.0;stroke-width:2.0" /></g></g></g><g class="toyplot-coordinates-Axis" id="tafcb35b30bd343cdb94279ed8c747e9a" transform="translate(50.0,550.0)translate(0,10.0)"><line style="" x1="0" x2="438.03921600570277" y1="0" y2="0" /><g><g transform="translate(0.0,6)"><text style="fill:rgb(16.1%,15.3%,14.1%);fill-opacity:1.0;font-family:helvetica;font-size:10.0px;font-weight:normal;stroke:none;vertical-align:baseline;white-space:pre" x="-2.78" y="8.555">0</text></g><g transform="translate(100.0,6)"><text style="fill:rgb(16.1%,15.3%,14.1%);fill-opacity:1.0;font-family:helvetica;font-size:10.0px;font-weight:normal;stroke:none;vertical-align:baseline;white-space:pre" x="-8.479" y="8.555">10</text><text style="fill:rgb(16.1%,15.3%,14.1%);fill-opacity:1.0;font-family:helvetica;font-size:7.0px;font-weight:normal;stroke:none;vertical-align:baseline;white-space:pre" x="2.641" y="6.455"> 0</text></g><g transform="translate(300.0,6)"><text style="fill:rgb(16.1%,15.3%,14.1%);fill-opacity:1.0;font-family:helvetica;font-size:10.0px;font-weight:normal;stroke:none;vertical-align:baseline;white-space:pre" x="-8.479" y="8.555">10</text><text style="fill:rgb(16.1%,15.3%,14.1%);fill-opacity:1.0;font-family:helvetica;font-size:7.0px;font-weight:normal;stroke:none;vertical-align:baseline;white-space:pre" x="2.641" y="6.455"> 1</text></g><g transform="translate(500.0,6)"><text style="fill:rgb(16.1%,15.3%,14.1%);fill-opacity:1.0;font-family:helvetica;font-size:10.0px;font-weight:normal;stroke:none;vertical-align:baseline;white-space:pre" x="-8.479" y="8.555">10</text><text style="fill:rgb(16.1%,15.3%,14.1%);fill-opacity:1.0;font-family:helvetica;font-size:7.0px;font-weight:normal;stroke:none;vertical-align:baseline;white-space:pre" x="2.641" y="6.455"> 2</text></g></g><g class="toyplot-coordinates-Axis-coordinates" style="visibility:hidden" transform=""><line style="stroke:rgb(43.9%,50.2%,56.5%);stroke-opacity:1.0;stroke-width:1.0" x1="0" x2="0" y1="-3.0" y2="4.5" /><text style="alignment-baseline:alphabetic;fill:rgb(43.9%,50.2%,56.5%);fill-opacity:1.0;font-size:10px;font-weight:normal;stroke:none;text-anchor:middle" x="0" y="-6" /></g></g><g class="toyplot-coordinates-Axis" id="t3b1807b90db7485782e781028f95ec15" transform="translate(50.0,550.0)rotate(-90.0)translate(0,-10.0)"><line style="" x1="0.04283290397760764" x2="499.5218705336796" y1="0" y2="0" /><g><g transform="translate(0.0,-6)"><text style="fill:rgb(16.1%,15.3%,14.1%);fill-opacity:1.0;font-family:helvetica;font-size:10.0px;font-weight:normal;stroke:none;vertical-align:baseline;white-space:pre" x="-8.615" y="-4.440892098500626e-16">-1.0</text></g><g transform="translate(125.0,-6)"><text style="fill:rgb(16.1%,15.3%,14.1%);fill-opacity:1.0;font-family:helvetica;font-size:10.0px;font-weight:normal;stroke:none;vertical-align:baseline;white-space:pre" x="-8.615" y="-4.440892098500626e-16">-0.5</text></g><g transform="translate(250.0,-6)"><text style="fill:rgb(16.1%,15.3%,14.1%);fill-opacity:1.0;font-family:helvetica;font-size:10.0px;font-weight:normal;stroke:none;vertical-align:baseline;white-space:pre" x="-6.95" y="-4.440892098500626e-16">0.0</text></g><g transform="translate(375.0,-6)"><text style="fill:rgb(16.1%,15.3%,14.1%);fill-opacity:1.0;font-family:helvetica;font-size:10.0px;font-weight:normal;stroke:none;vertical-align:baseline;white-space:pre" x="-6.95" y="-4.440892098500626e-16">0.5</text></g><g transform="translate(500.0,-6)"><text style="fill:rgb(16.1%,15.3%,14.1%);fill-opacity:1.0;font-family:helvetica;font-size:10.0px;font-weight:normal;stroke:none;vertical-align:baseline;white-space:pre" x="-6.95" y="-4.440892098500626e-16">1.0</text></g></g><g class="toyplot-coordinates-Axis-coordinates" style="visibility:hidden" transform=""><line style="stroke:rgb(43.9%,50.2%,56.5%);stroke-opacity:1.0;stroke-width:1.0" x1="0" x2="0" y1="3.0" y2="-4.5" /><text style="alignment-baseline:hanging;fill:rgb(43.9%,50.2%,56.5%);fill-opacity:1.0;font-size:10px;font-weight:normal;stroke:none;text-anchor:middle" x="0" y="6" /></g></g></g></svg>