<svg class="toyplot-canvas-Canvas" height="600px" id="t7081dd566b764b3b8a4f6fe88aba967e" preserveAspectRatio="xMidYMid meet" style="background-color:transparent;border-color:#292724;border-style:none;border-width:1.0;fill:rgb(16.1%,15.3%,14.1%);fill-opacity:1.0;font-family:Helvetica;font-size:12px;opacity:1.0;stroke:rgb(16.1%,15.3%,14.1%);stroke-opacity:1.0;stroke-width:1.0" viewBox="0 0 600 600" width="600px" xmlns="http://www.w3.org/2000/svg" xmlns:toyplot="http://www.sandia.gov/toyplot" xmlns:xlink="http://www.w3.org/1999/xlink"><g class="toyplot-coordinates-Cartesian" id="tcd95b29902df49f5ba85131c9c54a7bc"><clipPath id="t27394f2efea84e2aa8c85d0fcf137597"><rect height="520.0" width="520.0" x="40.0" y="40.0" /></clipPath><g clip-path="url(#t27394f2efea84e2aa8c85d0fcf137597)"><g class="toyplot-mark-FillMagnitudes" id="t0d2267dc322a44aa9d4178ec0c0c97c1" style="stroke:none"><polygon points="50.0,550.0 50.0,539.7959183673469 50.0,529.5918367346939 50.0,519.3877551020408 50.0,509.18367346938777 50.0,498.97959183673464 50.0,488.77551020408157 50.0,478.5714285714286 50.0,468.36734693877554 50.0,458.16326530612247 50.0,447.9591836734694 50.0,437.7551020408163 50.0,427.55102040816325 50.0,417.34693877551024 50.0,407.14285714285717 50.0,396.93877551020415 50.0,386.734693877551 50.0,376.53061224489795 50.0,366.3265306122449 50.0,356.12244897959187 50.0,345.9183673469388 50.0,335.7142857142857 50.0,325.5102040816327 50.0,315.30612244897964 50.0,305.10204081632656 50.0,294.89795918367344 50.0,284.6938775510204 50.0,274.4897959183674 50.0,264.2857142857143 50.0,254.08163265306123 50.0,243.87755102040822 50.0,233.67346938775515 50.0,223.46938775510208 50.0,213.26530612244898 50.0,203.0612244897959 50.0,192.8571428571429 50.0,182.65306122448985 50.0,172.44897959183677 50.0,162.2448979591837 50.0,152.04081632653066 50.0,141.8367346938776 50.0,131.63265306122452 50.0,121.42857142857144 50.0,111.22448979591839 50.0,101.02040816326536 50.0,90.81632653061229 50.0,80.61224489795921 50.0,70.40816326530614 50.0,60.20408163265307 50.0,50.0 273.1200628957744,50.0 267.68399015608975,60.20408163265307 281.36154800624183,70.40816326530614 263.1616349512563,80.61224489795921 300.0553595894943,90.81632653061229 286.9516197643501,101.02040816326536 270.19331174281217,111.22448979591839 319.34383070396734,121.42857142857144 285.3288460462754,131.63265306122452 270.96442214940635,141.8367346938776 253.59843678028037,152.04081632653066 256.28395209642156,162.2448979591837 287.4184690099903,172.44897959183677 280.07910843277216,182.65306122448985 307.95081316457174,192.8571428571429 206.67328551030732,203.0612244897959 281.4760965292618,213.26530612244898 262.97424393072095,223.46938775510208 281.3841526717033,233.67346938775515 273.8542021674209,243.87755102040822 300.6220893672785,254.08163265306123 264.50736992400266,264.2857142857143 280.3173098863259,274.4897959183674 267.4505988696191,284.6938775510204 283.51523578630116,294.89795918367344 311.3732801991509,305.10204081632656 290.3093706039838,315.30612244897964 294.95914769373456,325.5102040816327 278.4683253300676,335.7142857142857 263.1356475383252,345.9183673469388 304.93066053576655,356.12244897959187 286.2346572559862,366.3265306122449 263.175569271076,376.53061224489795 287.73952114058324,386.734693877551 295.12959629042575,396.93877551020415 272.3744309748455,407.14285714285717 299.4625834084531,417.34693877551024 296.38593401792883,427.55102040816325 292.4956694970438,437.7551020408163 229.29886633433628,447.9591836734694 277.9857087709266,458.16326530612247 263.2750921558957,468.36734693877554 270.3623777293763,478.5714285714286 281.87987676214567,488.77551020408157 297.7579547703022,498.97959183673464 230.48975768770933,509.18367346938777 296.8398009402942,519.3877551020408 307.08048810687353,529.5918367346939 262.18932170061873,539.7959183673469 281.23727605630904,550.0" style="fill:rgb(40%,76.1%,64.7%);fill-opacity:1.0;opacity:1.0;stroke:none" /><polygon points="281.23727605630904,550.0 262.18932170061873,539.7959183673469 307.08048810687353,529.5918367346939 296.8398009402942,519.3877551020408 230.48975768770933,509.18367346938777 297.7579547703022,498.97959183673464 281.87987676214567,488.77551020408157 270.3623777293763,478.5714285714286 263.2750921558957,468.36734693877554 277.9857087709266,458.16326530612247 229.29886633433628,447.9591836734694 292.4956694970438,437.7551020408163 296.38593401792883,427.55102040816325 299.4625834084531,417.34693877551024 272.3744309748455,407.14285714285717 295.12959629042575,396.93877551020415 287.73952114058324,386.734693877551 263.175569271076,376.53061224489795 286.2346572559862,366.3265306122449 304.93066053576655,356.12244897959187 263.1356475383252,345.9183673469388 278.4683253300676,335.7142857142857 294.95914769373456,325.5102040816327 290.3093706039838,315.30612244897964 311.3732801991509,305.10204081632656 283.51523578630116,294.89795918367344 267.4505988696191,284.6938775510204 280.3173098863259,274.4897959183674 264.50736992400266,264.2857142857143 300.6220893672785,254.08163265306123 273.8542021674209,243.87755102040822 281.3841526717033,233.67346938775515 262.97424393072095,223.46938775510208 281.4760965292618,213.26530612244898 206.67328551030732,203.0612244897959 307.95081316457174,192.8571428571429 280.07910843277216,182.65306122448985 287.4184690099903,172.44897959183677 256.28395209642156,162.2448979591837 253.59843678028037,152.04081632653066 270.96442214940635,141.8367346938776 285.3288460462754,131.63265306122452 319.34383070396734,121.42857142857144 270.19331174281217,111.22448979591839 286.9516197643501,101.02040816326536 300.0553595894943,90.81632653061229 263.1616349512563,80.61224489795921 281.36154800624183,70.40816326530614 267.68399015608975,60.20408163265307 273.1200628957744,50.0 501.9942093289784,50.0 497.96572418629484,60.20408163265307 509.37199853618546,70.40816326530614 477.9937087112108,80.61224489795921 550.0,90.81632653061229 516.2709123244023,101.02040816326536 482.4049934003907,111.22448979591839 522.0840888684977,121.42857142857144 515.568599251023,131.63265306122452 513.5846174634535,141.8367346938776 460.3397755932148,152.04081632653066 502.97788745578185,162.2448979591837 502.0342600487363,172.44897959183677 479.4171794062092,182.65306122448985 507.60957962815934,192.8571428571429 394.45276071481743,203.0612244897959 510.95923967572463,213.26530612244898 495.2454999097471,223.46938775510208 516.5412708444379,233.67346938775515 491.08777339119604,243.87755102040822 536.0408996321572,254.08163265306123 483.6503428884684,264.2857142857143 476.6219934374128,274.4897959183674 494.94960112313544,284.6938775510204 513.3598023352101,294.89795918367344 548.6260434621605,305.10204081632656 503.18296624656864,315.30612244897964 507.18180376101833,325.5102040816327 485.13384244180327,335.7142857142857 492.1655690244069,345.9183673469388 506.8612185631507,356.12244897959187 491.1235751044373,366.3265306122449 474.8770019412043,376.53061224489795 529.9864186552386,386.734693877551 511.2896413382988,396.93877551020415 481.21165910443744,407.14285714285717 531.1396423565127,417.34693877551024 529.377309248474,427.55102040816325 529.5816544086886,437.7551020408163 441.00850927493445,447.9591836734694 493.74390040043073,458.16326530612247 476.38235465241576,468.36734693877554 499.9163588941668,478.5714285714286 512.738311060529,488.77551020408157 507.84472679375705,498.97959183673464 428.9662835429869,509.18367346938777 509.4019113271568,519.3877551020408 517.3362079526163,529.5918367346939 480.792868293306,539.7959183673469 503.6667229438517,550.0" style="fill:rgb(98.8%,55.3%,38.4%);fill-opacity:1.0;opacity:1.0;stroke:none" /></g></g><g class="toyplot-coordinates-Axis" id="t75b37fa5fbdc4bcb8f55a5986e97502a" transform="translate(50.0,550.0)translate(0,10.0)"><line style="" x1="0" x2="500.0" y1="0" y2="0" /><g><g transform="translate(0.0,6)"><text style="fill:rgb(16.1%,15.3%,14.1%);fill-opacity:1.0;font-family:helvetica;font-size:10.0px;font-weight:normal;stroke:none;vertical-align:baseline;white-space:pre" x="-2.78" y="8.555">0</text></g><g transform="translate(223.3934229416224,6)"><text style="fill:rgb(16.1%,15.3%,14.1%);fill-opacity:1.0;font-family:helvetica;font-size:10.0px;font-weight:normal;stroke:none;vertical-align:baseline;white-space:pre" x="-2.78" y="8.555">1</text></g><g transform="translate(446.7868458832448,6)"><text style="fill:rgb(16.1%,15.3%,14.1%);fill-opacity:1.0;font-family:helvetica;font-size:10.0px;font-weight:normal;stroke:none;vertical-align:baseline;white-space:pre" x="-2.78" y="8.555">2</text></g></g><g class="toyplot-coordinates-Axis-coordinates" style="visibility:hidden" transform=""><line style="stroke:rgb(43.9%,50.2%,56.5%);stroke-opacity:1.0;stroke-width:1.0" x1="0" x2="0" y1="-3.0" y2="4.5" /><text style="alignment-baseline:alphabetic;fill:rgb(43.9%,50.2%,56.5%);fill-opacity:1.0;font-size:10px;font-weight:normal;stroke:none;text-anchor:middle" x="0" y="-6" /></g></g><g class="toyplot-coordinates-Axis" id="t3ef8c2dd8d1e40c0ba1490a27b2d7999" transform="translate(50.0,550.0)rotate(-90.0)translate(0,-10.0)"><line style="" x1="0" x2="500.0" y1="0" y2="0" /><g><g transform="translate(0.0,-6)"><text style="fill:rgb(16.1%,15.3%,14.1%);fill-opacity:1.0;font-family:helvetica;font-size:10.0px;font-weight:normal;stroke:none;vertical-align:baseline;white-space:pre" x="-6.95" y="-4.440892098500626e-16">0.0</text></g><g transform="translate(250.0,-6)"><text style="fill:rgb(16.1%,15.3%,14.1%);fill-opacity:1.0;font-family:helvetica;font-size:10.0px;font-weight:normal;stroke:none;vertical-align:baseline;white-space:pre" x="-6.95" y="-4.440892098500626e-16">0.5</text></g><g transform="translate(500.0,-6)"><text style="fill:rgb(16.1%,15.3%,14.1%);fill-opacity:1.0;font-family:helvetica;font-size:10.0px;font-weight:normal;stroke:none;vertical-align:baseline;white-space:pre" x="-6.95" y="-4.440892098500626e-16">1.0</text></g></g><g class="toyplot-coordinates-Axis-coordinates" style="visibility:hidden" transform=""><line style="stroke:rgb(43.9%,50.2%,56.5%);stroke-opacity:1.0;stroke-width:1.0" x1="0" x2="0" y1="3.0" y2="-4.5" /><text style="alignment-baseline:hanging;fill:rgb(43.9%,50.2%,56.5%);fill-opacity:1.0;font-size:10px;font-weight:normal;stroke:none;text-anchor:middle" x="0" y="6" /></g></g></g></svg>