<svg height="600px" id="t2ad2774819c84abbac76236fa71a1249" preserveAspectRatio="xMidyMid meet" style="background-color:transparent;fill:rgb(16.1%,15.3%,14.1%);fill-opacity:1.0;font-family:helvetica;font-size:12px;opacity:1.0;stroke:rgb(16.1%,15.3%,14.1%);stroke-opacity:1.0;stroke-width:1.0" viewBox="0 0 600 600" width="600px" xmlns="http://www.w3.org/2000/svg" xmlns:toyplot="http://www.sandia.gov/toyplot"><g class="toyplot-axes-Cartesian" id="t41d7f4090d0d49569df19127d098fef8"><clipPath id="teb72f73a916c47549bb32d2ffe7c13f5"><rect height="500.0" width="500.0" x="50.0" y="50.0" /></clipPath><g class="toyplot-coordinate-events" clip-path="url(#teb72f73a916c47549bb32d2ffe7c13f5)" style="cursor:crosshair"><rect height="500.0" style="pointer-events:all;visibility:hidden" width="500.0" x="50.0" y="50.0" /><g class="toyplot-mark-Plot" id="t46f5edf9fdda467cb8cc321193611af2" style="fill:none"><g class="toyplot-Series"><path d="M 60.0 300.0 L 156.0 251.35969522843178 L 213.7977591674844 204.73820425801861 L 247.60728090617516 162.070550108117 L 271.5955183349688 125.12765196735594 L 290.2022408325156 95.442823267291573 L 305.40504007365956 74.248131573003178 L 318.25882368273727 62.423261670690259 L 329.39327750245315 60.459004287667604 L 339.21456181235033 68.436885843896846 L 348.0 86.025784701359129 L 355.94739555037921 112.49567435369667 L 363.20279924114396 146.74792314561549 L 369.87712364291264 187.36089293347175 L 376.05658285022173 232.64894411655433 L 381.80952173869082 280.73239803772481 L 387.19103666993755 329.61555296692291 L 392.24619290462857 377.26951561742851 L 397.01232097983478 421.71641027628345 L 401.52069138294314 461.11147045246372 L 405.7977591674844 493.81960583240078 L 409.86610458891255 518.48326663458784 L 413.74515471786356 534.07878865609086 L 417.45174451537781 539.95888041218154 L 421.00055840862836 535.87948894215128 L 424.40448166503126 522.00992921716863 L 427.67488281039704 498.92585672953027 L 430.8218427185256 467.58537493569588 L 433.85434201770613 429.28926921267748 L 436.7804155965996 385.62701781574515 L 439.60728090617516 338.41082065038012 L 442.34144521618038 289.60038399151591 L 444.98879583742195 241.22158295712495 L 447.55467645655438 195.28237764676334 L 450.04395207211297 153.68947284220027 L 452.46106451525293 118.16918030574715 L 454.81008014731918 90.195768283263959 L 457.09473102086304 70.930272062699544 L 459.31845055042754 61.172305253360726 L 461.4844045490878 61.326871856731984 L 463.59551833496874 71.387556592449528 L 465.65450049018921 90.936791164243033 L 467.66386375639695 119.163185414487 L 469.62594347128055 154.89520403852299 L 471.54291388534796 196.64979110814301 L 473.41680264486598 242.69392424543261 L 475.24950368286221 291.11654364358503 L 477.04278872365779 339.90787052370149 L 478.79831757611277 387.04282291837171 L 480.5176473654746 430.56506661344878" style="fill:none;stroke:rgb(40%,76.1%,64.7%);stroke-opacity:1.0;stroke-width:2.0" /></g></g></g><g class="toyplot-coordinates" style="visibility:hidden"><rect height="14.0" style="fill:rgb(100%,100%,100%);fill-opacity:1.0;opacity:0.75;stroke:none" width="90.0" x="450.0" y="60.0" /><text style="alignment-baseline:middle;font-size:10px;font-weight:normal;stroke:none;text-anchor:middle" x="495.0" y="67.0" /></g><line style="" x1="60.0" x2="480.5176473654746" y1="550.0" y2="550.0" /><g><text style="alignment-baseline:middle;baseline-shift:-80%;font-size:10px;font-weight:normal;stroke:none;text-anchor:middle" x="60.0" y="550.0">0</text><text style="alignment-baseline:middle;baseline-shift:-80%;font-size:10px;font-weight:normal;stroke:none;text-anchor:middle" x="156.0" y="550.0">10&#8202;&#8304;</text><text style="alignment-baseline:middle;baseline-shift:-80%;font-size:10px;font-weight:normal;stroke:none;text-anchor:middle" x="348.0" y="550.0">10&#8202;&#185;</text><text style="alignment-baseline:middle;baseline-shift:-80%;font-size:10px;font-weight:normal;stroke:none;text-anchor:middle" x="540.0" y="550.0">10&#8202;&#178;</text></g><line style="" x1="50.0" x2="50.0" y1="60.459004287667604" y2="539.9588804121815" /><g><text style="alignment-baseline:middle;baseline-shift:80%;font-size:10px;font-weight:normal;stroke:none;text-anchor:middle" transform="rotate(-90, 50.0, 540.0)" x="50.0" y="540.0">-1.0</text><text style="alignment-baseline:middle;baseline-shift:80%;font-size:10px;font-weight:normal;stroke:none;text-anchor:middle" transform="rotate(-90, 50.0, 420.0)" x="50.0" y="420.0">-0.5</text><text style="alignment-baseline:middle;baseline-shift:80%;font-size:10px;font-weight:normal;stroke:none;text-anchor:middle" transform="rotate(-90, 50.0, 300.0)" x="50.0" y="300.0">0.0</text><text style="alignment-baseline:middle;baseline-shift:80%;font-size:10px;font-weight:normal;stroke:none;text-anchor:middle" transform="rotate(-90, 50.0, 180.0)" x="50.0" y="180.0">0.5</text><text style="alignment-baseline:middle;baseline-shift:80%;font-size:10px;font-weight:normal;stroke:none;text-anchor:middle" transform="rotate(-90, 50.0, 60.0)" x="50.0" y="60.0">1.0</text></g></g></svg>