<svg class="toyplot-canvas-Canvas" height="600px" id="t04bb464e51f2498e86632b726694c03e" preserveAspectRatio="xMidYMid meet" style="background-color:transparent;fill:rgb(16.1%,15.3%,14.1%);fill-opacity:1.0;font-family:Helvetica;font-size:12px;opacity:1.0;stroke:rgb(16.1%,15.3%,14.1%);stroke-opacity:1.0;stroke-width:1.0" viewBox="0 0 600 600" width="600px" xmlns="http://www.w3.org/2000/svg" xmlns:toyplot="http://www.sandia.gov/toyplot"><g class="toyplot-axes-Cartesian" id="t3b9947cda74d4180a70c4785d810085f"><clipPath id="tfb4f802ed58843a98ec23752f09f2e34"><rect height="520.0" width="520.0" x="40.0" y="40.0" /></clipPath><g clip-path="url(#tfb4f802ed58843a98ec23752f09f2e34)"><rect height="520.0" style="pointer-events:all;visibility:hidden" width="520.0" x="40.0" y="40.0" /><g class="toyplot-mark-FillBoundaries" id="t4ea4b557c5b74c2490b45b8860251b0d" style="stroke:none"><polygon points="50.0,529.86385979450506 60.204081632653057,440.04785474711679 70.408163265306115,455.88671761940611 80.612244897959187,414.91435668795333 90.816326530612244,445.01318859924447 101.0204081632653,413.1597506259011 111.22448979591836,468.48416592268171 121.42857142857143,470.19348168163117 131.63265306122449,458.6888577942168 141.83673469387753,443.16086926550594 152.0408163265306,464.3473013167353 162.24489795918365,442.86723754604515 172.44897959183672,431.91408088720942 182.65306122448979,429.33463770432729 192.85714285714286,426.92583036762858 203.0612244897959,444.52231765523425 213.26530612244898,550.0 223.46938775510202,451.86070261481882 233.67346938775509,422.25959008471119 243.87755102040816,466.79628316598377 254.08163265306121,511.70523304626391 264.28571428571428,433.59158536257871 274.48979591836729,437.09454012531336 284.69387755102036,449.87468072330074 294.89795918367344,490.59526619804564 305.10204081632656,478.60919856644023 315.30612244897958,468.58930948907624 325.51020408163265,440.35571038552376 335.71428571428572,442.8193445085293 345.91836734693879,441.99517068831335 356.12244897959181,444.66581968065464 366.32653061224488,508.92639091718672 376.5306122448979,444.01257154565349 386.73469387755097,466.35803946430093 396.93877551020404,467.67779329252028 407.14285714285711,441.33150732093912 417.34693877551018,420.9614024176131 427.55102040816325,490.57107658413918 437.75510204081633,468.87645467497708 447.95918367346934,521.69870532630352 458.16326530612241,493.20224623973161 468.36734693877548,454.85484360516176 478.57142857142856,435.32910410731222 488.77551020408163,456.14330789595266 498.97959183673458,495.15145633827223 509.18367346938771,503.67680276734643 519.38775510204073,457.65765041102105 529.59183673469386,423.7398855087751 539.79591836734687,435.72795668928848 550.0,473.88955250584161 550.0,303.8558081913074 539.79591836734687,305.39967258725909 529.59183673469386,301.51519649585862 519.38775510204073,306.68403788568844 509.18367346938771,296.2060861307009 498.97959183673458,299.9275958195185 488.77551020408163,304.68701614551344 478.57142857142856,290.72809029952236 468.36734693877548,300.38846944759405 458.16326530612241,304.4680179902096 447.95918367346934,309.40002088934034 437.75510204081633,308.63732478869662 427.55102040816325,299.79500893866981 417.34693877551018,301.87941399114447 407.14285714285711,293.96374864771161 396.93877551020404,322.72693423092994 386.73469387755097,301.48266429940583 376.5306122448979,306.73725761592004 366.32653061224488,301.50877668879212 356.12244897959181,303.64730997256748 345.91836734693879,296.04513281606648 335.71428571428572,306.3018442671883 325.51020408163265,301.81176391344758 315.30612244897958,305.46595656003905 305.10204081632656,300.90354134647919 294.89795918367344,292.99175558322753 284.69387755102036,298.97398238937734 274.48979591836729,297.65342881297431 264.28571428571428,302.3368822409181 254.08163265306121,306.6914184053187 243.87755102040816,294.82148296018937 233.67346938775509,300.1312157751189 223.46938775510202,306.68008048826539 213.26530612244898,299.70382896787066 203.0612244897959,297.6050207926308 192.85714285714286,304.0675703641723 182.65306122448979,296.37443671843249 172.44897959183672,297.24821631637298 162.24489795918365,298.35306556549767 152.0408163265306,316.30118712549842 141.83673469387753,302.47394709605067 131.63265306122449,306.65181562761808 121.42857142857143,304.63900079146617 111.22448979591836,301.36798924717789 101.0204081632653,296.85855744101752 90.816326530612244,315.96296965712332 80.612244897959187,297.11931646247206 70.408163265306115,294.2109241241684 60.204081632653057,306.96017837924961 50.0,301.55049018085964" style="fill:rgb(40%,76.1%,64.7%);fill-opacity:1.0;opacity:1.0;stroke:none" /><polygon points="50.0,301.55049018085964 60.204081632653057,306.96017837924961 70.408163265306115,294.2109241241684 80.612244897959187,297.11931646247206 90.816326530612244,315.96296965712332 101.0204081632653,296.85855744101752 111.22448979591836,301.36798924717789 121.42857142857143,304.63900079146617 131.63265306122449,306.65181562761808 141.83673469387753,302.47394709605067 152.0408163265306,316.30118712549842 162.24489795918365,298.35306556549767 172.44897959183672,297.24821631637298 182.65306122448979,296.37443671843249 192.85714285714286,304.0675703641723 203.0612244897959,297.6050207926308 213.26530612244898,299.70382896787066 223.46938775510202,306.68008048826539 233.67346938775509,300.1312157751189 243.87755102040816,294.82148296018937 254.08163265306121,306.6914184053187 264.28571428571428,302.3368822409181 274.48979591836729,297.65342881297431 284.69387755102036,298.97398238937734 294.89795918367344,292.99175558322753 305.10204081632656,300.90354134647919 315.30612244897958,305.46595656003905 325.51020408163265,301.81176391344758 335.71428571428572,306.3018442671883 345.91836734693879,296.04513281606648 356.12244897959181,303.64730997256748 366.32653061224488,301.50877668879212 376.5306122448979,306.73725761592004 386.73469387755097,301.48266429940583 396.93877551020404,322.72693423092994 407.14285714285711,293.96374864771161 417.34693877551018,301.87941399114447 427.55102040816325,299.79500893866981 437.75510204081633,308.63732478869662 447.95918367346934,309.40002088934034 458.16326530612241,304.4680179902096 468.36734693877548,300.38846944759405 478.57142857142856,290.72809029952236 488.77551020408163,304.68701614551344 498.97959183673458,299.9275958195185 509.18367346938771,296.2060861307009 519.38775510204073,306.68403788568844 529.59183673469386,301.51519649585862 539.79591836734687,305.39967258725909 550.0,303.8558081913074 550.0,169.67486306857199 539.79591836734687,119.52617000264306 529.59183673469386,113.37177426422991 519.38775510204073,151.2962795406811 509.18367346938771,160.97757346672205 498.97959183673458,122.85648340711154 488.77551020408163,168.41630833196072 478.57142857142856,168.48983577168815 468.36734693877548,169.59165988332541 458.16326530612241,140.07443058790159 447.95918367346934,191.87821449155808 437.75510204081633,178.03193400220559 427.55102040816325,153.39517338534077 417.34693877551018,176.60746258562429 407.14285714285711,160.31023129077113 396.93877551020404,214.49765484294372 386.73469387755097,162.1942447207509 376.5306122448979,131.56402210608934 366.32653061224488,153.33965936684743 356.12244897959181,175.43329872316738 345.91836734693879,133.75607843574878 335.71428571428572,154.22253766344235 325.51020408163265,186.64113270609607 315.30612244897958,141.10683803916953 305.10204081632656,159.68018539308321 294.89795918367344,169.4753343541355 284.69387755102036,123.9964575195028 274.48979591836729,99.450680152583743 264.28571428571428,138.57376131446631 254.08163265306121,171.79323119133937 243.87755102040816,148.07138561179835 233.67346938775509,141.94484038351976 223.46938775510202,164.95267326068765 213.26530612244898,168.40172441834741 203.0612244897959,144.45529613054481 192.85714285714286,166.03733707312526 182.65306122448979,105.47367859592862 172.44897959183672,140.22447716983339 162.24489795918365,131.82048993323517 152.0408163265306,186.94438228156008 141.83673469387753,163.97719840679844 131.63265306122449,136.09915040537402 121.42857142857143,135.523300232287 111.22448979591836,186.35436715795026 101.0204081632653,170.28594548582339 90.816326530612244,172.11898268472709 80.612244897959187,136.4247144295509 70.408163265306115,128.42734772295967 60.204081632653057,153.68306288589719 50.0,152.08477514583717" style="fill:rgb(98.8%,55.3%,38.4%);fill-opacity:1.0;opacity:1.0;stroke:none" /></g></g><g class="toyplot-axes-Axis" id="t3e786f678dd14a9a84e8652b10b4b437" transform="translate(50.0,550.0) rotate(0.0) translate(0,10.0)"><line style="" x1="0" x2="500.0" y1="0" y2="0" /><g><text style="dominant-baseline:hanging;font-size:10px;font-weight:normal;stroke:none;text-anchor:middle" transform="translate(0.0,6)"><tspan style="dominant-baseline:inherit">0.0</tspan></text><text style="dominant-baseline:hanging;font-size:10px;font-weight:normal;stroke:none;text-anchor:middle" transform="translate(250.0,6)"><tspan style="dominant-baseline:inherit">0.5</tspan></text><text style="dominant-baseline:hanging;font-size:10px;font-weight:normal;stroke:none;text-anchor:middle" transform="translate(500.0,6)"><tspan style="dominant-baseline:inherit">1.0</tspan></text></g><g class="toyplot-axes-Axis-coordinates" style="visibility:hidden" transform=""><line x1="0" x2="0" y1="-10" y2="10" /><text style="alignment-baseline:alphabetic;font-weight:normal;stroke:none;text-anchor:middle" x="0" y="-20" /></g></g><g class="toyplot-axes-Axis" id="tb214c9325dc142668c91a167502d8b0a" transform="translate(50.0,550.0) rotate(-90.0) translate(0,-10.0)"><line style="" x1="0" x2="450.54931984741626" y1="0" y2="0" /><g><text style="dominant-baseline:alphabetic;font-size:10px;font-weight:normal;stroke:none;text-anchor:middle" transform="translate(24.165925726734965,-6)"><tspan style="dominant-baseline:inherit">-2</tspan></text><text style="dominant-baseline:alphabetic;font-size:10px;font-weight:normal;stroke:none;text-anchor:middle" transform="translate(182.77728381782333,-6)"><tspan style="dominant-baseline:inherit">0</tspan></text><text style="dominant-baseline:alphabetic;font-size:10px;font-weight:normal;stroke:none;text-anchor:middle" transform="translate(341.38864190891167,-6)"><tspan style="dominant-baseline:inherit">2</tspan></text><text style="dominant-baseline:alphabetic;font-size:10px;font-weight:normal;stroke:none;text-anchor:middle" transform="translate(500.0,-6)"><tspan style="dominant-baseline:inherit">5</tspan></text></g><g class="toyplot-axes-Axis-coordinates" style="visibility:hidden" transform=""><line x1="0" x2="0" y1="10" y2="-10" /><text style="alignment-baseline:hanging;font-weight:normal;stroke:none;text-anchor:middle" x="0" y="20" /></g></g></g></svg>