<svg class="toyplot-canvas-Canvas" height="600px" id="tf9091817ba1f4dd8bf8b1373857d4125" preserveAspectRatio="xMidYMid meet" style="background-color:transparent;border-color:#292724;border-style:none;border-width:1.0;fill:rgb(16.1%,15.3%,14.1%);fill-opacity:1.0;font-family:Helvetica;font-size:12px;opacity:1.0;stroke:rgb(16.1%,15.3%,14.1%);stroke-opacity:1.0;stroke-width:1.0" viewBox="0 0 600 600" width="600px" xmlns="http://www.w3.org/2000/svg" xmlns:toyplot="http://www.sandia.gov/toyplot" xmlns:xlink="http://www.w3.org/1999/xlink"><g class="toyplot-coordinates-Cartesian" id="t444694a42baa4845a1a4286442dff052"><clipPath id="tb7c360a3d2ef4f68881f22661bcb6ba3"><rect height="520.0" width="520.0" x="40.0" y="40.0" /></clipPath><g clip-path="url(#tb7c360a3d2ef4f68881f22661bcb6ba3)"><g class="toyplot-mark-FillBoundaries" id="tc0dd801fe8084bb8bad3b5af52f5b5cc" style="stroke:none"><polygon points="50.0,550.0 60.20408163265306,550.0 70.40816326530611,550.0 80.61224489795919,550.0 90.81632653061224,550.0 101.0204081632653,550.0 111.22448979591836,550.0 121.42857142857143,550.0 131.6326530612245,550.0 141.83673469387753,550.0 152.0408163265306,550.0 162.24489795918365,550.0 172.44897959183672,550.0 182.6530612244898,550.0 192.85714285714286,550.0 203.0612244897959,550.0 213.26530612244898,550.0 223.46938775510202,550.0 233.6734693877551,550.0 243.87755102040816,550.0 254.0816326530612,550.0 264.2857142857143,550.0 274.4897959183673,550.0 284.69387755102036,550.0 294.89795918367344,550.0 305.10204081632656,550.0 315.3061224489796,550.0 325.51020408163265,550.0 335.7142857142857,550.0 345.9183673469388,550.0 356.1224489795918,550.0 366.3265306122449,550.0 376.5306122448979,550.0 386.73469387755097,550.0 396.93877551020404,550.0 407.1428571428571,550.0 417.3469387755102,550.0 427.55102040816325,550.0 437.7551020408163,550.0 447.95918367346934,550.0 458.1632653061224,550.0 468.3673469387755,550.0 478.57142857142856,550.0 488.7755102040816,550.0 498.9795918367346,550.0 509.1836734693877,550.0 519.3877551020407,550.0 529.5918367346939,550.0 539.7959183673469,550.0 550.0,550.0 550.0,135.80810573492752 539.7959183673469,145.899431616565 529.5918367346939,120.50891531180338 519.3877551020407,154.29456580808088 509.1836734693877,85.80640971812855 498.9795918367346,110.13171130550077 488.7755102040816,141.24121913743767 478.57142857142856,50.0 468.3673469387755,113.14416886547774 458.1632653061224,139.80975808525986 447.95918367346934,172.04733583808525 437.7551020408163,167.06204378754475 427.55102040816325,109.26506950342186 417.3469387755102,122.88958905903164 407.1428571428571,71.1495795348614 396.93877551020404,259.15746408443795 386.73469387755097,120.2962716386208 376.5306122448979,154.64243161968227 366.3265306122449,120.46695284063344 356.1224489795918,134.44527654049648 345.9183673469388,84.75435336268335 335.7142857142857,151.7963928051406 325.51020408163265,122.44740062477055 315.3061224489796,146.33269063322902 305.10204081632656,116.51088837643539 294.89795918367344,64.79623736690822 284.69387755102036,103.89850590618317 274.4897959183673,95.26683040502556 264.2857142857143,125.87978768079806 254.0816326530612,154.34280788747645 243.87755102040816,76.75608000845975 233.6734693877551,111.46265418711417 223.46938775510202,154.26869864828137 213.26530612244898,108.66908011366334 203.0612244897959,94.95041588711035 192.85714285714286,137.19226946160376 182.6530612244898,86.90681766044507 172.44897959183672,92.6181966485641 162.24489795918365,99.839940897759 152.0408163265306,217.15616640315483 141.83673469387753,126.7756993448589 131.6326530612245,154.08394801827876 121.42857142857143,140.92737124620825 111.22448979591836,119.5467088366279 101.0204081632653,90.0712276892466 90.81632653061224,214.94543941107838 80.61224489795919,91.77565475484568 70.40816326530611,72.76521902328682 60.20408163265306,156.09953243400338 50.0,120.73960919777068" style="fill:rgb(40%,76.1%,64.7%);fill-opacity:1.0;opacity:1.0;stroke:none" /></g></g><g class="toyplot-coordinates-Axis" id="tf921776cefaa4d45931edf90589f6a7f" transform="translate(50.0,550.0)translate(0,10.0)"><line style="" x1="0" x2="500.0" y1="0" y2="0" /><g><g transform="translate(0.0,6)"><text style="fill:rgb(16.1%,15.3%,14.1%);fill-opacity:1.0;font-family:helvetica;font-size:10.0px;font-weight:normal;stroke:none;vertical-align:baseline;white-space:pre" x="-6.95" y="8.555">0.0</text></g><g transform="translate(250.0,6)"><text style="fill:rgb(16.1%,15.3%,14.1%);fill-opacity:1.0;font-family:helvetica;font-size:10.0px;font-weight:normal;stroke:none;vertical-align:baseline;white-space:pre" x="-6.95" y="8.555">0.5</text></g><g transform="translate(500.0,6)"><text style="fill:rgb(16.1%,15.3%,14.1%);fill-opacity:1.0;font-family:helvetica;font-size:10.0px;font-weight:normal;stroke:none;vertical-align:baseline;white-space:pre" x="-6.95" y="8.555">1.0</text></g></g><g class="toyplot-coordinates-Axis-coordinates" style="visibility:hidden" transform=""><line style="stroke:rgb(43.9%,50.2%,56.5%);stroke-opacity:1.0;stroke-width:1.0" x1="0" x2="0" y1="-3.0" y2="4.5" /><text style="alignment-baseline:alphabetic;fill:rgb(43.9%,50.2%,56.5%);fill-opacity:1.0;font-size:10px;font-weight:normal;stroke:none;text-anchor:middle" x="0" y="-6" /></g></g><g class="toyplot-coordinates-Axis" id="t38e9392e232a494dbba2f5c5ee9f2b7a" transform="translate(50.0,550.0)rotate(-90.0)translate(0,-10.0)"><line style="" x1="0" x2="500.0" y1="0" y2="0" /><g><g transform="translate(0.0,-6)"><text style="fill:rgb(16.1%,15.3%,14.1%);fill-opacity:1.0;font-family:helvetica;font-size:10.0px;font-weight:normal;stroke:none;vertical-align:baseline;white-space:pre" x="-6.95" y="-4.440892098500626e-16">0.0</text></g><g transform="translate(165.87973992777395,-6)"><text style="fill:rgb(16.1%,15.3%,14.1%);fill-opacity:1.0;font-family:helvetica;font-size:10.0px;font-weight:normal;stroke:none;vertical-align:baseline;white-space:pre" x="-6.95" y="-4.440892098500626e-16">0.4</text></g><g transform="translate(331.7594798555479,-6)"><text style="fill:rgb(16.1%,15.3%,14.1%);fill-opacity:1.0;font-family:helvetica;font-size:10.0px;font-weight:normal;stroke:none;vertical-align:baseline;white-space:pre" x="-6.95" y="-4.440892098500626e-16">0.8</text></g><g transform="translate(497.639219783322,-6)"><text style="fill:rgb(16.1%,15.3%,14.1%);fill-opacity:1.0;font-family:helvetica;font-size:10.0px;font-weight:normal;stroke:none;vertical-align:baseline;white-space:pre" x="-6.95" y="-4.440892098500626e-16">1.2</text></g></g><g class="toyplot-coordinates-Axis-coordinates" style="visibility:hidden" transform=""><line style="stroke:rgb(43.9%,50.2%,56.5%);stroke-opacity:1.0;stroke-width:1.0" x1="0" x2="0" y1="3.0" y2="-4.5" /><text style="alignment-baseline:hanging;fill:rgb(43.9%,50.2%,56.5%);fill-opacity:1.0;font-size:10px;font-weight:normal;stroke:none;text-anchor:middle" x="0" y="6" /></g></g></g></svg>