<svg class="toyplot-canvas-Canvas" height="600px" id="t05b8677819b242c69f988a99be5ea36a" preserveAspectRatio="xMidYMid meet" style="background-color:transparent;border-color:#292724;border-style:none;border-width:1.0;fill:rgb(16.1%,15.3%,14.1%);fill-opacity:1.0;font-family:Helvetica;font-size:12px;opacity:1.0;stroke:rgb(16.1%,15.3%,14.1%);stroke-opacity:1.0;stroke-width:1.0" viewBox="0 0 600 600" width="600px" xmlns="http://www.w3.org/2000/svg" xmlns:toyplot="http://www.sandia.gov/toyplot" xmlns:xlink="http://www.w3.org/1999/xlink"><g class="toyplot-coordinates-Cartesian" id="t1e8309c7ecf740b5a3a207c667de69d8"><clipPath id="tf2b762562e584455830254804e7fb31c"><rect height="520.0" width="520.0" x="40.0" y="40.0" /></clipPath><g clip-path="url(#tf2b762562e584455830254804e7fb31c)"><g class="toyplot-mark-FillBoundaries" id="t06cbeb60cfee4b3da4676ffd87fa5eb0" style="stroke:none"><polygon points="50.0,550.0 60.0,550.0 70.0,550.0 80.0,550.0 90.0,550.0 100.0,550.0 110.0,550.0 120.00000000000001,550.0 130.0,550.0 140.0,550.0 150.0,550.0 160.0,550.0 170.0,550.0 180.0,550.0 190.00000000000003,550.0 200.0,550.0 210.0,550.0 220.0,550.0 230.0,550.0 240.0,550.0 250.0,550.0 260.0,550.0 270.0,550.0 280.0,550.0 290.0,550.0 300.0,550.0 310.0,550.0 320.0,550.0 330.00000000000006,550.0 340.0,550.0 350.0,550.0 360.0,550.0 370.0,550.0 380.0,550.0 390.0,550.0 400.0,550.0 410.0,550.0 420.0,550.0 430.0,550.0 440.0,550.0 450.0,550.0 460.0,550.0 470.0,550.0 480.0,550.0 490.0,550.0 500.0,550.0 510.0,550.0 520.0,550.0 530.0,550.0 540.0,550.0 540.0,135.80810573492752 530.0,145.899431616565 520.0,120.50891531180338 510.0,154.29456580808088 500.0,85.80640971812855 490.0,110.13171130550077 480.0,141.24121913743767 470.0,50.0 460.0,113.14416886547774 450.0,139.80975808525986 440.0,172.04733583808525 430.0,167.06204378754475 420.0,109.26506950342186 410.0,122.88958905903164 400.0,71.1495795348614 390.0,259.15746408443795 380.0,120.2962716386208 370.0,154.64243161968227 360.0,120.46695284063344 350.0,134.44527654049648 340.0,84.75435336268335 330.00000000000006,151.7963928051406 320.0,122.44740062477055 310.0,146.33269063322902 300.0,116.51088837643539 290.0,64.79623736690822 280.0,103.89850590618317 270.0,95.26683040502556 260.0,125.87978768079806 250.0,154.34280788747645 240.0,76.75608000845975 230.0,111.46265418711417 220.0,154.26869864828137 210.0,108.66908011366334 200.0,94.95041588711035 190.00000000000003,137.19226946160376 180.0,86.90681766044507 170.0,92.6181966485641 160.0,99.839940897759 150.0,217.15616640315483 140.0,126.7756993448589 130.0,154.08394801827876 120.00000000000001,140.92737124620825 110.0,119.5467088366279 100.0,90.0712276892466 90.0,214.94543941107838 80.0,91.77565475484568 70.0,72.76521902328682 60.0,156.09953243400338 50.0,120.73960919777068" style="fill:rgb(40%,76.1%,64.7%);fill-opacity:1.0;opacity:1.0;stroke:none" /></g></g><g class="toyplot-coordinates-Axis" id="tde71e4290d6045e68762d73faeac03df" transform="translate(50.0,550.0)translate(0,10.0)"><line style="" x1="0" x2="490.0" y1="0" y2="0" /><g><g transform="translate(0.0,6)"><text style="fill:rgb(16.1%,15.3%,14.1%);fill-opacity:1.0;font-family:helvetica;font-size:10.0px;font-weight:normal;stroke:none;vertical-align:baseline;white-space:pre" x="-2.78" y="8.555">0</text></g><g transform="translate(100.0,6)"><text style="fill:rgb(16.1%,15.3%,14.1%);fill-opacity:1.0;font-family:helvetica;font-size:10.0px;font-weight:normal;stroke:none;vertical-align:baseline;white-space:pre" x="-5.56" y="8.555">10</text></g><g transform="translate(200.0,6)"><text style="fill:rgb(16.1%,15.3%,14.1%);fill-opacity:1.0;font-family:helvetica;font-size:10.0px;font-weight:normal;stroke:none;vertical-align:baseline;white-space:pre" x="-5.56" y="8.555">20</text></g><g transform="translate(300.0,6)"><text style="fill:rgb(16.1%,15.3%,14.1%);fill-opacity:1.0;font-family:helvetica;font-size:10.0px;font-weight:normal;stroke:none;vertical-align:baseline;white-space:pre" x="-5.56" y="8.555">30</text></g><g transform="translate(400.0,6)"><text style="fill:rgb(16.1%,15.3%,14.1%);fill-opacity:1.0;font-family:helvetica;font-size:10.0px;font-weight:normal;stroke:none;vertical-align:baseline;white-space:pre" x="-5.56" y="8.555">40</text></g><g transform="translate(500.0,6)"><text style="fill:rgb(16.1%,15.3%,14.1%);fill-opacity:1.0;font-family:helvetica;font-size:10.0px;font-weight:normal;stroke:none;vertical-align:baseline;white-space:pre" x="-5.56" y="8.555">50</text></g></g><g class="toyplot-coordinates-Axis-coordinates" style="visibility:hidden" transform=""><line style="stroke:rgb(43.9%,50.2%,56.5%);stroke-opacity:1.0;stroke-width:1.0" x1="0" x2="0" y1="-3.0" y2="4.5" /><text style="alignment-baseline:alphabetic;fill:rgb(43.9%,50.2%,56.5%);fill-opacity:1.0;font-size:10px;font-weight:normal;stroke:none;text-anchor:middle" x="0" y="-6" /></g></g><g class="toyplot-coordinates-Axis" id="t552c2f365f4b48ecb92cb0dc83236559" transform="translate(50.0,550.0)rotate(-90.0)translate(0,-10.0)"><line style="" x1="0" x2="500.0" y1="0" y2="0" /><g><g transform="translate(0.0,-6)"><text style="fill:rgb(16.1%,15.3%,14.1%);fill-opacity:1.0;font-family:helvetica;font-size:10.0px;font-weight:normal;stroke:none;vertical-align:baseline;white-space:pre" x="-6.95" y="-4.440892098500626e-16">0.0</text></g><g transform="translate(165.87973992777395,-6)"><text style="fill:rgb(16.1%,15.3%,14.1%);fill-opacity:1.0;font-family:helvetica;font-size:10.0px;font-weight:normal;stroke:none;vertical-align:baseline;white-space:pre" x="-6.95" y="-4.440892098500626e-16">0.4</text></g><g transform="translate(331.7594798555479,-6)"><text style="fill:rgb(16.1%,15.3%,14.1%);fill-opacity:1.0;font-family:helvetica;font-size:10.0px;font-weight:normal;stroke:none;vertical-align:baseline;white-space:pre" x="-6.95" y="-4.440892098500626e-16">0.8</text></g><g transform="translate(497.639219783322,-6)"><text style="fill:rgb(16.1%,15.3%,14.1%);fill-opacity:1.0;font-family:helvetica;font-size:10.0px;font-weight:normal;stroke:none;vertical-align:baseline;white-space:pre" x="-6.95" y="-4.440892098500626e-16">1.2</text></g></g><g class="toyplot-coordinates-Axis-coordinates" style="visibility:hidden" transform=""><line style="stroke:rgb(43.9%,50.2%,56.5%);stroke-opacity:1.0;stroke-width:1.0" x1="0" x2="0" y1="3.0" y2="-4.5" /><text style="alignment-baseline:hanging;fill:rgb(43.9%,50.2%,56.5%);fill-opacity:1.0;font-size:10px;font-weight:normal;stroke:none;text-anchor:middle" x="0" y="6" /></g></g></g></svg>