<svg height="600px" id="taf14bc2048a74cc393aca1998fa067c9" preserveAspectRatio="xMidYMid meet" style="background-color:transparent;fill:rgb(16.1%,15.3%,14.1%);fill-opacity:1.0;font-family:Helvetica;font-size:12px;opacity:1.0;stroke:rgb(16.1%,15.3%,14.1%);stroke-opacity:1.0;stroke-width:1.0" viewBox="0 0 600 600" width="600px" xmlns="http://www.w3.org/2000/svg" xmlns:toyplot="http://www.sandia.gov/toyplot"><g class="toyplot-axes-Cartesian" id="tdcc8b2c7fbad4e6b947457d2fae454a6"><clipPath id="t6a3b3298c54a4d59a8b22babf6aeb3b0"><rect height="520.0" width="520.0" x="40.0" y="40.0" /></clipPath><g class="toyplot-coordinate-events" clip-path="url(#t6a3b3298c54a4d59a8b22babf6aeb3b0)" style="cursor:crosshair"><rect height="520.0" style="pointer-events:all;visibility:hidden" width="520.0" x="40.0" y="40.0" /><g class="toyplot-mark-FillBoundaries" id="t1fd5cfe1da3c4961a19743152427764f" style="stroke:none"><polygon points="50.0,502.57793056076707 60.204081632653057,514.69226896347914 70.408163265306115,486.14186554572996 80.612244897959187,492.65485625830962 90.816326530612244,534.85292445959522 101.0204081632653,492.07091816213602 111.22448979591836,502.16924192875126 121.42857142857143,509.49427422515612 131.63265306122449,514.00172810658319 141.83673469387753,504.64589994471004 152.0408163265306,535.61032132154821 162.24489795918365,495.41768723672783 172.44897959183672,492.94351179499665 182.65306122448979,490.9867887176876 192.85714285714286,508.21462532193368 203.0612244897959,493.74253199920668 213.26530612244898,498.44255749879113 223.46938775510202,514.06502382238591 233.67346938775509,499.39963824392544 243.87755102040816,487.50913775866923 254.08163265306121,514.0904137078893 264.28571428571428,504.33895988138295 274.48979591836729,493.85093586988103 284.69387755102036,496.80815490298892 294.89795918367344,483.41168596175817 305.10204081632656,501.12916737488558 315.30612244897958,511.34614103469738 325.51020408163265,503.16302128988735 335.71428571428572,513.21800983373225 345.91836734693879,490.24935270209909 356.12244897959181,507.27350331740263 366.32653061224488,502.48451827149415 376.5306122448979,514.1930650417504 386.73469387755097,502.42604275314108 396.93877551020404,550.0 407.14285714285711,485.58834614556582 417.34693877551018,503.31451540639375 427.55102040816325,498.64674394749255 437.75510204081633,518.44803425157488 447.95918367346934,520.15599935469788 458.16326530612241,509.11137904903819 468.36734693877548,499.97572653763393 478.57142857142856,478.34248302961191 488.77551020408163,509.60179876744451 498.97959183673458,498.94365613234601 509.18367346938771,490.60978806343854 519.38775510204073,514.07388593232986 529.59183673469386,502.49889464817824 539.79591836734687,511.19770614390791 550.0,507.74040970563584 550.0,207.25851189564261 539.79591836734687,94.956616485994417 529.59183673469386,81.174596172599053 519.38775510204073,166.10191061765369 509.18367346938771,187.78199022576968 498.97959183673458,102.41444808169099 488.77551020408163,204.44013171946497 478.57142857142856,204.60478747300871 468.36734693877548,207.07218848747269 458.16326530612241,140.9719455008935 447.95918367346934,256.98021542976562 437.75510204081633,225.97315526004888 427.55102040816325,170.80212796347848 417.34693877551018,222.78322486986613 407.14285714285711,186.28755863315439 396.93877551020404,307.63369948420666 386.73469387755097,190.50657743960284 376.5306122448979,121.91392135734509 366.32653061224488,170.67781107469321 356.12244897959181,220.15382778663468 345.91836734693879,126.82276475116683 335.71428571428572,172.6549095803972 325.51020408163265,245.25240808392863 315.30612244897958,143.28389635193568 305.10204081632656,184.87664751703809 294.89795918367344,206.811691620777 284.69387755102036,104.96728138028084 274.48979591836729,50.0 264.28571428571428,137.61137928298146 254.08163265306121,212.00233951741944 243.87755102040816,158.88015310878953 233.67346938775509,145.16050062364701 223.46938775510202,196.68374247518435 213.26530612244898,204.40747281967836 203.0612244897959,150.78236076589059 192.85714285714286,199.11271508786751 182.65306122448979,63.487772061133327 172.44897959183672,141.30795656161101 162.24489795918365,122.48824984606983 152.0408163265306,245.93149860503161 141.83673469387753,194.49928524771104 131.63265306122449,132.06978929324615 121.42857142857143,130.78024290716917 111.22448979591836,244.61023153602486 101.0204081632653,208.62695660503152 90.816326530612244,212.73182034540167 80.612244897959187,132.79885030674433 70.408163265306115,114.88972078555256 60.204081632653057,171.44682146602929 50.0,167.86765057153036" style="fill:rgb(40%,76.1%,64.7%);fill-opacity:1.0;opacity:1.0;stroke:none" /></g></g><g class="toyplot-coordinates" style="visibility:hidden"><rect height="14.0" style="fill:rgb(100%,100%,100%);fill-opacity:1.0;opacity:0.75;stroke:none" width="90.0" x="450.0" y="60.0" /><text style="alignment-baseline:middle;font-size:10px;font-weight:normal;stroke:none;text-anchor:middle" x="495.0" y="67.0" /></g><g class="toyplot-axes-Axis" id="tfcdbdd5cf5b04cd3a1d6f880e87d4ec5" transform="translate(50.0,550.0) rotate(0.0) translate(0,10.0)"><line style="" x1="0" x2="500.0" y1="0" y2="0" /><g><text style="alignment-baseline:middle;baseline-shift:-80%;font-size:10px;font-weight:normal;stroke:none;text-anchor:middle" transform="translate(0.0,0) rotate(0)" x="0" y="0">0.0</text><text style="alignment-baseline:middle;baseline-shift:-80%;font-size:10px;font-weight:normal;stroke:none;text-anchor:middle" transform="translate(250.0,0) rotate(0)" x="0" y="0">0.5</text><text style="alignment-baseline:middle;baseline-shift:-80%;font-size:10px;font-weight:normal;stroke:none;text-anchor:middle" transform="translate(500.0,0) rotate(0)" x="0" y="0">1.0</text></g></g><g class="toyplot-axes-Axis" id="t0df97eeb38e44050a4e5dbfd41511227" transform="translate(50.0,550.0) rotate(-90.0) translate(0,-10.0)"><line style="" x1="0" x2="500.0" y1="0" y2="0" /><g><text style="alignment-baseline:middle;baseline-shift:80%;font-size:10px;font-weight:normal;stroke:none;text-anchor:middle" transform="translate(42.43344497919514,0) rotate(0)" x="0" y="0">1</text><text style="alignment-baseline:middle;baseline-shift:80%;font-size:10px;font-weight:normal;stroke:none;text-anchor:middle" transform="translate(184.50977884265438,0) rotate(0)" x="0" y="0">2</text><text style="alignment-baseline:middle;baseline-shift:80%;font-size:10px;font-weight:normal;stroke:none;text-anchor:middle" transform="translate(326.5861127061136,0) rotate(0)" x="0" y="0">3</text><text style="alignment-baseline:middle;baseline-shift:80%;font-size:10px;font-weight:normal;stroke:none;text-anchor:middle" transform="translate(468.6624465695729,0) rotate(0)" x="0" y="0">4</text></g></g></g></svg>