<svg height="600px" id="t929befb184ef4187b1805528baedaf1e" preserveAspectRatio="xMidYMid meet" style="background-color:transparent;fill:rgb(16.1%,15.3%,14.1%);fill-opacity:1.0;font-family:Helvetica;font-size:12px;opacity:1.0;stroke:rgb(16.1%,15.3%,14.1%);stroke-opacity:1.0;stroke-width:1.0" viewBox="0 0 600 600" width="600px" xmlns="http://www.w3.org/2000/svg" xmlns:toyplot="http://www.sandia.gov/toyplot"><g class="toyplot-axes-Cartesian" id="ta26d1c42006c480d8b9083b1dae183a0"><clipPath id="t926dd5fb966844c089befd8cfd6b4ee8"><rect height="520.0" width="520.0" x="40.0" y="40.0" /></clipPath><g class="toyplot-coordinate-events" clip-path="url(#t926dd5fb966844c089befd8cfd6b4ee8)" style="cursor:crosshair"><rect height="520.0" style="pointer-events:all;visibility:hidden" width="520.0" x="40.0" y="40.0" /><g class="toyplot-mark-Plot" id="tc811af3f754d42158e2b68cff07b94f5" style="fill:none"><g class="toyplot-Series"><path d="M 50.0 300.0 L 150.0 249.33301586294976 L 210.20599913279625 200.7689627687694 L 245.42425094393246 156.32348969595523 L 270.4119982655925 117.84130413266243 L 289.79400086720375 86.91960757009538 L 305.63025007672871 64.841803721878321 L 319.01960800285133 52.524230906969017 L 330.6179973983887 50.478129466320418 L 340.84850188786493 58.788422754059219 L 350.0 77.110192397249094 L 358.27853703164499 104.68299411843402 L 365.83624920952496 140.36241994334947 L 372.78867046136736 182.66759680569973 L 379.22560713564758 229.84265012141077 L 385.21825181113627 279.92958128929666 L 390.82399653118495 330.84953434054472 L 396.08978427565478 380.48907876815468 L 401.05450102066118 426.7879273711286 L 405.75072019056574 467.82444838798307 L 410.20599913279625 501.89542274208412 L 414.44385894678385 527.58673607769572 L 418.48453616444124 543.8320715167614 L 422.34556720351856 549.95716709602243 L 426.04224834232122 545.70780098140767 L 429.58800173440756 531.26034293455075 L 432.99466959416355 507.21443409326065 L 436.27275283179745 474.56809889134985 L 439.43160626844383 434.67632209653908 L 442.47959957979117 389.19481022473451 L 445.42425094393246 340.01127151081261 L 448.27233876685455 289.16706665782914 L 451.0299956639812 238.77248224700517 L 453.70278797557751 190.91914338204515 L 456.29578340845103 147.59320087729196 L 458.81360887005513 110.59289615181996 L 461.26050015345749 81.453925295066625 L 463.640344813399 61.385700065312029 L 465.95671932336205 51.221151305584094 L 468.21292140529982 51.382158184095815 L 470.41199826559244 61.862038117134936 L 472.5567713439471 82.22582412941982 L 474.6498580795801 111.62831814009061 L 476.69369111591726 148.84917087346145 L 478.69053529723749 192.34353240431562 L 480.64250275506873 240.30617108899227 L 482.55156633631481 290.74639962873437 L 484.41957158714354 341.57069846218906 L 486.24824747511741 390.66960720663724 L 488.03921600570277 436.0052777223425" style="fill:none;stroke:rgb(40%,76.1%,64.7%);stroke-opacity:1.0;stroke-width:2.0" /></g></g></g><g class="toyplot-coordinates" style="visibility:hidden"><rect height="14.0" style="fill:rgb(100%,100%,100%);fill-opacity:1.0;opacity:0.75;stroke:none" width="90.0" x="450.0" y="60.0" /><text style="alignment-baseline:middle;font-size:10px;font-weight:normal;stroke:none;text-anchor:middle" x="495.0" y="67.0" /></g><g class="toyplot-axes-Axis" id="t4e311023a2cb48499ba580a870c71b87" transform="translate(50.0,550.0) rotate(0.0) translate(0,10.0)"><line style="" x1="0" x2="438.03921600570277" y1="0" y2="0" /><g><text style="alignment-baseline:middle;baseline-shift:-80%;font-size:10px;font-weight:normal;stroke:none;text-anchor:middle" transform="translate(0.0,0) rotate(0)" x="0" y="0">0</text><text style="alignment-baseline:middle;baseline-shift:-80%;font-size:10px;font-weight:normal;stroke:none;text-anchor:middle" transform="translate(100.0,0) rotate(0)" x="0" y="0">10&#8202;&#8304;</text><text style="alignment-baseline:middle;baseline-shift:-80%;font-size:10px;font-weight:normal;stroke:none;text-anchor:middle" transform="translate(300.0,0) rotate(0)" x="0" y="0">10&#8202;&#185;</text><text style="alignment-baseline:middle;baseline-shift:-80%;font-size:10px;font-weight:normal;stroke:none;text-anchor:middle" transform="translate(500.0,0) rotate(0)" x="0" y="0">10&#8202;&#178;</text></g></g><g class="toyplot-axes-Axis" id="tce407dc548924312b43c94965e579e8c" transform="translate(50.0,550.0) rotate(-90.0) translate(0,-10.0)"><line style="" x1="0.04283290397760764" x2="499.5218705336796" y1="0" y2="0" /><g><text style="alignment-baseline:middle;baseline-shift:80%;font-size:10px;font-weight:normal;stroke:none;text-anchor:middle" transform="translate(0.0,0) rotate(0)" x="0" y="0">-1.0</text><text style="alignment-baseline:middle;baseline-shift:80%;font-size:10px;font-weight:normal;stroke:none;text-anchor:middle" transform="translate(125.0,0) rotate(0)" x="0" y="0">-0.5</text><text style="alignment-baseline:middle;baseline-shift:80%;font-size:10px;font-weight:normal;stroke:none;text-anchor:middle" transform="translate(250.0,0) rotate(0)" x="0" y="0">0.0</text><text style="alignment-baseline:middle;baseline-shift:80%;font-size:10px;font-weight:normal;stroke:none;text-anchor:middle" transform="translate(375.0,0) rotate(0)" x="0" y="0">0.5</text><text style="alignment-baseline:middle;baseline-shift:80%;font-size:10px;font-weight:normal;stroke:none;text-anchor:middle" transform="translate(500.0,0) rotate(0)" x="0" y="0">1.0</text></g></g></g></svg>