<svg class="toyplot-canvas-Canvas" height="600px" id="t811dffed8fe3489891efc4b38d72686d" preserveAspectRatio="xMidYMid meet" style="background-color:transparent;fill:rgb(16.1%,15.3%,14.1%);fill-opacity:1.0;font-family:Helvetica;font-size:12px;opacity:1.0;stroke:rgb(16.1%,15.3%,14.1%);stroke-opacity:1.0;stroke-width:1.0" viewBox="0 0 600 600" width="600px" xmlns="http://www.w3.org/2000/svg" xmlns:toyplot="http://www.sandia.gov/toyplot" xmlns:xlink="http://www.w3.org/1999/xlink"><g class="toyplot-coordinates-Cartesian" id="tc7f4c0ad294b480ebe6b79bd31c4677a"><clipPath id="t7f9d3e6d2ca44beeab042aba2140e36e"><rect height="520.0" width="520.0" x="40.0" y="40.0" /></clipPath><g clip-path="url(#t7f9d3e6d2ca44beeab042aba2140e36e)"><g class="toyplot-mark-Plot" id="tc6f78b65b9b547608967cfc9bcfadd9a" style="fill:none"><g class="toyplot-Series"><path d="M 50.0 300.0 L 150.0 249.33301586294976 L 210.20599913279625 200.7689627687694 L 245.42425094393246 156.32348969595523 L 270.4119982655925 117.84130413266243 L 289.79400086720375 86.91960757009538 L 305.63025007672871 64.841803721878321 L 319.01960800285133 52.524230906969017 L 330.6179973983887 50.478129466320418 L 340.84850188786493 58.788422754059219 L 350.0 77.110192397249094 L 358.27853703164499 104.68299411843402 L 365.83624920952496 140.36241994334947 L 372.78867046136736 182.66759680569973 L 379.22560713564758 229.84265012141077 L 385.21825181113627 279.92958128929666 L 390.82399653118495 330.84953434054472 L 396.08978427565478 380.48907876815468 L 401.05450102066118 426.7879273711286 L 405.75072019056574 467.82444838798307 L 410.20599913279625 501.89542274208412 L 414.44385894678385 527.58673607769572 L 418.48453616444124 543.8320715167614 L 422.34556720351856 549.95716709602243 L 426.04224834232122 545.70780098140767 L 429.58800173440756 531.26034293455075 L 432.99466959416355 507.21443409326065 L 436.27275283179745 474.56809889134985 L 439.43160626844383 434.67632209653908 L 442.47959957979117 389.19481022473451 L 445.42425094393246 340.01127151081261 L 448.27233876685455 289.16706665782914 L 451.0299956639812 238.77248224700517 L 453.70278797557751 190.91914338204515 L 456.29578340845103 147.59320087729196 L 458.81360887005513 110.59289615181996 L 461.26050015345749 81.453925295066625 L 463.640344813399 61.385700065312029 L 465.95671932336205 51.221151305584094 L 468.21292140529982 51.382158184095815 L 470.41199826559244 61.862038117134936 L 472.5567713439471 82.22582412941982 L 474.6498580795801 111.62831814009061 L 476.69369111591726 148.84917087346145 L 478.69053529723749 192.34353240431562 L 480.64250275506873 240.30617108899227 L 482.55156633631481 290.74639962873437 L 484.41957158714354 341.57069846218906 L 486.24824747511741 390.66960720663724 L 488.03921600570277 436.0052777223425" style="stroke:rgb(40%,76.1%,64.7%);stroke-opacity:1.0;stroke-width:2.0" /></g></g></g><g class="toyplot-coordinates-Axis" id="ta36cedf5e27f46f484fd2fb3ce62e487" transform="translate(50.0,550.0)translate(0,10.0)"><line style="" x1="0" x2="438.03921600570277" y1="0" y2="0" /><g><g transform="translate(0.0,6)"><text style="fill:rgb(16.1%,15.3%,14.1%);fill-opacity:1.0;font-family:helvetica;font-size:10.0;font-weight:normal;stroke:none;vertical-align:baseline;white-space:pre" x="-2.78" y="8.555">0</text></g><g transform="translate(100.0,6)"><text style="fill:rgb(16.1%,15.3%,14.1%);fill-opacity:1.0;font-family:helvetica;font-size:10.0;font-weight:normal;stroke:none;vertical-align:baseline;white-space:pre" x="-8.479" y="8.555">10</text><text style="fill:rgb(16.1%,15.3%,14.1%);fill-opacity:1.0;font-family:helvetica;font-size:7.0;font-weight:normal;stroke:none;vertical-align:baseline;white-space:pre" x="2.641" y="6.455"> 0</text></g><g transform="translate(300.0,6)"><text style="fill:rgb(16.1%,15.3%,14.1%);fill-opacity:1.0;font-family:helvetica;font-size:10.0;font-weight:normal;stroke:none;vertical-align:baseline;white-space:pre" x="-8.479" y="8.555">10</text><text style="fill:rgb(16.1%,15.3%,14.1%);fill-opacity:1.0;font-family:helvetica;font-size:7.0;font-weight:normal;stroke:none;vertical-align:baseline;white-space:pre" x="2.641" y="6.455"> 1</text></g><g transform="translate(500.0,6)"><text style="fill:rgb(16.1%,15.3%,14.1%);fill-opacity:1.0;font-family:helvetica;font-size:10.0;font-weight:normal;stroke:none;vertical-align:baseline;white-space:pre" x="-8.479" y="8.555">10</text><text style="fill:rgb(16.1%,15.3%,14.1%);fill-opacity:1.0;font-family:helvetica;font-size:7.0;font-weight:normal;stroke:none;vertical-align:baseline;white-space:pre" x="2.641" y="6.455"> 2</text></g></g><g class="toyplot-coordinates-Axis-coordinates" style="visibility:hidden" transform=""><line style="stroke:rgb(43.9%,50.2%,56.5%);stroke-opacity:1.0;stroke-width:1.0" x1="0" x2="0" y1="-3.0" y2="4.5" /><text style="alignment-baseline:alphabetic;fill:rgb(43.9%,50.2%,56.5%);fill-opacity:1.0;font-size:10px;font-weight:normal;stroke:none;text-anchor:middle" x="0" y="-6" /></g></g><g class="toyplot-coordinates-Axis" id="t1b2886e483654d9db99af3921615b7d9" transform="translate(50.0,550.0)rotate(-90.0)translate(0,-10.0)"><line style="" x1="0.04283290397760764" x2="499.5218705336796" y1="0" y2="0" /><g><g transform="translate(0.0,-6)"><text style="fill:rgb(16.1%,15.3%,14.1%);fill-opacity:1.0;font-family:helvetica;font-size:10.0;font-weight:normal;stroke:none;vertical-align:baseline;white-space:pre" x="-8.615" y="-4.4408920985e-16">-1.0</text></g><g transform="translate(125.0,-6)"><text style="fill:rgb(16.1%,15.3%,14.1%);fill-opacity:1.0;font-family:helvetica;font-size:10.0;font-weight:normal;stroke:none;vertical-align:baseline;white-space:pre" x="-8.615" y="-4.4408920985e-16">-0.5</text></g><g transform="translate(250.0,-6)"><text style="fill:rgb(16.1%,15.3%,14.1%);fill-opacity:1.0;font-family:helvetica;font-size:10.0;font-weight:normal;stroke:none;vertical-align:baseline;white-space:pre" x="-6.95" y="-4.4408920985e-16">0.0</text></g><g transform="translate(375.0,-6)"><text style="fill:rgb(16.1%,15.3%,14.1%);fill-opacity:1.0;font-family:helvetica;font-size:10.0;font-weight:normal;stroke:none;vertical-align:baseline;white-space:pre" x="-6.95" y="-4.4408920985e-16">0.5</text></g><g transform="translate(500.0,-6)"><text style="fill:rgb(16.1%,15.3%,14.1%);fill-opacity:1.0;font-family:helvetica;font-size:10.0;font-weight:normal;stroke:none;vertical-align:baseline;white-space:pre" x="-6.95" y="-4.4408920985e-16">1.0</text></g></g><g class="toyplot-coordinates-Axis-coordinates" style="visibility:hidden" transform=""><line style="stroke:rgb(43.9%,50.2%,56.5%);stroke-opacity:1.0;stroke-width:1.0" x1="0" x2="0" y1="3.0" y2="-4.5" /><text style="alignment-baseline:hanging;fill:rgb(43.9%,50.2%,56.5%);fill-opacity:1.0;font-size:10px;font-weight:normal;stroke:none;text-anchor:middle" x="0" y="6" /></g></g></g></svg>