<svg class="toyplot-canvas-Canvas" height="600px" id="t9e1efdbcc12a457f8908b8616ce36ff4" preserveAspectRatio="xMidYMid meet" style="background-color:transparent;border-color:#292724;border-style:none;border-width:1.0;fill:rgb(16.1%,15.3%,14.1%);fill-opacity:1.0;font-family:Helvetica;font-size:12px;opacity:1.0;stroke:rgb(16.1%,15.3%,14.1%);stroke-opacity:1.0;stroke-width:1.0" viewBox="0 0 600 600" width="600px" xmlns="http://www.w3.org/2000/svg" xmlns:toyplot="http://www.sandia.gov/toyplot" xmlns:xlink="http://www.w3.org/1999/xlink"><g class="toyplot-coordinates-Cartesian" id="t859ddb1e40184330b19ef338c6120e97"><clipPath id="ta5b3a5f08977434f99266c3cfe579bfe"><rect height="520.0" width="520.0" x="40.0" y="40.0" /></clipPath><g clip-path="url(#ta5b3a5f08977434f99266c3cfe579bfe)"><g class="toyplot-mark-Plot" id="t1a3a049315ab415889a8870d32c154b2" style="fill:none"><g class="toyplot-Series"><path d="M 50.0 529.8638597945051 L 70.83333333333334 440.0478547471168 L 91.66666666666666 455.8867176194061 L 112.5 414.91435668795333 L 133.33333333333331 445.0131885992445 L 154.16666666666666 413.1597506259011 L 175.0 468.4841659226817 L 195.83333333333331 470.19348168163117 L 216.66666666666666 458.6888577942168 L 237.5 443.16086926550594 L 258.3333333333333 464.3473013167353 L 279.16666666666663 442.86723754604515 L 300.0 431.9140808872094 L 320.8333333333333 429.3346377043273 L 341.66666666666663 426.9258303676286 L 362.5 444.52231765523425 L 383.3333333333333 550.0 L 404.16666666666663 451.8607026148188 L 425.0 422.2595900847112 L 445.8333333333333 466.79628316598377 L 466.66666666666663 511.7052330462639 L 487.5 433.5915853625787 L 508.3333333333333 437.09454012531336 L 529.1666666666666 449.87468072330074 L 550.0 490.59526619804564" style="stroke:rgb(40%,76.1%,64.7%);stroke-opacity:1.0;stroke-width:2.0" /></g><g class="toyplot-Series"><path d="M 50.0 301.55049018085964 L 70.83333333333334 306.9601783792496 L 91.66666666666666 294.2109241241684 L 112.5 297.11931646247206 L 133.33333333333331 315.9629696571233 L 154.16666666666666 296.8585574410175 L 175.0 301.3679892471779 L 195.83333333333331 304.6390007914662 L 216.66666666666666 306.6518156276181 L 237.5 302.47394709605067 L 258.3333333333333 316.3011871254984 L 279.16666666666663 298.3530655654977 L 300.0 297.248216316373 L 320.8333333333333 296.3744367184325 L 341.66666666666663 304.0675703641723 L 362.5 297.6050207926308 L 383.3333333333333 299.70382896787066 L 404.16666666666663 306.6800804882654 L 425.0 300.1312157751189 L 445.8333333333333 294.82148296018937 L 466.66666666666663 306.6914184053187 L 487.5 302.3368822409181 L 508.3333333333333 297.6534288129743 L 529.1666666666666 298.97398238937734 L 550.0 292.99175558322753" style="stroke:rgb(98.8%,55.3%,38.4%);stroke-opacity:1.0;stroke-width:2.0" /></g><g class="toyplot-Series"><path d="M 50.0 152.08477514583717 L 70.83333333333334 153.6830628858972 L 91.66666666666666 128.42734772295967 L 112.5 136.4247144295509 L 133.33333333333331 172.1189826847271 L 154.16666666666666 170.2859454858234 L 175.0 186.35436715795026 L 195.83333333333331 135.523300232287 L 216.66666666666666 136.09915040537402 L 237.5 163.97719840679844 L 258.3333333333333 186.94438228156008 L 279.16666666666663 131.82048993323517 L 300.0 140.2244771698334 L 320.8333333333333 105.47367859592862 L 341.66666666666663 166.03733707312526 L 362.5 144.4552961305448 L 383.3333333333333 168.4017244183474 L 404.16666666666663 164.95267326068765 L 425.0 141.94484038351976 L 445.8333333333333 148.07138561179835 L 466.66666666666663 171.79323119133937 L 487.5 138.5737613144663 L 508.3333333333333 99.45068015258374 L 529.1666666666666 123.9964575195028 L 550.0 169.4753343541355" style="stroke:rgb(55.3%,62.7%,79.6%);stroke-opacity:1.0;stroke-width:2.0" /></g></g></g><g class="toyplot-coordinates-Axis" id="tf500c26cc7aa4f51bc4e5857fb9ca172" transform="translate(50.0,550.0)translate(0,10.0)"><line style="" x1="0" x2="500.0" y1="0" y2="0" /><g><g transform="translate(0.0,6)"><text style="fill:rgb(16.1%,15.3%,14.1%);fill-opacity:1.0;font-family:helvetica;font-size:10.0px;font-weight:normal;stroke:none;vertical-align:baseline;white-space:pre" x="-6.95" y="8.555">0.0</text></g><g transform="translate(250.0,6)"><text style="fill:rgb(16.1%,15.3%,14.1%);fill-opacity:1.0;font-family:helvetica;font-size:10.0px;font-weight:normal;stroke:none;vertical-align:baseline;white-space:pre" x="-6.95" y="8.555">0.5</text></g><g transform="translate(500.0,6)"><text style="fill:rgb(16.1%,15.3%,14.1%);fill-opacity:1.0;font-family:helvetica;font-size:10.0px;font-weight:normal;stroke:none;vertical-align:baseline;white-space:pre" x="-6.95" y="8.555">1.0</text></g></g><g class="toyplot-coordinates-Axis-coordinates" style="visibility:hidden" transform=""><line style="stroke:rgb(43.9%,50.2%,56.5%);stroke-opacity:1.0;stroke-width:1.0" x1="0" x2="0" y1="-3.0" y2="4.5" /><text style="alignment-baseline:alphabetic;fill:rgb(43.9%,50.2%,56.5%);fill-opacity:1.0;font-size:10px;font-weight:normal;stroke:none;text-anchor:middle" x="0" y="-6" /></g></g><g class="toyplot-coordinates-Axis" id="t40b285efec624d9cbf6ebf86ce900814" transform="translate(50.0,550.0)rotate(-90.0)translate(0,-10.0)"><line style="" x1="0" x2="450.54931984741626" y1="0" y2="0" /><g><g transform="translate(24.165925726734965,-6)"><text style="fill:rgb(16.1%,15.3%,14.1%);fill-opacity:1.0;font-family:helvetica;font-size:10.0px;font-weight:normal;stroke:none;vertical-align:baseline;white-space:pre" x="-4.445" y="-4.440892098500626e-16">-2</text></g><g transform="translate(182.77728381782333,-6)"><text style="fill:rgb(16.1%,15.3%,14.1%);fill-opacity:1.0;font-family:helvetica;font-size:10.0px;font-weight:normal;stroke:none;vertical-align:baseline;white-space:pre" x="-2.78" y="-4.440892098500626e-16">0</text></g><g transform="translate(341.38864190891167,-6)"><text style="fill:rgb(16.1%,15.3%,14.1%);fill-opacity:1.0;font-family:helvetica;font-size:10.0px;font-weight:normal;stroke:none;vertical-align:baseline;white-space:pre" x="-2.78" y="-4.440892098500626e-16">2</text></g><g transform="translate(500.0,-6)"><text style="fill:rgb(16.1%,15.3%,14.1%);fill-opacity:1.0;font-family:helvetica;font-size:10.0px;font-weight:normal;stroke:none;vertical-align:baseline;white-space:pre" x="-2.78" y="-4.440892098500626e-16">5</text></g></g><g class="toyplot-coordinates-Axis-coordinates" style="visibility:hidden" transform=""><line style="stroke:rgb(43.9%,50.2%,56.5%);stroke-opacity:1.0;stroke-width:1.0" x1="0" x2="0" y1="3.0" y2="-4.5" /><text style="alignment-baseline:hanging;fill:rgb(43.9%,50.2%,56.5%);fill-opacity:1.0;font-size:10px;font-weight:normal;stroke:none;text-anchor:middle" x="0" y="6" /></g></g></g></svg>