<svg class="toyplot-canvas-Canvas" height="600px" id="tf9ea75edc4704af18c5da58bba5879da" preserveAspectRatio="xMidYMid meet" style="background-color:transparent;fill:rgb(16.1%,15.3%,14.1%);fill-opacity:1.0;font-family:Helvetica;font-size:12px;opacity:1.0;stroke:rgb(16.1%,15.3%,14.1%);stroke-opacity:1.0;stroke-width:1.0" viewBox="0 0 600 600" width="600px" xmlns="http://www.w3.org/2000/svg" xmlns:toyplot="http://www.sandia.gov/toyplot"><g class="toyplot-axes-Cartesian" id="t00caec370af7471b8a4b24150de7c784"><clipPath id="t9cc8e13f8a634af083fb1e6992dd7c00"><rect height="520.0" width="520.0" x="40.0" y="40.0" /></clipPath><g clip-path="url(#t9cc8e13f8a634af083fb1e6992dd7c00)"><g class="toyplot-mark-Plot" id="tdf82f8f80abf447893bbc14678bae0c9" style="fill:none"><g class="toyplot-Series"><path d="M 50.0 300.0 L 60.204081632653057 249.33301586294976 L 70.408163265306115 200.7689627687694 L 80.612244897959187 156.32348969595523 L 90.816326530612244 117.84130413266243 L 101.0204081632653 86.91960757009538 L 111.22448979591836 64.841803721878321 L 121.42857142857143 52.524230906969017 L 131.63265306122449 50.478129466320418 L 141.83673469387756 58.788422754059219 L 152.0408163265306 77.110192397249094 L 162.24489795918367 104.68299411843402 L 172.44897959183672 140.36241994334947 L 182.65306122448982 182.66759680569973 L 192.85714285714286 229.84265012141077 L 203.0612244897959 279.92958128929666 L 213.26530612244898 330.84953434054472 L 223.46938775510202 380.48907876815468 L 233.67346938775512 426.7879273711286 L 243.87755102040816 467.82444838798307 L 254.08163265306123 501.89542274208412 L 264.28571428571428 527.58673607769572 L 274.48979591836735 543.8320715167614 L 284.69387755102042 549.95716709602243 L 294.89795918367344 545.70780098140767 L 305.10204081632656 531.26034293455075 L 315.30612244897964 507.21443409326065 L 325.51020408163265 474.56809889134985 L 335.71428571428572 434.67632209653908 L 345.91836734693879 389.19481022473451 L 356.12244897959187 340.01127151081261 L 366.32653061224488 289.16706665782914 L 376.5306122448979 238.77248224700517 L 386.73469387755097 190.91914338204515 L 396.93877551020404 147.59320087729196 L 407.14285714285717 110.59289615181996 L 417.34693877551024 81.453925295066625 L 427.55102040816325 61.385700065312029 L 437.75510204081633 51.221151305584094 L 447.9591836734694 51.382158184095815 L 458.16326530612247 61.862038117134936 L 468.36734693877554 82.22582412941982 L 478.57142857142856 111.62831814009061 L 488.77551020408163 148.84917087346145 L 498.97959183673464 192.34353240431562 L 509.18367346938777 240.30617108899227 L 519.38775510204084 290.74639962873437 L 529.59183673469386 341.57069846218906 L 539.79591836734687 390.66960720663724 L 550.0 436.0052777223425" style="stroke:rgb(40%,76.1%,64.7%);stroke-opacity:1.0;stroke-width:2.0" /></g></g></g><g class="toyplot-axes-Axis" id="tb35836ac80924defb59ba540c6ec279a" transform="translate(50.0,550.0) rotate(-90.0) translate(0,-10.0)"><line style="" x1="0.04283290397760764" x2="499.5218705336796" y1="0" y2="0" /><g><text style="dominant-baseline:alphabetic;font-size:10px;font-weight:normal;stroke:none;text-anchor:middle" transform="translate(0.0,-6)"><tspan style="dominant-baseline:inherit">-1.0</tspan></text><text style="dominant-baseline:alphabetic;font-size:10px;font-weight:normal;stroke:none;text-anchor:middle" transform="translate(125.0,-6)"><tspan style="dominant-baseline:inherit">-0.5</tspan></text><text style="dominant-baseline:alphabetic;font-size:10px;font-weight:normal;stroke:none;text-anchor:middle" transform="translate(250.0,-6)"><tspan style="dominant-baseline:inherit">0.0</tspan></text><text style="dominant-baseline:alphabetic;font-size:10px;font-weight:normal;stroke:none;text-anchor:middle" transform="translate(375.0,-6)"><tspan style="dominant-baseline:inherit">0.5</tspan></text><text style="dominant-baseline:alphabetic;font-size:10px;font-weight:normal;stroke:none;text-anchor:middle" transform="translate(500.0,-6)"><tspan style="dominant-baseline:inherit">1.0</tspan></text></g><g class="toyplot-axes-Axis-coordinates" style="visibility:hidden" transform=""><line style="stroke:rgb(43.9%,50.2%,56.5%);stroke-opacity:1.0;stroke-width:1.0" x1="0" x2="0" y1="3.0" y2="-4.5" /><text style="alignment-baseline:hanging;fill:rgb(43.9%,50.2%,56.5%);fill-opacity:1.0;font-size:10px;font-weight:normal;stroke:none;text-anchor:middle" x="0" y="6" /></g></g></g></svg>