<svg height="600px" id="t5830e04e0362464db06afc93d4724051" style="background-color:transparent;fill:#292724;fill-opacity:1.0;font-family:helvetica;font-size:12px;opacity:1.0;stroke:#292724;stroke-opacity:1.0;stroke-width:1.0" width="600px" xmlns="http://www.w3.org/2000/svg" xmlns:toyplot="http://www.sandia.gov/toyplot"><g class="toyplot-axes-Cartesian" id="ta15cd9693afd48b0ad3874593d9d8b2b"><toyplot:axes>{"x": [{"domain": {"max": 1.0, "min": 0.0}, "range": {"max": 540, "min": 60}, "scale": "linear"}], "y": [{"domain": {"max": 4.2205684266919761, "min": 0.70133347458152118}, "range": {"max": 540, "min": 60}, "scale": "linear"}]}</toyplot:axes><clipPath id="t6f2242dc6bca4f2b966e855f451544c1"><rect height="500" width="500" x="50" y="50" /></clipPath><g class="toyplot-coordinate-events" clip-path="url(#t6f2242dc6bca4f2b966e855f451544c1)" style="cursor:crosshair"><rect height="500" style="pointer-events:all;visibility:hidden" width="500" x="50" y="50" /><g class="toyplot-mark-FillBoundaries" id="tfc0a46d90c1345d2b242958f8d97621d" style="stroke:none"><toyplot:data-table title="Fill Data">{"data": [[0.0, 0.02040816326530612, 0.04081632653061224, 0.061224489795918366, 0.08163265306122448, 0.1020408163265306, 0.12244897959183673, 0.14285714285714285, 0.16326530612244897, 0.18367346938775508, 0.2040816326530612, 0.22448979591836732, 0.24489795918367346, 0.26530612244897955, 0.2857142857142857, 0.3061224489795918, 0.32653061224489793, 0.3469387755102041, 0.36734693877551017, 0.3877551020408163, 0.4081632653061224, 0.42857142857142855, 0.44897959183673464, 0.4693877551020408, 0.4897959183673469, 0.5102040816326531, 0.5306122448979591, 0.5510204081632653, 0.5714285714285714, 0.5918367346938775, 0.6122448979591836, 0.6326530612244897, 0.6530612244897959, 0.673469387755102, 0.6938775510204082, 0.7142857142857142, 0.7346938775510203, 0.7551020408163265, 0.7755102040816326, 0.7959183673469387, 0.8163265306122448, 0.836734693877551, 0.8571428571428571, 0.8775510204081632, 0.8979591836734693, 0.9183673469387754, 0.9387755102040816, 0.9591836734693877, 0.9795918367346939, 1.0], [1.0351122831254365, 0.9498458768684002, 1.1507970320775929, 1.1049555429606308, 0.807945709909621, 1.1090655736764765, 1.037988825762077, 0.9864318063963854, 0.9547062279072969, 1.0205569428537036, 0.802614794891213, 1.0855094402685852, 1.1029238496529725, 1.1166961861435067, 0.9954385766896854, 1.097299969992776, 1.06421898196488, 0.9542607229165534, 1.0574825979443427, 1.1411735277559425, 0.9540820169715661, 1.022717331251831, 1.0965369726115335, 1.075722675446814, 1.1700133189124973, 1.0453093592076066, 0.973397497590803, 1.0309941396372841, 0.9602224053841464, 1.1218866073455147, 1.0020626355947773, 1.0357697627121683, 0.9533595086475567, 1.0361813408882299, 0.7013334745815212, 1.1546929617170507, 1.029927852857588, 1.0627818217908453, 0.9234110359208207, 0.9113895749450291, 0.9891268025699628, 1.0534278178269016, 1.2056927511887974, 0.985674998141523, 1.0606920143135579, 1.11934969390231, 0.9541983472224251, 1.0356685750175452, 0.974442252102361, 0.9987763290331094], [3.390960515463033, 3.365768628840039, 3.7638440798495663, 3.6377912107038637, 3.0751854067317823, 3.1040773666293053, 2.850810168972202, 3.6519991181342113, 3.6429226847057117, 3.2035145562945293, 2.84151047047156, 3.7103620617407675, 3.5779001224171667, 4.125635148964697, 3.1710430692093534, 3.511214813564921, 3.1337760762638616, 3.1881393198419006, 3.5507841069818413, 3.4542187458687965, 3.0803198355852417, 3.603918370341428, 4.220568426691976, 3.833682870980027, 3.116854054589167, 3.2712432023610916, 3.563992529670414, 2.846290228666585, 3.3572655370054134, 3.6798537090318453, 3.0229458307277604, 3.371181285335491, 3.7144044555237934, 3.231617110038247, 2.4072213865592937, 3.261312546932776, 3.0044388984911894, 3.3703062846551894, 2.981986669443329, 2.7637444096204105, 3.5802651261555125, 3.1150205552327854, 3.1323872830147343, 3.1335462075806086, 3.8516509113226447, 3.2507940351442364, 3.4033886229870745, 4.001146969754897, 3.904142634559703, 3.1137091235319296]], "names": ["x", "y0", "y1"]}</toyplot:data-table><polygon points="60.0,494.47481333833639 69.795918367346943,506.10457820493991 79.591836734693871,478.69619092390076 89.387755102040813,484.94866200797725 99.183673469387742,525.45880748121135 108.9795918367347,484.38808143565063 118.77551020408163,494.08247225160119 128.57142857142856,501.11450325614987 138.36734693877548,505.44165898231984 148.16326530612244,496.46006394692165 157.9591836734694,526.18590846868631 167.75510204081633,487.60097974725869 177.55102040816325,485.2257713231968 187.34693877551018,483.34731716898011 197.14285714285714,499.88604030905634 206.93877551020407,485.99283071923838 216.734693877551,490.50485519883949 226.53061224489795,505.50242286949049 236.32653061224488,491.42365271416838 246.12244897959184,480.00877224832249 255.91836734693877,505.52679715957373 265.71428571428567,496.16540148612762 275.51020408163265,486.09689843508579 285.30612244897958,488.93582870686936 295.10204081632651,476.07521852328784 304.89795918367349,493.08400067989015 314.69387755102036,502.8922953933095 324.48979591836735,495.03650043829191 334.28571428571428,504.68928944038294 344.08163265306121,482.63937859401517 353.87755102040813,498.98256318470652 363.67346938775506,494.38513754063439 373.46938775510199,505.62534244008037 383.26530612244898,494.32900104301541 393.0612244897959,540.0 402.85714285714283,478.16481229974323 412.65306122448976,495.18193479013797 422.44897959183669,490.70087418959287 432.24489795918367,509.71011288151186 442.04081632653055,511.34975938051002 451.83673469387753,500.7469238870766 461.63265306122446,491.97669747612855 471.42857142857139,471.2087837084274 481.22448979591837,501.21772681674673 491.02040816326524,490.98590988705217 500.81632653061217,482.98539654090104 510.61224489795916,505.51093049503663 520.40816326530603,494.39893886225116 530.20408163265301,502.7497978981516 540.0,499.43079331741041 540.0,210.96817141981691 530.20408163265301,103.15835182655464 520.40816326530603,89.92761232569508 510.61224489795916,171.45783419294753 500.81632653061217,192.27071061673891 491.02040816326524,110.31787015842335 481.22448979591837,208.26252645068638 471.42857142857139,208.42059597408837 461.63265306122446,210.78930094797377 451.83673469387753,147.33306768085777 442.04081632653055,258.70100681257497 432.24489795918367,228.93422904964692 422.44897959183669,175.97004284493937 412.65306122448976,225.87189587507149 402.85714285714283,190.83605628782823 393.0612244897959,307.32835150483834 383.26530612244898,194.88631434201869 373.46938775510199,129.03736450305129 363.67346938775506,175.85069863170548 353.87755102040813,223.34767467516929 344.08163265306121,133.74985416112017 334.28571428571428,177.7487131971813 324.48979591836735,247.4423117605715 314.69387755102036,149.55254049785825 304.89795918367349,189.48158161635658 295.10204081632651,210.53922395594594 285.30612244897958,112.76859012506961 275.51020408163265,60.0 265.71428571428567,144.10692411166221 255.91836734693877,215.52224593672267 246.12244897959184,164.52494698443792 236.32653061224488,151.35408059870113 226.53061224489795,200.81639277617697 216.734693877551,208.23117390689123 206.93877551020407,156.75106633525496 197.14285714285714,203.14820648435278 187.34693877551018,72.948261178688 177.55102040816325,147.65563829914657 167.75510204081633,129.58871985222703 157.9591836734694,248.09423866083034 148.16326530612244,198.71931383780262 138.36734693877548,138.78699772151631 128.57142857142856,137.54903319088243 118.77551020408163,246.82582227458386 108.9795918367347,212.28187834083025 99.183673469387742,216.2225475315856 89.387755102040813,139.48689629447455 79.591836734693871,122.29413195413045 69.795918367346943,176.58894860738815 60.0,173.15294454866915" style="fill:rgba(40%,76.1%,64.7%,1);opacity:1.0;stroke:none" /></g></g><g class="toyplot-coordinates" style="visibility:hidden"><rect height="14" style="fill:white;opacity:0.75;stroke:none" width="90" x="450" y="60" /><text style="alignment-baseline:middle;font-size:10px;font-weight:normal;stroke:none;text-anchor:middle" x="495.0" y="67.0" /></g><line style="" x1="60.0" x2="540.0" y1="550" y2="550" /><g><text style="alignment-baseline:middle;baseline-shift:-80%;font-size:10px;font-weight:normal;stroke:none;text-anchor:middle" x="60.0" y="550">0.0</text><text style="alignment-baseline:middle;baseline-shift:-80%;font-size:10px;font-weight:normal;stroke:none;text-anchor:middle" x="300.0" y="550">0.5</text><text style="alignment-baseline:middle;baseline-shift:-80%;font-size:10px;font-weight:normal;stroke:none;text-anchor:middle" x="540.0" y="550">1.0</text></g><line style="" x1="50" x2="50" y1="60.0" y2="540.0" /><g><text style="alignment-baseline:middle;baseline-shift:80%;font-size:10px;font-weight:normal;stroke:none;text-anchor:middle" transform="rotate(-90, 50, 499.26389281997263)" x="50" y="499.26389281997263">1</text><text style="alignment-baseline:middle;baseline-shift:80%;font-size:10px;font-weight:normal;stroke:none;text-anchor:middle" transform="rotate(-90, 50, 362.87061231105179)" x="50" y="362.87061231105179">2</text><text style="alignment-baseline:middle;baseline-shift:80%;font-size:10px;font-weight:normal;stroke:none;text-anchor:middle" transform="rotate(-90, 50, 226.47733180213089)" x="50" y="226.47733180213089">3</text><text style="alignment-baseline:middle;baseline-shift:80%;font-size:10px;font-weight:normal;stroke:none;text-anchor:middle" transform="rotate(-90, 50, 90.084051293210024)" x="50" y="90.084051293210024">4</text></g></g></svg>