<svg class="toyplot-canvas-Canvas" height="600px" id="t99e3941717e249bbae2eef2475f348ed" preserveAspectRatio="xMidYMid meet" style="background-color:transparent;border-color:#292724;border-style:none;border-width:1.0;fill:rgb(16.1%,15.3%,14.1%);fill-opacity:1.0;font-family:Helvetica;font-size:12px;opacity:1.0;stroke:rgb(16.1%,15.3%,14.1%);stroke-opacity:1.0;stroke-width:1.0" viewBox="0 0 600 600" width="600px" xmlns="http://www.w3.org/2000/svg" xmlns:toyplot="http://www.sandia.gov/toyplot" xmlns:xlink="http://www.w3.org/1999/xlink"><g class="toyplot-coordinates-Cartesian" id="tbe001c4fcfb644438df5634cfab2c225"><clipPath id="tcb6888a9114243929ecec9e44e561a38"><rect height="520.0" width="520.0" x="40.0" y="40.0" /></clipPath><g clip-path="url(#tcb6888a9114243929ecec9e44e561a38)"><g class="toyplot-mark-FillMagnitudes" id="tda2e72ad454c4a9b834e3b497ddc9c44" style="stroke:none"><polygon points="50.0,550.0 60.0,550.0 70.0,550.0 80.0,550.0 90.0,550.0 100.0,550.0 110.0,550.0 120.00000000000001,550.0 130.0,550.0 140.0,550.0 150.0,550.0 160.0,550.0 170.0,550.0 180.0,550.0 190.00000000000003,550.0 200.0,550.0 210.0,550.0 220.0,550.0 230.0,550.0 240.0,550.0 250.0,550.0 260.0,550.0 270.0,550.0 280.0,550.0 290.0,550.0 300.0,550.0 310.0,550.0 320.0,550.0 330.00000000000006,550.0 340.0,550.0 350.0,550.0 360.0,550.0 370.0,550.0 380.0,550.0 390.0,550.0 400.0,550.0 410.0,550.0 420.0,550.0 430.0,550.0 440.0,550.0 450.0,550.0 460.0,550.0 470.0,550.0 480.0,550.0 490.0,550.0 500.0,550.0 510.0,550.0 520.0,550.0 530.0,550.0 540.0,550.0 540.0,326.8799371042255 530.0,332.31600984391025 520.0,318.6384519937581 510.0,336.8383650487437 500.0,299.9446404105057 490.0,313.0483802356499 480.0,329.80668825718783 470.0,280.65616929603266 460.0,314.6711539537246 450.0,329.0355778505936 440.0,346.40156321971966 430.0,343.71604790357844 420.0,312.5815309900097 410.0,319.92089156722784 400.0,292.04918683542826 390.0,393.3267144896926 380.0,318.5239034707382 370.0,337.02575606927905 360.0,318.6158473282967 350.0,326.1457978325791 340.0,299.3779106327215 330.00000000000006,335.49263007599734 320.0,319.6826901136741 310.0,332.54940113038083 300.0,316.48476421369884 290.0,288.6267198008491 280.0,309.69062939601633 270.0,305.0408523062655 260.0,321.5316746699324 250.0,336.86435246167474 240.0,295.06933946423345 230.0,313.7653427440138 220.0,336.8244307289241 210.0,312.2604788594167 200.0,304.8704037095743 190.00000000000003,327.62556902515445 180.0,300.53741659154696 170.0,303.61406598207117 160.0,307.5043305029562 150.0,370.7011336656637 140.0,322.01429122907336 130.0,336.72490784410434 120.00000000000001,329.6376222706237 110.0,318.1201232378543 100.0,302.2420452296978 90.0,369.51024231229064 80.0,303.1601990597058 70.0,292.91951189312647 60.0,337.81067829938127 50.0,318.76272394369096" style="fill:rgb(40%,76.1%,64.7%);fill-opacity:1.0;opacity:1.0;stroke:none" /><polygon points="50.0,318.76272394369096 60.0,337.81067829938127 70.0,292.91951189312647 80.0,303.1601990597058 90.0,369.51024231229064 100.0,302.2420452296978 110.0,318.1201232378543 120.00000000000001,329.6376222706237 130.0,336.72490784410434 140.0,322.01429122907336 150.0,370.7011336656637 160.0,307.5043305029562 170.0,303.61406598207117 180.0,300.53741659154696 190.00000000000003,327.62556902515445 200.0,304.8704037095743 210.0,312.2604788594167 220.0,336.8244307289241 230.0,313.7653427440138 240.0,295.06933946423345 250.0,336.86435246167474 260.0,321.5316746699324 270.0,305.0408523062655 280.0,309.69062939601633 290.0,288.6267198008491 300.0,316.48476421369884 310.0,332.54940113038083 320.0,319.6826901136741 330.00000000000006,335.49263007599734 340.0,299.3779106327215 350.0,326.1457978325791 360.0,318.6158473282967 370.0,337.02575606927905 380.0,318.5239034707382 390.0,393.3267144896926 400.0,292.04918683542826 410.0,319.92089156722784 420.0,312.5815309900097 430.0,343.71604790357844 440.0,346.40156321971966 450.0,329.0355778505936 460.0,314.6711539537246 470.0,280.65616929603266 480.0,329.80668825718783 490.0,313.0483802356499 500.0,299.9446404105057 510.0,336.8383650487437 520.0,318.6384519937581 530.0,332.31600984391025 540.0,326.8799371042255 540.0,98.00579067102157 530.0,102.03427581370518 520.0,90.62800146381451 510.0,122.00629128878921 500.0,50.0 490.0,83.72908767559778 480.0,117.59500659960926 470.0,77.91591113150233 460.0,84.43140074897698 450.0,86.41538253654659 440.0,139.66022440678518 430.0,97.02211254421812 420.0,97.96573995126369 410.0,120.58282059379084 400.0,92.39042037184066 390.0,205.54723928518254 380.0,89.0407603242754 370.0,104.7545000902529 360.0,83.45872915556208 350.0,108.91222660880402 340.0,63.959100367842765 330.00000000000006,116.34965711153157 320.0,123.37800656258719 310.0,105.05039887686459 300.0,86.64019766478992 290.0,51.373956537839504 280.0,96.81703375343139 270.0,92.8181962389817 260.0,114.86615755819673 250.0,107.83443097559311 240.0,93.13878143684929 230.0,108.87642489556272 220.0,125.12299805879576 210.0,70.01358134476138 200.0,88.71035866170119 190.00000000000003,118.78834089556258 180.0,68.8603576434873 170.0,70.62269075152595 160.0,70.41834559131145 150.0,158.99149072506552 140.0,106.2560995995693 130.0,123.61764534758426 120.00000000000001,100.0836411058332 110.0,87.26168893947101 100.0,92.15527320624295 90.0,171.0337164570131 80.0,90.5980886728432 70.0,82.66379204738368 60.0,119.20713170669396 50.0,96.33327705614826" style="fill:rgb(98.8%,55.3%,38.4%);fill-opacity:1.0;opacity:1.0;stroke:none" /></g></g><g class="toyplot-coordinates-Axis" id="t77374135fb2b4c9f8b659eac9bccee31" transform="translate(50.0,550.0)translate(0,10.0)"><line style="" x1="0" x2="490.0" y1="0" y2="0" /><g><g transform="translate(0.0,6)"><text style="fill:rgb(16.1%,15.3%,14.1%);fill-opacity:1.0;font-family:helvetica;font-size:10.0px;font-weight:normal;stroke:none;vertical-align:baseline;white-space:pre" x="-2.78" y="8.555">0</text></g><g transform="translate(100.0,6)"><text style="fill:rgb(16.1%,15.3%,14.1%);fill-opacity:1.0;font-family:helvetica;font-size:10.0px;font-weight:normal;stroke:none;vertical-align:baseline;white-space:pre" x="-5.56" y="8.555">10</text></g><g transform="translate(200.0,6)"><text style="fill:rgb(16.1%,15.3%,14.1%);fill-opacity:1.0;font-family:helvetica;font-size:10.0px;font-weight:normal;stroke:none;vertical-align:baseline;white-space:pre" x="-5.56" y="8.555">20</text></g><g transform="translate(300.0,6)"><text style="fill:rgb(16.1%,15.3%,14.1%);fill-opacity:1.0;font-family:helvetica;font-size:10.0px;font-weight:normal;stroke:none;vertical-align:baseline;white-space:pre" x="-5.56" y="8.555">30</text></g><g transform="translate(400.0,6)"><text style="fill:rgb(16.1%,15.3%,14.1%);fill-opacity:1.0;font-family:helvetica;font-size:10.0px;font-weight:normal;stroke:none;vertical-align:baseline;white-space:pre" x="-5.56" y="8.555">40</text></g><g transform="translate(500.0,6)"><text style="fill:rgb(16.1%,15.3%,14.1%);fill-opacity:1.0;font-family:helvetica;font-size:10.0px;font-weight:normal;stroke:none;vertical-align:baseline;white-space:pre" x="-5.56" y="8.555">50</text></g></g><g class="toyplot-coordinates-Axis-coordinates" style="visibility:hidden" transform=""><line style="stroke:rgb(43.9%,50.2%,56.5%);stroke-opacity:1.0;stroke-width:1.0" x1="0" x2="0" y1="-3.0" y2="4.5" /><text style="alignment-baseline:alphabetic;fill:rgb(43.9%,50.2%,56.5%);fill-opacity:1.0;font-size:10px;font-weight:normal;stroke:none;text-anchor:middle" x="0" y="-6" /></g></g><g class="toyplot-coordinates-Axis" id="t0ef6d0c785b34f75992b3045db1b425f" transform="translate(50.0,550.0)rotate(-90.0)translate(0,-10.0)"><line style="" x1="0" x2="500.0" y1="0" y2="0" /><g><g transform="translate(0.0,-6)"><text style="fill:rgb(16.1%,15.3%,14.1%);fill-opacity:1.0;font-family:helvetica;font-size:10.0px;font-weight:normal;stroke:none;vertical-align:baseline;white-space:pre" x="-2.78" y="-4.440892098500626e-16">0</text></g><g transform="translate(223.3934229416224,-6)"><text style="fill:rgb(16.1%,15.3%,14.1%);fill-opacity:1.0;font-family:helvetica;font-size:10.0px;font-weight:normal;stroke:none;vertical-align:baseline;white-space:pre" x="-2.78" y="-4.440892098500626e-16">1</text></g><g transform="translate(446.7868458832448,-6)"><text style="fill:rgb(16.1%,15.3%,14.1%);fill-opacity:1.0;font-family:helvetica;font-size:10.0px;font-weight:normal;stroke:none;vertical-align:baseline;white-space:pre" x="-2.78" y="-4.440892098500626e-16">2</text></g></g><g class="toyplot-coordinates-Axis-coordinates" style="visibility:hidden" transform=""><line style="stroke:rgb(43.9%,50.2%,56.5%);stroke-opacity:1.0;stroke-width:1.0" x1="0" x2="0" y1="3.0" y2="-4.5" /><text style="alignment-baseline:hanging;fill:rgb(43.9%,50.2%,56.5%);fill-opacity:1.0;font-size:10px;font-weight:normal;stroke:none;text-anchor:middle" x="0" y="6" /></g></g></g></svg>