<svg class="toyplot-canvas-Canvas" height="600px" id="t6d23cfe0b29b48b69ca1b8bfecfe8856" preserveAspectRatio="xMidYMid meet" style="background-color:transparent;border-color:#292724;border-style:none;border-width:1.0;fill:rgb(16.1%,15.3%,14.1%);fill-opacity:1.0;font-family:Helvetica;font-size:12px;opacity:1.0;stroke:rgb(16.1%,15.3%,14.1%);stroke-opacity:1.0;stroke-width:1.0" viewBox="0 0 600 600" width="600px" xmlns="http://www.w3.org/2000/svg" xmlns:toyplot="http://www.sandia.gov/toyplot" xmlns:xlink="http://www.w3.org/1999/xlink"><g class="toyplot-coordinates-Cartesian" id="t542772ac117a40f0abee74ef88abf8cd"><clipPath id="tb5d6d33bf786435683f5cab907954cce"><rect height="520.0" width="520.0" x="40.0" y="40.0" /></clipPath><g clip-path="url(#tb5d6d33bf786435683f5cab907954cce)"><g class="toyplot-mark-FillMagnitudes" id="t873207d37fd54367bbb8ceaf4fefd852" style="stroke:none"><polygon points="50.0,519.0074855416957 60.0,513.3230584578934 70.0,526.7198021385062 80.0,523.6637028640421 90.0,503.8630473273081 100.0,523.9377049117652 110.0,519.199255050805 120.00000000000001,515.7621204264257 130.0,513.6470818604864 140.0,518.0371295235802 150.0,503.5076529927475 160.0,522.3672960179057 170.0,523.5282566435314 180.0,524.4464124095671 190.00000000000003,516.3625717793122 200.0,523.1533313328516 210.0,520.947932130992 220.0,513.6173815277702 230.0,520.4988398629562 240.0,526.0782351837295 250.0,513.6054677981044 260.0,518.1811554167888 270.0,523.1024648407689 280.0,521.7148450297876 290.0,528.0008879274999 300.0,519.6872906138404 310.0,514.8931665060535 320.0,518.7329426424856 330.00000000000006,514.0148270256097 340.0,524.792440489701 350.0,516.8041757063185 360.0,519.0513175141444 370.0,513.5573005765037 380.0,519.0787560592154 390.0,496.75556497210135 400.0,526.9795307811368 410.0,518.6618568571726 420.0,520.852121452723 430.0,511.5607357280547 440.0,510.7593049963353 450.0,515.9417868379975 460.0,520.2285211884601 470.0,530.3795167459198 480.0,515.7116665427682 490.0,520.7128009542372 500.0,524.6233129268206 510.0,513.6132231481616 520.0,519.0445716678363 530.0,514.9628168068241 540.0,516.5850886022072 540.0,316.8298227955854 530.0,320.07436638635187 520.0,311.9108566643273 510.0,322.7735537036766 500.0,300.7533741463587 490.0,308.5743980915256 480.0,318.5766669144636 470.0,289.2409665081604 460.0,309.54295762307976 450.0,318.116426324005 440.0,328.4813900073294 430.0,326.8785285438905 420.0,308.2957570945539 410.0,312.67628628565495 400.0,296.04093843772654 390.0,356.4888700557972 380.0,311.84248788156935 370.0,322.88539884699253 360.0,311.8973649717109 350.0,316.391648587363 340.0,300.41511902059796 330.00000000000006,321.97034594878045 320.0,312.53411471502875 310.0,320.21366698789296 300.0,310.6254187723191 290.0,293.9982241450004 280.0,306.57030994042475 270.0,303.7950703184622 260.0,313.63768916642255 250.0,322.7890644037912 240.0,297.843529632541 230.0,309.0023202740876 220.0,322.76523694445956 210.0,308.104135738016 200.0,303.6933373342966 190.00000000000003,317.2748564413753 180.0,301.10717518086574 170.0,302.943486712937 160.0,305.26540796418857 150.0,342.9846940145049 140.0,313.92574095283953 130.0,322.7058362790271 120.00000000000001,318.4757591471486 110.0,311.60148989838973 100.0,302.12459017646984 90.0,342.2739053453839 80.0,302.6725942719159 70.0,296.5603957229876 60.0,323.35388308421335 50.0,311.9850289166085" style="fill:rgb(40%,76.1%,64.7%);fill-opacity:1.0;opacity:1.0;stroke:none" /><polygon points="50.0,311.9850289166085 60.0,323.35388308421335 70.0,296.5603957229876 80.0,302.6725942719159 90.0,342.2739053453839 100.0,302.12459017646984 110.0,311.60148989838973 120.00000000000001,318.4757591471486 130.0,322.7058362790271 140.0,313.92574095283953 150.0,342.9846940145049 160.0,305.26540796418857 170.0,302.943486712937 180.0,301.10717518086574 190.00000000000003,317.2748564413753 200.0,303.6933373342966 210.0,308.104135738016 220.0,322.76523694445956 230.0,309.0023202740876 240.0,297.843529632541 250.0,322.7890644037912 260.0,313.63768916642255 270.0,303.7950703184622 280.0,306.57030994042475 290.0,293.9982241450004 300.0,310.6254187723191 310.0,320.21366698789296 320.0,312.53411471502875 330.00000000000006,321.97034594878045 340.0,300.41511902059796 350.0,316.391648587363 360.0,311.8973649717109 370.0,322.88539884699253 380.0,311.84248788156935 390.0,356.4888700557972 400.0,296.04093843772654 410.0,312.67628628565495 420.0,308.2957570945539 430.0,326.8785285438905 440.0,328.4813900073294 450.0,318.116426324005 460.0,309.54295762307976 470.0,289.2409665081604 480.0,318.5766669144636 490.0,308.5743980915256 500.0,300.7533741463587 510.0,322.7735537036766 520.0,311.9108566643273 530.0,320.07436638635187 540.0,316.8298227955854 540.0,111.92303241705775 530.0,113.90738886492076 520.0,107.77731725432622 510.0,130.43837128776926 500.0,76.98256019914442 490.0,103.26907661840573 480.0,128.5874730848546 470.0,107.73136296221271 460.0,103.41356475826453 450.0,100.9030526093731 440.0,143.38969295503043 430.0,106.01801070865707 420.0,116.15420859889409 410.0,134.21259800999036 400.0,117.29013742084716 390.0,188.3733788010873 380.0,106.39047400877783 370.0,114.93723912008431 360.0,101.36554619548284 350.0,121.90644990669915 340.0,89.6490121541494 330.00000000000006,125.77569520319189 320.0,136.78616209747514 310.0,116.53801776077428 300.0,104.84982921167897 290.0,81.5902130774507 280.0,115.98851676183743 270.0,113.79605130281087 260.0,128.6138738809189 250.0,117.74281150141076 240.0,117.05883564434511 230.0,125.56906145160835 220.0,133.23285959649212 210.0,91.22496863920688 200.0,110.16924678453995 190.00000000000003,130.3067484463913 180.0,93.69098906637853 170.0,94.35061753842157 160.0,93.00671047012638 150.0,153.44496616323102 140.0,120.76142233645265 130.0,131.91484548767363 120.00000000000001,112.96032530666534 110.0,104.91820329266756 100.0,114.03778864305565 90.0,164.58154248012275 80.0,112.36966808199878 70.0,108.3223383288921 60.0,127.64217079283293 50.0,112.84805884952787" style="fill:rgb(98.8%,55.3%,38.4%);fill-opacity:1.0;opacity:1.0;stroke:none" /></g></g><g class="toyplot-coordinates-Axis" id="t289b02c70c6e4599a50aa9244f929efe" transform="translate(50.0,550.0)translate(0,10.0)"><line style="" x1="0" x2="490.0" y1="0" y2="0" /><g><g transform="translate(0.0,6)"><text style="fill:rgb(16.1%,15.3%,14.1%);fill-opacity:1.0;font-family:helvetica;font-size:10.0px;font-weight:normal;stroke:none;vertical-align:baseline;white-space:pre" x="-2.78" y="8.555">0</text></g><g transform="translate(100.0,6)"><text style="fill:rgb(16.1%,15.3%,14.1%);fill-opacity:1.0;font-family:helvetica;font-size:10.0px;font-weight:normal;stroke:none;vertical-align:baseline;white-space:pre" x="-5.56" y="8.555">10</text></g><g transform="translate(200.0,6)"><text style="fill:rgb(16.1%,15.3%,14.1%);fill-opacity:1.0;font-family:helvetica;font-size:10.0px;font-weight:normal;stroke:none;vertical-align:baseline;white-space:pre" x="-5.56" y="8.555">20</text></g><g transform="translate(300.0,6)"><text style="fill:rgb(16.1%,15.3%,14.1%);fill-opacity:1.0;font-family:helvetica;font-size:10.0px;font-weight:normal;stroke:none;vertical-align:baseline;white-space:pre" x="-5.56" y="8.555">30</text></g><g transform="translate(400.0,6)"><text style="fill:rgb(16.1%,15.3%,14.1%);fill-opacity:1.0;font-family:helvetica;font-size:10.0px;font-weight:normal;stroke:none;vertical-align:baseline;white-space:pre" x="-5.56" y="8.555">40</text></g><g transform="translate(500.0,6)"><text style="fill:rgb(16.1%,15.3%,14.1%);fill-opacity:1.0;font-family:helvetica;font-size:10.0px;font-weight:normal;stroke:none;vertical-align:baseline;white-space:pre" x="-5.56" y="8.555">50</text></g></g><g class="toyplot-coordinates-Axis-coordinates" style="visibility:hidden" transform=""><line style="stroke:rgb(43.9%,50.2%,56.5%);stroke-opacity:1.0;stroke-width:1.0" x1="0" x2="0" y1="-3.0" y2="4.5" /><text style="alignment-baseline:alphabetic;fill:rgb(43.9%,50.2%,56.5%);fill-opacity:1.0;font-size:10px;font-weight:normal;stroke:none;text-anchor:middle" x="0" y="-6" /></g></g><g class="toyplot-coordinates-Axis" id="t2f429f2b5bac4fda9767b631c4e7b628" transform="translate(50.0,550.0)rotate(-90.0)translate(0,-10.0)"><line style="" x1="19.620483254080177" x2="473.0174398008556" y1="0" y2="0" /><g><g transform="translate(0.0,-6)"><text style="fill:rgb(16.1%,15.3%,14.1%);fill-opacity:1.0;font-family:helvetica;font-size:10.0px;font-weight:normal;stroke:none;vertical-align:baseline;white-space:pre" x="-8.615" y="-4.440892098500626e-16">-0.5</text></g><g transform="translate(100.0,-6)"><text style="fill:rgb(16.1%,15.3%,14.1%);fill-opacity:1.0;font-family:helvetica;font-size:10.0px;font-weight:normal;stroke:none;vertical-align:baseline;white-space:pre" x="-6.95" y="-4.440892098500626e-16">0.0</text></g><g transform="translate(200.0,-6)"><text style="fill:rgb(16.1%,15.3%,14.1%);fill-opacity:1.0;font-family:helvetica;font-size:10.0px;font-weight:normal;stroke:none;vertical-align:baseline;white-space:pre" x="-6.95" y="-4.440892098500626e-16">0.5</text></g><g transform="translate(300.0,-6)"><text style="fill:rgb(16.1%,15.3%,14.1%);fill-opacity:1.0;font-family:helvetica;font-size:10.0px;font-weight:normal;stroke:none;vertical-align:baseline;white-space:pre" x="-6.95" y="-4.440892098500626e-16">1.0</text></g><g transform="translate(400.0,-6)"><text style="fill:rgb(16.1%,15.3%,14.1%);fill-opacity:1.0;font-family:helvetica;font-size:10.0px;font-weight:normal;stroke:none;vertical-align:baseline;white-space:pre" x="-6.95" y="-4.440892098500626e-16">1.5</text></g><g transform="translate(500.0,-6)"><text style="fill:rgb(16.1%,15.3%,14.1%);fill-opacity:1.0;font-family:helvetica;font-size:10.0px;font-weight:normal;stroke:none;vertical-align:baseline;white-space:pre" x="-6.95" y="-4.440892098500626e-16">2.0</text></g></g><g class="toyplot-coordinates-Axis-coordinates" style="visibility:hidden" transform=""><line style="stroke:rgb(43.9%,50.2%,56.5%);stroke-opacity:1.0;stroke-width:1.0" x1="0" x2="0" y1="3.0" y2="-4.5" /><text style="alignment-baseline:hanging;fill:rgb(43.9%,50.2%,56.5%);fill-opacity:1.0;font-size:10px;font-weight:normal;stroke:none;text-anchor:middle" x="0" y="6" /></g></g></g></svg>