<svg height="600px" id="tbd428f6c54454011bac4012f67d2cfd1" style="background-color:transparent;fill:#292724;fill-opacity:1.0;font-family:helvetica;font-size:12px;opacity:1.0;stroke:#292724;stroke-opacity:1.0;stroke-width:1.0" width="600px" xmlns="http://www.w3.org/2000/svg" xmlns:toyplot="http://www.sandia.gov/toyplot"><g class="toyplot-axes-Cartesian" id="t3c23867dd8b34e64b6aa4d82ba429758"><toyplot:axes>{"x": [{"domain": {"bounds": {"max": 1.7976931348623157e+308, "min": -1.7976931348623157e+308}, "max": 50.0, "min": 0}, "range": {"bounds": {"max": 1.7976931348623157e+308, "min": -1.7976931348623157e+308}, "max": 540.0, "min": 60.0}, "scale": "linear"}], "y": [{"domain": {"bounds": {"max": 1.7976931348623157e+308, "min": -1.7976931348623157e+308}, "max": 1.2056927511887974, "min": 0.0}, "range": {"bounds": {"max": 1.7976931348623157e+308, "min": -1.7976931348623157e+308}, "max": 60.0, "min": 540.0}, "scale": "linear"}]}</toyplot:axes><clipPath id="tdf1e9dc30d3a48e89e7c3395d518f4d7"><rect height="500" width="500" x="50" y="50" /></clipPath><g class="toyplot-coordinate-events" clip-path="url(#tdf1e9dc30d3a48e89e7c3395d518f4d7)" style="cursor:crosshair"><rect height="500" style="pointer-events:all;visibility:hidden" width="500" x="50" y="50" /><g class="toyplot-mark-FillMagnitudes" id="tba293e5ba906433784ba288d5b853854" style="stroke:none"><toyplot:data-table title="Fill Data">{"data": [[0, 1, 2, 3, 4, 5, 6, 7, 8, 9, 10, 11, 12, 13, 14, 15, 16, 17, 18, 19, 20, 21, 22, 23, 24, 25, 26, 27, 28, 29, 30, 31, 32, 33, 34, 35, 36, 37, 38, 39, 40, 41, 42, 43, 44, 45, 46, 47, 48, 49], [0.0, 0.0, 0.0, 0.0, 0.0, 0.0, 0.0, 0.0, 0.0, 0.0, 0.0, 0.0, 0.0, 0.0, 0.0, 0.0, 0.0, 0.0, 0.0, 0.0, 0.0, 0.0, 0.0, 0.0, 0.0, 0.0, 0.0, 0.0, 0.0, 0.0, 0.0, 0.0, 0.0, 0.0, 0.0, 0.0, 0.0, 0.0, 0.0, 0.0, 0.0, 0.0, 0.0, 0.0, 0.0, 0.0, 0.0, 0.0, 0.0, 0.0], [1.0351122831254365, 0.9498458768684002, 1.1507970320775929, 1.1049555429606308, 0.807945709909621, 1.1090655736764765, 1.037988825762077, 0.9864318063963854, 0.9547062279072969, 1.0205569428537036, 0.802614794891213, 1.0855094402685852, 1.1029238496529725, 1.1166961861435067, 0.9954385766896854, 1.097299969992776, 1.06421898196488, 0.9542607229165534, 1.0574825979443427, 1.1411735277559425, 0.9540820169715661, 1.022717331251831, 1.0965369726115335, 1.075722675446814, 1.1700133189124973, 1.0453093592076066, 0.973397497590803, 1.0309941396372841, 0.9602224053841464, 1.1218866073455147, 1.0020626355947773, 1.0357697627121683, 0.9533595086475567, 1.0361813408882299, 0.7013334745815212, 1.1546929617170507, 1.029927852857588, 1.0627818217908453, 0.9234110359208207, 0.9113895749450291, 0.9891268025699628, 1.0534278178269016, 1.2056927511887974, 0.985674998141523, 1.0606920143135579, 1.11934969390231, 0.9541983472224251, 1.0356685750175452, 0.974442252102361, 0.9987763290331094]], "names": ["x", "baseline", "y0"]}</toyplot:data-table><polygon points="60.0,540.0 69.599999999999994,540.0 79.199999999999989,540.0 88.799999999999997,540.0 98.400000000000006,540.0 108.0,540.0 117.59999999999999,540.0 127.20000000000002,540.0 136.80000000000001,540.0 146.40000000000001,540.0 156.0,540.0 165.59999999999999,540.0 175.19999999999999,540.0 184.80000000000001,540.0 194.40000000000001,540.0 204.0,540.0 213.60000000000002,540.0 223.20000000000002,540.0 232.80000000000001,540.0 242.39999999999998,540.0 252.0,540.0 261.59999999999997,540.0 271.19999999999999,540.0 280.80000000000001,540.0 290.39999999999998,540.0 300.0,540.0 309.60000000000002,540.0 319.20000000000005,540.0 328.80000000000001,540.0 338.39999999999998,540.0 348.0,540.0 357.60000000000002,540.0 367.20000000000005,540.0 376.80000000000001,540.0 386.40000000000003,540.0 396.0,540.0 405.60000000000002,540.0 415.20000000000005,540.0 424.79999999999995,540.0 434.39999999999998,540.0 444.0,540.0 453.59999999999997,540.0 463.19999999999999,540.0 472.79999999999995,540.0 482.39999999999998,540.0 492.0,540.0 501.60000000000002,540.0 511.19999999999999,540.0 520.79999999999995,540.0 530.40000000000009,540.0 530.40000000000009,142.37578150553043 520.79999999999995,152.06345435190241 511.19999999999999,127.68855869933124 501.60000000000002,160.12278317575766 492.0,94.374153329403399 482.39999999999998,117.72644285328073 472.79999999999995,147.59157037194015 463.19999999999999,60.0 453.59999999999997,120.61840211085863 444.0,146.21736776184946 434.39999999999998,177.16544240456184 424.79999999999995,172.37956203604296 415.20000000000005,116.89446672328498 405.60000000000002,129.97400549667037 396.0,80.303596353466958 386.40000000000003,260.79116552106046 376.80000000000001,127.48442077307595 367.20000000000005,160.45673435489499 357.60000000000002,127.6482747270081 348.0,141.06746547887664 338.39999999999998,93.364179228176013 328.80000000000001,157.72453709293501 319.20000000000005,129.54950459977974 309.60000000000002,152.47938300789986 300.0,123.85045284137797 290.39999999999998,74.204387872231891 280.80000000000001,111.74256566993584 271.19999999999999,103.45615718882453 261.59999999999997,132.84459617356615 252.0,160.16909557197741 242.39999999999998,85.685836808121365 232.80000000000001,119.0041480196296 223.20000000000002,160.09795070235012 213.60000000000002,116.32231690911681 204.0,103.15239925162594 194.40000000000001,143.7045786831396 184.80000000000001,95.430544954027269 175.19999999999999,100.91346878262152 165.59999999999999,107.84634326184865 156.0,220.46991974702865 146.40000000000001,133.70467137106453 136.80000000000001,159.9205900975476 127.20000000000002,147.29027639635993 117.59999999999999,126.76484048316277 108.0,98.468378581676717 98.400000000000006,218.34762183463522 88.799999999999997,100.10462856465185 79.199999999999989,81.854610262355351 69.599999999999994,161.85555113664324 60.0,127.91002482985985" style="fill:rgba(40%,76.1%,64.7%,1);opacity:1.0;stroke:none" /></g></g><g class="toyplot-coordinates" style="visibility:hidden"><rect height="14" style="fill:white;opacity:0.75;stroke:none" width="90" x="450" y="60" /><text style="alignment-baseline:middle;font-size:10px;font-weight:normal;stroke:none;text-anchor:middle" x="495.0" y="67.0" /></g><line style="" x1="60.0" x2="530.4000000000001" y1="550" y2="550" /><g><text style="alignment-baseline:middle;baseline-shift:-80%;font-size:10px;font-weight:normal;stroke:none;text-anchor:middle" x="60.0" y="550">0</text><text style="alignment-baseline:middle;baseline-shift:-80%;font-size:10px;font-weight:normal;stroke:none;text-anchor:middle" x="156.0" y="550">10</text><text style="alignment-baseline:middle;baseline-shift:-80%;font-size:10px;font-weight:normal;stroke:none;text-anchor:middle" x="252.0" y="550">20</text><text style="alignment-baseline:middle;baseline-shift:-80%;font-size:10px;font-weight:normal;stroke:none;text-anchor:middle" x="348.0" y="550">30</text><text style="alignment-baseline:middle;baseline-shift:-80%;font-size:10px;font-weight:normal;stroke:none;text-anchor:middle" x="444.0" y="550">40</text><text style="alignment-baseline:middle;baseline-shift:-80%;font-size:10px;font-weight:normal;stroke:none;text-anchor:middle" x="540.0" y="550">50</text></g><line style="" x1="50" x2="50" y1="60.0" y2="540.0" /><g><text style="alignment-baseline:middle;baseline-shift:80%;font-size:10px;font-weight:normal;stroke:none;text-anchor:middle" transform="rotate(-90, 50, 540.0)" x="50" y="540.0">0.0</text><text style="alignment-baseline:middle;baseline-shift:80%;font-size:10px;font-weight:normal;stroke:none;text-anchor:middle" transform="rotate(-90, 50, 380.75544966933705)" x="50" y="380.75544966933705">0.4</text><text style="alignment-baseline:middle;baseline-shift:80%;font-size:10px;font-weight:normal;stroke:none;text-anchor:middle" transform="rotate(-90, 50, 221.510899338674)" x="50" y="221.510899338674">0.8</text><text style="alignment-baseline:middle;baseline-shift:80%;font-size:10px;font-weight:normal;stroke:none;text-anchor:middle" transform="rotate(-90, 50, 62.2663490080109)" x="50" y="62.2663490080109">1.2</text></g></g></svg>