<svg class="toyplot-canvas-Canvas" height="600px" id="t9722c4b77569466cbaff2b6066c0045d" preserveAspectRatio="xMidYMid meet" style="background-color:transparent;fill:rgb(16.1%,15.3%,14.1%);fill-opacity:1.0;font-family:Helvetica;font-size:12px;opacity:1.0;stroke:rgb(16.1%,15.3%,14.1%);stroke-opacity:1.0;stroke-width:1.0" viewBox="0 0 600 600" width="600px" xmlns="http://www.w3.org/2000/svg" xmlns:toyplot="http://www.sandia.gov/toyplot" xmlns:xlink="http://www.w3.org/1999/xlink"><g class="toyplot-coordinates-Cartesian" id="ta7a45bdac5974c0ca593b94616b62b28"><clipPath id="ta691b696e97243faaea6fac149fc933b"><rect height="520.0" width="520.0" x="40.0" y="40.0" /></clipPath><g clip-path="url(#ta691b696e97243faaea6fac149fc933b)"><g class="toyplot-mark-Plot" id="t6eddacbf225b4ad4b6623b838d5e5112" style="fill:none"><g class="toyplot-Series"><path d="M 50.0 300.0 L 60.204081632653057 249.33301586294976 L 70.408163265306115 200.7689627687694 L 80.612244897959187 156.32348969595523 L 90.816326530612244 117.84130413266243 L 101.0204081632653 86.91960757009538 L 111.22448979591836 64.841803721878321 L 121.42857142857143 52.524230906969017 L 131.63265306122449 50.478129466320418 L 141.83673469387756 58.788422754059219 L 152.0408163265306 77.110192397249094 L 162.24489795918367 104.68299411843402 L 172.44897959183672 140.36241994334947 L 182.65306122448982 182.66759680569973 L 192.85714285714286 229.84265012141077 L 203.0612244897959 279.92958128929666 L 213.26530612244898 330.84953434054472 L 223.46938775510202 380.48907876815468 L 233.67346938775512 426.7879273711286 L 243.87755102040816 467.82444838798307 L 254.08163265306123 501.89542274208412 L 264.28571428571428 527.58673607769572 L 274.48979591836735 543.8320715167614 L 284.69387755102042 549.95716709602243 L 294.89795918367344 545.70780098140767 L 305.10204081632656 531.26034293455075 L 315.30612244897964 507.21443409326065 L 325.51020408163265 474.56809889134985 L 335.71428571428572 434.67632209653908 L 345.91836734693879 389.19481022473451 L 356.12244897959187 340.01127151081261 L 366.32653061224488 289.16706665782914 L 376.5306122448979 238.77248224700517 L 386.73469387755097 190.91914338204515 L 396.93877551020404 147.59320087729196 L 407.14285714285717 110.59289615181996 L 417.34693877551024 81.453925295066625 L 427.55102040816325 61.385700065312029 L 437.75510204081633 51.221151305584094 L 447.9591836734694 51.382158184095815 L 458.16326530612247 61.862038117134936 L 468.36734693877554 82.22582412941982 L 478.57142857142856 111.62831814009061 L 488.77551020408163 148.84917087346145 L 498.97959183673464 192.34353240431562 L 509.18367346938777 240.30617108899227 L 519.38775510204084 290.74639962873437 L 529.59183673469386 341.57069846218906 L 539.79591836734687 390.66960720663724 L 550.0 436.0052777223425" style="stroke:rgb(40%,76.1%,64.7%);stroke-opacity:1.0;stroke-width:2.0" /></g></g></g><g class="toyplot-coordinates-Axis" id="t62b0e185afe948a6bed8835e8b329da9" transform="translate(50.0,550.0)translate(0,10.0)"><line style="" x1="0" x2="500.0" y1="0" y2="0" /><g><line style="" x1="0.0" x2="0.0" y1="0" y2="-5" /><line style="" x1="50.0" x2="50.0" y1="0" y2="-5" /><line style="" x1="100.0" x2="100.0" y1="0" y2="-5" /><line style="" x1="150.00000000000003" x2="150.00000000000003" y1="0" y2="-5" /><line style="" x1="200.0" x2="200.0" y1="0" y2="-5" /><line style="" x1="250.0" x2="250.0" y1="0" y2="-5" /><line style="" x1="300.00000000000006" x2="300.00000000000006" y1="0" y2="-5" /><line style="" x1="350.00000000000006" x2="350.00000000000006" y1="0" y2="-5" /><line style="" x1="400.0" x2="400.0" y1="0" y2="-5" /><line style="" x1="450.0" x2="450.0" y1="0" y2="-5" /><line style="" x1="500.0" x2="500.0" y1="0" y2="-5" /></g><g><g transform="translate(0.0,6)"><text style="fill:rgb(16.1%,15.3%,14.1%);fill-opacity:1.0;font-family:helvetica;font-size:10.0px;font-weight:normal;stroke:none;vertical-align:baseline;white-space:pre" x="-2.78" y="8.555">0</text></g><g transform="translate(50.0,6)"><text style="fill:rgb(16.1%,15.3%,14.1%);fill-opacity:1.0;font-family:helvetica;font-size:10.0px;font-weight:normal;stroke:none;vertical-align:baseline;white-space:pre" x="-6.95" y="8.555">4.9</text></g><g transform="translate(100.0,6)"><text style="fill:rgb(16.1%,15.3%,14.1%);fill-opacity:1.0;font-family:helvetica;font-size:10.0px;font-weight:normal;stroke:none;vertical-align:baseline;white-space:pre" x="-6.95" y="8.555">9.8</text></g><g transform="translate(150.00000000000003,6)"><text style="fill:rgb(16.1%,15.3%,14.1%);fill-opacity:1.0;font-family:helvetica;font-size:10.0px;font-weight:normal;stroke:none;vertical-align:baseline;white-space:pre" x="-9.73" y="8.555">14.7</text></g><g transform="translate(200.0,6)"><text style="fill:rgb(16.1%,15.3%,14.1%);fill-opacity:1.0;font-family:helvetica;font-size:10.0px;font-weight:normal;stroke:none;vertical-align:baseline;white-space:pre" x="-9.73" y="8.555">19.6</text></g><g transform="translate(250.0,6)"><text style="fill:rgb(16.1%,15.3%,14.1%);fill-opacity:1.0;font-family:helvetica;font-size:10.0px;font-weight:normal;stroke:none;vertical-align:baseline;white-space:pre" x="-9.73" y="8.555">24.5</text></g><g transform="translate(300.00000000000006,6)"><text style="fill:rgb(16.1%,15.3%,14.1%);fill-opacity:1.0;font-family:helvetica;font-size:10.0px;font-weight:normal;stroke:none;vertical-align:baseline;white-space:pre" x="-9.73" y="8.555">29.4</text></g><g transform="translate(350.00000000000006,6)"><text style="fill:rgb(16.1%,15.3%,14.1%);fill-opacity:1.0;font-family:helvetica;font-size:10.0px;font-weight:normal;stroke:none;vertical-align:baseline;white-space:pre" x="-9.73" y="8.555">34.3</text></g><g transform="translate(400.0,6)"><text style="fill:rgb(16.1%,15.3%,14.1%);fill-opacity:1.0;font-family:helvetica;font-size:10.0px;font-weight:normal;stroke:none;vertical-align:baseline;white-space:pre" x="-9.73" y="8.555">39.2</text></g><g transform="translate(450.0,6)"><text style="fill:rgb(16.1%,15.3%,14.1%);fill-opacity:1.0;font-family:helvetica;font-size:10.0px;font-weight:normal;stroke:none;vertical-align:baseline;white-space:pre" x="-9.73" y="8.555">44.1</text></g><g transform="translate(500.0,6)"><text style="fill:rgb(16.1%,15.3%,14.1%);fill-opacity:1.0;font-family:helvetica;font-size:10.0px;font-weight:normal;stroke:none;vertical-align:baseline;white-space:pre" x="-5.56" y="8.555">49</text></g></g><g class="toyplot-coordinates-Axis-coordinates" style="visibility:hidden" transform=""><line style="stroke:rgb(43.9%,50.2%,56.5%);stroke-opacity:1.0;stroke-width:1.0" x1="0" x2="0" y1="-3.0" y2="4.5" /><text style="alignment-baseline:alphabetic;fill:rgb(43.9%,50.2%,56.5%);fill-opacity:1.0;font-size:10px;font-weight:normal;stroke:none;text-anchor:middle" x="0" y="-6" /></g></g><g class="toyplot-coordinates-Axis" id="t4751b33848d746a4840c721712b2197c" transform="translate(50.0,550.0)rotate(-90.0)translate(0,-10.0)"><line style="" x1="0.04283290397760764" x2="499.5218705336796" y1="0" y2="0" /><g><g transform="translate(0.0,-6)"><text style="fill:rgb(16.1%,15.3%,14.1%);fill-opacity:1.0;font-family:helvetica;font-size:10.0px;font-weight:normal;stroke:none;vertical-align:baseline;white-space:pre" x="-8.615" y="-4.4408920985e-16">-1.0</text></g><g transform="translate(125.0,-6)"><text style="fill:rgb(16.1%,15.3%,14.1%);fill-opacity:1.0;font-family:helvetica;font-size:10.0px;font-weight:normal;stroke:none;vertical-align:baseline;white-space:pre" x="-8.615" y="-4.4408920985e-16">-0.5</text></g><g transform="translate(250.0,-6)"><text style="fill:rgb(16.1%,15.3%,14.1%);fill-opacity:1.0;font-family:helvetica;font-size:10.0px;font-weight:normal;stroke:none;vertical-align:baseline;white-space:pre" x="-6.95" y="-4.4408920985e-16">0.0</text></g><g transform="translate(375.0,-6)"><text style="fill:rgb(16.1%,15.3%,14.1%);fill-opacity:1.0;font-family:helvetica;font-size:10.0px;font-weight:normal;stroke:none;vertical-align:baseline;white-space:pre" x="-6.95" y="-4.4408920985e-16">0.5</text></g><g transform="translate(500.0,-6)"><text style="fill:rgb(16.1%,15.3%,14.1%);fill-opacity:1.0;font-family:helvetica;font-size:10.0px;font-weight:normal;stroke:none;vertical-align:baseline;white-space:pre" x="-6.95" y="-4.4408920985e-16">1.0</text></g></g><g class="toyplot-coordinates-Axis-coordinates" style="visibility:hidden" transform=""><line style="stroke:rgb(43.9%,50.2%,56.5%);stroke-opacity:1.0;stroke-width:1.0" x1="0" x2="0" y1="3.0" y2="-4.5" /><text style="alignment-baseline:hanging;fill:rgb(43.9%,50.2%,56.5%);fill-opacity:1.0;font-size:10px;font-weight:normal;stroke:none;text-anchor:middle" x="0" y="6" /></g></g></g></svg>