<svg class="toyplot-canvas-Canvas" height="600px" id="t3db9cef752e44bd0abfc086434da9371" preserveAspectRatio="xMidYMid meet" style="background-color:transparent;fill:rgb(16.1%,15.3%,14.1%);fill-opacity:1.0;font-family:Helvetica;font-size:12px;opacity:1.0;stroke:rgb(16.1%,15.3%,14.1%);stroke-opacity:1.0;stroke-width:1.0" viewBox="0 0 600 600" width="600px" xmlns="http://www.w3.org/2000/svg" xmlns:toyplot="http://www.sandia.gov/toyplot"><g class="toyplot-axes-Cartesian" id="te5ce771ee52a47c98748aa6f64a2e24f"><clipPath id="t6e209ba4ebdc48c1b07b199acff07419"><rect height="520.0" width="520.0" x="40.0" y="40.0" /></clipPath><g clip-path="url(#t6e209ba4ebdc48c1b07b199acff07419)"><rect height="520.0" style="pointer-events:all;visibility:hidden" width="520.0" x="40.0" y="40.0" /><g class="toyplot-mark-FillMagnitudes" id="t11cc0385bdd6453b8e163d7145a2d5a5" style="stroke:none"><polygon points="50.0,550.0 60.204081632653057,550.0 70.408163265306115,550.0 80.612244897959187,550.0 90.816326530612244,550.0 101.0204081632653,550.0 111.22448979591836,550.0 121.42857142857143,550.0 131.63265306122449,550.0 141.83673469387753,550.0 152.0408163265306,550.0 162.24489795918365,550.0 172.44897959183672,550.0 182.65306122448979,550.0 192.85714285714286,550.0 203.0612244897959,550.0 213.26530612244898,550.0 223.46938775510202,550.0 233.67346938775509,550.0 243.87755102040816,550.0 254.08163265306121,550.0 264.28571428571428,550.0 274.48979591836729,550.0 284.69387755102036,550.0 294.89795918367344,550.0 305.10204081632656,550.0 315.30612244897958,550.0 325.51020408163265,550.0 335.71428571428572,550.0 345.91836734693879,550.0 356.12244897959181,550.0 366.32653061224488,550.0 376.5306122448979,550.0 386.73469387755097,550.0 396.93877551020404,550.0 407.14285714285711,550.0 417.34693877551018,550.0 427.55102040816325,550.0 437.75510204081633,550.0 447.95918367346934,550.0 458.16326530612241,550.0 468.36734693877548,550.0 478.57142857142856,550.0 488.77551020408163,550.0 498.97959183673458,550.0 509.18367346938771,550.0 519.38775510204073,550.0 529.59183673469386,550.0 539.79591836734687,550.0 550.0,550.0 550.0,135.80810573492752 539.79591836734687,145.89943161656501 529.59183673469386,120.50891531180338 519.38775510204073,154.29456580808088 509.18367346938771,85.806409718128549 498.97959183673458,110.13171130550077 488.77551020408163,141.24121913743767 478.57142857142856,50.0 468.36734693877548,113.14416886547774 458.16326530612241,139.80975808525986 447.95918367346934,172.04733583808525 437.75510204081633,167.06204378754475 427.55102040816325,109.26506950342186 417.34693877551018,122.88958905903164 407.14285714285711,71.149579534861402 396.93877551020404,259.15746408443795 386.73469387755097,120.29627163862079 376.5306122448979,154.64243161968227 366.32653061224488,120.46695284063344 356.12244897959181,134.44527654049648 345.91836734693879,84.754353362683347 335.71428571428572,151.79639280514061 325.51020408163265,122.44740062477055 315.30612244897958,146.33269063322902 305.10204081632656,116.51088837643539 294.89795918367344,64.796237366908215 284.69387755102036,103.89850590618317 274.48979591836729,95.266830405025559 264.28571428571428,125.87978768079806 254.08163265306121,154.34280788747645 243.87755102040816,76.756080008459747 233.67346938775509,111.46265418711417 223.46938775510202,154.26869864828137 213.26530612244898,108.66908011366334 203.0612244897959,94.950415887110353 192.85714285714286,137.19226946160376 182.65306122448979,86.906817660445071 172.44897959183672,92.618196648564094 162.24489795918365,99.839940897759007 152.0408163265306,217.15616640315483 141.83673469387753,126.77569934485889 131.63265306122449,154.08394801827876 121.42857142857143,140.92737124620825 111.22448979591836,119.5467088366279 101.0204081632653,90.071227689246598 90.816326530612244,214.94543941107838 80.612244897959187,91.775654754845675 70.408163265306115,72.765219023286818 60.204081632653057,156.09953243400338 50.0,120.73960919777068" style="fill:rgb(40%,76.1%,64.7%);fill-opacity:1.0;opacity:1.0;stroke:none" /></g></g><g class="toyplot-axes-Axis" id="t3dee16e5d3174b9bb2032c2db8d1f476" transform="translate(50.0,550.0) rotate(0.0) translate(0,10.0)"><line style="" x1="0" x2="500.0" y1="0" y2="0" /><g><text style="dominant-baseline:hanging;font-size:10px;font-weight:normal;stroke:none;text-anchor:middle" transform="translate(0.0,6)"><tspan style="dominant-baseline:inherit">0.0</tspan></text><text style="dominant-baseline:hanging;font-size:10px;font-weight:normal;stroke:none;text-anchor:middle" transform="translate(250.0,6)"><tspan style="dominant-baseline:inherit">0.5</tspan></text><text style="dominant-baseline:hanging;font-size:10px;font-weight:normal;stroke:none;text-anchor:middle" transform="translate(500.0,6)"><tspan style="dominant-baseline:inherit">1.0</tspan></text></g><g class="toyplot-axes-Axis-coordinates" style="visibility:hidden" transform=""><line style="stroke:rgb(43.9%,50.2%,56.5%);stroke-opacity:1.0;stroke-width:1.0" x1="0" x2="0" y1="-3.0" y2="4.5" /><text style="alignment-baseline:alphabetic;fill:rgb(43.9%,50.2%,56.5%);fill-opacity:1.0;font-size:10px;font-weight:normal;stroke:none;text-anchor:middle" x="0" y="-6" /></g></g><g class="toyplot-axes-Axis" id="t9be678e25cef4b95836739b5ca662487" transform="translate(50.0,550.0) rotate(-90.0) translate(0,-10.0)"><line style="" x1="0" x2="500.0" y1="0" y2="0" /><g><text style="dominant-baseline:alphabetic;font-size:10px;font-weight:normal;stroke:none;text-anchor:middle" transform="translate(0.0,-6)"><tspan style="dominant-baseline:inherit">0.0</tspan></text><text style="dominant-baseline:alphabetic;font-size:10px;font-weight:normal;stroke:none;text-anchor:middle" transform="translate(165.87973992777395,-6)"><tspan style="dominant-baseline:inherit">0.4</tspan></text><text style="dominant-baseline:alphabetic;font-size:10px;font-weight:normal;stroke:none;text-anchor:middle" transform="translate(331.7594798555479,-6)"><tspan style="dominant-baseline:inherit">0.8</tspan></text><text style="dominant-baseline:alphabetic;font-size:10px;font-weight:normal;stroke:none;text-anchor:middle" transform="translate(497.639219783322,-6)"><tspan style="dominant-baseline:inherit">1.2</tspan></text></g><g class="toyplot-axes-Axis-coordinates" style="visibility:hidden" transform=""><line style="stroke:rgb(43.9%,50.2%,56.5%);stroke-opacity:1.0;stroke-width:1.0" x1="0" x2="0" y1="3.0" y2="-4.5" /><text style="alignment-baseline:hanging;fill:rgb(43.9%,50.2%,56.5%);fill-opacity:1.0;font-size:10px;font-weight:normal;stroke:none;text-anchor:middle" x="0" y="6" /></g></g></g></svg>