<svg height="600px" id="t672f624cb4084fb0b259592129739642" preserveAspectRatio="xMidyMid meet" style="background-color:transparent;fill:rgb(16.1%,15.3%,14.1%);fill-opacity:1.0;font-family:helvetica;font-size:12px;opacity:1.0;stroke:rgb(16.1%,15.3%,14.1%);stroke-opacity:1.0;stroke-width:1.0" viewBox="0 0 600 600" width="600px" xmlns="http://www.w3.org/2000/svg" xmlns:toyplot="http://www.sandia.gov/toyplot"><g class="toyplot-axes-Cartesian" id="tb7ea1a6802964dedb21080e0e8691f48"><clipPath id="t4dd9df2a92094008b06f691bbf4e79ef"><rect height="500.0" width="500.0" x="50.0" y="50.0" /></clipPath><g class="toyplot-coordinate-events" clip-path="url(#t4dd9df2a92094008b06f691bbf4e79ef)" style="cursor:crosshair"><rect height="500.0" style="pointer-events:all;visibility:hidden" width="500.0" x="50.0" y="50.0" /><g class="toyplot-mark-FillBoundaries" id="t4231dbe6867a441e9d296355c2ecbd5a" style="stroke:none"><polygon points="60.0,494.47481333833639 69.795918367346943,506.10457820493991 79.591836734693871,478.69619092390076 89.387755102040813,484.94866200797725 99.183673469387742,525.45880748121135 108.97959183673468,484.38808143565058 118.77551020408163,494.08247225160119 128.57142857142856,501.11450325614987 138.36734693877551,505.44165898231984 148.16326530612244,496.46006394692165 157.95918367346937,526.18590846868631 167.75510204081633,487.60097974725869 177.55102040816325,485.2257713231968 187.34693877551018,483.34731716898006 197.14285714285714,499.88604030905634 206.93877551020407,485.99283071923838 216.73469387755102,490.50485519883949 226.53061224489795,505.50242286949043 236.32653061224488,491.42365271416838 246.12244897959184,480.00877224832243 255.91836734693874,505.52679715957373 265.71428571428572,496.16540148612768 275.51020408163265,486.09689843508579 285.30612244897958,488.93582870686936 295.10204081632651,476.07521852328784 304.89795918367349,493.0840006798901 314.69387755102036,502.8922953933095 324.48979591836735,495.03650043829185 334.28571428571428,504.68928944038294 344.08163265306121,482.63937859401517 353.87755102040813,498.98256318470652 363.67346938775506,494.38513754063439 373.46938775510199,505.62534244008043 383.26530612244892,494.32900104301541 393.0612244897959,540.0 402.85714285714283,478.16481229974323 412.65306122448976,495.18193479013797 422.44897959183675,490.70087418959281 432.24489795918367,509.7101128815118 442.04081632653055,511.34975938051002 451.83673469387747,500.7469238870766 461.63265306122446,491.97669747612855 471.42857142857139,471.2087837084274 481.22448979591832,501.21772681674673 491.0204081632653,490.98590988705217 500.81632653061223,482.98539654090104 510.61224489795916,505.51093049503669 520.40816326530614,494.3989388622511 530.20408163265301,502.74979789815166 540.0,499.43079331741041 540.0,210.96817141981691 530.20408163265301,103.15835182655465 520.40816326530614,89.927612325695094 510.61224489795916,171.45783419294753 500.81632653061223,192.27071061673894 491.0204081632653,110.31787015842335 481.22448979591832,208.26252645068635 471.42857142857139,208.42059597408834 461.63265306122446,210.78930094797377 451.83673469387747,147.33306768085777 442.04081632653055,258.70100681257503 432.24489795918367,228.93422904964689 422.44897959183675,175.97004284493937 412.65306122448976,225.87189587507149 402.85714285714283,190.83605628782823 393.0612244897959,307.32835150483834 383.26530612244892,194.88631434201869 373.46938775510199,129.03736450305129 363.67346938775506,175.85069863170551 353.87755102040813,223.34767467516929 344.08163265306121,133.74985416112017 334.28571428571428,177.7487131971813 324.48979591836735,247.44231176057147 314.69387755102036,149.55254049785825 304.89795918367349,189.48158161635658 295.10204081632651,210.53922395594591 285.30612244897958,112.76859012506961 275.51020408163265,60.0 265.71428571428572,144.10692411166221 255.91836734693874,215.52224593672267 246.12244897959184,164.52494698443795 236.32653061224488,151.35408059870113 226.53061224489795,200.816392776177 216.73469387755102,208.23117390689126 206.93877551020407,156.75106633525496 197.14285714285714,203.14820648435278 187.34693877551018,72.948261178688 177.55102040816325,147.65563829914657 167.75510204081633,129.58871985222703 157.95918367346937,248.09423866083034 148.16326530612244,198.71931383780259 138.36734693877551,138.78699772151631 128.57142857142856,137.5490331908824 118.77551020408163,246.82582227458386 108.97959183673468,212.28187834083025 99.183673469387742,216.2225475315856 89.387755102040813,139.48689629447455 79.591836734693871,122.29413195413045 69.795918367346943,176.58894860738815 60.0,173.15294454866915" style="fill:rgb(40%,76.1%,64.7%);fill-opacity:1.0;opacity:1.0;stroke:none" /></g></g><g class="toyplot-coordinates" style="visibility:hidden"><rect height="14.0" style="fill:rgb(100%,100%,100%);fill-opacity:1.0;opacity:0.75;stroke:none" width="90.0" x="450.0" y="60.0" /><text style="alignment-baseline:middle;font-size:10px;font-weight:normal;stroke:none;text-anchor:middle" x="495.0" y="67.0" /></g><line style="" x1="60.0" x2="540.0" y1="550.0" y2="550.0" /><g><text style="alignment-baseline:middle;baseline-shift:-80%;font-size:10px;font-weight:normal;stroke:none;text-anchor:middle" x="60.0" y="550.0">0.0</text><text style="alignment-baseline:middle;baseline-shift:-80%;font-size:10px;font-weight:normal;stroke:none;text-anchor:middle" x="300.0" y="550.0">0.5</text><text style="alignment-baseline:middle;baseline-shift:-80%;font-size:10px;font-weight:normal;stroke:none;text-anchor:middle" x="540.0" y="550.0">1.0</text></g><line style="" x1="50.0" x2="50.0" y1="60.0" y2="540.0" /><g><text style="alignment-baseline:middle;baseline-shift:80%;font-size:10px;font-weight:normal;stroke:none;text-anchor:middle" transform="rotate(-90, 50.0, 499.2638928199726)" x="50.0" y="499.2638928199726">1</text><text style="alignment-baseline:middle;baseline-shift:80%;font-size:10px;font-weight:normal;stroke:none;text-anchor:middle" transform="rotate(-90, 50.0, 362.87061231105173)" x="50.0" y="362.87061231105173">2</text><text style="alignment-baseline:middle;baseline-shift:80%;font-size:10px;font-weight:normal;stroke:none;text-anchor:middle" transform="rotate(-90, 50.0, 226.4773318021309)" x="50.0" y="226.4773318021309">3</text><text style="alignment-baseline:middle;baseline-shift:80%;font-size:10px;font-weight:normal;stroke:none;text-anchor:middle" transform="rotate(-90, 50.0, 90.08405129321002)" x="50.0" y="90.08405129321002">4</text></g></g></svg>