<svg class="toyplot-canvas-Canvas" height="600px" id="te6ae595210624ff282b8534360ab0dfd" preserveAspectRatio="xMidYMid meet" style="background-color:transparent;border-color:#292724;border-style:none;border-width:1.0;fill:rgb(16.1%,15.3%,14.1%);fill-opacity:1.0;font-family:Helvetica;font-size:12px;opacity:1.0;stroke:rgb(16.1%,15.3%,14.1%);stroke-opacity:1.0;stroke-width:1.0" viewBox="0 0 600 600" width="600px" xmlns="http://www.w3.org/2000/svg" xmlns:toyplot="http://www.sandia.gov/toyplot" xmlns:xlink="http://www.w3.org/1999/xlink"><g class="toyplot-coordinates-Cartesian" id="t7651b35218eb411e9d2fb1c797ba143e"><clipPath id="t3e0162692a8a4738ba2797faa9a87081"><rect height="520.0" width="520.0" x="40.0" y="40.0" /></clipPath><g clip-path="url(#t3e0162692a8a4738ba2797faa9a87081)"><g class="toyplot-mark-Plot" id="tbaca5f1af9524cfbbfc5a9d1d3100c01" style="fill:none"><g class="toyplot-Series"><path d="M 50.0 299.78212470917276 L 60.20408163265306 249.06229432600742 L 70.40816326530611 200.44758836693157 L 80.61224489795919 155.9557581554656 L 90.81632653061224 117.43343523085244 L 101.0204081632653 86.47948698378767 L 111.22448979591836 64.3786557327023 L 121.42857142857143 52.048235547940536 L 131.6326530612245 50.0 L 141.83673469387756 58.31896101904056 L 152.0408163265306 76.65984047830332 L 162.24489795918367 104.26140094822097 L 172.44897959183672 139.97804082387384 L 182.65306122448982 182.32734247135758 L 192.85714285714286 229.55159990924946 L 203.0612244897959 279.69077232134447 L 213.26530612244898 330.6638354681892 L 223.46938775510202 380.3551545105022 L 233.67346938775512 426.7022933440827 L 243.87755102040816 467.78161592345947 L 254.08163265306123 501.88812669494877 L 264.2857142857143 527.6062363653073 L 274.48979591836735 543.8685158757334 L 284.6938775510204 550.0 L 294.89795918367344 545.7462017477447 L 305.10204081632656 531.2836748362872 L 315.30612244897964 507.2126858360272 L 325.51020408163265 474.53230013171884 L 335.7142857142857 434.59891575575097 L 345.9183673469388 389.0699661449335 L 356.12244897959187 339.83512843550295 L 366.3265306122449 288.9378924931632 L 376.5306122448979 238.4907459522658 L 386.73469387755097 190.5874955055104 L 396.93877551020404 147.21636354534013 L 407.14285714285717 110.17746707727372 L 417.34693877551024 81.00810393939963 L 427.55102040816325 60.918947320345936 L 437.7551020408163 50.74379681957198 L 447.9591836734694 50.90497163010628 L 458.16326530612247 61.395782198225234 L 468.36734693877554 81.7808078730985 L 478.57142857142856 111.21396902256483 L 488.7755102040816 148.47364353263427 L 498.97959183673464 192.0133701818832 L 509.18367346938777 240.026034449322 L 519.3877551020408 290.518872726488 L 529.5918367346939 341.39618188709204 L 539.7959183673469 390.5463013570191 L 550.0 435.9292574975286" style="stroke:rgb(40%,76.1%,64.7%);stroke-opacity:1.0;stroke-width:2.0" /></g></g></g></g></svg>