<svg class="toyplot-canvas-Canvas" height="600px" id="t0e8867399eb8470d868642d944e2d72d" preserveAspectRatio="xMidYMid meet" style="background-color:transparent;border-color:#292724;border-style:none;border-width:1.0;fill:rgb(16.1%,15.3%,14.1%);fill-opacity:1.0;font-family:Helvetica;font-size:12px;opacity:1.0;stroke:rgb(16.1%,15.3%,14.1%);stroke-opacity:1.0;stroke-width:1.0" viewBox="0 0 600 600" width="600px" xmlns="http://www.w3.org/2000/svg" xmlns:toyplot="http://www.sandia.gov/toyplot" xmlns:xlink="http://www.w3.org/1999/xlink"><g class="toyplot-coordinates-Cartesian" id="t6e8cb8326deb4ba5a46c34d28098421f"><clipPath id="t10355fa83b2043d9b41fe9148e922930"><rect height="520.0" width="520.0" x="40.0" y="40.0" /></clipPath><g clip-path="url(#t10355fa83b2043d9b41fe9148e922930)"><g class="toyplot-mark-FillBoundaries" id="t08b2a0ff3e774801b0a0c6ef54d78b12" style="stroke:none"><polygon points="50.0,529.8638597945051 60.20408163265306,440.0478547471168 70.40816326530611,455.8867176194061 80.61224489795919,414.91435668795333 90.81632653061224,445.0131885992445 101.0204081632653,413.1597506259011 111.22448979591836,468.4841659226817 121.42857142857143,470.19348168163117 131.6326530612245,458.6888577942168 141.83673469387753,443.16086926550594 152.0408163265306,464.3473013167353 162.24489795918365,442.86723754604515 172.44897959183672,431.9140808872094 182.6530612244898,429.3346377043273 192.85714285714286,426.9258303676286 203.0612244897959,444.52231765523425 213.26530612244898,550.0 223.46938775510202,451.8607026148188 233.6734693877551,422.2595900847112 243.87755102040816,466.79628316598377 254.0816326530612,511.7052330462639 264.2857142857143,433.5915853625787 274.4897959183673,437.09454012531336 284.69387755102036,449.87468072330074 294.89795918367344,490.59526619804564 305.10204081632656,478.6091985664402 315.3061224489796,468.58930948907624 325.51020408163265,440.35571038552376 335.7142857142857,442.8193445085293 345.9183673469388,441.99517068831335 356.1224489795918,444.66581968065464 366.3265306122449,508.9263909171867 376.5306122448979,444.0125715456535 386.73469387755097,466.35803946430093 396.93877551020404,467.6777932925203 407.1428571428571,441.3315073209391 417.3469387755102,420.9614024176131 427.55102040816325,490.5710765841392 437.7551020408163,468.8764546749771 447.95918367346934,521.6987053263035 458.1632653061224,493.2022462397316 468.3673469387755,454.85484360516176 478.57142857142856,435.3291041073122 488.7755102040816,456.14330789595266 498.9795918367346,495.1514563382722 509.1836734693877,503.67680276734643 519.3877551020407,457.65765041102105 529.5918367346939,423.7398855087751 539.7959183673469,435.7279566892885 550.0,473.8895525058416 550.0,303.8558081913074 539.7959183673469,305.3996725872591 529.5918367346939,301.5151964958586 519.3877551020407,306.68403788568844 509.1836734693877,296.2060861307009 498.9795918367346,299.9275958195185 488.7755102040816,304.68701614551344 478.57142857142856,290.72809029952236 468.3673469387755,300.38846944759405 458.1632653061224,304.4680179902096 447.95918367346934,309.40002088934034 437.7551020408163,308.6373247886966 427.55102040816325,299.7950089386698 417.3469387755102,301.8794139911445 407.1428571428571,293.9637486477116 396.93877551020404,322.72693423092994 386.73469387755097,301.4826642994058 376.5306122448979,306.73725761592004 366.3265306122449,301.5087766887921 356.1224489795918,303.6473099725675 345.9183673469388,296.0451328160665 335.7142857142857,306.3018442671883 325.51020408163265,301.8117639134476 315.3061224489796,305.46595656003905 305.10204081632656,300.9035413464792 294.89795918367344,292.99175558322753 284.69387755102036,298.97398238937734 274.4897959183673,297.6534288129743 264.2857142857143,302.3368822409181 254.0816326530612,306.6914184053187 243.87755102040816,294.82148296018937 233.6734693877551,300.1312157751189 223.46938775510202,306.6800804882654 213.26530612244898,299.70382896787066 203.0612244897959,297.6050207926308 192.85714285714286,304.0675703641723 182.6530612244898,296.3744367184325 172.44897959183672,297.248216316373 162.24489795918365,298.3530655654977 152.0408163265306,316.3011871254984 141.83673469387753,302.47394709605067 131.6326530612245,306.6518156276181 121.42857142857143,304.6390007914662 111.22448979591836,301.3679892471779 101.0204081632653,296.8585574410175 90.81632653061224,315.9629696571233 80.61224489795919,297.11931646247206 70.40816326530611,294.2109241241684 60.20408163265306,306.9601783792496 50.0,301.55049018085964" style="fill:rgb(40%,76.1%,64.7%);fill-opacity:1.0;opacity:1.0;stroke:none" /><polygon points="50.0,301.55049018085964 60.20408163265306,306.9601783792496 70.40816326530611,294.2109241241684 80.61224489795919,297.11931646247206 90.81632653061224,315.9629696571233 101.0204081632653,296.8585574410175 111.22448979591836,301.3679892471779 121.42857142857143,304.6390007914662 131.6326530612245,306.6518156276181 141.83673469387753,302.47394709605067 152.0408163265306,316.3011871254984 162.24489795918365,298.3530655654977 172.44897959183672,297.248216316373 182.6530612244898,296.3744367184325 192.85714285714286,304.0675703641723 203.0612244897959,297.6050207926308 213.26530612244898,299.70382896787066 223.46938775510202,306.6800804882654 233.6734693877551,300.1312157751189 243.87755102040816,294.82148296018937 254.0816326530612,306.6914184053187 264.2857142857143,302.3368822409181 274.4897959183673,297.6534288129743 284.69387755102036,298.97398238937734 294.89795918367344,292.99175558322753 305.10204081632656,300.9035413464792 315.3061224489796,305.46595656003905 325.51020408163265,301.8117639134476 335.7142857142857,306.3018442671883 345.9183673469388,296.0451328160665 356.1224489795918,303.6473099725675 366.3265306122449,301.5087766887921 376.5306122448979,306.73725761592004 386.73469387755097,301.4826642994058 396.93877551020404,322.72693423092994 407.1428571428571,293.9637486477116 417.3469387755102,301.8794139911445 427.55102040816325,299.7950089386698 437.7551020408163,308.6373247886966 447.95918367346934,309.40002088934034 458.1632653061224,304.4680179902096 468.3673469387755,300.38846944759405 478.57142857142856,290.72809029952236 488.7755102040816,304.68701614551344 498.9795918367346,299.9275958195185 509.1836734693877,296.2060861307009 519.3877551020407,306.68403788568844 529.5918367346939,301.5151964958586 539.7959183673469,305.3996725872591 550.0,303.8558081913074 550.0,169.674863068572 539.7959183673469,119.52617000264306 529.5918367346939,113.37177426422991 519.3877551020407,151.2962795406811 509.1836734693877,160.97757346672205 498.9795918367346,122.85648340711154 488.7755102040816,168.41630833196072 478.57142857142856,168.48983577168815 468.3673469387755,169.5916598833254 458.1632653061224,140.0744305879016 447.95918367346934,191.87821449155808 437.7551020408163,178.0319340022056 427.55102040816325,153.39517338534077 417.3469387755102,176.6074625856243 407.1428571428571,160.31023129077113 396.93877551020404,214.49765484294372 386.73469387755097,162.1942447207509 376.5306122448979,131.56402210608934 366.3265306122449,153.33965936684743 356.1224489795918,175.43329872316738 345.9183673469388,133.75607843574878 335.7142857142857,154.22253766344235 325.51020408163265,186.64113270609607 315.3061224489796,141.10683803916953 305.10204081632656,159.6801853930832 294.89795918367344,169.4753343541355 284.69387755102036,123.9964575195028 274.4897959183673,99.45068015258374 264.2857142857143,138.5737613144663 254.0816326530612,171.79323119133937 243.87755102040816,148.07138561179835 233.6734693877551,141.94484038351976 223.46938775510202,164.95267326068765 213.26530612244898,168.4017244183474 203.0612244897959,144.4552961305448 192.85714285714286,166.03733707312526 182.6530612244898,105.47367859592862 172.44897959183672,140.2244771698334 162.24489795918365,131.82048993323517 152.0408163265306,186.94438228156008 141.83673469387753,163.97719840679844 131.6326530612245,136.09915040537402 121.42857142857143,135.523300232287 111.22448979591836,186.35436715795026 101.0204081632653,170.2859454858234 90.81632653061224,172.1189826847271 80.61224489795919,136.4247144295509 70.40816326530611,128.42734772295967 60.20408163265306,153.6830628858972 50.0,152.08477514583717" style="fill:rgb(98.8%,55.3%,38.4%);fill-opacity:1.0;opacity:1.0;stroke:none" /></g></g><g class="toyplot-coordinates-Axis" id="tc51a3507dd404cb3aaabc612bc5584c1" transform="translate(50.0,550.0)translate(0,10.0)"><line style="" x1="0" x2="500.0" y1="0" y2="0" /><g><g transform="translate(0.0,6)"><text style="fill:rgb(16.1%,15.3%,14.1%);fill-opacity:1.0;font-family:helvetica;font-size:10.0px;font-weight:normal;stroke:none;vertical-align:baseline;white-space:pre" x="-6.95" y="8.555">0.0</text></g><g transform="translate(250.0,6)"><text style="fill:rgb(16.1%,15.3%,14.1%);fill-opacity:1.0;font-family:helvetica;font-size:10.0px;font-weight:normal;stroke:none;vertical-align:baseline;white-space:pre" x="-6.95" y="8.555">0.5</text></g><g transform="translate(500.0,6)"><text style="fill:rgb(16.1%,15.3%,14.1%);fill-opacity:1.0;font-family:helvetica;font-size:10.0px;font-weight:normal;stroke:none;vertical-align:baseline;white-space:pre" x="-6.95" y="8.555">1.0</text></g></g><g class="toyplot-coordinates-Axis-coordinates" style="visibility:hidden" transform=""><line style="stroke:rgb(43.9%,50.2%,56.5%);stroke-opacity:1.0;stroke-width:1.0" x1="0" x2="0" y1="-3.0" y2="4.5" /><text style="alignment-baseline:alphabetic;fill:rgb(43.9%,50.2%,56.5%);fill-opacity:1.0;font-size:10px;font-weight:normal;stroke:none;text-anchor:middle" x="0" y="-6" /></g></g><g class="toyplot-coordinates-Axis" id="t85589fff270944a098f427988257c474" transform="translate(50.0,550.0)rotate(-90.0)translate(0,-10.0)"><line style="" x1="0" x2="450.54931984741626" y1="0" y2="0" /><g><g transform="translate(24.165925726734965,-6)"><text style="fill:rgb(16.1%,15.3%,14.1%);fill-opacity:1.0;font-family:helvetica;font-size:10.0px;font-weight:normal;stroke:none;vertical-align:baseline;white-space:pre" x="-4.445" y="-4.440892098500626e-16">-2</text></g><g transform="translate(182.77728381782333,-6)"><text style="fill:rgb(16.1%,15.3%,14.1%);fill-opacity:1.0;font-family:helvetica;font-size:10.0px;font-weight:normal;stroke:none;vertical-align:baseline;white-space:pre" x="-2.78" y="-4.440892098500626e-16">0</text></g><g transform="translate(341.38864190891167,-6)"><text style="fill:rgb(16.1%,15.3%,14.1%);fill-opacity:1.0;font-family:helvetica;font-size:10.0px;font-weight:normal;stroke:none;vertical-align:baseline;white-space:pre" x="-2.78" y="-4.440892098500626e-16">2</text></g><g transform="translate(500.0,-6)"><text style="fill:rgb(16.1%,15.3%,14.1%);fill-opacity:1.0;font-family:helvetica;font-size:10.0px;font-weight:normal;stroke:none;vertical-align:baseline;white-space:pre" x="-2.78" y="-4.440892098500626e-16">5</text></g></g><g class="toyplot-coordinates-Axis-coordinates" style="visibility:hidden" transform=""><line style="stroke:rgb(43.9%,50.2%,56.5%);stroke-opacity:1.0;stroke-width:1.0" x1="0" x2="0" y1="3.0" y2="-4.5" /><text style="alignment-baseline:hanging;fill:rgb(43.9%,50.2%,56.5%);fill-opacity:1.0;font-size:10px;font-weight:normal;stroke:none;text-anchor:middle" x="0" y="6" /></g></g></g></svg>