<svg height="600px" id="t1307e9e7859843d49af17e272511a277" preserveAspectRatio="xMidYMid meet" style="background-color:transparent;fill:rgb(16.1%,15.3%,14.1%);fill-opacity:1.0;font-family:Helvetica;font-size:12px;opacity:1.0;stroke:rgb(16.1%,15.3%,14.1%);stroke-opacity:1.0;stroke-width:1.0" viewBox="0 0 600 600" width="600px" xmlns="http://www.w3.org/2000/svg" xmlns:toyplot="http://www.sandia.gov/toyplot"><g class="toyplot-axes-Cartesian" id="td5b279e01a2b4013be6eff59beb1ffe2"><clipPath id="t82bb18a617f843e3aed4d8927855403a"><rect height="520.0" width="520.0" x="40.0" y="40.0" /></clipPath><g class="toyplot-coordinate-events" clip-path="url(#t82bb18a617f843e3aed4d8927855403a)" style="cursor:crosshair"><rect height="520.0" style="pointer-events:all;visibility:hidden" width="520.0" x="40.0" y="40.0" /><g class="toyplot-mark-Plot" id="t0ac7f4cba0af4efe89c52879d49700df" style="fill:none"><g class="toyplot-Series"><path d="M 50.0 300.0 L 60.204081632653057 249.33301586294976 L 70.408163265306115 200.7689627687694 L 80.612244897959187 156.32348969595523 L 90.816326530612244 117.84130413266243 L 101.0204081632653 86.91960757009538 L 111.22448979591836 64.841803721878321 L 121.42857142857143 52.524230906969017 L 131.63265306122449 50.478129466320418 L 141.83673469387756 58.788422754059219 L 152.0408163265306 77.110192397249094 L 162.24489795918367 104.68299411843402 L 172.44897959183672 140.36241994334947 L 182.65306122448982 182.66759680569973 L 192.85714285714286 229.84265012141077 L 203.0612244897959 279.92958128929666 L 213.26530612244898 330.84953434054472 L 223.46938775510202 380.48907876815468 L 233.67346938775512 426.7879273711286 L 243.87755102040816 467.82444838798307 L 254.08163265306123 501.89542274208412 L 264.28571428571428 527.58673607769572 L 274.48979591836735 543.8320715167614 L 284.69387755102042 549.95716709602243 L 294.89795918367344 545.70780098140767 L 305.10204081632656 531.26034293455075 L 315.30612244897964 507.21443409326065 L 325.51020408163265 474.56809889134985 L 335.71428571428572 434.67632209653908 L 345.91836734693879 389.19481022473451 L 356.12244897959187 340.01127151081261 L 366.32653061224488 289.16706665782914 L 376.5306122448979 238.77248224700517 L 386.73469387755097 190.91914338204515 L 396.93877551020404 147.59320087729196 L 407.14285714285717 110.59289615181996 L 417.34693877551024 81.453925295066625 L 427.55102040816325 61.385700065312029 L 437.75510204081633 51.221151305584094 L 447.9591836734694 51.382158184095815 L 458.16326530612247 61.862038117134936 L 468.36734693877554 82.22582412941982 L 478.57142857142856 111.62831814009061 L 488.77551020408163 148.84917087346145 L 498.97959183673464 192.34353240431562 L 509.18367346938777 240.30617108899227 L 519.38775510204084 290.74639962873437 L 529.59183673469386 341.57069846218906 L 539.79591836734687 390.66960720663724 L 550.0 436.0052777223425" style="stroke:rgb(40%,76.1%,64.7%);stroke-opacity:1.0;stroke-width:2.0" /></g></g></g><g class="toyplot-coordinates" style="visibility:hidden"><rect height="14.0" style="fill:rgb(100%,100%,100%);fill-opacity:1.0;opacity:0.75;stroke:none" width="90.0" x="450.0" y="60.0" /><text style="alignment-baseline:middle;font-size:10px;font-weight:normal;stroke:none;text-anchor:middle" x="495.0" y="67.0" /></g><g class="toyplot-axes-Axis" id="t46bfbde575674b5eacffbf27b98ebbbc" transform="translate(50.0,550.0) rotate(0.0) translate(0,10.0)"><line style="" x1="0" x2="500.0" y1="0" y2="0" /><g><line style="" x1="0.0" x2="0.0" y1="-5" y2="0" /><line style="" x1="50.0" x2="50.0" y1="-5" y2="0" /><line style="" x1="100.0" x2="100.0" y1="-5" y2="0" /><line style="" x1="150.00000000000003" x2="150.00000000000003" y1="-5" y2="0" /><line style="" x1="200.0" x2="200.0" y1="-5" y2="0" /><line style="" x1="250.0" x2="250.0" y1="-5" y2="0" /><line style="" x1="300.00000000000006" x2="300.00000000000006" y1="-5" y2="0" /><line style="" x1="350.00000000000006" x2="350.00000000000006" y1="-5" y2="0" /><line style="" x1="400.0" x2="400.0" y1="-5" y2="0" /><line style="" x1="450.0" x2="450.0" y1="-5" y2="0" /><line style="" x1="500.0" x2="500.0" y1="-5" y2="0" /></g><g><text style="dominant-baseline:middle;font-size:10px;font-weight:normal;stroke:none;text-anchor:middle" transform="translate(0.0,0)translate(0,8.0)"><tspan dominant-baseline="inherit">0</tspan></text><text style="dominant-baseline:middle;font-size:10px;font-weight:normal;stroke:none;text-anchor:middle" transform="translate(50.0,0)translate(0,8.0)"><tspan dominant-baseline="inherit">4.9</tspan></text><text style="dominant-baseline:middle;font-size:10px;font-weight:normal;stroke:none;text-anchor:middle" transform="translate(100.0,0)translate(0,8.0)"><tspan dominant-baseline="inherit">9.8</tspan></text><text style="dominant-baseline:middle;font-size:10px;font-weight:normal;stroke:none;text-anchor:middle" transform="translate(150.00000000000003,0)translate(0,8.0)"><tspan dominant-baseline="inherit">14.7</tspan></text><text style="dominant-baseline:middle;font-size:10px;font-weight:normal;stroke:none;text-anchor:middle" transform="translate(200.0,0)translate(0,8.0)"><tspan dominant-baseline="inherit">19.6</tspan></text><text style="dominant-baseline:middle;font-size:10px;font-weight:normal;stroke:none;text-anchor:middle" transform="translate(250.0,0)translate(0,8.0)"><tspan dominant-baseline="inherit">24.5</tspan></text><text style="dominant-baseline:middle;font-size:10px;font-weight:normal;stroke:none;text-anchor:middle" transform="translate(300.00000000000006,0)translate(0,8.0)"><tspan dominant-baseline="inherit">29.4</tspan></text><text style="dominant-baseline:middle;font-size:10px;font-weight:normal;stroke:none;text-anchor:middle" transform="translate(350.00000000000006,0)translate(0,8.0)"><tspan dominant-baseline="inherit">34.3</tspan></text><text style="dominant-baseline:middle;font-size:10px;font-weight:normal;stroke:none;text-anchor:middle" transform="translate(400.0,0)translate(0,8.0)"><tspan dominant-baseline="inherit">39.2</tspan></text><text style="dominant-baseline:middle;font-size:10px;font-weight:normal;stroke:none;text-anchor:middle" transform="translate(450.0,0)translate(0,8.0)"><tspan dominant-baseline="inherit">44.1</tspan></text><text style="dominant-baseline:middle;font-size:10px;font-weight:normal;stroke:none;text-anchor:middle" transform="translate(500.0,0)translate(0,8.0)"><tspan dominant-baseline="inherit">49</tspan></text></g></g><g class="toyplot-axes-Axis" id="t27a0a6b5582742f5a500cb18fe9dc9bd" transform="translate(50.0,550.0) rotate(-90.0) translate(0,-10.0)"><line style="" x1="0.04283290397760764" x2="499.5218705336796" y1="0" y2="0" /><g><text style="dominant-baseline:middle;font-size:10px;font-weight:normal;stroke:none;text-anchor:middle" transform="translate(0.0,0)translate(0,-8.0)"><tspan dominant-baseline="inherit">-1.0</tspan></text><text style="dominant-baseline:middle;font-size:10px;font-weight:normal;stroke:none;text-anchor:middle" transform="translate(125.0,0)translate(0,-8.0)"><tspan dominant-baseline="inherit">-0.5</tspan></text><text style="dominant-baseline:middle;font-size:10px;font-weight:normal;stroke:none;text-anchor:middle" transform="translate(250.0,0)translate(0,-8.0)"><tspan dominant-baseline="inherit">0.0</tspan></text><text style="dominant-baseline:middle;font-size:10px;font-weight:normal;stroke:none;text-anchor:middle" transform="translate(375.0,0)translate(0,-8.0)"><tspan dominant-baseline="inherit">0.5</tspan></text><text style="dominant-baseline:middle;font-size:10px;font-weight:normal;stroke:none;text-anchor:middle" transform="translate(500.0,0)translate(0,-8.0)"><tspan dominant-baseline="inherit">1.0</tspan></text></g></g></g></svg>