<svg class="toyplot-canvas-Canvas" height="600px" id="tc9aa5ceeda24404094d49001ad1f4b6f" preserveAspectRatio="xMidYMid meet" style="background-color:transparent;border-color:#292724;border-style:none;border-width:1.0;fill:rgb(16.1%,15.3%,14.1%);fill-opacity:1.0;font-family:Helvetica;font-size:12px;opacity:1.0;stroke:rgb(16.1%,15.3%,14.1%);stroke-opacity:1.0;stroke-width:1.0" viewBox="0 0 600 600" width="600px" xmlns="http://www.w3.org/2000/svg" xmlns:toyplot="http://www.sandia.gov/toyplot" xmlns:xlink="http://www.w3.org/1999/xlink"><g class="toyplot-coordinates-Cartesian" id="t89383958da11426696ae29545f8a9ffb"><clipPath id="t0790e09de48c4df4b31ffea1987feb87"><rect height="520.0" width="520.0" x="40.0" y="40.0" /></clipPath><g clip-path="url(#t0790e09de48c4df4b31ffea1987feb87)"><g class="toyplot-mark-Plot" id="t5f343b07a9cc4bc5a77c27bbbe354905" style="fill:none"><g class="toyplot-Series"><path d="M 50.0 299.78212470917276 L 60.0 249.06229432600742 L 70.0 200.44758836693157 L 80.0 155.9557581554656 L 90.0 117.43343523085244 L 100.0 86.47948698378767 L 110.0 64.3786557327023 L 120.00000000000001 52.048235547940536 L 130.0 50.0 L 140.0 58.31896101904056 L 150.0 76.65984047830332 L 160.0 104.26140094822097 L 170.0 139.97804082387384 L 180.0 182.32734247135758 L 190.00000000000003 229.55159990924946 L 200.0 279.69077232134447 L 210.0 330.6638354681892 L 220.0 380.3551545105022 L 230.0 426.7022933440827 L 240.0 467.78161592345947 L 250.0 501.88812669494877 L 260.0 527.6062363653073 L 270.0 543.8685158757334 L 280.0 550.0 L 290.0 545.7462017477447 L 300.0 531.2836748362872 L 310.0 507.2126858360272 L 320.0 474.53230013171884 L 330.00000000000006 434.59891575575097 L 340.0 389.0699661449335 L 350.0 339.83512843550295 L 360.0 288.9378924931632 L 370.0 238.4907459522658 L 380.0 190.5874955055104 L 390.0 147.21636354534013 L 400.0 110.17746707727372 L 410.0 81.00810393939963 L 420.0 60.918947320345936 L 430.0 50.74379681957198 L 440.0 50.90497163010628 L 450.0 61.395782198225234 L 460.0 81.7808078730985 L 470.0 111.21396902256483 L 480.0 148.47364353263427 L 490.0 192.0133701818832 L 500.0 240.026034449322 L 510.0 290.518872726488 L 520.0 341.39618188709204 L 530.0 390.5463013570191 L 540.0 435.9292574975286" style="stroke:rgb(40%,76.1%,64.7%);stroke-opacity:1.0;stroke-width:2.0" /></g></g></g><g class="toyplot-coordinates-Axis" id="t9ea32fb99b7442d3ac2151b9963abd8e" transform="translate(50.0,550.0)translate(0,10.0)"><line style="" x1="0" x2="490.0" y1="0" y2="0" /><g><g transform="translate(0.0,6)"><text style="fill:rgb(16.1%,15.3%,14.1%);fill-opacity:1.0;font-family:helvetica;font-size:10.0px;font-weight:normal;stroke:none;vertical-align:baseline;white-space:pre" x="-2.78" y="8.555">0</text></g><g transform="translate(100.0,6)"><text style="fill:rgb(16.1%,15.3%,14.1%);fill-opacity:1.0;font-family:helvetica;font-size:10.0px;font-weight:normal;stroke:none;vertical-align:baseline;white-space:pre" x="-5.56" y="8.555">10</text></g><g transform="translate(200.0,6)"><text style="fill:rgb(16.1%,15.3%,14.1%);fill-opacity:1.0;font-family:helvetica;font-size:10.0px;font-weight:normal;stroke:none;vertical-align:baseline;white-space:pre" x="-5.56" y="8.555">20</text></g><g transform="translate(300.0,6)"><text style="fill:rgb(16.1%,15.3%,14.1%);fill-opacity:1.0;font-family:helvetica;font-size:10.0px;font-weight:normal;stroke:none;vertical-align:baseline;white-space:pre" x="-5.56" y="8.555">30</text></g><g transform="translate(400.0,6)"><text style="fill:rgb(16.1%,15.3%,14.1%);fill-opacity:1.0;font-family:helvetica;font-size:10.0px;font-weight:normal;stroke:none;vertical-align:baseline;white-space:pre" x="-5.56" y="8.555">40</text></g><g transform="translate(500.0,6)"><text style="fill:rgb(16.1%,15.3%,14.1%);fill-opacity:1.0;font-family:helvetica;font-size:10.0px;font-weight:normal;stroke:none;vertical-align:baseline;white-space:pre" x="-5.56" y="8.555">50</text></g></g><g class="toyplot-coordinates-Axis-coordinates" style="visibility:hidden" transform=""><line style="stroke:rgb(43.9%,50.2%,56.5%);stroke-opacity:1.0;stroke-width:1.0" x1="0" x2="0" y1="-3.0" y2="4.5" /><text style="alignment-baseline:alphabetic;fill:rgb(43.9%,50.2%,56.5%);fill-opacity:1.0;font-size:10px;font-weight:normal;stroke:none;text-anchor:middle" x="0" y="-6" /></g></g><g class="toyplot-coordinates-Axis" id="tc4e978f142f7447abe946e6b4bcba9a8" transform="translate(50.0,550.0)rotate(-90.0)translate(0,-10.0)"><line style="" x1="0" x2="500.0" y1="0" y2="0" /><g><line style="" x1="0.0" x2="0.0" y1="0" y2="5" /><line style="" x1="125.00000000000003" x2="125.00000000000003" y1="0" y2="5" /><line style="" x1="250.0" x2="250.0" y1="0" y2="5" /><line style="" x1="375.0" x2="375.0" y1="0" y2="5" /><line style="" x1="500.0" x2="500.0" y1="0" y2="5" /></g><g><g transform="translate(0.0,-6)"><text style="fill:rgb(16.1%,15.3%,14.1%);fill-opacity:1.0;font-family:helvetica;font-size:10.0px;font-weight:normal;stroke:none;vertical-align:baseline;white-space:pre" x="-22.515" y="-4.440892098500626e-16">-0.999829</text></g><g transform="translate(125.00000000000003,-6)"><text style="fill:rgb(16.1%,15.3%,14.1%);fill-opacity:1.0;font-family:helvetica;font-size:10.0px;font-weight:normal;stroke:none;vertical-align:baseline;white-space:pre" x="-19.735" y="-4.440892098500626e-16">-0.50035</text></g><g transform="translate(250.0,-6)"><text style="fill:rgb(16.1%,15.3%,14.1%);fill-opacity:1.0;font-family:helvetica;font-size:10.0px;font-weight:normal;stroke:none;vertical-align:baseline;white-space:pre" x="-30.855" y="-4.440892098500626e-16">-0.000870593</text></g><g transform="translate(375.0,-6)"><text style="fill:rgb(16.1%,15.3%,14.1%);fill-opacity:1.0;font-family:helvetica;font-size:10.0px;font-weight:normal;stroke:none;vertical-align:baseline;white-space:pre" x="-20.849999999999998" y="-4.440892098500626e-16">0.498608</text></g><g transform="translate(500.0,-6)"><text style="fill:rgb(16.1%,15.3%,14.1%);fill-opacity:1.0;font-family:helvetica;font-size:10.0px;font-weight:normal;stroke:none;vertical-align:baseline;white-space:pre" x="-20.849999999999998" y="-4.440892098500626e-16">0.998087</text></g></g><g class="toyplot-coordinates-Axis-coordinates" style="visibility:hidden" transform=""><line style="stroke:rgb(43.9%,50.2%,56.5%);stroke-opacity:1.0;stroke-width:1.0" x1="0" x2="0" y1="3.0" y2="-4.5" /><text style="alignment-baseline:hanging;fill:rgb(43.9%,50.2%,56.5%);fill-opacity:1.0;font-size:10px;font-weight:normal;stroke:none;text-anchor:middle" x="0" y="6" /></g></g></g></svg>