<svg height="600px" id="t391c54f055864e1795bbdb32a1ed4b61" preserveAspectRatio="xMidyMid meet" style="background-color:transparent;fill:rgb(16.1%,15.3%,14.1%);fill-opacity:1.0;font-family:helvetica;font-size:12px;opacity:1.0;stroke:rgb(16.1%,15.3%,14.1%);stroke-opacity:1.0;stroke-width:1.0" viewBox="0 0 600 600" width="600px" xmlns="http://www.w3.org/2000/svg" xmlns:toyplot="http://www.sandia.gov/toyplot"><g class="toyplot-axes-Cartesian" id="t1d241a29b6454f208a79e56a84eed43e"><clipPath id="t91a1a700e4a044afb039586087ece9bc"><rect height="500.0" width="500.0" x="50.0" y="50.0" /></clipPath><g class="toyplot-coordinate-events" clip-path="url(#t91a1a700e4a044afb039586087ece9bc)" style="cursor:crosshair"><rect height="500.0" style="pointer-events:all;visibility:hidden" width="500.0" x="50.0" y="50.0" /><g class="toyplot-mark-Plot" id="t2557a166e525457da2b930817ce44c1e" style="fill:none"><g class="toyplot-Series"><path d="M 60.0 299.79083972080582 L 69.599999999999994 251.09980255296713 L 79.199999999999989 204.42968483225431 L 88.799999999999997 161.71752782924696 L 98.400000000000006 124.73609782161833 L 108.0 95.020307504436161 L 117.59999999999999 73.80350950339421 L 127.20000000000002 61.966306126022914 L 136.80000000000001 60.0 L 146.40000000000001 67.986202578278935 L 156.0 85.593446859171195 L 165.59999999999999 112.09094491029212 L 175.19999999999999 146.37891919091888 L 184.80000000000001 187.0342487725033 L 194.40000000000001 232.36953591287948 L 204.0 280.50314142849066 L 213.60000000000002 329.4372820494616 L 223.20000000000002 377.1409483300821 L 232.80000000000001 421.63420161031934 L 242.39999999999998 461.07035128652109 L 252.0 493.8126016271508 L 261.59999999999997 518.501986910695 L 271.19999999999999 534.11377524070406 L 280.80000000000001 540.0 L 290.39999999999998 535.91635367783499 L 300.0 522.03232784283568 L 309.60000000000002 498.92417840258611 L 319.20000000000005 467.55100812645009 L 328.80000000000001 429.21495912552092 L 338.39999999999998 385.50716749913619 L 348.0 338.24172329808283 L 357.60000000000002 289.38037679343665 L 367.20000000000005 240.95111611417514 L 376.80000000000001 194.96399568529 L 386.40000000000003 153.32770900352654 L 396.0 117.77036839418278 L 405.60000000000002 89.767779781823634 L 415.20000000000005 70.482189427532091 L 424.79999999999995 60.714044946789109 L 434.39999999999998 60.868772764902026 L 444.0 70.939950910296233 L 453.59999999999997 90.509575558174561 L 463.19999999999999 118.76541026166223 L 472.79999999999995 154.53469779132888 L 482.39999999999998 196.33283537460787 L 492.0 242.42499307134912 L 501.60000000000002 290.89811781742844 L 511.19999999999999 339.74033461160838 L 520.79999999999995 386.92444930273837 L 530.40000000000009 430.49208719762748" style="fill:none;stroke:rgb(40%,76.1%,64.7%);stroke-opacity:1.0;stroke-width:2.0" /></g></g></g><g class="toyplot-coordinates" style="visibility:hidden"><rect height="14.0" style="fill:rgb(100%,100%,100%);fill-opacity:1.0;opacity:0.75;stroke:none" width="90.0" x="450.0" y="60.0" /><text style="alignment-baseline:middle;font-size:10px;font-weight:normal;stroke:none;text-anchor:middle" x="495.0" y="67.0" /></g><line style="" x1="60.0" x2="530.4000000000001" y1="550.0" y2="550.0" /><g><text style="alignment-baseline:middle;baseline-shift:-80%;font-size:10px;font-weight:normal;stroke:none;text-anchor:middle" x="60.0" y="550.0">0</text><text style="alignment-baseline:middle;baseline-shift:-80%;font-size:10px;font-weight:normal;stroke:none;text-anchor:middle" x="156.0" y="550.0">10</text><text style="alignment-baseline:middle;baseline-shift:-80%;font-size:10px;font-weight:normal;stroke:none;text-anchor:middle" x="252.0" y="550.0">20</text><text style="alignment-baseline:middle;baseline-shift:-80%;font-size:10px;font-weight:normal;stroke:none;text-anchor:middle" x="348.0" y="550.0">30</text><text style="alignment-baseline:middle;baseline-shift:-80%;font-size:10px;font-weight:normal;stroke:none;text-anchor:middle" x="444.0" y="550.0">40</text><text style="alignment-baseline:middle;baseline-shift:-80%;font-size:10px;font-weight:normal;stroke:none;text-anchor:middle" x="540.0" y="550.0">50</text></g><line style="" x1="50.0" x2="50.0" y1="60.0" y2="540.0" /><g><line style="" x1="50.0" x2="55.0" y1="540.0" y2="540.0" /><line style="" x1="50.0" x2="55.0" y1="420.0" y2="420.0" /><line style="" x1="50.0" x2="55.0" y1="300.0" y2="300.0" /><line style="" x1="50.0" x2="55.0" y1="180.0" y2="180.0" /><line style="" x1="50.0" x2="55.0" y1="60.0" y2="60.0" /></g><g><text style="alignment-baseline:middle;baseline-shift:80%;font-size:10px;font-weight:normal;stroke:none;text-anchor:middle" transform="rotate(-90, 50.0, 540.0)" x="50.0" y="540.0">-0.999829</text><text style="alignment-baseline:middle;baseline-shift:80%;font-size:10px;font-weight:normal;stroke:none;text-anchor:middle" transform="rotate(-90, 50.0, 420.0)" x="50.0" y="420.0">-0.50035</text><text style="alignment-baseline:middle;baseline-shift:80%;font-size:10px;font-weight:normal;stroke:none;text-anchor:middle" transform="rotate(-90, 50.0, 300.0)" x="50.0" y="300.0">-0.000870593</text><text style="alignment-baseline:middle;baseline-shift:80%;font-size:10px;font-weight:normal;stroke:none;text-anchor:middle" transform="rotate(-90, 50.0, 180.0)" x="50.0" y="180.0">0.498608</text><text style="alignment-baseline:middle;baseline-shift:80%;font-size:10px;font-weight:normal;stroke:none;text-anchor:middle" transform="rotate(-90, 50.0, 60.0)" x="50.0" y="60.0">0.998087</text></g></g></svg>