<svg class="toyplot-canvas-Canvas" height="600px" id="tc68880399c9a494fafe275f876caf2e6" preserveAspectRatio="xMidYMid meet" style="background-color:transparent;fill:rgb(16.1%,15.3%,14.1%);fill-opacity:1.0;font-family:Helvetica;font-size:12px;opacity:1.0;stroke:rgb(16.1%,15.3%,14.1%);stroke-opacity:1.0;stroke-width:1.0" viewBox="0 0 600 600" width="600px" xmlns="http://www.w3.org/2000/svg" xmlns:toyplot="http://www.sandia.gov/toyplot"><g class="toyplot-axes-Cartesian" id="tddf681e9edcf462dba2a539df3ce9306"><clipPath id="t1414fb5fd6874deb92401ac383dde16f"><rect height="520.0" width="520.0" x="40.0" y="40.0" /></clipPath><g clip-path="url(#t1414fb5fd6874deb92401ac383dde16f)"><g class="toyplot-mark-Plot" id="t431b090b2d894dd6918b40783d3ca81a" style="fill:none"><g class="toyplot-Series"><path d="M 50.0 299.78212470917276 L 60.0 249.06229432600742 L 70.0 200.44758836693157 L 80.0 155.95575815546559 L 90.0 117.43343523085244 L 100.0 86.479486983787666 L 110.0 64.378655732702299 L 120.00000000000001 52.048235547940536 L 130.0 50.0 L 140.0 58.318961019040557 L 150.0 76.659840478303323 L 160.0 104.26140094822097 L 170.0 139.97804082387384 L 180.0 182.32734247135758 L 190.00000000000003 229.55159990924946 L 200.0 279.69077232134447 L 210.0 330.66383546818918 L 220.0 380.35515451050219 L 230.0 426.7022933440827 L 240.0 467.78161592345947 L 250.0 501.88812669494877 L 260.0 527.60623636530727 L 270.0 543.86851587573335 L 280.0 550.0 L 290.0 545.74620174774475 L 300.0 531.28367483628722 L 310.0 507.21268583602722 L 320.0 474.53230013171884 L 330.00000000000006 434.59891575575097 L 340.0 389.06996614493352 L 350.0 339.83512843550295 L 360.0 288.93789249316319 L 370.0 238.4907459522658 L 380.0 190.58749550551039 L 390.0 147.21636354534013 L 400.0 110.17746707727372 L 410.0 81.008103939399632 L 420.0 60.918947320345936 L 430.0 50.743796819571983 L 440.0 50.904971630106282 L 450.0 61.395782198225234 L 460.0 81.780807873098496 L 470.0 111.21396902256483 L 480.0 148.47364353263427 L 490.0 192.0133701818832 L 500.0 240.026034449322 L 510.0 290.51887272648798 L 520.0 341.39618188709204 L 530.0 390.5463013570191 L 540.0 435.92925749752862" style="stroke:rgb(40%,76.1%,64.7%);stroke-opacity:1.0;stroke-width:2.0" /></g></g></g><g class="toyplot-axes-Axis" id="td7ed99a1c60b46dabb907b995f99c31f" transform="translate(50.0,550.0) rotate(0.0) translate(0,10.0)"><line style="" x1="0" x2="490.0" y1="0" y2="0" /><g><text style="dominant-baseline:hanging;font-size:10px;font-weight:normal;stroke:none;text-anchor:middle" transform="translate(0.0,6)"><tspan style="dominant-baseline:inherit">0</tspan></text><text style="dominant-baseline:hanging;font-size:10px;font-weight:normal;stroke:none;text-anchor:middle" transform="translate(100.0,6)"><tspan style="dominant-baseline:inherit">10</tspan></text><text style="dominant-baseline:hanging;font-size:10px;font-weight:normal;stroke:none;text-anchor:middle" transform="translate(200.0,6)"><tspan style="dominant-baseline:inherit">20</tspan></text><text style="dominant-baseline:hanging;font-size:10px;font-weight:normal;stroke:none;text-anchor:middle" transform="translate(300.0,6)"><tspan style="dominant-baseline:inherit">30</tspan></text><text style="dominant-baseline:hanging;font-size:10px;font-weight:normal;stroke:none;text-anchor:middle" transform="translate(400.0,6)"><tspan style="dominant-baseline:inherit">40</tspan></text><text style="dominant-baseline:hanging;font-size:10px;font-weight:normal;stroke:none;text-anchor:middle" transform="translate(500.0,6)"><tspan style="dominant-baseline:inherit">50</tspan></text></g><g class="toyplot-axes-Axis-coordinates" style="visibility:hidden" transform=""><line style="stroke:rgb(43.9%,50.2%,56.5%);stroke-opacity:1.0;stroke-width:1.0" x1="0" x2="0" y1="-3.0" y2="4.5" /><text style="alignment-baseline:alphabetic;fill:rgb(43.9%,50.2%,56.5%);fill-opacity:1.0;font-size:10px;font-weight:normal;stroke:none;text-anchor:middle" x="0" y="-6" /></g></g></g></svg>