<svg class="toyplot-canvas-Canvas" height="600px" id="t55337debc193493aa8fafc72a7b6a459" preserveAspectRatio="xMidYMid meet" style="background-color:transparent;border-color:#292724;border-style:none;border-width:1.0;fill:rgb(16.1%,15.3%,14.1%);fill-opacity:1.0;font-family:Helvetica;font-size:12px;opacity:1.0;stroke:rgb(16.1%,15.3%,14.1%);stroke-opacity:1.0;stroke-width:1.0" viewBox="0 0 600 600" width="600px" xmlns="http://www.w3.org/2000/svg" xmlns:toyplot="http://www.sandia.gov/toyplot" xmlns:xlink="http://www.w3.org/1999/xlink"><g class="toyplot-coordinates-Cartesian" id="taada781396844ad5bddb2d4e8a0fe72a"><clipPath id="t41423128d5aa4b13bc89b3e543a7a5b8"><rect height="520.0" width="520.0" x="40.0" y="40.0" /></clipPath><g clip-path="url(#t41423128d5aa4b13bc89b3e543a7a5b8)"><g class="toyplot-mark-FillBoundaries" id="t4a86cf3f90bc4bec9f81bc46b601021e" style="stroke:none"><polygon points="50.0,502.5779305607671 60.20408163265306,514.6922689634791 70.40816326530611,486.14186554572996 80.61224489795919,492.6548562583096 90.81632653061224,534.8529244595952 101.0204081632653,492.070918162136 111.22448979591836,502.16924192875126 121.42857142857143,509.4942742251561 131.6326530612245,514.0017281065832 141.83673469387753,504.64589994471004 152.0408163265306,535.6103213215482 162.24489795918365,495.41768723672783 172.44897959183672,492.94351179499665 182.6530612244898,490.9867887176876 192.85714285714286,508.2146253219337 203.0612244897959,493.7425319992067 213.26530612244898,498.44255749879113 223.46938775510202,514.0650238223859 233.6734693877551,499.39963824392544 243.87755102040816,487.5091377586692 254.0816326530612,514.0904137078893 264.2857142857143,504.33895988138295 274.4897959183673,493.850935869881 284.69387755102036,496.8081549029889 294.89795918367344,483.41168596175817 305.10204081632656,501.1291673748856 315.3061224489796,511.3461410346974 325.51020408163265,503.16302128988735 335.7142857142857,513.2180098337323 345.9183673469388,490.2493527020991 356.1224489795918,507.27350331740263 366.3265306122449,502.48451827149415 376.5306122448979,514.1930650417504 386.73469387755097,502.4260427531411 396.93877551020404,550.0 407.1428571428571,485.5883461455658 417.3469387755102,503.31451540639375 427.55102040816325,498.64674394749255 437.7551020408163,518.4480342515749 447.95918367346934,520.1559993546979 458.1632653061224,509.1113790490382 468.3673469387755,499.97572653763393 478.57142857142856,478.3424830296119 488.7755102040816,509.6017987674445 498.9795918367346,498.943656132346 509.1836734693877,490.60978806343854 519.3877551020407,514.0738859323299 529.5918367346939,502.49889464817824 539.7959183673469,511.1977061439079 550.0,507.74040970563584 550.0,207.2585118956426 539.7959183673469,94.95661648599442 529.5918367346939,81.17459617259905 519.3877551020407,166.1019106176537 509.1836734693877,187.78199022576968 498.9795918367346,102.41444808169099 488.7755102040816,204.44013171946497 478.57142857142856,204.6047874730087 468.3673469387755,207.0721884874727 458.1632653061224,140.9719455008935 447.95918367346934,256.9802154297656 437.7551020408163,225.97315526004888 427.55102040816325,170.80212796347848 417.3469387755102,222.78322486986613 407.1428571428571,186.2875586331544 396.93877551020404,307.63369948420666 386.73469387755097,190.50657743960284 376.5306122448979,121.91392135734509 366.3265306122449,170.6778110746932 356.1224489795918,220.15382778663468 345.9183673469388,126.82276475116683 335.7142857142857,172.6549095803972 325.51020408163265,245.25240808392863 315.3061224489796,143.28389635193568 305.10204081632656,184.8766475170381 294.89795918367344,206.811691620777 284.69387755102036,104.96728138028084 274.4897959183673,50.0 264.2857142857143,137.61137928298146 254.0816326530612,212.00233951741944 243.87755102040816,158.88015310878953 233.6734693877551,145.160500623647 223.46938775510202,196.68374247518435 213.26530612244898,204.40747281967836 203.0612244897959,150.7823607658906 192.85714285714286,199.1127150878675 182.6530612244898,63.48777206113333 172.44897959183672,141.307956561611 162.24489795918365,122.48824984606983 152.0408163265306,245.9314986050316 141.83673469387753,194.49928524771104 131.6326530612245,132.06978929324615 121.42857142857143,130.78024290716917 111.22448979591836,244.61023153602486 101.0204081632653,208.62695660503152 90.81632653061224,212.73182034540167 80.61224489795919,132.79885030674433 70.40816326530611,114.88972078555256 60.20408163265306,171.4468214660293 50.0,167.86765057153036" style="fill:rgb(40%,76.1%,64.7%);fill-opacity:1.0;opacity:1.0;stroke:none" /></g></g><g class="toyplot-coordinates-Axis" id="t4f17d5399b2b43af9ab937e27c05fcbd" transform="translate(50.0,550.0)translate(0,10.0)"><line style="" x1="0" x2="500.0" y1="0" y2="0" /><g><g transform="translate(0.0,6)"><text style="fill:rgb(16.1%,15.3%,14.1%);fill-opacity:1.0;font-family:helvetica;font-size:10.0px;font-weight:normal;stroke:none;vertical-align:baseline;white-space:pre" x="-6.95" y="8.555">0.0</text></g><g transform="translate(250.0,6)"><text style="fill:rgb(16.1%,15.3%,14.1%);fill-opacity:1.0;font-family:helvetica;font-size:10.0px;font-weight:normal;stroke:none;vertical-align:baseline;white-space:pre" x="-6.95" y="8.555">0.5</text></g><g transform="translate(500.0,6)"><text style="fill:rgb(16.1%,15.3%,14.1%);fill-opacity:1.0;font-family:helvetica;font-size:10.0px;font-weight:normal;stroke:none;vertical-align:baseline;white-space:pre" x="-6.95" y="8.555">1.0</text></g></g><g class="toyplot-coordinates-Axis-coordinates" style="visibility:hidden" transform=""><line style="stroke:rgb(43.9%,50.2%,56.5%);stroke-opacity:1.0;stroke-width:1.0" x1="0" x2="0" y1="-3.0" y2="4.5" /><text style="alignment-baseline:alphabetic;fill:rgb(43.9%,50.2%,56.5%);fill-opacity:1.0;font-size:10px;font-weight:normal;stroke:none;text-anchor:middle" x="0" y="-6" /></g></g><g class="toyplot-coordinates-Axis" id="taca8c43e38284fe69920f0a0ec54ad5c" transform="translate(50.0,550.0)rotate(-90.0)translate(0,-10.0)"><line style="" x1="0" x2="500.0" y1="0" y2="0" /><g><g transform="translate(42.43344497919514,-6)"><text style="fill:rgb(16.1%,15.3%,14.1%);fill-opacity:1.0;font-family:helvetica;font-size:10.0px;font-weight:normal;stroke:none;vertical-align:baseline;white-space:pre" x="-2.78" y="-4.440892098500626e-16">1</text></g><g transform="translate(184.50977884265438,-6)"><text style="fill:rgb(16.1%,15.3%,14.1%);fill-opacity:1.0;font-family:helvetica;font-size:10.0px;font-weight:normal;stroke:none;vertical-align:baseline;white-space:pre" x="-2.78" y="-4.440892098500626e-16">2</text></g><g transform="translate(326.5861127061136,-6)"><text style="fill:rgb(16.1%,15.3%,14.1%);fill-opacity:1.0;font-family:helvetica;font-size:10.0px;font-weight:normal;stroke:none;vertical-align:baseline;white-space:pre" x="-2.78" y="-4.440892098500626e-16">3</text></g><g transform="translate(468.6624465695729,-6)"><text style="fill:rgb(16.1%,15.3%,14.1%);fill-opacity:1.0;font-family:helvetica;font-size:10.0px;font-weight:normal;stroke:none;vertical-align:baseline;white-space:pre" x="-2.78" y="-4.440892098500626e-16">4</text></g></g><g class="toyplot-coordinates-Axis-coordinates" style="visibility:hidden" transform=""><line style="stroke:rgb(43.9%,50.2%,56.5%);stroke-opacity:1.0;stroke-width:1.0" x1="0" x2="0" y1="3.0" y2="-4.5" /><text style="alignment-baseline:hanging;fill:rgb(43.9%,50.2%,56.5%);fill-opacity:1.0;font-size:10px;font-weight:normal;stroke:none;text-anchor:middle" x="0" y="6" /></g></g></g></svg>