<svg height="600px" id="t32ca716ab2504798b9e1b341b60c8e63" preserveAspectRatio="xMidYMid meet" style="background-color:transparent;fill:rgb(16.1%,15.3%,14.1%);fill-opacity:1.0;font-family:helvetica;font-size:12px;opacity:1.0;stroke:rgb(16.1%,15.3%,14.1%);stroke-opacity:1.0;stroke-width:1.0" viewBox="0 0 600 600" width="600px" xmlns="http://www.w3.org/2000/svg" xmlns:toyplot="http://www.sandia.gov/toyplot"><g class="toyplot-axes-Cartesian" id="t9f283f7675ae47cba9123f2ab192470c"><clipPath id="t74429dae44284a8eb5984f470bb178ea"><rect height="500.0" width="500.0" x="50.0" y="50.0" /></clipPath><g class="toyplot-coordinate-events" clip-path="url(#t74429dae44284a8eb5984f470bb178ea)" style="cursor:crosshair"><rect height="500.0" style="pointer-events:all;visibility:hidden" width="500.0" x="50.0" y="50.0" /><g class="toyplot-mark-Plot" id="tda31e02b7a1646a98f8b66bda3b705f5" style="fill:none"><g class="toyplot-Series"><path d="M 60.0 299.79083972080582 L 69.795918367346943 251.09980255296713 L 79.591836734693871 204.42968483225431 L 89.387755102040813 161.71752782924696 L 99.183673469387742 124.73609782161833 L 108.9795918367347 95.020307504436161 L 118.77551020408163 73.80350950339421 L 128.57142857142856 61.966306126022914 L 138.36734693877551 60.0 L 148.16326530612247 67.986202578278935 L 157.9591836734694 85.593446859171195 L 167.75510204081633 112.09094491029212 L 177.55102040816325 146.37891919091888 L 187.34693877551018 187.0342487725033 L 197.14285714285714 232.36953591287948 L 206.9387755102041 280.50314142849066 L 216.73469387755102 329.4372820494616 L 226.53061224489795 377.1409483300821 L 236.32653061224491 421.63420161031934 L 246.12244897959184 461.07035128652109 L 255.91836734693877 493.8126016271508 L 265.71428571428572 518.501986910695 L 275.51020408163265 534.11377524070406 L 285.30612244897958 540.0 L 295.10204081632651 535.91635367783499 L 304.89795918367349 522.03232784283568 L 314.69387755102042 498.92417840258611 L 324.48979591836735 467.55100812645009 L 334.28571428571428 429.21495912552092 L 344.08163265306121 385.50716749913619 L 353.87755102040819 338.24172329808283 L 363.67346938775512 289.38037679343665 L 373.46938775510199 240.95111611417514 L 383.26530612244892 194.96399568529 L 393.0612244897959 153.32770900352654 L 402.85714285714289 117.77036839418278 L 412.65306122448982 89.767779781823634 L 422.44897959183675 70.482189427532091 L 432.24489795918367 60.714044946789109 L 442.0408163265306 60.868772764902026 L 451.83673469387753 70.939950910296233 L 461.63265306122452 90.509575558174561 L 471.42857142857139 118.76541026166223 L 481.22448979591832 154.53469779132888 L 491.0204081632653 196.33283537460787 L 500.81632653061229 242.42499307134912 L 510.61224489795921 290.89811781742844 L 520.40816326530614 339.74033461160838 L 530.20408163265301 386.92444930273837 L 540.0 430.49208719762748" style="fill:none;stroke:rgb(40%,76.1%,64.7%);stroke-opacity:1.0;stroke-width:2.0" /></g></g></g><g class="toyplot-coordinates" style="visibility:hidden"><rect height="14.0" style="fill:rgb(100%,100%,100%);fill-opacity:1.0;opacity:0.75;stroke:none" width="90.0" x="450.0" y="60.0" /><text style="alignment-baseline:middle;font-size:10px;font-weight:normal;stroke:none;text-anchor:middle" x="495.0" y="67.0" /></g></g></svg>