<svg height="600px" id="taf9263cb916b4de58cb5affc6446e286" preserveAspectRatio="xMidYMid meet" style="background-color:transparent;fill:rgb(16.1%,15.3%,14.1%);fill-opacity:1.0;font-family:helvetica;font-size:12px;opacity:1.0;stroke:rgb(16.1%,15.3%,14.1%);stroke-opacity:1.0;stroke-width:1.0" viewBox="0 0 600 600" width="600px" xmlns="http://www.w3.org/2000/svg" xmlns:toyplot="http://www.sandia.gov/toyplot"><g class="toyplot-axes-Cartesian" id="t252795875e7f4ab688a156699673f526"><clipPath id="t4ce150ba1f3e4e0480b46ba3f7a42e4d"><rect height="500.0" width="500.0" x="50.0" y="50.0" /></clipPath><g class="toyplot-coordinate-events" clip-path="url(#t4ce150ba1f3e4e0480b46ba3f7a42e4d)" style="cursor:crosshair"><rect height="500.0" style="pointer-events:all;visibility:hidden" width="500.0" x="50.0" y="50.0" /><g class="toyplot-mark-Plot" id="t63818533311a42f884bf1226589c9805" style="fill:none"><g class="toyplot-Series"><path d="M 60.0 540.0 L 69.599999999999994 442.71939045686355 L 79.199999999999989 349.47640851603728 L 88.799999999999997 264.14110021623401 L 98.400000000000006 190.25530393471189 L 108.0 130.8856465345832 L 117.59999999999999 88.496263146006385 L 127.20000000000002 64.846523341380504 L 136.80000000000001 60.918008575335207 L 146.40000000000001 76.873771687793663 L 156.0 112.05156940271823 L 165.59999999999999 164.99134870739331 L 175.19999999999999 233.49584629123098 L 184.80000000000001 314.72178586694349 L 194.40000000000001 405.29788823310872 L 204.0 501.46479607544956 L 213.60000000000002 599.23110593384581 L 223.20000000000002 694.53903123485702 L 232.80000000000001 783.43282055256691 L 242.39999999999998 862.22294090492744 L 252.0 927.63921166480156 L 261.59999999999997 976.96653326917578 L 271.19999999999999 1008.1575773121817 L 280.80000000000001 1019.9177608243631 L 290.39999999999998 1011.7589778843026 L 300.0 984.01985843433738 L 309.60000000000002 937.85171345906053 L 319.20000000000005 875.17074987139176 L 328.80000000000001 798.57853842535496 L 338.39999999999998 711.2540356314903 L 348.0 616.82164130076023 L 357.60000000000002 519.20076798303194 L 367.20000000000005 422.4431659142499 L 376.80000000000001 330.56475529352673 L 386.40000000000003 247.37894568440049 L 396.0 176.33836061149429 L 405.60000000000002 120.39153656652795 L 415.20000000000005 81.860544125399102 L 424.79999999999995 62.344610506721452 L 434.39999999999998 62.653743713463911 L 444.0 82.775113184899027 L 453.59999999999997 121.87358232848607 L 463.19999999999999 178.32637082897395 L 472.79999999999995 249.79040807704595 L 482.39999999999998 333.29958221628607 L 492.0 425.38784849086522 L 501.60000000000002 522.23308728717006 L 511.19999999999999 619.81574104740298 L 520.79999999999995 714.08564583674342 L 530.40000000000009 801.13013322689756" style="fill:none;stroke:rgb(40%,76.1%,64.7%);stroke-opacity:1.0;stroke-width:2.0" /></g></g></g><g class="toyplot-coordinates" style="visibility:hidden"><rect height="14.0" style="fill:rgb(100%,100%,100%);fill-opacity:1.0;opacity:0.75;stroke:none" width="90.0" x="450.0" y="60.0" /><text style="alignment-baseline:middle;font-size:10px;font-weight:normal;stroke:none;text-anchor:middle" x="495.0" y="67.0" /></g><line style="" x1="60.0" x2="530.4000000000001" y1="550.0" y2="550.0" /><g><text style="alignment-baseline:middle;baseline-shift:-80%;font-size:10px;font-weight:normal;stroke:none;text-anchor:middle" x="60.0" y="550.0">0</text><text style="alignment-baseline:middle;baseline-shift:-80%;font-size:10px;font-weight:normal;stroke:none;text-anchor:middle" x="156.0" y="550.0">10</text><text style="alignment-baseline:middle;baseline-shift:-80%;font-size:10px;font-weight:normal;stroke:none;text-anchor:middle" x="252.0" y="550.0">20</text><text style="alignment-baseline:middle;baseline-shift:-80%;font-size:10px;font-weight:normal;stroke:none;text-anchor:middle" x="348.0" y="550.0">30</text><text style="alignment-baseline:middle;baseline-shift:-80%;font-size:10px;font-weight:normal;stroke:none;text-anchor:middle" x="444.0" y="550.0">40</text><text style="alignment-baseline:middle;baseline-shift:-80%;font-size:10px;font-weight:normal;stroke:none;text-anchor:middle" x="540.0" y="550.0">50</text></g><line style="" x1="50.0" x2="50.0" y1="60.91800857533521" y2="550.0" /><g><text style="alignment-baseline:middle;baseline-shift:80%;font-size:10px;font-weight:normal;stroke:none;text-anchor:middle" transform="rotate(-90, 50.0, 540.0)" x="50.0" y="540.0">0.0</text><text style="alignment-baseline:middle;baseline-shift:80%;font-size:10px;font-weight:normal;stroke:none;text-anchor:middle" transform="rotate(-90, 50.0, 300.0)" x="50.0" y="300.0">0.5</text><text style="alignment-baseline:middle;baseline-shift:80%;font-size:10px;font-weight:normal;stroke:none;text-anchor:middle" transform="rotate(-90, 50.0, 60.0)" x="50.0" y="60.0">1.0</text></g></g></svg>