<svg height="600px" id="t98143f1ffc244b6fb8ff4857118f737e" preserveAspectRatio="xMidYMid meet" style="background-color:transparent;fill:rgb(16.1%,15.3%,14.1%);fill-opacity:1.0;font-family:helvetica;font-size:12px;opacity:1.0;stroke:rgb(16.1%,15.3%,14.1%);stroke-opacity:1.0;stroke-width:1.0" viewBox="0 0 600 600" width="600px" xmlns="http://www.w3.org/2000/svg" xmlns:toyplot="http://www.sandia.gov/toyplot"><g class="toyplot-axes-Cartesian" id="t9dca62ba4eb84e16a8f3b7c97039b2dd"><clipPath id="tf7fe4495cacb49189cd716b2bc678b04"><rect height="500.0" width="500.0" x="50.0" y="50.0" /></clipPath><g class="toyplot-coordinate-events" clip-path="url(#tf7fe4495cacb49189cd716b2bc678b04)" style="cursor:crosshair"><rect height="500.0" style="pointer-events:all;visibility:hidden" width="500.0" x="50.0" y="50.0" /><g class="toyplot-mark-FillMagnitudes" id="tb4c22d5d178b4fe8980cc24e1a730e5a" style="stroke:none"><polygon points="60.0,510.24718612002789 69.599999999999994,504.7901361195776 79.199999999999989,517.65101005296594 88.799999999999997,514.71715474948041 98.400000000000006,495.70852543421574 108.0,514.98019671529448 117.59999999999999,510.43128484877292 127.20000000000002,507.13163560936869 136.80000000000001,505.10119858606703 146.40000000000001,509.31564434263703 156.0,495.36734687303766 165.59999999999999,513.4726041771894 175.19999999999999,514.58712637779024 184.80000000000001,515.46855591318445 194.40000000000001,507.70806890813986 204.0,514.22719807953763 213.60000000000002,512.11001484575229 223.20000000000002,505.07268626665945 232.80000000000001,511.67888626843791 242.39999999999998,517.03510577638031 252.0,505.06124908618023 261.59999999999997,509.45390920011715 271.19999999999999,514.17836624713811 280.80000000000001,512.84625122859609 290.39999999999998,518.88085241039983 300.0,510.89979898928686 309.60000000000002,506.29743984581137 319.20000000000005,509.98362493678616 328.80000000000001,505.45423394458538 338.39999999999998,515.80074287011291 348.0,508.13200867806574 357.60000000000002,510.28926481357871 367.20000000000005,505.01500855344364 376.80000000000001,510.31560581684676 386.40000000000003,488.88534237321733 396.0,517.9003495498913 405.60000000000002,509.91538258288563 415.20000000000005,512.01803659461416 424.79999999999995,503.09830629893253 434.39999999999998,502.32893279648187 444.0,507.30411536447764 453.59999999999997,511.41938034092169 463.19999999999999,521.16433607608303 472.79999999999995,507.08319988105745 482.39999999999998,511.88428891606765 492.0,515.63838040974781 501.60000000000002,505.06869422223519 511.19999999999999,510.28278880112293 520.79999999999995,506.36430413455105 530.40000000000009,507.92168505811901 530.40000000000009,316.15662988376204 520.79999999999995,319.27139173089773 511.19999999999999,311.43442239775419 501.60000000000002,321.86261155552955 492.0,300.72323918050438 482.39999999999998,308.23142216786459 472.79999999999995,317.83360023788504 463.19999999999999,289.67132784783394 453.59999999999997,309.16123931815656 444.0,317.39176927104478 434.39999999999998,327.34213440703627 424.79999999999995,325.80338740213494 415.20000000000005,307.9639268107718 405.60000000000002,312.16923483422875 396.0,296.19930090021751 386.40000000000003,354.22931525356529 376.80000000000001,311.36878836630655 367.20000000000005,321.96998289311273 357.60000000000002,311.42147037284246 348.0,315.73598264386851 338.39999999999998,300.39851425977406 328.80000000000001,321.09153211082923 319.20000000000005,312.03275012642757 309.60000000000002,319.40512030837721 300.0,310.20040202142633 290.39999999999998,294.23829517920035 280.80000000000001,306.30749754280777 271.19999999999999,303.64326750572377 261.59999999999997,313.09218159976564 252.0,321.87750182763955 242.39999999999998,297.92978844723933 232.80000000000001,308.64222746312407 223.20000000000002,321.85462746668117 213.60000000000002,307.77997030849536 204.0,303.54560384092468 194.40000000000001,316.58386218372027 184.80000000000001,301.06288817363111 175.19999999999999,302.82574724441952 165.59999999999999,305.05479164562104 156.0,341.26530625392473 146.40000000000001,313.36871131472594 136.80000000000001,321.797602827866 127.20000000000002,317.73672878126268 117.59999999999999,311.13743030245416 108.0,302.03960656941103 98.400000000000006,340.58294913156851 88.799999999999997,302.56569050103923 79.199999999999989,296.69797989406811 69.599999999999994,322.41972776084481 60.0,311.5056277599441" style="fill:rgb(40%,76.1%,64.7%);fill-opacity:1.0;opacity:1.0;stroke:none" /><polygon points="60.0,311.5056277599441 69.599999999999994,322.41972776084481 79.199999999999989,296.69797989406811 88.799999999999997,302.56569050103923 98.400000000000006,340.58294913156851 108.0,302.03960656941103 117.59999999999999,311.13743030245416 127.20000000000002,317.73672878126268 136.80000000000001,321.797602827866 146.40000000000001,313.36871131472594 156.0,341.26530625392473 165.59999999999999,305.05479164562104 175.19999999999999,302.82574724441952 184.80000000000001,301.06288817363111 194.40000000000001,316.58386218372027 204.0,303.54560384092468 213.60000000000002,307.77997030849536 223.20000000000002,321.85462746668117 232.80000000000001,308.64222746312407 242.39999999999998,297.92978844723933 252.0,321.87750182763955 261.59999999999997,313.09218159976564 271.19999999999999,303.64326750572377 280.80000000000001,306.30749754280777 290.39999999999998,294.23829517920035 300.0,310.20040202142633 309.60000000000002,319.40512030837721 319.20000000000005,312.03275012642757 328.80000000000001,321.09153211082923 338.39999999999998,300.39851425977406 348.0,315.73598264386851 357.60000000000002,311.42147037284246 367.20000000000005,321.96998289311273 376.80000000000001,311.36878836630655 386.40000000000003,354.22931525356529 396.0,296.19930090021751 405.60000000000002,312.16923483422875 415.20000000000005,307.9639268107718 424.79999999999995,325.80338740213494 434.39999999999998,327.34213440703627 444.0,317.39176927104478 453.59999999999997,309.16123931815656 463.19999999999999,289.67132784783394 472.79999999999995,317.83360023788504 482.39999999999998,308.23142216786459 492.0,300.72323918050438 501.60000000000002,321.86261155552955 511.19999999999999,311.43442239775419 520.79999999999995,319.27139173089773 530.40000000000009,316.15662988376204 530.40000000000009,119.44611112037545 520.79999999999995,121.35109331032393 511.19999999999999,115.46622456415318 501.60000000000002,137.22083643625848 492.0,85.903257791178632 482.39999999999998,111.13831355366952 472.79999999999995,135.4439741614604 463.19999999999999,115.4221084437242 453.59999999999997,111.27702216793395 444.0,108.86693050499818 434.39999999999998,149.6541052368292 424.79999999999995,113.77729028031081 415.20000000000005,123.50804025493832 405.60000000000002,140.84409408959075 396.0,124.59853192401327 386.40000000000003,192.83844364904382 376.80000000000001,114.13485504842672 367.20000000000005,122.33974955528093 357.60000000000002,109.31092434766353 348.0,129.03019191043117 338.39999999999998,98.063051667983416 328.80000000000001,132.7446673950642 319.20000000000005,143.31471561357614 309.60000000000002,123.87649705034332 300.0,112.65583604321181 290.39999999999998,90.326604554352656 280.80000000000001,123.34897609136394 271.19999999999999,121.24420925069842 261.59999999999997,135.46931892568213 252.0,125.03309904135432 242.39999999999998,124.37648221857131 232.80000000000001,132.54629899354401 223.20000000000002,139.90354521263245 213.60000000000002,99.575969893638614 204.0,117.76247691315834 194.40000000000001,137.09447850853564 184.80000000000001,101.9433495037234 175.19999999999999,102.57659283688471 165.59999999999999,101.28644205132133 156.0,159.30716751670178 146.40000000000001,127.93096544299456 136.80000000000001,138.6382516681667 127.20000000000002,120.44191229439872 117.59999999999999,112.72147516096086 108.0,121.47627709733342 98.400000000000006,169.99828078091784 88.799999999999997,119.87488135871882 79.199999999999989,115.98944479573643 69.599999999999994,134.53648396111961 60.0,120.33413649554676" style="fill:rgb(98.8%,55.3%,38.4%);fill-opacity:1.0;opacity:1.0;stroke:none" /></g></g><g class="toyplot-coordinates" style="visibility:hidden"><rect height="14.0" style="fill:rgb(100%,100%,100%);fill-opacity:1.0;opacity:0.75;stroke:none" width="90.0" x="450.0" y="60.0" /><text style="alignment-baseline:middle;font-size:10px;font-weight:normal;stroke:none;text-anchor:middle" x="495.0" y="67.0" /></g><line style="" x1="60.0" x2="530.4000000000001" y1="550.0" y2="550.0" /><g><text style="alignment-baseline:middle;baseline-shift:-80%;font-size:10px;font-weight:normal;stroke:none;text-anchor:middle" x="60.0" y="550.0">0</text><text style="alignment-baseline:middle;baseline-shift:-80%;font-size:10px;font-weight:normal;stroke:none;text-anchor:middle" x="156.0" y="550.0">10</text><text style="alignment-baseline:middle;baseline-shift:-80%;font-size:10px;font-weight:normal;stroke:none;text-anchor:middle" x="252.0" y="550.0">20</text><text style="alignment-baseline:middle;baseline-shift:-80%;font-size:10px;font-weight:normal;stroke:none;text-anchor:middle" x="348.0" y="550.0">30</text><text style="alignment-baseline:middle;baseline-shift:-80%;font-size:10px;font-weight:normal;stroke:none;text-anchor:middle" x="444.0" y="550.0">40</text><text style="alignment-baseline:middle;baseline-shift:-80%;font-size:10px;font-weight:normal;stroke:none;text-anchor:middle" x="540.0" y="550.0">50</text></g><line style="" x1="50.0" x2="50.0" y1="85.90325779117863" y2="521.164336076083" /><g><text style="alignment-baseline:middle;baseline-shift:80%;font-size:10px;font-weight:normal;stroke:none;text-anchor:middle" transform="rotate(-90, 50.0, 540.0)" x="50.0" y="540.0">-0.5</text><text style="alignment-baseline:middle;baseline-shift:80%;font-size:10px;font-weight:normal;stroke:none;text-anchor:middle" transform="rotate(-90, 50.0, 444.0)" x="50.0" y="444.0">0.0</text><text style="alignment-baseline:middle;baseline-shift:80%;font-size:10px;font-weight:normal;stroke:none;text-anchor:middle" transform="rotate(-90, 50.0, 348.0)" x="50.0" y="348.0">0.5</text><text style="alignment-baseline:middle;baseline-shift:80%;font-size:10px;font-weight:normal;stroke:none;text-anchor:middle" transform="rotate(-90, 50.0, 252.0)" x="50.0" y="252.0">1.0</text><text style="alignment-baseline:middle;baseline-shift:80%;font-size:10px;font-weight:normal;stroke:none;text-anchor:middle" transform="rotate(-90, 50.0, 155.99999999999997)" x="50.0" y="155.99999999999997">1.5</text><text style="alignment-baseline:middle;baseline-shift:80%;font-size:10px;font-weight:normal;stroke:none;text-anchor:middle" transform="rotate(-90, 50.0, 60.0)" x="50.0" y="60.0">2.0</text></g></g></svg>