<svg class="toyplot-canvas-Canvas" height="600px" id="t19234d39ec274e968ab0957d52c06ccd" preserveAspectRatio="xMidYMid meet" style="background-color:transparent;border-color:#292724;border-style:none;border-width:1.0;fill:rgb(16.1%,15.3%,14.1%);fill-opacity:1.0;font-family:Helvetica;font-size:12px;opacity:1.0;stroke:rgb(16.1%,15.3%,14.1%);stroke-opacity:1.0;stroke-width:1.0" viewBox="0 0 600 600" width="600px" xmlns="http://www.w3.org/2000/svg" xmlns:toyplot="http://www.sandia.gov/toyplot" xmlns:xlink="http://www.w3.org/1999/xlink"><g class="toyplot-coordinates-Cartesian" id="tbbe7a0b2acc245a2849b928bbcb2f192"><clipPath id="t79a46ab9c43a4c1cad11db04ebb990ca"><rect height="520.0" width="520.0" x="40.0" y="40.0" /></clipPath><g clip-path="url(#t79a46ab9c43a4c1cad11db04ebb990ca)"><g class="toyplot-mark-AxisLines" id="td001a500e4dd45af8387b2661008b212" style="opacity:0.4;stroke:rgb(27.5%,51%,70.6%);stroke-opacity:1.0"><g class="toyplot-Series"><line class="toyplot-Datum" style="opacity:0.4;stroke:rgb(27.5%,51%,70.6%);stroke-opacity:1.0" x1="50.0" x2="550.0" y1="550.0" y2="550.0" /><line class="toyplot-Datum" style="opacity:0.4;stroke:rgb(27.5%,51%,70.6%);stroke-opacity:1.0" x1="50.0" x2="550.0" y1="539.7959183673469" y2="539.7959183673469" /><line class="toyplot-Datum" style="opacity:0.4;stroke:rgb(27.5%,51%,70.6%);stroke-opacity:1.0" x1="50.0" x2="550.0" y1="529.5918367346939" y2="529.5918367346939" /><line class="toyplot-Datum" style="opacity:0.4;stroke:rgb(27.5%,51%,70.6%);stroke-opacity:1.0" x1="50.0" x2="550.0" y1="519.3877551020408" y2="519.3877551020408" /><line class="toyplot-Datum" style="opacity:0.4;stroke:rgb(27.5%,51%,70.6%);stroke-opacity:1.0" x1="50.0" x2="550.0" y1="509.18367346938777" y2="509.18367346938777" /><line class="toyplot-Datum" style="opacity:0.4;stroke:rgb(27.5%,51%,70.6%);stroke-opacity:1.0" x1="50.0" x2="550.0" y1="498.97959183673464" y2="498.97959183673464" /><line class="toyplot-Datum" style="opacity:0.4;stroke:rgb(27.5%,51%,70.6%);stroke-opacity:1.0" x1="50.0" x2="550.0" y1="488.7755102040816" y2="488.7755102040816" /><line class="toyplot-Datum" style="opacity:0.4;stroke:rgb(27.5%,51%,70.6%);stroke-opacity:1.0" x1="50.0" x2="550.0" y1="478.5714285714286" y2="478.5714285714286" /><line class="toyplot-Datum" style="opacity:0.4;stroke:rgb(27.5%,51%,70.6%);stroke-opacity:1.0" x1="50.0" x2="550.0" y1="468.36734693877554" y2="468.36734693877554" /><line class="toyplot-Datum" style="opacity:0.4;stroke:rgb(27.5%,51%,70.6%);stroke-opacity:1.0" x1="50.0" x2="550.0" y1="458.16326530612247" y2="458.16326530612247" /><line class="toyplot-Datum" style="opacity:0.4;stroke:rgb(27.5%,51%,70.6%);stroke-opacity:1.0" x1="50.0" x2="550.0" y1="447.9591836734694" y2="447.9591836734694" /><line class="toyplot-Datum" style="opacity:0.4;stroke:rgb(27.5%,51%,70.6%);stroke-opacity:1.0" x1="50.0" x2="550.0" y1="437.7551020408163" y2="437.7551020408163" /><line class="toyplot-Datum" style="opacity:0.4;stroke:rgb(27.5%,51%,70.6%);stroke-opacity:1.0" x1="50.0" x2="550.0" y1="427.5510204081633" y2="427.5510204081633" /><line class="toyplot-Datum" style="opacity:0.4;stroke:rgb(27.5%,51%,70.6%);stroke-opacity:1.0" x1="50.0" x2="550.0" y1="417.34693877551024" y2="417.34693877551024" /><line class="toyplot-Datum" style="opacity:0.4;stroke:rgb(27.5%,51%,70.6%);stroke-opacity:1.0" x1="50.0" x2="550.0" y1="407.14285714285717" y2="407.14285714285717" /><line class="toyplot-Datum" style="opacity:0.4;stroke:rgb(27.5%,51%,70.6%);stroke-opacity:1.0" x1="50.0" x2="550.0" y1="396.93877551020415" y2="396.93877551020415" /><line class="toyplot-Datum" style="opacity:0.4;stroke:rgb(27.5%,51%,70.6%);stroke-opacity:1.0" x1="50.0" x2="550.0" y1="386.734693877551" y2="386.734693877551" /><line class="toyplot-Datum" style="opacity:0.4;stroke:rgb(27.5%,51%,70.6%);stroke-opacity:1.0" x1="50.0" x2="550.0" y1="376.53061224489795" y2="376.53061224489795" /><line class="toyplot-Datum" style="opacity:0.4;stroke:rgb(27.5%,51%,70.6%);stroke-opacity:1.0" x1="50.0" x2="550.0" y1="366.3265306122449" y2="366.3265306122449" /><line class="toyplot-Datum" style="opacity:0.4;stroke:rgb(27.5%,51%,70.6%);stroke-opacity:1.0" x1="50.0" x2="550.0" y1="356.1224489795918" y2="356.1224489795918" /><line class="toyplot-Datum" style="opacity:0.4;stroke:rgb(27.5%,51%,70.6%);stroke-opacity:1.0" x1="50.0" x2="550.0" y1="345.9183673469388" y2="345.9183673469388" /><line class="toyplot-Datum" style="opacity:0.4;stroke:rgb(27.5%,51%,70.6%);stroke-opacity:1.0" x1="50.0" x2="550.0" y1="335.7142857142858" y2="335.7142857142858" /><line class="toyplot-Datum" style="opacity:0.4;stroke:rgb(27.5%,51%,70.6%);stroke-opacity:1.0" x1="50.0" x2="550.0" y1="325.5102040816327" y2="325.5102040816327" /><line class="toyplot-Datum" style="opacity:0.4;stroke:rgb(27.5%,51%,70.6%);stroke-opacity:1.0" x1="50.0" x2="550.0" y1="315.3061224489797" y2="315.3061224489797" /><line class="toyplot-Datum" style="opacity:0.4;stroke:rgb(27.5%,51%,70.6%);stroke-opacity:1.0" x1="50.0" x2="550.0" y1="305.1020408163266" y2="305.1020408163266" /><line class="toyplot-Datum" style="opacity:0.4;stroke:rgb(27.5%,51%,70.6%);stroke-opacity:1.0" x1="50.0" x2="550.0" y1="294.89795918367355" y2="294.89795918367355" /><line class="toyplot-Datum" style="opacity:0.4;stroke:rgb(27.5%,51%,70.6%);stroke-opacity:1.0" x1="50.0" x2="550.0" y1="284.6938775510204" y2="284.6938775510204" /><line class="toyplot-Datum" style="opacity:0.4;stroke:rgb(27.5%,51%,70.6%);stroke-opacity:1.0" x1="50.0" x2="550.0" y1="274.48979591836746" y2="274.48979591836746" /><line class="toyplot-Datum" style="opacity:0.4;stroke:rgb(27.5%,51%,70.6%);stroke-opacity:1.0" x1="50.0" x2="550.0" y1="264.2857142857143" y2="264.2857142857143" /><line class="toyplot-Datum" style="opacity:0.4;stroke:rgb(27.5%,51%,70.6%);stroke-opacity:1.0" x1="50.0" x2="550.0" y1="254.08163265306126" y2="254.08163265306126" /><line class="toyplot-Datum" style="opacity:0.4;stroke:rgb(27.5%,51%,70.6%);stroke-opacity:1.0" x1="50.0" x2="550.0" y1="243.87755102040822" y2="243.87755102040822" /><line class="toyplot-Datum" style="opacity:0.4;stroke:rgb(27.5%,51%,70.6%);stroke-opacity:1.0" x1="50.0" x2="550.0" y1="233.67346938775515" y2="233.67346938775515" /><line class="toyplot-Datum" style="opacity:0.4;stroke:rgb(27.5%,51%,70.6%);stroke-opacity:1.0" x1="50.0" x2="550.0" y1="223.46938775510213" y2="223.46938775510213" /><line class="toyplot-Datum" style="opacity:0.4;stroke:rgb(27.5%,51%,70.6%);stroke-opacity:1.0" x1="50.0" x2="550.0" y1="213.26530612244903" y2="213.26530612244903" /><line class="toyplot-Datum" style="opacity:0.4;stroke:rgb(27.5%,51%,70.6%);stroke-opacity:1.0" x1="50.0" x2="550.0" y1="203.06122448979596" y2="203.06122448979596" /><line class="toyplot-Datum" style="opacity:0.4;stroke:rgb(27.5%,51%,70.6%);stroke-opacity:1.0" x1="50.0" x2="550.0" y1="192.8571428571429" y2="192.8571428571429" /><line class="toyplot-Datum" style="opacity:0.4;stroke:rgb(27.5%,51%,70.6%);stroke-opacity:1.0" x1="50.0" x2="550.0" y1="182.65306122448987" y2="182.65306122448987" /><line class="toyplot-Datum" style="opacity:0.4;stroke:rgb(27.5%,51%,70.6%);stroke-opacity:1.0" x1="50.0" x2="550.0" y1="172.44897959183683" y2="172.44897959183683" /><line class="toyplot-Datum" style="opacity:0.4;stroke:rgb(27.5%,51%,70.6%);stroke-opacity:1.0" x1="50.0" x2="550.0" y1="162.24489795918373" y2="162.24489795918373" /><line class="toyplot-Datum" style="opacity:0.4;stroke:rgb(27.5%,51%,70.6%);stroke-opacity:1.0" x1="50.0" x2="550.0" y1="152.04081632653072" y2="152.04081632653072" /><line class="toyplot-Datum" style="opacity:0.4;stroke:rgb(27.5%,51%,70.6%);stroke-opacity:1.0" x1="50.0" x2="550.0" y1="141.8367346938776" y2="141.8367346938776" /><line class="toyplot-Datum" style="opacity:0.4;stroke:rgb(27.5%,51%,70.6%);stroke-opacity:1.0" x1="50.0" x2="550.0" y1="131.63265306122452" y2="131.63265306122452" /><line class="toyplot-Datum" style="opacity:0.4;stroke:rgb(27.5%,51%,70.6%);stroke-opacity:1.0" x1="50.0" x2="550.0" y1="121.4285714285715" y2="121.4285714285715" /><line class="toyplot-Datum" style="opacity:0.4;stroke:rgb(27.5%,51%,70.6%);stroke-opacity:1.0" x1="50.0" x2="550.0" y1="111.22448979591843" y2="111.22448979591843" /><line class="toyplot-Datum" style="opacity:0.4;stroke:rgb(27.5%,51%,70.6%);stroke-opacity:1.0" x1="50.0" x2="550.0" y1="101.02040816326536" y2="101.02040816326536" /><line class="toyplot-Datum" style="opacity:0.4;stroke:rgb(27.5%,51%,70.6%);stroke-opacity:1.0" x1="50.0" x2="550.0" y1="90.81632653061234" y2="90.81632653061234" /><line class="toyplot-Datum" style="opacity:0.4;stroke:rgb(27.5%,51%,70.6%);stroke-opacity:1.0" x1="50.0" x2="550.0" y1="80.61224489795927" y2="80.61224489795927" /><line class="toyplot-Datum" style="opacity:0.4;stroke:rgb(27.5%,51%,70.6%);stroke-opacity:1.0" x1="50.0" x2="550.0" y1="70.4081632653062" y2="70.4081632653062" /><line class="toyplot-Datum" style="opacity:0.4;stroke:rgb(27.5%,51%,70.6%);stroke-opacity:1.0" x1="50.0" x2="550.0" y1="60.204081632653185" y2="60.204081632653185" /><line class="toyplot-Datum" style="opacity:0.4;stroke:rgb(27.5%,51%,70.6%);stroke-opacity:1.0" x1="50.0" x2="550.0" y1="50.00000000000011" y2="50.00000000000011" /></g></g><g class="toyplot-mark-AxisLines" id="tb515188a81a24ecb9175414254bcc349" style="opacity:0.4;stroke:rgb(27.5%,51%,70.6%);stroke-opacity:1.0"><g class="toyplot-Series"><line class="toyplot-Datum" style="opacity:0.4;stroke:rgb(27.5%,51%,70.6%);stroke-opacity:1.0" x1="50.0" x2="50.0" y1="50.0" y2="550.0" /><line class="toyplot-Datum" style="opacity:0.4;stroke:rgb(27.5%,51%,70.6%);stroke-opacity:1.0" x1="60.20408163265306" x2="60.20408163265306" y1="50.0" y2="550.0" /><line class="toyplot-Datum" style="opacity:0.4;stroke:rgb(27.5%,51%,70.6%);stroke-opacity:1.0" x1="70.40816326530611" x2="70.40816326530611" y1="50.0" y2="550.0" /><line class="toyplot-Datum" style="opacity:0.4;stroke:rgb(27.5%,51%,70.6%);stroke-opacity:1.0" x1="80.61224489795919" x2="80.61224489795919" y1="50.0" y2="550.0" /><line class="toyplot-Datum" style="opacity:0.4;stroke:rgb(27.5%,51%,70.6%);stroke-opacity:1.0" x1="90.81632653061224" x2="90.81632653061224" y1="50.0" y2="550.0" /><line class="toyplot-Datum" style="opacity:0.4;stroke:rgb(27.5%,51%,70.6%);stroke-opacity:1.0" x1="101.0204081632653" x2="101.0204081632653" y1="50.0" y2="550.0" /><line class="toyplot-Datum" style="opacity:0.4;stroke:rgb(27.5%,51%,70.6%);stroke-opacity:1.0" x1="111.22448979591836" x2="111.22448979591836" y1="50.0" y2="550.0" /><line class="toyplot-Datum" style="opacity:0.4;stroke:rgb(27.5%,51%,70.6%);stroke-opacity:1.0" x1="121.42857142857143" x2="121.42857142857143" y1="50.0" y2="550.0" /><line class="toyplot-Datum" style="opacity:0.4;stroke:rgb(27.5%,51%,70.6%);stroke-opacity:1.0" x1="131.6326530612245" x2="131.6326530612245" y1="50.0" y2="550.0" /><line class="toyplot-Datum" style="opacity:0.4;stroke:rgb(27.5%,51%,70.6%);stroke-opacity:1.0" x1="141.83673469387753" x2="141.83673469387753" y1="50.0" y2="550.0" /><line class="toyplot-Datum" style="opacity:0.4;stroke:rgb(27.5%,51%,70.6%);stroke-opacity:1.0" x1="152.0408163265306" x2="152.0408163265306" y1="50.0" y2="550.0" /><line class="toyplot-Datum" style="opacity:0.4;stroke:rgb(27.5%,51%,70.6%);stroke-opacity:1.0" x1="162.24489795918365" x2="162.24489795918365" y1="50.0" y2="550.0" /><line class="toyplot-Datum" style="opacity:0.4;stroke:rgb(27.5%,51%,70.6%);stroke-opacity:1.0" x1="172.44897959183672" x2="172.44897959183672" y1="50.0" y2="550.0" /><line class="toyplot-Datum" style="opacity:0.4;stroke:rgb(27.5%,51%,70.6%);stroke-opacity:1.0" x1="182.6530612244898" x2="182.6530612244898" y1="50.0" y2="550.0" /><line class="toyplot-Datum" style="opacity:0.4;stroke:rgb(27.5%,51%,70.6%);stroke-opacity:1.0" x1="192.85714285714286" x2="192.85714285714286" y1="50.0" y2="550.0" /><line class="toyplot-Datum" style="opacity:0.4;stroke:rgb(27.5%,51%,70.6%);stroke-opacity:1.0" x1="203.0612244897959" x2="203.0612244897959" y1="50.0" y2="550.0" /><line class="toyplot-Datum" style="opacity:0.4;stroke:rgb(27.5%,51%,70.6%);stroke-opacity:1.0" x1="213.26530612244898" x2="213.26530612244898" y1="50.0" y2="550.0" /><line class="toyplot-Datum" style="opacity:0.4;stroke:rgb(27.5%,51%,70.6%);stroke-opacity:1.0" x1="223.46938775510202" x2="223.46938775510202" y1="50.0" y2="550.0" /><line class="toyplot-Datum" style="opacity:0.4;stroke:rgb(27.5%,51%,70.6%);stroke-opacity:1.0" x1="233.6734693877551" x2="233.6734693877551" y1="50.0" y2="550.0" /><line class="toyplot-Datum" style="opacity:0.4;stroke:rgb(27.5%,51%,70.6%);stroke-opacity:1.0" x1="243.87755102040816" x2="243.87755102040816" y1="50.0" y2="550.0" /><line class="toyplot-Datum" style="opacity:0.4;stroke:rgb(27.5%,51%,70.6%);stroke-opacity:1.0" x1="254.0816326530612" x2="254.0816326530612" y1="50.0" y2="550.0" /><line class="toyplot-Datum" style="opacity:0.4;stroke:rgb(27.5%,51%,70.6%);stroke-opacity:1.0" x1="264.2857142857143" x2="264.2857142857143" y1="50.0" y2="550.0" /><line class="toyplot-Datum" style="opacity:0.4;stroke:rgb(27.5%,51%,70.6%);stroke-opacity:1.0" x1="274.4897959183673" x2="274.4897959183673" y1="50.0" y2="550.0" /><line class="toyplot-Datum" style="opacity:0.4;stroke:rgb(27.5%,51%,70.6%);stroke-opacity:1.0" x1="284.69387755102036" x2="284.69387755102036" y1="50.0" y2="550.0" /><line class="toyplot-Datum" style="opacity:0.4;stroke:rgb(27.5%,51%,70.6%);stroke-opacity:1.0" x1="294.89795918367344" x2="294.89795918367344" y1="50.0" y2="550.0" /><line class="toyplot-Datum" style="opacity:0.4;stroke:rgb(27.5%,51%,70.6%);stroke-opacity:1.0" x1="305.10204081632656" x2="305.10204081632656" y1="50.0" y2="550.0" /><line class="toyplot-Datum" style="opacity:0.4;stroke:rgb(27.5%,51%,70.6%);stroke-opacity:1.0" x1="315.3061224489796" x2="315.3061224489796" y1="50.0" y2="550.0" /><line class="toyplot-Datum" style="opacity:0.4;stroke:rgb(27.5%,51%,70.6%);stroke-opacity:1.0" x1="325.51020408163265" x2="325.51020408163265" y1="50.0" y2="550.0" /><line class="toyplot-Datum" style="opacity:0.4;stroke:rgb(27.5%,51%,70.6%);stroke-opacity:1.0" x1="335.7142857142857" x2="335.7142857142857" y1="50.0" y2="550.0" /><line class="toyplot-Datum" style="opacity:0.4;stroke:rgb(27.5%,51%,70.6%);stroke-opacity:1.0" x1="345.9183673469388" x2="345.9183673469388" y1="50.0" y2="550.0" /><line class="toyplot-Datum" style="opacity:0.4;stroke:rgb(27.5%,51%,70.6%);stroke-opacity:1.0" x1="356.1224489795918" x2="356.1224489795918" y1="50.0" y2="550.0" /><line class="toyplot-Datum" style="opacity:0.4;stroke:rgb(27.5%,51%,70.6%);stroke-opacity:1.0" x1="366.3265306122449" x2="366.3265306122449" y1="50.0" y2="550.0" /><line class="toyplot-Datum" style="opacity:0.4;stroke:rgb(27.5%,51%,70.6%);stroke-opacity:1.0" x1="376.5306122448979" x2="376.5306122448979" y1="50.0" y2="550.0" /><line class="toyplot-Datum" style="opacity:0.4;stroke:rgb(27.5%,51%,70.6%);stroke-opacity:1.0" x1="386.73469387755097" x2="386.73469387755097" y1="50.0" y2="550.0" /><line class="toyplot-Datum" style="opacity:0.4;stroke:rgb(27.5%,51%,70.6%);stroke-opacity:1.0" x1="396.93877551020404" x2="396.93877551020404" y1="50.0" y2="550.0" /><line class="toyplot-Datum" style="opacity:0.4;stroke:rgb(27.5%,51%,70.6%);stroke-opacity:1.0" x1="407.1428571428571" x2="407.1428571428571" y1="50.0" y2="550.0" /><line class="toyplot-Datum" style="opacity:0.4;stroke:rgb(27.5%,51%,70.6%);stroke-opacity:1.0" x1="417.3469387755102" x2="417.3469387755102" y1="50.0" y2="550.0" /><line class="toyplot-Datum" style="opacity:0.4;stroke:rgb(27.5%,51%,70.6%);stroke-opacity:1.0" x1="427.55102040816325" x2="427.55102040816325" y1="50.0" y2="550.0" /><line class="toyplot-Datum" style="opacity:0.4;stroke:rgb(27.5%,51%,70.6%);stroke-opacity:1.0" x1="437.7551020408163" x2="437.7551020408163" y1="50.0" y2="550.0" /><line class="toyplot-Datum" style="opacity:0.4;stroke:rgb(27.5%,51%,70.6%);stroke-opacity:1.0" x1="447.95918367346934" x2="447.95918367346934" y1="50.0" y2="550.0" /><line class="toyplot-Datum" style="opacity:0.4;stroke:rgb(27.5%,51%,70.6%);stroke-opacity:1.0" x1="458.1632653061224" x2="458.1632653061224" y1="50.0" y2="550.0" /><line class="toyplot-Datum" style="opacity:0.4;stroke:rgb(27.5%,51%,70.6%);stroke-opacity:1.0" x1="468.3673469387755" x2="468.3673469387755" y1="50.0" y2="550.0" /><line class="toyplot-Datum" style="opacity:0.4;stroke:rgb(27.5%,51%,70.6%);stroke-opacity:1.0" x1="478.57142857142856" x2="478.57142857142856" y1="50.0" y2="550.0" /><line class="toyplot-Datum" style="opacity:0.4;stroke:rgb(27.5%,51%,70.6%);stroke-opacity:1.0" x1="488.7755102040816" x2="488.7755102040816" y1="50.0" y2="550.0" /><line class="toyplot-Datum" style="opacity:0.4;stroke:rgb(27.5%,51%,70.6%);stroke-opacity:1.0" x1="498.9795918367346" x2="498.9795918367346" y1="50.0" y2="550.0" /><line class="toyplot-Datum" style="opacity:0.4;stroke:rgb(27.5%,51%,70.6%);stroke-opacity:1.0" x1="509.1836734693877" x2="509.1836734693877" y1="50.0" y2="550.0" /><line class="toyplot-Datum" style="opacity:0.4;stroke:rgb(27.5%,51%,70.6%);stroke-opacity:1.0" x1="519.3877551020407" x2="519.3877551020407" y1="50.0" y2="550.0" /><line class="toyplot-Datum" style="opacity:0.4;stroke:rgb(27.5%,51%,70.6%);stroke-opacity:1.0" x1="529.5918367346939" x2="529.5918367346939" y1="50.0" y2="550.0" /><line class="toyplot-Datum" style="opacity:0.4;stroke:rgb(27.5%,51%,70.6%);stroke-opacity:1.0" x1="539.7959183673469" x2="539.7959183673469" y1="50.0" y2="550.0" /><line class="toyplot-Datum" style="opacity:0.4;stroke:rgb(27.5%,51%,70.6%);stroke-opacity:1.0" x1="550.0" x2="550.0" y1="50.0" y2="550.0" /></g></g><g class="toyplot-mark-Plot" id="ta4ef0f58b56944c2894ce05237cab0a1" style="fill:none"><g class="toyplot-Series"><path d="M 175.0 497.9166666666667 L 180.10204081632654 493.5781965847563 L 185.20408163265307 489.06618769956964 L 190.30612244897958 484.3806400111065 L 195.4081632653061 479.52155351936693 L 200.51020408163268 474.48892822435096 L 205.61224489795921 469.2827641260586 L 210.71428571428572 463.9030612244898 L 215.81632653061223 458.34981951964465 L 220.91836734693877 452.623039011523 L 226.0204081632653 446.72271970012497 L 231.12244897959184 440.64886158545056 L 236.22448979591837 434.4014646674996 L 241.32653061224488 427.98052894627244 L 246.42857142857142 421.38605442176873 L 251.53061224489792 414.6180410939886 L 256.63265306122446 407.6764889629321 L 261.734693877551 400.56139802859917 L 266.83673469387753 393.2727682909899 L 271.9387755102041 385.8105997501042 L 277.0408163265306 378.17489240594205 L 282.14285714285717 370.3656462585034 L 287.2448979591837 362.3828613077885 L 292.3469387755102 354.226537553797 L 297.44897959183675 345.89667499652927 L 302.55102040816325 337.39327363598505 L 307.65306122448976 328.71633347216437 L 312.7551020408163 319.86585450506743 L 317.85714285714283 310.84183673469397 L 322.9591836734694 301.644280161044 L 328.06122448979585 292.27318478411786 L 333.16326530612247 282.72855060391504 L 338.265306122449 273.0103776204361 L 343.36734693877554 263.1186658336804 L 348.46938775510205 253.05341524364857 L 353.57142857142856 242.81462585034018 L 358.6734693877551 232.40229765375548 L 363.77551020408157 221.8164306538943 L 368.87755102040813 211.05702485075673 L 373.9795918367346 200.12408024434282 L 379.0816326530612 189.01759683465227 L 384.1836734693877 177.73757462168555 L 389.2857142857143 166.28401360544223 L 394.3877551020408 154.65691378592268 L 399.4897959183673 142.85627516312655 L 404.59183673469386 130.88209773705407 L 409.69387755102036 118.73438150770522 L 414.7959183673469 106.4131264750799 L 419.89795918367344 93.91833263917827 L 425.0 81.25000000000006" style="stroke:rgb(40%,76.1%,64.7%);stroke-opacity:1.0;stroke-width:2.0" /></g></g></g><g class="toyplot-coordinates-Axis" id="t98d38b8109874e0e9dd13ba0450b24ac" transform="translate(50.0,550.0)translate(0,10.0)"><line style="" x1="0" x2="500.0" y1="0" y2="0" /><g><g transform="translate(0.0,6)"><text style="fill:rgb(16.1%,15.3%,14.1%);fill-opacity:1.0;font-family:helvetica;font-size:10.0px;font-weight:normal;stroke:none;vertical-align:baseline;white-space:pre" x="-6.95" y="8.555">0.0</text></g><g transform="translate(250.0,6)"><text style="fill:rgb(16.1%,15.3%,14.1%);fill-opacity:1.0;font-family:helvetica;font-size:10.0px;font-weight:normal;stroke:none;vertical-align:baseline;white-space:pre" x="-6.95" y="8.555">0.5</text></g><g transform="translate(500.0,6)"><text style="fill:rgb(16.1%,15.3%,14.1%);fill-opacity:1.0;font-family:helvetica;font-size:10.0px;font-weight:normal;stroke:none;vertical-align:baseline;white-space:pre" x="-6.95" y="8.555">1.0</text></g></g><g class="toyplot-coordinates-Axis-coordinates" style="visibility:hidden" transform=""><line style="stroke:rgb(43.9%,50.2%,56.5%);stroke-opacity:1.0;stroke-width:1.0" x1="0" x2="0" y1="-3.0" y2="4.5" /><text style="alignment-baseline:alphabetic;fill:rgb(43.9%,50.2%,56.5%);fill-opacity:1.0;font-size:10px;font-weight:normal;stroke:none;text-anchor:middle" x="0" y="-6" /></g></g><g class="toyplot-coordinates-Axis" id="t20292eaf26664eaf933d4ac14ce708fa" transform="translate(50.0,550.0)rotate(-90.0)translate(0,-10.0)"><line style="" x1="0" x2="499.9999999999999" y1="0" y2="0" /><g><g transform="translate(0.0,-6)"><text style="fill:rgb(16.1%,15.3%,14.1%);fill-opacity:1.0;font-family:helvetica;font-size:10.0px;font-weight:normal;stroke:none;vertical-align:baseline;white-space:pre" x="-6.95" y="-4.440892098500626e-16">0.0</text></g><g transform="translate(166.66666666666666,-6)"><text style="fill:rgb(16.1%,15.3%,14.1%);fill-opacity:1.0;font-family:helvetica;font-size:10.0px;font-weight:normal;stroke:none;vertical-align:baseline;white-space:pre" x="-6.95" y="-4.440892098500626e-16">0.2</text></g><g transform="translate(333.3333333333333,-6)"><text style="fill:rgb(16.1%,15.3%,14.1%);fill-opacity:1.0;font-family:helvetica;font-size:10.0px;font-weight:normal;stroke:none;vertical-align:baseline;white-space:pre" x="-6.95" y="-4.440892098500626e-16">0.4</text></g><g transform="translate(500.0,-6)"><text style="fill:rgb(16.1%,15.3%,14.1%);fill-opacity:1.0;font-family:helvetica;font-size:10.0px;font-weight:normal;stroke:none;vertical-align:baseline;white-space:pre" x="-6.95" y="-4.440892098500626e-16">0.6</text></g></g><g class="toyplot-coordinates-Axis-coordinates" style="visibility:hidden" transform=""><line style="stroke:rgb(43.9%,50.2%,56.5%);stroke-opacity:1.0;stroke-width:1.0" x1="0" x2="0" y1="3.0" y2="-4.5" /><text style="alignment-baseline:hanging;fill:rgb(43.9%,50.2%,56.5%);fill-opacity:1.0;font-size:10px;font-weight:normal;stroke:none;text-anchor:middle" x="0" y="6" /></g></g></g></svg>