<svg height="600px" id="t7aedc5d3ef044b8b9a5b4f841a68c7af" style="background-color:transparent;fill:#292724;fill-opacity:1.0;font-family:helvetica;font-size:12px;opacity:1.0;stroke:#292724;stroke-opacity:1.0;stroke-width:1.0" width="600px" xmlns="http://www.w3.org/2000/svg" xmlns:toyplot="http://www.sandia.gov/toyplot"><g class="toyplot-axes-Cartesian" id="t09a44bd5b7474b718b368067ad531a8d"><clipPath id="t02a1a852684b4d75a3fbd496c7613095"><rect height="500" width="500" x="50" y="50" /></clipPath><g class="toyplot-coordinate-events" clip-path="url(#t02a1a852684b4d75a3fbd496c7613095)" style="cursor:crosshair"><rect height="500" style="pointer-events:all;visibility:hidden" width="500" x="50" y="50" /><g class="toyplot-mark-FillMagnitudes" id="tbaf7cf24a0d8464eabe64cd93a4e78ff" style="stroke:none"><toyplot:data-table title="Fill Data">{"data": [[0.0, 0.02040816326530612, 0.04081632653061224, 0.061224489795918366, 0.08163265306122448, 0.1020408163265306, 0.12244897959183673, 0.14285714285714285, 0.16326530612244897, 0.18367346938775508, 0.2040816326530612, 0.22448979591836732, 0.24489795918367346, 0.26530612244897955, 0.2857142857142857, 0.3061224489795918, 0.32653061224489793, 0.3469387755102041, 0.36734693877551017, 0.3877551020408163, 0.4081632653061224, 0.42857142857142855, 0.44897959183673464, 0.4693877551020408, 0.4897959183673469, 0.5102040816326531, 0.5306122448979591, 0.5510204081632653, 0.5714285714285714, 0.5918367346938775, 0.6122448979591836, 0.6326530612244897, 0.6530612244897959, 0.673469387755102, 0.6938775510204082, 0.7142857142857142, 0.7346938775510203, 0.7551020408163265, 0.7755102040816326, 0.7959183673469387, 0.8163265306122448, 0.836734693877551, 0.8571428571428571, 0.8775510204081632, 0.8979591836734693, 0.9183673469387754, 0.9387755102040816, 0.9591836734693877, 0.9795918367346939, 1.0], [0.0, 0.0, 0.0, 0.0, 0.0, 0.0, 0.0, 0.0, 0.0, 0.0, 0.0, 0.0, 0.0, 0.0, 0.0, 0.0, 0.0, 0.0, 0.0, 0.0, 0.0, 0.0, 0.0, 0.0, 0.0, 0.0, 0.0, 0.0, 0.0, 0.0, 0.0, 0.0, 0.0, 0.0, 0.0, 0.0, 0.0, 0.0, 0.0, 0.0, 0.0, 0.0, 0.0, 0.0, 0.0, 0.0, 0.0, 0.0, 0.0, 0.0], [1.0351122831254365, 0.9498458768684002, 1.1507970320775929, 1.1049555429606308, 0.807945709909621, 1.1090655736764765, 1.037988825762077, 0.9864318063963854, 0.9547062279072969, 1.0205569428537036, 0.802614794891213, 1.0855094402685852, 1.1029238496529725, 1.1166961861435067, 0.9954385766896854, 1.097299969992776, 1.06421898196488, 0.9542607229165534, 1.0574825979443427, 1.1411735277559425, 0.9540820169715661, 1.022717331251831, 1.0965369726115335, 1.075722675446814, 1.1700133189124973, 1.0453093592076066, 0.973397497590803, 1.0309941396372841, 0.9602224053841464, 1.1218866073455147, 1.0020626355947773, 1.0357697627121683, 0.9533595086475567, 1.0361813408882299, 0.7013334745815212, 1.1546929617170507, 1.029927852857588, 1.0627818217908453, 0.9234110359208207, 0.9113895749450291, 0.9891268025699628, 1.0534278178269016, 1.2056927511887974, 0.985674998141523, 1.0606920143135579, 1.11934969390231, 0.9541983472224251, 1.0356685750175452, 0.974442252102361, 0.9987763290331094], [0.995684850335403, 0.978558561456902, 0.9411902869704775, 0.9515146309495858, 0.8884618143263056, 0.9404340076670706, 1.0334164330286109, 1.0275771692024163, 0.9539549539567672, 0.9658215930819345, 0.9476986392563697, 1.0612934874703113, 1.042964345872577, 1.0370809305724362, 0.9348405399749199, 0.9676204527487828, 1.0843958354940457, 0.947661886739837, 0.9171662941123965, 0.9039234699409795, 1.025231264511902, 0.9251190764275182, 0.9499950950782569, 0.9529089658929366, 1.0620400553377485, 1.0288779478032004, 1.0183782461355935, 0.8787397630877682, 0.980973253727943, 1.0538305343322432, 0.9724259934033194, 1.0526590938811402, 1.0397407986345406, 1.0272600693639573, 0.8405774562735493, 0.8937540050843967, 0.8923184413783228, 0.9607077424782994, 1.1043025891761675, 0.9254584852614953, 1.086066868573159, 1.0306469643240763, 0.9075480177297381, 0.949945969148045, 1.0265266073655996, 1.1188540697360714, 0.9616759120795372, 1.0206676970500055, 1.0308348876071554, 1.0245339518926384]], "names": ["x", "baseline", "y0", "y1"]}</toyplot:data-table><polygon points="60.0,540.0 69.795918367346943,540.0 79.591836734693871,540.0 89.387755102040813,540.0 99.183673469387742,540.0 108.97959183673468,540.0 118.77551020408163,540.0 128.57142857142856,540.0 138.36734693877551,540.0 148.16326530612244,540.0 157.95918367346937,540.0 167.75510204081633,540.0 177.55102040816325,540.0 187.34693877551018,540.0 197.14285714285714,540.0 206.93877551020407,540.0 216.73469387755102,540.0 226.53061224489795,540.0 236.32653061224488,540.0 246.12244897959184,540.0 255.91836734693874,540.0 265.71428571428572,540.0 275.51020408163265,540.0 285.30612244897958,540.0 295.10204081632651,540.0 304.89795918367349,540.0 314.69387755102036,540.0 324.48979591836735,540.0 334.28571428571428,540.0 344.08163265306121,540.0 353.87755102040813,540.0 363.67346938775506,540.0 373.46938775510199,540.0 383.26530612244892,540.0 393.0612244897959,540.0 402.85714285714283,540.0 412.65306122448976,540.0 422.44897959183675,540.0 432.24489795918367,540.0 442.04081632653055,540.0 451.83673469387747,540.0 461.63265306122446,540.0 471.42857142857139,540.0 481.22448979591832,540.0 491.0204081632653,540.0 500.81632653061223,540.0 510.61224489795916,540.0 520.40816326530614,540.0 530.20408163265301,540.0 540.0,540.0 540.0,325.80473962005652 530.20408163265301,331.02336945015384 520.40816326530614,317.89291391400781 510.61224489795916,335.36483044679397 500.81632653061223,299.94685479408543 491.0204081632653,312.526445026224 481.22448979591832,328.61442072690033 471.42857142857139,281.42992252419134 461.63265306122446,314.08430779557563 451.83673469387747,327.87415473656989 442.04081632653055,344.54550069093085 432.24489795918367,341.96740598743531 422.44897959183675,312.07826975040933 412.65306122448976,319.12405590453869 402.85714285714283,292.36721936201116 393.0612244897959,389.59364591010495 383.26530612244892,317.7829473319087 373.46938775510199,335.54472582650789 363.67346938775506,317.8712134351648 353.87755102040813,325.09996591927597 344.08163265306121,299.40279420741274 334.28571428571428,334.0729248729574 324.48979591836735,318.8953825091271 314.69387755102036,331.24742508516562 304.89795918367349,315.82537364515082 295.10204081632651,289.08165100881519 285.30612244897958,309.30300422017558 275.51020408163265,304.83921821401486 265.71428571428572,320.67040768313507 255.91836734693874,335.38977836320777 246.12244897959184,295.26656588566414 236.32653061224488,313.21472903425325 226.53061224489795,335.3514534997671 216.73469387755102,311.77005970504001 206.93877551020407,304.67558756119132 197.14285714285714,326.52054626414827 187.34693877551018,300.51591992788508 177.55102040816325,303.4695033427883 167.75510204081633,307.20415728283791 157.95918367346937,367.87308831903715 148.16326530612244,321.13371957991046 138.36734693877551,335.25591153034014 128.57142857142856,328.45211737979878 118.77551020408163,317.39531830834011 108.97959183673468,302.15236342050986 99.183673469387742,366.72983261979903 89.387755102040813,303.03379109731753 79.591836734693871,293.20273141740142 69.795918367346943,336.29825116740608 60.0,318.01221498594327" style="fill:rgba(40%,76.1%,64.7%,1);opacity:1.0;stroke:none"><title>1st half</title></polygon><polygon points="60.0,318.01221498594327 69.795918367346943,336.29825116740608 79.591836734693871,293.20273141740142 89.387755102040813,303.03379109731753 99.183673469387742,366.72983261979903 108.97959183673468,302.15236342050986 118.77551020408163,317.39531830834011 128.57142857142856,328.45211737979878 138.36734693877551,335.25591153034014 148.16326530612244,321.13371957991046 157.95918367346937,367.87308831903715 167.75510204081633,307.20415728283791 177.55102040816325,303.4695033427883 187.34693877551018,300.51591992788508 197.14285714285714,326.52054626414827 206.93877551020407,304.67558756119132 216.73469387755102,311.77005970504001 226.53061224489795,335.3514534997671 236.32653061224488,313.21472903425325 246.12244897959184,295.26656588566414 255.91836734693874,335.38977836320777 265.71428571428572,320.67040768313507 275.51020408163265,304.83921821401486 285.30612244897958,309.30300422017558 295.10204081632651,289.08165100881519 304.89795918367349,315.82537364515082 314.69387755102036,331.24742508516562 324.48979591836735,318.8953825091271 334.28571428571428,334.0729248729574 344.08163265306121,299.40279420741274 353.87755102040813,325.09996591927597 363.67346938775506,317.8712134351648 373.46938775510199,335.54472582650789 383.26530612244892,317.7829473319087 393.0612244897959,389.59364591010495 402.85714285714283,292.36721936201116 412.65306122448976,319.12405590453869 422.44897959183675,312.07826975040933 432.24489795918367,341.96740598743531 442.04081632653055,344.54550069093085 451.83673469387747,327.87415473656989 461.63265306122446,314.08430779557563 471.42857142857139,281.42992252419134 481.22448979591832,328.61442072690033 491.0204081632653,312.526445026224 500.81632653061223,299.94685479408543 510.61224489795916,335.36483044679397 520.40816326530614,317.89291391400781 530.20408163265301,331.02336945015384 540.0,325.80473962005652 540.0,106.08555904418071 530.20408163265301,109.95290478115697 520.40816326530614,99.002881405261931 510.61224489795916,129.12603963723765 500.81632653061223,60.0 491.0204081632653,92.379924168573879 481.22448979591832,124.8912063356249 471.42857142857139,86.799274686242228 461.63265306122446,93.054144719017913 451.83673469387747,94.958767235084707 442.04081632653055,146.07381543051378 432.24489795918367,105.1412280424494 422.44897959183675,106.04711035321313 412.65306122448976,127.75950777003922 402.85714285714283,100.69480355696703 393.0612244897959,209.32534971377524 383.26530612244892,97.479129911304369 373.46938775510199,112.56432008664278 363.67346938775506,92.120379989339597 353.87755102040813,116.55573754445186 344.08163265306121,73.400736353129048 334.28571428571428,123.6956708270703 324.48979591836735,130.4428863000837 314.69387755102036,112.84838292179001 304.89795918367349,95.174589758198323 295.10204081632651,61.318998276325921 285.30612244897958,104.94435240329412 275.51020408163265,101.10546838942244 265.71428571428572,122.27151125586887 255.91836734693874,115.52105373656937 246.12244897959184,101.41323017937532 236.32653061224488,116.52136789974021 226.53061224489795,132.11807813644393 216.73469387755102,79.21303809097094 206.93877551020407,97.161944315233143 197.14285714285714,126.03680725974007 187.34693877551018,78.105943337747817 177.55102040816325,79.797783121464903 167.75510204081633,79.601611767658994 157.95918367346937,164.63183109606291 148.16326530612244,114.00585561558651 138.36734693877551,130.67293953368088 128.57142857142856,108.08029546159986 118.77551020408163,95.771221381892175 108.97959183673468,100.46906227799323 99.183673469387742,176.19236779873256 89.387755102040813,98.974165125929474 79.591836734693871,91.357240365488337 69.795918367346943,126.4388464384262 60.0,104.47994597390233" style="fill:rgba(98.8%,55.3%,38.4%,1);opacity:1.0;stroke:none"><title>2nd half</title></polygon></g></g><g class="toyplot-coordinates" style="visibility:hidden"><rect height="14" style="fill:white;opacity:0.75;stroke:none" width="90" x="450" y="60" /><text style="alignment-baseline:middle;font-size:10px;font-weight:normal;stroke:none;text-anchor:middle" x="495.0" y="67.0" /></g><line style="" x1="60.0" x2="540.0" y1="550" y2="550" /><g><text style="alignment-baseline:middle;baseline-shift:-80%;font-size:10px;font-weight:normal;stroke:none;text-anchor:middle" x="60.0" y="550">0.0</text><text style="alignment-baseline:middle;baseline-shift:-80%;font-size:10px;font-weight:normal;stroke:none;text-anchor:middle" x="300.0" y="550">0.5</text><text style="alignment-baseline:middle;baseline-shift:-80%;font-size:10px;font-weight:normal;stroke:none;text-anchor:middle" x="540.0" y="550">1.0</text></g><line style="" x1="50" x2="50" y1="60.0" y2="540.0" /><g><text style="alignment-baseline:middle;baseline-shift:80%;font-size:10px;font-weight:normal;stroke:none;text-anchor:middle" transform="rotate(-90, 50, 540.0)" x="50" y="540.0">0</text><text style="alignment-baseline:middle;baseline-shift:80%;font-size:10px;font-weight:normal;stroke:none;text-anchor:middle" transform="rotate(-90, 50, 325.5423139760425)" x="50" y="325.5423139760425">1</text><text style="alignment-baseline:middle;baseline-shift:80%;font-size:10px;font-weight:normal;stroke:none;text-anchor:middle" transform="rotate(-90, 50, 111.08462795208499)" x="50" y="111.08462795208499">2</text></g></g></svg>