<svg height="600px" id="t38e08fd4f2fe4a58bb11da8378e5635e" preserveAspectRatio="xMidyMid meet" style="background-color:transparent;fill:rgb(16.1%,15.3%,14.1%);fill-opacity:1.0;font-family:helvetica;font-size:12px;opacity:1.0;stroke:rgb(16.1%,15.3%,14.1%);stroke-opacity:1.0;stroke-width:1.0" viewBox="0 0 600 600" width="600px" xmlns="http://www.w3.org/2000/svg" xmlns:toyplot="http://www.sandia.gov/toyplot"><g class="toyplot-axes-Cartesian" id="t5f262b1a7fd04416bc9975bb917a156a"><clipPath id="te06fdee458f9453dae3a76a5a3d32fd2"><rect height="500.0" width="500.0" x="50.0" y="50.0" /></clipPath><g class="toyplot-coordinate-events" clip-path="url(#te06fdee458f9453dae3a76a5a3d32fd2)" style="cursor:crosshair"><rect height="500.0" style="pointer-events:all;visibility:hidden" width="500.0" x="50.0" y="50.0" /><g class="toyplot-mark-FillBoundaries" id="t4fbfe3bf5e19485a9194fb6e00b8d521" style="stroke:none"><polygon points="60.0,520.66930540272483 69.599999999999994,434.44594055723212 79.199999999999989,449.65124891462983 88.799999999999997,410.31778242043521 98.400000000000006,439.21266105527468 108.0,408.63336060086505 117.59999999999999,461.74479928577443 127.20000000000002,463.38574241436595 136.80000000000001,452.34130348244815 146.40000000000001,437.43443449488569 156.0,457.77340926406589 165.59999999999999,437.15254804420334 175.19999999999999,426.63751765172105 184.80000000000001,424.16125219615418 194.40000000000001,421.84879715292345 204.0,438.74142494902492 213.60000000000002,540.0 223.20000000000002,445.78627451022606 232.80000000000001,417.36920648132281 242.39999999999998,460.12443183934442 252.0,503.23702372441335 261.59999999999997,428.2479219480756 271.19999999999999,431.61075852030081 280.80000000000001,443.87969349436867 290.39999999999998,482.97145555012384 300.0,471.46483062378263 309.60000000000002,461.84573710951321 319.20000000000005,434.74148197010283 328.80000000000001,437.1065707281881 338.39999999999998,436.31536386078079 348.0,438.87918689342848 357.60000000000002,500.56933528049922 367.20000000000005,438.25206868382736 376.80000000000001,459.70371788572891 386.40000000000003,460.97068156081946 396.0,435.67824702810157 405.60000000000002,416.12294632090862 415.20000000000005,482.94823352077361 424.79999999999995,462.12139648797802 434.39999999999998,512.83075711325148 444.0,485.4741563901423 453.59999999999997,448.66064986095529 463.19999999999999,429.91593994301979 472.79999999999995,449.89757558011456 482.39999999999998,487.34539808474136 492.0,495.52973065665253 501.60000000000002,451.35134439458017 511.19999999999999,418.79029008842411 520.79999999999995,430.29883842171694 530.40000000000009,466.93397040560797 530.40000000000009,303.70157586365508 520.79999999999995,305.18368568376872 511.19999999999999,301.45458863602431 501.60000000000002,306.4166763702608 492.0,296.35784268547286 482.39999999999998,299.93049198673771 472.79999999999995,304.49953549969291 463.19999999999999,291.09896668754146 453.59999999999997,300.37293066969028 444.0,304.28929727060125 434.39999999999998,309.02402005376672 424.79999999999995,308.29183179714875 415.20000000000005,299.80320858112304 405.60000000000002,301.80423743149868 396.0,294.20519870180317 386.40000000000003,321.8178568616928 376.80000000000001,301.42335772742956 367.20000000000005,306.46776731128324 357.60000000000002,301.44842562124046 348.0,303.50141757366475 338.39999999999998,296.20332750342379 328.80000000000001,306.04977049650074 319.20000000000005,301.73929335690968 309.60000000000002,305.24731829763749 300.0,300.86739969262004 290.39999999999998,293.27208535989843 280.80000000000001,299.01502309380226 271.19999999999999,297.74729166045535 261.59999999999997,302.24340695128137 252.0,306.42376166910594 242.39999999999998,295.02862364178173 232.80000000000001,300.12596714411416 223.20000000000002,306.41287726873475 213.60000000000002,299.71567580915581 204.0,297.70081996092557 194.40000000000001,303.90486754960534 184.80000000000001,296.51945924969522 175.19999999999999,297.35828766371804 165.59999999999999,298.41894294287778 156.0,315.6491396404785 146.40000000000001,302.37498921220862 136.80000000000001,306.38574300251338 127.20000000000002,304.45344075980751 117.59999999999999,301.31326967729069 108.0,296.98421514337679 98.400000000000006,315.32445087083835 88.799999999999997,297.23454380397311 79.199999999999989,294.44248715920162 69.599999999999994,306.68177124407964 60.0,301.48847057362519" style="fill:rgb(40%,76.1%,64.7%);fill-opacity:1.0;opacity:1.0;stroke:none"><title>1st half</title></polygon><polygon points="60.0,301.48847057362519 69.599999999999994,306.68177124407964 79.199999999999989,294.44248715920162 88.799999999999997,297.23454380397311 98.400000000000006,315.32445087083835 108.0,296.98421514337679 117.59999999999999,301.31326967729069 127.20000000000002,304.45344075980751 136.80000000000001,306.38574300251338 146.40000000000001,302.37498921220862 156.0,315.6491396404785 165.59999999999999,298.41894294287778 175.19999999999999,297.35828766371804 184.80000000000001,296.51945924969522 194.40000000000001,303.90486754960534 204.0,297.70081996092557 213.60000000000002,299.71567580915581 223.20000000000002,306.41287726873475 232.80000000000001,300.12596714411416 242.39999999999998,295.02862364178173 252.0,306.42376166910594 261.59999999999997,302.24340695128137 271.19999999999999,297.74729166045535 280.80000000000001,299.01502309380226 290.39999999999998,293.27208535989843 300.0,300.86739969262004 309.60000000000002,305.24731829763749 319.20000000000005,301.73929335690968 328.80000000000001,306.04977049650074 338.39999999999998,296.20332750342379 348.0,303.50141757366475 357.60000000000002,301.44842562124046 367.20000000000005,306.46776731128324 376.80000000000001,301.42335772742956 386.40000000000003,321.8178568616928 396.0,294.20519870180317 405.60000000000002,301.80423743149868 415.20000000000005,299.80320858112304 424.79999999999995,308.29183179714875 434.39999999999998,309.02402005376672 444.0,304.28929727060125 453.59999999999997,300.37293066969028 463.19999999999999,291.09896668754146 472.79999999999995,304.49953549969291 482.39999999999998,299.93049198673771 492.0,296.35784268547286 501.60000000000002,306.4166763702608 511.19999999999999,301.45458863602431 520.79999999999995,305.18368568376872 530.40000000000009,303.70157586365508 530.40000000000009,174.88786854582912 520.79999999999995,126.74512320253733 511.19999999999999,120.83690329366071 501.60000000000002,157.24442835905384 492.0,166.53847052805315 482.39999999999998,129.94222407082708 472.79999999999995,173.67965599868228 463.19999999999999,173.75024234082062 453.59999999999997,174.80799348799241 444.0,146.47145336438552 434.39999999999998,196.20308591189576 424.79999999999995,182.91065664211735 415.20000000000005,159.25936644992714 405.60000000000002,181.5431640821993 396.0,165.89782203914027 386.40000000000003,217.91774864922596 376.80000000000001,167.70647493192087 367.20000000000005,138.30146122184576 357.60000000000002,159.20607299217352 348.0,180.4159667742407 338.39999999999998,140.40583529831883 328.80000000000001,160.05363615690467 319.20000000000005,191.17548739785221 309.60000000000002,147.46256451760274 300.0,165.2929779773599 290.39999999999998,174.69632097997007 280.80000000000001,131.03659921872267 271.19999999999999,107.47265294648039 261.59999999999997,145.03081086188766 252.0,176.92150194368583 242.39999999999998,154.1485301873264 232.80000000000001,148.26704676817894 223.20000000000002,170.35456633026013 213.60000000000002,173.6656554416135 204.0,150.67708428532302 194.40000000000001,171.39584359020023 184.80000000000001,113.25473145209148 175.19999999999999,146.61549808304005 165.59999999999999,138.54767033590576 156.0,191.46660699029769 146.40000000000001,169.4181104705265 136.80000000000001,142.65518438915907 127.20000000000002,142.10236822299552 117.59999999999999,190.90019247163224 108.0,175.47450766639048 98.400000000000006,177.23422337733803 88.799999999999997,142.96772585236886 79.199999999999989,135.29025381404128 69.599999999999994,159.5357403704613 60.0,158.00138414000369" style="fill:rgb(98.8%,55.3%,38.4%);fill-opacity:1.0;opacity:1.0;stroke:none"><title>2nd half</title></polygon></g></g><g class="toyplot-coordinates" style="visibility:hidden"><rect height="14.0" style="fill:rgb(100%,100%,100%);fill-opacity:1.0;opacity:0.75;stroke:none" width="90.0" x="450.0" y="60.0" /><text style="alignment-baseline:middle;font-size:10px;font-weight:normal;stroke:none;text-anchor:middle" x="495.0" y="67.0" /></g><line style="" x1="60.0" x2="530.4000000000001" y1="550.0" y2="550.0" /><g><text style="alignment-baseline:middle;baseline-shift:-80%;font-size:10px;font-weight:normal;stroke:none;text-anchor:middle" x="60.0" y="550.0">0</text><text style="alignment-baseline:middle;baseline-shift:-80%;font-size:10px;font-weight:normal;stroke:none;text-anchor:middle" x="156.0" y="550.0">10</text><text style="alignment-baseline:middle;baseline-shift:-80%;font-size:10px;font-weight:normal;stroke:none;text-anchor:middle" x="252.0" y="550.0">20</text><text style="alignment-baseline:middle;baseline-shift:-80%;font-size:10px;font-weight:normal;stroke:none;text-anchor:middle" x="348.0" y="550.0">30</text><text style="alignment-baseline:middle;baseline-shift:-80%;font-size:10px;font-weight:normal;stroke:none;text-anchor:middle" x="444.0" y="550.0">40</text><text style="alignment-baseline:middle;baseline-shift:-80%;font-size:10px;font-weight:normal;stroke:none;text-anchor:middle" x="540.0" y="550.0">50</text></g><line style="" x1="50.0" x2="50.0" y1="107.4726529464804" y2="540.0" /><g><text style="alignment-baseline:middle;baseline-shift:80%;font-size:10px;font-weight:normal;stroke:none;text-anchor:middle" transform="rotate(-90, 50.0, 516.8007113023344)" x="50.0" y="516.8007113023344">-2</text><text style="alignment-baseline:middle;baseline-shift:80%;font-size:10px;font-weight:normal;stroke:none;text-anchor:middle" transform="rotate(-90, 50.0, 364.5338075348896)" x="50.0" y="364.5338075348896">0</text><text style="alignment-baseline:middle;baseline-shift:80%;font-size:10px;font-weight:normal;stroke:none;text-anchor:middle" transform="rotate(-90, 50.0, 212.2669037674448)" x="50.0" y="212.2669037674448">2</text><text style="alignment-baseline:middle;baseline-shift:80%;font-size:10px;font-weight:normal;stroke:none;text-anchor:middle" transform="rotate(-90, 50.0, 60.0)" x="50.0" y="60.0">5</text></g></g></svg>