<svg height="600px" id="td96b433b5df3437983e55f2f1af28fff" preserveAspectRatio="xMidYMid meet" style="background-color:transparent;fill:rgb(16.1%,15.3%,14.1%);fill-opacity:1.0;font-family:helvetica;font-size:12px;opacity:1.0;stroke:rgb(16.1%,15.3%,14.1%);stroke-opacity:1.0;stroke-width:1.0" viewBox="0 0 600 600" width="600px" xmlns="http://www.w3.org/2000/svg" xmlns:toyplot="http://www.sandia.gov/toyplot"><g class="toyplot-axes-Cartesian" id="tbfdb0b7ae8db4b95bf5b19312949abf2"><clipPath id="tf900da4556214256abde35f44dfab997"><rect height="520.0" width="520.0" x="40.0" y="40.0" /></clipPath><g class="toyplot-coordinate-events" clip-path="url(#tf900da4556214256abde35f44dfab997)" style="cursor:crosshair"><rect height="500.0" style="pointer-events:all;visibility:hidden" width="500.0" x="50.0" y="50.0" /><g class="toyplot-mark-Plot" id="te3b559b346c3444a8f7179b0dba4e512" style="fill:none"><g class="toyplot-Series"><path d="M 50.0 300.0 L 55.050505050505052 284.14202400553279 L 60.101010101010104 268.34790248342154 L 65.151515151515156 252.68123278659888 L 70.202020202020208 237.20509906448063 L 75.25252525252526 221.98181824536073 L 80.303030303030312 207.07268910813565 L 85.353535353535364 192.53774545375674 L 90.404040404040416 178.43551437030243 L 95.454545454545453 164.82278056505123 L 100.50505050505051 151.75435771250727 L 105.55555555555554 139.28286773907934 L 110.60606060606061 127.45852893315575 L 115.65656565656568 116.32895373378139 L 120.70707070707071 105.93895701216967 L 125.75757575757575 96.330375618034168 L 130.80808080808083 87.541899917359899 L 135.85858585858585 79.608917999955963 L 140.90909090909091 72.563373184107121 L 145.95959595959596 66.433635392105572 L 151.01010101010101 61.244386914587068 L 156.06060606060606 57.016523023657626 L 161.11111111111111 53.767067835007801 L 166.16161616161617 51.509105757807326 L 171.21212121212122 50.251728808407456 L 176.26262626262627 50.0 L 181.31313131313132 50.754932955650375 L 186.3636363636364 52.513487826795057 L 191.41414141414143 55.268583533638846 L 196.46464646464648 59.009126278164246 L 201.5151515151515 63.720054214940276 L 206.56565656565658 69.382398099858136 L 211.61616161616163 75.973357672582296 L 216.66666666666669 83.466393465151626 L 221.71717171717171 91.831333667049506 L 226.76767676767679 101.03449561643663 L 231.81818181818181 111.03882142834132 L 236.86868686868689 121.80402721368361 L 241.91919191919192 133.28676528827816 L 246.969696969697 145.44079871865944 L 252.02020202020202 158.21718750189365 L 257.0707070707071 171.56448562969763 L 262.12121212121212 185.42894824335616 L 267.17171717171721 199.75474804530012 L 272.22222222222223 214.4842000959284 L 277.27272727272731 229.55799409050189 L 282.32323232323233 244.91543318080568 L 287.37373737373736 260.49467837993592 L 292.42424242424244 276.23299756607304 L 297.47474747474746 292.06701808259601 L 302.52525252525254 307.93298191740399 L 307.57575757575756 323.76700243392708 L 312.62626262626264 339.50532162006414 L 317.67676767676767 355.08456681919427 L 322.7272727272728 370.44200590949828 L 327.77777777777777 385.51579990407151 L 332.82828282828285 400.24525195469994 L 337.87878787878788 414.57105175664373 L 342.92929292929296 428.43551437030243 L 347.97979797979798 441.7828124981063 L 353.030303030303 454.55920128134062 L 358.08080808080803 466.71323471172184 L 363.13131313131316 478.19597278631636 L 368.18181818181819 488.96117857165871 L 373.23232323232327 498.96550438356343 L 378.28282828282829 508.16866633295052 L 383.33333333333337 516.53360653484856 L 388.38383838383839 524.02664232741768 L 393.43434343434342 530.61760190014184 L 398.48484848484844 536.27994578505968 L 403.53535353535364 540.99087372183578 L 408.5858585858586 544.73141646636111 L 413.63636363636363 547.48651217320503 L 418.68686868686865 549.24506704434964 L 423.73737373737379 550.0 L 428.78787878787881 549.74827119159249 L 433.83838383838383 548.49089424219267 L 438.88888888888886 546.23293216499223 L 443.93939393939399 542.98347697634244 L 448.98989898989902 538.75561308541296 L 454.04040404040404 533.56636460789446 L 459.09090909090907 527.43662681589285 L 464.1414141414142 520.39108200004398 L 469.19191919191923 512.45810008264016 L 474.24242424242425 503.66962438196595 L 479.29292929292933 494.06104298783026 L 484.34343434343441 483.67104626621858 L 489.39393939393938 472.54147106684422 L 494.4444444444444 460.71713226092072 L 499.49494949494954 448.24564228749267 L 504.54545454545462 435.17721943494877 L 509.59595959595964 421.56448562969751 L 514.64646464646466 407.4622545462434 L 519.69696969696975 392.92731089186435 L 524.74747474747471 378.01818175463922 L 529.79797979797979 362.79490093551937 L 534.84848484848487 347.31876721340097 L 539.89898989898995 331.65209751657835 L 544.94949494949492 315.85797599446721 L 550.0 300.00000000000006" style="fill:none;stroke:rgb(40%,76.1%,64.7%);stroke-opacity:1.0;stroke-width:2.0" /></g></g></g><g class="toyplot-coordinates" style="visibility:hidden"><rect height="14.0" style="fill:rgb(100%,100%,100%);fill-opacity:1.0;opacity:0.75;stroke:none" width="90.0" x="450.0" y="60.0" /><text style="alignment-baseline:middle;font-size:10px;font-weight:normal;stroke:none;text-anchor:middle" x="495.0" y="67.0" /></g><g class="toyplot-axes-Axis" id="t183bff3025834ad8b5e67f2eba77aa45" transform="translate(50.0,560.0) rotate(0.0)"><line style="" x1="0" x2="500.0" y1="0" y2="0" /><g><text style="alignment-baseline:middle;baseline-shift:-80%;font-size:10px;font-weight:normal;stroke:none;text-anchor:middle" transform="translate(0.0,0) rotate(0)" x="0" y="0">0</text><text style="alignment-baseline:middle;baseline-shift:-80%;font-size:10px;font-weight:normal;stroke:none;text-anchor:middle" transform="translate(55.55555555555555,0) rotate(0)" x="0" y="0">0.698</text><text style="alignment-baseline:middle;baseline-shift:-80%;font-size:10px;font-weight:normal;stroke:none;text-anchor:middle" transform="translate(111.1111111111111,0) rotate(0)" x="0" y="0">1.4</text><text style="alignment-baseline:middle;baseline-shift:-80%;font-size:10px;font-weight:normal;stroke:none;text-anchor:middle" transform="translate(166.66666666666666,0) rotate(0)" x="0" y="0">2.09</text><text style="alignment-baseline:middle;baseline-shift:-80%;font-size:10px;font-weight:normal;stroke:none;text-anchor:middle" transform="translate(222.2222222222222,0) rotate(0)" x="0" y="0">2.79</text><text style="alignment-baseline:middle;baseline-shift:-80%;font-size:10px;font-weight:normal;stroke:none;text-anchor:middle" transform="translate(277.77777777777777,0) rotate(0)" x="0" y="0">3.49</text><text style="alignment-baseline:middle;baseline-shift:-80%;font-size:10px;font-weight:normal;stroke:none;text-anchor:middle" transform="translate(333.33333333333331,0) rotate(0)" x="0" y="0">4.19</text><text style="alignment-baseline:middle;baseline-shift:-80%;font-size:10px;font-weight:normal;stroke:none;text-anchor:middle" transform="translate(388.88888888888891,0) rotate(0)" x="0" y="0">4.89</text><text style="alignment-baseline:middle;baseline-shift:-80%;font-size:10px;font-weight:normal;stroke:none;text-anchor:middle" transform="translate(444.4444444444444,0) rotate(0)" x="0" y="0">5.59</text><text style="alignment-baseline:middle;baseline-shift:-80%;font-size:10px;font-weight:normal;stroke:none;text-anchor:middle" transform="translate(500.0,0) rotate(0)" x="0" y="0">6.28</text></g></g><g class="toyplot-axes-Axis" id="tcbbcca0b724246808ad16f4a33770523" transform="translate(40.0,550.0) rotate(-90.0)"><line style="" x1="0" x2="500.0" y1="0" y2="0" /><g><text style="alignment-baseline:middle;baseline-shift:80%;font-size:10px;font-weight:normal;stroke:none;text-anchor:middle" transform="translate(0.0,0) rotate(0)" x="0" y="0">-1.0</text><text style="alignment-baseline:middle;baseline-shift:80%;font-size:10px;font-weight:normal;stroke:none;text-anchor:middle" transform="translate(250.0,0) rotate(0)" x="0" y="0">0.0</text><text style="alignment-baseline:middle;baseline-shift:80%;font-size:10px;font-weight:normal;stroke:none;text-anchor:middle" transform="translate(500.0,0) rotate(0)" x="0" y="0">1.0</text></g></g></g></svg>