<svg height="600px" id="t7548b0439c2e472283cd57a9ffe1a808" style="background-color:transparent;fill:rgb(16.1%,15.3%,14.1%);fill-opacity:1.0;font-family:helvetica;font-size:12px;opacity:1.0;stroke:rgb(16.1%,15.3%,14.1%);stroke-opacity:1.0;stroke-width:1.0" width="600px" xmlns="http://www.w3.org/2000/svg" xmlns:toyplot="http://www.sandia.gov/toyplot"><g class="toyplot-axes-Cartesian" id="t1bf4e68f6369473e94436000a4196836"><clipPath id="t6a9bc7e1313e4fe2a4eb87c7caea8611"><rect height="500.0" width="500.0" x="50.0" y="50.0" /></clipPath><g class="toyplot-coordinate-events" clip-path="url(#t6a9bc7e1313e4fe2a4eb87c7caea8611)" style="cursor:crosshair"><rect height="500.0" style="pointer-events:all;visibility:hidden" width="500.0" x="50.0" y="50.0" /><g class="toyplot-mark-Plot" id="te3b53a138775403db811237e204fd2f3" style="fill:none"><g class="toyplot-Series"><path d="M 60.0 300.0 L 64.848484848484858 284.77634304531148 L 69.696969696969703 269.61398638408468 L 74.545454545454561 254.57398347513492 L 79.393939393939391 239.7168951019014 L 84.242424242424249 225.1025455155463 L 89.090909090909093 210.78978154381022 L 93.939393939393938 196.83623563560647 L 98.787878787878796 183.29809379549033 L 103.63636363636364 170.22986934244921 L 108.48484848484848 157.684183404007 L 113.33333333333333 145.71155302951615 L 118.18181818181819 134.36018777582953 L 123.03030303030305 123.67579558443013 L 127.87878787878789 113.70139873168287 L 132.72727272727275 104.47716059331279 L 137.57575757575756 96.040223920665511 L 142.42424242424241 88.424561279957715 L 147.27272727272728 81.660838256742835 L 152.12121212121212 75.776289976421339 L 156.96969696969697 70.794611438003585 L 161.81818181818181 66.735862102711323 L 166.66666666666666 63.616385121607486 L 171.5151515151515 61.448741527495038 L 176.36363636363637 60.241659656071164 L 181.21212121212122 60.0 L 186.06060606060609 60.724735637424359 L 190.90909090909093 62.412948313723255 L 195.75757575757578 65.057840192293298 L 200.60606060606062 68.648761227037681 L 205.45454545454547 73.171252046342659 L 210.30303030303031 78.607102175863815 L 215.15151515151516 84.93442336567901 L 220.00000000000003 92.127737726545561 L 224.84848484848482 100.15808032036752 L 229.69696969696972 108.99311579177916 L 234.54545454545456 118.59726857120768 L 239.39393939393943 128.93186612513628 L 244.24242424242425 139.95529467674703 L 249.09090909090912 151.62316676991307 L 253.93939393939394 163.88850000181787 L 258.78787878787881 176.70190620450973 L 263.63636363636363 190.0117903136219 L 268.4848484848485 203.76455812348809 L 273.33333333333331 217.90483209209125 L 278.18181818181819 232.37567432688181 L 283.030303030303 247.11881585357344 L 287.87878787878788 262.07489124473847 L 292.72727272727275 277.1836776634301 L 297.57575757575762 292.38433735929215 L 302.42424242424244 307.61566264070785 L 307.27272727272725 322.81632233656995 L 312.12121212121218 337.92510875526159 L 316.969696969697 352.88118414642645 L 321.81818181818181 367.62432567311834 L 326.66666666666669 382.09516790790872 L 331.51515151515156 396.23544187651197 L 336.36363636363637 409.98820968637796 L 341.21212121212125 423.29809379549033 L 346.06060606060606 436.11149999818207 L 350.90909090909093 448.37683323008696 L 355.75757575757575 460.04470532325297 L 360.60606060606062 471.06813387486375 L 365.45454545454544 481.40273142879232 L 370.30303030303031 491.00688420822087 L 375.15151515151518 499.84191967963244 L 380.00000000000006 507.87226227345457 L 384.84848484848487 515.06557663432102 L 389.69696969696969 521.39289782413618 L 394.5454545454545 526.82874795365728 L 399.39393939393943 531.35123877296235 L 404.24242424242425 534.94215980770673 L 409.09090909090912 537.58705168627671 L 413.93939393939394 539.27526436257563 L 418.78787878787881 540.0 L 423.63636363636363 539.75834034392892 L 428.4848484848485 538.55125847250497 L 433.33333333333331 536.38361487839256 L 438.18181818181824 533.26413789728872 L 443.03030303030306 529.20538856199641 L 447.87878787878788 524.22371002357863 L 452.72727272727275 518.33916174325714 L 457.57575757575762 511.57543872004226 L 462.42424242424244 503.95977607933452 L 467.27272727272725 495.52283940668735 L 472.12121212121218 486.29860126831704 L 476.969696969697 476.32420441556985 L 481.81818181818181 465.63981222417044 L 486.66666666666669 454.28844697048385 L 491.51515151515156 442.31581659599294 L 496.36363636363637 429.77013065755079 L 501.21212121212125 416.70190620450967 L 506.06060606060606 403.16376436439367 L 510.90909090909093 389.21021845618975 L 515.75757575757575 374.8974544844537 L 520.60606060606051 360.2831048980986 L 525.4545454545455 345.42601652486491 L 530.30303030303037 330.38601361591526 L 535.15151515151524 315.22365695468852 L 540.0 300.00000000000006" style="fill:none;stroke:rgb(40%,76.1%,64.7%);stroke-opacity:1.0;stroke-width:2.0" /></g></g></g><g class="toyplot-coordinates" style="visibility:hidden"><rect height="14.0" style="fill:rgb(100%,100%,100%);fill-opacity:1.0;opacity:0.75;stroke:none" width="90.0" x="450.0" y="60.0" /><text style="alignment-baseline:middle;font-size:10px;font-weight:normal;stroke:none;text-anchor:middle" x="495.0" y="67.0" /></g><line style="" x1="60.0" x2="540.0" y1="550.0" y2="550.0" /><g><text style="alignment-baseline:middle;baseline-shift:-80%;font-size:10px;font-weight:normal;stroke:none;text-anchor:middle" x="60.0" y="550.0">0</text><text style="alignment-baseline:middle;baseline-shift:-80%;font-size:10px;font-weight:normal;stroke:none;text-anchor:middle" x="113.33333333333333" y="550.0">0.698</text><text style="alignment-baseline:middle;baseline-shift:-80%;font-size:10px;font-weight:normal;stroke:none;text-anchor:middle" x="166.66666666666666" y="550.0">1.4</text><text style="alignment-baseline:middle;baseline-shift:-80%;font-size:10px;font-weight:normal;stroke:none;text-anchor:middle" x="220.0" y="550.0">2.09</text><text style="alignment-baseline:middle;baseline-shift:-80%;font-size:10px;font-weight:normal;stroke:none;text-anchor:middle" x="273.3333333333333" y="550.0">2.79</text><text style="alignment-baseline:middle;baseline-shift:-80%;font-size:10px;font-weight:normal;stroke:none;text-anchor:middle" x="326.6666666666667" y="550.0">3.49</text><text style="alignment-baseline:middle;baseline-shift:-80%;font-size:10px;font-weight:normal;stroke:none;text-anchor:middle" x="380.0" y="550.0">4.19</text><text style="alignment-baseline:middle;baseline-shift:-80%;font-size:10px;font-weight:normal;stroke:none;text-anchor:middle" x="433.3333333333333" y="550.0">4.89</text><text style="alignment-baseline:middle;baseline-shift:-80%;font-size:10px;font-weight:normal;stroke:none;text-anchor:middle" x="486.6666666666667" y="550.0">5.59</text><text style="alignment-baseline:middle;baseline-shift:-80%;font-size:10px;font-weight:normal;stroke:none;text-anchor:middle" x="540.0" y="550.0">6.28</text></g><line style="" x1="50.0" x2="50.0" y1="60.0" y2="540.0" /><g><text style="alignment-baseline:middle;baseline-shift:80%;font-size:10px;font-weight:normal;stroke:none;text-anchor:middle" transform="rotate(-90, 50.0, 540.0)" x="50.0" y="540.0">-1.0</text><text style="alignment-baseline:middle;baseline-shift:80%;font-size:10px;font-weight:normal;stroke:none;text-anchor:middle" transform="rotate(-90, 50.0, 300.0)" x="50.0" y="300.0">0.0</text><text style="alignment-baseline:middle;baseline-shift:80%;font-size:10px;font-weight:normal;stroke:none;text-anchor:middle" transform="rotate(-90, 50.0, 60.0)" x="50.0" y="60.0">1.0</text></g></g></svg>