<svg class="toyplot-canvas-Canvas" height="600px" id="taacba1d6fe5146c28e4b3490c7a4f6f9" preserveAspectRatio="xMidYMid meet" style="background-color:transparent;border:1px solid #292724;fill:rgb(16.1%,15.3%,14.1%);fill-opacity:1.0;font-family:Helvetica;font-size:12px;opacity:1.0;stroke:rgb(16.1%,15.3%,14.1%);stroke-opacity:1.0;stroke-width:1.0" viewBox="0 0 600 600" width="600px" xmlns="http://www.w3.org/2000/svg" xmlns:toyplot="http://www.sandia.gov/toyplot" xmlns:xlink="http://www.w3.org/1999/xlink"><rect class="toyplot-mark-Legend" height="30.0" id="t9897c6143d694ad5ba619281ebc495e5" style="fill:none;stroke:rgb(16.1%,15.3%,14.1%);stroke-opacity:1.0" width="100.0" x="250.0" y="10.0" /><g><polygon points="260.0,30.0 265.0,20.0 270.0,30.0" transform="rotate(0, 265.0, 25.0)" /></g><g transform="translate(280.0,25.0)"><text style="fill:rgb(16.1%,15.3%,14.1%);fill-opacity:1.0;font-family:helvetica;font-size:12.0;font-weight:normal;stroke:none;vertical-align:baseline;white-space:pre" x="0" y="3.066">top</text></g><rect class="toyplot-mark-Legend" height="30.0" id="td7035f79e8bf4fad96de5e8e08efaf47" style="fill:none;stroke:rgb(16.1%,15.3%,14.1%);stroke-opacity:1.0" width="100.0" x="490.0" y="10.0" /><g><polygon points="500.0,30.0 505.0,20.0 510.0,30.0" transform="rotate(0, 505.0, 25.0)" /></g><g transform="translate(520.0,25.0)"><text style="fill:rgb(16.1%,15.3%,14.1%);fill-opacity:1.0;font-family:helvetica;font-size:12.0;font-weight:normal;stroke:none;vertical-align:baseline;white-space:pre" x="0" y="3.066">top-right</text></g><rect class="toyplot-mark-Legend" height="30.0" id="tb108a8d3cd764d949d48a3dbdcf81a67" style="fill:none;stroke:rgb(16.1%,15.3%,14.1%);stroke-opacity:1.0" width="100.0" x="490.0" y="285.0" /><g><polygon points="500.0,305.0 505.0,295.0 510.0,305.0" transform="rotate(0, 505.0, 300.0)" /></g><g transform="translate(520.0,300.0)"><text style="fill:rgb(16.1%,15.3%,14.1%);fill-opacity:1.0;font-family:helvetica;font-size:12.0;font-weight:normal;stroke:none;vertical-align:baseline;white-space:pre" x="0" y="3.066">right</text></g><rect class="toyplot-mark-Legend" height="30.0" id="td006df1575f64a1e83310337532ecdf6" style="fill:none;stroke:rgb(16.1%,15.3%,14.1%);stroke-opacity:1.0" width="150.0" x="440.0" y="560.0" /><g><polygon points="450.0,580.0 455.0,570.0 460.0,580.0" transform="rotate(0, 455.0, 575.0)" /></g><g transform="translate(470.0,575.0)"><text style="fill:rgb(16.1%,15.3%,14.1%);fill-opacity:1.0;font-family:helvetica;font-size:12.0;font-weight:normal;stroke:none;vertical-align:baseline;white-space:pre" x="0" y="3.066">bottom-right</text></g><rect class="toyplot-mark-Legend" height="60.0" id="t6e5c619a8e754d7b963cdc598d376fd9" style="fill:none;stroke:rgb(16.1%,15.3%,14.1%);stroke-opacity:1.0" width="151.18110239999993" x="373.2283464" y="464.40944879999995" /><g><polygon points="383.22834640000002,514.4094488 403.22834640000002,474.40944879999995 423.22834640000002,514.4094488" transform="rotate(0, 403.22834640000002, 494.40944879999995)" /></g><g transform="translate(433.22834640000002,494.40944879999995)"><text style="fill:rgb(16.1%,15.3%,14.1%);fill-opacity:1.0;font-family:helvetica;font-size:12.0;font-weight:normal;stroke:none;vertical-align:baseline;white-space:pre" x="0" y="3.066">bottom-right</text></g><rect class="toyplot-mark-Legend" height="30.0" id="t5eadd8aff07c4f02a6e123384a199c01" style="fill:none;stroke:rgb(16.1%,15.3%,14.1%);stroke-opacity:1.0" width="100.0" x="250.0" y="560.0" /><g><polygon points="260.0,580.0 265.0,570.0 270.0,580.0" transform="rotate(0, 265.0, 575.0)" /></g><g transform="translate(280.0,575.0)"><text style="fill:rgb(16.1%,15.3%,14.1%);fill-opacity:1.0;font-family:helvetica;font-size:12.0;font-weight:normal;stroke:none;vertical-align:baseline;white-space:pre" x="0" y="3.066">bottom</text></g><rect class="toyplot-mark-Legend" height="30.0" id="tea911687de734ad2b907eba2bc60b988" style="fill:none;stroke:rgb(16.1%,15.3%,14.1%);stroke-opacity:1.0" width="100.0" x="10.0" y="560.0" /><g><polygon points="20.0,580.0 25.0,570.0 30.0,580.0" transform="rotate(0, 25.0, 575.0)" /></g><g transform="translate(40.0,575.0)"><text style="fill:rgb(16.1%,15.3%,14.1%);fill-opacity:1.0;font-family:helvetica;font-size:12.0;font-weight:normal;stroke:none;vertical-align:baseline;white-space:pre" x="0" y="3.066">bottom-left</text></g><rect class="toyplot-mark-Legend" height="30.0" id="tee8efee8b71140e58669f3534ecdc09c" style="fill:none;stroke:rgb(16.1%,15.3%,14.1%);stroke-opacity:1.0" width="100.0" x="10.0" y="285.0" /><g><polygon points="20.0,305.0 25.0,295.0 30.0,305.0" transform="rotate(0, 25.0, 300.0)" /></g><g transform="translate(40.0,300.0)"><text style="fill:rgb(16.1%,15.3%,14.1%);fill-opacity:1.0;font-family:helvetica;font-size:12.0;font-weight:normal;stroke:none;vertical-align:baseline;white-space:pre" x="0" y="3.066">left</text></g><rect class="toyplot-mark-Legend" height="30.0" id="ta7693890f3074f4ab25af8503723143c" style="fill:none;stroke:rgb(16.1%,15.3%,14.1%);stroke-opacity:1.0" width="100.0" x="10.0" y="10.0" /><g><polygon points="20.0,30.0 25.0,20.0 30.0,30.0" transform="rotate(0, 25.0, 25.0)" /></g><g transform="translate(40.0,25.0)"><text style="fill:rgb(16.1%,15.3%,14.1%);fill-opacity:1.0;font-family:helvetica;font-size:12.0;font-weight:normal;stroke:none;vertical-align:baseline;white-space:pre" x="0" y="3.066">top-left</text></g><rect class="toyplot-mark-Legend" height="30.0" id="tfd59833f3951437791548ffe530bc020" style="fill:none;stroke:rgb(16.1%,15.3%,14.1%);stroke-opacity:1.0" width="100.0" x="50.0" y="50.0" /><g><polygon points="60.0,70.0 65.0,60.0 70.0,70.0" transform="rotate(0, 65.0, 65.0)" /></g><g transform="translate(80.0,65.0)"><text style="fill:rgb(16.1%,15.3%,14.1%);fill-opacity:1.0;font-family:helvetica;font-size:12.0;font-weight:normal;stroke:none;vertical-align:baseline;white-space:pre" x="0" y="3.066">top-left</text></g><rect class="toyplot-mark-Legend" height="60.0" id="te563c115f8744bd1bbb6424748c1c6b7" style="fill:none;stroke:rgb(16.1%,15.3%,14.1%);stroke-opacity:1.0" width="120.0" x="100.0" y="100.0" /><g><polygon points="110.0,150.0 130.0,110.0 150.0,150.0" transform="rotate(0, 130.0, 130.0)" /></g><g transform="translate(160.0,130.0)"><text style="fill:rgb(16.1%,15.3%,14.1%);fill-opacity:1.0;font-family:helvetica;font-size:12.0;font-weight:normal;stroke:none;vertical-align:baseline;white-space:pre" x="0" y="3.066">top-left</text></g></svg>