<svg height="600px" id="tdd548b639137495580956e745b84f0fb" preserveAspectRatio="xMidYMid meet" style="background-color:transparent;border:1px solid #292724;fill:rgb(16.1%,15.3%,14.1%);fill-opacity:1.0;font-family:Helvetica;font-size:12px;opacity:1.0;stroke:rgb(16.1%,15.3%,14.1%);stroke-opacity:1.0;stroke-width:1.0" viewBox="0 0 600 600" width="600px" xmlns="http://www.w3.org/2000/svg" xmlns:toyplot="http://www.sandia.gov/toyplot"><rect class="toyplot-mark-Legend" height="30.0" id="t027dfd04dc164473a9e6085d67fc5477" style="fill:none;stroke:rgb(16.1%,15.3%,14.1%);stroke-opacity:1.0" width="100.0" x="250.0" y="10.0" /><g style="fill:none;stroke:rgb(16.1%,15.3%,14.1%);stroke-opacity:1.0"><polygon points="260.0,30.0 265.0,20.0 270.0,30.0" transform="rotate(0, 265.0, 25.0)" /></g><text style="alignment-baseline:middle;stroke:none" x="280.0" y="25.0">top</text><rect class="toyplot-mark-Legend" height="30.0" id="t18e682b517724018ad27109d93b61b33" style="fill:none;stroke:rgb(16.1%,15.3%,14.1%);stroke-opacity:1.0" width="100.0" x="490.0" y="10.0" /><g style="fill:none;stroke:rgb(16.1%,15.3%,14.1%);stroke-opacity:1.0"><polygon points="500.0,30.0 505.0,20.0 510.0,30.0" transform="rotate(0, 505.0, 25.0)" /></g><text style="alignment-baseline:middle;stroke:none" x="520.0" y="25.0">top-right</text><rect class="toyplot-mark-Legend" height="30.0" id="tb995568b497e43be967445b51a491ae8" style="fill:none;stroke:rgb(16.1%,15.3%,14.1%);stroke-opacity:1.0" width="100.0" x="490.0" y="285.0" /><g style="fill:none;stroke:rgb(16.1%,15.3%,14.1%);stroke-opacity:1.0"><polygon points="500.0,305.0 505.0,295.0 510.0,305.0" transform="rotate(0, 505.0, 300.0)" /></g><text style="alignment-baseline:middle;stroke:none" x="520.0" y="300.0">right</text><rect class="toyplot-mark-Legend" height="30.0" id="t2339600a6d824d76ab2c5971c765eaa6" style="fill:none;stroke:rgb(16.1%,15.3%,14.1%);stroke-opacity:1.0" width="150.0" x="440.0" y="560.0" /><g style="fill:none;stroke:rgb(16.1%,15.3%,14.1%);stroke-opacity:1.0"><polygon points="450.0,580.0 455.0,570.0 460.0,580.0" transform="rotate(0, 455.0, 575.0)" /></g><text style="alignment-baseline:middle;stroke:none" x="470.0" y="575.0">bottom-right</text><rect class="toyplot-mark-Legend" height="60.0" id="t3bc319c307a54acbac57c7fdb5667d5a" style="fill:none;stroke:rgb(16.1%,15.3%,14.1%);stroke-opacity:1.0" width="151.18110239999993" x="373.2283464" y="464.40944879999995" /><g style="fill:none;stroke:rgb(16.1%,15.3%,14.1%);stroke-opacity:1.0"><polygon points="383.2283464,514.4094488 403.2283464,474.40944879999995 423.2283464,514.4094488" transform="rotate(0, 403.2283464, 494.40944879999995)" /></g><text style="alignment-baseline:middle;stroke:none" x="433.2283464" y="494.40944879999995">bottom-right</text><rect class="toyplot-mark-Legend" height="30.0" id="t5adc364dc9494e2690b7c749a116ec84" style="fill:none;stroke:rgb(16.1%,15.3%,14.1%);stroke-opacity:1.0" width="100.0" x="250.0" y="560.0" /><g style="fill:none;stroke:rgb(16.1%,15.3%,14.1%);stroke-opacity:1.0"><polygon points="260.0,580.0 265.0,570.0 270.0,580.0" transform="rotate(0, 265.0, 575.0)" /></g><text style="alignment-baseline:middle;stroke:none" x="280.0" y="575.0">bottom</text><rect class="toyplot-mark-Legend" height="30.0" id="t06190a87846f49ff93fcf4eebf932700" style="fill:none;stroke:rgb(16.1%,15.3%,14.1%);stroke-opacity:1.0" width="100.0" x="10.0" y="560.0" /><g style="fill:none;stroke:rgb(16.1%,15.3%,14.1%);stroke-opacity:1.0"><polygon points="20.0,580.0 25.0,570.0 30.0,580.0" transform="rotate(0, 25.0, 575.0)" /></g><text style="alignment-baseline:middle;stroke:none" x="40.0" y="575.0">bottom-left</text><rect class="toyplot-mark-Legend" height="30.0" id="t89de1b2de3b342abbbd94d8158e02194" style="fill:none;stroke:rgb(16.1%,15.3%,14.1%);stroke-opacity:1.0" width="100.0" x="10.0" y="285.0" /><g style="fill:none;stroke:rgb(16.1%,15.3%,14.1%);stroke-opacity:1.0"><polygon points="20.0,305.0 25.0,295.0 30.0,305.0" transform="rotate(0, 25.0, 300.0)" /></g><text style="alignment-baseline:middle;stroke:none" x="40.0" y="300.0">left</text><rect class="toyplot-mark-Legend" height="30.0" id="t196acc3003f548458c9f082024bef54c" style="fill:none;stroke:rgb(16.1%,15.3%,14.1%);stroke-opacity:1.0" width="100.0" x="10.0" y="10.0" /><g style="fill:none;stroke:rgb(16.1%,15.3%,14.1%);stroke-opacity:1.0"><polygon points="20.0,30.0 25.0,20.0 30.0,30.0" transform="rotate(0, 25.0, 25.0)" /></g><text style="alignment-baseline:middle;stroke:none" x="40.0" y="25.0">top-left</text><rect class="toyplot-mark-Legend" height="30.0" id="t173ee6a8fbb74a019680cd8230f0dbec" style="fill:none;stroke:rgb(16.1%,15.3%,14.1%);stroke-opacity:1.0" width="100.0" x="50.0" y="50.0" /><g style="fill:none;stroke:rgb(16.1%,15.3%,14.1%);stroke-opacity:1.0"><polygon points="60.0,70.0 65.0,60.0 70.0,70.0" transform="rotate(0, 65.0, 65.0)" /></g><text style="alignment-baseline:middle;stroke:none" x="80.0" y="65.0">top-left</text><rect class="toyplot-mark-Legend" height="60.0" id="t6490c57cd0394814a3a527606f6d39f4" style="fill:none;stroke:rgb(16.1%,15.3%,14.1%);stroke-opacity:1.0" width="120.0" x="100.0" y="100.0" /><g style="fill:none;stroke:rgb(16.1%,15.3%,14.1%);stroke-opacity:1.0"><polygon points="110.0,150.0 130.0,110.0 150.0,150.0" transform="rotate(0, 130.0, 130.0)" /></g><text style="alignment-baseline:middle;stroke:none" x="160.0" y="130.0">top-left</text></svg>