<svg height="600px" id="td5fc5af525a347249d7fa7a725c0a4bd" preserveAspectRatio="xMidYMid meet" style="background-color:transparent;border:1px solid #292724;fill:rgb(16.1%,15.3%,14.1%);fill-opacity:1.0;font-family:Helvetica;font-size:12px;opacity:1.0;stroke:rgb(16.1%,15.3%,14.1%);stroke-opacity:1.0;stroke-width:1.0" viewBox="0 0 600 600" width="600px" xmlns="http://www.w3.org/2000/svg" xmlns:toyplot="http://www.sandia.gov/toyplot"><g class="toyplot-axes-Cartesian" id="td36de9be4b894f3ea6cc24dbeb0a6614"><clipPath id="ta261db564268465381880be76950fda4"><rect height="120.0" width="120.0" x="40.0" y="40.0" /></clipPath><g class="toyplot-coordinate-events" clip-path="url(#ta261db564268465381880be76950fda4)" style="cursor:crosshair"><rect height="120.0" style="pointer-events:all;visibility:hidden" width="120.0" x="40.0" y="40.0" /></g><g class="toyplot-coordinates" style="visibility:hidden"><rect height="14.0" style="fill:rgb(100%,100%,100%);fill-opacity:1.0;opacity:0.75;stroke:none" width="90.0" x="50.0" y="60.0" /><text style="alignment-baseline:middle;font-size:10px;font-weight:normal;stroke:none;text-anchor:middle" x="95.0" y="67.0" /></g><g class="toyplot-axes-Axis" id="t84dbefb4fb0b49afb56cb494c7217f8c" transform="translate(50.0,150.0) rotate(0.0) translate(0,10.0)"><line style="" x1="0" x2="100.0" y1="0" y2="0" /><g><text style="alignment-baseline:middle;baseline-shift:-80%;font-size:10px;font-weight:normal;stroke:none;text-anchor:middle" transform="translate(0.0,0) rotate(0)" x="0" y="0">-0.5</text><text style="alignment-baseline:middle;baseline-shift:-80%;font-size:10px;font-weight:normal;stroke:none;text-anchor:middle" transform="translate(50.0,0) rotate(0)" x="0" y="0">0.0</text><text style="alignment-baseline:middle;baseline-shift:-80%;font-size:10px;font-weight:normal;stroke:none;text-anchor:middle" transform="translate(100.0,0) rotate(0)" x="0" y="0">0.5</text></g></g><g class="toyplot-axes-Axis" id="t13a109b7a0bb4e1c9e5bb056738c470b" transform="translate(50.0,150.0) rotate(-90.0) translate(0,-10.0)"><line style="" x1="0" x2="100.0" y1="0" y2="0" /><g><text style="alignment-baseline:middle;baseline-shift:80%;font-size:10px;font-weight:normal;stroke:none;text-anchor:middle" transform="translate(0.0,0) rotate(0)" x="0" y="0">-0.5</text><text style="alignment-baseline:middle;baseline-shift:80%;font-size:10px;font-weight:normal;stroke:none;text-anchor:middle" transform="translate(50.0,0) rotate(0)" x="0" y="0">0.0</text><text style="alignment-baseline:middle;baseline-shift:80%;font-size:10px;font-weight:normal;stroke:none;text-anchor:middle" transform="translate(100.0,0) rotate(0)" x="0" y="0">0.5</text></g></g><text style="alignment-baseline:middle;baseline-shift:100%;font-size:14px;font-weight:bold;stroke:none;text-anchor:middle" x="100.0" y="50.0">3x3</text></g><g class="toyplot-axes-Cartesian" id="t2c00dfab48cb4673aa66b7e0eded0019"><clipPath id="t536bc47dc5ae45ffb662366add4afc9d"><rect height="120.0" width="320.0" x="240.0" y="40.0" /></clipPath><g class="toyplot-coordinate-events" clip-path="url(#t536bc47dc5ae45ffb662366add4afc9d)" style="cursor:crosshair"><rect height="120.0" style="pointer-events:all;visibility:hidden" width="320.0" x="240.0" y="40.0" /></g><g class="toyplot-coordinates" style="visibility:hidden"><rect height="14.0" style="fill:rgb(100%,100%,100%);fill-opacity:1.0;opacity:0.75;stroke:none" width="90.0" x="450.0" y="60.0" /><text style="alignment-baseline:middle;font-size:10px;font-weight:normal;stroke:none;text-anchor:middle" x="495.0" y="67.0" /></g><g class="toyplot-axes-Axis" id="td48ef5edb09743ff99b4b509aef4fe1d" transform="translate(250.0,150.0) rotate(0.0) translate(0,10.0)"><line style="" x1="0" x2="300.0" y1="0" y2="0" /><g><text style="alignment-baseline:middle;baseline-shift:-80%;font-size:10px;font-weight:normal;stroke:none;text-anchor:middle" transform="translate(0.0,0) rotate(0)" x="0" y="0">-0.5</text><text style="alignment-baseline:middle;baseline-shift:-80%;font-size:10px;font-weight:normal;stroke:none;text-anchor:middle" transform="translate(150.0,0) rotate(0)" x="0" y="0">0.0</text><text style="alignment-baseline:middle;baseline-shift:-80%;font-size:10px;font-weight:normal;stroke:none;text-anchor:middle" transform="translate(300.0,0) rotate(0)" x="0" y="0">0.5</text></g></g><g class="toyplot-axes-Axis" id="t77b1917d70384c52b266f2f606beb1cc" transform="translate(250.0,150.0) rotate(-90.0) translate(0,-10.0)"><line style="" x1="0" x2="100.0" y1="0" y2="0" /><g><text style="alignment-baseline:middle;baseline-shift:80%;font-size:10px;font-weight:normal;stroke:none;text-anchor:middle" transform="translate(0.0,0) rotate(0)" x="0" y="0">-0.5</text><text style="alignment-baseline:middle;baseline-shift:80%;font-size:10px;font-weight:normal;stroke:none;text-anchor:middle" transform="translate(50.0,0) rotate(0)" x="0" y="0">0.0</text><text style="alignment-baseline:middle;baseline-shift:80%;font-size:10px;font-weight:normal;stroke:none;text-anchor:middle" transform="translate(100.0,0) rotate(0)" x="0" y="0">0.5</text></g></g><text style="alignment-baseline:middle;baseline-shift:100%;font-size:14px;font-weight:bold;stroke:none;text-anchor:middle" x="400.0" y="50.0">3x3 colspan=2</text></g><g class="toyplot-axes-Cartesian" id="taac9787210254b2885fd64e34830aaee"><clipPath id="t7217dc50996047b8b36887130210fb89"><rect height="160.0" width="160.0" x="20.0" y="220.0" /></clipPath><g class="toyplot-coordinate-events" clip-path="url(#t7217dc50996047b8b36887130210fb89)" style="cursor:crosshair"><rect height="160.0" style="pointer-events:all;visibility:hidden" width="160.0" x="20.0" y="220.0" /></g><g class="toyplot-coordinates" style="visibility:hidden"><rect height="14.0" style="fill:rgb(100%,100%,100%);fill-opacity:1.0;opacity:0.75;stroke:none" width="90.0" x="70.0" y="240.0" /><text style="alignment-baseline:middle;font-size:10px;font-weight:normal;stroke:none;text-anchor:middle" x="115.0" y="247.0" /></g><g class="toyplot-axes-Axis" id="tf25aa44b6b594279b4180587f0fe8e9b" transform="translate(30.0,370.0) rotate(0.0) translate(0,10.0)"><line style="" x1="0" x2="140.0" y1="0" y2="0" /><g><text style="alignment-baseline:middle;baseline-shift:-80%;font-size:10px;font-weight:normal;stroke:none;text-anchor:middle" transform="translate(0.0,0) rotate(0)" x="0" y="0">-0.5</text><text style="alignment-baseline:middle;baseline-shift:-80%;font-size:10px;font-weight:normal;stroke:none;text-anchor:middle" transform="translate(70.0,0) rotate(0)" x="0" y="0">0.0</text><text style="alignment-baseline:middle;baseline-shift:-80%;font-size:10px;font-weight:normal;stroke:none;text-anchor:middle" transform="translate(140.0,0) rotate(0)" x="0" y="0">0.5</text></g></g><g class="toyplot-axes-Axis" id="t4fe0dd3d49424e9b80d3cfab44c6c7a8" transform="translate(30.0,370.0) rotate(-90.0) translate(0,-10.0)"><line style="" x1="0" x2="140.0" y1="0" y2="0" /><g><text style="alignment-baseline:middle;baseline-shift:80%;font-size:10px;font-weight:normal;stroke:none;text-anchor:middle" transform="translate(0.0,0) rotate(0)" x="0" y="0">-0.5</text><text style="alignment-baseline:middle;baseline-shift:80%;font-size:10px;font-weight:normal;stroke:none;text-anchor:middle" transform="translate(70.0,0) rotate(0)" x="0" y="0">0.0</text><text style="alignment-baseline:middle;baseline-shift:80%;font-size:10px;font-weight:normal;stroke:none;text-anchor:middle" transform="translate(140.0,0) rotate(0)" x="0" y="0">0.5</text></g></g><text style="alignment-baseline:middle;baseline-shift:100%;font-size:14px;font-weight:bold;stroke:none;text-anchor:middle" x="100.0" y="230.0">3x3 gutter=30</text></g><g class="toyplot-axes-Cartesian" id="t2016f43c500a4ae79383da39d2085a10"><clipPath id="t2118ce661382462c9d97b5348b50d886"><rect height="160.0" width="160.0" x="220.0" y="220.0" /></clipPath><g class="toyplot-coordinate-events" clip-path="url(#t2118ce661382462c9d97b5348b50d886)" style="cursor:crosshair"><rect height="160.0" style="pointer-events:all;visibility:hidden" width="160.0" x="220.0" y="220.0" /></g><g class="toyplot-coordinates" style="visibility:hidden"><rect height="14.0" style="fill:rgb(100%,100%,100%);fill-opacity:1.0;opacity:0.75;stroke:none" width="90.0" x="270.0" y="240.0" /><text style="alignment-baseline:middle;font-size:10px;font-weight:normal;stroke:none;text-anchor:middle" x="315.0" y="247.0" /></g><g class="toyplot-axes-Axis" id="t26e66814e06244b1a2f4ec2c3f89a3f6" transform="translate(230.0,370.0) rotate(0.0) translate(0,10.0)"><line style="" x1="0" x2="140.0" y1="0" y2="0" /><g><text style="alignment-baseline:middle;baseline-shift:-80%;font-size:10px;font-weight:normal;stroke:none;text-anchor:middle" transform="translate(0.0,0) rotate(0)" x="0" y="0">-0.5</text><text style="alignment-baseline:middle;baseline-shift:-80%;font-size:10px;font-weight:normal;stroke:none;text-anchor:middle" transform="translate(70.0,0) rotate(0)" x="0" y="0">0.0</text><text style="alignment-baseline:middle;baseline-shift:-80%;font-size:10px;font-weight:normal;stroke:none;text-anchor:middle" transform="translate(140.0,0) rotate(0)" x="0" y="0">0.5</text></g></g><g class="toyplot-axes-Axis" id="tffe05605d2164e02b5b6af69fd7f4d0d" transform="translate(230.0,370.0) rotate(-90.0) translate(0,-10.0)"><line style="" x1="0" x2="140.0" y1="0" y2="0" /><g><text style="alignment-baseline:middle;baseline-shift:80%;font-size:10px;font-weight:normal;stroke:none;text-anchor:middle" transform="translate(0.0,0) rotate(0)" x="0" y="0">-0.5</text><text style="alignment-baseline:middle;baseline-shift:80%;font-size:10px;font-weight:normal;stroke:none;text-anchor:middle" transform="translate(70.0,0) rotate(0)" x="0" y="0">0.0</text><text style="alignment-baseline:middle;baseline-shift:80%;font-size:10px;font-weight:normal;stroke:none;text-anchor:middle" transform="translate(140.0,0) rotate(0)" x="0" y="0">0.5</text></g></g><text style="alignment-baseline:middle;baseline-shift:100%;font-size:14px;font-weight:bold;stroke:none;text-anchor:middle" x="300.0" y="230.0">3x3 gutter=30</text></g><g class="toyplot-axes-Cartesian" id="t2bd33f26438f42f289a1ccf81e7db116"><clipPath id="t5dcee0352dda440ea92a5b75243322fc"><rect height="360.0" width="160.0" x="420.0" y="220.0" /></clipPath><g class="toyplot-coordinate-events" clip-path="url(#t5dcee0352dda440ea92a5b75243322fc)" style="cursor:crosshair"><rect height="360.0" style="pointer-events:all;visibility:hidden" width="160.0" x="420.0" y="220.0" /></g><g class="toyplot-coordinates" style="visibility:hidden"><rect height="14.0" style="fill:rgb(100%,100%,100%);fill-opacity:1.0;opacity:0.75;stroke:none" width="90.0" x="470.0" y="240.0" /><text style="alignment-baseline:middle;font-size:10px;font-weight:normal;stroke:none;text-anchor:middle" x="515.0" y="247.0" /></g><g class="toyplot-axes-Axis" id="tac875ee291dd4881a48cfbe44a35c151" transform="translate(430.0,570.0) rotate(0.0) translate(0,10.0)"><line style="" x1="0" x2="140.0" y1="0" y2="0" /><g><text style="alignment-baseline:middle;baseline-shift:-80%;font-size:10px;font-weight:normal;stroke:none;text-anchor:middle" transform="translate(0.0,0) rotate(0)" x="0" y="0">-0.5</text><text style="alignment-baseline:middle;baseline-shift:-80%;font-size:10px;font-weight:normal;stroke:none;text-anchor:middle" transform="translate(70.0,0) rotate(0)" x="0" y="0">0.0</text><text style="alignment-baseline:middle;baseline-shift:-80%;font-size:10px;font-weight:normal;stroke:none;text-anchor:middle" transform="translate(140.0,0) rotate(0)" x="0" y="0">0.5</text></g></g><g class="toyplot-axes-Axis" id="t69aac18f7b6543c797617c651d0400a3" transform="translate(430.0,570.0) rotate(-90.0) translate(0,-10.0)"><line style="" x1="0" x2="340.0" y1="0" y2="0" /><g><text style="alignment-baseline:middle;baseline-shift:80%;font-size:10px;font-weight:normal;stroke:none;text-anchor:middle" transform="translate(0.0,0) rotate(0)" x="0" y="0">-0.5</text><text style="alignment-baseline:middle;baseline-shift:80%;font-size:10px;font-weight:normal;stroke:none;text-anchor:middle" transform="translate(170.0,0) rotate(0)" x="0" y="0">0.0</text><text style="alignment-baseline:middle;baseline-shift:80%;font-size:10px;font-weight:normal;stroke:none;text-anchor:middle" transform="translate(340.0,0) rotate(0)" x="0" y="0">0.5</text></g></g><text style="alignment-baseline:middle;baseline-shift:100%;font-size:14px;font-weight:bold;stroke:none;text-anchor:middle" x="500.0" y="230.0">3x3 gutter=30 rowspan=2</text></g></svg>