<svg class="toyplot-canvas-Canvas" height="600px" id="te801ad2359584e068550d39598ca527f" preserveAspectRatio="xMidYMid meet" style="background-color:transparent;border:1px solid #292724;fill:rgb(16.1%,15.3%,14.1%);fill-opacity:1.0;font-family:Helvetica;font-size:12px;opacity:1.0;stroke:rgb(16.1%,15.3%,14.1%);stroke-opacity:1.0;stroke-width:1.0" viewBox="0 0 600 600" width="600px" xmlns="http://www.w3.org/2000/svg" xmlns:toyplot="http://www.sandia.gov/toyplot" xmlns:xlink="http://www.w3.org/1999/xlink"><rect class="toyplot-mark-Legend" height="30.0" id="tbe810258f07d4757a27c39be642994d1" style="fill:none;stroke:rgb(16.1%,15.3%,14.1%);stroke-opacity:1.0" width="100.0" x="250.0" y="10.0" /><g><polygon points="260.0,30.0 265.0,20.0 270.0,30.0" transform="rotate(0, 265.0, 25.0)" /></g><text style="font-size:12px;stroke:none" transform="translate(280.0,25.0)translate(0,3.375)"><tspan>top</tspan></text><rect class="toyplot-mark-Legend" height="30.0" id="t331023f427ae4487854107b10e301794" style="fill:none;stroke:rgb(16.1%,15.3%,14.1%);stroke-opacity:1.0" width="100.0" x="490.0" y="10.0" /><g><polygon points="500.0,30.0 505.0,20.0 510.0,30.0" transform="rotate(0, 505.0, 25.0)" /></g><text style="font-size:12px;stroke:none" transform="translate(520.0,25.0)translate(0,3.375)"><tspan>top-right</tspan></text><rect class="toyplot-mark-Legend" height="30.0" id="t5d1491d7aebf4fa7a43f9075836e19be" style="fill:none;stroke:rgb(16.1%,15.3%,14.1%);stroke-opacity:1.0" width="100.0" x="490.0" y="285.0" /><g><polygon points="500.0,305.0 505.0,295.0 510.0,305.0" transform="rotate(0, 505.0, 300.0)" /></g><text style="font-size:12px;stroke:none" transform="translate(520.0,300.0)translate(0,3.375)"><tspan>right</tspan></text><rect class="toyplot-mark-Legend" height="30.0" id="t4d3b8b3829c0496b8b8a0dc95d285b79" style="fill:none;stroke:rgb(16.1%,15.3%,14.1%);stroke-opacity:1.0" width="150.0" x="440.0" y="560.0" /><g><polygon points="450.0,580.0 455.0,570.0 460.0,580.0" transform="rotate(0, 455.0, 575.0)" /></g><text style="font-size:12px;stroke:none" transform="translate(470.0,575.0)translate(0,3.375)"><tspan>bottom-right</tspan></text><rect class="toyplot-mark-Legend" height="60.0" id="teb324820d0a4408e80afca153fd10b0b" style="fill:none;stroke:rgb(16.1%,15.3%,14.1%);stroke-opacity:1.0" width="151.18110239999993" x="373.2283464" y="464.40944879999995" /><g><polygon points="383.22834640000002,514.4094488 403.22834640000002,474.40944879999995 423.22834640000002,514.4094488" transform="rotate(0, 403.22834640000002, 494.40944879999995)" /></g><text style="font-size:12px;stroke:none" transform="translate(433.22834640000002,494.40944879999995)translate(0,3.375)"><tspan>bottom-right</tspan></text><rect class="toyplot-mark-Legend" height="30.0" id="t2f09ec1393c64caba5a5acccffafc66f" style="fill:none;stroke:rgb(16.1%,15.3%,14.1%);stroke-opacity:1.0" width="100.0" x="250.0" y="560.0" /><g><polygon points="260.0,580.0 265.0,570.0 270.0,580.0" transform="rotate(0, 265.0, 575.0)" /></g><text style="font-size:12px;stroke:none" transform="translate(280.0,575.0)translate(0,3.375)"><tspan>bottom</tspan></text><rect class="toyplot-mark-Legend" height="30.0" id="t5eae81f9214745aab1ad31a61669838c" style="fill:none;stroke:rgb(16.1%,15.3%,14.1%);stroke-opacity:1.0" width="100.0" x="10.0" y="560.0" /><g><polygon points="20.0,580.0 25.0,570.0 30.0,580.0" transform="rotate(0, 25.0, 575.0)" /></g><text style="font-size:12px;stroke:none" transform="translate(40.0,575.0)translate(0,3.375)"><tspan>bottom-left</tspan></text><rect class="toyplot-mark-Legend" height="30.0" id="tc704875d3c834f928af9ea8b4759c646" style="fill:none;stroke:rgb(16.1%,15.3%,14.1%);stroke-opacity:1.0" width="100.0" x="10.0" y="285.0" /><g><polygon points="20.0,305.0 25.0,295.0 30.0,305.0" transform="rotate(0, 25.0, 300.0)" /></g><text style="font-size:12px;stroke:none" transform="translate(40.0,300.0)translate(0,3.375)"><tspan>left</tspan></text><rect class="toyplot-mark-Legend" height="30.0" id="t44ef2f938a054a5b9b342f5e3ecb63a2" style="fill:none;stroke:rgb(16.1%,15.3%,14.1%);stroke-opacity:1.0" width="100.0" x="10.0" y="10.0" /><g><polygon points="20.0,30.0 25.0,20.0 30.0,30.0" transform="rotate(0, 25.0, 25.0)" /></g><text style="font-size:12px;stroke:none" transform="translate(40.0,25.0)translate(0,3.375)"><tspan>top-left</tspan></text><rect class="toyplot-mark-Legend" height="30.0" id="t0931ca84e5c8437db82658f22c19e27a" style="fill:none;stroke:rgb(16.1%,15.3%,14.1%);stroke-opacity:1.0" width="100.0" x="50.0" y="50.0" /><g><polygon points="60.0,70.0 65.0,60.0 70.0,70.0" transform="rotate(0, 65.0, 65.0)" /></g><text style="font-size:12px;stroke:none" transform="translate(80.0,65.0)translate(0,3.375)"><tspan>top-left</tspan></text><rect class="toyplot-mark-Legend" height="60.0" id="tba5553f739144cd8a66dcdbf7dc28c70" style="fill:none;stroke:rgb(16.1%,15.3%,14.1%);stroke-opacity:1.0" width="120.0" x="100.0" y="100.0" /><g><polygon points="110.0,150.0 130.0,110.0 150.0,150.0" transform="rotate(0, 130.0, 130.0)" /></g><text style="font-size:12px;stroke:none" transform="translate(160.0,130.0)translate(0,3.375)"><tspan>top-left</tspan></text></svg>