<svg height="600px" id="td31f394aeb0649a9bb7a23fd5f4ccc39" preserveAspectRatio="xMidYMid meet" style="background-color:transparent;border:1px solid #292724;fill:rgb(16.1%,15.3%,14.1%);fill-opacity:1.0;font-family:Helvetica;font-size:12px;opacity:1.0;stroke:rgb(16.1%,15.3%,14.1%);stroke-opacity:1.0;stroke-width:1.0" viewBox="0 0 600 600" width="600px" xmlns="http://www.w3.org/2000/svg" xmlns:toyplot="http://www.sandia.gov/toyplot"><rect class="toyplot-mark-Legend" height="30.0" id="t81f1fdb634a546b3b1dc83949074188d" style="fill:none;stroke:rgb(16.1%,15.3%,14.1%);stroke-opacity:1.0" width="100.0" x="250.0" y="10.0" /><g style="fill:none;stroke:rgb(16.1%,15.3%,14.1%);stroke-opacity:1.0"><polygon points="260.0,30.0 265.0,20.0 270.0,30.0" transform="rotate(0, 265.0, 25.0)" /></g><text style="dominant-baseline:middle;font-size:12px;stroke:none" transform="translate(280.0,25.0)"><tspan style="dominant-baseline:inherit">top</tspan></text><rect class="toyplot-mark-Legend" height="30.0" id="t2ce1b477d3ba47a48a30bf8024e52ff3" style="fill:none;stroke:rgb(16.1%,15.3%,14.1%);stroke-opacity:1.0" width="100.0" x="490.0" y="10.0" /><g style="fill:none;stroke:rgb(16.1%,15.3%,14.1%);stroke-opacity:1.0"><polygon points="500.0,30.0 505.0,20.0 510.0,30.0" transform="rotate(0, 505.0, 25.0)" /></g><text style="dominant-baseline:middle;font-size:12px;stroke:none" transform="translate(520.0,25.0)"><tspan style="dominant-baseline:inherit">top-right</tspan></text><rect class="toyplot-mark-Legend" height="30.0" id="t4c2bf42c82db4c8fb509fd568cc6d6b6" style="fill:none;stroke:rgb(16.1%,15.3%,14.1%);stroke-opacity:1.0" width="100.0" x="490.0" y="285.0" /><g style="fill:none;stroke:rgb(16.1%,15.3%,14.1%);stroke-opacity:1.0"><polygon points="500.0,305.0 505.0,295.0 510.0,305.0" transform="rotate(0, 505.0, 300.0)" /></g><text style="dominant-baseline:middle;font-size:12px;stroke:none" transform="translate(520.0,300.0)"><tspan style="dominant-baseline:inherit">right</tspan></text><rect class="toyplot-mark-Legend" height="30.0" id="t733ad41e2acd4e028ae2187c064549f3" style="fill:none;stroke:rgb(16.1%,15.3%,14.1%);stroke-opacity:1.0" width="150.0" x="440.0" y="560.0" /><g style="fill:none;stroke:rgb(16.1%,15.3%,14.1%);stroke-opacity:1.0"><polygon points="450.0,580.0 455.0,570.0 460.0,580.0" transform="rotate(0, 455.0, 575.0)" /></g><text style="dominant-baseline:middle;font-size:12px;stroke:none" transform="translate(470.0,575.0)"><tspan style="dominant-baseline:inherit">bottom-right</tspan></text><rect class="toyplot-mark-Legend" height="60.0" id="t16bedee9b46d4c2b8aed9007f182f425" style="fill:none;stroke:rgb(16.1%,15.3%,14.1%);stroke-opacity:1.0" width="151.18110239999993" x="373.2283464" y="464.40944879999995" /><g style="fill:none;stroke:rgb(16.1%,15.3%,14.1%);stroke-opacity:1.0"><polygon points="383.2283464,514.4094488 403.2283464,474.40944879999995 423.2283464,514.4094488" transform="rotate(0, 403.2283464, 494.40944879999995)" /></g><text style="dominant-baseline:middle;font-size:12px;stroke:none" transform="translate(433.2283464,494.40944879999995)"><tspan style="dominant-baseline:inherit">bottom-right</tspan></text><rect class="toyplot-mark-Legend" height="30.0" id="t7578965cdcf74e66940e372d1ad99764" style="fill:none;stroke:rgb(16.1%,15.3%,14.1%);stroke-opacity:1.0" width="100.0" x="250.0" y="560.0" /><g style="fill:none;stroke:rgb(16.1%,15.3%,14.1%);stroke-opacity:1.0"><polygon points="260.0,580.0 265.0,570.0 270.0,580.0" transform="rotate(0, 265.0, 575.0)" /></g><text style="dominant-baseline:middle;font-size:12px;stroke:none" transform="translate(280.0,575.0)"><tspan style="dominant-baseline:inherit">bottom</tspan></text><rect class="toyplot-mark-Legend" height="30.0" id="t786b2255cac540bbba000716b647787c" style="fill:none;stroke:rgb(16.1%,15.3%,14.1%);stroke-opacity:1.0" width="100.0" x="10.0" y="560.0" /><g style="fill:none;stroke:rgb(16.1%,15.3%,14.1%);stroke-opacity:1.0"><polygon points="20.0,580.0 25.0,570.0 30.0,580.0" transform="rotate(0, 25.0, 575.0)" /></g><text style="dominant-baseline:middle;font-size:12px;stroke:none" transform="translate(40.0,575.0)"><tspan style="dominant-baseline:inherit">bottom-left</tspan></text><rect class="toyplot-mark-Legend" height="30.0" id="t8ab314b290de4a858890f388b476c61e" style="fill:none;stroke:rgb(16.1%,15.3%,14.1%);stroke-opacity:1.0" width="100.0" x="10.0" y="285.0" /><g style="fill:none;stroke:rgb(16.1%,15.3%,14.1%);stroke-opacity:1.0"><polygon points="20.0,305.0 25.0,295.0 30.0,305.0" transform="rotate(0, 25.0, 300.0)" /></g><text style="dominant-baseline:middle;font-size:12px;stroke:none" transform="translate(40.0,300.0)"><tspan style="dominant-baseline:inherit">left</tspan></text><rect class="toyplot-mark-Legend" height="30.0" id="td82c1ef5dfe0478fb7b052a0715c2425" style="fill:none;stroke:rgb(16.1%,15.3%,14.1%);stroke-opacity:1.0" width="100.0" x="10.0" y="10.0" /><g style="fill:none;stroke:rgb(16.1%,15.3%,14.1%);stroke-opacity:1.0"><polygon points="20.0,30.0 25.0,20.0 30.0,30.0" transform="rotate(0, 25.0, 25.0)" /></g><text style="dominant-baseline:middle;font-size:12px;stroke:none" transform="translate(40.0,25.0)"><tspan style="dominant-baseline:inherit">top-left</tspan></text><rect class="toyplot-mark-Legend" height="30.0" id="tac8e1f62e9c3402183538ee167427036" style="fill:none;stroke:rgb(16.1%,15.3%,14.1%);stroke-opacity:1.0" width="100.0" x="50.0" y="50.0" /><g style="fill:none;stroke:rgb(16.1%,15.3%,14.1%);stroke-opacity:1.0"><polygon points="60.0,70.0 65.0,60.0 70.0,70.0" transform="rotate(0, 65.0, 65.0)" /></g><text style="dominant-baseline:middle;font-size:12px;stroke:none" transform="translate(80.0,65.0)"><tspan style="dominant-baseline:inherit">top-left</tspan></text><rect class="toyplot-mark-Legend" height="60.0" id="tc758d2358a1449eba8a9baa7a55df964" style="fill:none;stroke:rgb(16.1%,15.3%,14.1%);stroke-opacity:1.0" width="120.0" x="100.0" y="100.0" /><g style="fill:none;stroke:rgb(16.1%,15.3%,14.1%);stroke-opacity:1.0"><polygon points="110.0,150.0 130.0,110.0 150.0,150.0" transform="rotate(0, 130.0, 130.0)" /></g><text style="dominant-baseline:middle;font-size:12px;stroke:none" transform="translate(160.0,130.0)"><tspan style="dominant-baseline:inherit">top-left</tspan></text></svg>