<svg class="toyplot-canvas-Canvas" height="600px" id="t5ec193a4ad164389aeca9a41475b7e9c" preserveAspectRatio="xMidYMid meet" style="background-color:transparent;border:1px solid #292724;fill:rgb(16.1%,15.3%,14.1%);fill-opacity:1.0;font-family:Helvetica;font-size:12px;opacity:1.0;stroke:rgb(16.1%,15.3%,14.1%);stroke-opacity:1.0;stroke-width:1.0" viewBox="0 0 600 600" width="600px" xmlns="http://www.w3.org/2000/svg" xmlns:toyplot="http://www.sandia.gov/toyplot" xmlns:xlink="http://www.w3.org/1999/xlink"><rect class="toyplot-mark-Legend" height="30.0" id="t07372dc97cc94de2bcbe9c1862e8f839" style="fill:none;stroke:rgb(16.1%,15.3%,14.1%);stroke-opacity:1.0" width="100.0" x="250.0" y="10.0" /><g><polygon points="260.0,30.0 265.0,20.0 270.0,30.0" transform="rotate(0, 265.0, 25.0)" /></g><text style="dominant-baseline:middle;font-size:12px;stroke:none" transform="translate(280.0,25.0)"><tspan style="dominant-baseline:inherit">top</tspan></text><rect class="toyplot-mark-Legend" height="30.0" id="t6fb03a02672c4b0eb6ae022eb4328d1b" style="fill:none;stroke:rgb(16.1%,15.3%,14.1%);stroke-opacity:1.0" width="100.0" x="490.0" y="10.0" /><g><polygon points="500.0,30.0 505.0,20.0 510.0,30.0" transform="rotate(0, 505.0, 25.0)" /></g><text style="dominant-baseline:middle;font-size:12px;stroke:none" transform="translate(520.0,25.0)"><tspan style="dominant-baseline:inherit">top-right</tspan></text><rect class="toyplot-mark-Legend" height="30.0" id="t7852fa026df04f748b53dd59ec1f8a16" style="fill:none;stroke:rgb(16.1%,15.3%,14.1%);stroke-opacity:1.0" width="100.0" x="490.0" y="285.0" /><g><polygon points="500.0,305.0 505.0,295.0 510.0,305.0" transform="rotate(0, 505.0, 300.0)" /></g><text style="dominant-baseline:middle;font-size:12px;stroke:none" transform="translate(520.0,300.0)"><tspan style="dominant-baseline:inherit">right</tspan></text><rect class="toyplot-mark-Legend" height="30.0" id="t62eb18858e7143b5beca7ef24dfa4911" style="fill:none;stroke:rgb(16.1%,15.3%,14.1%);stroke-opacity:1.0" width="150.0" x="440.0" y="560.0" /><g><polygon points="450.0,580.0 455.0,570.0 460.0,580.0" transform="rotate(0, 455.0, 575.0)" /></g><text style="dominant-baseline:middle;font-size:12px;stroke:none" transform="translate(470.0,575.0)"><tspan style="dominant-baseline:inherit">bottom-right</tspan></text><rect class="toyplot-mark-Legend" height="60.0" id="tbb1ed504d4b74e8b8248dafb031eb50a" style="fill:none;stroke:rgb(16.1%,15.3%,14.1%);stroke-opacity:1.0" width="151.18110239999993" x="373.2283464" y="464.40944879999995" /><g><polygon points="383.22834640000002,514.4094488 403.22834640000002,474.40944879999995 423.22834640000002,514.4094488" transform="rotate(0, 403.22834640000002, 494.40944879999995)" /></g><text style="dominant-baseline:middle;font-size:12px;stroke:none" transform="translate(433.22834640000002,494.40944879999995)"><tspan style="dominant-baseline:inherit">bottom-right</tspan></text><rect class="toyplot-mark-Legend" height="30.0" id="t89d42021c450422389c39126fbc3724e" style="fill:none;stroke:rgb(16.1%,15.3%,14.1%);stroke-opacity:1.0" width="100.0" x="250.0" y="560.0" /><g><polygon points="260.0,580.0 265.0,570.0 270.0,580.0" transform="rotate(0, 265.0, 575.0)" /></g><text style="dominant-baseline:middle;font-size:12px;stroke:none" transform="translate(280.0,575.0)"><tspan style="dominant-baseline:inherit">bottom</tspan></text><rect class="toyplot-mark-Legend" height="30.0" id="t2a09019bdf844425be6396922a77227e" style="fill:none;stroke:rgb(16.1%,15.3%,14.1%);stroke-opacity:1.0" width="100.0" x="10.0" y="560.0" /><g><polygon points="20.0,580.0 25.0,570.0 30.0,580.0" transform="rotate(0, 25.0, 575.0)" /></g><text style="dominant-baseline:middle;font-size:12px;stroke:none" transform="translate(40.0,575.0)"><tspan style="dominant-baseline:inherit">bottom-left</tspan></text><rect class="toyplot-mark-Legend" height="30.0" id="t3ffad3b6def04093ba83605f0c83a2f4" style="fill:none;stroke:rgb(16.1%,15.3%,14.1%);stroke-opacity:1.0" width="100.0" x="10.0" y="285.0" /><g><polygon points="20.0,305.0 25.0,295.0 30.0,305.0" transform="rotate(0, 25.0, 300.0)" /></g><text style="dominant-baseline:middle;font-size:12px;stroke:none" transform="translate(40.0,300.0)"><tspan style="dominant-baseline:inherit">left</tspan></text><rect class="toyplot-mark-Legend" height="30.0" id="t7cc17df443cc4938a591c768609ebd8e" style="fill:none;stroke:rgb(16.1%,15.3%,14.1%);stroke-opacity:1.0" width="100.0" x="10.0" y="10.0" /><g><polygon points="20.0,30.0 25.0,20.0 30.0,30.0" transform="rotate(0, 25.0, 25.0)" /></g><text style="dominant-baseline:middle;font-size:12px;stroke:none" transform="translate(40.0,25.0)"><tspan style="dominant-baseline:inherit">top-left</tspan></text><rect class="toyplot-mark-Legend" height="30.0" id="t9c71577ab1ac4a9c918efad487d86f92" style="fill:none;stroke:rgb(16.1%,15.3%,14.1%);stroke-opacity:1.0" width="100.0" x="50.0" y="50.0" /><g><polygon points="60.0,70.0 65.0,60.0 70.0,70.0" transform="rotate(0, 65.0, 65.0)" /></g><text style="dominant-baseline:middle;font-size:12px;stroke:none" transform="translate(80.0,65.0)"><tspan style="dominant-baseline:inherit">top-left</tspan></text><rect class="toyplot-mark-Legend" height="60.0" id="t0bbcb117858f4f0eba22bdec2e2b6649" style="fill:none;stroke:rgb(16.1%,15.3%,14.1%);stroke-opacity:1.0" width="120.0" x="100.0" y="100.0" /><g><polygon points="110.0,150.0 130.0,110.0 150.0,150.0" transform="rotate(0, 130.0, 130.0)" /></g><text style="dominant-baseline:middle;font-size:12px;stroke:none" transform="translate(160.0,130.0)"><tspan style="dominant-baseline:inherit">top-left</tspan></text></svg>