<svg height="600px" id="t6df10d61bcdd4662b591f0509ec755cc" preserveAspectRatio="xMidYMid meet" style="background-color:transparent;border:1px solid #292724;fill:rgb(16.1%,15.3%,14.1%);fill-opacity:1.0;font-family:Helvetica;font-size:12px;opacity:1.0;stroke:rgb(16.1%,15.3%,14.1%);stroke-opacity:1.0;stroke-width:1.0" viewBox="0 0 600 600" width="600px" xmlns="http://www.w3.org/2000/svg" xmlns:toyplot="http://www.sandia.gov/toyplot"><rect class="toyplot-mark-Legend" height="30.0" id="te70033b699044366ab06b2f70e71987c" style="fill:none;stroke:rgb(16.1%,15.3%,14.1%);stroke-opacity:1.0" width="100.0" x="250.0" y="10.0" /><g style="fill:none;stroke:rgb(16.1%,15.3%,14.1%);stroke-opacity:1.0"><polygon points="260.0,30.0 265.0,20.0 270.0,30.0" transform="rotate(0, 265.0, 25.0)" /></g><text style="dominant-baseline:middle;font-size:12px;stroke:none" transform="translate(280.0,25.0)"><tspan dominant-baseline="inherit">top</tspan></text><rect class="toyplot-mark-Legend" height="30.0" id="t59edd5e6f331483d8d9a8be22e0905bd" style="fill:none;stroke:rgb(16.1%,15.3%,14.1%);stroke-opacity:1.0" width="100.0" x="490.0" y="10.0" /><g style="fill:none;stroke:rgb(16.1%,15.3%,14.1%);stroke-opacity:1.0"><polygon points="500.0,30.0 505.0,20.0 510.0,30.0" transform="rotate(0, 505.0, 25.0)" /></g><text style="dominant-baseline:middle;font-size:12px;stroke:none" transform="translate(520.0,25.0)"><tspan dominant-baseline="inherit">top-right</tspan></text><rect class="toyplot-mark-Legend" height="30.0" id="t35207e1ce46146c3ac786c532a618a74" style="fill:none;stroke:rgb(16.1%,15.3%,14.1%);stroke-opacity:1.0" width="100.0" x="490.0" y="285.0" /><g style="fill:none;stroke:rgb(16.1%,15.3%,14.1%);stroke-opacity:1.0"><polygon points="500.0,305.0 505.0,295.0 510.0,305.0" transform="rotate(0, 505.0, 300.0)" /></g><text style="dominant-baseline:middle;font-size:12px;stroke:none" transform="translate(520.0,300.0)"><tspan dominant-baseline="inherit">right</tspan></text><rect class="toyplot-mark-Legend" height="30.0" id="ta60e9e5627bc46c7bd8c914eff10b3e8" style="fill:none;stroke:rgb(16.1%,15.3%,14.1%);stroke-opacity:1.0" width="150.0" x="440.0" y="560.0" /><g style="fill:none;stroke:rgb(16.1%,15.3%,14.1%);stroke-opacity:1.0"><polygon points="450.0,580.0 455.0,570.0 460.0,580.0" transform="rotate(0, 455.0, 575.0)" /></g><text style="dominant-baseline:middle;font-size:12px;stroke:none" transform="translate(470.0,575.0)"><tspan dominant-baseline="inherit">bottom-right</tspan></text><rect class="toyplot-mark-Legend" height="60.0" id="t9cbd606ddc794541b2a9a23e24e53be0" style="fill:none;stroke:rgb(16.1%,15.3%,14.1%);stroke-opacity:1.0" width="151.18110239999993" x="373.2283464" y="464.40944879999995" /><g style="fill:none;stroke:rgb(16.1%,15.3%,14.1%);stroke-opacity:1.0"><polygon points="383.2283464,514.4094488 403.2283464,474.40944879999995 423.2283464,514.4094488" transform="rotate(0, 403.2283464, 494.40944879999995)" /></g><text style="dominant-baseline:middle;font-size:12px;stroke:none" transform="translate(433.2283464,494.40944879999995)"><tspan dominant-baseline="inherit">bottom-right</tspan></text><rect class="toyplot-mark-Legend" height="30.0" id="tac861ae07c69492ab44aa494f6447ce0" style="fill:none;stroke:rgb(16.1%,15.3%,14.1%);stroke-opacity:1.0" width="100.0" x="250.0" y="560.0" /><g style="fill:none;stroke:rgb(16.1%,15.3%,14.1%);stroke-opacity:1.0"><polygon points="260.0,580.0 265.0,570.0 270.0,580.0" transform="rotate(0, 265.0, 575.0)" /></g><text style="dominant-baseline:middle;font-size:12px;stroke:none" transform="translate(280.0,575.0)"><tspan dominant-baseline="inherit">bottom</tspan></text><rect class="toyplot-mark-Legend" height="30.0" id="t1509b3922d2c4b1a8430cb288e6f132d" style="fill:none;stroke:rgb(16.1%,15.3%,14.1%);stroke-opacity:1.0" width="100.0" x="10.0" y="560.0" /><g style="fill:none;stroke:rgb(16.1%,15.3%,14.1%);stroke-opacity:1.0"><polygon points="20.0,580.0 25.0,570.0 30.0,580.0" transform="rotate(0, 25.0, 575.0)" /></g><text style="dominant-baseline:middle;font-size:12px;stroke:none" transform="translate(40.0,575.0)"><tspan dominant-baseline="inherit">bottom-left</tspan></text><rect class="toyplot-mark-Legend" height="30.0" id="tfdda222d8c9548bf8bbac5fe44f50af8" style="fill:none;stroke:rgb(16.1%,15.3%,14.1%);stroke-opacity:1.0" width="100.0" x="10.0" y="285.0" /><g style="fill:none;stroke:rgb(16.1%,15.3%,14.1%);stroke-opacity:1.0"><polygon points="20.0,305.0 25.0,295.0 30.0,305.0" transform="rotate(0, 25.0, 300.0)" /></g><text style="dominant-baseline:middle;font-size:12px;stroke:none" transform="translate(40.0,300.0)"><tspan dominant-baseline="inherit">left</tspan></text><rect class="toyplot-mark-Legend" height="30.0" id="tb95a9cd955004edfb19a091592567e8f" style="fill:none;stroke:rgb(16.1%,15.3%,14.1%);stroke-opacity:1.0" width="100.0" x="10.0" y="10.0" /><g style="fill:none;stroke:rgb(16.1%,15.3%,14.1%);stroke-opacity:1.0"><polygon points="20.0,30.0 25.0,20.0 30.0,30.0" transform="rotate(0, 25.0, 25.0)" /></g><text style="dominant-baseline:middle;font-size:12px;stroke:none" transform="translate(40.0,25.0)"><tspan dominant-baseline="inherit">top-left</tspan></text><rect class="toyplot-mark-Legend" height="30.0" id="t4470bc33c93e4b8ab9a8121a166ee499" style="fill:none;stroke:rgb(16.1%,15.3%,14.1%);stroke-opacity:1.0" width="100.0" x="50.0" y="50.0" /><g style="fill:none;stroke:rgb(16.1%,15.3%,14.1%);stroke-opacity:1.0"><polygon points="60.0,70.0 65.0,60.0 70.0,70.0" transform="rotate(0, 65.0, 65.0)" /></g><text style="dominant-baseline:middle;font-size:12px;stroke:none" transform="translate(80.0,65.0)"><tspan dominant-baseline="inherit">top-left</tspan></text><rect class="toyplot-mark-Legend" height="60.0" id="t3e992a060b0b4b88b19cbd1d7ef3d6c8" style="fill:none;stroke:rgb(16.1%,15.3%,14.1%);stroke-opacity:1.0" width="120.0" x="100.0" y="100.0" /><g style="fill:none;stroke:rgb(16.1%,15.3%,14.1%);stroke-opacity:1.0"><polygon points="110.0,150.0 130.0,110.0 150.0,150.0" transform="rotate(0, 130.0, 130.0)" /></g><text style="dominant-baseline:middle;font-size:12px;stroke:none" transform="translate(160.0,130.0)"><tspan dominant-baseline="inherit">top-left</tspan></text></svg>