<svg class="toyplot-canvas-Canvas" height="600px" id="t1d9f7258d3ac45b0b92672933f2db0f9" preserveAspectRatio="xMidYMid meet" style="background-color:transparent;border:1px solid #292724;fill:rgb(16.1%,15.3%,14.1%);fill-opacity:1.0;font-family:Helvetica;font-size:12px;opacity:1.0;stroke:rgb(16.1%,15.3%,14.1%);stroke-opacity:1.0;stroke-width:1.0" viewBox="0 0 600 600" width="600px" xmlns="http://www.w3.org/2000/svg" xmlns:toyplot="http://www.sandia.gov/toyplot" xmlns:xlink="http://www.w3.org/1999/xlink"><rect class="toyplot-mark-Legend" height="30.0" id="t2b3cc572fdcf4da0a43515869a50e65a" style="fill:none;stroke:rgb(16.1%,15.3%,14.1%);stroke-opacity:1.0" width="100.0" x="250.0" y="10.0" /><g><polygon points="260.0,30.0 265.0,20.0 270.0,30.0" transform="rotate(0, 265.0, 25.0)" /></g><text style="stroke:none" transform="translate(280.0,25.0)translate(0,3.375)"><tspan style="font-size:12.0px">top</tspan></text><rect class="toyplot-mark-Legend" height="30.0" id="t6bc59b8abf9648dea7a9e41b7a85a246" style="fill:none;stroke:rgb(16.1%,15.3%,14.1%);stroke-opacity:1.0" width="100.0" x="490.0" y="10.0" /><g><polygon points="500.0,30.0 505.0,20.0 510.0,30.0" transform="rotate(0, 505.0, 25.0)" /></g><text style="stroke:none" transform="translate(520.0,25.0)translate(0,3.375)"><tspan style="font-size:12.0px">top-right</tspan></text><rect class="toyplot-mark-Legend" height="30.0" id="t16c5c346585748358281675d81488f55" style="fill:none;stroke:rgb(16.1%,15.3%,14.1%);stroke-opacity:1.0" width="100.0" x="490.0" y="285.0" /><g><polygon points="500.0,305.0 505.0,295.0 510.0,305.0" transform="rotate(0, 505.0, 300.0)" /></g><text style="stroke:none" transform="translate(520.0,300.0)translate(0,3.375)"><tspan style="font-size:12.0px">right</tspan></text><rect class="toyplot-mark-Legend" height="30.0" id="tc58ee90d6d5c41f89f3889ab0fe9355b" style="fill:none;stroke:rgb(16.1%,15.3%,14.1%);stroke-opacity:1.0" width="150.0" x="440.0" y="560.0" /><g><polygon points="450.0,580.0 455.0,570.0 460.0,580.0" transform="rotate(0, 455.0, 575.0)" /></g><text style="stroke:none" transform="translate(470.0,575.0)translate(0,3.375)"><tspan style="font-size:12.0px">bottom-right</tspan></text><rect class="toyplot-mark-Legend" height="60.0" id="t1b2e0c92a76343d79c626be0ed6f1e74" style="fill:none;stroke:rgb(16.1%,15.3%,14.1%);stroke-opacity:1.0" width="151.18110239999993" x="373.2283464" y="464.40944879999995" /><g><polygon points="383.22834640000002,514.4094488 403.22834640000002,474.40944879999995 423.22834640000002,514.4094488" transform="rotate(0, 403.22834640000002, 494.40944879999995)" /></g><text style="stroke:none" transform="translate(433.22834640000002,494.40944879999995)translate(0,3.375)"><tspan style="font-size:12.0px">bottom-right</tspan></text><rect class="toyplot-mark-Legend" height="30.0" id="tadf245d0197b49a8a34a96d984e294bd" style="fill:none;stroke:rgb(16.1%,15.3%,14.1%);stroke-opacity:1.0" width="100.0" x="250.0" y="560.0" /><g><polygon points="260.0,580.0 265.0,570.0 270.0,580.0" transform="rotate(0, 265.0, 575.0)" /></g><text style="stroke:none" transform="translate(280.0,575.0)translate(0,3.375)"><tspan style="font-size:12.0px">bottom</tspan></text><rect class="toyplot-mark-Legend" height="30.0" id="tcb0b016eaba243cd86b37e43e9248e1c" style="fill:none;stroke:rgb(16.1%,15.3%,14.1%);stroke-opacity:1.0" width="100.0" x="10.0" y="560.0" /><g><polygon points="20.0,580.0 25.0,570.0 30.0,580.0" transform="rotate(0, 25.0, 575.0)" /></g><text style="stroke:none" transform="translate(40.0,575.0)translate(0,3.375)"><tspan style="font-size:12.0px">bottom-left</tspan></text><rect class="toyplot-mark-Legend" height="30.0" id="t5e94b3d243884b0eb2d7d69cacc7c674" style="fill:none;stroke:rgb(16.1%,15.3%,14.1%);stroke-opacity:1.0" width="100.0" x="10.0" y="285.0" /><g><polygon points="20.0,305.0 25.0,295.0 30.0,305.0" transform="rotate(0, 25.0, 300.0)" /></g><text style="stroke:none" transform="translate(40.0,300.0)translate(0,3.375)"><tspan style="font-size:12.0px">left</tspan></text><rect class="toyplot-mark-Legend" height="30.0" id="t008f20928a444cd6be678b4dc488be77" style="fill:none;stroke:rgb(16.1%,15.3%,14.1%);stroke-opacity:1.0" width="100.0" x="10.0" y="10.0" /><g><polygon points="20.0,30.0 25.0,20.0 30.0,30.0" transform="rotate(0, 25.0, 25.0)" /></g><text style="stroke:none" transform="translate(40.0,25.0)translate(0,3.375)"><tspan style="font-size:12.0px">top-left</tspan></text><rect class="toyplot-mark-Legend" height="30.0" id="t2c2cfbdb28f943bcb885956e15391590" style="fill:none;stroke:rgb(16.1%,15.3%,14.1%);stroke-opacity:1.0" width="100.0" x="50.0" y="50.0" /><g><polygon points="60.0,70.0 65.0,60.0 70.0,70.0" transform="rotate(0, 65.0, 65.0)" /></g><text style="stroke:none" transform="translate(80.0,65.0)translate(0,3.375)"><tspan style="font-size:12.0px">top-left</tspan></text><rect class="toyplot-mark-Legend" height="60.0" id="t7881683f2e4249e3b36145781997560c" style="fill:none;stroke:rgb(16.1%,15.3%,14.1%);stroke-opacity:1.0" width="120.0" x="100.0" y="100.0" /><g><polygon points="110.0,150.0 130.0,110.0 150.0,150.0" transform="rotate(0, 130.0, 130.0)" /></g><text style="stroke:none" transform="translate(160.0,130.0)translate(0,3.375)"><tspan style="font-size:12.0px">top-left</tspan></text></svg>