<svg class="toyplot-canvas-Canvas" height="600px" id="t329fcf25f91941f180f5cd571198943b" preserveAspectRatio="xMidYMid meet" style="background-color:transparent;border:1px solid #292724;fill:rgb(16.1%,15.3%,14.1%);fill-opacity:1.0;font-family:Helvetica;font-size:12px;opacity:1.0;stroke:rgb(16.1%,15.3%,14.1%);stroke-opacity:1.0;stroke-width:1.0" viewBox="0 0 600 600" width="600px" xmlns="http://www.w3.org/2000/svg" xmlns:toyplot="http://www.sandia.gov/toyplot"><rect class="toyplot-mark-Legend" height="30.0" id="t293cdc6932c94d0e8c4950f4659a17d2" style="fill:none;stroke:rgb(16.1%,15.3%,14.1%);stroke-opacity:1.0" width="100.0" x="250.0" y="10.0" /><g style="fill:none;stroke:rgb(16.1%,15.3%,14.1%);stroke-opacity:1.0"><polygon points="260.0,30.0 265.0,20.0 270.0,30.0" transform="rotate(0, 265.0, 25.0)" /></g><text style="dominant-baseline:middle;font-size:12px;stroke:none" transform="translate(280.0,25.0)"><tspan style="dominant-baseline:inherit">top</tspan></text><rect class="toyplot-mark-Legend" height="30.0" id="t5dc55b29a90b4730bd10aad0ffaa621d" style="fill:none;stroke:rgb(16.1%,15.3%,14.1%);stroke-opacity:1.0" width="100.0" x="490.0" y="10.0" /><g style="fill:none;stroke:rgb(16.1%,15.3%,14.1%);stroke-opacity:1.0"><polygon points="500.0,30.0 505.0,20.0 510.0,30.0" transform="rotate(0, 505.0, 25.0)" /></g><text style="dominant-baseline:middle;font-size:12px;stroke:none" transform="translate(520.0,25.0)"><tspan style="dominant-baseline:inherit">top-right</tspan></text><rect class="toyplot-mark-Legend" height="30.0" id="t158c5f19f11b4e3ea84965e58cd174a0" style="fill:none;stroke:rgb(16.1%,15.3%,14.1%);stroke-opacity:1.0" width="100.0" x="490.0" y="285.0" /><g style="fill:none;stroke:rgb(16.1%,15.3%,14.1%);stroke-opacity:1.0"><polygon points="500.0,305.0 505.0,295.0 510.0,305.0" transform="rotate(0, 505.0, 300.0)" /></g><text style="dominant-baseline:middle;font-size:12px;stroke:none" transform="translate(520.0,300.0)"><tspan style="dominant-baseline:inherit">right</tspan></text><rect class="toyplot-mark-Legend" height="30.0" id="t88da22fc4c5e42bc9f2077185aac7580" style="fill:none;stroke:rgb(16.1%,15.3%,14.1%);stroke-opacity:1.0" width="150.0" x="440.0" y="560.0" /><g style="fill:none;stroke:rgb(16.1%,15.3%,14.1%);stroke-opacity:1.0"><polygon points="450.0,580.0 455.0,570.0 460.0,580.0" transform="rotate(0, 455.0, 575.0)" /></g><text style="dominant-baseline:middle;font-size:12px;stroke:none" transform="translate(470.0,575.0)"><tspan style="dominant-baseline:inherit">bottom-right</tspan></text><rect class="toyplot-mark-Legend" height="60.0" id="t820c8b20bc5a42799a7bafc25c4d18b9" style="fill:none;stroke:rgb(16.1%,15.3%,14.1%);stroke-opacity:1.0" width="151.18110239999993" x="373.2283464" y="464.40944879999995" /><g style="fill:none;stroke:rgb(16.1%,15.3%,14.1%);stroke-opacity:1.0"><polygon points="383.2283464,514.4094488 403.2283464,474.40944879999995 423.2283464,514.4094488" transform="rotate(0, 403.2283464, 494.40944879999995)" /></g><text style="dominant-baseline:middle;font-size:12px;stroke:none" transform="translate(433.2283464,494.40944879999995)"><tspan style="dominant-baseline:inherit">bottom-right</tspan></text><rect class="toyplot-mark-Legend" height="30.0" id="t05193f7121ef4df091e592ed04ebbb88" style="fill:none;stroke:rgb(16.1%,15.3%,14.1%);stroke-opacity:1.0" width="100.0" x="250.0" y="560.0" /><g style="fill:none;stroke:rgb(16.1%,15.3%,14.1%);stroke-opacity:1.0"><polygon points="260.0,580.0 265.0,570.0 270.0,580.0" transform="rotate(0, 265.0, 575.0)" /></g><text style="dominant-baseline:middle;font-size:12px;stroke:none" transform="translate(280.0,575.0)"><tspan style="dominant-baseline:inherit">bottom</tspan></text><rect class="toyplot-mark-Legend" height="30.0" id="t95c9887c9e7e48cf8f6200d538504e5d" style="fill:none;stroke:rgb(16.1%,15.3%,14.1%);stroke-opacity:1.0" width="100.0" x="10.0" y="560.0" /><g style="fill:none;stroke:rgb(16.1%,15.3%,14.1%);stroke-opacity:1.0"><polygon points="20.0,580.0 25.0,570.0 30.0,580.0" transform="rotate(0, 25.0, 575.0)" /></g><text style="dominant-baseline:middle;font-size:12px;stroke:none" transform="translate(40.0,575.0)"><tspan style="dominant-baseline:inherit">bottom-left</tspan></text><rect class="toyplot-mark-Legend" height="30.0" id="t91168abf1e624d989f5fc8c076dc7175" style="fill:none;stroke:rgb(16.1%,15.3%,14.1%);stroke-opacity:1.0" width="100.0" x="10.0" y="285.0" /><g style="fill:none;stroke:rgb(16.1%,15.3%,14.1%);stroke-opacity:1.0"><polygon points="20.0,305.0 25.0,295.0 30.0,305.0" transform="rotate(0, 25.0, 300.0)" /></g><text style="dominant-baseline:middle;font-size:12px;stroke:none" transform="translate(40.0,300.0)"><tspan style="dominant-baseline:inherit">left</tspan></text><rect class="toyplot-mark-Legend" height="30.0" id="t0f77a288eefa4aadacf76150a65af9c8" style="fill:none;stroke:rgb(16.1%,15.3%,14.1%);stroke-opacity:1.0" width="100.0" x="10.0" y="10.0" /><g style="fill:none;stroke:rgb(16.1%,15.3%,14.1%);stroke-opacity:1.0"><polygon points="20.0,30.0 25.0,20.0 30.0,30.0" transform="rotate(0, 25.0, 25.0)" /></g><text style="dominant-baseline:middle;font-size:12px;stroke:none" transform="translate(40.0,25.0)"><tspan style="dominant-baseline:inherit">top-left</tspan></text><rect class="toyplot-mark-Legend" height="30.0" id="t874e0b74172a4a8bbf6467bf5301bd80" style="fill:none;stroke:rgb(16.1%,15.3%,14.1%);stroke-opacity:1.0" width="100.0" x="50.0" y="50.0" /><g style="fill:none;stroke:rgb(16.1%,15.3%,14.1%);stroke-opacity:1.0"><polygon points="60.0,70.0 65.0,60.0 70.0,70.0" transform="rotate(0, 65.0, 65.0)" /></g><text style="dominant-baseline:middle;font-size:12px;stroke:none" transform="translate(80.0,65.0)"><tspan style="dominant-baseline:inherit">top-left</tspan></text><rect class="toyplot-mark-Legend" height="60.0" id="t89856bf00f7141fa843c4a5a7774a6e3" style="fill:none;stroke:rgb(16.1%,15.3%,14.1%);stroke-opacity:1.0" width="120.0" x="100.0" y="100.0" /><g style="fill:none;stroke:rgb(16.1%,15.3%,14.1%);stroke-opacity:1.0"><polygon points="110.0,150.0 130.0,110.0 150.0,150.0" transform="rotate(0, 130.0, 130.0)" /></g><text style="dominant-baseline:middle;font-size:12px;stroke:none" transform="translate(160.0,130.0)"><tspan style="dominant-baseline:inherit">top-left</tspan></text></svg>