<svg height="600px" id="tc1165af8885743acb6fed319442555fc" preserveAspectRatio="xMidYMid meet" style="background-color:transparent;border:1px solid #292724;fill:rgb(16.1%,15.3%,14.1%);fill-opacity:1.0;font-family:Helvetica;font-size:12px;opacity:1.0;stroke:rgb(16.1%,15.3%,14.1%);stroke-opacity:1.0;stroke-width:1.0" viewBox="0 0 600 600" width="600px" xmlns="http://www.w3.org/2000/svg" xmlns:toyplot="http://www.sandia.gov/toyplot"><g class="toyplot-axes-Cartesian" id="t37ba31dfd630480b90b6cb0b8152f158"><clipPath id="t004a59ea8082493b928291bce0b48ca2"><rect height="120.0" width="120.0" x="90.0" y="90.0" /></clipPath><g class="toyplot-coordinate-events" clip-path="url(#t004a59ea8082493b928291bce0b48ca2)" style="cursor:crosshair"><rect height="120.0" style="pointer-events:all;visibility:hidden" width="120.0" x="90.0" y="90.0" /></g><g class="toyplot-coordinates" style="visibility:hidden"><rect height="14.0" style="fill:rgb(100%,100%,100%);fill-opacity:1.0;opacity:0.75;stroke:none" width="90.0" x="100.0" y="110.0" /><text style="alignment-baseline:middle;font-size:10px;font-weight:normal;stroke:none;text-anchor:middle" x="145.0" y="117.0" /></g><g class="toyplot-axes-Axis" id="tf227432fde564e6eac854a0db6a003f0" transform="translate(100.0,200.0) rotate(0.0) translate(0,10.0)"><line style="" x1="0" x2="100.0" y1="0" y2="0" /><g><text style="alignment-baseline:middle;baseline-shift:-80%;font-size:10px;font-weight:normal;stroke:none;text-anchor:middle" transform="translate(0.0,0) rotate(0)" x="0" y="0">-0.5</text><text style="alignment-baseline:middle;baseline-shift:-80%;font-size:10px;font-weight:normal;stroke:none;text-anchor:middle" transform="translate(50.0,0) rotate(0)" x="0" y="0">0.0</text><text style="alignment-baseline:middle;baseline-shift:-80%;font-size:10px;font-weight:normal;stroke:none;text-anchor:middle" transform="translate(100.0,0) rotate(0)" x="0" y="0">0.5</text></g></g><g class="toyplot-axes-Axis" id="t1f780c0b83d34d29ac4c5f73f0fc59ed" transform="translate(100.0,200.0) rotate(-90.0) translate(0,-10.0)"><line style="" x1="0" x2="100.0" y1="0" y2="0" /><g><text style="alignment-baseline:middle;baseline-shift:80%;font-size:10px;font-weight:normal;stroke:none;text-anchor:middle" transform="translate(0.0,0) rotate(0)" x="0" y="0">-0.5</text><text style="alignment-baseline:middle;baseline-shift:80%;font-size:10px;font-weight:normal;stroke:none;text-anchor:middle" transform="translate(50.0,0) rotate(0)" x="0" y="0">0.0</text><text style="alignment-baseline:middle;baseline-shift:80%;font-size:10px;font-weight:normal;stroke:none;text-anchor:middle" transform="translate(100.0,0) rotate(0)" x="0" y="0">0.5</text></g></g><text style="alignment-baseline:middle;baseline-shift:100%;font-size:14px;font-weight:bold;stroke:none;text-anchor:middle" x="150.0" y="100.0">100, 200, 100, 100</text></g><g class="toyplot-axes-Cartesian" id="t91a0bb3b3a26463485db5e08f81ecce2"><clipPath id="t6c3164e12acd4ede8fdc653c3d543e8f"><rect height="120.0" width="120.0" x="390.0" y="390.0" /></clipPath><g class="toyplot-coordinate-events" clip-path="url(#t6c3164e12acd4ede8fdc653c3d543e8f)" style="cursor:crosshair"><rect height="120.0" style="pointer-events:all;visibility:hidden" width="120.0" x="390.0" y="390.0" /></g><g class="toyplot-coordinates" style="visibility:hidden"><rect height="14.0" style="fill:rgb(100%,100%,100%);fill-opacity:1.0;opacity:0.75;stroke:none" width="90.0" x="400.0" y="410.0" /><text style="alignment-baseline:middle;font-size:10px;font-weight:normal;stroke:none;text-anchor:middle" x="445.0" y="417.0" /></g><g class="toyplot-axes-Axis" id="tb45b35ec23b747d7a68a1c4360c79b71" transform="translate(400.0,500.0) rotate(0.0) translate(0,10.0)"><line style="" x1="0" x2="100.0" y1="0" y2="0" /><g><text style="alignment-baseline:middle;baseline-shift:-80%;font-size:10px;font-weight:normal;stroke:none;text-anchor:middle" transform="translate(0.0,0) rotate(0)" x="0" y="0">-0.5</text><text style="alignment-baseline:middle;baseline-shift:-80%;font-size:10px;font-weight:normal;stroke:none;text-anchor:middle" transform="translate(50.0,0) rotate(0)" x="0" y="0">0.0</text><text style="alignment-baseline:middle;baseline-shift:-80%;font-size:10px;font-weight:normal;stroke:none;text-anchor:middle" transform="translate(100.0,0) rotate(0)" x="0" y="0">0.5</text></g></g><g class="toyplot-axes-Axis" id="td367309fb9b2451a9235989ff2586276" transform="translate(400.0,500.0) rotate(-90.0) translate(0,-10.0)"><line style="" x1="0" x2="100.0" y1="0" y2="0" /><g><text style="alignment-baseline:middle;baseline-shift:80%;font-size:10px;font-weight:normal;stroke:none;text-anchor:middle" transform="translate(0.0,0) rotate(0)" x="0" y="0">-0.5</text><text style="alignment-baseline:middle;baseline-shift:80%;font-size:10px;font-weight:normal;stroke:none;text-anchor:middle" transform="translate(50.0,0) rotate(0)" x="0" y="0">0.0</text><text style="alignment-baseline:middle;baseline-shift:80%;font-size:10px;font-weight:normal;stroke:none;text-anchor:middle" transform="translate(100.0,0) rotate(0)" x="0" y="0">0.5</text></g></g><text style="alignment-baseline:middle;baseline-shift:100%;font-size:14px;font-weight:bold;stroke:none;text-anchor:middle" x="450.0" y="400.0">-200, -200, 100, 100</text></g><g class="toyplot-axes-Cartesian" id="t82a6370709a04d4480be31b14356aa67"><clipPath id="tf2d05cff76b14209be18ec598d116f0d"><rect height="80.0" width="320.0" x="140.0" y="240.0" /></clipPath><g class="toyplot-coordinate-events" clip-path="url(#tf2d05cff76b14209be18ec598d116f0d)" style="cursor:crosshair"><rect height="80.0" style="pointer-events:all;visibility:hidden" width="320.0" x="140.0" y="240.0" /></g><g class="toyplot-coordinates" style="visibility:hidden"><rect height="14.0" style="fill:rgb(100%,100%,100%);fill-opacity:1.0;opacity:0.75;stroke:none" width="90.0" x="350.0" y="260.0" /><text style="alignment-baseline:middle;font-size:10px;font-weight:normal;stroke:none;text-anchor:middle" x="395.0" y="267.0" /></g><g class="toyplot-axes-Axis" id="taf50b6a332584ff1b31f7156b5f9886c" transform="translate(150.0,310.0) rotate(0.0) translate(0,10.0)"><line style="" x1="0" x2="300.0" y1="0" y2="0" /><g><text style="alignment-baseline:middle;baseline-shift:-80%;font-size:10px;font-weight:normal;stroke:none;text-anchor:middle" transform="translate(0.0,0) rotate(0)" x="0" y="0">-0.5</text><text style="alignment-baseline:middle;baseline-shift:-80%;font-size:10px;font-weight:normal;stroke:none;text-anchor:middle" transform="translate(150.0,0) rotate(0)" x="0" y="0">0.0</text><text style="alignment-baseline:middle;baseline-shift:-80%;font-size:10px;font-weight:normal;stroke:none;text-anchor:middle" transform="translate(300.0,0) rotate(0)" x="0" y="0">0.5</text></g></g><g class="toyplot-axes-Axis" id="t145981a3445b4fee9785038397e2be03" transform="translate(150.0,310.0) rotate(-90.0) translate(0,-10.0)"><line style="" x1="0" x2="60.0" y1="0" y2="0" /><g><text style="alignment-baseline:middle;baseline-shift:80%;font-size:10px;font-weight:normal;stroke:none;text-anchor:middle" transform="translate(0.0,0) rotate(0)" x="0" y="0">-0.5</text><text style="alignment-baseline:middle;baseline-shift:80%;font-size:10px;font-weight:normal;stroke:none;text-anchor:middle" transform="translate(30.0,0) rotate(0)" x="0" y="0">0.0</text><text style="alignment-baseline:middle;baseline-shift:80%;font-size:10px;font-weight:normal;stroke:none;text-anchor:middle" transform="translate(60.0,0) rotate(0)" x="0" y="0">0.5</text></g></g><text style="alignment-baseline:middle;baseline-shift:100%;font-size:14px;font-weight:bold;stroke:none;text-anchor:middle" x="300.0" y="250.0">25%, 250, 50%, 10%</text></g><g class="toyplot-axes-Cartesian" id="tb81e9622cb6b4aa981b34c3889939d85"><clipPath id="tc8b0e534a02842418fbdc2f5e74d1ffc"><rect height="57.795275600000025" width="208.97637799999998" x="50.0" y="390.0" /></clipPath><g class="toyplot-coordinate-events" clip-path="url(#tc8b0e534a02842418fbdc2f5e74d1ffc)" style="cursor:crosshair"><rect height="57.795275600000025" style="pointer-events:all;visibility:hidden" width="208.97637799999998" x="50.0" y="390.0" /></g><g class="toyplot-coordinates" style="visibility:hidden"><rect height="14.0" style="fill:rgb(100%,100%,100%);fill-opacity:1.0;opacity:0.75;stroke:none" width="90.0" x="148.97637799999998" y="410.0" /><text style="alignment-baseline:middle;font-size:10px;font-weight:normal;stroke:none;text-anchor:middle" x="193.97637799999998" y="417.0" /></g><g class="toyplot-axes-Axis" id="t047b298c99a54939bffa7a29755b11a8" transform="translate(60.0,437.7952756) rotate(0.0) translate(0,10.0)"><line style="" x1="0" x2="188.97637799999998" y1="0" y2="0" /><g><text style="alignment-baseline:middle;baseline-shift:-80%;font-size:10px;font-weight:normal;stroke:none;text-anchor:middle" transform="translate(0.0,0) rotate(0)" x="0" y="0">-0.5</text><text style="alignment-baseline:middle;baseline-shift:-80%;font-size:10px;font-weight:normal;stroke:none;text-anchor:middle" transform="translate(94.48818899999999,0) rotate(0)" x="0" y="0">0.0</text><text style="alignment-baseline:middle;baseline-shift:-80%;font-size:10px;font-weight:normal;stroke:none;text-anchor:middle" transform="translate(188.97637799999998,0) rotate(0)" x="0" y="0">0.5</text></g></g><g class="toyplot-axes-Axis" id="t8bd113537d63474db1b7032072e3729d" transform="translate(60.0,437.7952756) rotate(-90.0) translate(0,-10.0)"><line style="" x1="0" x2="37.795275600000025" y1="0" y2="0" /><g><text style="alignment-baseline:middle;baseline-shift:80%;font-size:10px;font-weight:normal;stroke:none;text-anchor:middle" transform="translate(0.0,0) rotate(0)" x="0" y="0">-0.5</text><text style="alignment-baseline:middle;baseline-shift:80%;font-size:10px;font-weight:normal;stroke:none;text-anchor:middle" transform="translate(18.897637800000012,0) rotate(0)" x="0" y="0">0.0</text><text style="alignment-baseline:middle;baseline-shift:80%;font-size:10px;font-weight:normal;stroke:none;text-anchor:middle" transform="translate(37.795275600000025,0) rotate(0)" x="0" y="0">0.5</text></g></g><text style="alignment-baseline:middle;baseline-shift:100%;font-size:14px;font-weight:bold;stroke:none;text-anchor:middle" x="154.48818899999998" y="400.0">10%, 400, 5cm, 1cm</text></g></svg>