<svg class="toyplot-canvas-Canvas" height="600px" id="tfd7e3e7d18a44e68ae822a20844bf6a8" preserveAspectRatio="xMidYMid meet" style="background-color:transparent;border-color:#292724;border-style:none;border-width:1.0;fill:rgb(16.1%,15.3%,14.1%);fill-opacity:1.0;font-family:Helvetica;font-size:12px;opacity:1.0;stroke:rgb(16.1%,15.3%,14.1%);stroke-opacity:1.0;stroke-width:1.0" viewBox="0 0 600 600" width="600px" xmlns="http://www.w3.org/2000/svg" xmlns:toyplot="http://www.sandia.gov/toyplot" xmlns:xlink="http://www.w3.org/1999/xlink"><g class="toyplot-coordinates-Cartesian" id="t16972e7d6d484154a3361e93d3d89ede"><clipPath id="t72ed1d25e68848acadbf7aaff28adfc8"><rect height="520.0" width="520.0" x="40.0" y="40.0" /></clipPath><g clip-path="url(#t72ed1d25e68848acadbf7aaff28adfc8)"><g class="toyplot-mark-Plot" id="tadbb1214a42345408af7ce88a1325878" style="fill:none"><g class="toyplot-Series"><path d="M 50.0 550.0 L 60.0 549.7917534360683 L 70.0 549.1670137442732 L 80.0 548.1257809246148 L 90.0 546.6680549770929 L 100.0 544.7938359017077 L 110.0 542.503123698459 L 120.00000000000001 539.7959183673469 L 130.0 536.6722199083715 L 140.0 533.1320283215327 L 150.0 529.1753436068306 L 160.0 524.8021657642648 L 170.0 520.0124947938359 L 180.0 514.8063306955436 L 190.00000000000003 509.18367346938777 L 200.0 503.14452311536866 L 210.0 496.68887963348607 L 220.0 489.8167430237401 L 230.0 482.5281132861308 L 240.0 474.8229904206581 L 250.0 466.701374427322 L 260.0 458.16326530612247 L 270.0 449.2086630570596 L 280.0 439.83756768013325 L 290.0 430.0499791753436 L 300.0 419.8458975426905 L 310.0 409.2253227821741 L 320.0 398.1882548937943 L 330.00000000000006 386.734693877551 L 340.0 374.8646397334444 L 350.0 362.5780924614744 L 360.0 349.875052061641 L 370.0 336.7555185339442 L 380.0 323.219491878384 L 390.0 309.2669720949604 L 400.0 294.89795918367355 L 410.0 280.11245314452316 L 420.0 264.9104539775094 L 430.0 249.29196168263226 L 440.0 233.25697625989181 L 450.0 216.80549770928786 L 460.0 199.93752603082055 L 470.0 182.65306122448985 L 480.0 164.95210329029578 L 490.0 146.83465222823833 L 500.0 128.30070803831745 L 510.0 109.35027072053317 L 520.0 89.98334027488548 L 530.0 70.19991670137445 L 540.0 50.0" style="stroke:rgb(100%,0%,0%);stroke-opacity:1.0;stroke-width:2.0" /></g><g class="toyplot-Series"><path d="M 50.0 550.0 L 60.0 549.8958767180342 L 70.0 549.5835068721366 L 80.0 549.0628904623073 L 90.0 548.3340274885464 L 100.0 547.3969179508539 L 110.0 546.2515618492295 L 120.00000000000001 544.8979591836735 L 130.0 543.3361099541858 L 140.0 541.5660141607663 L 150.0 539.5876718034152 L 160.0 537.4010828821324 L 170.0 535.006247396918 L 180.0 532.4031653477717 L 190.00000000000003 529.5918367346939 L 200.0 526.5722615576843 L 210.0 523.344439816743 L 220.0 519.9083715118701 L 230.0 516.2640566430655 L 240.0 512.411495210329 L 250.0 508.350687213661 L 260.0 504.0816326530612 L 270.0 499.60433152852977 L 280.0 494.9187838400667 L 290.0 490.02498958767177 L 300.0 484.92294877134526 L 310.0 479.61266139108704 L 320.0 474.0941274468971 L 330.00000000000006 468.36734693877554 L 340.0 462.43231986672214 L 350.0 456.28904623073726 L 360.0 449.9375260308205 L 370.0 443.37775926697213 L 380.0 436.609745939192 L 390.0 429.6334860474802 L 400.0 422.44897959183675 L 410.0 415.05622657226155 L 420.0 407.4552269887547 L 430.0 399.64598084131615 L 440.0 391.6284881299459 L 450.0 383.40274885464396 L 460.0 374.9687630154103 L 470.0 366.3265306122449 L 480.0 357.47605164514795 L 490.0 348.4173261141192 L 500.0 339.1503540191587 L 510.0 329.67513536026655 L 520.0 319.9916701374427 L 530.0 310.09995835068725 L 540.0 300.0" style="stroke:rgb(100%,0%,0%);stroke-opacity:1.0;stroke-width:2.0" /></g><g class="toyplot-Series"><path d="M 50.0 550.0 L 60.0 549.9305844786894 L 70.0 549.7223379147578 L 80.0 549.3752603082049 L 90.0 548.8893516590309 L 100.0 548.2646119672359 L 110.0 547.5010412328197 L 120.00000000000001 546.5986394557823 L 130.0 545.5574066361239 L 140.0 544.3773427738442 L 150.0 543.0584478689435 L 160.0 541.6007219214216 L 170.0 540.0041649312786 L 180.0 538.2687768985145 L 190.00000000000003 536.3945578231293 L 200.0 534.3815077051229 L 210.0 532.2296265444953 L 220.0 529.9389143412467 L 230.0 527.5093710953769 L 240.0 524.940996806886 L 250.0 522.2337914757741 L 260.0 519.3877551020408 L 270.0 516.4028876856866 L 280.0 513.2791892267111 L 290.0 510.01665972511455 L 300.0 506.61529918089684 L 310.0 503.075107594058 L 320.0 499.3960849645981 L 330.00000000000006 495.578231292517 L 340.0 491.62154657781485 L 350.0 487.5260308204914 L 360.0 483.29168402054705 L 370.0 478.91850617798144 L 380.0 474.40649729279465 L 390.0 469.75565736498686 L 400.0 464.96598639455783 L 410.0 460.03748438150774 L 420.0 454.97015132583647 L 430.0 449.7639872275441 L 440.0 444.4189920866306 L 450.0 438.93516590309594 L 460.0 433.3125086769402 L 470.0 427.5510204081633 L 480.0 421.6507010967652 L 490.0 415.6115507427461 L 500.0 409.43356934610586 L 510.0 403.11675690684444 L 520.0 396.66111342496185 L 530.0 390.06663890045814 L 540.0 383.33333333333337" style="stroke:rgb(100%,0%,0%);stroke-opacity:1.0;stroke-width:2.0" /></g><g class="toyplot-Series"><path d="M 50.0 550.0 L 60.0 549.947938359017 L 70.0 549.7917534360683 L 80.0 549.5314452311536 L 90.0 549.1670137442732 L 100.0 548.6984589754269 L 110.0 548.1257809246148 L 120.00000000000001 547.4489795918369 L 130.0 546.6680549770929 L 140.0 545.7830070803832 L 150.0 544.7938359017077 L 160.0 543.7005414410663 L 170.0 542.503123698459 L 180.0 541.2015826738859 L 190.00000000000003 539.7959183673469 L 200.0 538.2861307788421 L 210.0 536.6722199083715 L 220.0 534.9541857559351 L 230.0 533.1320283215327 L 240.0 531.2057476051646 L 250.0 529.1753436068306 L 260.0 527.0408163265307 L 270.0 524.8021657642648 L 280.0 522.4593919200333 L 290.0 520.0124947938359 L 300.0 517.4614743856727 L 310.0 514.8063306955436 L 320.0 512.0470637234486 L 330.00000000000006 509.18367346938777 L 340.0 506.21615993336115 L 350.0 503.14452311536866 L 360.0 499.9687630154103 L 370.0 496.68887963348607 L 380.0 493.304872969596 L 390.0 489.8167430237401 L 400.0 486.2244897959184 L 410.0 482.5281132861308 L 420.0 478.7276134943774 L 430.0 474.8229904206581 L 440.0 470.8142440649729 L 450.0 466.701374427322 L 460.0 462.48438150770517 L 470.0 458.16326530612247 L 480.0 453.73802582257395 L 490.0 449.2086630570596 L 500.0 444.5751770095793 L 510.0 439.83756768013325 L 520.0 434.9958350687214 L 530.0 430.0499791753436 L 540.0 425.0" style="stroke:rgb(100%,0%,0%);stroke-opacity:1.0;stroke-width:2.0" /></g></g></g><g class="toyplot-coordinates-Axis" id="t6739bc9de7f74fc3b7bc677acd31fd72" transform="translate(50.0,550.0)translate(0,10.0)"><line style="" x1="0" x2="490.0" y1="0" y2="0" /><g><g transform="translate(0.0,6)"><text style="fill:rgb(16.1%,15.3%,14.1%);fill-opacity:1.0;font-family:helvetica;font-size:10.0px;font-weight:normal;stroke:none;vertical-align:baseline;white-space:pre" x="-2.78" y="8.555">0</text></g><g transform="translate(100.0,6)"><text style="fill:rgb(16.1%,15.3%,14.1%);fill-opacity:1.0;font-family:helvetica;font-size:10.0px;font-weight:normal;stroke:none;vertical-align:baseline;white-space:pre" x="-5.56" y="8.555">10</text></g><g transform="translate(200.0,6)"><text style="fill:rgb(16.1%,15.3%,14.1%);fill-opacity:1.0;font-family:helvetica;font-size:10.0px;font-weight:normal;stroke:none;vertical-align:baseline;white-space:pre" x="-5.56" y="8.555">20</text></g><g transform="translate(300.0,6)"><text style="fill:rgb(16.1%,15.3%,14.1%);fill-opacity:1.0;font-family:helvetica;font-size:10.0px;font-weight:normal;stroke:none;vertical-align:baseline;white-space:pre" x="-5.56" y="8.555">30</text></g><g transform="translate(400.0,6)"><text style="fill:rgb(16.1%,15.3%,14.1%);fill-opacity:1.0;font-family:helvetica;font-size:10.0px;font-weight:normal;stroke:none;vertical-align:baseline;white-space:pre" x="-5.56" y="8.555">40</text></g><g transform="translate(500.0,6)"><text style="fill:rgb(16.1%,15.3%,14.1%);fill-opacity:1.0;font-family:helvetica;font-size:10.0px;font-weight:normal;stroke:none;vertical-align:baseline;white-space:pre" x="-5.56" y="8.555">50</text></g></g><g class="toyplot-coordinates-Axis-coordinates" style="visibility:hidden" transform=""><line style="stroke:rgb(43.9%,50.2%,56.5%);stroke-opacity:1.0;stroke-width:1.0" x1="0" x2="0" y1="-3.0" y2="4.5" /><text style="alignment-baseline:alphabetic;fill:rgb(43.9%,50.2%,56.5%);fill-opacity:1.0;font-size:10px;font-weight:normal;stroke:none;text-anchor:middle" x="0" y="-6" /></g></g><g class="toyplot-coordinates-Axis" id="t1750872f6b10499db44ed46536832fc3" transform="translate(50.0,550.0)rotate(-90.0)translate(0,-10.0)"><line style="" x1="0" x2="500.0" y1="0" y2="0" /><g><g transform="translate(0.0,-6)"><text style="fill:rgb(16.1%,15.3%,14.1%);fill-opacity:1.0;font-family:helvetica;font-size:10.0px;font-weight:normal;stroke:none;vertical-align:baseline;white-space:pre" x="-6.95" y="-4.440892098500626e-16">0.0</text></g><g transform="translate(250.0,-6)"><text style="fill:rgb(16.1%,15.3%,14.1%);fill-opacity:1.0;font-family:helvetica;font-size:10.0px;font-weight:normal;stroke:none;vertical-align:baseline;white-space:pre" x="-6.95" y="-4.440892098500626e-16">0.5</text></g><g transform="translate(500.0,-6)"><text style="fill:rgb(16.1%,15.3%,14.1%);fill-opacity:1.0;font-family:helvetica;font-size:10.0px;font-weight:normal;stroke:none;vertical-align:baseline;white-space:pre" x="-6.95" y="-4.440892098500626e-16">1.0</text></g></g><g class="toyplot-coordinates-Axis-coordinates" style="visibility:hidden" transform=""><line style="stroke:rgb(43.9%,50.2%,56.5%);stroke-opacity:1.0;stroke-width:1.0" x1="0" x2="0" y1="3.0" y2="-4.5" /><text style="alignment-baseline:hanging;fill:rgb(43.9%,50.2%,56.5%);fill-opacity:1.0;font-size:10px;font-weight:normal;stroke:none;text-anchor:middle" x="0" y="6" /></g></g></g></svg>