<svg height="600px" id="t92ecc0db5ebc420e8c84e592d1d60c2e" preserveAspectRatio="xMidyMid meet" style="background-color:transparent;fill:rgb(16.1%,15.3%,14.1%);fill-opacity:1.0;font-family:helvetica;font-size:12px;opacity:1.0;stroke:rgb(16.1%,15.3%,14.1%);stroke-opacity:1.0;stroke-width:1.0" viewBox="0 0 600 600" width="600px" xmlns="http://www.w3.org/2000/svg" xmlns:toyplot="http://www.sandia.gov/toyplot"><g class="toyplot-axes-Cartesian" id="tfcba1b75601448d0baa6caf130ae012d"><clipPath id="t5fe7fba6386645839faa39109a86e28a"><rect height="500.0" width="500.0" x="50.0" y="50.0" /></clipPath><g class="toyplot-coordinate-events" clip-path="url(#t5fe7fba6386645839faa39109a86e28a)" style="cursor:crosshair"><rect height="500.0" style="pointer-events:all;visibility:hidden" width="500.0" x="50.0" y="50.0" /><g class="toyplot-mark-FillMagnitudes" id="t136b8219b47d420e9a243d84a4256763" style="stroke:none"><polygon points="60.0,300.0 69.599999999999994,300.09995835068719 79.199999999999989,300.39983340274887 88.799999999999997,300.89962515618492 98.400000000000006,301.59933361099542 108.0,302.49895876718034 117.59999999999999,303.5985006247397 127.20000000000002,304.89795918367349 136.80000000000001,306.39733444398166 146.40000000000001,308.09662640566432 156.0,309.99583506872136 165.59999999999999,312.09496043315283 175.19999999999999,314.3940024989588 184.80000000000001,316.89296126613908 194.40000000000001,319.59183673469391 204.0,322.49062890462312 213.60000000000002,325.58933777592671 223.20000000000002,328.88796334860473 232.80000000000001,332.38650562265724 242.39999999999998,336.08496459808413 252.0,339.98334027488545 261.59999999999997,344.08163265306121 271.19999999999999,348.37984173261145 280.80000000000001,352.87796751353596 290.39999999999998,357.57600999583508 300.0,362.47396917950857 309.60000000000002,367.57184506455644 319.20000000000005,372.86963765097875 328.80000000000001,378.36734693877548 338.39999999999998,384.06497292794666 348.0,389.96251561849226 357.60000000000002,396.0599750104123 367.20000000000005,402.35735110370678 376.80000000000001,408.85464389837568 386.40000000000003,415.55185339441897 396.0,422.44897959183675 405.60000000000002,429.54602249062896 415.20000000000005,436.84298209079549 424.79999999999995,444.33985839233651 434.39999999999998,452.03665139525197 444.0,459.93336109954186 453.59999999999997,468.02998750520624 463.19999999999999,476.32653061224494 472.79999999999995,484.82299042065802 482.39999999999998,493.51936693044559 492.0,502.41566014160765 501.60000000000002,511.51187005414408 511.19999999999999,520.8079966680549 520.79999999999995,530.30403998334043 530.40000000000009,540.0 530.40000000000009,309.59999999999997 520.79999999999995,309.21216159933363 511.19999999999999,308.83231986672223 501.60000000000002,308.46047480216578 492.0,308.09662640566432 482.39999999999998,307.74077467721781 472.79999999999995,307.39291961682636 463.19999999999999,307.05306122448985 453.59999999999997,306.72119950020817 444.0,306.39733444398166 434.39999999999998,306.0814660558101 424.79999999999995,305.77359433569342 415.20000000000005,305.47371928363174 405.60000000000002,305.18184089962512 396.0,304.89795918367349 386.40000000000003,304.62207413577676 376.80000000000001,304.35418575593502 367.20000000000005,304.09429404414823 357.60000000000002,303.84239900041644 348.0,303.5985006247397 338.39999999999998,303.36259891711785 328.80000000000001,303.13469387755106 319.20000000000005,302.91478550603915 309.60000000000002,302.70287380258225 300.0,302.49895876718034 290.39999999999998,302.30304039983338 280.80000000000001,302.11511870054142 271.19999999999999,301.93519366930445 261.59999999999997,301.76326530612249 252.0,301.59933361099542 242.39999999999998,301.4433985839234 232.80000000000001,301.29546022490626 223.20000000000002,301.15551853394413 213.60000000000002,301.02357351103706 204.0,300.89962515618492 194.40000000000001,300.78367346938774 184.80000000000001,300.67571845064555 175.19999999999999,300.57576009995836 165.59999999999999,300.48379841732611 156.0,300.39983340274887 146.40000000000001,300.32386505622662 136.80000000000001,300.25589337775932 127.20000000000002,300.19591836734691 117.59999999999999,300.1439400249896 108.0,300.09995835068719 98.400000000000006,300.06397334443977 88.799999999999997,300.03598500624747 79.199999999999989,300.01599333610994 69.599999999999994,300.00399833402747 60.0,300.0" style="fill:rgb(100%,0%,0%);fill-opacity:1.0;opacity:1.0;stroke:none" /><polygon points="60.0,300.0 69.599999999999994,300.00399833402747 79.199999999999989,300.01599333610994 88.799999999999997,300.03598500624747 98.400000000000006,300.06397334443977 108.0,300.09995835068719 117.59999999999999,300.1439400249896 127.20000000000002,300.19591836734691 136.80000000000001,300.25589337775932 146.40000000000001,300.32386505622662 156.0,300.39983340274887 165.59999999999999,300.48379841732611 175.19999999999999,300.57576009995836 184.80000000000001,300.67571845064555 194.40000000000001,300.78367346938774 204.0,300.89962515618492 213.60000000000002,301.02357351103706 223.20000000000002,301.15551853394413 232.80000000000001,301.29546022490626 242.39999999999998,301.4433985839234 252.0,301.59933361099542 261.59999999999997,301.76326530612249 271.19999999999999,301.93519366930445 280.80000000000001,302.11511870054142 290.39999999999998,302.30304039983338 300.0,302.49895876718034 309.60000000000002,302.70287380258225 319.20000000000005,302.91478550603915 328.80000000000001,303.13469387755106 338.39999999999998,303.36259891711785 348.0,303.5985006247397 357.60000000000002,303.84239900041644 367.20000000000005,304.09429404414823 376.80000000000001,304.35418575593502 386.40000000000003,304.62207413577676 396.0,304.89795918367349 405.60000000000002,305.18184089962512 415.20000000000005,305.47371928363174 424.79999999999995,305.77359433569342 434.39999999999998,306.0814660558101 444.0,306.39733444398166 453.59999999999997,306.72119950020817 463.19999999999999,307.05306122448985 472.79999999999995,307.39291961682636 482.39999999999998,307.74077467721781 492.0,308.09662640566432 501.60000000000002,308.46047480216578 511.19999999999999,308.83231986672223 520.79999999999995,309.21216159933363 530.40000000000009,309.59999999999997 530.40000000000009,194.39999999999998 520.79999999999995,198.66622240733031 511.19999999999999,202.84448146605578 501.60000000000002,206.93477717617654 492.0,210.93710953769261 482.39999999999998,214.85147855060393 472.79999999999995,218.67788421491048 463.19999999999999,222.41632653061228 453.59999999999997,226.06680549770928 444.0,229.6293211162016 434.39999999999998,233.10387338608919 424.79999999999995,236.49046230737193 415.20000000000005,239.78908788004995 405.60000000000002,242.99975010412331 396.0,246.12244897959184 386.40000000000003,249.15718450645562 376.80000000000001,252.10395668471469 367.20000000000005,254.96276551436904 357.60000000000002,257.73361099541853 348.0,260.41649312786336 338.39999999999998,263.01141191170342 328.80000000000001,265.51836734693876 319.20000000000005,267.93735943356933 309.60000000000002,270.26838817159518 300.0,272.5114535610162 290.39999999999998,274.66655560183256 280.80000000000001,276.73369429404414 271.19999999999999,278.71286963765095 261.59999999999997,280.60408163265311 252.0,282.40733027905037 242.39999999999998,284.12261557684292 232.80000000000001,285.74993752603081 223.20000000000002,287.28929612661386 213.60000000000002,288.74069137859226 204.0,290.10412328196588 194.40000000000001,291.37959183673473 184.80000000000001,292.56709704289887 175.19999999999999,293.66663890045817 165.59999999999999,294.67821740941275 156.0,295.60183256976256 146.40000000000001,296.43748438150766 136.80000000000001,297.18517284464804 127.20000000000002,297.84489795918364 117.59999999999999,298.41665972511453 108.0,298.9004581424407 98.400000000000006,299.29629321116204 88.799999999999997,299.6041649312786 79.199999999999989,299.82407330279051 69.599999999999994,299.95601832569764 60.0,300.0" style="fill:rgb(100%,0%,0%);fill-opacity:1.0;opacity:1.0;stroke:none" /><polygon points="60.0,300.0 69.599999999999994,299.95601832569764 79.199999999999989,299.82407330279051 88.799999999999997,299.6041649312786 98.400000000000006,299.29629321116204 108.0,298.9004581424407 117.59999999999999,298.41665972511453 127.20000000000002,297.84489795918364 136.80000000000001,297.18517284464804 146.40000000000001,296.43748438150766 156.0,295.60183256976256 165.59999999999999,294.67821740941275 175.19999999999999,293.66663890045817 184.80000000000001,292.56709704289887 194.40000000000001,291.37959183673473 204.0,290.10412328196588 213.60000000000002,288.74069137859226 223.20000000000002,287.28929612661386 232.80000000000001,285.74993752603081 242.39999999999998,284.12261557684292 252.0,282.40733027905037 261.59999999999997,280.60408163265311 271.19999999999999,278.71286963765095 280.80000000000001,276.73369429404414 290.39999999999998,274.66655560183256 300.0,272.5114535610162 309.60000000000002,270.26838817159518 319.20000000000005,267.93735943356933 328.80000000000001,265.51836734693876 338.39999999999998,263.01141191170342 348.0,260.41649312786336 357.60000000000002,257.73361099541853 367.20000000000005,254.96276551436904 376.80000000000001,252.10395668471469 386.40000000000003,249.15718450645562 396.0,246.12244897959184 405.60000000000002,242.99975010412331 415.20000000000005,239.78908788004995 424.79999999999995,236.49046230737193 434.39999999999998,233.10387338608919 444.0,229.6293211162016 453.59999999999997,226.06680549770928 463.19999999999999,222.41632653061228 472.79999999999995,218.67788421491048 482.39999999999998,214.85147855060393 492.0,210.93710953769261 501.60000000000002,206.93477717617654 511.19999999999999,202.84448146605578 520.79999999999995,198.66622240733031 530.40000000000009,194.39999999999998 530.40000000000009,117.59999999999994 520.79999999999995,124.96892961266138 511.19999999999999,132.18592253227823 501.60000000000002,139.25097875885047 492.0,146.16409829237821 482.39999999999998,152.9252811328613 472.79999999999995,159.53452728029984 463.19999999999999,165.99183673469386 453.59999999999997,172.29720949604331 444.0,178.45064556434818 434.39999999999998,184.45214493960853 424.79999999999995,190.30170762182422 415.20000000000005,195.99933361099545 405.60000000000002,201.54502290712202 396.0,206.9387755102041 386.40000000000003,212.18059142024157 376.80000000000001,217.27047063723452 367.20000000000005,222.20841316118288 357.60000000000002,226.99441899208665 348.0,231.62848812994588 338.39999999999998,236.1106205747605 328.80000000000001,240.44081632653064 319.20000000000005,244.61907538525614 309.60000000000002,248.64539775093712 300.0,252.5197834235735 290.39999999999998,256.24223240316536 280.80000000000001,259.81274468971264 271.19999999999999,263.23132028321533 261.59999999999997,266.49795918367346 252.0,269.61266139108704 242.39999999999998,272.57542690545603 232.80000000000001,275.38625572678052 223.20000000000002,278.04514785506035 213.60000000000002,280.55210329029575 204.0,282.90712203248648 194.40000000000001,285.11020408163262 184.80000000000001,287.16134943773426 175.19999999999999,289.06055810079135 165.59999999999999,290.80783007080385 156.0,292.40316534777179 146.40000000000001,293.84656393169513 136.80000000000001,295.13802582257387 127.20000000000002,296.27755102040811 117.59999999999999,297.26513952519787 108.0,298.1007913369429 98.400000000000006,298.78450645564345 88.799999999999997,299.31628488129945 79.199999999999989,299.69612661391085 69.599999999999994,299.9240316534777 60.0,300.0" style="fill:rgb(100%,0%,0%);fill-opacity:1.0;opacity:1.0;stroke:none" /><polygon points="60.0,300.0 69.599999999999994,299.9240316534777 79.199999999999989,299.69612661391085 88.799999999999997,299.31628488129945 98.400000000000006,298.78450645564345 108.0,298.1007913369429 117.59999999999999,297.26513952519787 127.20000000000002,296.27755102040811 136.80000000000001,295.13802582257387 146.40000000000001,293.84656393169513 156.0,292.40316534777179 165.59999999999999,290.80783007080385 175.19999999999999,289.06055810079135 184.80000000000001,287.16134943773426 194.40000000000001,285.11020408163262 204.0,282.90712203248648 213.60000000000002,280.55210329029575 223.20000000000002,278.04514785506035 232.80000000000001,275.38625572678052 242.39999999999998,272.57542690545603 252.0,269.61266139108704 261.59999999999997,266.49795918367346 271.19999999999999,263.23132028321533 280.80000000000001,259.81274468971264 290.39999999999998,256.24223240316536 300.0,252.5197834235735 309.60000000000002,248.64539775093712 319.20000000000005,244.61907538525614 328.80000000000001,240.44081632653064 338.39999999999998,236.1106205747605 348.0,231.62848812994588 357.60000000000002,226.99441899208665 367.20000000000005,222.20841316118288 376.80000000000001,217.27047063723452 386.40000000000003,212.18059142024157 396.0,206.9387755102041 405.60000000000002,201.54502290712202 415.20000000000005,195.99933361099545 424.79999999999995,190.30170762182422 434.39999999999998,184.45214493960853 444.0,178.45064556434818 453.59999999999997,172.29720949604331 463.19999999999999,165.99183673469386 472.79999999999995,159.53452728029984 482.39999999999998,152.9252811328613 492.0,146.16409829237821 501.60000000000002,139.25097875885047 511.19999999999999,132.18592253227823 520.79999999999995,124.96892961266138 530.40000000000009,117.59999999999994 530.40000000000009,60.0 520.79999999999995,69.695960016659683 511.19999999999999,79.192003331945074 501.60000000000002,88.488129945855889 492.0,97.584339858392326 482.39999999999998,106.48063306955439 472.79999999999995,115.17700957934198 463.19999999999999,123.67346938775512 453.59999999999997,131.97001249479382 444.0,140.06663890045812 434.39999999999998,147.96334860474806 424.79999999999995,155.66014160766346 415.20000000000005,163.15701790920446 405.60000000000002,170.4539775093711 396.0,177.55102040816325 386.40000000000003,184.44814660558097 376.80000000000001,191.14535610162432 367.20000000000005,197.64264889629322 357.60000000000002,203.94002498958764 348.0,210.03748438150771 338.39999999999998,215.93502707205329 328.80000000000001,221.63265306122449 319.20000000000005,227.13036234902131 309.60000000000002,232.42815493544356 300.0,237.52603082049143 290.39999999999998,242.42399000416492 280.80000000000001,247.12203248646395 271.19999999999999,251.6201582673886 261.59999999999997,255.91836734693877 252.0,260.01665972511455 242.39999999999998,263.91503540191587 232.80000000000001,267.61349437734282 223.20000000000002,271.11203665139521 213.60000000000002,274.41066222407329 204.0,277.50937109537693 194.40000000000001,280.40816326530609 184.80000000000001,283.10703873386092 175.19999999999999,285.60599750104126 165.59999999999999,287.90503956684717 156.0,290.00416493127864 146.40000000000001,291.90337359433568 136.80000000000001,293.60266555601834 127.20000000000002,295.10204081632651 117.59999999999999,296.4014993752603 108.0,297.50104123281966 98.400000000000006,298.40066638900458 88.799999999999997,299.10037484381508 79.199999999999989,299.60016659725113 69.599999999999994,299.90004164931281 60.0,300.0" style="fill:rgb(100%,0%,0%);fill-opacity:1.0;opacity:1.0;stroke:none" /></g></g><g class="toyplot-coordinates" style="visibility:hidden"><rect height="14.0" style="fill:rgb(100%,100%,100%);fill-opacity:1.0;opacity:0.75;stroke:none" width="90.0" x="450.0" y="60.0" /><text style="alignment-baseline:middle;font-size:10px;font-weight:normal;stroke:none;text-anchor:middle" x="495.0" y="67.0" /></g><line style="" x1="60.0" x2="530.4000000000001" y1="550.0" y2="550.0" /><g><text style="alignment-baseline:middle;baseline-shift:-80%;font-size:10px;font-weight:normal;stroke:none;text-anchor:middle" x="60.0" y="550.0">0</text><text style="alignment-baseline:middle;baseline-shift:-80%;font-size:10px;font-weight:normal;stroke:none;text-anchor:middle" x="156.0" y="550.0">10</text><text style="alignment-baseline:middle;baseline-shift:-80%;font-size:10px;font-weight:normal;stroke:none;text-anchor:middle" x="252.0" y="550.0">20</text><text style="alignment-baseline:middle;baseline-shift:-80%;font-size:10px;font-weight:normal;stroke:none;text-anchor:middle" x="348.0" y="550.0">30</text><text style="alignment-baseline:middle;baseline-shift:-80%;font-size:10px;font-weight:normal;stroke:none;text-anchor:middle" x="444.0" y="550.0">40</text><text style="alignment-baseline:middle;baseline-shift:-80%;font-size:10px;font-weight:normal;stroke:none;text-anchor:middle" x="540.0" y="550.0">50</text></g><line style="" x1="50.0" x2="50.0" y1="60.0" y2="540.0" /><g><text style="alignment-baseline:middle;baseline-shift:80%;font-size:10px;font-weight:normal;stroke:none;text-anchor:middle" transform="rotate(-90, 50.0, 530.4000000000001)" x="50.0" y="530.4000000000001">-1</text><text style="alignment-baseline:middle;baseline-shift:80%;font-size:10px;font-weight:normal;stroke:none;text-anchor:middle" transform="rotate(-90, 50.0, 300.0)" x="50.0" y="300.0">0</text><text style="alignment-baseline:middle;baseline-shift:80%;font-size:10px;font-weight:normal;stroke:none;text-anchor:middle" transform="rotate(-90, 50.0, 69.59999999999995)" x="50.0" y="69.59999999999995">1</text></g></g></svg>