<svg height="600px" id="t7bcb6d29e3124a0d979687f0b0095080" preserveAspectRatio="xMidYMid meet" style="background-color:transparent;fill:rgb(16.1%,15.3%,14.1%);fill-opacity:1.0;font-family:helvetica;font-size:12px;opacity:1.0;stroke:rgb(16.1%,15.3%,14.1%);stroke-opacity:1.0;stroke-width:1.0" viewBox="0 0 600 600" width="600px" xmlns="http://www.w3.org/2000/svg" xmlns:toyplot="http://www.sandia.gov/toyplot"><g class="toyplot-axes-Cartesian" id="tde01365b40dd4f62a3f6e6541444e490"><clipPath id="tc481541f4ac744689074c2590ac529e7"><rect height="520.0" width="520.0" x="40.0" y="40.0" /></clipPath><g class="toyplot-coordinate-events" clip-path="url(#tc481541f4ac744689074c2590ac529e7)" style="cursor:crosshair"><rect height="500.0" style="pointer-events:all;visibility:hidden" width="500.0" x="50.0" y="50.0" /><g class="toyplot-mark-Plot" id="tec4fa1fe28a04171b63fc1d2d720ba6a" style="fill:none"><g class="toyplot-Series"><path d="M 50.0 550.0 L 60.0 549.79175343606835 L 70.0 549.16701374427316 L 80.0 548.12578092461479 L 90.0 546.66805497709288 L 100.0 544.79383590170767 L 110.0 542.50312369845904 L 120.00000000000001 539.79591836734687 L 130.0 536.67221990837152 L 140.0 533.13202832153274 L 150.0 529.17534360683055 L 160.0 524.80216576426483 L 170.0 520.01249479383591 L 180.0 514.80633069554358 L 190.00000000000003 509.18367346938777 L 200.0 503.14452311536866 L 210.0 496.68887963348607 L 220.0 489.81674302374012 L 230.0 482.5281132861308 L 240.0 474.82299042065807 L 250.0 466.70137442732198 L 260.0 458.16326530612247 L 270.0 449.2086630570596 L 280.0 439.83756768013325 L 290.0 430.04997917534359 L 300.0 419.84589754269052 L 310.0 409.22532278217409 L 320.0 398.18825489379429 L 330.00000000000006 386.73469387755102 L 340.0 374.86463973344439 L 350.0 362.5780924614744 L 360.0 349.87505206164099 L 370.0 336.75551853394421 L 380.0 323.21949187838402 L 390.0 309.26697209496041 L 400.0 294.89795918367355 L 410.0 280.11245314452316 L 420.0 264.91045397750941 L 430.0 249.29196168263226 L 440.0 233.25697625989181 L 450.0 216.80549770928786 L 460.0 199.93752603082055 L 470.0 182.65306122448985 L 480.0 164.95210329029578 L 490.0 146.83465222823833 L 500.0 128.30070803831745 L 510.0 109.35027072053317 L 520.0 89.983340274885478 L 530.0 70.199916701374448 L 540.0 50.0" style="fill:none;stroke:rgb(89.4%,10.2%,11%);stroke-opacity:1.0;stroke-width:2.0" /></g><g class="toyplot-Series"><path d="M 50.0 550.0 L 60.0 549.89587671803417 L 70.0 549.58350687213658 L 80.0 549.06289046230734 L 90.0 548.33402748854644 L 100.0 547.39691795085389 L 110.0 546.25156184922946 L 120.00000000000001 544.89795918367349 L 130.0 543.33610995418576 L 140.0 541.56601416076626 L 150.0 539.58767180341522 L 160.0 537.40108288213241 L 170.0 535.00624739691796 L 180.0 532.40316534777173 L 190.00000000000003 529.59183673469386 L 200.0 526.57226155768433 L 210.0 523.34443981674303 L 220.0 519.90837151187009 L 230.0 516.26405664306549 L 240.0 512.41149521032901 L 250.0 508.35068721366099 L 260.0 504.08163265306121 L 270.0 499.60433152852977 L 280.0 494.91878384006668 L 290.0 490.02498958767177 L 300.0 484.92294877134526 L 310.0 479.61266139108704 L 320.0 474.09412744689712 L 330.00000000000006 468.36734693877554 L 340.0 462.43231986672214 L 350.0 456.28904623073726 L 360.0 449.93752603082049 L 370.0 443.37775926697213 L 380.0 436.60974593919201 L 390.0 429.63348604748018 L 400.0 422.44897959183675 L 410.0 415.05622657226155 L 420.0 407.4552269887547 L 430.0 399.64598084131615 L 440.0 391.62848812994588 L 450.0 383.40274885464396 L 460.0 374.96876301541027 L 470.0 366.32653061224488 L 480.0 357.47605164514795 L 490.0 348.41732611411919 L 500.0 339.15035401915873 L 510.0 329.67513536026655 L 520.0 319.99167013744272 L 530.0 310.09995835068725 L 540.0 300.0" style="fill:none;stroke:rgb(49.8%,43.3%,52.3%);stroke-opacity:1.0;stroke-width:2.0" /></g><g class="toyplot-Series"><path d="M 50.0 550.0 L 60.0 549.93058447868941 L 70.0 549.72233791475776 L 80.0 549.37526030820493 L 90.0 548.88935165903092 L 100.0 548.26461196723585 L 110.0 547.50104123281972 L 120.00000000000001 546.59863945578229 L 130.0 545.55740663612391 L 140.0 544.37734277384425 L 150.0 543.05844786894352 L 160.0 541.60072192142161 L 170.0 540.00416493127864 L 180.0 538.26877689851449 L 190.00000000000003 536.39455782312928 L 200.0 534.38150770512289 L 210.0 532.22962654449532 L 220.0 529.93891434124669 L 230.0 527.50937109537688 L 240.0 524.94099680688601 L 250.0 522.23379147577407 L 260.0 519.38775510204084 L 270.0 516.40288768568655 L 280.0 513.27918922671108 L 290.0 510.01665972511455 L 300.0 506.61529918089684 L 310.0 503.07510759405801 L 320.0 499.39608496459812 L 330.00000000000006 495.57823129251699 L 340.0 491.62154657781485 L 350.0 487.52603082049143 L 360.0 483.29168402054705 L 370.0 478.91850617798144 L 380.0 474.40649729279465 L 390.0 469.75565736498686 L 400.0 464.96598639455783 L 410.0 460.03748438150774 L 420.0 454.97015132583647 L 430.0 449.76398722754408 L 440.0 444.41899208663062 L 450.0 438.93516590309594 L 460.0 433.31250867694018 L 470.0 427.55102040816331 L 480.0 421.6507010967652 L 490.0 415.61155074274609 L 500.0 409.43356934610586 L 510.0 403.11675690684444 L 520.0 396.66111342496185 L 530.0 390.06663890045814 L 540.0 383.33333333333337" style="fill:none;stroke:rgb(88.4%,77.9%,18.6%);stroke-opacity:1.0;stroke-width:2.0" /></g><g class="toyplot-Series"><path d="M 50.0 550.0 L 60.0 549.94793835901703 L 70.0 549.79175343606835 L 80.0 549.53144523115361 L 90.0 549.16701374427316 L 100.0 548.69845897542689 L 110.0 548.12578092461479 L 120.00000000000001 547.44897959183686 L 130.0 546.66805497709288 L 140.0 545.78300708038319 L 150.0 544.79383590170767 L 160.0 543.70054144106632 L 170.0 542.50312369845904 L 180.0 541.20158267388592 L 190.00000000000003 539.79591836734687 L 200.0 538.28613077884211 L 210.0 536.67221990837152 L 220.0 534.9541857559351 L 230.0 533.13202832153274 L 240.0 531.20574760516456 L 250.0 529.17534360683055 L 260.0 527.04081632653072 L 270.0 524.80216576426483 L 280.0 522.45939192003334 L 290.0 520.01249479383591 L 300.0 517.46147438567266 L 310.0 514.80633069554358 L 320.0 512.04706372344856 L 330.00000000000006 509.18367346938777 L 340.0 506.21615993336115 L 350.0 503.14452311536866 L 360.0 499.96876301541027 L 370.0 496.68887963348607 L 380.0 493.30487296959598 L 390.0 489.81674302374012 L 400.0 486.22448979591837 L 410.0 482.5281132861308 L 420.0 478.72761349437741 L 430.0 474.82299042065807 L 440.0 470.81424406497291 L 450.0 466.70137442732198 L 460.0 462.48438150770517 L 470.0 458.16326530612247 L 480.0 453.73802582257395 L 490.0 449.2086630570596 L 500.0 444.57517700957931 L 510.0 439.83756768013325 L 520.0 434.99583506872142 L 530.0 430.04997917534359 L 540.0 425.0" style="fill:none;stroke:rgb(60%,60%,60%);stroke-opacity:1.0;stroke-width:2.0" /></g></g></g><g class="toyplot-coordinates" style="visibility:hidden"><rect height="14.0" style="fill:rgb(100%,100%,100%);fill-opacity:1.0;opacity:0.75;stroke:none" width="90.0" x="450.0" y="60.0" /><text style="alignment-baseline:middle;font-size:10px;font-weight:normal;stroke:none;text-anchor:middle" x="495.0" y="67.0" /></g><g class="toyplot-axes-Axis" id="tae622fa1b9134cb0b2a2c33908cdf7a6" transform="translate(50.0,560.0) rotate(0.0)"><line style="" x1="0" x2="490.0" y1="0" y2="0" /><g><text style="alignment-baseline:middle;baseline-shift:-80%;font-size:10px;font-weight:normal;stroke:none;text-anchor:middle" x="0.0" y="0">0</text><text style="alignment-baseline:middle;baseline-shift:-80%;font-size:10px;font-weight:normal;stroke:none;text-anchor:middle" x="100.0" y="0">10</text><text style="alignment-baseline:middle;baseline-shift:-80%;font-size:10px;font-weight:normal;stroke:none;text-anchor:middle" x="200.0" y="0">20</text><text style="alignment-baseline:middle;baseline-shift:-80%;font-size:10px;font-weight:normal;stroke:none;text-anchor:middle" x="300.0" y="0">30</text><text style="alignment-baseline:middle;baseline-shift:-80%;font-size:10px;font-weight:normal;stroke:none;text-anchor:middle" x="400.0" y="0">40</text><text style="alignment-baseline:middle;baseline-shift:-80%;font-size:10px;font-weight:normal;stroke:none;text-anchor:middle" x="500.0" y="0">50</text></g></g><g class="toyplot-axes-Axis" id="t67b828eb44e6444683b42a9902ea0466" transform="translate(40.0,550.0) rotate(-90.0)"><line style="" x1="0" x2="500.0" y1="0" y2="0" /><g><text style="alignment-baseline:middle;baseline-shift:80%;font-size:10px;font-weight:normal;stroke:none;text-anchor:middle" x="0.0" y="0">0.0</text><text style="alignment-baseline:middle;baseline-shift:80%;font-size:10px;font-weight:normal;stroke:none;text-anchor:middle" x="250.0" y="0">0.5</text><text style="alignment-baseline:middle;baseline-shift:80%;font-size:10px;font-weight:normal;stroke:none;text-anchor:middle" x="500.0" y="0">1.0</text></g></g></g></svg>