<svg height="600px" id="teb6a75f473c8457cac433664aad77fb4" preserveAspectRatio="xMidYMid meet" style="background-color:transparent;fill:rgb(16.1%,15.3%,14.1%);fill-opacity:1.0;font-family:Helvetica;font-size:12px;opacity:1.0;stroke:rgb(16.1%,15.3%,14.1%);stroke-opacity:1.0;stroke-width:1.0" viewBox="0 0 600 600" width="600px" xmlns="http://www.w3.org/2000/svg" xmlns:toyplot="http://www.sandia.gov/toyplot"><g class="toyplot-axes-NumberLine" id="t54e23b662049436d8875c7fa407ec65e"><g class="toyplot-coordinate-events"><g class="toyplot-color-LinearMap" id="t742b059559f343bc827939cfd3200dca" transform="translate(100.0,500.0) rotate(-45.0)"><rect height="10" style="fill:rgb(1.96%,18.8%,38%);fill-opacity:1.0;stroke:none" width="2.2183742154872079" x="0.0" y="-10" /><rect height="10" style="fill:rgb(2.39%,19.7%,39.2%);fill-opacity:1.0;stroke:none" width="2.2183742154872079" x="2.2183742154872079" y="-10" /><rect height="10" style="fill:rgb(2.82%,20.5%,40.3%);fill-opacity:1.0;stroke:none" width="2.2183742154872084" x="4.4367484309744158" y="-10" /><rect height="10" style="fill:rgb(3.25%,21.3%,41.5%);fill-opacity:1.0;stroke:none" width="2.2183742154872075" x="6.6551226464616242" y="-10" /><rect height="10" style="fill:rgb(3.68%,22.1%,42.7%);fill-opacity:1.0;stroke:none" width="2.2183742154872075" x="8.8734968619488317" y="-10" /><rect height="10" style="fill:rgb(4.11%,23%,43.8%);fill-opacity:1.0;stroke:none" width="2.2183742154872093" x="11.091871077436039" y="-10" /><rect height="10" style="fill:rgb(4.54%,23.8%,45%);fill-opacity:1.0;stroke:none" width="2.2183742154872075" x="13.310245292923248" y="-10" /><rect height="10" style="fill:rgb(4.98%,24.6%,46.1%);fill-opacity:1.0;stroke:none" width="2.2183742154872075" x="15.528619508410456" y="-10" /><rect height="10" style="fill:rgb(5.41%,25.5%,47.3%);fill-opacity:1.0;stroke:none" width="2.2183742154872093" x="17.746993723897663" y="-10" /><rect height="10" style="fill:rgb(5.84%,26.3%,48.4%);fill-opacity:1.0;stroke:none" width="2.2183742154872057" x="19.965367939384873" y="-10" /><rect height="10" style="fill:rgb(6.27%,27.1%,49.6%);fill-opacity:1.0;stroke:none" width="2.2183742154872093" x="22.183742154872078" y="-10" /><rect height="10" style="fill:rgb(6.7%,28%,50.7%);fill-opacity:1.0;stroke:none" width="2.2183742154872093" x="24.402116370359288" y="-10" /><rect height="10" style="fill:rgb(7.13%,28.8%,51.9%);fill-opacity:1.0;stroke:none" width="2.2183742154872057" x="26.620490585846497" y="-10" /><rect height="10" style="fill:rgb(7.56%,29.6%,53%);fill-opacity:1.0;stroke:none" width="2.2183742154872093" x="28.838864801333703" y="-10" /><rect height="10" style="fill:rgb(7.99%,30.4%,54.2%);fill-opacity:1.0;stroke:none" width="2.2183742154872057" x="31.057239016820912" y="-10" /><rect height="10" style="fill:rgb(8.42%,31.3%,55.3%);fill-opacity:1.0;stroke:none" width="2.2183742154872093" x="33.275613232308118" y="-10" /><rect height="10" style="fill:rgb(8.85%,32.1%,56.5%);fill-opacity:1.0;stroke:none" width="2.2183742154872093" x="35.493987447795327" y="-10" /><rect height="10" style="fill:rgb(9.28%,32.9%,57.6%);fill-opacity:1.0;stroke:none" width="2.2183742154872093" x="37.712361663282536" y="-10" /><rect height="10" style="fill:rgb(9.71%,33.8%,58.8%);fill-opacity:1.0;stroke:none" width="2.2183742154872093" x="39.930735878769745" y="-10" /><rect height="10" style="fill:rgb(10.1%,34.6%,60%);fill-opacity:1.0;stroke:none" width="2.2183742154872022" x="42.149110094256955" y="-10" /><rect height="10" style="fill:rgb(10.6%,35.4%,61.1%);fill-opacity:1.0;stroke:none" width="2.2183742154872093" x="44.367484309744157" y="-10" /><rect height="10" style="fill:rgb(11%,36.3%,62.3%);fill-opacity:1.0;stroke:none" width="2.2183742154872093" x="46.585858525231366" y="-10" /><rect height="10" style="fill:rgb(11.4%,37.1%,63.4%);fill-opacity:1.0;stroke:none" width="2.2183742154872093" x="48.804232740718575" y="-10" /><rect height="10" style="fill:rgb(11.9%,37.9%,64.6%);fill-opacity:1.0;stroke:none" width="2.2183742154872093" x="51.022606956205784" y="-10" /><rect height="10" style="fill:rgb(12.3%,38.8%,65.7%);fill-opacity:1.0;stroke:none" width="2.2183742154872022" x="53.240981171692994" y="-10" /><rect height="10" style="fill:rgb(12.7%,39.6%,66.9%);fill-opacity:1.0;stroke:none" width="2.2183742154872093" x="55.459355387180196" y="-10" /><rect height="10" style="fill:rgb(13.2%,40.3%,67.6%);fill-opacity:1.0;stroke:none" width="2.2183742154872093" x="57.677729602667405" y="-10" /><rect height="10" style="fill:rgb(13.7%,41%,68%);fill-opacity:1.0;stroke:none" width="2.2183742154872093" x="59.896103818154614" y="-10" /><rect height="10" style="fill:rgb(14.2%,41.7%,68.3%);fill-opacity:1.0;stroke:none" width="2.2183742154872093" x="62.114478033641824" y="-10" /><rect height="10" style="fill:rgb(14.8%,42.4%,68.7%);fill-opacity:1.0;stroke:none" width="2.2183742154872022" x="64.332852249129033" y="-10" /><rect height="10" style="fill:rgb(15.3%,43.1%,69%);fill-opacity:1.0;stroke:none" width="2.2183742154872164" x="66.551226464616235" y="-10" /><rect height="10" style="fill:rgb(15.8%,43.8%,69.4%);fill-opacity:1.0;stroke:none" width="2.2183742154872022" x="68.769600680103451" y="-10" /><rect height="10" style="fill:rgb(16.3%,44.5%,69.8%);fill-opacity:1.0;stroke:none" width="2.2183742154872022" x="70.987974895590654" y="-10" /><rect height="10" style="fill:rgb(16.9%,45.2%,70.1%);fill-opacity:1.0;stroke:none" width="2.2183742154872164" x="73.206349111077856" y="-10" /><rect height="10" style="fill:rgb(17.4%,45.9%,70.5%);fill-opacity:1.0;stroke:none" width="2.2183742154872164" x="75.424723326565072" y="-10" /><rect height="10" style="fill:rgb(17.9%,46.6%,70.8%);fill-opacity:1.0;stroke:none" width="2.2183742154872022" x="77.643097542052288" y="-10" /><rect height="10" style="fill:rgb(18.4%,47.3%,71.2%);fill-opacity:1.0;stroke:none" width="2.2183742154872022" x="79.861471757539491" y="-10" /><rect height="10" style="fill:rgb(19%,48%,71.5%);fill-opacity:1.0;stroke:none" width="2.2183742154872164" x="82.079845973026693" y="-10" /><rect height="10" style="fill:rgb(19.5%,48.7%,71.9%);fill-opacity:1.0;stroke:none" width="2.2183742154872164" x="84.298220188513909" y="-10" /><rect height="10" style="fill:rgb(20%,49.3%,72.2%);fill-opacity:1.0;stroke:none" width="2.2183742154871879" x="86.516594404001125" y="-10" /><rect height="10" style="fill:rgb(20.5%,50%,72.6%);fill-opacity:1.0;stroke:none" width="2.2183742154872022" x="88.734968619488313" y="-10" /><rect height="10" style="fill:rgb(21%,50.7%,72.9%);fill-opacity:1.0;stroke:none" width="2.2183742154872164" x="90.953342834975516" y="-10" /><rect height="10" style="fill:rgb(21.6%,51.4%,73.3%);fill-opacity:1.0;stroke:none" width="2.2183742154872164" x="93.171717050462732" y="-10" /><rect height="10" style="fill:rgb(22.1%,52.1%,73.6%);fill-opacity:1.0;stroke:none" width="2.2183742154872022" x="95.390091265949948" y="-10" /><rect height="10" style="fill:rgb(22.6%,52.8%,74%);fill-opacity:1.0;stroke:none" width="2.2183742154872022" x="97.60846548143715" y="-10" /><rect height="10" style="fill:rgb(23.1%,53.5%,74.3%);fill-opacity:1.0;stroke:none" width="2.2183742154872164" x="99.826839696924353" y="-10" /><rect height="10" style="fill:rgb(23.7%,54.2%,74.7%);fill-opacity:1.0;stroke:none" width="2.2183742154872164" x="102.04521391241157" y="-10" /><rect height="10" style="fill:rgb(24.2%,54.9%,75.1%);fill-opacity:1.0;stroke:none" width="2.2183742154872022" x="104.26358812789879" y="-10" /><rect height="10" style="fill:rgb(24.7%,55.6%,75.4%);fill-opacity:1.0;stroke:none" width="2.2183742154872022" x="106.48196234338599" y="-10" /><rect height="10" style="fill:rgb(25.2%,56.3%,75.8%);fill-opacity:1.0;stroke:none" width="2.2183742154872022" x="108.70033655887319" y="-10" /><rect height="10" style="fill:rgb(25.8%,57%,76.1%);fill-opacity:1.0;stroke:none" width="2.2183742154872164" x="110.91871077436039" y="-10" /><rect height="10" style="fill:rgb(26.3%,57.6%,76.5%);fill-opacity:1.0;stroke:none" width="2.2183742154872022" x="113.13708498984761" y="-10" /><rect height="10" style="fill:rgb(27.5%,58.4%,76.9%);fill-opacity:1.0;stroke:none" width="2.2183742154872022" x="115.35545920533481" y="-10" /><rect height="10" style="fill:rgb(28.7%,59.2%,77.3%);fill-opacity:1.0;stroke:none" width="2.2183742154872164" x="117.57383342082201" y="-10" /><rect height="10" style="fill:rgb(29.9%,60%,77.7%);fill-opacity:1.0;stroke:none" width="2.2183742154872164" x="119.79220763630923" y="-10" /><rect height="10" style="fill:rgb(31.1%,60.7%,78.1%);fill-opacity:1.0;stroke:none" width="2.2183742154872022" x="122.01058185179645" y="-10" /><rect height="10" style="fill:rgb(32.3%,61.5%,78.5%);fill-opacity:1.0;stroke:none" width="2.2183742154872022" x="124.22895606728365" y="-10" /><rect height="10" style="fill:rgb(33.6%,62.3%,79%);fill-opacity:1.0;stroke:none" width="2.2183742154872164" x="126.44733028277085" y="-10" /><rect height="10" style="fill:rgb(34.8%,63%,79.4%);fill-opacity:1.0;stroke:none" width="2.2183742154872164" x="128.66570449825807" y="-10" /><rect height="10" style="fill:rgb(36%,63.8%,79.8%);fill-opacity:1.0;stroke:none" width="2.2183742154871879" x="130.88407871374528" y="-10" /><rect height="10" style="fill:rgb(37.2%,64.6%,80.2%);fill-opacity:1.0;stroke:none" width="2.2183742154872164" x="133.10245292923247" y="-10" /><rect height="10" style="fill:rgb(38.4%,65.3%,80.6%);fill-opacity:1.0;stroke:none" width="2.2183742154872164" x="135.32082714471969" y="-10" /><rect height="10" style="fill:rgb(39.6%,66.1%,81%);fill-opacity:1.0;stroke:none" width="2.2183742154872164" x="137.5392013602069" y="-10" /><rect height="10" style="fill:rgb(40.9%,66.9%,81.5%);fill-opacity:1.0;stroke:none" width="2.2183742154871879" x="139.75757557569412" y="-10" /><rect height="10" style="fill:rgb(42.1%,67.6%,81.9%);fill-opacity:1.0;stroke:none" width="2.2183742154872164" x="141.97594979118131" y="-10" /><rect height="10" style="fill:rgb(43.3%,68.4%,82.3%);fill-opacity:1.0;stroke:none" width="2.2183742154871879" x="144.19432400666852" y="-10" /><rect height="10" style="fill:rgb(44.5%,69.2%,82.7%);fill-opacity:1.0;stroke:none" width="2.2183742154872164" x="146.41269822215571" y="-10" /><rect height="10" style="fill:rgb(45.7%,70%,83.1%);fill-opacity:1.0;stroke:none" width="2.2183742154872164" x="148.63107243764293" y="-10" /><rect height="10" style="fill:rgb(46.9%,70.7%,83.5%);fill-opacity:1.0;stroke:none" width="2.2183742154871879" x="150.84944665313014" y="-10" /><rect height="10" style="fill:rgb(48.1%,71.5%,83.9%);fill-opacity:1.0;stroke:none" width="2.2183742154872448" x="153.06782086861733" y="-10" /><rect height="10" style="fill:rgb(49.4%,72.3%,84.4%);fill-opacity:1.0;stroke:none" width="2.2183742154871879" x="155.28619508410458" y="-10" /><rect height="10" style="fill:rgb(50.6%,73%,84.8%);fill-opacity:1.0;stroke:none" width="2.2183742154872164" x="157.50456929959176" y="-10" /><rect height="10" style="fill:rgb(51.8%,73.8%,85.2%);fill-opacity:1.0;stroke:none" width="2.2183742154871879" x="159.72294351507898" y="-10" /><rect height="10" style="fill:rgb(53%,74.6%,85.6%);fill-opacity:1.0;stroke:none" width="2.2183742154872164" x="161.94131773056617" y="-10" /><rect height="10" style="fill:rgb(54.2%,75.3%,86%);fill-opacity:1.0;stroke:none" width="2.2183742154872164" x="164.15969194605339" y="-10" /><rect height="10" style="fill:rgb(55.4%,76.1%,86.4%);fill-opacity:1.0;stroke:none" width="2.2183742154872164" x="166.3780661615406" y="-10" /><rect height="10" style="fill:rgb(56.6%,76.9%,86.9%);fill-opacity:1.0;stroke:none" width="2.2183742154871879" x="168.59644037702782" y="-10" /><rect height="10" style="fill:rgb(57.7%,77.5%,87.2%);fill-opacity:1.0;stroke:none" width="2.2183742154872448" x="170.81481459251501" y="-10" /><rect height="10" style="fill:rgb(58.7%,78%,87.5%);fill-opacity:1.0;stroke:none" width="2.2183742154871879" x="173.03318880800225" y="-10" /><rect height="10" style="fill:rgb(59.7%,78.5%,87.8%);fill-opacity:1.0;stroke:none" width="2.2183742154871879" x="175.25156302348944" y="-10" /><rect height="10" style="fill:rgb(60.6%,79%,88%);fill-opacity:1.0;stroke:none" width="2.2183742154872164" x="177.46993723897663" y="-10" /><rect height="10" style="fill:rgb(61.6%,79.5%,88.3%);fill-opacity:1.0;stroke:none" width="2.2183742154871879" x="179.68831145446384" y="-10" /><rect height="10" style="fill:rgb(62.6%,80%,88.6%);fill-opacity:1.0;stroke:none" width="2.2183742154872448" x="181.90668566995103" y="-10" /><rect height="10" style="fill:rgb(63.6%,80.5%,88.9%);fill-opacity:1.0;stroke:none" width="2.2183742154871879" x="184.12505988543828" y="-10" /><rect height="10" style="fill:rgb(64.5%,80.9%,89.1%);fill-opacity:1.0;stroke:none" width="2.2183742154872164" x="186.34343410092546" y="-10" /><rect height="10" style="fill:rgb(65.5%,81.4%,89.4%);fill-opacity:1.0;stroke:none" width="2.2183742154872164" x="188.56180831641268" y="-10" /><rect height="10" style="fill:rgb(66.5%,81.9%,89.7%);fill-opacity:1.0;stroke:none" width="2.2183742154872164" x="190.7801825318999" y="-10" /><rect height="10" style="fill:rgb(67.4%,82.4%,90%);fill-opacity:1.0;stroke:none" width="2.2183742154871879" x="192.99855674738711" y="-10" /><rect height="10" style="fill:rgb(68.4%,82.9%,90.2%);fill-opacity:1.0;stroke:none" width="2.2183742154871879" x="195.2169309628743" y="-10" /><rect height="10" style="fill:rgb(69.4%,83.4%,90.5%);fill-opacity:1.0;stroke:none" width="2.2183742154872164" x="197.43530517836149" y="-10" /><rect height="10" style="fill:rgb(70.3%,83.9%,90.8%);fill-opacity:1.0;stroke:none" width="2.2183742154872164" x="199.65367939384871" y="-10" /><rect height="10" style="fill:rgb(71.3%,84.4%,91.1%);fill-opacity:1.0;stroke:none" width="2.2183742154872164" x="201.87205360933592" y="-10" /><rect height="10" style="fill:rgb(72.3%,84.9%,91.3%);fill-opacity:1.0;stroke:none" width="2.2183742154871879" x="204.09042782482314" y="-10" /><rect height="10" style="fill:rgb(73.2%,85.4%,91.6%);fill-opacity:1.0;stroke:none" width="2.2183742154872448" x="206.30880204031033" y="-10" /><rect height="10" style="fill:rgb(74.2%,85.9%,91.9%);fill-opacity:1.0;stroke:none" width="2.2183742154871879" x="208.52717625579757" y="-10" /><rect height="10" style="fill:rgb(75.2%,86.4%,92.2%);fill-opacity:1.0;stroke:none" width="2.2183742154872164" x="210.74555047128476" y="-10" /><rect height="10" style="fill:rgb(76.1%,86.9%,92.5%);fill-opacity:1.0;stroke:none" width="2.2183742154871879" x="212.96392468677197" y="-10" /><rect height="10" style="fill:rgb(77.1%,87.3%,92.7%);fill-opacity:1.0;stroke:none" width="2.2183742154872164" x="215.18229890225916" y="-10" /><rect height="10" style="fill:rgb(78.1%,87.8%,93%);fill-opacity:1.0;stroke:none" width="2.2183742154872164" x="217.40067311774638" y="-10" /><rect height="10" style="fill:rgb(79.1%,88.3%,93.3%);fill-opacity:1.0;stroke:none" width="2.2183742154871879" x="219.6190473332336" y="-10" /><rect height="10" style="fill:rgb(80%,88.8%,93.6%);fill-opacity:1.0;stroke:none" width="2.2183742154872164" x="221.83742154872078" y="-10" /><rect height="10" style="fill:rgb(81%,89.3%,93.8%);fill-opacity:1.0;stroke:none" width="2.2183742154872164" x="224.055795764208" y="-10" /><rect height="10" style="fill:rgb(82%,89.8%,94.1%);fill-opacity:1.0;stroke:none" width="2.2183742154872164" x="226.27416997969522" y="-10" /><rect height="10" style="fill:rgb(82.5%,90.1%,94.2%);fill-opacity:1.0;stroke:none" width="2.2183742154871879" x="228.49254419518243" y="-10" /><rect height="10" style="fill:rgb(83.1%,90.4%,94.3%);fill-opacity:1.0;stroke:none" width="2.2183742154872164" x="230.71091841066962" y="-10" /><rect height="10" style="fill:rgb(83.7%,90.6%,94.4%);fill-opacity:1.0;stroke:none" width="2.2183742154871879" x="232.92929262615684" y="-10" /><rect height="10" style="fill:rgb(84.3%,90.9%,94.5%);fill-opacity:1.0;stroke:none" width="2.2183742154872448" x="235.14766684164402" y="-10" /><rect height="10" style="fill:rgb(84.9%,91.2%,94.7%);fill-opacity:1.0;stroke:none" width="2.2183742154871879" x="237.36604105713127" y="-10" /><rect height="10" style="fill:rgb(85.5%,91.5%,94.8%);fill-opacity:1.0;stroke:none" width="2.2183742154872164" x="239.58441527261846" y="-10" /><rect height="10" style="fill:rgb(86.1%,91.7%,94.9%);fill-opacity:1.0;stroke:none" width="2.2183742154872164" x="241.80278948810567" y="-10" /><rect height="10" style="fill:rgb(86.6%,92%,95%);fill-opacity:1.0;stroke:none" width="2.2183742154872164" x="244.02116370359289" y="-10" /><rect height="10" style="fill:rgb(87.2%,92.3%,95.1%);fill-opacity:1.0;stroke:none" width="2.2183742154871879" x="246.23953791908011" y="-10" /><rect height="10" style="fill:rgb(87.8%,92.6%,95.2%);fill-opacity:1.0;stroke:none" width="2.2183742154871879" x="248.45791213456729" y="-10" /><rect height="10" style="fill:rgb(88.4%,92.8%,95.3%);fill-opacity:1.0;stroke:none" width="2.2183742154872164" x="250.67628635005448" y="-10" /><rect height="10" style="fill:rgb(89%,93.1%,95.4%);fill-opacity:1.0;stroke:none" width="2.2183742154872164" x="252.8946605655417" y="-10" /><rect height="10" style="fill:rgb(89.6%,93.4%,95.5%);fill-opacity:1.0;stroke:none" width="2.2183742154872164" x="255.11303478102892" y="-10" /><rect height="10" style="fill:rgb(90.1%,93.7%,95.6%);fill-opacity:1.0;stroke:none" width="2.2183742154871879" x="257.33140899651613" y="-10" /><rect height="10" style="fill:rgb(90.7%,94%,95.7%);fill-opacity:1.0;stroke:none" width="2.2183742154872448" x="259.54978321200332" y="-10" /><rect height="10" style="fill:rgb(91.3%,94.2%,95.8%);fill-opacity:1.0;stroke:none" width="2.2183742154871879" x="261.76815742749056" y="-10" /><rect height="10" style="fill:rgb(91.9%,94.5%,95.9%);fill-opacity:1.0;stroke:none" width="2.2183742154871879" x="263.98653164297775" y="-10" /><rect height="10" style="fill:rgb(92.5%,94.8%,96.1%);fill-opacity:1.0;stroke:none" width="2.2183742154872448" x="266.20490585846494" y="-10" /><rect height="10" style="fill:rgb(93.1%,95.1%,96.2%);fill-opacity:1.0;stroke:none" width="2.2183742154871879" x="268.42328007395218" y="-10" /><rect height="10" style="fill:rgb(93.6%,95.3%,96.3%);fill-opacity:1.0;stroke:none" width="2.2183742154871879" x="270.64165428943937" y="-10" /><rect height="10" style="fill:rgb(94.2%,95.6%,96.4%);fill-opacity:1.0;stroke:none" width="2.2183742154872448" x="272.86002850492656" y="-10" /><rect height="10" style="fill:rgb(94.8%,95.9%,96.5%);fill-opacity:1.0;stroke:none" width="2.2183742154871879" x="275.07840272041381" y="-10" /><rect height="10" style="fill:rgb(95.4%,96.2%,96.6%);fill-opacity:1.0;stroke:none" width="2.2183742154872448" x="277.29677693590099" y="-10" /><rect height="10" style="fill:rgb(96%,96.4%,96.7%);fill-opacity:1.0;stroke:none" width="2.2183742154871879" x="279.51515115138824" y="-10" /><rect height="10" style="fill:rgb(96.6%,96.7%,96.8%);fill-opacity:1.0;stroke:none" width="2.2183742154871879" x="281.73352536687543" y="-10" /><rect height="10" style="fill:rgb(96.9%,96.6%,96.5%);fill-opacity:1.0;stroke:none" width="2.2183742154871879" x="283.95189958236261" y="-10" /><rect height="10" style="fill:rgb(97%,96.2%,95.8%);fill-opacity:1.0;stroke:none" width="2.2183742154872448" x="286.1702737978498" y="-10" /><rect height="10" style="fill:rgb(97.1%,95.8%,95%);fill-opacity:1.0;stroke:none" width="2.2183742154871879" x="288.38864801333705" y="-10" /><rect height="10" style="fill:rgb(97.2%,95.4%,94.3%);fill-opacity:1.0;stroke:none" width="2.2183742154871879" x="290.60702222882423" y="-10" /><rect height="10" style="fill:rgb(97.3%,94.9%,93.5%);fill-opacity:1.0;stroke:none" width="2.2183742154872448" x="292.82539644431142" y="-10" /><rect height="10" style="fill:rgb(97.4%,94.5%,92.8%);fill-opacity:1.0;stroke:none" width="2.2183742154871879" x="295.04377065979867" y="-10" /><rect height="10" style="fill:rgb(97.5%,94.1%,92.1%);fill-opacity:1.0;stroke:none" width="2.2183742154872448" x="297.26214487528586" y="-10" /><rect height="10" style="fill:rgb(97.6%,93.6%,91.3%);fill-opacity:1.0;stroke:none" width="2.2183742154871879" x="299.4805190907731" y="-10" /><rect height="10" style="fill:rgb(97.6%,93.2%,90.6%);fill-opacity:1.0;stroke:none" width="2.2183742154871879" x="301.69889330626029" y="-10" /><rect height="10" style="fill:rgb(97.7%,92.8%,89.9%);fill-opacity:1.0;stroke:none" width="2.2183742154871879" x="303.91726752174748" y="-10" /><rect height="10" style="fill:rgb(97.8%,92.3%,89.1%);fill-opacity:1.0;stroke:none" width="2.2183742154872448" x="306.13564173723466" y="-10" /><rect height="10" style="fill:rgb(97.9%,91.9%,88.4%);fill-opacity:1.0;stroke:none" width="2.2183742154872448" x="308.35401595272191" y="-10" /><rect height="10" style="fill:rgb(98%,91.5%,87.6%);fill-opacity:1.0;stroke:none" width="2.2183742154871879" x="310.57239016820915" y="-10" /><rect height="10" style="fill:rgb(98.1%,91%,86.9%);fill-opacity:1.0;stroke:none" width="2.2183742154871879" x="312.79076438369634" y="-10" /><rect height="10" style="fill:rgb(98.2%,90.6%,86.2%);fill-opacity:1.0;stroke:none" width="2.2183742154872448" x="315.00913859918353" y="-10" /><rect height="10" style="fill:rgb(98.3%,90.2%,85.4%);fill-opacity:1.0;stroke:none" width="2.2183742154871879" x="317.22751281467077" y="-10" /><rect height="10" style="fill:rgb(98.4%,89.8%,84.7%);fill-opacity:1.0;stroke:none" width="2.2183742154871879" x="319.44588703015796" y="-10" /><rect height="10" style="fill:rgb(98.5%,89.3%,83.9%);fill-opacity:1.0;stroke:none" width="2.2183742154871879" x="321.66426124564515" y="-10" /><rect height="10" style="fill:rgb(98.6%,88.9%,83.2%);fill-opacity:1.0;stroke:none" width="2.2183742154871879" x="323.88263546113234" y="-10" /><rect height="10" style="fill:rgb(98.7%,88.5%,82.5%);fill-opacity:1.0;stroke:none" width="2.2183742154872448" x="326.10100967661953" y="-10" /><rect height="10" style="fill:rgb(98.8%,88%,81.7%);fill-opacity:1.0;stroke:none" width="2.2183742154872448" x="328.31938389210677" y="-10" /><rect height="10" style="fill:rgb(98.8%,87.6%,81%);fill-opacity:1.0;stroke:none" width="2.2183742154871879" x="330.53775810759402" y="-10" /><rect height="10" style="fill:rgb(98.9%,87.2%,80.3%);fill-opacity:1.0;stroke:none" width="2.2183742154871879" x="332.7561323230812" y="-10" /><rect height="10" style="fill:rgb(99%,86.7%,79.5%);fill-opacity:1.0;stroke:none" width="2.2183742154872448" x="334.97450653856839" y="-10" /><rect height="10" style="fill:rgb(99.1%,86.3%,78.8%);fill-opacity:1.0;stroke:none" width="2.2183742154871879" x="337.19288075405564" y="-10" /><rect height="10" style="fill:rgb(99.2%,85.9%,78%);fill-opacity:1.0;stroke:none" width="2.2183742154871879" x="339.41125496954282" y="-10" /><rect height="10" style="fill:rgb(99.1%,85.1%,77%);fill-opacity:1.0;stroke:none" width="2.2183742154871879" x="341.62962918503001" y="-10" /><rect height="10" style="fill:rgb(98.9%,84.2%,75.9%);fill-opacity:1.0;stroke:none" width="2.2183742154873016" x="343.8480034005172" y="-10" /><rect height="10" style="fill:rgb(98.8%,83.4%,74.9%);fill-opacity:1.0;stroke:none" width="2.2183742154871879" x="346.0663776160045" y="-10" /><rect height="10" style="fill:rgb(98.7%,82.6%,73.8%);fill-opacity:1.0;stroke:none" width="2.2183742154871879" x="348.28475183149169" y="-10" /><rect height="10" style="fill:rgb(98.5%,81.7%,72.7%);fill-opacity:1.0;stroke:none" width="2.2183742154871879" x="350.50312604697888" y="-10" /><rect height="10" style="fill:rgb(98.4%,80.9%,71.7%);fill-opacity:1.0;stroke:none" width="2.2183742154871879" x="352.72150026246607" y="-10" /><rect height="10" style="fill:rgb(98.2%,80.1%,70.6%);fill-opacity:1.0;stroke:none" width="2.2183742154872448" x="354.93987447795325" y="-10" /><rect height="10" style="fill:rgb(98.1%,79.2%,69.6%);fill-opacity:1.0;stroke:none" width="2.2183742154871879" x="357.1582486934405" y="-10" /><rect height="10" style="fill:rgb(98%,78.4%,68.5%);fill-opacity:1.0;stroke:none" width="2.2183742154871879" x="359.37662290892769" y="-10" /><rect height="10" style="fill:rgb(97.8%,77.6%,67.4%);fill-opacity:1.0;stroke:none" width="2.2183742154871879" x="361.59499712441487" y="-10" /><rect height="10" style="fill:rgb(97.7%,76.7%,66.4%);fill-opacity:1.0;stroke:none" width="2.2183742154873016" x="363.81337133990206" y="-10" /><rect height="10" style="fill:rgb(97.6%,75.9%,65.3%);fill-opacity:1.0;stroke:none" width="2.2183742154871879" x="366.03174555538936" y="-10" /><rect height="10" style="fill:rgb(97.4%,75.1%,64.2%);fill-opacity:1.0;stroke:none" width="2.2183742154871879" x="368.25011977087655" y="-10" /><rect height="10" style="fill:rgb(97.3%,74.3%,63.2%);fill-opacity:1.0;stroke:none" width="2.2183742154871879" x="370.46849398636374" y="-10" /><rect height="10" style="fill:rgb(97.1%,73.4%,62.1%);fill-opacity:1.0;stroke:none" width="2.2183742154871879" x="372.68686820185093" y="-10" /><rect height="10" style="fill:rgb(97%,72.6%,61.1%);fill-opacity:1.0;stroke:none" width="2.2183742154872448" x="374.90524241733812" y="-10" /><rect height="10" style="fill:rgb(96.9%,71.8%,60%);fill-opacity:1.0;stroke:none" width="2.2183742154871879" x="377.12361663282536" y="-10" /><rect height="10" style="fill:rgb(96.7%,70.9%,58.9%);fill-opacity:1.0;stroke:none" width="2.2183742154872448" x="379.34199084831255" y="-10" /><rect height="10" style="fill:rgb(96.6%,70.1%,57.9%);fill-opacity:1.0;stroke:none" width="2.2183742154871879" x="381.56036506379979" y="-10" /><rect height="10" style="fill:rgb(96.4%,69.3%,56.8%);fill-opacity:1.0;stroke:none" width="2.2183742154872448" x="383.77873927928698" y="-10" /><rect height="10" style="fill:rgb(96.3%,68.4%,55.8%);fill-opacity:1.0;stroke:none" width="2.2183742154871879" x="385.99711349477423" y="-10" /><rect height="10" style="fill:rgb(96.2%,67.6%,54.7%);fill-opacity:1.0;stroke:none" width="2.2183742154871879" x="388.21548771026141" y="-10" /><rect height="10" style="fill:rgb(96%,66.8%,53.6%);fill-opacity:1.0;stroke:none" width="2.2183742154871879" x="390.4338619257486" y="-10" /><rect height="10" style="fill:rgb(95.9%,66%,52.6%);fill-opacity:1.0;stroke:none" width="2.2183742154871879" x="392.65223614123579" y="-10" /><rect height="10" style="fill:rgb(95.8%,65.1%,51.5%);fill-opacity:1.0;stroke:none" width="2.2183742154872448" x="394.87061035672298" y="-10" /><rect height="10" style="fill:rgb(95.5%,64.2%,50.6%);fill-opacity:1.0;stroke:none" width="2.2183742154871879" x="397.08898457221022" y="-10" /><rect height="10" style="fill:rgb(95%,63.1%,49.8%);fill-opacity:1.0;stroke:none" width="2.2183742154872448" x="399.30735878769741" y="-10" /><rect height="10" style="fill:rgb(94.5%,62.1%,48.9%);fill-opacity:1.0;stroke:none" width="2.2183742154871879" x="401.52573300318465" y="-10" /><rect height="10" style="fill:rgb(94.1%,61%,48.1%);fill-opacity:1.0;stroke:none" width="2.2183742154872448" x="403.74410721867184" y="-10" /><rect height="10" style="fill:rgb(93.6%,59.9%,47.3%);fill-opacity:1.0;stroke:none" width="2.2183742154871879" x="405.96248143415909" y="-10" /><rect height="10" style="fill:rgb(93.1%,58.9%,46.5%);fill-opacity:1.0;stroke:none" width="2.2183742154871879" x="408.18085564964628" y="-10" /><rect height="10" style="fill:rgb(92.7%,57.8%,45.7%);fill-opacity:1.0;stroke:none" width="2.2183742154871879" x="410.39922986513346" y="-10" /><rect height="10" style="fill:rgb(92.2%,56.7%,44.9%);fill-opacity:1.0;stroke:none" width="2.2183742154871879" x="412.61760408062065" y="-10" /><rect height="10" style="fill:rgb(91.8%,55.7%,44.1%);fill-opacity:1.0;stroke:none" width="2.2183742154873016" x="414.83597829610784" y="-10" /><rect height="10" style="fill:rgb(91.3%,54.6%,43.2%);fill-opacity:1.0;stroke:none" width="2.2183742154871879" x="417.05435251159514" y="-10" /><rect height="10" style="fill:rgb(90.8%,53.6%,42.4%);fill-opacity:1.0;stroke:none" width="2.2183742154871879" x="419.27272672708233" y="-10" /><rect height="10" style="fill:rgb(90.4%,52.5%,41.6%);fill-opacity:1.0;stroke:none" width="2.2183742154871879" x="421.49110094256952" y="-10" /><rect height="10" style="fill:rgb(89.9%,51.4%,40.8%);fill-opacity:1.0;stroke:none" width="2.2183742154872448" x="423.7094751580567" y="-10" /><rect height="10" style="fill:rgb(89.5%,50.4%,40%);fill-opacity:1.0;stroke:none" width="2.2183742154871879" x="425.92784937354395" y="-10" /><rect height="10" style="fill:rgb(89%,49.3%,39.2%);fill-opacity:1.0;stroke:none" width="2.2183742154871879" x="428.14622358903114" y="-10" /><rect height="10" style="fill:rgb(88.5%,48.3%,38.3%);fill-opacity:1.0;stroke:none" width="2.2183742154871879" x="430.36459780451833" y="-10" /><rect height="10" style="fill:rgb(88.1%,47.2%,37.5%);fill-opacity:1.0;stroke:none" width="2.2183742154872448" x="432.58297202000551" y="-10" /><rect height="10" style="fill:rgb(87.6%,46.1%,36.7%);fill-opacity:1.0;stroke:none" width="2.2183742154872448" x="434.80134623549276" y="-10" /><rect height="10" style="fill:rgb(87.2%,45.1%,35.9%);fill-opacity:1.0;stroke:none" width="2.2183742154871879" x="437.01972045098" y="-10" /><rect height="10" style="fill:rgb(86.7%,44%,35.1%);fill-opacity:1.0;stroke:none" width="2.2183742154871879" x="439.23809466646719" y="-10" /><rect height="10" style="fill:rgb(86.2%,43%,34.3%);fill-opacity:1.0;stroke:none" width="2.2183742154871879" x="441.45646888195438" y="-10" /><rect height="10" style="fill:rgb(85.8%,41.9%,33.5%);fill-opacity:1.0;stroke:none" width="2.2183742154872448" x="443.67484309744157" y="-10" /><rect height="10" style="fill:rgb(85.3%,40.8%,32.6%);fill-opacity:1.0;stroke:none" width="2.2183742154871879" x="445.89321731292881" y="-10" /><rect height="10" style="fill:rgb(84.8%,39.8%,31.8%);fill-opacity:1.0;stroke:none" width="2.2183742154871879" x="448.111591528416" y="-10" /><rect height="10" style="fill:rgb(84.4%,38.7%,31%);fill-opacity:1.0;stroke:none" width="2.2183742154872448" x="450.32996574390319" y="-10" /><rect height="10" style="fill:rgb(83.9%,37.6%,30.2%);fill-opacity:1.0;stroke:none" width="2.2183742154872448" x="452.54833995939043" y="-10" /><rect height="10" style="fill:rgb(83.4%,36.5%,29.7%);fill-opacity:1.0;stroke:none" width="2.2183742154871879" x="454.76671417487768" y="-10" /><rect height="10" style="fill:rgb(82.8%,35.4%,29.2%);fill-opacity:1.0;stroke:none" width="2.2183742154871879" x="456.98508839036487" y="-10" /><rect height="10" style="fill:rgb(82.3%,34.3%,28.6%);fill-opacity:1.0;stroke:none" width="2.2183742154871879" x="459.20346260585205" y="-10" /><rect height="10" style="fill:rgb(81.7%,33.2%,28.1%);fill-opacity:1.0;stroke:none" width="2.2183742154872448" x="461.42183682133924" y="-10" /><rect height="10" style="fill:rgb(81.2%,32.1%,27.6%);fill-opacity:1.0;stroke:none" width="2.2183742154871879" x="463.64021103682649" y="-10" /><rect height="10" style="fill:rgb(80.6%,31%,27.1%);fill-opacity:1.0;stroke:none" width="2.2183742154871879" x="465.85858525231367" y="-10" /><rect height="10" style="fill:rgb(80%,29.9%,26.5%);fill-opacity:1.0;stroke:none" width="2.2183742154871879" x="468.07695946780086" y="-10" /><rect height="10" style="fill:rgb(79.5%,28.8%,26%);fill-opacity:1.0;stroke:none" width="2.2183742154872448" x="470.29533368328805" y="-10" /><rect height="10" style="fill:rgb(78.9%,27.7%,25.5%);fill-opacity:1.0;stroke:none" width="2.2183742154872448" x="472.51370789877529" y="-10" /><rect height="10" style="fill:rgb(78.4%,26.6%,25%);fill-opacity:1.0;stroke:none" width="2.2183742154871879" x="474.73208211426254" y="-10" /><rect height="10" style="fill:rgb(77.8%,25.5%,24.4%);fill-opacity:1.0;stroke:none" width="2.2183742154871879" x="476.95045632974973" y="-10" /><rect height="10" style="fill:rgb(77.3%,24.4%,23.9%);fill-opacity:1.0;stroke:none" width="2.2183742154871879" x="479.16883054523691" y="-10" /><rect height="10" style="fill:rgb(76.7%,23.3%,23.4%);fill-opacity:1.0;stroke:none" width="2.2183742154872448" x="481.3872047607241" y="-10" /><rect height="10" style="fill:rgb(76.2%,22.1%,22.9%);fill-opacity:1.0;stroke:none" width="2.2183742154871879" x="483.60557897621135" y="-10" /><rect height="10" style="fill:rgb(75.6%,21%,22.4%);fill-opacity:1.0;stroke:none" width="2.2183742154872448" x="485.82395319169854" y="-10" /><rect height="10" style="fill:rgb(75.1%,19.9%,21.8%);fill-opacity:1.0;stroke:none" width="2.2183742154871879" x="488.04232740718578" y="-10" /><rect height="10" style="fill:rgb(74.5%,18.8%,21.3%);fill-opacity:1.0;stroke:none" width="2.2183742154872448" x="490.26070162267297" y="-10" /><rect height="10" style="fill:rgb(74%,17.7%,20.8%);fill-opacity:1.0;stroke:none" width="2.2183742154871879" x="492.47907583816021" y="-10" /><rect height="10" style="fill:rgb(73.4%,16.6%,20.3%);fill-opacity:1.0;stroke:none" width="2.2183742154871879" x="494.6974500536474" y="-10" /><rect height="10" style="fill:rgb(72.8%,15.5%,19.7%);fill-opacity:1.0;stroke:none" width="2.2183742154871879" x="496.91582426913459" y="-10" /><rect height="10" style="fill:rgb(72.3%,14.4%,19.2%);fill-opacity:1.0;stroke:none" width="2.2183742154871879" x="499.13419848462178" y="-10" /><rect height="10" style="fill:rgb(71.7%,13.3%,18.7%);fill-opacity:1.0;stroke:none" width="2.2183742154872448" x="501.35257270010896" y="-10" /><rect height="10" style="fill:rgb(71.2%,12.2%,18.2%);fill-opacity:1.0;stroke:none" width="2.2183742154871879" x="503.57094691559621" y="-10" /><rect height="10" style="fill:rgb(70.6%,11.1%,17.6%);fill-opacity:1.0;stroke:none" width="2.2183742154872448" x="505.7893211310834" y="-10" /><rect height="10" style="fill:rgb(70.1%,9.97%,17.1%);fill-opacity:1.0;stroke:none" width="2.2183742154871879" x="508.00769534657064" y="-10" /><rect height="10" style="fill:rgb(69.2%,9.23%,16.8%);fill-opacity:1.0;stroke:none" width="2.2183742154872448" x="510.22606956205783" y="-10" /><rect height="10" style="fill:rgb(68.1%,8.86%,16.6%);fill-opacity:1.0;stroke:none" width="2.2183742154871879" x="512.44444377754508" y="-10" /><rect height="10" style="fill:rgb(66.9%,8.49%,16.4%);fill-opacity:1.0;stroke:none" width="2.2183742154871879" x="514.66281799303226" y="-10" /><rect height="10" style="fill:rgb(65.8%,8.12%,16.2%);fill-opacity:1.0;stroke:none" width="2.2183742154871879" x="516.88119220851945" y="-10" /><rect height="10" style="fill:rgb(64.6%,7.75%,16%);fill-opacity:1.0;stroke:none" width="2.2183742154871879" x="519.09956642400664" y="-10" /><rect height="10" style="fill:rgb(63.5%,7.38%,15.8%);fill-opacity:1.0;stroke:none" width="2.2183742154873016" x="521.31794063949383" y="-10" /><rect height="10" style="fill:rgb(62.3%,7.01%,15.7%);fill-opacity:1.0;stroke:none" width="2.2183742154871879" x="523.53631485498113" y="-10" /><rect height="10" style="fill:rgb(61.2%,6.64%,15.5%);fill-opacity:1.0;stroke:none" width="2.2183742154871879" x="525.75468907046832" y="-10" /><rect height="10" style="fill:rgb(60%,6.27%,15.3%);fill-opacity:1.0;stroke:none" width="2.2183742154871879" x="527.9730632859555" y="-10" /><rect height="10" style="fill:rgb(58.8%,5.91%,15.1%);fill-opacity:1.0;stroke:none" width="2.2183742154871879" x="530.19143750144269" y="-10" /><rect height="10" style="fill:rgb(57.7%,5.54%,14.9%);fill-opacity:1.0;stroke:none" width="2.2183742154871879" x="532.40981171692988" y="-10" /><rect height="10" style="fill:rgb(56.5%,5.17%,14.7%);fill-opacity:1.0;stroke:none" width="2.2183742154873016" x="534.62818593241707" y="-10" /><rect height="10" style="fill:rgb(55.4%,4.8%,14.6%);fill-opacity:1.0;stroke:none" width="2.2183742154871879" x="536.84656014790437" y="-10" /><rect height="10" style="fill:rgb(54.2%,4.43%,14.4%);fill-opacity:1.0;stroke:none" width="2.2183742154871879" x="539.06493436339156" y="-10" /><rect height="10" style="fill:rgb(53.1%,4.06%,14.2%);fill-opacity:1.0;stroke:none" width="2.2183742154871879" x="541.28330857887875" y="-10" /><rect height="10" style="fill:rgb(51.9%,3.69%,14%);fill-opacity:1.0;stroke:none" width="2.2183742154871879" x="543.50168279436593" y="-10" /><rect height="10" style="fill:rgb(50.8%,3.32%,13.8%);fill-opacity:1.0;stroke:none" width="2.2183742154873016" x="545.72005700985312" y="-10" /><rect height="10" style="fill:rgb(49.6%,2.95%,13.6%);fill-opacity:1.0;stroke:none" width="2.2183742154871879" x="547.93843122534042" y="-10" /><rect height="10" style="fill:rgb(48.5%,2.58%,13.4%);fill-opacity:1.0;stroke:none" width="2.2183742154871879" x="550.15680544082761" y="-10" /><rect height="10" style="fill:rgb(47.3%,2.21%,13.3%);fill-opacity:1.0;stroke:none" width="2.2183742154871879" x="552.3751796563148" y="-10" /><rect height="10" style="fill:rgb(46.2%,1.85%,13.1%);fill-opacity:1.0;stroke:none" width="2.2183742154871879" x="554.59355387180199" y="-10" /><rect height="10" style="fill:rgb(45%,1.48%,12.9%);fill-opacity:1.0;stroke:none" width="2.2183742154873016" x="556.81192808728917" y="-10" /><rect height="10" style="fill:rgb(43.9%,1.11%,12.7%);fill-opacity:1.0;stroke:none" width="2.2183742154871879" x="559.03030230277648" y="-10" /><rect height="10" style="fill:rgb(42.7%,0.738%,12.5%);fill-opacity:1.0;stroke:none" width="2.2183742154871879" x="561.24867651826366" y="-10" /><rect height="10" style="fill:rgb(41.5%,0.369%,12.3%);fill-opacity:1.0;stroke:none" width="2.2183742154871879" x="563.46705073375085" y="-10" /></g></g><g class="toyplot-axes-Axis" id="t8575b1444f5947b0993fb86720087dc9" transform="translate(100.0,500.0) rotate(-45.0) translate(0,5)"><line style="" x1="0" x2="565.68542494923804" y1="0" y2="0" /><g><text style="alignment-baseline:middle;baseline-shift:-100%;font-size:10px;font-weight:normal;stroke:none;text-anchor:middle" transform="translate(0.0,0) rotate(0)" x="0" y="0">0.0</text><text style="alignment-baseline:middle;baseline-shift:-100%;font-size:10px;font-weight:normal;stroke:none;text-anchor:middle" transform="translate(282.842712474619,0) rotate(0)" x="0" y="0">0.5</text><text style="alignment-baseline:middle;baseline-shift:-100%;font-size:10px;font-weight:normal;stroke:none;text-anchor:middle" transform="translate(565.685424949238,0) rotate(0)" x="0" y="0">1.0</text></g></g></g></svg>