<svg height="600px" id="t82f46c980b874667b3771efddee04b3d" preserveAspectRatio="xMidYMid meet" style="background-color:transparent;fill:rgb(16.1%,15.3%,14.1%);fill-opacity:1.0;font-family:helvetica;font-size:12px;opacity:1.0;stroke:rgb(16.1%,15.3%,14.1%);stroke-opacity:1.0;stroke-width:1.0" viewBox="0 0 600 600" width="600px" xmlns="http://www.w3.org/2000/svg" xmlns:toyplot="http://www.sandia.gov/toyplot"><g class="toyplot-axes-Cartesian" id="tf16a7b201cef4d6cbe4a63ddadd45b61"><clipPath id="tc6cbaba5ec8b43cf9a7b42b38ee94a0d"><rect height="520.0" width="520.0" x="40.0" y="40.0" /></clipPath><g class="toyplot-coordinate-events" clip-path="url(#tc6cbaba5ec8b43cf9a7b42b38ee94a0d)" style="cursor:crosshair"><rect height="520.0" style="pointer-events:all;visibility:hidden" width="520.0" x="40.0" y="40.0" /><g class="toyplot-mark-FillMagnitudes" id="tff3af6ef7d454747b76683b7c593c543" style="stroke:none"><polygon points="50.0,300.0 60.0,300.10412328196583 70.0,300.41649312786342 80.0,300.93710953769255 90.0,301.66597251145356 100.0,302.60308204914617 110.0,303.74843815077054 120.00000000000001,305.10204081632656 130.0,306.66389004581424 140.0,308.43398583923363 150.0,310.41232819658478 160.0,312.59891711786753 170.0,314.99375260308204 180.0,317.59683465222827 190.00000000000003,320.40816326530614 200.0,323.42773844231573 210.0,326.65556018325702 220.0,330.09162848812997 230.0,333.73594335693468 240.0,337.58850478967099 250.0,341.64931278633901 260.0,345.91836734693879 270.0,350.39566847147029 280.0,355.08121615993332 290.0,359.97501041232823 300.0,365.07705122865474 310.0,370.38733860891296 320.0,375.90587255310288 330.00000000000006,381.63265306122446 340.0,387.5676801332778 350.0,393.71095376926274 360.0,400.06247396917951 370.0,406.62224073302787 380.0,413.39025406080799 390.0,420.36651395251982 400.0,427.55102040816325 410.0,434.94377342773845 420.0,442.5447730112453 430.0,450.35401915868391 440.0,458.37151187005418 450.0,466.59725114535615 460.0,475.03123698458978 470.0,483.67346938775512 480.0,492.52394835485211 490.0,501.58267388588081 500.0,510.84964598084127 510.0,520.32486463973351 520.0,530.00832986255716 530.0,539.90004164931281 540.0,550.0 540.0,309.99999999999994 530.0,309.59600166597255 520.0,309.20033319450232 510.0,308.81299458558931 500.0,308.43398583923363 490.0,308.06330695543522 480.0,307.70095793419415 470.0,307.34693877551024 460.0,307.00124947938349 450.0,306.66389004581424 440.0,306.3348604748021 430.0,306.01416076634729 420.0,305.70179092044975 410.0,305.39775093710949 400.0,305.10204081632656 390.0,304.81466055810074 380.0,304.53561016243231 370.0,304.26488962932109 360.0,304.00249895876715 350.0,303.74843815077054 340.0,303.50270720533109 330.00000000000006,303.26530612244903 320.0,303.03623490212408 310.0,302.81549354435651 300.0,302.60308204914617 290.0,302.3990004164931 280.0,302.2032486463973 270.0,302.01582673885883 260.0,301.83673469387759 250.0,301.66597251145356 240.0,301.50354019158686 230.0,301.34943773427739 220.0,301.20366513952524 210.0,301.0662224073302 200.0,300.93710953769255 190.00000000000003,300.81632653061229 180.0,300.70387338608913 170.0,300.59975010412325 160.0,300.50395668471469 150.0,300.41649312786342 140.0,300.33735943356942 130.0,300.26655560183258 120.00000000000001,300.20408163265307 110.0,300.14993752603084 100.0,300.10412328196583 90.0,300.06663890045809 80.0,300.0374843815078 70.0,300.01665972511455 60.0,300.00416493127864 50.0,300.0" style="fill:rgb(3.14%,18.8%,42%);fill-opacity:1.0;opacity:1.0;stroke:none" /><polygon points="50.0,300.0 60.0,300.00416493127864 70.0,300.01665972511455 80.0,300.0374843815078 90.0,300.06663890045809 100.0,300.10412328196583 110.0,300.14993752603084 120.00000000000001,300.20408163265307 130.0,300.26655560183258 140.0,300.33735943356942 150.0,300.41649312786342 160.0,300.50395668471469 170.0,300.59975010412325 180.0,300.70387338608913 190.00000000000003,300.81632653061229 200.0,300.93710953769255 210.0,301.0662224073302 220.0,301.20366513952524 230.0,301.34943773427739 240.0,301.50354019158686 250.0,301.66597251145356 260.0,301.83673469387759 270.0,302.01582673885883 280.0,302.2032486463973 290.0,302.3990004164931 300.0,302.60308204914617 310.0,302.81549354435651 320.0,303.03623490212408 330.00000000000006,303.26530612244903 340.0,303.50270720533109 350.0,303.74843815077054 360.0,304.00249895876715 370.0,304.26488962932109 380.0,304.53561016243231 390.0,304.81466055810074 400.0,305.10204081632656 410.0,305.39775093710949 420.0,305.70179092044975 430.0,306.01416076634729 440.0,306.3348604748021 450.0,306.66389004581424 460.0,307.00124947938349 470.0,307.34693877551024 480.0,307.70095793419415 490.0,308.06330695543522 500.0,308.43398583923363 510.0,308.81299458558931 520.0,309.20033319450232 530.0,309.59600166597255 540.0,309.99999999999994 540.0,189.99999999999994 530.0,194.44398167430239 520.0,198.79633486047479 510.0,203.05705955851724 500.0,207.22615576842981 490.0,211.30362349021243 480.0,215.28946272386509 470.0,219.18367346938777 460.0,222.98625572678051 450.0,226.69720949604334 440.0,230.31653477717623 430.0,233.84423157017909 420.0,237.28029987505201 410.0,240.6247396917951 400.0,243.87755102040816 390.0,247.03873386089126 380.0,250.10828821324444 370.0,253.08621407746773 360.0,255.972511453561 350.0,258.76718034152435 340.0,261.47022074135776 330.00000000000006,264.08163265306121 320.0,266.60141607663473 310.0,269.02957101207829 300.0,271.36609745939188 290.0,273.61099541857561 280.0,275.76426488962932 270.0,277.82590587255305 260.0,279.79591836734699 250.0,281.67430237401084 240.0,283.46105789254472 230.0,285.15618492294874 220.0,286.75968346522279 210.0,288.27155351936688 200.0,289.69179508538116 190.00000000000003,291.02040816326536 180.0,292.25739275301959 170.0,293.4027488546439 160.0,294.45647646813831 150.0,295.41857559350274 140.0,296.2890462307372 130.0,297.06788837984175 120.00000000000001,297.75510204081633 110.0,298.35068721366099 100.0,298.85464389837568 90.0,299.26697209496035 80.0,299.58767180341522 70.0,299.81674302374012 60.0,299.95418575593499 50.0,300.0" style="fill:rgb(96.9%,98.4%,100%);fill-opacity:1.0;opacity:1.0;stroke:none" /><polygon points="50.0,300.0 60.0,299.95418575593499 70.0,299.81674302374012 80.0,299.58767180341522 90.0,299.26697209496035 100.0,298.85464389837568 110.0,298.35068721366099 120.00000000000001,297.75510204081633 130.0,297.06788837984175 140.0,296.2890462307372 150.0,295.41857559350274 160.0,294.45647646813831 170.0,293.4027488546439 180.0,292.25739275301959 190.00000000000003,291.02040816326536 200.0,289.69179508538116 210.0,288.27155351936688 220.0,286.75968346522279 230.0,285.15618492294874 240.0,283.46105789254472 250.0,281.67430237401084 260.0,279.79591836734699 270.0,277.82590587255305 280.0,275.76426488962932 290.0,273.61099541857561 300.0,271.36609745939188 310.0,269.02957101207829 320.0,266.60141607663473 330.00000000000006,264.08163265306121 340.0,261.47022074135776 350.0,258.76718034152435 360.0,255.972511453561 370.0,253.08621407746773 380.0,250.10828821324444 390.0,247.03873386089126 400.0,243.87755102040816 410.0,240.6247396917951 420.0,237.28029987505201 430.0,233.84423157017909 440.0,230.31653477717623 450.0,226.69720949604334 460.0,222.98625572678051 470.0,219.18367346938777 480.0,215.28946272386509 490.0,211.30362349021243 500.0,207.22615576842981 510.0,203.05705955851724 520.0,198.79633486047479 530.0,194.44398167430239 540.0,189.99999999999994 540.0,109.99999999999994 530.0,117.6759683465223 520.0,125.19366930445648 510.0,132.55310287380257 500.0,139.75426905456064 490.0,146.79716784673053 480.0,153.68179925031234 470.0,160.40816326530611 460.0,166.97625989171181 450.0,173.38608912952935 440.0,179.6376509787589 430.0,185.73094543940024 420.0,191.66597251145356 410.0,197.44273219491876 400.0,203.0612244897959 390.0,208.52144939608496 380.0,213.82340691378593 370.0,218.96709704289879 360.0,223.95251978342355 350.0,228.77967513536032 340.0,233.44856309870883 330.00000000000006,237.9591836734694 320.0,242.31153685964179 310.0,246.50562265722616 300.0,250.5414410662224 290.0,254.41899208663057 280.0,258.13827571845064 270.0,261.6992919616826 260.0,265.10204081632651 250.0,268.34652228238235 240.0,271.43273635985003 230.0,274.3606830487297 220.0,277.1303623490212 210.0,279.74177426072475 200.0,282.19491878384008 190.00000000000003,284.48979591836729 180.0,286.62640566430656 170.0,288.60474802165766 160.0,290.42482299042064 150.0,292.08663057059562 140.0,293.59017076218242 130.0,294.93544356518117 120.00000000000001,296.12244897959181 110.0,297.15118700541444 100.0,298.0216576426489 90.0,298.73386089129525 80.0,299.28779675135354 70.0,299.68346522282383 60.0,299.92086630570594 50.0,300.0" style="fill:rgb(67.2%,81.4%,90.1%);fill-opacity:1.0;opacity:1.0;stroke:none" /><polygon points="50.0,300.0 60.0,299.92086630570594 70.0,299.68346522282383 80.0,299.28779675135354 90.0,298.73386089129525 100.0,298.0216576426489 110.0,297.15118700541444 120.00000000000001,296.12244897959181 130.0,294.93544356518117 140.0,293.59017076218242 150.0,292.08663057059562 160.0,290.42482299042064 170.0,288.60474802165766 180.0,286.62640566430656 190.00000000000003,284.48979591836729 200.0,282.19491878384008 210.0,279.74177426072475 220.0,277.1303623490212 230.0,274.3606830487297 240.0,271.43273635985003 250.0,268.34652228238235 260.0,265.10204081632651 270.0,261.6992919616826 280.0,258.13827571845064 290.0,254.41899208663057 300.0,250.5414410662224 310.0,246.50562265722616 320.0,242.31153685964179 330.00000000000006,237.9591836734694 340.0,233.44856309870883 350.0,228.77967513536032 360.0,223.95251978342355 370.0,218.96709704289879 380.0,213.82340691378593 390.0,208.52144939608496 400.0,203.0612244897959 410.0,197.44273219491876 420.0,191.66597251145356 430.0,185.73094543940024 440.0,179.6376509787589 450.0,173.38608912952935 460.0,166.97625989171181 470.0,160.40816326530611 480.0,153.68179925031234 490.0,146.79716784673053 500.0,139.75426905456064 510.0,132.55310287380257 520.0,125.19366930445648 530.0,117.6759683465223 540.0,109.99999999999994 540.0,50.0 530.0,60.099958350687167 520.0,69.991670137442796 510.0,79.675135360266552 500.0,89.150354019158669 490.0,98.417326114119135 480.0,107.47605164514792 470.0,116.32653061224492 460.0,124.96876301541022 450.0,133.40274885464387 440.0,141.62848812994591 430.0,149.64598084131609 420.0,157.45522698875465 410.0,165.05622657226155 400.0,172.44897959183669 390.0,179.63348604748023 380.0,186.60974593919201 370.0,193.37775926697211 360.0,199.93752603082044 350.0,206.2890462307372 340.0,212.4323198667222 330.00000000000006,218.36734693877551 320.0,224.09412744689718 310.0,229.61266139108704 300.0,234.92294877134523 290.0,240.02498958767177 280.0,244.9187838400666 270.0,249.6043315285298 260.0,254.08163265306123 250.0,258.35068721366099 240.0,262.41149521032901 230.0,266.26405664306543 220.0,269.90837151187003 210.0,273.34443981674298 200.0,276.57226155768433 190.00000000000003,279.59183673469386 180.0,282.40316534777179 170.0,285.00624739691796 160.0,287.40108288213247 150.0,289.58767180341528 140.0,291.56601416076637 130.0,293.33610995418576 120.00000000000001,294.89795918367344 110.0,296.25156184922946 100.0,297.39691795085383 90.0,298.33402748854644 80.0,299.06289046230745 70.0,299.58350687213658 60.0,299.89587671803417 50.0,300.0" style="fill:rgb(21.6%,52.9%,75.4%);fill-opacity:1.0;opacity:1.0;stroke:none" /></g></g><g class="toyplot-coordinates" style="visibility:hidden"><rect height="14.0" style="fill:rgb(100%,100%,100%);fill-opacity:1.0;opacity:0.75;stroke:none" width="90.0" x="450.0" y="60.0" /><text style="alignment-baseline:middle;font-size:10px;font-weight:normal;stroke:none;text-anchor:middle" x="495.0" y="67.0" /></g><g class="toyplot-axes-Axis" id="tdff27a7a731e42db8517c8f4034368e3" transform="translate(50.0,560.0) rotate(0.0)"><line style="" x1="0" x2="490.0" y1="0" y2="0" /><g><text style="alignment-baseline:middle;baseline-shift:-80%;font-size:10px;font-weight:normal;stroke:none;text-anchor:middle" transform="translate(0.0,0) rotate(0)" x="0" y="0">0</text><text style="alignment-baseline:middle;baseline-shift:-80%;font-size:10px;font-weight:normal;stroke:none;text-anchor:middle" transform="translate(100.0,0) rotate(0)" x="0" y="0">10</text><text style="alignment-baseline:middle;baseline-shift:-80%;font-size:10px;font-weight:normal;stroke:none;text-anchor:middle" transform="translate(200.0,0) rotate(0)" x="0" y="0">20</text><text style="alignment-baseline:middle;baseline-shift:-80%;font-size:10px;font-weight:normal;stroke:none;text-anchor:middle" transform="translate(300.0,0) rotate(0)" x="0" y="0">30</text><text style="alignment-baseline:middle;baseline-shift:-80%;font-size:10px;font-weight:normal;stroke:none;text-anchor:middle" transform="translate(400.0,0) rotate(0)" x="0" y="0">40</text><text style="alignment-baseline:middle;baseline-shift:-80%;font-size:10px;font-weight:normal;stroke:none;text-anchor:middle" transform="translate(500.0,0) rotate(0)" x="0" y="0">50</text></g></g><g class="toyplot-axes-Axis" id="t70c6ae258004480b86a9e01e0a66c74a" transform="translate(40.0,550.0) rotate(-90.0)"><line style="" x1="0" x2="500.0" y1="0" y2="0" /><g><text style="alignment-baseline:middle;baseline-shift:80%;font-size:10px;font-weight:normal;stroke:none;text-anchor:middle" transform="translate(9.9999999999999662,0) rotate(0)" x="0" y="0">-1</text><text style="alignment-baseline:middle;baseline-shift:80%;font-size:10px;font-weight:normal;stroke:none;text-anchor:middle" transform="translate(250.0,0) rotate(0)" x="0" y="0">0</text><text style="alignment-baseline:middle;baseline-shift:80%;font-size:10px;font-weight:normal;stroke:none;text-anchor:middle" transform="translate(490.00000000000006,0) rotate(0)" x="0" y="0">1</text></g></g></g></svg>