<svg height="600px" id="t65758c113f69425f948243892c84d2b5" preserveAspectRatio="xMidYMid meet" style="background-color:transparent;fill:rgb(16.1%,15.3%,14.1%);fill-opacity:1.0;font-family:Helvetica;font-size:12px;opacity:1.0;stroke:rgb(16.1%,15.3%,14.1%);stroke-opacity:1.0;stroke-width:1.0" viewBox="0 0 600 600" width="600px" xmlns="http://www.w3.org/2000/svg" xmlns:toyplot="http://www.sandia.gov/toyplot"><g class="toyplot-axes-NumberLine" id="t03b1d7885c0e4329b05c7c613aa925b9"><g class="toyplot-coordinate-events"><g class="toyplot-color-LinearMap" id="tf9095911f5ad4664bf5bb40494cdf7c3" transform="translate(100.0,540.0) rotate(-90.0)"><rect height="10" style="fill:rgb(1.96%,18.8%,38%);fill-opacity:1.0;stroke:none" width="1.8823529411764706" x="0.0" y="-10" /><rect height="10" style="fill:rgb(2.39%,19.7%,39.2%);fill-opacity:1.0;stroke:none" width="1.8823529411764706" x="1.8823529411764706" y="-10" /><rect height="10" style="fill:rgb(2.82%,20.5%,40.3%);fill-opacity:1.0;stroke:none" width="1.8823529411764701" x="3.7647058823529411" y="-10" /><rect height="10" style="fill:rgb(3.25%,21.3%,41.5%);fill-opacity:1.0;stroke:none" width="1.882352941176471" x="5.6470588235294112" y="-10" /><rect height="10" style="fill:rgb(3.68%,22.1%,42.7%);fill-opacity:1.0;stroke:none" width="1.882352941176471" x="7.5294117647058822" y="-10" /><rect height="10" style="fill:rgb(4.11%,23%,43.8%);fill-opacity:1.0;stroke:none" width="1.8823529411764692" x="9.4117647058823533" y="-10" /><rect height="10" style="fill:rgb(4.54%,23.8%,45%);fill-opacity:1.0;stroke:none" width="1.882352941176471" x="11.294117647058822" y="-10" /><rect height="10" style="fill:rgb(4.98%,24.6%,46.1%);fill-opacity:1.0;stroke:none" width="1.882352941176471" x="13.176470588235293" y="-10" /><rect height="10" style="fill:rgb(5.41%,25.5%,47.3%);fill-opacity:1.0;stroke:none" width="1.882352941176471" x="15.058823529411764" y="-10" /><rect height="10" style="fill:rgb(5.84%,26.3%,48.4%);fill-opacity:1.0;stroke:none" width="1.882352941176471" x="16.941176470588236" y="-10" /><rect height="10" style="fill:rgb(6.27%,27.1%,49.6%);fill-opacity:1.0;stroke:none" width="1.882352941176471" x="18.823529411764707" y="-10" /><rect height="10" style="fill:rgb(6.7%,28%,50.7%);fill-opacity:1.0;stroke:none" width="1.8823529411764675" x="20.705882352941178" y="-10" /><rect height="10" style="fill:rgb(7.13%,28.8%,51.9%);fill-opacity:1.0;stroke:none" width="1.882352941176471" x="22.588235294117645" y="-10" /><rect height="10" style="fill:rgb(7.56%,29.6%,53%);fill-opacity:1.0;stroke:none" width="1.882352941176471" x="24.470588235294116" y="-10" /><rect height="10" style="fill:rgb(7.99%,30.4%,54.2%);fill-opacity:1.0;stroke:none" width="1.882352941176471" x="26.352941176470587" y="-10" /><rect height="10" style="fill:rgb(8.42%,31.3%,55.3%);fill-opacity:1.0;stroke:none" width="1.882352941176471" x="28.235294117647058" y="-10" /><rect height="10" style="fill:rgb(8.85%,32.1%,56.5%);fill-opacity:1.0;stroke:none" width="1.882352941176471" x="30.117647058823529" y="-10" /><rect height="10" style="fill:rgb(9.28%,32.9%,57.6%);fill-opacity:1.0;stroke:none" width="1.882352941176471" x="32.0" y="-10" /><rect height="10" style="fill:rgb(9.71%,33.8%,58.8%);fill-opacity:1.0;stroke:none" width="1.882352941176471" x="33.882352941176471" y="-10" /><rect height="10" style="fill:rgb(10.1%,34.6%,60%);fill-opacity:1.0;stroke:none" width="1.882352941176471" x="35.764705882352942" y="-10" /><rect height="10" style="fill:rgb(10.6%,35.4%,61.1%);fill-opacity:1.0;stroke:none" width="1.882352941176471" x="37.647058823529413" y="-10" /><rect height="10" style="fill:rgb(11%,36.3%,62.3%);fill-opacity:1.0;stroke:none" width="1.882352941176471" x="39.529411764705884" y="-10" /><rect height="10" style="fill:rgb(11.4%,37.1%,63.4%);fill-opacity:1.0;stroke:none" width="1.882352941176471" x="41.411764705882355" y="-10" /><rect height="10" style="fill:rgb(11.9%,37.9%,64.6%);fill-opacity:1.0;stroke:none" width="1.8823529411764639" x="43.294117647058826" y="-10" /><rect height="10" style="fill:rgb(12.3%,38.8%,65.7%);fill-opacity:1.0;stroke:none" width="1.882352941176471" x="45.17647058823529" y="-10" /><rect height="10" style="fill:rgb(12.7%,39.6%,66.9%);fill-opacity:1.0;stroke:none" width="1.882352941176471" x="47.058823529411761" y="-10" /><rect height="10" style="fill:rgb(13.2%,40.3%,67.6%);fill-opacity:1.0;stroke:none" width="1.882352941176471" x="48.941176470588232" y="-10" /><rect height="10" style="fill:rgb(13.7%,41%,68%);fill-opacity:1.0;stroke:none" width="1.882352941176471" x="50.823529411764703" y="-10" /><rect height="10" style="fill:rgb(14.2%,41.7%,68.3%);fill-opacity:1.0;stroke:none" width="1.882352941176471" x="52.705882352941174" y="-10" /><rect height="10" style="fill:rgb(14.8%,42.4%,68.7%);fill-opacity:1.0;stroke:none" width="1.882352941176471" x="54.588235294117645" y="-10" /><rect height="10" style="fill:rgb(15.3%,43.1%,69%);fill-opacity:1.0;stroke:none" width="1.882352941176471" x="56.470588235294116" y="-10" /><rect height="10" style="fill:rgb(15.8%,43.8%,69.4%);fill-opacity:1.0;stroke:none" width="1.882352941176471" x="58.352941176470587" y="-10" /><rect height="10" style="fill:rgb(16.3%,44.5%,69.8%);fill-opacity:1.0;stroke:none" width="1.8823529411764639" x="60.235294117647058" y="-10" /><rect height="10" style="fill:rgb(16.9%,45.2%,70.1%);fill-opacity:1.0;stroke:none" width="1.8823529411764781" x="62.117647058823522" y="-10" /><rect height="10" style="fill:rgb(17.4%,45.9%,70.5%);fill-opacity:1.0;stroke:none" width="1.8823529411764781" x="64.0" y="-10" /><rect height="10" style="fill:rgb(17.9%,46.6%,70.8%);fill-opacity:1.0;stroke:none" width="1.8823529411764639" x="65.882352941176478" y="-10" /><rect height="10" style="fill:rgb(18.4%,47.3%,71.2%);fill-opacity:1.0;stroke:none" width="1.8823529411764639" x="67.764705882352942" y="-10" /><rect height="10" style="fill:rgb(19%,48%,71.5%);fill-opacity:1.0;stroke:none" width="1.8823529411764781" x="69.647058823529406" y="-10" /><rect height="10" style="fill:rgb(19.5%,48.7%,71.9%);fill-opacity:1.0;stroke:none" width="1.8823529411764781" x="71.529411764705884" y="-10" /><rect height="10" style="fill:rgb(20%,49.3%,72.2%);fill-opacity:1.0;stroke:none" width="1.8823529411764639" x="73.411764705882362" y="-10" /><rect height="10" style="fill:rgb(20.5%,50%,72.6%);fill-opacity:1.0;stroke:none" width="1.8823529411764639" x="75.294117647058826" y="-10" /><rect height="10" style="fill:rgb(21%,50.7%,72.9%);fill-opacity:1.0;stroke:none" width="1.8823529411764781" x="77.17647058823529" y="-10" /><rect height="10" style="fill:rgb(21.6%,51.4%,73.3%);fill-opacity:1.0;stroke:none" width="1.8823529411764781" x="79.058823529411768" y="-10" /><rect height="10" style="fill:rgb(22.1%,52.1%,73.6%);fill-opacity:1.0;stroke:none" width="1.8823529411764639" x="80.941176470588246" y="-10" /><rect height="10" style="fill:rgb(22.6%,52.8%,74%);fill-opacity:1.0;stroke:none" width="1.8823529411764639" x="82.82352941176471" y="-10" /><rect height="10" style="fill:rgb(23.1%,53.5%,74.3%);fill-opacity:1.0;stroke:none" width="1.8823529411764781" x="84.705882352941174" y="-10" /><rect height="10" style="fill:rgb(23.7%,54.2%,74.7%);fill-opacity:1.0;stroke:none" width="1.8823529411764639" x="86.588235294117652" y="-10" /><rect height="10" style="fill:rgb(24.2%,54.9%,75.1%);fill-opacity:1.0;stroke:none" width="1.8823529411764639" x="88.470588235294116" y="-10" /><rect height="10" style="fill:rgb(24.7%,55.6%,75.4%);fill-opacity:1.0;stroke:none" width="1.8823529411764639" x="90.35294117647058" y="-10" /><rect height="10" style="fill:rgb(25.2%,56.3%,75.8%);fill-opacity:1.0;stroke:none" width="1.8823529411764781" x="92.235294117647044" y="-10" /><rect height="10" style="fill:rgb(25.8%,57%,76.1%);fill-opacity:1.0;stroke:none" width="1.8823529411764781" x="94.117647058823522" y="-10" /><rect height="10" style="fill:rgb(26.3%,57.6%,76.5%);fill-opacity:1.0;stroke:none" width="1.8823529411764639" x="96.0" y="-10" /><rect height="10" style="fill:rgb(27.5%,58.4%,76.9%);fill-opacity:1.0;stroke:none" width="1.8823529411764639" x="97.882352941176464" y="-10" /><rect height="10" style="fill:rgb(28.7%,59.2%,77.3%);fill-opacity:1.0;stroke:none" width="1.8823529411764781" x="99.764705882352928" y="-10" /><rect height="10" style="fill:rgb(29.9%,60%,77.7%);fill-opacity:1.0;stroke:none" width="1.8823529411764781" x="101.64705882352941" y="-10" /><rect height="10" style="fill:rgb(31.1%,60.7%,78.1%);fill-opacity:1.0;stroke:none" width="1.8823529411764639" x="103.52941176470588" y="-10" /><rect height="10" style="fill:rgb(32.3%,61.5%,78.5%);fill-opacity:1.0;stroke:none" width="1.8823529411764639" x="105.41176470588235" y="-10" /><rect height="10" style="fill:rgb(33.6%,62.3%,79%);fill-opacity:1.0;stroke:none" width="1.8823529411764781" x="107.29411764705881" y="-10" /><rect height="10" style="fill:rgb(34.8%,63%,79.4%);fill-opacity:1.0;stroke:none" width="1.8823529411764781" x="109.17647058823529" y="-10" /><rect height="10" style="fill:rgb(36%,63.8%,79.8%);fill-opacity:1.0;stroke:none" width="1.8823529411764639" x="111.05882352941177" y="-10" /><rect height="10" style="fill:rgb(37.2%,64.6%,80.2%);fill-opacity:1.0;stroke:none" width="1.8823529411764639" x="112.94117647058823" y="-10" /><rect height="10" style="fill:rgb(38.4%,65.3%,80.6%);fill-opacity:1.0;stroke:none" width="1.8823529411764781" x="114.8235294117647" y="-10" /><rect height="10" style="fill:rgb(39.6%,66.1%,81%);fill-opacity:1.0;stroke:none" width="1.8823529411764781" x="116.70588235294117" y="-10" /><rect height="10" style="fill:rgb(40.9%,66.9%,81.5%);fill-opacity:1.0;stroke:none" width="1.8823529411764639" x="118.58823529411765" y="-10" /><rect height="10" style="fill:rgb(42.1%,67.6%,81.9%);fill-opacity:1.0;stroke:none" width="1.8823529411764639" x="120.47058823529412" y="-10" /><rect height="10" style="fill:rgb(43.3%,68.4%,82.3%);fill-opacity:1.0;stroke:none" width="1.8823529411764639" x="122.35294117647058" y="-10" /><rect height="10" style="fill:rgb(44.5%,69.2%,82.7%);fill-opacity:1.0;stroke:none" width="1.8823529411764923" x="124.23529411764704" y="-10" /><rect height="10" style="fill:rgb(45.7%,70%,83.1%);fill-opacity:1.0;stroke:none" width="1.8823529411764639" x="126.11764705882354" y="-10" /><rect height="10" style="fill:rgb(46.9%,70.7%,83.5%);fill-opacity:1.0;stroke:none" width="1.8823529411764639" x="128.0" y="-10" /><rect height="10" style="fill:rgb(48.1%,71.5%,83.9%);fill-opacity:1.0;stroke:none" width="1.8823529411764923" x="129.88235294117646" y="-10" /><rect height="10" style="fill:rgb(49.4%,72.3%,84.4%);fill-opacity:1.0;stroke:none" width="1.8823529411764639" x="131.76470588235296" y="-10" /><rect height="10" style="fill:rgb(50.6%,73%,84.8%);fill-opacity:1.0;stroke:none" width="1.8823529411764639" x="133.64705882352942" y="-10" /><rect height="10" style="fill:rgb(51.8%,73.8%,85.2%);fill-opacity:1.0;stroke:none" width="1.8823529411764639" x="135.52941176470588" y="-10" /><rect height="10" style="fill:rgb(53%,74.6%,85.6%);fill-opacity:1.0;stroke:none" width="1.8823529411764639" x="137.41176470588235" y="-10" /><rect height="10" style="fill:rgb(54.2%,75.3%,86%);fill-opacity:1.0;stroke:none" width="1.8823529411764923" x="139.29411764705881" y="-10" /><rect height="10" style="fill:rgb(55.4%,76.1%,86.4%);fill-opacity:1.0;stroke:none" width="1.8823529411764639" x="141.1764705882353" y="-10" /><rect height="10" style="fill:rgb(56.6%,76.9%,86.9%);fill-opacity:1.0;stroke:none" width="1.8823529411764639" x="143.05882352941177" y="-10" /><rect height="10" style="fill:rgb(57.7%,77.5%,87.2%);fill-opacity:1.0;stroke:none" width="1.8823529411764923" x="144.94117647058823" y="-10" /><rect height="10" style="fill:rgb(58.7%,78%,87.5%);fill-opacity:1.0;stroke:none" width="1.8823529411764639" x="146.82352941176472" y="-10" /><rect height="10" style="fill:rgb(59.7%,78.5%,87.8%);fill-opacity:1.0;stroke:none" width="1.8823529411764639" x="148.70588235294119" y="-10" /><rect height="10" style="fill:rgb(60.6%,79%,88%);fill-opacity:1.0;stroke:none" width="1.8823529411764639" x="150.58823529411765" y="-10" /><rect height="10" style="fill:rgb(61.6%,79.5%,88.3%);fill-opacity:1.0;stroke:none" width="1.8823529411764639" x="152.47058823529412" y="-10" /><rect height="10" style="fill:rgb(62.6%,80%,88.6%);fill-opacity:1.0;stroke:none" width="1.8823529411764923" x="154.35294117647058" y="-10" /><rect height="10" style="fill:rgb(63.6%,80.5%,88.9%);fill-opacity:1.0;stroke:none" width="1.8823529411764639" x="156.23529411764707" y="-10" /><rect height="10" style="fill:rgb(64.5%,80.9%,89.1%);fill-opacity:1.0;stroke:none" width="1.8823529411764639" x="158.11764705882354" y="-10" /><rect height="10" style="fill:rgb(65.5%,81.4%,89.4%);fill-opacity:1.0;stroke:none" width="1.8823529411764923" x="160.0" y="-10" /><rect height="10" style="fill:rgb(66.5%,81.9%,89.7%);fill-opacity:1.0;stroke:none" width="1.8823529411764639" x="161.88235294117649" y="-10" /><rect height="10" style="fill:rgb(67.4%,82.4%,90%);fill-opacity:1.0;stroke:none" width="1.8823529411764639" x="163.76470588235296" y="-10" /><rect height="10" style="fill:rgb(68.4%,82.9%,90.2%);fill-opacity:1.0;stroke:none" width="1.8823529411764639" x="165.64705882352942" y="-10" /><rect height="10" style="fill:rgb(69.4%,83.4%,90.5%);fill-opacity:1.0;stroke:none" width="1.8823529411764639" x="167.52941176470588" y="-10" /><rect height="10" style="fill:rgb(70.3%,83.9%,90.8%);fill-opacity:1.0;stroke:none" width="1.8823529411764923" x="169.41176470588235" y="-10" /><rect height="10" style="fill:rgb(71.3%,84.4%,91.1%);fill-opacity:1.0;stroke:none" width="1.8823529411764639" x="171.29411764705884" y="-10" /><rect height="10" style="fill:rgb(72.3%,84.9%,91.3%);fill-opacity:1.0;stroke:none" width="1.8823529411764639" x="173.1764705882353" y="-10" /><rect height="10" style="fill:rgb(73.2%,85.4%,91.6%);fill-opacity:1.0;stroke:none" width="1.8823529411764639" x="175.05882352941177" y="-10" /><rect height="10" style="fill:rgb(74.2%,85.9%,91.9%);fill-opacity:1.0;stroke:none" width="1.8823529411764639" x="176.94117647058823" y="-10" /><rect height="10" style="fill:rgb(75.2%,86.4%,92.2%);fill-opacity:1.0;stroke:none" width="1.8823529411764639" x="178.8235294117647" y="-10" /><rect height="10" style="fill:rgb(76.1%,86.9%,92.5%);fill-opacity:1.0;stroke:none" width="1.8823529411764639" x="180.70588235294116" y="-10" /><rect height="10" style="fill:rgb(77.1%,87.3%,92.7%);fill-opacity:1.0;stroke:none" width="1.8823529411764639" x="182.58823529411762" y="-10" /><rect height="10" style="fill:rgb(78.1%,87.8%,93%);fill-opacity:1.0;stroke:none" width="1.8823529411764923" x="184.47058823529409" y="-10" /><rect height="10" style="fill:rgb(79.1%,88.3%,93.3%);fill-opacity:1.0;stroke:none" width="1.8823529411764639" x="186.35294117647058" y="-10" /><rect height="10" style="fill:rgb(80%,88.8%,93.6%);fill-opacity:1.0;stroke:none" width="1.8823529411764639" x="188.23529411764704" y="-10" /><rect height="10" style="fill:rgb(81%,89.3%,93.8%);fill-opacity:1.0;stroke:none" width="1.8823529411764923" x="190.11764705882351" y="-10" /><rect height="10" style="fill:rgb(82%,89.8%,94.1%);fill-opacity:1.0;stroke:none" width="1.8823529411764639" x="192.0" y="-10" /><rect height="10" style="fill:rgb(82.5%,90.1%,94.2%);fill-opacity:1.0;stroke:none" width="1.8823529411764639" x="193.88235294117646" y="-10" /><rect height="10" style="fill:rgb(83.1%,90.4%,94.3%);fill-opacity:1.0;stroke:none" width="1.8823529411764639" x="195.76470588235293" y="-10" /><rect height="10" style="fill:rgb(83.7%,90.6%,94.4%);fill-opacity:1.0;stroke:none" width="1.8823529411764639" x="197.64705882352939" y="-10" /><rect height="10" style="fill:rgb(84.3%,90.9%,94.5%);fill-opacity:1.0;stroke:none" width="1.8823529411764923" x="199.52941176470586" y="-10" /><rect height="10" style="fill:rgb(84.9%,91.2%,94.7%);fill-opacity:1.0;stroke:none" width="1.8823529411764639" x="201.41176470588235" y="-10" /><rect height="10" style="fill:rgb(85.5%,91.5%,94.8%);fill-opacity:1.0;stroke:none" width="1.8823529411764639" x="203.29411764705881" y="-10" /><rect height="10" style="fill:rgb(86.1%,91.7%,94.9%);fill-opacity:1.0;stroke:none" width="1.8823529411764923" x="205.17647058823528" y="-10" /><rect height="10" style="fill:rgb(86.6%,92%,95%);fill-opacity:1.0;stroke:none" width="1.8823529411764639" x="207.05882352941177" y="-10" /><rect height="10" style="fill:rgb(87.2%,92.3%,95.1%);fill-opacity:1.0;stroke:none" width="1.8823529411764639" x="208.94117647058823" y="-10" /><rect height="10" style="fill:rgb(87.8%,92.6%,95.2%);fill-opacity:1.0;stroke:none" width="1.8823529411764639" x="210.8235294117647" y="-10" /><rect height="10" style="fill:rgb(88.4%,92.8%,95.3%);fill-opacity:1.0;stroke:none" width="1.8823529411764639" x="212.70588235294116" y="-10" /><rect height="10" style="fill:rgb(89%,93.1%,95.4%);fill-opacity:1.0;stroke:none" width="1.8823529411764923" x="214.58823529411762" y="-10" /><rect height="10" style="fill:rgb(89.6%,93.4%,95.5%);fill-opacity:1.0;stroke:none" width="1.8823529411764639" x="216.47058823529412" y="-10" /><rect height="10" style="fill:rgb(90.1%,93.7%,95.6%);fill-opacity:1.0;stroke:none" width="1.8823529411764639" x="218.35294117647058" y="-10" /><rect height="10" style="fill:rgb(90.7%,94%,95.7%);fill-opacity:1.0;stroke:none" width="1.8823529411764923" x="220.23529411764704" y="-10" /><rect height="10" style="fill:rgb(91.3%,94.2%,95.8%);fill-opacity:1.0;stroke:none" width="1.8823529411764639" x="222.11764705882354" y="-10" /><rect height="10" style="fill:rgb(91.9%,94.5%,95.9%);fill-opacity:1.0;stroke:none" width="1.8823529411764639" x="224.0" y="-10" /><rect height="10" style="fill:rgb(92.5%,94.8%,96.1%);fill-opacity:1.0;stroke:none" width="1.8823529411764639" x="225.88235294117646" y="-10" /><rect height="10" style="fill:rgb(93.1%,95.1%,96.2%);fill-opacity:1.0;stroke:none" width="1.8823529411764639" x="227.76470588235293" y="-10" /><rect height="10" style="fill:rgb(93.6%,95.3%,96.3%);fill-opacity:1.0;stroke:none" width="1.8823529411764923" x="229.64705882352939" y="-10" /><rect height="10" style="fill:rgb(94.2%,95.6%,96.4%);fill-opacity:1.0;stroke:none" width="1.8823529411764639" x="231.52941176470588" y="-10" /><rect height="10" style="fill:rgb(94.8%,95.9%,96.5%);fill-opacity:1.0;stroke:none" width="1.8823529411764639" x="233.41176470588235" y="-10" /><rect height="10" style="fill:rgb(95.4%,96.2%,96.6%);fill-opacity:1.0;stroke:none" width="1.8823529411764923" x="235.29411764705881" y="-10" /><rect height="10" style="fill:rgb(96%,96.4%,96.7%);fill-opacity:1.0;stroke:none" width="1.8823529411764639" x="237.1764705882353" y="-10" /><rect height="10" style="fill:rgb(96.6%,96.7%,96.8%);fill-opacity:1.0;stroke:none" width="1.8823529411764639" x="239.05882352941177" y="-10" /><rect height="10" style="fill:rgb(96.9%,96.6%,96.5%);fill-opacity:1.0;stroke:none" width="1.8823529411764639" x="240.94117647058823" y="-10" /><rect height="10" style="fill:rgb(97%,96.2%,95.8%);fill-opacity:1.0;stroke:none" width="1.8823529411764639" x="242.8235294117647" y="-10" /><rect height="10" style="fill:rgb(97.1%,95.8%,95%);fill-opacity:1.0;stroke:none" width="1.8823529411764639" x="244.70588235294116" y="-10" /><rect height="10" style="fill:rgb(97.2%,95.4%,94.3%);fill-opacity:1.0;stroke:none" width="1.8823529411764639" x="246.58823529411762" y="-10" /><rect height="10" style="fill:rgb(97.3%,94.9%,93.5%);fill-opacity:1.0;stroke:none" width="1.8823529411765207" x="248.47058823529409" y="-10" /><rect height="10" style="fill:rgb(97.4%,94.5%,92.8%);fill-opacity:1.0;stroke:none" width="1.8823529411764639" x="250.35294117647061" y="-10" /><rect height="10" style="fill:rgb(97.5%,94.1%,92.1%);fill-opacity:1.0;stroke:none" width="1.8823529411764639" x="252.23529411764707" y="-10" /><rect height="10" style="fill:rgb(97.6%,93.6%,91.3%);fill-opacity:1.0;stroke:none" width="1.8823529411764639" x="254.11764705882354" y="-10" /><rect height="10" style="fill:rgb(97.6%,93.2%,90.6%);fill-opacity:1.0;stroke:none" width="1.8823529411764639" x="256.0" y="-10" /><rect height="10" style="fill:rgb(97.7%,92.8%,89.9%);fill-opacity:1.0;stroke:none" width="1.8823529411764639" x="257.88235294117646" y="-10" /><rect height="10" style="fill:rgb(97.8%,92.3%,89.1%);fill-opacity:1.0;stroke:none" width="1.8823529411764639" x="259.76470588235293" y="-10" /><rect height="10" style="fill:rgb(97.9%,91.9%,88.4%);fill-opacity:1.0;stroke:none" width="1.8823529411765207" x="261.64705882352939" y="-10" /><rect height="10" style="fill:rgb(98%,91.5%,87.6%);fill-opacity:1.0;stroke:none" width="1.8823529411764639" x="263.52941176470591" y="-10" /><rect height="10" style="fill:rgb(98.1%,91%,86.9%);fill-opacity:1.0;stroke:none" width="1.8823529411764639" x="265.41176470588238" y="-10" /><rect height="10" style="fill:rgb(98.2%,90.6%,86.2%);fill-opacity:1.0;stroke:none" width="1.8823529411764639" x="267.29411764705884" y="-10" /><rect height="10" style="fill:rgb(98.3%,90.2%,85.4%);fill-opacity:1.0;stroke:none" width="1.8823529411764639" x="269.1764705882353" y="-10" /><rect height="10" style="fill:rgb(98.4%,89.8%,84.7%);fill-opacity:1.0;stroke:none" width="1.8823529411764639" x="271.05882352941177" y="-10" /><rect height="10" style="fill:rgb(98.5%,89.3%,83.9%);fill-opacity:1.0;stroke:none" width="1.8823529411764639" x="272.94117647058823" y="-10" /><rect height="10" style="fill:rgb(98.6%,88.9%,83.2%);fill-opacity:1.0;stroke:none" width="1.8823529411764639" x="274.8235294117647" y="-10" /><rect height="10" style="fill:rgb(98.7%,88.5%,82.5%);fill-opacity:1.0;stroke:none" width="1.8823529411764639" x="276.70588235294116" y="-10" /><rect height="10" style="fill:rgb(98.8%,88%,81.7%);fill-opacity:1.0;stroke:none" width="1.8823529411765207" x="278.58823529411762" y="-10" /><rect height="10" style="fill:rgb(98.8%,87.6%,81%);fill-opacity:1.0;stroke:none" width="1.8823529411764639" x="280.47058823529414" y="-10" /><rect height="10" style="fill:rgb(98.9%,87.2%,80.3%);fill-opacity:1.0;stroke:none" width="1.8823529411764639" x="282.35294117647061" y="-10" /><rect height="10" style="fill:rgb(99%,86.7%,79.5%);fill-opacity:1.0;stroke:none" width="1.8823529411764639" x="284.23529411764707" y="-10" /><rect height="10" style="fill:rgb(99.1%,86.3%,78.8%);fill-opacity:1.0;stroke:none" width="1.8823529411764639" x="286.11764705882354" y="-10" /><rect height="10" style="fill:rgb(99.2%,85.9%,78%);fill-opacity:1.0;stroke:none" width="1.8823529411764639" x="288.0" y="-10" /><rect height="10" style="fill:rgb(99.1%,85.1%,77%);fill-opacity:1.0;stroke:none" width="1.8823529411764639" x="289.88235294117646" y="-10" /><rect height="10" style="fill:rgb(98.9%,84.2%,75.9%);fill-opacity:1.0;stroke:none" width="1.8823529411765207" x="291.76470588235293" y="-10" /><rect height="10" style="fill:rgb(98.8%,83.4%,74.9%);fill-opacity:1.0;stroke:none" width="1.8823529411764639" x="293.64705882352945" y="-10" /><rect height="10" style="fill:rgb(98.7%,82.6%,73.8%);fill-opacity:1.0;stroke:none" width="1.8823529411764639" x="295.52941176470591" y="-10" /><rect height="10" style="fill:rgb(98.5%,81.7%,72.7%);fill-opacity:1.0;stroke:none" width="1.8823529411764639" x="297.41176470588238" y="-10" /><rect height="10" style="fill:rgb(98.4%,80.9%,71.7%);fill-opacity:1.0;stroke:none" width="1.8823529411764639" x="299.29411764705884" y="-10" /><rect height="10" style="fill:rgb(98.2%,80.1%,70.6%);fill-opacity:1.0;stroke:none" width="1.8823529411764639" x="301.1764705882353" y="-10" /><rect height="10" style="fill:rgb(98.1%,79.2%,69.6%);fill-opacity:1.0;stroke:none" width="1.8823529411764639" x="303.05882352941177" y="-10" /><rect height="10" style="fill:rgb(98%,78.4%,68.5%);fill-opacity:1.0;stroke:none" width="1.8823529411764639" x="304.94117647058823" y="-10" /><rect height="10" style="fill:rgb(97.8%,77.6%,67.4%);fill-opacity:1.0;stroke:none" width="1.8823529411764639" x="306.8235294117647" y="-10" /><rect height="10" style="fill:rgb(97.7%,76.7%,66.4%);fill-opacity:1.0;stroke:none" width="1.8823529411765207" x="308.70588235294116" y="-10" /><rect height="10" style="fill:rgb(97.6%,75.9%,65.3%);fill-opacity:1.0;stroke:none" width="1.8823529411764639" x="310.58823529411768" y="-10" /><rect height="10" style="fill:rgb(97.4%,75.1%,64.2%);fill-opacity:1.0;stroke:none" width="1.8823529411764639" x="312.47058823529414" y="-10" /><rect height="10" style="fill:rgb(97.3%,74.3%,63.2%);fill-opacity:1.0;stroke:none" width="1.8823529411764639" x="314.35294117647061" y="-10" /><rect height="10" style="fill:rgb(97.1%,73.4%,62.1%);fill-opacity:1.0;stroke:none" width="1.8823529411764639" x="316.23529411764707" y="-10" /><rect height="10" style="fill:rgb(97%,72.6%,61.1%);fill-opacity:1.0;stroke:none" width="1.8823529411764639" x="318.11764705882354" y="-10" /><rect height="10" style="fill:rgb(96.9%,71.8%,60%);fill-opacity:1.0;stroke:none" width="1.8823529411764639" x="320.0" y="-10" /><rect height="10" style="fill:rgb(96.7%,70.9%,58.9%);fill-opacity:1.0;stroke:none" width="1.8823529411765207" x="321.88235294117646" y="-10" /><rect height="10" style="fill:rgb(96.6%,70.1%,57.9%);fill-opacity:1.0;stroke:none" width="1.8823529411764639" x="323.76470588235298" y="-10" /><rect height="10" style="fill:rgb(96.4%,69.3%,56.8%);fill-opacity:1.0;stroke:none" width="1.8823529411764639" x="325.64705882352945" y="-10" /><rect height="10" style="fill:rgb(96.3%,68.4%,55.8%);fill-opacity:1.0;stroke:none" width="1.8823529411764639" x="327.52941176470591" y="-10" /><rect height="10" style="fill:rgb(96.2%,67.6%,54.7%);fill-opacity:1.0;stroke:none" width="1.8823529411764639" x="329.41176470588238" y="-10" /><rect height="10" style="fill:rgb(96%,66.8%,53.6%);fill-opacity:1.0;stroke:none" width="1.8823529411764639" x="331.29411764705884" y="-10" /><rect height="10" style="fill:rgb(95.9%,66%,52.6%);fill-opacity:1.0;stroke:none" width="1.8823529411764639" x="333.1764705882353" y="-10" /><rect height="10" style="fill:rgb(95.8%,65.1%,51.5%);fill-opacity:1.0;stroke:none" width="1.8823529411764639" x="335.05882352941177" y="-10" /><rect height="10" style="fill:rgb(95.5%,64.2%,50.6%);fill-opacity:1.0;stroke:none" width="1.8823529411764639" x="336.94117647058823" y="-10" /><rect height="10" style="fill:rgb(95%,63.1%,49.8%);fill-opacity:1.0;stroke:none" width="1.8823529411765207" x="338.8235294117647" y="-10" /><rect height="10" style="fill:rgb(94.5%,62.1%,48.9%);fill-opacity:1.0;stroke:none" width="1.8823529411764639" x="340.70588235294122" y="-10" /><rect height="10" style="fill:rgb(94.1%,61%,48.1%);fill-opacity:1.0;stroke:none" width="1.8823529411764639" x="342.58823529411768" y="-10" /><rect height="10" style="fill:rgb(93.6%,59.9%,47.3%);fill-opacity:1.0;stroke:none" width="1.8823529411764639" x="344.47058823529414" y="-10" /><rect height="10" style="fill:rgb(93.1%,58.9%,46.5%);fill-opacity:1.0;stroke:none" width="1.8823529411764639" x="346.35294117647061" y="-10" /><rect height="10" style="fill:rgb(92.7%,57.8%,45.7%);fill-opacity:1.0;stroke:none" width="1.8823529411764639" x="348.23529411764707" y="-10" /><rect height="10" style="fill:rgb(92.2%,56.7%,44.9%);fill-opacity:1.0;stroke:none" width="1.8823529411764639" x="350.11764705882354" y="-10" /><rect height="10" style="fill:rgb(91.8%,55.7%,44.1%);fill-opacity:1.0;stroke:none" width="1.8823529411764639" x="352.0" y="-10" /><rect height="10" style="fill:rgb(91.3%,54.6%,43.2%);fill-opacity:1.0;stroke:none" width="1.8823529411764639" x="353.88235294117646" y="-10" /><rect height="10" style="fill:rgb(90.8%,53.6%,42.4%);fill-opacity:1.0;stroke:none" width="1.8823529411764639" x="355.76470588235293" y="-10" /><rect height="10" style="fill:rgb(90.4%,52.5%,41.6%);fill-opacity:1.0;stroke:none" width="1.8823529411764639" x="357.64705882352939" y="-10" /><rect height="10" style="fill:rgb(89.9%,51.4%,40.8%);fill-opacity:1.0;stroke:none" width="1.8823529411764639" x="359.52941176470586" y="-10" /><rect height="10" style="fill:rgb(89.5%,50.4%,40%);fill-opacity:1.0;stroke:none" width="1.8823529411764639" x="361.41176470588232" y="-10" /><rect height="10" style="fill:rgb(89%,49.3%,39.2%);fill-opacity:1.0;stroke:none" width="1.8823529411764639" x="363.29411764705878" y="-10" /><rect height="10" style="fill:rgb(88.5%,48.3%,38.3%);fill-opacity:1.0;stroke:none" width="1.8823529411764639" x="365.17647058823525" y="-10" /><rect height="10" style="fill:rgb(88.1%,47.2%,37.5%);fill-opacity:1.0;stroke:none" width="1.8823529411764639" x="367.05882352941171" y="-10" /><rect height="10" style="fill:rgb(87.6%,46.1%,36.7%);fill-opacity:1.0;stroke:none" width="1.8823529411765207" x="368.94117647058818" y="-10" /><rect height="10" style="fill:rgb(87.2%,45.1%,35.9%);fill-opacity:1.0;stroke:none" width="1.8823529411764639" x="370.8235294117647" y="-10" /><rect height="10" style="fill:rgb(86.7%,44%,35.1%);fill-opacity:1.0;stroke:none" width="1.8823529411764639" x="372.70588235294116" y="-10" /><rect height="10" style="fill:rgb(86.2%,43%,34.3%);fill-opacity:1.0;stroke:none" width="1.8823529411764639" x="374.58823529411762" y="-10" /><rect height="10" style="fill:rgb(85.8%,41.9%,33.5%);fill-opacity:1.0;stroke:none" width="1.8823529411764639" x="376.47058823529409" y="-10" /><rect height="10" style="fill:rgb(85.3%,40.8%,32.6%);fill-opacity:1.0;stroke:none" width="1.8823529411764639" x="378.35294117647055" y="-10" /><rect height="10" style="fill:rgb(84.8%,39.8%,31.8%);fill-opacity:1.0;stroke:none" width="1.8823529411764639" x="380.23529411764702" y="-10" /><rect height="10" style="fill:rgb(84.4%,38.7%,31%);fill-opacity:1.0;stroke:none" width="1.8823529411765207" x="382.11764705882348" y="-10" /><rect height="10" style="fill:rgb(83.9%,37.6%,30.2%);fill-opacity:1.0;stroke:none" width="1.8823529411764639" x="384.0" y="-10" /><rect height="10" style="fill:rgb(83.4%,36.5%,29.7%);fill-opacity:1.0;stroke:none" width="1.8823529411764639" x="385.88235294117646" y="-10" /><rect height="10" style="fill:rgb(82.8%,35.4%,29.2%);fill-opacity:1.0;stroke:none" width="1.8823529411764639" x="387.76470588235293" y="-10" /><rect height="10" style="fill:rgb(82.3%,34.3%,28.6%);fill-opacity:1.0;stroke:none" width="1.8823529411764639" x="389.64705882352939" y="-10" /><rect height="10" style="fill:rgb(81.7%,33.2%,28.1%);fill-opacity:1.0;stroke:none" width="1.8823529411764639" x="391.52941176470586" y="-10" /><rect height="10" style="fill:rgb(81.2%,32.1%,27.6%);fill-opacity:1.0;stroke:none" width="1.8823529411764639" x="393.41176470588232" y="-10" /><rect height="10" style="fill:rgb(80.6%,31%,27.1%);fill-opacity:1.0;stroke:none" width="1.8823529411764639" x="395.29411764705878" y="-10" /><rect height="10" style="fill:rgb(80%,29.9%,26.5%);fill-opacity:1.0;stroke:none" width="1.8823529411764639" x="397.17647058823525" y="-10" /><rect height="10" style="fill:rgb(79.5%,28.8%,26%);fill-opacity:1.0;stroke:none" width="1.8823529411765207" x="399.05882352941171" y="-10" /><rect height="10" style="fill:rgb(78.9%,27.7%,25.5%);fill-opacity:1.0;stroke:none" width="1.8823529411764639" x="400.94117647058823" y="-10" /><rect height="10" style="fill:rgb(78.4%,26.6%,25%);fill-opacity:1.0;stroke:none" width="1.8823529411764639" x="402.8235294117647" y="-10" /><rect height="10" style="fill:rgb(77.8%,25.5%,24.4%);fill-opacity:1.0;stroke:none" width="1.8823529411764639" x="404.70588235294116" y="-10" /><rect height="10" style="fill:rgb(77.3%,24.4%,23.9%);fill-opacity:1.0;stroke:none" width="1.8823529411764639" x="406.58823529411762" y="-10" /><rect height="10" style="fill:rgb(76.7%,23.3%,23.4%);fill-opacity:1.0;stroke:none" width="1.8823529411764639" x="408.47058823529409" y="-10" /><rect height="10" style="fill:rgb(76.2%,22.1%,22.9%);fill-opacity:1.0;stroke:none" width="1.8823529411764639" x="410.35294117647055" y="-10" /><rect height="10" style="fill:rgb(75.6%,21%,22.4%);fill-opacity:1.0;stroke:none" width="1.8823529411765207" x="412.23529411764702" y="-10" /><rect height="10" style="fill:rgb(75.1%,19.9%,21.8%);fill-opacity:1.0;stroke:none" width="1.8823529411764639" x="414.11764705882354" y="-10" /><rect height="10" style="fill:rgb(74.5%,18.8%,21.3%);fill-opacity:1.0;stroke:none" width="1.8823529411764639" x="416.0" y="-10" /><rect height="10" style="fill:rgb(74%,17.7%,20.8%);fill-opacity:1.0;stroke:none" width="1.8823529411764639" x="417.88235294117646" y="-10" /><rect height="10" style="fill:rgb(73.4%,16.6%,20.3%);fill-opacity:1.0;stroke:none" width="1.8823529411764639" x="419.76470588235293" y="-10" /><rect height="10" style="fill:rgb(72.8%,15.5%,19.7%);fill-opacity:1.0;stroke:none" width="1.8823529411764639" x="421.64705882352939" y="-10" /><rect height="10" style="fill:rgb(72.3%,14.4%,19.2%);fill-opacity:1.0;stroke:none" width="1.8823529411764639" x="423.52941176470586" y="-10" /><rect height="10" style="fill:rgb(71.7%,13.3%,18.7%);fill-opacity:1.0;stroke:none" width="1.8823529411764639" x="425.41176470588232" y="-10" /><rect height="10" style="fill:rgb(71.2%,12.2%,18.2%);fill-opacity:1.0;stroke:none" width="1.8823529411764639" x="427.29411764705878" y="-10" /><rect height="10" style="fill:rgb(70.6%,11.1%,17.6%);fill-opacity:1.0;stroke:none" width="1.8823529411765207" x="429.17647058823525" y="-10" /><rect height="10" style="fill:rgb(70.1%,9.97%,17.1%);fill-opacity:1.0;stroke:none" width="1.8823529411764639" x="431.05882352941177" y="-10" /><rect height="10" style="fill:rgb(69.2%,9.23%,16.8%);fill-opacity:1.0;stroke:none" width="1.8823529411764639" x="432.94117647058823" y="-10" /><rect height="10" style="fill:rgb(68.1%,8.86%,16.6%);fill-opacity:1.0;stroke:none" width="1.8823529411764639" x="434.8235294117647" y="-10" /><rect height="10" style="fill:rgb(66.9%,8.49%,16.4%);fill-opacity:1.0;stroke:none" width="1.8823529411764639" x="436.70588235294116" y="-10" /><rect height="10" style="fill:rgb(65.8%,8.12%,16.2%);fill-opacity:1.0;stroke:none" width="1.8823529411764639" x="438.58823529411762" y="-10" /><rect height="10" style="fill:rgb(64.6%,7.75%,16%);fill-opacity:1.0;stroke:none" width="1.8823529411764639" x="440.47058823529409" y="-10" /><rect height="10" style="fill:rgb(63.5%,7.38%,15.8%);fill-opacity:1.0;stroke:none" width="1.8823529411765207" x="442.35294117647055" y="-10" /><rect height="10" style="fill:rgb(62.3%,7.01%,15.7%);fill-opacity:1.0;stroke:none" width="1.8823529411764639" x="444.23529411764707" y="-10" /><rect height="10" style="fill:rgb(61.2%,6.64%,15.5%);fill-opacity:1.0;stroke:none" width="1.8823529411764639" x="446.11764705882354" y="-10" /><rect height="10" style="fill:rgb(60%,6.27%,15.3%);fill-opacity:1.0;stroke:none" width="1.8823529411764639" x="448.0" y="-10" /><rect height="10" style="fill:rgb(58.8%,5.91%,15.1%);fill-opacity:1.0;stroke:none" width="1.8823529411764639" x="449.88235294117646" y="-10" /><rect height="10" style="fill:rgb(57.7%,5.54%,14.9%);fill-opacity:1.0;stroke:none" width="1.8823529411764639" x="451.76470588235293" y="-10" /><rect height="10" style="fill:rgb(56.5%,5.17%,14.7%);fill-opacity:1.0;stroke:none" width="1.8823529411764639" x="453.64705882352939" y="-10" /><rect height="10" style="fill:rgb(55.4%,4.8%,14.6%);fill-opacity:1.0;stroke:none" width="1.8823529411764639" x="455.52941176470586" y="-10" /><rect height="10" style="fill:rgb(54.2%,4.43%,14.4%);fill-opacity:1.0;stroke:none" width="1.8823529411764639" x="457.41176470588232" y="-10" /><rect height="10" style="fill:rgb(53.1%,4.06%,14.2%);fill-opacity:1.0;stroke:none" width="1.8823529411765207" x="459.29411764705878" y="-10" /><rect height="10" style="fill:rgb(51.9%,3.69%,14%);fill-opacity:1.0;stroke:none" width="1.8823529411764639" x="461.1764705882353" y="-10" /><rect height="10" style="fill:rgb(50.8%,3.32%,13.8%);fill-opacity:1.0;stroke:none" width="1.8823529411764639" x="463.05882352941177" y="-10" /><rect height="10" style="fill:rgb(49.6%,2.95%,13.6%);fill-opacity:1.0;stroke:none" width="1.8823529411764639" x="464.94117647058823" y="-10" /><rect height="10" style="fill:rgb(48.5%,2.58%,13.4%);fill-opacity:1.0;stroke:none" width="1.8823529411764639" x="466.8235294117647" y="-10" /><rect height="10" style="fill:rgb(47.3%,2.21%,13.3%);fill-opacity:1.0;stroke:none" width="1.8823529411764639" x="468.70588235294116" y="-10" /><rect height="10" style="fill:rgb(46.2%,1.85%,13.1%);fill-opacity:1.0;stroke:none" width="1.8823529411764639" x="470.58823529411762" y="-10" /><rect height="10" style="fill:rgb(45%,1.48%,12.9%);fill-opacity:1.0;stroke:none" width="1.8823529411765207" x="472.47058823529409" y="-10" /><rect height="10" style="fill:rgb(43.9%,1.11%,12.7%);fill-opacity:1.0;stroke:none" width="1.8823529411764639" x="474.35294117647061" y="-10" /><rect height="10" style="fill:rgb(42.7%,0.738%,12.5%);fill-opacity:1.0;stroke:none" width="1.8823529411764639" x="476.23529411764707" y="-10" /><rect height="10" style="fill:rgb(41.5%,0.369%,12.3%);fill-opacity:1.0;stroke:none" width="1.8823529411764639" x="478.11764705882354" y="-10" /></g></g><g class="toyplot-axes-Axis" id="tdebb0039620142d6a343209a9bb2202d" transform="translate(100.0,540.0) rotate(-90.0) translate(0,5)"><line style="" x1="0" x2="480.0" y1="0" y2="0" /><g><text style="alignment-baseline:middle;baseline-shift:-100%;font-size:10px;font-weight:normal;stroke:none;text-anchor:middle" transform="translate(0.0,0) rotate(0)" x="0" y="0">0.0</text><text style="alignment-baseline:middle;baseline-shift:-100%;font-size:10px;font-weight:normal;stroke:none;text-anchor:middle" transform="translate(240.0,0) rotate(0)" x="0" y="0">0.5</text><text style="alignment-baseline:middle;baseline-shift:-100%;font-size:10px;font-weight:normal;stroke:none;text-anchor:middle" transform="translate(480.0,0) rotate(0)" x="0" y="0">1.0</text></g></g></g></svg>