<svg class="toyplot-canvas-Canvas" height="600px" id="t2dc754bcd8304e10b3d8d6195b012661" preserveAspectRatio="xMidYMid meet" style="background-color:transparent;border-color:#292724;border-style:none;border-width:1.0;fill:rgb(16.1%,15.3%,14.1%);fill-opacity:1.0;font-family:Helvetica;font-size:12px;opacity:1.0;stroke:rgb(16.1%,15.3%,14.1%);stroke-opacity:1.0;stroke-width:1.0" viewBox="0 0 600 600" width="600px" xmlns="http://www.w3.org/2000/svg" xmlns:toyplot="http://www.sandia.gov/toyplot" xmlns:xlink="http://www.w3.org/1999/xlink"><g class="toyplot-coordinates-Cartesian" id="tde8d304754064686a1c29ec72f5d4bdf"><clipPath id="tf113e55eef1d4918839c76f4890b9527"><rect height="520.0" width="520.0" x="40.0" y="40.0" /></clipPath><g clip-path="url(#tf113e55eef1d4918839c76f4890b9527)"><g class="toyplot-mark-FillMagnitudes" id="t4f5579e3a91244269c5d0f912784039b" style="stroke:none"><polygon points="50.0,300.0 60.0,300.1041232819658 70.0,300.4164931278634 80.0,300.93710953769255 90.0,301.66597251145356 100.0,302.60308204914617 110.0,303.74843815077054 120.00000000000001,305.10204081632656 130.0,306.66389004581424 140.0,308.4339858392336 150.0,310.4123281965848 160.0,312.59891711786753 170.0,314.99375260308204 180.0,317.59683465222827 190.00000000000003,320.40816326530614 200.0,323.42773844231573 210.0,326.655560183257 220.0,330.09162848812997 230.0,333.7359433569347 240.0,337.588504789671 250.0,341.649312786339 260.0,345.9183673469388 270.0,350.3956684714703 280.0,355.0812161599333 290.0,359.97501041232823 300.0,365.07705122865474 310.0,370.38733860891296 320.0,375.9058725531029 330.00000000000006,381.63265306122446 340.0,387.5676801332778 350.0,393.71095376926274 360.0,400.0624739691795 370.0,406.62224073302787 380.0,413.390254060808 390.0,420.3665139525198 400.0,427.55102040816325 410.0,434.94377342773845 420.0,442.5447730112453 430.0,450.3540191586839 440.0,458.3715118700542 450.0,466.59725114535615 460.0,475.0312369845898 470.0,483.6734693877551 480.0,492.5239483548521 490.0,501.5826738858808 500.0,510.8496459808413 510.0,520.3248646397335 520.0,530.0083298625572 530.0,539.9000416493128 540.0,550.0 540.0,309.99999999999994 530.0,309.59600166597255 520.0,309.2003331945023 510.0,308.8129945855893 500.0,308.4339858392336 490.0,308.0633069554352 480.0,307.70095793419415 470.0,307.34693877551024 460.0,307.0012494793835 450.0,306.66389004581424 440.0,306.3348604748021 430.0,306.0141607663473 420.0,305.70179092044975 410.0,305.3977509371095 400.0,305.10204081632656 390.0,304.81466055810074 380.0,304.5356101624323 370.0,304.2648896293211 360.0,304.00249895876715 350.0,303.74843815077054 340.0,303.5027072053311 330.00000000000006,303.26530612244903 320.0,303.0362349021241 310.0,302.8154935443565 300.0,302.60308204914617 290.0,302.3990004164931 280.0,302.2032486463973 270.0,302.01582673885883 260.0,301.8367346938776 250.0,301.66597251145356 240.0,301.50354019158686 230.0,301.3494377342774 220.0,301.20366513952524 210.0,301.0662224073302 200.0,300.93710953769255 190.00000000000003,300.8163265306123 180.0,300.7038733860891 170.0,300.59975010412325 160.0,300.5039566847147 150.0,300.4164931278634 140.0,300.3373594335694 130.0,300.2665556018326 120.00000000000001,300.2040816326531 110.0,300.14993752603084 100.0,300.1041232819658 90.0,300.0666389004581 80.0,300.0374843815078 70.0,300.01665972511455 60.0,300.00416493127864 50.0,300.0" style="fill:rgb(2%,18.8%,38%);fill-opacity:1.0;opacity:1.0;stroke:none" /><polygon points="50.0,300.0 60.0,300.00416493127864 70.0,300.01665972511455 80.0,300.0374843815078 90.0,300.0666389004581 100.0,300.1041232819658 110.0,300.14993752603084 120.00000000000001,300.2040816326531 130.0,300.2665556018326 140.0,300.3373594335694 150.0,300.4164931278634 160.0,300.5039566847147 170.0,300.59975010412325 180.0,300.7038733860891 190.00000000000003,300.8163265306123 200.0,300.93710953769255 210.0,301.0662224073302 220.0,301.20366513952524 230.0,301.3494377342774 240.0,301.50354019158686 250.0,301.66597251145356 260.0,301.8367346938776 270.0,302.01582673885883 280.0,302.2032486463973 290.0,302.3990004164931 300.0,302.60308204914617 310.0,302.8154935443565 320.0,303.0362349021241 330.00000000000006,303.26530612244903 340.0,303.5027072053311 350.0,303.74843815077054 360.0,304.00249895876715 370.0,304.2648896293211 380.0,304.5356101624323 390.0,304.81466055810074 400.0,305.10204081632656 410.0,305.3977509371095 420.0,305.70179092044975 430.0,306.0141607663473 440.0,306.3348604748021 450.0,306.66389004581424 460.0,307.0012494793835 470.0,307.34693877551024 480.0,307.70095793419415 490.0,308.0633069554352 500.0,308.4339858392336 510.0,308.8129945855893 520.0,309.2003331945023 530.0,309.59600166597255 540.0,309.99999999999994 540.0,189.99999999999994 530.0,194.4439816743024 520.0,198.7963348604748 510.0,203.05705955851724 500.0,207.2261557684298 490.0,211.30362349021243 480.0,215.28946272386509 470.0,219.18367346938777 460.0,222.9862557267805 450.0,226.69720949604334 440.0,230.31653477717623 430.0,233.8442315701791 420.0,237.280299875052 410.0,240.6247396917951 400.0,243.87755102040816 390.0,247.03873386089126 380.0,250.10828821324444 370.0,253.08621407746773 360.0,255.972511453561 350.0,258.76718034152435 340.0,261.47022074135776 330.00000000000006,264.0816326530612 320.0,266.60141607663473 310.0,269.0295710120783 300.0,271.3660974593919 290.0,273.6109954185756 280.0,275.7642648896293 270.0,277.82590587255305 260.0,279.795918367347 250.0,281.67430237401084 240.0,283.4610578925447 230.0,285.15618492294874 220.0,286.7596834652228 210.0,288.2715535193669 200.0,289.69179508538116 190.00000000000003,291.02040816326536 180.0,292.2573927530196 170.0,293.4027488546439 160.0,294.4564764681383 150.0,295.41857559350274 140.0,296.2890462307372 130.0,297.06788837984175 120.00000000000001,297.7551020408163 110.0,298.350687213661 100.0,298.8546438983757 90.0,299.26697209496035 80.0,299.5876718034152 70.0,299.8167430237401 60.0,299.954185755935 50.0,300.0" style="fill:rgb(65.5%,81.4%,89.4%);fill-opacity:1.0;opacity:1.0;stroke:none" /><polygon points="50.0,300.0 60.0,299.954185755935 70.0,299.8167430237401 80.0,299.5876718034152 90.0,299.26697209496035 100.0,298.8546438983757 110.0,298.350687213661 120.00000000000001,297.7551020408163 130.0,297.06788837984175 140.0,296.2890462307372 150.0,295.41857559350274 160.0,294.4564764681383 170.0,293.4027488546439 180.0,292.2573927530196 190.00000000000003,291.02040816326536 200.0,289.69179508538116 210.0,288.2715535193669 220.0,286.7596834652228 230.0,285.15618492294874 240.0,283.4610578925447 250.0,281.67430237401084 260.0,279.795918367347 270.0,277.82590587255305 280.0,275.7642648896293 290.0,273.6109954185756 300.0,271.3660974593919 310.0,269.0295710120783 320.0,266.60141607663473 330.00000000000006,264.0816326530612 340.0,261.47022074135776 350.0,258.76718034152435 360.0,255.972511453561 370.0,253.08621407746773 380.0,250.10828821324444 390.0,247.03873386089126 400.0,243.87755102040816 410.0,240.6247396917951 420.0,237.280299875052 430.0,233.8442315701791 440.0,230.31653477717623 450.0,226.69720949604334 460.0,222.9862557267805 470.0,219.18367346938777 480.0,215.28946272386509 490.0,211.30362349021243 500.0,207.2261557684298 510.0,203.05705955851724 520.0,198.7963348604748 530.0,194.4439816743024 540.0,189.99999999999994 540.0,109.99999999999994 530.0,117.6759683465223 520.0,125.19366930445648 510.0,132.55310287380257 500.0,139.75426905456064 490.0,146.79716784673053 480.0,153.68179925031234 470.0,160.40816326530611 460.0,166.9762598917118 450.0,173.38608912952935 440.0,179.6376509787589 430.0,185.73094543940024 420.0,191.66597251145356 410.0,197.44273219491876 400.0,203.0612244897959 390.0,208.52144939608496 380.0,213.82340691378593 370.0,218.96709704289879 360.0,223.95251978342355 350.0,228.77967513536032 340.0,233.44856309870883 330.00000000000006,237.9591836734694 320.0,242.3115368596418 310.0,246.50562265722616 300.0,250.5414410662224 290.0,254.41899208663057 280.0,258.13827571845064 270.0,261.6992919616826 260.0,265.1020408163265 250.0,268.34652228238235 240.0,271.43273635985 230.0,274.3606830487297 220.0,277.1303623490212 210.0,279.74177426072475 200.0,282.1949187838401 190.00000000000003,284.4897959183673 180.0,286.62640566430656 170.0,288.60474802165766 160.0,290.42482299042064 150.0,292.0866305705956 140.0,293.5901707621824 130.0,294.9354435651812 120.00000000000001,296.1224489795918 110.0,297.15118700541444 100.0,298.0216576426489 90.0,298.73386089129525 80.0,299.28779675135354 70.0,299.6834652228238 60.0,299.92086630570594 50.0,300.0" style="fill:rgb(96.9%,71.8%,60%);fill-opacity:1.0;opacity:1.0;stroke:none" /><polygon points="50.0,300.0 60.0,299.92086630570594 70.0,299.6834652228238 80.0,299.28779675135354 90.0,298.73386089129525 100.0,298.0216576426489 110.0,297.15118700541444 120.00000000000001,296.1224489795918 130.0,294.9354435651812 140.0,293.5901707621824 150.0,292.0866305705956 160.0,290.42482299042064 170.0,288.60474802165766 180.0,286.62640566430656 190.00000000000003,284.4897959183673 200.0,282.1949187838401 210.0,279.74177426072475 220.0,277.1303623490212 230.0,274.3606830487297 240.0,271.43273635985 250.0,268.34652228238235 260.0,265.1020408163265 270.0,261.6992919616826 280.0,258.13827571845064 290.0,254.41899208663057 300.0,250.5414410662224 310.0,246.50562265722616 320.0,242.3115368596418 330.00000000000006,237.9591836734694 340.0,233.44856309870883 350.0,228.77967513536032 360.0,223.95251978342355 370.0,218.96709704289879 380.0,213.82340691378593 390.0,208.52144939608496 400.0,203.0612244897959 410.0,197.44273219491876 420.0,191.66597251145356 430.0,185.73094543940024 440.0,179.6376509787589 450.0,173.38608912952935 460.0,166.9762598917118 470.0,160.40816326530611 480.0,153.68179925031234 490.0,146.79716784673053 500.0,139.75426905456064 510.0,132.55310287380257 520.0,125.19366930445648 530.0,117.6759683465223 540.0,109.99999999999994 540.0,50.0 530.0,60.09995835068717 520.0,69.9916701374428 510.0,79.67513536026655 500.0,89.15035401915867 490.0,98.41732611411913 480.0,107.47605164514792 470.0,116.32653061224492 460.0,124.96876301541022 450.0,133.40274885464387 440.0,141.6284881299459 430.0,149.6459808413161 420.0,157.45522698875465 410.0,165.05622657226155 400.0,172.4489795918367 390.0,179.63348604748023 380.0,186.609745939192 370.0,193.3777592669721 360.0,199.93752603082044 350.0,206.2890462307372 340.0,212.4323198667222 330.00000000000006,218.3673469387755 320.0,224.09412744689718 310.0,229.61266139108704 300.0,234.92294877134523 290.0,240.02498958767177 280.0,244.9187838400666 270.0,249.6043315285298 260.0,254.08163265306123 250.0,258.350687213661 240.0,262.411495210329 230.0,266.26405664306543 220.0,269.90837151187003 210.0,273.344439816743 200.0,276.5722615576843 190.00000000000003,279.59183673469386 180.0,282.4031653477718 170.0,285.00624739691796 160.0,287.40108288213247 150.0,289.5876718034153 140.0,291.5660141607664 130.0,293.33610995418576 120.00000000000001,294.89795918367344 110.0,296.25156184922946 100.0,297.39691795085383 90.0,298.33402748854644 80.0,299.06289046230745 70.0,299.5835068721366 60.0,299.8958767180342 50.0,300.0" style="fill:rgb(40.4%,0%,12.2%);fill-opacity:1.0;opacity:1.0;stroke:none" /></g></g><g class="toyplot-coordinates-Axis" id="t016b825864344b3784f243d7c13c0db6" transform="translate(50.0,550.0)translate(0,10.0)"><line style="" x1="0" x2="490.0" y1="0" y2="0" /><g><g transform="translate(0.0,6)"><text style="fill:rgb(16.1%,15.3%,14.1%);fill-opacity:1.0;font-family:helvetica;font-size:10.0px;font-weight:normal;stroke:none;vertical-align:baseline;white-space:pre" x="-2.78" y="8.555">0</text></g><g transform="translate(100.0,6)"><text style="fill:rgb(16.1%,15.3%,14.1%);fill-opacity:1.0;font-family:helvetica;font-size:10.0px;font-weight:normal;stroke:none;vertical-align:baseline;white-space:pre" x="-5.56" y="8.555">10</text></g><g transform="translate(200.0,6)"><text style="fill:rgb(16.1%,15.3%,14.1%);fill-opacity:1.0;font-family:helvetica;font-size:10.0px;font-weight:normal;stroke:none;vertical-align:baseline;white-space:pre" x="-5.56" y="8.555">20</text></g><g transform="translate(300.0,6)"><text style="fill:rgb(16.1%,15.3%,14.1%);fill-opacity:1.0;font-family:helvetica;font-size:10.0px;font-weight:normal;stroke:none;vertical-align:baseline;white-space:pre" x="-5.56" y="8.555">30</text></g><g transform="translate(400.0,6)"><text style="fill:rgb(16.1%,15.3%,14.1%);fill-opacity:1.0;font-family:helvetica;font-size:10.0px;font-weight:normal;stroke:none;vertical-align:baseline;white-space:pre" x="-5.56" y="8.555">40</text></g><g transform="translate(500.0,6)"><text style="fill:rgb(16.1%,15.3%,14.1%);fill-opacity:1.0;font-family:helvetica;font-size:10.0px;font-weight:normal;stroke:none;vertical-align:baseline;white-space:pre" x="-5.56" y="8.555">50</text></g></g><g class="toyplot-coordinates-Axis-coordinates" style="visibility:hidden" transform=""><line style="stroke:rgb(43.9%,50.2%,56.5%);stroke-opacity:1.0;stroke-width:1.0" x1="0" x2="0" y1="-3.0" y2="4.5" /><text style="alignment-baseline:alphabetic;fill:rgb(43.9%,50.2%,56.5%);fill-opacity:1.0;font-size:10px;font-weight:normal;stroke:none;text-anchor:middle" x="0" y="-6" /></g></g><g class="toyplot-coordinates-Axis" id="t95fc818f4ecf4a8a8b2e17f2def57efd" transform="translate(50.0,550.0)rotate(-90.0)translate(0,-10.0)"><line style="" x1="0" x2="500.0" y1="0" y2="0" /><g><g transform="translate(9.999999999999966,-6)"><text style="fill:rgb(16.1%,15.3%,14.1%);fill-opacity:1.0;font-family:helvetica;font-size:10.0px;font-weight:normal;stroke:none;vertical-align:baseline;white-space:pre" x="-4.445" y="-4.440892098500626e-16">-1</text></g><g transform="translate(250.0,-6)"><text style="fill:rgb(16.1%,15.3%,14.1%);fill-opacity:1.0;font-family:helvetica;font-size:10.0px;font-weight:normal;stroke:none;vertical-align:baseline;white-space:pre" x="-2.78" y="-4.440892098500626e-16">0</text></g><g transform="translate(490.00000000000006,-6)"><text style="fill:rgb(16.1%,15.3%,14.1%);fill-opacity:1.0;font-family:helvetica;font-size:10.0px;font-weight:normal;stroke:none;vertical-align:baseline;white-space:pre" x="-2.78" y="-4.440892098500626e-16">1</text></g></g><g class="toyplot-coordinates-Axis-coordinates" style="visibility:hidden" transform=""><line style="stroke:rgb(43.9%,50.2%,56.5%);stroke-opacity:1.0;stroke-width:1.0" x1="0" x2="0" y1="3.0" y2="-4.5" /><text style="alignment-baseline:hanging;fill:rgb(43.9%,50.2%,56.5%);fill-opacity:1.0;font-size:10px;font-weight:normal;stroke:none;text-anchor:middle" x="0" y="6" /></g></g></g></svg>