<svg height="600px" id="tcdbe56bd98f242eba5eef432d989cf27" preserveAspectRatio="xMidYMid meet" style="background-color:transparent;fill:rgb(16.1%,15.3%,14.1%);fill-opacity:1.0;font-family:helvetica;font-size:12px;opacity:1.0;stroke:rgb(16.1%,15.3%,14.1%);stroke-opacity:1.0;stroke-width:1.0" viewBox="0 0 600 600" width="600px" xmlns="http://www.w3.org/2000/svg" xmlns:toyplot="http://www.sandia.gov/toyplot"><g class="toyplot-axes-Cartesian" id="tca459bdb61984481b87aa1f83b0df5cb"><clipPath id="taeec55c1e0834f7d80285453602ba529"><rect height="500.0" width="500.0" x="50.0" y="50.0" /></clipPath><g class="toyplot-coordinate-events" clip-path="url(#taeec55c1e0834f7d80285453602ba529)" style="cursor:crosshair"><rect height="500.0" style="pointer-events:all;visibility:hidden" width="500.0" x="50.0" y="50.0" /><g class="toyplot-mark-Plot" id="t1173cd27c370439cadb978fb71095838" style="fill:none"><g class="toyplot-Series"><path d="M 60.0 540.0 L 69.599999999999994 539.80008329862562 L 79.199999999999989 539.20033319450226 L 88.799999999999997 538.20074968763015 L 98.400000000000006 536.80133277800917 L 108.0 535.00208246563932 L 117.59999999999999 532.8029987505206 L 127.20000000000002 530.20408163265301 L 136.80000000000001 527.20533111203667 L 146.40000000000001 523.80674718867135 L 156.0 520.00832986255739 L 165.59999999999999 515.81007913369422 L 175.19999999999999 511.21199500208246 L 184.80000000000001 506.21407746772184 L 194.40000000000001 500.81632653061229 L 204.0 495.01874219075387 L 213.60000000000002 488.82132444814664 L 223.20000000000002 482.22407330279049 L 232.80000000000001 475.22698875468558 L 242.39999999999998 467.83007080383175 L 252.0 460.0333194502291 L 261.59999999999997 451.83673469387753 L 271.19999999999999 443.24031653477721 L 280.80000000000001 434.24406497292796 L 290.39999999999998 424.84798000832984 L 300.0 415.05206164098291 L 309.60000000000002 404.85630987088712 L 319.20000000000005 394.26072469804251 L 328.80000000000001 383.26530612244898 L 338.39999999999998 371.87005414410658 L 348.0 360.07496876301548 L 357.60000000000002 347.88004997917534 L 367.20000000000005 335.28529779258645 L 376.80000000000001 322.29071220324863 L 386.40000000000003 308.89629321116195 L 396.0 295.10204081632656 L 405.60000000000002 280.90795501874226 L 415.20000000000005 266.31403581840902 L 424.79999999999995 251.32028321532695 L 434.39999999999998 235.92669720949613 L 444.0 220.13327780091635 L 453.59999999999997 203.94002498958773 L 463.19999999999999 187.34693877551024 L 472.79999999999995 170.35401915868394 L 482.39999999999998 152.9612661391088 L 492.0 135.16867971678477 L 501.60000000000002 116.97625989171185 L 511.19999999999999 98.384006663890062 L 520.79999999999995 79.391920033319465 L 530.40000000000009 60.0" style="fill:none;stroke:rgb(40%,76.1%,64.7%);stroke-opacity:1.0;stroke-width:2.0" /></g><g class="toyplot-Series"><path d="M 60.0 540.0 L 69.599999999999994 539.90004164931281 L 79.199999999999989 539.60016659725113 L 88.799999999999997 539.10037484381508 L 98.400000000000006 538.40066638900453 L 108.0 537.50104123281972 L 117.59999999999999 536.40149937526019 L 127.20000000000002 535.10204081632651 L 136.80000000000001 533.60266555601834 L 146.40000000000001 531.90337359433568 L 156.0 530.00416493127864 L 165.59999999999999 527.90503956684711 L 175.19999999999999 525.6059975010412 L 184.80000000000001 523.10703873386092 L 194.40000000000001 520.40816326530614 L 204.0 517.50937109537688 L 213.60000000000002 514.41066222407335 L 223.20000000000002 511.11203665139527 L 232.80000000000001 507.61349437734282 L 242.39999999999998 503.91503540191587 L 252.0 500.01665972511455 L 261.59999999999997 495.91836734693879 L 271.19999999999999 491.6201582673886 L 280.80000000000001 487.12203248646404 L 290.39999999999998 482.42399000416492 L 300.0 477.52603082049148 L 309.60000000000002 472.42815493544356 L 319.20000000000005 467.13036234902125 L 328.80000000000001 461.63265306122452 L 338.39999999999998 455.93502707205329 L 348.0 450.03748438150774 L 357.60000000000002 443.9400249895877 L 367.20000000000005 437.64264889629322 L 376.80000000000001 431.14535610162432 L 386.40000000000003 424.44814660558103 L 396.0 417.55102040816325 L 405.60000000000002 410.45397750937104 L 415.20000000000005 403.15701790920451 L 424.79999999999995 395.66014160766349 L 434.39999999999998 387.96334860474803 L 444.0 380.0666389004582 L 453.59999999999997 371.97001249479388 L 463.19999999999999 363.67346938775512 L 472.79999999999995 355.17700957934204 L 482.39999999999998 346.48063306955441 L 492.0 337.58433985839235 L 501.60000000000002 328.48812994585592 L 511.19999999999999 319.19200333194499 L 520.79999999999995 309.69596001665974 L 530.40000000000009 300.0" style="fill:none;stroke:rgb(98.8%,55.3%,38.4%);stroke-opacity:1.0;stroke-width:2.0" /></g><g class="toyplot-Series"><path d="M 60.0 540.0 L 69.599999999999994 539.93336109954191 L 79.199999999999989 539.73344439816742 L 88.799999999999997 539.40024989587664 L 98.400000000000006 538.9337775926698 L 108.0 538.33402748854644 L 117.59999999999999 537.6009995835069 L 127.20000000000002 536.73469387755108 L 136.80000000000001 535.73511037067897 L 146.40000000000001 534.60224906289045 L 156.0 533.33610995418576 L 165.59999999999999 531.93669304456478 L 175.19999999999999 530.40399833402751 L 184.80000000000001 528.73802582257395 L 194.40000000000001 526.93877551020398 L 204.0 525.00624739691796 L 213.60000000000002 522.94044148271553 L 223.20000000000002 520.74135776759681 L 232.80000000000001 518.40899625156192 L 242.39999999999998 515.94335693461062 L 252.0 513.34443981674303 L 261.59999999999997 510.61224489795921 L 271.19999999999999 507.74677217825911 L 280.80000000000001 504.7480216576426 L 290.39999999999998 501.61599333610991 L 300.0 498.35068721366099 L 309.60000000000002 494.95210329029572 L 319.20000000000005 491.42024156601417 L 328.80000000000001 487.75510204081633 L 338.39999999999998 483.95668471470225 L 348.0 480.02498958767183 L 357.60000000000002 475.96001665972511 L 367.20000000000005 471.76176593086217 L 376.80000000000001 467.43023740108288 L 386.40000000000003 462.96543107038735 L 396.0 458.36734693877554 L 405.60000000000002 453.63598500624744 L 415.20000000000005 448.77134527280299 L 424.79999999999995 443.77342773844231 L 434.39999999999998 438.64223240316539 L 444.0 433.37775926697213 L 453.59999999999997 427.98000832986259 L 463.19999999999999 422.4489795918368 L 472.79999999999995 416.78467305289462 L 482.39999999999998 410.9870887130362 L 492.0 405.05622657226161 L 501.60000000000002 398.99208663057061 L 511.19999999999999 392.79466888796338 L 520.79999999999995 386.46397334443986 L 530.40000000000009 380.00000000000006" style="fill:none;stroke:rgb(55.3%,62.7%,79.6%);stroke-opacity:1.0;stroke-width:2.0" /></g><g class="toyplot-Series"><path d="M 60.0 540.0 L 69.599999999999994 539.95002082465635 L 79.199999999999989 539.80008329862562 L 88.799999999999997 539.55018742190759 L 98.400000000000006 539.20033319450226 L 108.0 538.75052061640986 L 117.59999999999999 538.20074968763015 L 127.20000000000002 537.55102040816337 L 136.80000000000001 536.80133277800917 L 146.40000000000001 535.95168679716789 L 156.0 535.00208246563932 L 165.59999999999999 533.95251978342355 L 175.19999999999999 532.8029987505206 L 184.80000000000001 531.55351936693046 L 194.40000000000001 530.20408163265301 L 204.0 528.7546855476885 L 213.60000000000002 527.20533111203667 L 223.20000000000002 525.55601832569766 L 232.80000000000001 523.80674718867135 L 242.39999999999998 521.95751770095785 L 252.0 520.00832986255739 L 261.59999999999997 517.9591836734694 L 271.19999999999999 515.81007913369422 L 280.80000000000001 513.56101624323196 L 290.39999999999998 511.21199500208246 L 300.0 508.76301541024571 L 309.60000000000002 506.21407746772184 L 319.20000000000005 503.5651811745106 L 328.80000000000001 500.81632653061229 L 338.39999999999998 497.96751353602667 L 348.0 495.01874219075387 L 357.60000000000002 491.97001249479388 L 367.20000000000005 488.82132444814664 L 376.80000000000001 485.57267805081216 L 386.40000000000003 482.22407330279049 L 396.0 478.77551020408168 L 405.60000000000002 475.22698875468558 L 415.20000000000005 471.57850895460234 L 424.79999999999995 467.83007080383175 L 434.39999999999998 463.98167430237402 L 444.0 460.0333194502291 L 453.59999999999997 455.98500624739694 L 463.19999999999999 451.83673469387753 L 472.79999999999995 447.58850478967099 L 482.39999999999998 443.24031653477721 L 492.0 438.79216992919618 L 501.60000000000002 434.24406497292796 L 511.19999999999999 429.59600166597255 L 520.79999999999995 424.84798000832984 L 530.40000000000009 420.0" style="fill:none;stroke:rgb(90.6%,54.1%,76.5%);stroke-opacity:1.0;stroke-width:2.0" /></g></g></g><g class="toyplot-coordinates" style="visibility:hidden"><rect height="14.0" style="fill:rgb(100%,100%,100%);fill-opacity:1.0;opacity:0.75;stroke:none" width="90.0" x="450.0" y="60.0" /><text style="alignment-baseline:middle;font-size:10px;font-weight:normal;stroke:none;text-anchor:middle" x="495.0" y="67.0" /></g><line style="" x1="60.0" x2="530.4000000000001" y1="550.0" y2="550.0" /><g><text style="alignment-baseline:middle;baseline-shift:-80%;font-size:10px;font-weight:normal;stroke:none;text-anchor:middle" x="60.0" y="550.0">0</text><text style="alignment-baseline:middle;baseline-shift:-80%;font-size:10px;font-weight:normal;stroke:none;text-anchor:middle" x="156.0" y="550.0">10</text><text style="alignment-baseline:middle;baseline-shift:-80%;font-size:10px;font-weight:normal;stroke:none;text-anchor:middle" x="252.0" y="550.0">20</text><text style="alignment-baseline:middle;baseline-shift:-80%;font-size:10px;font-weight:normal;stroke:none;text-anchor:middle" x="348.0" y="550.0">30</text><text style="alignment-baseline:middle;baseline-shift:-80%;font-size:10px;font-weight:normal;stroke:none;text-anchor:middle" x="444.0" y="550.0">40</text><text style="alignment-baseline:middle;baseline-shift:-80%;font-size:10px;font-weight:normal;stroke:none;text-anchor:middle" x="540.0" y="550.0">50</text></g><line style="" x1="50.0" x2="50.0" y1="60.0" y2="540.0" /><g><text style="alignment-baseline:middle;baseline-shift:80%;font-size:10px;font-weight:normal;stroke:none;text-anchor:middle" transform="rotate(-90, 50.0, 540.0)" x="50.0" y="540.0">0.0</text><text style="alignment-baseline:middle;baseline-shift:80%;font-size:10px;font-weight:normal;stroke:none;text-anchor:middle" transform="rotate(-90, 50.0, 300.0)" x="50.0" y="300.0">0.5</text><text style="alignment-baseline:middle;baseline-shift:80%;font-size:10px;font-weight:normal;stroke:none;text-anchor:middle" transform="rotate(-90, 50.0, 60.0)" x="50.0" y="60.0">1.0</text></g></g></svg>