<svg height="600px" id="t9fff47a9e71543e9afc49a2aba5d8019" preserveAspectRatio="xMidYMid meet" style="background-color:transparent;fill:rgb(16.1%,15.3%,14.1%);fill-opacity:1.0;font-family:Helvetica;font-size:12px;opacity:1.0;stroke:rgb(16.1%,15.3%,14.1%);stroke-opacity:1.0;stroke-width:1.0" viewBox="0 0 600 600" width="600px" xmlns="http://www.w3.org/2000/svg" xmlns:toyplot="http://www.sandia.gov/toyplot"><g class="toyplot-axes-Cartesian" id="ta4ebe1bbb8b14de3b3168afd2010039b"><clipPath id="t52350a4e26e84721998c7375ef187b87"><rect height="520.0" width="520.0" x="40.0" y="40.0" /></clipPath><g class="toyplot-coordinate-events" clip-path="url(#t52350a4e26e84721998c7375ef187b87)" style="cursor:crosshair"><rect height="520.0" style="pointer-events:all;visibility:hidden" width="520.0" x="40.0" y="40.0" /></g><g class="toyplot-coordinates" style="visibility:hidden"><rect height="14.0" style="fill:rgb(100%,100%,100%);fill-opacity:1.0;opacity:0.75;stroke:none" width="90.0" x="450.0" y="60.0" /><text style="alignment-baseline:middle;font-size:10px;font-weight:normal;stroke:none;text-anchor:middle" x="495.0" y="67.0" /></g><g class="toyplot-axes-Axis" id="t8fb39ecef63a4f9d9b2d126623d7ec97" transform="translate(50.0,550.0) rotate(0.0) translate(0,10.0)"><line style="" x1="0" x2="500.0" y1="0" y2="0" /><g><text style="alignment-baseline:middle;baseline-shift:-80%;font-size:10px;font-weight:normal;stroke:none;text-anchor:middle" transform="translate(0.0,0) rotate(0)" x="0" y="0">-0.5</text><text style="alignment-baseline:middle;baseline-shift:-80%;font-size:10px;font-weight:normal;stroke:none;text-anchor:middle" transform="translate(250.0,0) rotate(0)" x="0" y="0">0.0</text><text style="alignment-baseline:middle;baseline-shift:-80%;font-size:10px;font-weight:normal;stroke:none;text-anchor:middle" transform="translate(500.0,0) rotate(0)" x="0" y="0">0.5</text></g></g><g class="toyplot-axes-Axis" id="ta54b0f0cd8b64f278a6ebc035725ec7c" transform="translate(50.0,550.0) rotate(-90.0) translate(0,-10.0)"><line style="" x1="0" x2="500.0" y1="0" y2="0" /><g><text style="alignment-baseline:middle;baseline-shift:80%;font-size:10px;font-weight:normal;stroke:none;text-anchor:middle" transform="translate(0.0,0) rotate(0)" x="0" y="0">-0.5</text><text style="alignment-baseline:middle;baseline-shift:80%;font-size:10px;font-weight:normal;stroke:none;text-anchor:middle" transform="translate(250.0,0) rotate(0)" x="0" y="0">0.0</text><text style="alignment-baseline:middle;baseline-shift:80%;font-size:10px;font-weight:normal;stroke:none;text-anchor:middle" transform="translate(500.0,0) rotate(0)" x="0" y="0">0.5</text></g></g></g><g class="toyplot-axes-NumberLine" id="t8341dbb94ea84ff49cb3a31c46a43154"><g class="toyplot-coordinate-events"><g class="toyplot-color-LinearMap" id="t2f6939879e5f40be96a56b77b51dd1a1" transform="translate(570.0,550.0) rotate(-90.0)"><rect height="10" style="fill:rgb(1.96%,18.8%,38%);fill-opacity:1.0;stroke:none" width="1.9607843137254901" x="0.0" y="-10" /><rect height="10" style="fill:rgb(2.39%,19.7%,39.2%);fill-opacity:1.0;stroke:none" width="1.9607843137254901" x="1.9607843137254901" y="-10" /><rect height="10" style="fill:rgb(2.82%,20.5%,40.3%);fill-opacity:1.0;stroke:none" width="1.9607843137254899" x="3.9215686274509802" y="-10" /><rect height="10" style="fill:rgb(3.25%,21.3%,41.5%);fill-opacity:1.0;stroke:none" width="1.9607843137254903" x="5.8823529411764701" y="-10" /><rect height="10" style="fill:rgb(3.68%,22.1%,42.7%);fill-opacity:1.0;stroke:none" width="1.9607843137254912" x="7.8431372549019605" y="-10" /><rect height="10" style="fill:rgb(4.11%,23%,43.8%);fill-opacity:1.0;stroke:none" width="1.9607843137254886" x="9.8039215686274517" y="-10" /><rect height="10" style="fill:rgb(4.54%,23.8%,45%);fill-opacity:1.0;stroke:none" width="1.9607843137254903" x="11.76470588235294" y="-10" /><rect height="10" style="fill:rgb(4.98%,24.6%,46.1%);fill-opacity:1.0;stroke:none" width="1.9607843137254903" x="13.725490196078431" y="-10" /><rect height="10" style="fill:rgb(5.41%,25.5%,47.3%);fill-opacity:1.0;stroke:none" width="1.9607843137254921" x="15.686274509803921" y="-10" /><rect height="10" style="fill:rgb(5.84%,26.3%,48.4%);fill-opacity:1.0;stroke:none" width="1.9607843137254903" x="17.647058823529413" y="-10" /><rect height="10" style="fill:rgb(6.27%,27.1%,49.6%);fill-opacity:1.0;stroke:none" width="1.9607843137254868" x="19.607843137254903" y="-10" /><rect height="10" style="fill:rgb(6.7%,28%,50.7%);fill-opacity:1.0;stroke:none" width="1.9607843137254903" x="21.56862745098039" y="-10" /><rect height="10" style="fill:rgb(7.13%,28.8%,51.9%);fill-opacity:1.0;stroke:none" width="1.9607843137254903" x="23.52941176470588" y="-10" /><rect height="10" style="fill:rgb(7.56%,29.6%,53%);fill-opacity:1.0;stroke:none" width="1.9607843137254903" x="25.490196078431371" y="-10" /><rect height="10" style="fill:rgb(7.99%,30.4%,54.2%);fill-opacity:1.0;stroke:none" width="1.9607843137254903" x="27.450980392156861" y="-10" /><rect height="10" style="fill:rgb(8.42%,31.3%,55.3%);fill-opacity:1.0;stroke:none" width="1.9607843137254903" x="29.411764705882351" y="-10" /><rect height="10" style="fill:rgb(8.85%,32.1%,56.5%);fill-opacity:1.0;stroke:none" width="1.9607843137254939" x="31.372549019607842" y="-10" /><rect height="10" style="fill:rgb(9.28%,32.9%,57.6%);fill-opacity:1.0;stroke:none" width="1.9607843137254903" x="33.333333333333336" y="-10" /><rect height="10" style="fill:rgb(9.71%,33.8%,58.8%);fill-opacity:1.0;stroke:none" width="1.9607843137254903" x="35.294117647058826" y="-10" /><rect height="10" style="fill:rgb(10.1%,34.6%,60%);fill-opacity:1.0;stroke:none" width="1.9607843137254903" x="37.254901960784316" y="-10" /><rect height="10" style="fill:rgb(10.6%,35.4%,61.1%);fill-opacity:1.0;stroke:none" width="1.9607843137254903" x="39.215686274509807" y="-10" /><rect height="10" style="fill:rgb(11%,36.3%,62.3%);fill-opacity:1.0;stroke:none" width="1.9607843137254832" x="41.176470588235297" y="-10" /><rect height="10" style="fill:rgb(11.4%,37.1%,63.4%);fill-opacity:1.0;stroke:none" width="1.9607843137254903" x="43.13725490196078" y="-10" /><rect height="10" style="fill:rgb(11.9%,37.9%,64.6%);fill-opacity:1.0;stroke:none" width="1.9607843137254903" x="45.098039215686271" y="-10" /><rect height="10" style="fill:rgb(12.3%,38.8%,65.7%);fill-opacity:1.0;stroke:none" width="1.9607843137254903" x="47.058823529411761" y="-10" /><rect height="10" style="fill:rgb(12.7%,39.6%,66.9%);fill-opacity:1.0;stroke:none" width="1.9607843137254903" x="49.019607843137251" y="-10" /><rect height="10" style="fill:rgb(13.2%,40.3%,67.6%);fill-opacity:1.0;stroke:none" width="1.9607843137254903" x="50.980392156862742" y="-10" /><rect height="10" style="fill:rgb(13.7%,41%,68%);fill-opacity:1.0;stroke:none" width="1.9607843137254903" x="52.941176470588232" y="-10" /><rect height="10" style="fill:rgb(14.2%,41.7%,68.3%);fill-opacity:1.0;stroke:none" width="1.9607843137254903" x="54.901960784313722" y="-10" /><rect height="10" style="fill:rgb(14.8%,42.4%,68.7%);fill-opacity:1.0;stroke:none" width="1.9607843137254903" x="56.862745098039213" y="-10" /><rect height="10" style="fill:rgb(15.3%,43.1%,69%);fill-opacity:1.0;stroke:none" width="1.9607843137254903" x="58.823529411764703" y="-10" /><rect height="10" style="fill:rgb(15.8%,43.8%,69.4%);fill-opacity:1.0;stroke:none" width="1.9607843137254903" x="60.784313725490193" y="-10" /><rect height="10" style="fill:rgb(16.3%,44.5%,69.8%);fill-opacity:1.0;stroke:none" width="1.9607843137254903" x="62.745098039215684" y="-10" /><rect height="10" style="fill:rgb(16.9%,45.2%,70.1%);fill-opacity:1.0;stroke:none" width="1.9607843137254974" x="64.705882352941174" y="-10" /><rect height="10" style="fill:rgb(17.4%,45.9%,70.5%);fill-opacity:1.0;stroke:none" width="1.9607843137254974" x="66.666666666666671" y="-10" /><rect height="10" style="fill:rgb(17.9%,46.6%,70.8%);fill-opacity:1.0;stroke:none" width="1.9607843137254832" x="68.627450980392169" y="-10" /><rect height="10" style="fill:rgb(18.4%,47.3%,71.2%);fill-opacity:1.0;stroke:none" width="1.9607843137254832" x="70.588235294117652" y="-10" /><rect height="10" style="fill:rgb(19%,48%,71.5%);fill-opacity:1.0;stroke:none" width="1.9607843137254974" x="72.549019607843135" y="-10" /><rect height="10" style="fill:rgb(19.5%,48.7%,71.9%);fill-opacity:1.0;stroke:none" width="1.9607843137254974" x="74.509803921568633" y="-10" /><rect height="10" style="fill:rgb(20%,49.3%,72.2%);fill-opacity:1.0;stroke:none" width="1.9607843137254832" x="76.47058823529413" y="-10" /><rect height="10" style="fill:rgb(20.5%,50%,72.6%);fill-opacity:1.0;stroke:none" width="1.9607843137254832" x="78.431372549019613" y="-10" /><rect height="10" style="fill:rgb(21%,50.7%,72.9%);fill-opacity:1.0;stroke:none" width="1.9607843137254974" x="80.392156862745097" y="-10" /><rect height="10" style="fill:rgb(21.6%,51.4%,73.3%);fill-opacity:1.0;stroke:none" width="1.9607843137254832" x="82.352941176470594" y="-10" /><rect height="10" style="fill:rgb(22.1%,52.1%,73.6%);fill-opacity:1.0;stroke:none" width="1.9607843137254832" x="84.313725490196077" y="-10" /><rect height="10" style="fill:rgb(22.6%,52.8%,74%);fill-opacity:1.0;stroke:none" width="1.9607843137254832" x="86.274509803921561" y="-10" /><rect height="10" style="fill:rgb(23.1%,53.5%,74.3%);fill-opacity:1.0;stroke:none" width="1.9607843137254974" x="88.235294117647044" y="-10" /><rect height="10" style="fill:rgb(23.7%,54.2%,74.7%);fill-opacity:1.0;stroke:none" width="1.9607843137254974" x="90.196078431372541" y="-10" /><rect height="10" style="fill:rgb(24.2%,54.9%,75.1%);fill-opacity:1.0;stroke:none" width="1.9607843137254832" x="92.156862745098039" y="-10" /><rect height="10" style="fill:rgb(24.7%,55.6%,75.4%);fill-opacity:1.0;stroke:none" width="1.9607843137254832" x="94.117647058823522" y="-10" /><rect height="10" style="fill:rgb(25.2%,56.3%,75.8%);fill-opacity:1.0;stroke:none" width="1.9607843137254974" x="96.078431372549005" y="-10" /><rect height="10" style="fill:rgb(25.8%,57%,76.1%);fill-opacity:1.0;stroke:none" width="1.9607843137254974" x="98.039215686274503" y="-10" /><rect height="10" style="fill:rgb(26.3%,57.6%,76.5%);fill-opacity:1.0;stroke:none" width="1.9607843137254832" x="100.0" y="-10" /><rect height="10" style="fill:rgb(27.5%,58.4%,76.9%);fill-opacity:1.0;stroke:none" width="1.9607843137254832" x="101.96078431372548" y="-10" /><rect height="10" style="fill:rgb(28.7%,59.2%,77.3%);fill-opacity:1.0;stroke:none" width="1.9607843137254974" x="103.92156862745097" y="-10" /><rect height="10" style="fill:rgb(29.9%,60%,77.7%);fill-opacity:1.0;stroke:none" width="1.9607843137254974" x="105.88235294117646" y="-10" /><rect height="10" style="fill:rgb(31.1%,60.7%,78.1%);fill-opacity:1.0;stroke:none" width="1.9607843137254832" x="107.84313725490196" y="-10" /><rect height="10" style="fill:rgb(32.3%,61.5%,78.5%);fill-opacity:1.0;stroke:none" width="1.9607843137254832" x="109.80392156862744" y="-10" /><rect height="10" style="fill:rgb(33.6%,62.3%,79%);fill-opacity:1.0;stroke:none" width="1.9607843137254974" x="111.76470588235293" y="-10" /><rect height="10" style="fill:rgb(34.8%,63%,79.4%);fill-opacity:1.0;stroke:none" width="1.9607843137254974" x="113.72549019607843" y="-10" /><rect height="10" style="fill:rgb(36%,63.8%,79.8%);fill-opacity:1.0;stroke:none" width="1.9607843137254832" x="115.68627450980392" y="-10" /><rect height="10" style="fill:rgb(37.2%,64.6%,80.2%);fill-opacity:1.0;stroke:none" width="1.9607843137254832" x="117.64705882352941" y="-10" /><rect height="10" style="fill:rgb(38.4%,65.3%,80.6%);fill-opacity:1.0;stroke:none" width="1.9607843137254974" x="119.60784313725489" y="-10" /><rect height="10" style="fill:rgb(39.6%,66.1%,81%);fill-opacity:1.0;stroke:none" width="1.9607843137254974" x="121.56862745098039" y="-10" /><rect height="10" style="fill:rgb(40.9%,66.9%,81.5%);fill-opacity:1.0;stroke:none" width="1.9607843137254832" x="123.52941176470588" y="-10" /><rect height="10" style="fill:rgb(42.1%,67.6%,81.9%);fill-opacity:1.0;stroke:none" width="1.9607843137254832" x="125.49019607843137" y="-10" /><rect height="10" style="fill:rgb(43.3%,68.4%,82.3%);fill-opacity:1.0;stroke:none" width="1.9607843137254974" x="127.45098039215685" y="-10" /><rect height="10" style="fill:rgb(44.5%,69.2%,82.7%);fill-opacity:1.0;stroke:none" width="1.9607843137254974" x="129.41176470588235" y="-10" /><rect height="10" style="fill:rgb(45.7%,70%,83.1%);fill-opacity:1.0;stroke:none" width="1.9607843137254974" x="131.37254901960785" y="-10" /><rect height="10" style="fill:rgb(46.9%,70.7%,83.5%);fill-opacity:1.0;stroke:none" width="1.960784313725469" x="133.33333333333334" y="-10" /><rect height="10" style="fill:rgb(48.1%,71.5%,83.9%);fill-opacity:1.0;stroke:none" width="1.9607843137255259" x="135.29411764705881" y="-10" /><rect height="10" style="fill:rgb(49.4%,72.3%,84.4%);fill-opacity:1.0;stroke:none" width="1.960784313725469" x="137.25490196078434" y="-10" /><rect height="10" style="fill:rgb(50.6%,73%,84.8%);fill-opacity:1.0;stroke:none" width="1.9607843137254974" x="139.21568627450981" y="-10" /><rect height="10" style="fill:rgb(51.8%,73.8%,85.2%);fill-opacity:1.0;stroke:none" width="1.960784313725469" x="141.1764705882353" y="-10" /><rect height="10" style="fill:rgb(53%,74.6%,85.6%);fill-opacity:1.0;stroke:none" width="1.9607843137254974" x="143.13725490196077" y="-10" /><rect height="10" style="fill:rgb(54.2%,75.3%,86%);fill-opacity:1.0;stroke:none" width="1.9607843137254974" x="145.09803921568627" y="-10" /><rect height="10" style="fill:rgb(55.4%,76.1%,86.4%);fill-opacity:1.0;stroke:none" width="1.9607843137254974" x="147.05882352941177" y="-10" /><rect height="10" style="fill:rgb(56.6%,76.9%,86.9%);fill-opacity:1.0;stroke:none" width="1.960784313725469" x="149.01960784313727" y="-10" /><rect height="10" style="fill:rgb(57.7%,77.5%,87.2%);fill-opacity:1.0;stroke:none" width="1.9607843137255259" x="150.98039215686273" y="-10" /><rect height="10" style="fill:rgb(58.7%,78%,87.5%);fill-opacity:1.0;stroke:none" width="1.960784313725469" x="152.94117647058826" y="-10" /><rect height="10" style="fill:rgb(59.7%,78.5%,87.8%);fill-opacity:1.0;stroke:none" width="1.9607843137254974" x="154.90196078431373" y="-10" /><rect height="10" style="fill:rgb(60.6%,79%,88%);fill-opacity:1.0;stroke:none" width="1.960784313725469" x="156.86274509803923" y="-10" /><rect height="10" style="fill:rgb(61.6%,79.5%,88.3%);fill-opacity:1.0;stroke:none" width="1.9607843137254974" x="158.8235294117647" y="-10" /><rect height="10" style="fill:rgb(62.6%,80%,88.6%);fill-opacity:1.0;stroke:none" width="1.9607843137254974" x="160.78431372549019" y="-10" /><rect height="10" style="fill:rgb(63.6%,80.5%,88.9%);fill-opacity:1.0;stroke:none" width="1.9607843137254974" x="162.74509803921569" y="-10" /><rect height="10" style="fill:rgb(64.5%,80.9%,89.1%);fill-opacity:1.0;stroke:none" width="1.960784313725469" x="164.70588235294119" y="-10" /><rect height="10" style="fill:rgb(65.5%,81.4%,89.4%);fill-opacity:1.0;stroke:none" width="1.9607843137254974" x="166.66666666666666" y="-10" /><rect height="10" style="fill:rgb(66.5%,81.9%,89.7%);fill-opacity:1.0;stroke:none" width="1.9607843137254974" x="168.62745098039215" y="-10" /><rect height="10" style="fill:rgb(67.4%,82.4%,90%);fill-opacity:1.0;stroke:none" width="1.960784313725469" x="170.58823529411765" y="-10" /><rect height="10" style="fill:rgb(68.4%,82.9%,90.2%);fill-opacity:1.0;stroke:none" width="1.9607843137254974" x="172.54901960784312" y="-10" /><rect height="10" style="fill:rgb(69.4%,83.4%,90.5%);fill-opacity:1.0;stroke:none" width="1.960784313725469" x="174.50980392156862" y="-10" /><rect height="10" style="fill:rgb(70.3%,83.9%,90.8%);fill-opacity:1.0;stroke:none" width="1.9607843137255259" x="176.47058823529409" y="-10" /><rect height="10" style="fill:rgb(71.3%,84.4%,91.1%);fill-opacity:1.0;stroke:none" width="1.960784313725469" x="178.43137254901961" y="-10" /><rect height="10" style="fill:rgb(72.3%,84.9%,91.3%);fill-opacity:1.0;stroke:none" width="1.9607843137254974" x="180.39215686274508" y="-10" /><rect height="10" style="fill:rgb(73.2%,85.4%,91.6%);fill-opacity:1.0;stroke:none" width="1.9607843137254974" x="182.35294117647058" y="-10" /><rect height="10" style="fill:rgb(74.2%,85.9%,91.9%);fill-opacity:1.0;stroke:none" width="1.9607843137254974" x="184.31372549019608" y="-10" /><rect height="10" style="fill:rgb(75.2%,86.4%,92.2%);fill-opacity:1.0;stroke:none" width="1.960784313725469" x="186.27450980392157" y="-10" /><rect height="10" style="fill:rgb(76.1%,86.9%,92.5%);fill-opacity:1.0;stroke:none" width="1.9607843137254974" x="188.23529411764704" y="-10" /><rect height="10" style="fill:rgb(77.1%,87.3%,92.7%);fill-opacity:1.0;stroke:none" width="1.960784313725469" x="190.19607843137254" y="-10" /><rect height="10" style="fill:rgb(78.1%,87.8%,93%);fill-opacity:1.0;stroke:none" width="1.9607843137255259" x="192.15686274509801" y="-10" /><rect height="10" style="fill:rgb(79.1%,88.3%,93.3%);fill-opacity:1.0;stroke:none" width="1.960784313725469" x="194.11764705882354" y="-10" /><rect height="10" style="fill:rgb(80%,88.8%,93.6%);fill-opacity:1.0;stroke:none" width="1.9607843137254974" x="196.07843137254901" y="-10" /><rect height="10" style="fill:rgb(81%,89.3%,93.8%);fill-opacity:1.0;stroke:none" width="1.9607843137254974" x="198.0392156862745" y="-10" /><rect height="10" style="fill:rgb(82%,89.8%,94.1%);fill-opacity:1.0;stroke:none" width="1.9607843137254974" x="200.0" y="-10" /><rect height="10" style="fill:rgb(82.5%,90.1%,94.2%);fill-opacity:1.0;stroke:none" width="1.960784313725469" x="201.9607843137255" y="-10" /><rect height="10" style="fill:rgb(83.1%,90.4%,94.3%);fill-opacity:1.0;stroke:none" width="1.9607843137254974" x="203.92156862745097" y="-10" /><rect height="10" style="fill:rgb(83.7%,90.6%,94.4%);fill-opacity:1.0;stroke:none" width="1.960784313725469" x="205.88235294117646" y="-10" /><rect height="10" style="fill:rgb(84.3%,90.9%,94.5%);fill-opacity:1.0;stroke:none" width="1.9607843137255259" x="207.84313725490193" y="-10" /><rect height="10" style="fill:rgb(84.9%,91.2%,94.7%);fill-opacity:1.0;stroke:none" width="1.960784313725469" x="209.80392156862746" y="-10" /><rect height="10" style="fill:rgb(85.5%,91.5%,94.8%);fill-opacity:1.0;stroke:none" width="1.9607843137254974" x="211.76470588235293" y="-10" /><rect height="10" style="fill:rgb(86.1%,91.7%,94.9%);fill-opacity:1.0;stroke:none" width="1.9607843137254974" x="213.72549019607843" y="-10" /><rect height="10" style="fill:rgb(86.6%,92%,95%);fill-opacity:1.0;stroke:none" width="1.9607843137254974" x="215.68627450980392" y="-10" /><rect height="10" style="fill:rgb(87.2%,92.3%,95.1%);fill-opacity:1.0;stroke:none" width="1.960784313725469" x="217.64705882352942" y="-10" /><rect height="10" style="fill:rgb(87.8%,92.6%,95.2%);fill-opacity:1.0;stroke:none" width="1.9607843137254974" x="219.60784313725489" y="-10" /><rect height="10" style="fill:rgb(88.4%,92.8%,95.3%);fill-opacity:1.0;stroke:none" width="1.960784313725469" x="221.56862745098039" y="-10" /><rect height="10" style="fill:rgb(89%,93.1%,95.4%);fill-opacity:1.0;stroke:none" width="1.9607843137255259" x="223.52941176470586" y="-10" /><rect height="10" style="fill:rgb(89.6%,93.4%,95.5%);fill-opacity:1.0;stroke:none" width="1.960784313725469" x="225.49019607843138" y="-10" /><rect height="10" style="fill:rgb(90.1%,93.7%,95.6%);fill-opacity:1.0;stroke:none" width="1.9607843137254974" x="227.45098039215685" y="-10" /><rect height="10" style="fill:rgb(90.7%,94%,95.7%);fill-opacity:1.0;stroke:none" width="1.9607843137254974" x="229.41176470588235" y="-10" /><rect height="10" style="fill:rgb(91.3%,94.2%,95.8%);fill-opacity:1.0;stroke:none" width="1.9607843137254974" x="231.37254901960785" y="-10" /><rect height="10" style="fill:rgb(91.9%,94.5%,95.9%);fill-opacity:1.0;stroke:none" width="1.960784313725469" x="233.33333333333334" y="-10" /><rect height="10" style="fill:rgb(92.5%,94.8%,96.1%);fill-opacity:1.0;stroke:none" width="1.9607843137254974" x="235.29411764705881" y="-10" /><rect height="10" style="fill:rgb(93.1%,95.1%,96.2%);fill-opacity:1.0;stroke:none" width="1.960784313725469" x="237.25490196078431" y="-10" /><rect height="10" style="fill:rgb(93.6%,95.3%,96.3%);fill-opacity:1.0;stroke:none" width="1.9607843137255259" x="239.21568627450978" y="-10" /><rect height="10" style="fill:rgb(94.2%,95.6%,96.4%);fill-opacity:1.0;stroke:none" width="1.960784313725469" x="241.1764705882353" y="-10" /><rect height="10" style="fill:rgb(94.8%,95.9%,96.5%);fill-opacity:1.0;stroke:none" width="1.9607843137254974" x="243.13725490196077" y="-10" /><rect height="10" style="fill:rgb(95.4%,96.2%,96.6%);fill-opacity:1.0;stroke:none" width="1.9607843137254974" x="245.09803921568627" y="-10" /><rect height="10" style="fill:rgb(96%,96.4%,96.7%);fill-opacity:1.0;stroke:none" width="1.9607843137254974" x="247.05882352941177" y="-10" /><rect height="10" style="fill:rgb(96.6%,96.7%,96.8%);fill-opacity:1.0;stroke:none" width="1.960784313725469" x="249.01960784313727" y="-10" /><rect height="10" style="fill:rgb(96.9%,96.6%,96.5%);fill-opacity:1.0;stroke:none" width="1.9607843137254974" x="250.98039215686273" y="-10" /><rect height="10" style="fill:rgb(97%,96.2%,95.8%);fill-opacity:1.0;stroke:none" width="1.960784313725469" x="252.94117647058823" y="-10" /><rect height="10" style="fill:rgb(97.1%,95.8%,95%);fill-opacity:1.0;stroke:none" width="1.960784313725469" x="254.9019607843137" y="-10" /><rect height="10" style="fill:rgb(97.2%,95.4%,94.3%);fill-opacity:1.0;stroke:none" width="1.9607843137255259" x="256.86274509803917" y="-10" /><rect height="10" style="fill:rgb(97.3%,94.9%,93.5%);fill-opacity:1.0;stroke:none" width="1.9607843137255259" x="258.8235294117647" y="-10" /><rect height="10" style="fill:rgb(97.4%,94.5%,92.8%);fill-opacity:1.0;stroke:none" width="1.960784313725469" x="260.78431372549022" y="-10" /><rect height="10" style="fill:rgb(97.5%,94.1%,92.1%);fill-opacity:1.0;stroke:none" width="1.960784313725469" x="262.74509803921569" y="-10" /><rect height="10" style="fill:rgb(97.6%,93.6%,91.3%);fill-opacity:1.0;stroke:none" width="1.9607843137255259" x="264.70588235294116" y="-10" /><rect height="10" style="fill:rgb(97.6%,93.2%,90.6%);fill-opacity:1.0;stroke:none" width="1.960784313725469" x="266.66666666666669" y="-10" /><rect height="10" style="fill:rgb(97.7%,92.8%,89.9%);fill-opacity:1.0;stroke:none" width="1.960784313725469" x="268.62745098039215" y="-10" /><rect height="10" style="fill:rgb(97.8%,92.3%,89.1%);fill-opacity:1.0;stroke:none" width="1.960784313725469" x="270.58823529411762" y="-10" /><rect height="10" style="fill:rgb(97.9%,91.9%,88.4%);fill-opacity:1.0;stroke:none" width="1.9607843137255827" x="272.54901960784309" y="-10" /><rect height="10" style="fill:rgb(98%,91.5%,87.6%);fill-opacity:1.0;stroke:none" width="1.960784313725469" x="274.50980392156868" y="-10" /><rect height="10" style="fill:rgb(98.1%,91%,86.9%);fill-opacity:1.0;stroke:none" width="1.960784313725469" x="276.47058823529414" y="-10" /><rect height="10" style="fill:rgb(98.2%,90.6%,86.2%);fill-opacity:1.0;stroke:none" width="1.960784313725469" x="278.43137254901961" y="-10" /><rect height="10" style="fill:rgb(98.3%,90.2%,85.4%);fill-opacity:1.0;stroke:none" width="1.9607843137255259" x="280.39215686274508" y="-10" /><rect height="10" style="fill:rgb(98.4%,89.8%,84.7%);fill-opacity:1.0;stroke:none" width="1.960784313725469" x="282.35294117647061" y="-10" /><rect height="10" style="fill:rgb(98.5%,89.3%,83.9%);fill-opacity:1.0;stroke:none" width="1.960784313725469" x="284.31372549019608" y="-10" /><rect height="10" style="fill:rgb(98.6%,88.9%,83.2%);fill-opacity:1.0;stroke:none" width="1.960784313725469" x="286.27450980392155" y="-10" /><rect height="10" style="fill:rgb(98.7%,88.5%,82.5%);fill-opacity:1.0;stroke:none" width="1.9607843137255259" x="288.23529411764702" y="-10" /><rect height="10" style="fill:rgb(98.8%,88%,81.7%);fill-opacity:1.0;stroke:none" width="1.9607843137255259" x="290.19607843137254" y="-10" /><rect height="10" style="fill:rgb(98.8%,87.6%,81%);fill-opacity:1.0;stroke:none" width="1.960784313725469" x="292.15686274509807" y="-10" /><rect height="10" style="fill:rgb(98.9%,87.2%,80.3%);fill-opacity:1.0;stroke:none" width="1.960784313725469" x="294.11764705882354" y="-10" /><rect height="10" style="fill:rgb(99%,86.7%,79.5%);fill-opacity:1.0;stroke:none" width="1.9607843137255259" x="296.07843137254901" y="-10" /><rect height="10" style="fill:rgb(99.1%,86.3%,78.8%);fill-opacity:1.0;stroke:none" width="1.960784313725469" x="298.03921568627453" y="-10" /><rect height="10" style="fill:rgb(99.2%,85.9%,78%);fill-opacity:1.0;stroke:none" width="1.960784313725469" x="300.0" y="-10" /><rect height="10" style="fill:rgb(99.1%,85.1%,77%);fill-opacity:1.0;stroke:none" width="1.960784313725469" x="301.96078431372547" y="-10" /><rect height="10" style="fill:rgb(98.9%,84.2%,75.9%);fill-opacity:1.0;stroke:none" width="1.9607843137255827" x="303.92156862745094" y="-10" /><rect height="10" style="fill:rgb(98.8%,83.4%,74.9%);fill-opacity:1.0;stroke:none" width="1.960784313725469" x="305.88235294117652" y="-10" /><rect height="10" style="fill:rgb(98.7%,82.6%,73.8%);fill-opacity:1.0;stroke:none" width="1.960784313725469" x="307.84313725490199" y="-10" /><rect height="10" style="fill:rgb(98.5%,81.7%,72.7%);fill-opacity:1.0;stroke:none" width="1.960784313725469" x="309.80392156862746" y="-10" /><rect height="10" style="fill:rgb(98.4%,80.9%,71.7%);fill-opacity:1.0;stroke:none" width="1.9607843137255259" x="311.76470588235293" y="-10" /><rect height="10" style="fill:rgb(98.2%,80.1%,70.6%);fill-opacity:1.0;stroke:none" width="1.960784313725469" x="313.72549019607845" y="-10" /><rect height="10" style="fill:rgb(98.1%,79.2%,69.6%);fill-opacity:1.0;stroke:none" width="1.960784313725469" x="315.68627450980392" y="-10" /><rect height="10" style="fill:rgb(98%,78.4%,68.5%);fill-opacity:1.0;stroke:none" width="1.960784313725469" x="317.64705882352939" y="-10" /><rect height="10" style="fill:rgb(97.8%,77.6%,67.4%);fill-opacity:1.0;stroke:none" width="1.9607843137255259" x="319.60784313725486" y="-10" /><rect height="10" style="fill:rgb(97.7%,76.7%,66.4%);fill-opacity:1.0;stroke:none" width="1.9607843137255259" x="321.56862745098039" y="-10" /><rect height="10" style="fill:rgb(97.6%,75.9%,65.3%);fill-opacity:1.0;stroke:none" width="1.960784313725469" x="323.52941176470591" y="-10" /><rect height="10" style="fill:rgb(97.4%,75.1%,64.2%);fill-opacity:1.0;stroke:none" width="1.960784313725469" x="325.49019607843138" y="-10" /><rect height="10" style="fill:rgb(97.3%,74.3%,63.2%);fill-opacity:1.0;stroke:none" width="1.9607843137255259" x="327.45098039215685" y="-10" /><rect height="10" style="fill:rgb(97.1%,73.4%,62.1%);fill-opacity:1.0;stroke:none" width="1.960784313725469" x="329.41176470588238" y="-10" /><rect height="10" style="fill:rgb(97%,72.6%,61.1%);fill-opacity:1.0;stroke:none" width="1.960784313725469" x="331.37254901960785" y="-10" /><rect height="10" style="fill:rgb(96.9%,71.8%,60%);fill-opacity:1.0;stroke:none" width="1.960784313725469" x="333.33333333333331" y="-10" /><rect height="10" style="fill:rgb(96.7%,70.9%,58.9%);fill-opacity:1.0;stroke:none" width="1.9607843137255259" x="335.29411764705878" y="-10" /><rect height="10" style="fill:rgb(96.6%,70.1%,57.9%);fill-opacity:1.0;stroke:none" width="1.9607843137255259" x="337.25490196078431" y="-10" /><rect height="10" style="fill:rgb(96.4%,69.3%,56.8%);fill-opacity:1.0;stroke:none" width="1.960784313725469" x="339.21568627450984" y="-10" /><rect height="10" style="fill:rgb(96.3%,68.4%,55.8%);fill-opacity:1.0;stroke:none" width="1.960784313725469" x="341.1764705882353" y="-10" /><rect height="10" style="fill:rgb(96.2%,67.6%,54.7%);fill-opacity:1.0;stroke:none" width="1.960784313725469" x="343.13725490196077" y="-10" /><rect height="10" style="fill:rgb(96%,66.8%,53.6%);fill-opacity:1.0;stroke:none" width="1.9607843137255259" x="345.09803921568624" y="-10" /><rect height="10" style="fill:rgb(95.9%,66%,52.6%);fill-opacity:1.0;stroke:none" width="1.960784313725469" x="347.05882352941177" y="-10" /><rect height="10" style="fill:rgb(95.8%,65.1%,51.5%);fill-opacity:1.0;stroke:none" width="1.960784313725469" x="349.01960784313724" y="-10" /><rect height="10" style="fill:rgb(95.5%,64.2%,50.6%);fill-opacity:1.0;stroke:none" width="1.960784313725469" x="350.98039215686271" y="-10" /><rect height="10" style="fill:rgb(95%,63.1%,49.8%);fill-opacity:1.0;stroke:none" width="1.9607843137255827" x="352.94117647058818" y="-10" /><rect height="10" style="fill:rgb(94.5%,62.1%,48.9%);fill-opacity:1.0;stroke:none" width="1.960784313725469" x="354.90196078431376" y="-10" /><rect height="10" style="fill:rgb(94.1%,61%,48.1%);fill-opacity:1.0;stroke:none" width="1.960784313725469" x="356.86274509803923" y="-10" /><rect height="10" style="fill:rgb(93.6%,59.9%,47.3%);fill-opacity:1.0;stroke:none" width="1.960784313725469" x="358.8235294117647" y="-10" /><rect height="10" style="fill:rgb(93.1%,58.9%,46.5%);fill-opacity:1.0;stroke:none" width="1.9607843137255259" x="360.78431372549016" y="-10" /><rect height="10" style="fill:rgb(92.7%,57.8%,45.7%);fill-opacity:1.0;stroke:none" width="1.960784313725469" x="362.74509803921569" y="-10" /><rect height="10" style="fill:rgb(92.2%,56.7%,44.9%);fill-opacity:1.0;stroke:none" width="1.960784313725469" x="364.70588235294116" y="-10" /><rect height="10" style="fill:rgb(91.8%,55.7%,44.1%);fill-opacity:1.0;stroke:none" width="1.9607843137255259" x="366.66666666666663" y="-10" /><rect height="10" style="fill:rgb(91.3%,54.6%,43.2%);fill-opacity:1.0;stroke:none" width="1.9607843137255259" x="368.62745098039215" y="-10" /><rect height="10" style="fill:rgb(90.8%,53.6%,42.4%);fill-opacity:1.0;stroke:none" width="1.960784313725469" x="370.58823529411768" y="-10" /><rect height="10" style="fill:rgb(90.4%,52.5%,41.6%);fill-opacity:1.0;stroke:none" width="1.960784313725469" x="372.54901960784315" y="-10" /><rect height="10" style="fill:rgb(89.9%,51.4%,40.8%);fill-opacity:1.0;stroke:none" width="1.960784313725469" x="374.50980392156862" y="-10" /><rect height="10" style="fill:rgb(89.5%,50.4%,40%);fill-opacity:1.0;stroke:none" width="1.9607843137255259" x="376.47058823529409" y="-10" /><rect height="10" style="fill:rgb(89%,49.3%,39.2%);fill-opacity:1.0;stroke:none" width="1.960784313725469" x="378.43137254901961" y="-10" /><rect height="10" style="fill:rgb(88.5%,48.3%,38.3%);fill-opacity:1.0;stroke:none" width="1.960784313725469" x="380.39215686274508" y="-10" /><rect height="10" style="fill:rgb(88.1%,47.2%,37.5%);fill-opacity:1.0;stroke:none" width="1.960784313725469" x="382.35294117647055" y="-10" /><rect height="10" style="fill:rgb(87.6%,46.1%,36.7%);fill-opacity:1.0;stroke:none" width="1.9607843137255827" x="384.31372549019602" y="-10" /><rect height="10" style="fill:rgb(87.2%,45.1%,35.9%);fill-opacity:1.0;stroke:none" width="1.960784313725469" x="386.2745098039216" y="-10" /><rect height="10" style="fill:rgb(86.7%,44%,35.1%);fill-opacity:1.0;stroke:none" width="1.960784313725469" x="388.23529411764707" y="-10" /><rect height="10" style="fill:rgb(86.2%,43%,34.3%);fill-opacity:1.0;stroke:none" width="1.960784313725469" x="390.19607843137254" y="-10" /><rect height="10" style="fill:rgb(85.8%,41.9%,33.5%);fill-opacity:1.0;stroke:none" width="1.9607843137255259" x="392.15686274509801" y="-10" /><rect height="10" style="fill:rgb(85.3%,40.8%,32.6%);fill-opacity:1.0;stroke:none" width="1.960784313725469" x="394.11764705882354" y="-10" /><rect height="10" style="fill:rgb(84.8%,39.8%,31.8%);fill-opacity:1.0;stroke:none" width="1.960784313725469" x="396.07843137254901" y="-10" /><rect height="10" style="fill:rgb(84.4%,38.7%,31%);fill-opacity:1.0;stroke:none" width="1.9607843137255259" x="398.03921568627447" y="-10" /><rect height="10" style="fill:rgb(83.9%,37.6%,30.2%);fill-opacity:1.0;stroke:none" width="1.9607843137255259" x="400.0" y="-10" /><rect height="10" style="fill:rgb(83.4%,36.5%,29.7%);fill-opacity:1.0;stroke:none" width="1.960784313725469" x="401.96078431372553" y="-10" /><rect height="10" style="fill:rgb(82.8%,35.4%,29.2%);fill-opacity:1.0;stroke:none" width="1.960784313725469" x="403.92156862745099" y="-10" /><rect height="10" style="fill:rgb(82.3%,34.3%,28.6%);fill-opacity:1.0;stroke:none" width="1.960784313725469" x="405.88235294117646" y="-10" /><rect height="10" style="fill:rgb(81.7%,33.2%,28.1%);fill-opacity:1.0;stroke:none" width="1.9607843137255259" x="407.84313725490193" y="-10" /><rect height="10" style="fill:rgb(81.2%,32.1%,27.6%);fill-opacity:1.0;stroke:none" width="1.960784313725469" x="409.80392156862746" y="-10" /><rect height="10" style="fill:rgb(80.6%,31%,27.1%);fill-opacity:1.0;stroke:none" width="1.960784313725469" x="411.76470588235293" y="-10" /><rect height="10" style="fill:rgb(80%,29.9%,26.5%);fill-opacity:1.0;stroke:none" width="1.960784313725469" x="413.7254901960784" y="-10" /><rect height="10" style="fill:rgb(79.5%,28.8%,26%);fill-opacity:1.0;stroke:none" width="1.9607843137255827" x="415.68627450980387" y="-10" /><rect height="10" style="fill:rgb(78.9%,27.7%,25.5%);fill-opacity:1.0;stroke:none" width="1.960784313725469" x="417.64705882352945" y="-10" /><rect height="10" style="fill:rgb(78.4%,26.6%,25%);fill-opacity:1.0;stroke:none" width="1.960784313725469" x="419.60784313725492" y="-10" /><rect height="10" style="fill:rgb(77.8%,25.5%,24.4%);fill-opacity:1.0;stroke:none" width="1.960784313725469" x="421.56862745098039" y="-10" /><rect height="10" style="fill:rgb(77.3%,24.4%,23.9%);fill-opacity:1.0;stroke:none" width="1.9607843137255259" x="423.52941176470586" y="-10" /><rect height="10" style="fill:rgb(76.7%,23.3%,23.4%);fill-opacity:1.0;stroke:none" width="1.960784313725469" x="425.49019607843138" y="-10" /><rect height="10" style="fill:rgb(76.2%,22.1%,22.9%);fill-opacity:1.0;stroke:none" width="1.960784313725469" x="427.45098039215685" y="-10" /><rect height="10" style="fill:rgb(75.6%,21%,22.4%);fill-opacity:1.0;stroke:none" width="1.9607843137255259" x="429.41176470588232" y="-10" /><rect height="10" style="fill:rgb(75.1%,19.9%,21.8%);fill-opacity:1.0;stroke:none" width="1.9607843137255259" x="431.37254901960785" y="-10" /><rect height="10" style="fill:rgb(74.5%,18.8%,21.3%);fill-opacity:1.0;stroke:none" width="1.960784313725469" x="433.33333333333337" y="-10" /><rect height="10" style="fill:rgb(74%,17.7%,20.8%);fill-opacity:1.0;stroke:none" width="1.960784313725469" x="435.29411764705884" y="-10" /><rect height="10" style="fill:rgb(73.4%,16.6%,20.3%);fill-opacity:1.0;stroke:none" width="1.960784313725469" x="437.25490196078431" y="-10" /><rect height="10" style="fill:rgb(72.8%,15.5%,19.7%);fill-opacity:1.0;stroke:none" width="1.9607843137255259" x="439.21568627450978" y="-10" /><rect height="10" style="fill:rgb(72.3%,14.4%,19.2%);fill-opacity:1.0;stroke:none" width="1.960784313725469" x="441.1764705882353" y="-10" /><rect height="10" style="fill:rgb(71.7%,13.3%,18.7%);fill-opacity:1.0;stroke:none" width="1.960784313725469" x="443.13725490196077" y="-10" /><rect height="10" style="fill:rgb(71.2%,12.2%,18.2%);fill-opacity:1.0;stroke:none" width="1.960784313725469" x="445.09803921568624" y="-10" /><rect height="10" style="fill:rgb(70.6%,11.1%,17.6%);fill-opacity:1.0;stroke:none" width="1.9607843137255827" x="447.05882352941171" y="-10" /><rect height="10" style="fill:rgb(70.1%,9.97%,17.1%);fill-opacity:1.0;stroke:none" width="1.960784313725469" x="449.01960784313729" y="-10" /><rect height="10" style="fill:rgb(69.2%,9.23%,16.8%);fill-opacity:1.0;stroke:none" width="1.960784313725469" x="450.98039215686276" y="-10" /><rect height="10" style="fill:rgb(68.1%,8.86%,16.6%);fill-opacity:1.0;stroke:none" width="1.960784313725469" x="452.94117647058823" y="-10" /><rect height="10" style="fill:rgb(66.9%,8.49%,16.4%);fill-opacity:1.0;stroke:none" width="1.9607843137255259" x="454.9019607843137" y="-10" /><rect height="10" style="fill:rgb(65.8%,8.12%,16.2%);fill-opacity:1.0;stroke:none" width="1.960784313725469" x="456.86274509803923" y="-10" /><rect height="10" style="fill:rgb(64.6%,7.75%,16%);fill-opacity:1.0;stroke:none" width="1.960784313725469" x="458.8235294117647" y="-10" /><rect height="10" style="fill:rgb(63.5%,7.38%,15.8%);fill-opacity:1.0;stroke:none" width="1.9607843137255259" x="460.78431372549016" y="-10" /><rect height="10" style="fill:rgb(62.3%,7.01%,15.7%);fill-opacity:1.0;stroke:none" width="1.9607843137255259" x="462.74509803921569" y="-10" /><rect height="10" style="fill:rgb(61.2%,6.64%,15.5%);fill-opacity:1.0;stroke:none" width="1.960784313725469" x="464.70588235294122" y="-10" /><rect height="10" style="fill:rgb(60%,6.27%,15.3%);fill-opacity:1.0;stroke:none" width="1.960784313725469" x="466.66666666666669" y="-10" /><rect height="10" style="fill:rgb(58.8%,5.91%,15.1%);fill-opacity:1.0;stroke:none" width="1.960784313725469" x="468.62745098039215" y="-10" /><rect height="10" style="fill:rgb(57.7%,5.54%,14.9%);fill-opacity:1.0;stroke:none" width="1.9607843137255259" x="470.58823529411762" y="-10" /><rect height="10" style="fill:rgb(56.5%,5.17%,14.7%);fill-opacity:1.0;stroke:none" width="1.960784313725469" x="472.54901960784315" y="-10" /><rect height="10" style="fill:rgb(55.4%,4.8%,14.6%);fill-opacity:1.0;stroke:none" width="1.960784313725469" x="474.50980392156862" y="-10" /><rect height="10" style="fill:rgb(54.2%,4.43%,14.4%);fill-opacity:1.0;stroke:none" width="1.960784313725469" x="476.47058823529409" y="-10" /><rect height="10" style="fill:rgb(53.1%,4.06%,14.2%);fill-opacity:1.0;stroke:none" width="1.9607843137255827" x="478.43137254901956" y="-10" /><rect height="10" style="fill:rgb(51.9%,3.69%,14%);fill-opacity:1.0;stroke:none" width="1.960784313725469" x="480.39215686274514" y="-10" /><rect height="10" style="fill:rgb(50.8%,3.32%,13.8%);fill-opacity:1.0;stroke:none" width="1.960784313725469" x="482.35294117647061" y="-10" /><rect height="10" style="fill:rgb(49.6%,2.95%,13.6%);fill-opacity:1.0;stroke:none" width="1.960784313725469" x="484.31372549019608" y="-10" /><rect height="10" style="fill:rgb(48.5%,2.58%,13.4%);fill-opacity:1.0;stroke:none" width="1.9607843137255259" x="486.27450980392155" y="-10" /><rect height="10" style="fill:rgb(47.3%,2.21%,13.3%);fill-opacity:1.0;stroke:none" width="1.960784313725469" x="488.23529411764707" y="-10" /><rect height="10" style="fill:rgb(46.2%,1.85%,13.1%);fill-opacity:1.0;stroke:none" width="1.960784313725469" x="490.19607843137254" y="-10" /><rect height="10" style="fill:rgb(45%,1.48%,12.9%);fill-opacity:1.0;stroke:none" width="1.9607843137255259" x="492.15686274509801" y="-10" /><rect height="10" style="fill:rgb(43.9%,1.11%,12.7%);fill-opacity:1.0;stroke:none" width="1.9607843137255259" x="494.11764705882354" y="-10" /><rect height="10" style="fill:rgb(42.7%,0.738%,12.5%);fill-opacity:1.0;stroke:none" width="1.960784313725469" x="496.07843137254906" y="-10" /><rect height="10" style="fill:rgb(41.5%,0.369%,12.3%);fill-opacity:1.0;stroke:none" width="1.960784313725469" x="498.03921568627453" y="-10" /></g></g><g class="toyplot-axes-Axis" id="t1d8b14c03b4b4f90ae69709c6b7f0883" transform="translate(570.0,550.0) rotate(-90.0) translate(0,5)"><line style="" x1="0" x2="500.0" y1="0" y2="0" /><g><text style="alignment-baseline:middle;baseline-shift:-100%;font-size:10px;font-weight:normal;stroke:none;text-anchor:middle" transform="translate(0.0,0) rotate(0)" x="0" y="0">0.0</text><text style="alignment-baseline:middle;baseline-shift:-100%;font-size:10px;font-weight:normal;stroke:none;text-anchor:middle" transform="translate(250.0,0) rotate(0)" x="0" y="0">0.5</text><text style="alignment-baseline:middle;baseline-shift:-100%;font-size:10px;font-weight:normal;stroke:none;text-anchor:middle" transform="translate(500.0,0) rotate(0)" x="0" y="0">1.0</text></g></g></g></svg>