<svg class="toyplot-canvas-Canvas" height="600px" id="tfe8f034c5d5a4e7190611eab5909165e" preserveAspectRatio="xMidYMid meet" style="background-color:transparent;border-color:#292724;border-style:none;border-width:1.0;fill:rgb(16.1%,15.3%,14.1%);fill-opacity:1.0;font-family:Helvetica;font-size:12px;opacity:1.0;stroke:rgb(16.1%,15.3%,14.1%);stroke-opacity:1.0;stroke-width:1.0" viewBox="0 0 600 600" width="600px" xmlns="http://www.w3.org/2000/svg" xmlns:toyplot="http://www.sandia.gov/toyplot" xmlns:xlink="http://www.w3.org/1999/xlink"><g class="toyplot-coordinates-Cartesian" id="t9563a1d487a14fe1b9227b651caebf72"><clipPath id="te373d2b7bbec4e7f923e46192135f695"><rect height="520.0" width="520.0" x="40.0" y="40.0" /></clipPath><g clip-path="url(#te373d2b7bbec4e7f923e46192135f695)"><g class="toyplot-mark-Ellipse" id="t26e36dbf510043548a1ecb021e9282fb" style="stroke:none"><g class="toyplot-Series"><polygon class="toyplot-Datum" points="516.5063509461097,150.0 512.1064586372281,147.7607346322372 506.85248848106744,145.79811610150406 500.76559636109016,144.08816750996752 493.87029204353314,142.6117038018827 486.19434048522834,141.35333856868874 477.76865003392186,140.30076312865506 468.6271479712659,139.4442181503386 458.8066438996309,138.77610518996602 448.3466815228275,138.2907028756983 437.28937941756845,137.98396395749256 425.6792614368259,137.85337731550513 413.5630774279894,137.89788466324194 400.989614987731,138.11784597488315 388.0095030115723,138.51505120972115 374.67500782919166,139.09277915339405 361.0398227463616,139.85590754203636 347.158851840957,140.81108249691377 333.08798888361173,141.9669601882094 318.88389227323177,143.33454028971846 304.6037568936195,144.92762028104215 290.30508380986396,146.76341376765998 276.04544873184585,148.8633976798577 261.882270177175,151.25448761249808 247.87257826708543,153.97069692031468 234.07278508626564,157.0555307940733 220.53845753130372,160.56553529261964 207.324093562407,164.57573299671293 194.48290275935076,169.18828423553583 182.0665920652807,174.5469741526118 170.12515758110223,180.86295882891005 158.7066832488283,188.46422499134422 147.85714723451565,197.90100757985476 137.62023679041775,210.2059991327962 128.03717234183924,227.7006447212681 119.14654150703163,258.2298589378523 110.98414371847403,300.1812018276102 103.58284607119339,342.13181508156276 96.97245097857356,372.48580966607966 91.17957616855463,389.9174617476153 86.22754750343756,402.19070114803185 82.13630505486913,411.6082257673599 78.92232281221116,419.1964785124263 76.5985423475998,425.50301537858434 75.1743207048023,430.85448312475086 74.65539272170392,435.4612929323312 75.0438479381403,439.4667825445785 76.33812218205769,442.97282712465307 78.53300386788185,446.05425868221903 81.61965498173372,448.76749087142593 85.58564666899215,451.1559338203744 90.41500928090466,453.2535306595891 96.08829667872642,455.0871437733813 102.58266453645788,456.67820882060323 109.87196232688264,458.0439066782591 117.92683862051084,459.1980083015071 126.71485927342653,460.1514913886256 136.2006380281374,460.9129934798525 146.34597900154492,461.4891445116473 157.1100304862839,461.88480778442863 168.44944944613027,462.10324883794647 180.31857604310994,462.1462451044816 192.66961749355124,462.0141443305506 205.45284051275624,461.7058759027855 218.61677157338565,461.21891586977983 232.10840417118558,460.5492032041061 245.87341226347263,459.6910013008057 259.8563690209327,458.63669440663415 274.00097001190096,457.37650301612473 288.2502599204357,455.89809437196266 302.5468618852735,454.1860526820276 316.8332085361981,452.22115623809214 331.05177379752354,449.97938141223636 345.1453045252964,447.43050966111116 359.0570510455001,444.53614060449013 372.7309956649614,441.24678789126517 386.11207823483164,437.49750662496376 399.14641785837176,433.20106919906505 411.7815298503067,428.2368388400389 423.96653707412867,422.43162029450133 435.65237480637,415.5243686860745 446.7919883029266,407.09506619433137 457.3405222719048,396.40271819976476 467.25550149005085,381.9435750004959 476.49700183548356,359.82509814277904 485.0278110480419,320.80494402480525 492.81357856992264,278.83283477485446 499.8229538632534,239.9257074206877 506.0277126476433,217.90771588221085 511.40287054939853,203.491928332746 515.9267837047771,192.8238950514164 519.5812359121894,184.41025475136064 522.3515119824123,177.51400891045765 524.2264569914627,171.71700506546023 525.1985211975392,166.7591863648821 525.2637904411681,162.4679300352928 524.4220019061415,158.72295415317308 522.676545177786,155.4372629936309 520.0344485942986,152.54606980451177 516.5063509461097,150.0" style="fill:rgb(40%,76.1%,64.7%);fill-opacity:1.0;opacity:1.0;stroke:none" /></g></g></g><g class="toyplot-coordinates-Axis" id="te637f710ed184134ae1fc0666cbff39a" transform="translate(50.0,550.0)translate(0,10.0)"><line style="" x1="24.65304528350063" x2="475.34695471649934" y1="0" y2="0" /><g><g transform="translate(0.0,6)"><text style="fill:rgb(16.1%,15.3%,14.1%);fill-opacity:1.0;font-family:helvetica;font-size:10.0px;font-weight:normal;stroke:none;vertical-align:baseline;white-space:pre" x="-7.2250000000000005" y="8.555">-20</text></g><g transform="translate(125.0,6)"><text style="fill:rgb(16.1%,15.3%,14.1%);fill-opacity:1.0;font-family:helvetica;font-size:10.0px;font-weight:normal;stroke:none;vertical-align:baseline;white-space:pre" x="-7.2250000000000005" y="8.555">-10</text></g><g transform="translate(250.0,6)"><text style="fill:rgb(16.1%,15.3%,14.1%);fill-opacity:1.0;font-family:helvetica;font-size:10.0px;font-weight:normal;stroke:none;vertical-align:baseline;white-space:pre" x="-2.78" y="8.555">0</text></g><g transform="translate(375.0,6)"><text style="fill:rgb(16.1%,15.3%,14.1%);fill-opacity:1.0;font-family:helvetica;font-size:10.0px;font-weight:normal;stroke:none;vertical-align:baseline;white-space:pre" x="-5.56" y="8.555">10</text></g><g transform="translate(500.0,6)"><text style="fill:rgb(16.1%,15.3%,14.1%);fill-opacity:1.0;font-family:helvetica;font-size:10.0px;font-weight:normal;stroke:none;vertical-align:baseline;white-space:pre" x="-5.56" y="8.555">20</text></g></g><g class="toyplot-coordinates-Axis-coordinates" style="visibility:hidden" transform=""><line style="stroke:rgb(43.9%,50.2%,56.5%);stroke-opacity:1.0;stroke-width:1.0" x1="0" x2="0" y1="-3.0" y2="4.5" /><text style="alignment-baseline:alphabetic;fill:rgb(43.9%,50.2%,56.5%);fill-opacity:1.0;font-size:10px;font-weight:normal;stroke:none;text-anchor:middle" x="0" y="-6" /></g></g><g class="toyplot-coordinates-Axis" id="t9d6f863155e940ca8908f19579167647" transform="translate(50.0,550.0)rotate(-90.0)translate(0,-10.0)"><line style="" x1="87.84809756568528" x2="412.1519024343147" y1="0" y2="0" /><g><g transform="translate(0.0,-6)"><text style="fill:rgb(16.1%,15.3%,14.1%);fill-opacity:1.0;font-family:helvetica;font-size:10.0px;font-weight:normal;stroke:none;vertical-align:baseline;white-space:pre" x="-10.144" y="-4.440892098500626e-16">-10</text><text style="fill:rgb(16.1%,15.3%,14.1%);fill-opacity:1.0;font-family:helvetica;font-size:7.0px;font-weight:normal;stroke:none;vertical-align:baseline;white-space:pre" x="4.306000000000001" y="-2.1000000000000005"> 2</text></g><g transform="translate(100.0,-6)"><text style="fill:rgb(16.1%,15.3%,14.1%);fill-opacity:1.0;font-family:helvetica;font-size:10.0px;font-weight:normal;stroke:none;vertical-align:baseline;white-space:pre" x="-10.144" y="-4.440892098500626e-16">-10</text><text style="fill:rgb(16.1%,15.3%,14.1%);fill-opacity:1.0;font-family:helvetica;font-size:7.0px;font-weight:normal;stroke:none;vertical-align:baseline;white-space:pre" x="4.306000000000001" y="-2.1000000000000005"> 1</text></g><g transform="translate(200.0,-6)"><text style="fill:rgb(16.1%,15.3%,14.1%);fill-opacity:1.0;font-family:helvetica;font-size:10.0px;font-weight:normal;stroke:none;vertical-align:baseline;white-space:pre" x="-10.144" y="-4.440892098500626e-16">-10</text><text style="fill:rgb(16.1%,15.3%,14.1%);fill-opacity:1.0;font-family:helvetica;font-size:7.0px;font-weight:normal;stroke:none;vertical-align:baseline;white-space:pre" x="4.306000000000001" y="-2.1000000000000005"> 0</text></g><g transform="translate(250.0,-6)"><text style="fill:rgb(16.1%,15.3%,14.1%);fill-opacity:1.0;font-family:helvetica;font-size:10.0px;font-weight:normal;stroke:none;vertical-align:baseline;white-space:pre" x="-2.78" y="-4.440892098500626e-16">0</text></g><g transform="translate(300.0,-6)"><text style="fill:rgb(16.1%,15.3%,14.1%);fill-opacity:1.0;font-family:helvetica;font-size:10.0px;font-weight:normal;stroke:none;vertical-align:baseline;white-space:pre" x="-8.479" y="-4.440892098500626e-16">10</text><text style="fill:rgb(16.1%,15.3%,14.1%);fill-opacity:1.0;font-family:helvetica;font-size:7.0px;font-weight:normal;stroke:none;vertical-align:baseline;white-space:pre" x="2.641" y="-2.1000000000000005"> 0</text></g><g transform="translate(400.0,-6)"><text style="fill:rgb(16.1%,15.3%,14.1%);fill-opacity:1.0;font-family:helvetica;font-size:10.0px;font-weight:normal;stroke:none;vertical-align:baseline;white-space:pre" x="-8.479" y="-4.440892098500626e-16">10</text><text style="fill:rgb(16.1%,15.3%,14.1%);fill-opacity:1.0;font-family:helvetica;font-size:7.0px;font-weight:normal;stroke:none;vertical-align:baseline;white-space:pre" x="2.641" y="-2.1000000000000005"> 1</text></g><g transform="translate(500.0,-6)"><text style="fill:rgb(16.1%,15.3%,14.1%);fill-opacity:1.0;font-family:helvetica;font-size:10.0px;font-weight:normal;stroke:none;vertical-align:baseline;white-space:pre" x="-8.479" y="-4.440892098500626e-16">10</text><text style="fill:rgb(16.1%,15.3%,14.1%);fill-opacity:1.0;font-family:helvetica;font-size:7.0px;font-weight:normal;stroke:none;vertical-align:baseline;white-space:pre" x="2.641" y="-2.1000000000000005"> 2</text></g></g><g class="toyplot-coordinates-Axis-coordinates" style="visibility:hidden" transform=""><line style="stroke:rgb(43.9%,50.2%,56.5%);stroke-opacity:1.0;stroke-width:1.0" x1="0" x2="0" y1="3.0" y2="-4.5" /><text style="alignment-baseline:hanging;fill:rgb(43.9%,50.2%,56.5%);fill-opacity:1.0;font-size:10px;font-weight:normal;stroke:none;text-anchor:middle" x="0" y="6" /></g></g></g></svg>