<svg class="toyplot-canvas-Canvas" height="600px" id="t5f2d61368a1d4174867d265d81f24f27" preserveAspectRatio="xMidYMid meet" style="background-color:transparent;border-color:#292724;border-style:none;border-width:1.0;fill:rgb(16.1%,15.3%,14.1%);fill-opacity:1.0;font-family:Helvetica;font-size:12px;opacity:1.0;stroke:rgb(16.1%,15.3%,14.1%);stroke-opacity:1.0;stroke-width:1.0" viewBox="0 0 600 600" width="600px" xmlns="http://www.w3.org/2000/svg" xmlns:toyplot="http://www.sandia.gov/toyplot" xmlns:xlink="http://www.w3.org/1999/xlink"><g class="toyplot-coordinates-Cartesian" id="ta1fe6524eabc45c9bded596a4509a44c"><clipPath id="t48a1718018374150beeb441f6d233f69"><rect height="520.0" width="520.0" x="40.0" y="40.0" /></clipPath><g clip-path="url(#t48a1718018374150beeb441f6d233f69)"><g class="toyplot-mark-Ellipse" id="t89215d714ee34557b36747902cf8c96d" style="stroke:none"><g class="toyplot-Series"><polygon class="toyplot-Datum" points="516.5063509461097,175.0 512.1064586372281,168.38582473724347 506.85248848106744,162.30161330586697 500.76559636109016,156.7718646779202 493.87029204353314,151.81884519943756 486.19434048522834,147.4624989317216 477.76865003392186,143.720367343647 468.6271479712659,140.60751867835714 458.8066438996309,138.13648727876634 448.3466815228275,136.31722311618574 437.28937941756845,135.1570517253002 425.6792614368259,134.66064470682534 413.5630774279894,134.83000091662092 400.989614987731,135.6644384170034 388.0095030115723,137.160597222668 374.67500782919166,139.31245283016455 361.0398227463616,142.1113404764455 347.158851840957,145.54599002880914 333.08798888361173,149.6025713657465 318.88389227323177,154.2647500659587 304.6037568936195,159.51375318130695 290.30508380986396,165.32844482884857 276.04544873184585,171.68541129757824 261.882270177175,178.5590553271781 247.87257826708543,185.92169917915064 234.07278508626564,193.74369608530336 220.53845753130372,201.99354962482022 207.324093562407,210.63804054923185 194.48290275935076,219.64236054460503 182.0665920652807,228.970252392337 170.12515758110223,238.58415596417822 158.7066832488283,248.4453594636122 147.85714723451565,258.51415530459707 137.62023679041775,268.75 128.03717234183924,279.1116774159101 119.14654150703163,289.55746473446305 110.98414371847403,300.0453004569025 103.58284607119339,310.5329537703907 96.97245097857356,320.9781945965858 91.17957616855463,331.33896363726353 86.22754750343756,341.5735417322659 82.13630505486913,351.640717847835 78.92232281221116,361.49995501890044 76.5985423475998,371.11155357713073 75.1743207048023,380.4368110074855 74.65539272170392,389.4381777895844 75.0438479381403,398.0794085963723 76.33812218205769,406.32570824125855 78.53300386788185,414.1438717860536 81.61965498173372,421.50241824553433 85.58564666899215,428.37171735026186 90.41500928090466,434.7241088572176 96.08829667872642,440.53401392783996 102.58266453645788,445.77803812497945 109.87196232688264,450.43506561403984 117.92683862051084,454.48634418899155 126.71485927342653,457.9155607808867 136.2006380281374,460.70890714483033 146.34597900154492,462.8551354609092 157.1100304862839,464.34560362519215 168.44944944613027,465.1743100484333 180.31857604310994,465.33791782235284 192.66961749355124,464.8357681561896 205.45284051275624,463.66988302941866 218.61677157338565,461.8449570499536 232.10840417118558,459.36833855061747 245.87341226347263,456.25 259.8563690209327,452.50249784684644 274.00097001190096,448.14092195967 288.2502599204357,443.18283486517726 302.5468618852735,437.6482010301718 316.8332085361981,431.5593064716926 331.05177379752354,424.94066901908946 345.1453045252964,417.818939589377 359.0570510455001,410.2227948733986 372.7309956649614,402.1828218649138 386.11207823483164,393.7313946975692 399.14641785837176,384.90254428568926 411.7815298503067,375.73182129379455 423.96653707412867,366.25615298662433 435.65237480637,356.5136945360734 446.7919883029266,346.5436753837818 457.3405222719048,336.3862412780201 467.25550149005085,326.08229262092897 476.49700183548356,315.673319777036 485.0278110480419,305.2012360062013 492.81357856992264,294.70820869371363 499.8229538632534,284.2364895571116 506.0277126476433,273.82824451343026 511.40287054939853,263.5253838919352 515.9267837047771,253.36939367601897 519.5812359121894,243.4011684537875 522.3515119824123,233.6608467499877 524.2264569914627,224.18764940233478 525.1985211975392,215.01972163304214 525.2637904411681,206.19397945147338 524.4220019061415,197.7459610064031 522.676545177786,189.7096834864342 520.0344485942986,182.11750614478552 516.5063509461097,175.00000000000006" style="fill:rgb(40%,76.1%,64.7%);fill-opacity:1.0;opacity:1.0;stroke:none" /></g></g></g><g class="toyplot-coordinates-Axis" id="t9570b62fb0b24385816fb4ad965cac7d" transform="translate(50.0,550.0)translate(0,10.0)"><line style="" x1="24.65304528350063" x2="475.34695471649934" y1="0" y2="0" /><g><g transform="translate(0.0,6)"><text style="fill:rgb(16.1%,15.3%,14.1%);fill-opacity:1.0;font-family:helvetica;font-size:10.0px;font-weight:normal;stroke:none;vertical-align:baseline;white-space:pre" x="-7.2250000000000005" y="8.555">-20</text></g><g transform="translate(125.0,6)"><text style="fill:rgb(16.1%,15.3%,14.1%);fill-opacity:1.0;font-family:helvetica;font-size:10.0px;font-weight:normal;stroke:none;vertical-align:baseline;white-space:pre" x="-7.2250000000000005" y="8.555">-10</text></g><g transform="translate(250.0,6)"><text style="fill:rgb(16.1%,15.3%,14.1%);fill-opacity:1.0;font-family:helvetica;font-size:10.0px;font-weight:normal;stroke:none;vertical-align:baseline;white-space:pre" x="-2.78" y="8.555">0</text></g><g transform="translate(375.0,6)"><text style="fill:rgb(16.1%,15.3%,14.1%);fill-opacity:1.0;font-family:helvetica;font-size:10.0px;font-weight:normal;stroke:none;vertical-align:baseline;white-space:pre" x="-5.56" y="8.555">10</text></g><g transform="translate(500.0,6)"><text style="fill:rgb(16.1%,15.3%,14.1%);fill-opacity:1.0;font-family:helvetica;font-size:10.0px;font-weight:normal;stroke:none;vertical-align:baseline;white-space:pre" x="-5.56" y="8.555">20</text></g></g><g class="toyplot-coordinates-Axis-coordinates" style="visibility:hidden" transform=""><line style="stroke:rgb(43.9%,50.2%,56.5%);stroke-opacity:1.0;stroke-width:1.0" x1="0" x2="0" y1="-3.0" y2="4.5" /><text style="alignment-baseline:alphabetic;fill:rgb(43.9%,50.2%,56.5%);fill-opacity:1.0;font-size:10px;font-weight:normal;stroke:none;text-anchor:middle" x="0" y="-6" /></g></g><g class="toyplot-coordinates-Axis" id="td220da8e5c6444a59fdf97ec7ea3ffa0" transform="translate(50.0,550.0)rotate(-90.0)translate(0,-10.0)"><line style="" x1="84.6405430584631" x2="415.3594569415369" y1="0" y2="0" /><g><g transform="translate(0.0,-6)"><text style="fill:rgb(16.1%,15.3%,14.1%);fill-opacity:1.0;font-family:helvetica;font-size:10.0px;font-weight:normal;stroke:none;vertical-align:baseline;white-space:pre" x="-7.2250000000000005" y="-4.440892098500626e-16">-20</text></g><g transform="translate(125.0,-6)"><text style="fill:rgb(16.1%,15.3%,14.1%);fill-opacity:1.0;font-family:helvetica;font-size:10.0px;font-weight:normal;stroke:none;vertical-align:baseline;white-space:pre" x="-7.2250000000000005" y="-4.440892098500626e-16">-10</text></g><g transform="translate(250.0,-6)"><text style="fill:rgb(16.1%,15.3%,14.1%);fill-opacity:1.0;font-family:helvetica;font-size:10.0px;font-weight:normal;stroke:none;vertical-align:baseline;white-space:pre" x="-2.78" y="-4.440892098500626e-16">0</text></g><g transform="translate(375.0,-6)"><text style="fill:rgb(16.1%,15.3%,14.1%);fill-opacity:1.0;font-family:helvetica;font-size:10.0px;font-weight:normal;stroke:none;vertical-align:baseline;white-space:pre" x="-5.56" y="-4.440892098500626e-16">10</text></g><g transform="translate(500.0,-6)"><text style="fill:rgb(16.1%,15.3%,14.1%);fill-opacity:1.0;font-family:helvetica;font-size:10.0px;font-weight:normal;stroke:none;vertical-align:baseline;white-space:pre" x="-5.56" y="-4.440892098500626e-16">20</text></g></g><g class="toyplot-coordinates-Axis-coordinates" style="visibility:hidden" transform=""><line style="stroke:rgb(43.9%,50.2%,56.5%);stroke-opacity:1.0;stroke-width:1.0" x1="0" x2="0" y1="3.0" y2="-4.5" /><text style="alignment-baseline:hanging;fill:rgb(43.9%,50.2%,56.5%);fill-opacity:1.0;font-size:10px;font-weight:normal;stroke:none;text-anchor:middle" x="0" y="6" /></g></g></g></svg>