<svg class="toyplot-canvas-Canvas" height="600px" id="t92d14aa07df34ba48f1e41f3d3b4733f" preserveAspectRatio="xMidYMid meet" style="background-color:transparent;border-color:#292724;border-style:none;border-width:1.0;fill:rgb(16.1%,15.3%,14.1%);fill-opacity:1.0;font-family:Helvetica;font-size:12px;opacity:1.0;stroke:rgb(16.1%,15.3%,14.1%);stroke-opacity:1.0;stroke-width:1.0" viewBox="0 0 600 600" width="600px" xmlns="http://www.w3.org/2000/svg" xmlns:toyplot="http://www.sandia.gov/toyplot" xmlns:xlink="http://www.w3.org/1999/xlink"><g class="toyplot-coordinates-Cartesian" id="t658ea9afb050441490b2bc828524bc8e"><clipPath id="t8c6da8c5ac814cf2b59698228df19b1a"><rect height="520.0" width="520.0" x="40.0" y="40.0" /></clipPath><g clip-path="url(#t8c6da8c5ac814cf2b59698228df19b1a)"><g class="toyplot-mark-Ellipse" id="t10d813fb130d49c3a38eb180228ed829" style="stroke:none"><g class="toyplot-Series"><polygon class="toyplot-Datum" points="229.12658773652743,268.75 228.02661465930703,267.09645618431085 226.71312212026686,265.57540332646676 225.19139909027254,264.19296616948003 223.46757301088329,262.9547112998594 221.54858512130707,261.8656247329304 219.44216250848046,260.93009183591175 217.1567869928165,260.1518796695893 214.70166097490772,259.5341218196916 212.0866703807069,259.0793057790464 209.32234485439213,258.7892629313251 206.4198153592065,258.66516117670636 203.39076935699734,258.70750022915524 200.24740374693275,258.91610960425083 197.00237575289304,259.290149305667 193.66875195729796,259.82811320754115 190.2599556865904,260.5278351191114 186.78971296023926,261.3864975072023 183.27199722090296,262.4006428414366 179.72097306830793,263.5661875164897 176.15093922340486,264.8784382953267 172.57627095246602,266.33211120721217 169.01136218296145,267.9213528243946 165.47056754429374,269.6397638317945 161.96814456677134,271.4804247947876 158.5181962715664,273.43592402132583 155.13461438282593,275.49838740620504 151.83102339060176,277.65951013730796 148.6207256898377,279.9105901361512 145.51664801632018,282.24256309808425 142.53128939527556,284.6460389910446 139.67667081220708,287.11133986590306 136.9642868086289,289.6285388261493 134.40505919760443,292.1875 132.00929308545983,294.7779193539775 129.7866353767579,297.38936618361583 127.74603592961853,300.01132511422566 125.89571151779835,302.63323844259764 124.24311274464338,305.2445486491465 122.79489404213865,307.83474090931594 121.5568868758594,310.3933854330665 120.53407626371728,312.9101794619587 119.7305807030528,315.3749887547251 119.14963558689993,317.7778883942826 118.79358017620055,320.10920275187135 118.66384818042599,322.35954444739616 118.76096198453507,324.5198521490931 119.08453054551441,326.58142706031464 119.63325096697045,328.5359679465134 120.40491374543342,330.3756045613836 121.39641166724805,332.09292933756547 122.60375232022616,333.6810272143044 124.02207416968162,335.13350348195996 125.64566613411446,336.4445095312449 127.46799058172064,337.60876640350995 129.48170965512773,338.6215860472479 131.67871481835664,339.47889019522165 134.05015950703435,340.1772267862076 136.58649475038624,340.7137838652273 139.27750762157098,341.086400906298 142.11236236153258,341.29357751210836 145.07964401077749,341.3344794555882 148.1674043733878,341.2089420390474 151.36321012818905,340.91747075735464 154.6541928933464,340.46123926248845 158.0271010427964,339.8420846376544 161.46835306586814,339.0625 164.96409225523317,338.1256244617116 168.50024250297525,337.03523048991747 172.0625649801089,335.7957087162943 175.63671547131835,334.41205025754294 179.20830213404952,332.8898266179232 182.76294344938088,331.23516725477236 186.28632613132413,329.45473489734434 189.764262761375,327.5556987183497 193.1827489162403,325.54570546622847 196.52801955870794,323.4328486743923 199.78660446459295,321.2256360714223 202.94538246257665,318.9329553234486 205.9916342685322,316.5640382466561 208.91309370159252,314.1284236340183 211.69799707573165,311.6359188459455 214.3351305679762,309.09656031950504 216.8138753725127,306.5205731552322 219.12425045887088,303.918329944259 221.25695276201049,301.3003090015503 223.20339464248067,298.67705217342836 224.95573846581334,296.05912238927795 226.50692816191082,293.4570611283576 227.85071763734965,290.8813459729838 228.98169592619428,288.3423484190048 229.89530897804735,285.85029211344687 230.5878779956031,283.4152116874969 231.05661424786567,281.04691235058374 231.29963029938483,278.7549304082605 231.31594761029203,276.5484948628683 231.10550047653538,274.4364902516008 230.6691362944465,272.42742087160855 230.00861214857468,270.52937653619637 229.12658773652743,268.75" style="fill:rgb(86.3%,7.8%,23.5%);fill-opacity:1.0;opacity:1.0;stroke:none" /><polygon class="toyplot-Datum" points="479.1265877365274,331.25 480.00861214857457,329.4706234638037 480.6691362944465,327.57257912839145 481.1055004765354,325.5635097483992 481.315947610292,323.4515051371317 481.2996302993848,321.2450695917395 481.0566142478657,318.95308764941626 480.5878779956031,316.5847883125031 479.8953089780474,314.14970788655313 478.9816959261943,311.6576515809952 477.8507176373497,309.1186540270162 476.5069281619109,306.5429388716424 474.9557384658134,303.94087761072205 473.20339464248065,301.32294782657164 471.2569527620104,298.6996909984497 469.1242504588709,296.081670055741 466.8138753725127,293.4794268447678 464.3351305679762,290.90343968049496 461.6979970757317,288.3640811540545 458.9130937015925,285.87157636598164 455.9916342685321,283.4359617533439 452.94538246257673,281.06704467655135 449.786604464593,278.7743639285777 446.5280195587079,276.56715132560765 443.18274891624037,274.4542945337716 439.764262761375,272.4443012816503 436.28632613132413,270.5452651026558 432.7629434493809,268.76483274522764 429.2083021340496,267.1101733820768 425.6367154713184,265.58794974245706 422.06256498010896,264.20429128370574 418.50024250297525,262.96476951008253 414.96409225523314,261.8743755382884 411.4683530658681,260.9375 408.0271010427964,260.1579153623456 404.65419289334636,259.5387607375116 401.36321012818905,259.08252924264536 398.1674043733878,258.79105796095257 395.07964401077743,258.6655205444118 392.1123623615326,258.70642248789176 389.277507621571,258.9135990937019 386.58649475038624,259.2862161347727 384.0501595070344,259.8227732137924 381.67871481835664,260.52110980477835 379.48170965512776,261.3784139527521 377.46799058172064,262.39123359649005 375.64566613411444,263.5554904687552 374.02207416968156,264.86649651804004 372.6037523202262,266.3189727856956 371.396411667248,267.90707066243453 370.4049137454334,269.62439543861643 369.63325096697054,271.4640320534866 369.08453054551444,273.41857293968536 368.7609619845351,275.4801478509069 368.663848180426,277.6404555526039 368.7935801762006,279.8907972481286 369.1496355869,282.2221116057173 369.73058070305274,284.6250112452749 370.5340762637173,287.0898205380413 371.5568868758594,289.6066145669335 372.7948940421387,292.16525909068406 374.2431127446433,294.75545135085355 375.89571151779836,297.36676155740236 377.7460359296185,299.98867488577434 379.7866353767579,302.61063381638417 382.0092930854598,305.2220806460225 384.40505919760443,307.8125 386.96428680862897,310.3714611738507 389.6766708122071,312.88866013409694 392.53128939527556,315.3539610089554 395.51664801632023,317.7574369019158 398.62072568983774,320.0894098638488 401.83102339060184,322.34048986269204 405.1346143828259,324.50161259379496 408.51819627156635,326.56407597867417 411.96814456677134,328.5195752052124 415.4705675442937,330.36023616820546 419.01136218296153,332.07864717560545 422.57627095246596,333.66788879278783 426.150939223405,335.1215617046733 429.7209730683079,336.4338124835103 433.27199722090296,337.5993571585634 436.7897129602392,338.6135024927977 440.2599556865904,339.4721648808886 443.6687519572979,340.17188679245885 447.0023757528931,340.709850694333 450.2474037469327,341.0838903957492 453.39076935699745,341.29249977084476 456.41981535920644,341.33483882329364 459.3223448543921,341.210737068675 462.0866703807069,340.9206942209536 464.70166097490767,340.4658781803084 467.1567869928165,339.8481203304107 469.4421625084804,339.0699081640882 471.5485851213071,338.1343752670697 473.4675730108833,337.04528870014053 475.1913990902725,335.80703383052 476.71312212026686,334.42459667353324 478.02661465930703,332.90354381568915 479.1265877365274,331.25" style="fill:rgb(25.5%,41.2%,88.2%);fill-opacity:1.0;opacity:1.0;stroke:none" /></g></g></g><g class="toyplot-coordinates-Axis" id="t0da5adcf17fa49e79594209372b72745" transform="translate(50.0,550.0)translate(0,10.0)"><line style="" x1="68.66326132087516" x2="431.33673867912484" y1="0" y2="0" /><g><g transform="translate(0.0,6)"><text style="fill:rgb(16.1%,15.3%,14.1%);fill-opacity:1.0;font-family:helvetica;font-size:10.0px;font-weight:normal;stroke:none;vertical-align:baseline;white-space:pre" x="-7.2250000000000005" y="8.555">-20</text></g><g transform="translate(125.0,6)"><text style="fill:rgb(16.1%,15.3%,14.1%);fill-opacity:1.0;font-family:helvetica;font-size:10.0px;font-weight:normal;stroke:none;vertical-align:baseline;white-space:pre" x="-7.2250000000000005" y="8.555">-10</text></g><g transform="translate(250.0,6)"><text style="fill:rgb(16.1%,15.3%,14.1%);fill-opacity:1.0;font-family:helvetica;font-size:10.0px;font-weight:normal;stroke:none;vertical-align:baseline;white-space:pre" x="-2.78" y="8.555">0</text></g><g transform="translate(375.0,6)"><text style="fill:rgb(16.1%,15.3%,14.1%);fill-opacity:1.0;font-family:helvetica;font-size:10.0px;font-weight:normal;stroke:none;vertical-align:baseline;white-space:pre" x="-5.56" y="8.555">10</text></g><g transform="translate(500.0,6)"><text style="fill:rgb(16.1%,15.3%,14.1%);fill-opacity:1.0;font-family:helvetica;font-size:10.0px;font-weight:normal;stroke:none;vertical-align:baseline;white-space:pre" x="-5.56" y="8.555">20</text></g></g><g class="toyplot-coordinates-Axis-coordinates" style="visibility:hidden" transform=""><line style="stroke:rgb(43.9%,50.2%,56.5%);stroke-opacity:1.0;stroke-width:1.0" x1="0" x2="0" y1="-3.0" y2="4.5" /><text style="alignment-baseline:alphabetic;fill:rgb(43.9%,50.2%,56.5%);fill-opacity:1.0;font-size:10px;font-weight:normal;stroke:none;text-anchor:middle" x="0" y="-6" /></g></g><g class="toyplot-coordinates-Axis" id="t29e3d6efc9e0403caf02a7610c2720c8" transform="translate(50.0,550.0)rotate(-90.0)translate(0,-10.0)"><line style="" x1="208.66013576461577" x2="291.3398642353842" y1="0" y2="0" /><g><g transform="translate(0.0,-6)"><text style="fill:rgb(16.1%,15.3%,14.1%);fill-opacity:1.0;font-family:helvetica;font-size:10.0px;font-weight:normal;stroke:none;vertical-align:baseline;white-space:pre" x="-7.2250000000000005" y="-4.440892098500626e-16">-20</text></g><g transform="translate(125.0,-6)"><text style="fill:rgb(16.1%,15.3%,14.1%);fill-opacity:1.0;font-family:helvetica;font-size:10.0px;font-weight:normal;stroke:none;vertical-align:baseline;white-space:pre" x="-7.2250000000000005" y="-4.440892098500626e-16">-10</text></g><g transform="translate(250.0,-6)"><text style="fill:rgb(16.1%,15.3%,14.1%);fill-opacity:1.0;font-family:helvetica;font-size:10.0px;font-weight:normal;stroke:none;vertical-align:baseline;white-space:pre" x="-2.78" y="-4.440892098500626e-16">0</text></g><g transform="translate(375.0,-6)"><text style="fill:rgb(16.1%,15.3%,14.1%);fill-opacity:1.0;font-family:helvetica;font-size:10.0px;font-weight:normal;stroke:none;vertical-align:baseline;white-space:pre" x="-5.56" y="-4.440892098500626e-16">10</text></g><g transform="translate(500.0,-6)"><text style="fill:rgb(16.1%,15.3%,14.1%);fill-opacity:1.0;font-family:helvetica;font-size:10.0px;font-weight:normal;stroke:none;vertical-align:baseline;white-space:pre" x="-5.56" y="-4.440892098500626e-16">20</text></g></g><g class="toyplot-coordinates-Axis-coordinates" style="visibility:hidden" transform=""><line style="stroke:rgb(43.9%,50.2%,56.5%);stroke-opacity:1.0;stroke-width:1.0" x1="0" x2="0" y1="3.0" y2="-4.5" /><text style="alignment-baseline:hanging;fill:rgb(43.9%,50.2%,56.5%);fill-opacity:1.0;font-size:10px;font-weight:normal;stroke:none;text-anchor:middle" x="0" y="6" /></g></g></g></svg>