<svg class="toyplot-canvas-Canvas" height="600px" id="t8e1c6efc1eae4da3b836983d3568b8c6" preserveAspectRatio="xMidYMid meet" style="background-color:transparent;border-color:#292724;border-style:none;border-width:1.0;fill:rgb(16.1%,15.3%,14.1%);fill-opacity:1.0;font-family:Helvetica;font-size:12px;opacity:1.0;stroke:rgb(16.1%,15.3%,14.1%);stroke-opacity:1.0;stroke-width:1.0" viewBox="0 0 600 600" width="600px" xmlns="http://www.w3.org/2000/svg" xmlns:toyplot="http://www.sandia.gov/toyplot" xmlns:xlink="http://www.w3.org/1999/xlink"><g class="toyplot-coordinates-Cartesian" id="tffa2a62e9767402b94b2e506d3403e54"><clipPath id="tb99938c7d4534b8d9eb6eab11bfd17a6"><rect height="520.0" width="520.0" x="40.0" y="40.0" /></clipPath><g clip-path="url(#tb99938c7d4534b8d9eb6eab11bfd17a6)"><g class="toyplot-mark-Ellipse" id="t9fe8f2099a854c53b826d2514e038f96" style="stroke:none"><g class="toyplot-Series"><polygon class="toyplot-Datum" points="550.0,300.0 549.4966691179711,292.07201004292943 547.9887032076988,284.1759433032813 545.4821743156767,276.34359445494874 541.9871753490891,268.6065016023651 537.5177794352363,260.99581928768913 532.0919832540181,253.54219304245908 525.7316345716554,246.27563598885357 518.4623442674463,239.22540798744143 510.3133832077953,232.41989781805032 501.31756438276466,225.88650886816993 491.5111107797445,219.65154878918258 480.9335095262675,213.740123564736 469.6273528892831,208.1760364178083 457.6381667711306,202.9816919635304 445.01422739279957,198.178005993708 431.80636690262554,193.7843212563107 418.0677686931707,189.8183295690522 403.85375325047164,186.2960005806852 389.22155539796796,183.23151746686167 374.23009383206875,180.63721981949078 358.93973387735684,178.5235539595573 343.4120444167326,176.89903087347398 327.70954997525274,175.77019194234322 311.8954789559356,175.141582602124 296.03350904129803,175.01573404076566 280.18751078580283,175.39315300600717 264.4212904316787,176.27231976488343 248.79833298370232,177.64969422315264 233.38154657749124,179.51973018000723 218.2330091706446,181.8748976606664 203.41371857671783,184.70571323692732 188.98334684855644,188.00077821358298 174.99999999999997,191.7468245269452 161.51998403347244,195.92876817065354 148.59757821558327,200.52976993364598 136.28481651367872,205.53130320571773 124.63127807341965,210.91322857764214 113.68388758106133,216.65387493546353 103.48672631430311,222.7301267224244 94.08085464254182,229.11751701715363 85.50414669125576,235.79032605332424 77.79113783626914,242.72168478407372 70.97288564198259,249.8836830741733 65.07684480352292,257.2474820842914 60.12675659637568,264.78343039482127 56.142553278648236,272.46118340168243 53.140277830901454,280.2498255033313 51.13201935672884,288.11799458697715 50.12586440420374,296.0340083127416 50.12586440420374,303.96599168725845 51.13201935672884,311.88200541302285 53.140277830901454,319.7501744966687 56.142553278648236,327.5388165983176 60.12675659637568,335.21656960517873 65.07684480352287,342.75251791570855 70.97288564198259,350.1163169258267 77.79113783626914,357.2783152159263 85.50414669125576,364.2096739466758 94.0808546425418,370.88248298284634 103.48672631430316,377.2698732775757 113.6838875810613,383.3461250645364 124.63127807341971,389.0867714223579 136.2848165136787,394.46869679428227 148.59757821558333,399.470230066354 161.51998403347238,404.0712318293464 175.00000000000006,408.25317547305485 188.9833468485565,411.99922178641697 203.4137185767178,415.2942867630727 218.2330091706445,418.1251023393335 233.38154657749135,420.48026981999277 248.79833298370235,422.3503057768474 264.4212904316787,423.7276802351166 280.18751078580283,424.60684699399275 296.0335090412981,424.9842659592344 311.8954789559356,424.858417397876 327.7095499752527,424.2298080576567 343.41204441673244,423.10096912652597 358.93973387735684,421.47644604044274 374.2300938320687,419.3627801805092 389.22155539796796,416.7684825331383 403.8537532504717,413.70399941931475 418.0677686931707,410.18167043094775 431.80636690262554,406.21567874368935 445.0142273927994,401.821994006292 457.6381667711306,397.01830803646965 469.6273528892831,391.82396358219165 480.9335095262675,386.259876435264 491.5111107797445,380.3484512108175 501.3175643827648,374.11349113183 510.3133832077953,367.58010218194966 518.4623442674463,360.77459201255857 525.7316345716553,353.72436401114646 532.0919832540181,346.45780695754087 537.5177794352364,339.0041807123109 541.9871753490891,331.39349839763486 545.4821743156767,323.65640554505126 547.9887032076988,315.8240566967186 549.4966691179711,307.92798995707057 550.0,300.00000000000006" style="fill:rgb(40%,76.1%,64.7%);fill-opacity:1.0;opacity:1.0;stroke:none" /></g></g></g><g class="toyplot-coordinates-Axis" id="tfdee153ae7804375af0de3a064970f77" transform="translate(50.0,550.0)translate(0,10.0)"><line style="" x1="0" x2="500.0" y1="0" y2="0" /><g><g transform="translate(0.0,6)"><text style="fill:rgb(16.1%,15.3%,14.1%);fill-opacity:1.0;font-family:helvetica;font-size:10.0px;font-weight:normal;stroke:none;vertical-align:baseline;white-space:pre" x="-7.2250000000000005" y="8.555">-20</text></g><g transform="translate(125.0,6)"><text style="fill:rgb(16.1%,15.3%,14.1%);fill-opacity:1.0;font-family:helvetica;font-size:10.0px;font-weight:normal;stroke:none;vertical-align:baseline;white-space:pre" x="-7.2250000000000005" y="8.555">-10</text></g><g transform="translate(250.0,6)"><text style="fill:rgb(16.1%,15.3%,14.1%);fill-opacity:1.0;font-family:helvetica;font-size:10.0px;font-weight:normal;stroke:none;vertical-align:baseline;white-space:pre" x="-2.78" y="8.555">0</text></g><g transform="translate(375.0,6)"><text style="fill:rgb(16.1%,15.3%,14.1%);fill-opacity:1.0;font-family:helvetica;font-size:10.0px;font-weight:normal;stroke:none;vertical-align:baseline;white-space:pre" x="-5.56" y="8.555">10</text></g><g transform="translate(500.0,6)"><text style="fill:rgb(16.1%,15.3%,14.1%);fill-opacity:1.0;font-family:helvetica;font-size:10.0px;font-weight:normal;stroke:none;vertical-align:baseline;white-space:pre" x="-5.56" y="8.555">20</text></g></g><g class="toyplot-coordinates-Axis-coordinates" style="visibility:hidden" transform=""><line style="stroke:rgb(43.9%,50.2%,56.5%);stroke-opacity:1.0;stroke-width:1.0" x1="0" x2="0" y1="-3.0" y2="4.5" /><text style="alignment-baseline:alphabetic;fill:rgb(43.9%,50.2%,56.5%);fill-opacity:1.0;font-size:10px;font-weight:normal;stroke:none;text-anchor:middle" x="0" y="-6" /></g></g><g class="toyplot-coordinates-Axis" id="t277aa3e3a07a42c19132909ed6461b14" transform="translate(50.0,550.0)rotate(-90.0)translate(0,-10.0)"><line style="" x1="125.0" x2="375.0" y1="0" y2="0" /><g><g transform="translate(0.0,-6)"><text style="fill:rgb(16.1%,15.3%,14.1%);fill-opacity:1.0;font-family:helvetica;font-size:10.0px;font-weight:normal;stroke:none;vertical-align:baseline;white-space:pre" x="-7.2250000000000005" y="-4.440892098500626e-16">-20</text></g><g transform="translate(125.0,-6)"><text style="fill:rgb(16.1%,15.3%,14.1%);fill-opacity:1.0;font-family:helvetica;font-size:10.0px;font-weight:normal;stroke:none;vertical-align:baseline;white-space:pre" x="-7.2250000000000005" y="-4.440892098500626e-16">-10</text></g><g transform="translate(250.0,-6)"><text style="fill:rgb(16.1%,15.3%,14.1%);fill-opacity:1.0;font-family:helvetica;font-size:10.0px;font-weight:normal;stroke:none;vertical-align:baseline;white-space:pre" x="-2.78" y="-4.440892098500626e-16">0</text></g><g transform="translate(375.0,-6)"><text style="fill:rgb(16.1%,15.3%,14.1%);fill-opacity:1.0;font-family:helvetica;font-size:10.0px;font-weight:normal;stroke:none;vertical-align:baseline;white-space:pre" x="-5.56" y="-4.440892098500626e-16">10</text></g><g transform="translate(500.0,-6)"><text style="fill:rgb(16.1%,15.3%,14.1%);fill-opacity:1.0;font-family:helvetica;font-size:10.0px;font-weight:normal;stroke:none;vertical-align:baseline;white-space:pre" x="-5.56" y="-4.440892098500626e-16">20</text></g></g><g class="toyplot-coordinates-Axis-coordinates" style="visibility:hidden" transform=""><line style="stroke:rgb(43.9%,50.2%,56.5%);stroke-opacity:1.0;stroke-width:1.0" x1="0" x2="0" y1="3.0" y2="-4.5" /><text style="alignment-baseline:hanging;fill:rgb(43.9%,50.2%,56.5%);fill-opacity:1.0;font-size:10px;font-weight:normal;stroke:none;text-anchor:middle" x="0" y="6" /></g></g></g></svg>