<svg height="600px" id="t240188eeb1b545dea02e2ae91cf4d811" preserveAspectRatio="xMidyMid meet" style="background-color:transparent;fill:rgb(16.1%,15.3%,14.1%);fill-opacity:1.0;font-family:helvetica;font-size:12px;opacity:1.0;stroke:rgb(16.1%,15.3%,14.1%);stroke-opacity:1.0;stroke-width:1.0" viewBox="0 0 600 600" width="600px" xmlns="http://www.w3.org/2000/svg" xmlns:toyplot="http://www.sandia.gov/toyplot"><g class="toyplot-axes-Cartesian" id="t50c85f822ec249b296d2922760aaeda9"><clipPath id="t7c9521a10f1a4fe49a9f47b5b40a6c1a"><rect height="500.0" width="500.0" x="50.0" y="50.0" /></clipPath><g class="toyplot-coordinate-events" clip-path="url(#t7c9521a10f1a4fe49a9f47b5b40a6c1a)" style="cursor:crosshair"><rect height="500.0" style="pointer-events:all;visibility:hidden" width="500.0" x="50.0" y="50.0" /><g class="toyplot-mark-Plot" id="t50957f7dd61d452999c27d3110e333e4" style="fill:none"><g class="toyplot-Series"><path d="M 60.0 300.0 L 64.848484848484858 284.77825928242453 L 69.696969696969703 269.61781114230018 L 74.545454545454561 254.57970135350155 L 79.393939393939391 239.72448307654102 L 84.242424242424249 225.11197303236312 L 89.090909090909093 210.80101064152137 L 93.939393939393938 196.84922109859883 L 98.787878787878796 183.3127833358875 L 103.63636363636364 170.24620381065657 L 108.48484848484848 157.70209702688629 L 113.33333333333333 145.73097367523059 L 118.18181818181819 134.38103724429311 L 123.03030303030305 123.69798992219199 L 127.87878787878789 113.72484856997836 L 132.72727272727275 104.50177150791941 L 137.57575757575756 96.06589681211652 L 142.42424242424241 88.451192772580299 L 147.27272727272728 81.688321114915567 L 152.12121212121212 75.804513536374373 L 156.96969696969697 70.823462053422304 L 161.81818181818181 66.765223602349977 L 166.66666666666666 63.646139277070048 L 171.5151515151515 61.47876852929901 L 176.36363636363637 60.271838596078062 L 181.21212121212122 60.030209358269957 L 186.06060606060609 60.754853771533831 L 190.90909090909093 62.442853948576129 L 195.75757575757578 65.087412908453075 L 200.60606060606062 68.677881945613876 L 205.45454545454547 73.19980350847959 L 210.30303030303031 78.634969414900439 L 215.15151515151516 84.961494170079419 L 220.00000000000003 92.153903091734747 L 224.84848484848482 100.18323488765489 L 229.69696969696972 109.01715827260031 L 234.54545454545456 118.62010215497799 L 239.39393939393943 128.95339886907291 L 244.24242424242425 139.97543987609001 L 249.09090909090912 151.64184330705481 L 253.93939393939394 163.90563267293498 L 258.78787878787881 176.71742602238248 L 263.63636363636363 190.02563478542149 L 268.4848484848485 203.77667150241277 L 273.33333333333331 217.91516560183948 L 278.18181818181819 232.38418635805687 L 283.030303030303 247.12547213123017 L 287.87878787878788 262.07966496639602 L 292.72727272727275 277.18654960699621 L 297.57575757575762 292.38529596046379 L 302.42424242424244 307.61470403953626 L 307.27272727272725 322.81345039300379 L 312.12121212121218 337.92033503360409 L 316.969696969697 352.87452786876975 L 321.81818181818181 367.61581364194313 L 326.66666666666669 382.08483439816047 L 331.51515151515156 396.22332849758737 L 336.36363636363637 409.97436521457848 L 341.21212121212125 423.28257397761757 L 346.06060606060606 436.09436732706496 L 350.90909090909093 448.35815669294533 L 355.75757575757575 460.02456012390996 L 360.60606060606062 471.04660113092706 L 365.45454545454544 481.37989784502196 L 370.30303030303031 490.98284172739972 L 375.15151515151518 499.81676511234514 L 380.00000000000006 507.84609690826534 L 384.84848484848487 515.03850582992061 L 389.69696969696969 521.36503058509959 L 394.5454545454545 526.80019649152041 L 399.39393939393943 531.32211805438612 L 404.24242424242425 534.91258709154692 L 409.09090909090912 537.55714605142384 L 413.93939393939394 539.24514622846607 L 418.78787878787881 539.96979064173001 L 423.63636363636363 539.72816140392194 L 428.4848484848485 538.52123147070097 L 433.33333333333331 536.35386072292988 L 438.18181818181824 533.23477639764997 L 443.03030303030306 529.1765379465777 L 447.87878787878788 524.19548646362568 L 452.72727272727275 518.31167888508435 L 457.57575757575762 511.54880722741962 L 462.42424242424244 503.93410318788347 L 467.27272727272725 495.49822849208061 L 472.12121212121218 486.27515143002159 L 476.969696969697 476.30201007780795 L 481.81818181818181 465.61896275570689 L 486.66666666666669 454.26902632476953 L 491.51515151515156 442.29790297311365 L 496.36363636363637 429.75379618934335 L 501.21212121212125 416.6872166641125 L 506.06060606060606 403.15077890140128 L 510.90909090909093 389.19898935847851 L 515.75757575757575 374.88802696763685 L 520.60606060606051 360.27551692345901 L 525.4545454545455 345.42029864649834 L 530.30303030303037 330.38218885769976 L 535.15151515151524 315.22174071757547 L 540.0 300.00000000000006" style="fill:none;stroke:rgb(40%,76.1%,64.7%);stroke-opacity:1.0;stroke-width:2.0" /></g></g></g><g class="toyplot-coordinates" style="visibility:hidden"><rect height="14.0" style="fill:rgb(100%,100%,100%);fill-opacity:1.0;opacity:0.75;stroke:none" width="90.0" x="450.0" y="60.0" /><text style="alignment-baseline:middle;font-size:10px;font-weight:normal;stroke:none;text-anchor:middle" x="495.0" y="67.0" /></g><line style="" x1="60.0" x2="540.0" y1="550.0" y2="550.0" /><g><text style="alignment-baseline:middle;baseline-shift:-80%;font-size:10px;font-weight:normal;stroke:none;text-anchor:middle" x="60.0" y="550.0">red</text><text style="alignment-baseline:middle;baseline-shift:-80%;font-size:10px;font-weight:normal;stroke:none;text-anchor:middle" x="136.39437268410975" y="550.0">green</text><text style="alignment-baseline:middle;baseline-shift:-80%;font-size:10px;font-weight:normal;stroke:none;text-anchor:middle" x="212.7887453682195" y="550.0">blue</text></g><line style="" x1="50.0" x2="50.0" y1="60.03020935826996" y2="539.96979064173" /><g><text style="alignment-baseline:middle;baseline-shift:80%;font-size:10px;font-weight:normal;stroke:none;text-anchor:middle" transform="rotate(-90, 50.0, 540.0)" x="50.0" y="540.0">-1</text><text style="alignment-baseline:middle;baseline-shift:80%;font-size:10px;font-weight:normal;stroke:none;text-anchor:middle" transform="rotate(-90, 50.0, 60.0)" x="50.0" y="60.0">1</text></g></g></svg>