<svg height="600px" id="t37217ec5fb2b43b8a80d1c0c79e40b5a" preserveAspectRatio="xMidYMid meet" style="background-color:transparent;fill:rgb(16.1%,15.3%,14.1%);fill-opacity:1.0;font-family:Helvetica;font-size:12px;opacity:1.0;stroke:rgb(16.1%,15.3%,14.1%);stroke-opacity:1.0;stroke-width:1.0" viewBox="0 0 600 600" width="600px" xmlns="http://www.w3.org/2000/svg" xmlns:toyplot="http://www.sandia.gov/toyplot"><g class="toyplot-axes-Cartesian" id="t51debea8ddf243b587e9d4ff2602ea9b"><clipPath id="t331d4246b2c9481c8c97cc743aebbafb"><rect height="520.0" width="520.0" x="40.0" y="40.0" /></clipPath><g class="toyplot-coordinate-events" clip-path="url(#t331d4246b2c9481c8c97cc743aebbafb)" style="cursor:crosshair"><rect height="520.0" style="pointer-events:all;visibility:hidden" width="520.0" x="40.0" y="40.0" /><g class="toyplot-mark-Graph" id="t2f3c0de0f8b349c995046d7cd4469934"><g class="toyplot-Edges"><path d="M 301.511271844 412.303562501 C 298.251148303 413.668164627 210.353202048 450.5029126 182.00200623 462.38221901" style="fill:none;stroke:rgb(40%,76.1%,64.7%);stroke-opacity:1.0;stroke-width:1.0" /><path d="M 301.603664009 412.418354816 C 301.603664009 414.686352077 301.603664009 441.41190471 301.603664009 456.252716978" style="fill:none;stroke:rgb(40%,76.1%,64.7%);stroke-opacity:1.0;stroke-width:1.0" /><path d="M 167.410643577 356.605516552 C 159.946676522 356.775327668 172.907977404 362.250038038 183.361490946 366.508900819 C 223.228710205 382.74284348 271.45082097 401.761688439 292.212660366 408.153378834" style="fill:none;stroke:rgb(40%,76.1%,64.7%);stroke-opacity:1.0;stroke-width:1.0" /><path d="M 168.16957922 356.605516552 C 176.44527744 356.775327668 189.406578322 362.250038038 199.860091864 366.508900819 C 235.094503986 380.861336318 276.855762631 397.380561654 294.192492477 405.443193427" style="fill:none;stroke:rgb(40%,76.1%,64.7%);stroke-opacity:1.0;stroke-width:1.0" /><path d="M 144.82735864 301.070489273 C 144.015627475 303.60407112 131.291906446 344.49458778 148.536244126 366.508900819 C 167.107069321 390.22811746 262.09941397 405.008476971 292.344649174 409.165453083" style="fill:none;stroke:rgb(40%,76.1%,64.7%);stroke-opacity:1.0;stroke-width:1.0" /><path d="M 144.932949686 301.097659052 C 145.916266301 303.41388267 157.768861201 331.228943422 164.005332348 345.853076706" style="fill:none;stroke:rgb(40%,76.1%,64.7%);stroke-opacity:1.0;stroke-width:1.0" /><path d="M 319.131777625 301.050111939 C 321.448181194 303.210109331 358.306055646 338.259123612 346.51945515 366.508900819 C 339.035689774 384.434162193 320.557256745 398.474145239 309.773771184 405.483948095" style="fill:none;stroke:rgb(40%,76.1%,64.7%);stroke-opacity:1.0;stroke-width:1.0" /><path d="M 318.907396653 300.982187493 C 315.020326276 302.367846197 208.604350351 340.201762775 176.722453936 351.538352859" style="fill:none;stroke:rgb(40%,76.1%,64.7%);stroke-opacity:1.0;stroke-width:1.0" /><path d="M 478.52146138 245.345273545 C 479.069214931 247.790553611 496.518135262 326.42668507 462.009661581 366.508900819 C 441.498600919 390.323211685 342.665381976 405.035646749 311.225648065 409.172245528" style="fill:none;stroke:rgb(40%,76.1%,64.7%);stroke-opacity:1.0;stroke-width:1.0" /><path d="M 478.389472573 245.324896211 C 474.264822343 246.710554916 361.051422839 284.884093725 327.994826039 296.030495359" style="fill:none;stroke:rgb(40%,76.1%,64.7%);stroke-opacity:1.0;stroke-width:1.0" /><path d="M 244.769283565 245.338481101 C 244.432712106 247.546025605 233.873607518 318.656128415 256.687872868 366.508900819 C 265.042764374 384.01982307 283.191225384 398.222824788 293.684335568 405.361684092" style="fill:none;stroke:rgb(40%,76.1%,64.7%);stroke-opacity:1.0;stroke-width:1.0" /><path d="M 244.828678528 245.324896211 C 246.617126868 246.615460691 292.562430706 279.891646923 311.238846946 293.422196622" style="fill:none;stroke:rgb(40%,76.1%,64.7%);stroke-opacity:1.0;stroke-width:1.0" /><path d="M 204.45330236 245.338481101 C 204.750277176 247.613950051 214.471252838 320.911220032 246.610527427 366.508900819 C 259.387043979 384.644727976 281.422575366 398.983578586 293.35436355 405.884702328" style="fill:none;stroke:rgb(40%,76.1%,64.7%);stroke-opacity:1.0;stroke-width:1.0" /><path d="M 204.400506837 245.324896211 C 203.001425479 246.588290912 167.859405522 278.309007325 152.238530173 292.403329928" style="fill:none;stroke:rgb(40%,76.1%,64.7%);stroke-opacity:1.0;stroke-width:1.0" /><path d="M 244.775883005 189.776284044 C 244.775883005 192.044960549 244.775883005 218.773230161 244.775883005 233.614721673" style="fill:none;stroke:rgb(40%,76.1%,64.7%);stroke-opacity:1.0;stroke-width:1.0" /><path d="M 244.657093079 189.776284044 C 242.88844306 192.140054774 221.196082572 221.062284 210.425795893 235.421511944" style="fill:none;stroke:rgb(40%,76.1%,64.7%);stroke-opacity:1.0;stroke-width:1.0" /><path d="M 202.572461855 189.701567153 C 201.127184415 192.438922338 162.632648751 265.389777643 149.334776411 290.589747212" style="fill:none;stroke:rgb(40%,76.1%,64.7%);stroke-opacity:1.0;stroke-width:1.0" /><path d="M 202.618657938 189.776284044 C 202.697851222 192.044960549 203.608573993 218.773230161 204.110131461 233.614721673" style="fill:none;stroke:rgb(40%,76.1%,64.7%);stroke-opacity:1.0;stroke-width:1.0" /><path d="M 342.889762948 189.701567153 C 344.500026398 192.94156324 395.757879732 297.29389006 361.183411647 366.508900819 C 350.479119371 387.939063621 324.365133837 401.231877758 310.539306267 407.005455692" style="fill:none;stroke:rgb(40%,76.1%,64.7%);stroke-opacity:1.0;stroke-width:1.0" /><path d="M 342.803970223 189.640435151 C 340.791140911 190.319679614 276.070429228 212.204936205 225.525315453 233.492457669 C 221.33467082 235.251700828 216.761258645 237.384528441 212.940182673 239.211696046" style="fill:none;stroke:rgb(40%,76.1%,64.7%);stroke-opacity:1.0;stroke-width:1.0" /><path d="M 279.238160604 356.64627122 C 273.648434613 357.90966592 285.336043504 389.623589888 294.641254422 403.724704936" style="fill:none;stroke:rgb(40%,76.1%,64.7%);stroke-opacity:1.0;stroke-width:1.0" /><path d="M 280.003695687 356.64627122 C 286.200570192 357.828156585 299.089277229 385.670387115 302.553983422 400.797161302" style="fill:none;stroke:rgb(40%,76.1%,64.7%);stroke-opacity:1.0;stroke-width:1.0" /><path d="M 324.120954543 356.64627122 C 317.897682277 357.828156585 304.540414973 385.670387115 300.818330606 400.797161302" style="fill:none;stroke:rgb(40%,76.1%,64.7%);stroke-opacity:1.0;stroke-width:1.0" /><path d="M 324.879890185 356.64627122 C 330.456417296 357.90966592 318.227654295 389.623589888 308.678264083 403.724704936" style="fill:none;stroke:rgb(40%,76.1%,64.7%);stroke-opacity:1.0;stroke-width:1.0" /><path d="M 296.033736339 134.003521203 C 293.730531651 135.328047906 233.101472995 170.200458626 210.768966792 183.044971417" style="fill:none;stroke:rgb(40%,76.1%,64.7%);stroke-opacity:1.0;stroke-width:1.0" /><path d="M 296.238318991 134.118992762 C 298.310543266 136.503140826 323.949369094 165.989142957 336.290322581 180.192144674" style="fill:none;stroke:rgb(40%,76.1%,64.7%);stroke-opacity:1.0;stroke-width:1.0" /><path d="M 388.736075181 133.962766536 C 391.23066364 134.098615428 471.215880893 138.758232443 516.085475952 177.828373943 C 540.569399715 199.156650075 550.0 210.384561045 550.0 243.395841937 C 550.0 243.395841937 550.0 243.395841937 550.0 300.941432825 C 550.0 410.163942444 356.03584816 411.809072532 310.908874927 410.713451214" style="fill:none;stroke:rgb(40%,76.1%,64.7%);stroke-opacity:1.0;stroke-width:1.0" /><path d="M 388.551290851 134.118992762 C 386.512063777 136.503140826 361.381394858 165.989142957 349.284620664 180.192144674" style="fill:none;stroke:rgb(40%,76.1%,64.7%);stroke-opacity:1.0;stroke-width:1.0" /><path d="M 64.2290533763 245.331688656 C 65.1556148039 247.403384268 94.9996040336 314.071228291 121.036376115 366.508900819 C 137.944142337 400.566218184 159.359326329 440.394396505 168.638139486 457.512715456" style="fill:none;stroke:rgb(40%,76.1%,64.7%);stroke-opacity:1.0;stroke-width:1.0" /><path d="M 64.2653502983 245.324896211 C 66.2286838076 246.62904558 117.089910776 280.543721608 136.993822924 293.809365966" style="fill:none;stroke:rgb(40%,76.1%,64.7%);stroke-opacity:1.0;stroke-width:1.0" /><path d="M 119.188532812 245.345273545 C 118.640779262 247.831308279 101.352225331 327.853098442 137.534977034 366.508900819 C 159.544110659 390.024344122 260.832321419 405.042439194 292.27205533 409.199415306" style="fill:none;stroke:rgb(40%,76.1%,64.7%);stroke-opacity:1.0;stroke-width:1.0" /><path d="M 119.274325537 245.44036777 C 120.383031519 247.749798944 133.654506098 275.564859695 140.636714007 290.195785424" style="fill:none;stroke:rgb(40%,76.1%,64.7%);stroke-opacity:1.0;stroke-width:1.0" /><path d="M 439.789345863 356.612308996 C 431.427854918 357.291553459 338.098569241 393.108113983 309.51639301 405.898287217" style="fill:none;stroke:rgb(40%,76.1%,64.7%);stroke-opacity:1.0;stroke-width:1.0" /><path d="M 440.363497175 356.754950334 C 439.822343065 359.485513074 342.533393168 397.550372769 310.974869331 407.834133936" style="fill:none;stroke:rgb(40%,76.1%,64.7%);stroke-opacity:1.0;stroke-width:1.0" /><path d="M 494.115938968 189.708359597 C 495.3962304 193.41024192 535.923393696 312.128589128 482.170951903 366.508900819 C 457.185470672 391.790379725 344.269045985 405.782815658 310.908874927 409.416773534" style="fill:none;stroke:rgb(40%,76.1%,64.7%);stroke-opacity:1.0;stroke-width:1.0" /><path d="M 494.043345124 189.776284044 C 493.376801647 192.072130328 485.477271527 219.337003065 481.20743361 234.076607907" style="fill:none;stroke:rgb(40%,76.1%,64.7%);stroke-opacity:1.0;stroke-width:1.0" /></g><g class="toyplot-Vertices"><g class="toyplot-Datum" style="fill:rgb(40%,76.1%,64.7%);fill-opacity:1.0;opacity:1.0;stroke:rgb(40%,76.1%,64.7%);stroke-opacity:1.0"><circle cx="173.28414550446124" cy="466.98138326776359" r="2.2360679774997898" /></g><g class="toyplot-Datum" style="fill:rgb(40%,76.1%,64.7%);fill-opacity:1.0;opacity:1.0;stroke:rgb(40%,76.1%,64.7%);stroke-opacity:1.0"><circle cx="301.603664009292" cy="466.98138326776359" r="2.2360679774997898" /></g><g class="toyplot-Datum" style="fill:rgb(40%,76.1%,64.7%);fill-opacity:1.0;opacity:1.0;stroke:rgb(40%,76.1%,64.7%);stroke-opacity:1.0"><circle cx="301.603664009292" cy="411.32069576368815" r="2.2360679774997898" /></g><g class="toyplot-Datum" style="fill:rgb(40%,76.1%,64.7%);fill-opacity:1.0;opacity:1.0;stroke:rgb(40%,76.1%,64.7%);stroke-opacity:1.0"><circle cx="167.78021223800221" cy="355.66136674853823" r="2.2360679774997898" /></g><g class="toyplot-Datum" style="fill:rgb(40%,76.1%,64.7%);fill-opacity:1.0;opacity:1.0;stroke:rgb(40%,76.1%,64.7%);stroke-opacity:1.0"><circle cx="144.86695528219207" cy="299.99728302214879" r="2.2360679774997898" /></g><g class="toyplot-Datum" style="fill:rgb(40%,76.1%,64.7%);fill-opacity:1.0;opacity:1.0;stroke:rgb(40%,76.1%,64.7%);stroke-opacity:1.0"><circle cx="319.01958713901058" cy="299.99728302214879" r="2.2360679774997898" /></g><g class="toyplot-Datum" style="fill:rgb(40%,76.1%,64.7%);fill-opacity:1.0;opacity:1.0;stroke:rgb(40%,76.1%,64.7%);stroke-opacity:1.0"><circle cx="478.50826249934011" cy="244.33999174038732" r="2.2360679774997898" /></g><g class="toyplot-Datum" style="fill:rgb(40%,76.1%,64.7%);fill-opacity:1.0;opacity:1.0;stroke:rgb(40%,76.1%,64.7%);stroke-opacity:1.0"><circle cx="244.77588300512116" cy="244.33999174038732" r="2.2360679774997898" /></g><g class="toyplot-Datum" style="fill:rgb(40%,76.1%,64.7%);fill-opacity:1.0;opacity:1.0;stroke:rgb(40%,76.1%,64.7%);stroke-opacity:1.0"><circle cx="204.44670291959244" cy="244.33999174038732" r="2.2360679774997898" /></g><g class="toyplot-Datum" style="fill:rgb(40%,76.1%,64.7%);fill-opacity:1.0;opacity:1.0;stroke:rgb(40%,76.1%,64.7%);stroke-opacity:1.0"><circle cx="244.77588300512116" cy="188.68270045862585" r="2.2360679774997898" /></g><g class="toyplot-Datum" style="fill:rgb(40%,76.1%,64.7%);fill-opacity:1.0;opacity:1.0;stroke:rgb(40%,76.1%,64.7%);stroke-opacity:1.0"><circle cx="202.61205849743942" cy="188.68270045862585" r="2.2360679774997898" /></g><g class="toyplot-Datum" style="fill:rgb(40%,76.1%,64.7%);fill-opacity:1.0;opacity:1.0;stroke:rgb(40%,76.1%,64.7%);stroke-opacity:1.0"><circle cx="342.85016630589729" cy="188.68270045862585" r="2.2360679774997898" /></g><g class="toyplot-Datum" style="fill:rgb(40%,76.1%,64.7%);fill-opacity:1.0;opacity:1.0;stroke:rgb(40%,76.1%,64.7%);stroke-opacity:1.0"><circle cx="279.60772926455837" cy="355.66136674853823" r="2.2360679774997898" /></g><g class="toyplot-Datum" style="fill:rgb(40%,76.1%,64.7%);fill-opacity:1.0;opacity:1.0;stroke:rgb(40%,76.1%,64.7%);stroke-opacity:1.0"><circle cx="324.51692096510214" cy="355.66136674853823" r="2.2360679774997898" /></g><g class="toyplot-Datum" style="fill:rgb(40%,76.1%,64.7%);fill-opacity:1.0;opacity:1.0;stroke:rgb(40%,76.1%,64.7%);stroke-opacity:1.0"><circle cx="296.1063301832005" cy="133.01861673223641" r="2.2360679774997898" /></g><g class="toyplot-Datum" style="fill:rgb(40%,76.1%,64.7%);fill-opacity:1.0;opacity:1.0;stroke:rgb(40%,76.1%,64.7%);stroke-opacity:1.0"><circle cx="388.67668021751757" cy="133.01861673223641" r="2.2360679774997898" /></g><g class="toyplot-Datum" style="fill:rgb(40%,76.1%,64.7%);fill-opacity:1.0;opacity:1.0;stroke:rgb(40%,76.1%,64.7%);stroke-opacity:1.0"><circle cx="64.207275223061089" cy="244.33999174038732" r="2.2360679774997898" /></g><g class="toyplot-Datum" style="fill:rgb(40%,76.1%,64.7%);fill-opacity:1.0;opacity:1.0;stroke:rgb(40%,76.1%,64.7%);stroke-opacity:1.0"><circle cx="119.20173169315242" cy="244.33999174038732" r="2.2360679774997898" /></g><g class="toyplot-Datum" style="fill:rgb(40%,76.1%,64.7%);fill-opacity:1.0;opacity:1.0;stroke:rgb(40%,76.1%,64.7%);stroke-opacity:1.0"><circle cx="440.00712739559691" cy="355.66136674853823" r="2.2360679774997898" /></g><g class="toyplot-Datum" style="fill:rgb(40%,76.1%,64.7%);fill-opacity:1.0;opacity:1.0;stroke:rgb(40%,76.1%,64.7%);stroke-opacity:1.0"><circle cx="494.08954120690561" cy="188.68270045862585" r="2.2360679774997898" /></g></g><g class="toyplot-Labels"><text class="toyplot-Datum" style="alignment-baseline:middle;font-size:12px;font-weight:normal;stroke:none;text-anchor:middle" x="173.28414550446124" y="466.98138326776359">0</text><text class="toyplot-Datum" style="alignment-baseline:middle;font-size:12px;font-weight:normal;stroke:none;text-anchor:middle" x="301.603664009292" y="466.98138326776359">1</text><text class="toyplot-Datum" style="alignment-baseline:middle;font-size:12px;font-weight:normal;stroke:none;text-anchor:middle" x="301.603664009292" y="411.32069576368815">2</text><text class="toyplot-Datum" style="alignment-baseline:middle;font-size:12px;font-weight:normal;stroke:none;text-anchor:middle" x="167.78021223800221" y="355.66136674853823">3</text><text class="toyplot-Datum" style="alignment-baseline:middle;font-size:12px;font-weight:normal;stroke:none;text-anchor:middle" x="144.86695528219207" y="299.99728302214879">4</text><text class="toyplot-Datum" style="alignment-baseline:middle;font-size:12px;font-weight:normal;stroke:none;text-anchor:middle" x="319.01958713901058" y="299.99728302214879">5</text><text class="toyplot-Datum" style="alignment-baseline:middle;font-size:12px;font-weight:normal;stroke:none;text-anchor:middle" x="478.50826249934011" y="244.33999174038732">6</text><text class="toyplot-Datum" style="alignment-baseline:middle;font-size:12px;font-weight:normal;stroke:none;text-anchor:middle" x="244.77588300512116" y="244.33999174038732">7</text><text class="toyplot-Datum" style="alignment-baseline:middle;font-size:12px;font-weight:normal;stroke:none;text-anchor:middle" x="204.44670291959244" y="244.33999174038732">8</text><text class="toyplot-Datum" style="alignment-baseline:middle;font-size:12px;font-weight:normal;stroke:none;text-anchor:middle" x="244.77588300512116" y="188.68270045862585">9</text><text class="toyplot-Datum" style="alignment-baseline:middle;font-size:12px;font-weight:normal;stroke:none;text-anchor:middle" x="202.61205849743942" y="188.68270045862585">10</text><text class="toyplot-Datum" style="alignment-baseline:middle;font-size:12px;font-weight:normal;stroke:none;text-anchor:middle" x="342.85016630589729" y="188.68270045862585">11</text><text class="toyplot-Datum" style="alignment-baseline:middle;font-size:12px;font-weight:normal;stroke:none;text-anchor:middle" x="279.60772926455837" y="355.66136674853823">12</text><text class="toyplot-Datum" style="alignment-baseline:middle;font-size:12px;font-weight:normal;stroke:none;text-anchor:middle" x="324.51692096510214" y="355.66136674853823">13</text><text class="toyplot-Datum" style="alignment-baseline:middle;font-size:12px;font-weight:normal;stroke:none;text-anchor:middle" x="296.1063301832005" y="133.01861673223641">14</text><text class="toyplot-Datum" style="alignment-baseline:middle;font-size:12px;font-weight:normal;stroke:none;text-anchor:middle" x="388.67668021751757" y="133.01861673223641">15</text><text class="toyplot-Datum" style="alignment-baseline:middle;font-size:12px;font-weight:normal;stroke:none;text-anchor:middle" x="64.207275223061089" y="244.33999174038732">16</text><text class="toyplot-Datum" style="alignment-baseline:middle;font-size:12px;font-weight:normal;stroke:none;text-anchor:middle" x="119.20173169315242" y="244.33999174038732">17</text><text class="toyplot-Datum" style="alignment-baseline:middle;font-size:12px;font-weight:normal;stroke:none;text-anchor:middle" x="440.00712739559691" y="355.66136674853823">18</text><text class="toyplot-Datum" style="alignment-baseline:middle;font-size:12px;font-weight:normal;stroke:none;text-anchor:middle" x="494.08954120690561" y="188.68270045862585">19</text></g></g></g><g class="toyplot-coordinates" style="visibility:hidden"><rect height="14.0" style="fill:rgb(100%,100%,100%);fill-opacity:1.0;opacity:0.75;stroke:none" width="90.0" x="450.0" y="60.0" /><text style="alignment-baseline:middle;font-size:10px;font-weight:normal;stroke:none;text-anchor:middle" x="495.0" y="67.0" /></g></g></svg>