<svg height="600px" id="t9ef3e0b822c345bb9ce08d4eed9cd55c" style="background-color:transparent;fill:rgb(16.1%,15.3%,14.1%);fill-opacity:1.0;font-family:helvetica;font-size:12px;opacity:1.0;stroke:rgb(16.1%,15.3%,14.1%);stroke-opacity:1.0;stroke-width:1.0" width="600px" xmlns="http://www.w3.org/2000/svg" xmlns:toyplot="http://www.sandia.gov/toyplot"><g class="toyplot-axes-Cartesian" id="tc7c373d0293d42d6a95dd6b0453e89ac"><clipPath id="tf8d11295550c410bb72f99a4dc8912fe"><rect height="500.0" width="500.0" x="50.0" y="50.0" /></clipPath><g class="toyplot-coordinate-events" clip-path="url(#tf8d11295550c410bb72f99a4dc8912fe)" style="cursor:crosshair"><rect height="500.0" style="pointer-events:all;visibility:hidden" width="500.0" x="50.0" y="50.0" /><g class="toyplot-mark-Plot" id="t7b2bab43b4794b92bbdb35027a005bcc" style="fill:none"><g class="toyplot-Series"><path d="M 60.0 300.0 L 64.351989823154682 284.77825928242453 L 68.703979646309378 269.61781114230018 L 73.055969469464074 254.57970135350155 L 77.40795929261877 239.72448307654102 L 81.759949115773452 225.11197303236312 L 86.111938938928148 210.80101064152137 L 90.463928762082844 196.84922109859883 L 94.81591858523754 183.3127833358875 L 99.167908408392222 170.24620381065657 L 103.51989823154692 157.70209702688629 L 107.8718880547016 145.73097367523059 L 112.22387787785631 134.38103724429311 L 116.57586770101099 123.69798992219199 L 120.92785752416569 113.72484856997836 L 125.27984734732036 104.50177150791941 L 129.63183717047508 96.06589681211652 L 133.98382699362978 88.451192772580299 L 138.33581681678444 81.688321114915567 L 142.68780663993914 75.804513536374373 L 147.03979646309384 70.823462053422304 L 151.39178628624853 66.765223602349977 L 155.7437761094032 63.646139277070048 L 160.09576593255792 61.47876852929901 L 164.44775575571262 60.271838596078062 L 168.79974557886729 60.030209358269957 L 173.15173540202198 60.754853771533831 L 177.50372522517671 62.442853948576129 L 181.85571504833138 65.087412908453075 L 186.20770487148604 68.677881945613876 L 190.55969469464074 73.19980350847959 L 194.91168451779546 78.634969414900439 L 199.26367434095016 84.961494170079419 L 203.61566416410483 92.153903091734747 L 207.96765398725955 100.18323488765489 L 212.31964381041425 109.01715827260031 L 216.67163363356889 118.62010215497799 L 221.02362345672361 128.95339886907291 L 225.37561327987831 139.97543987609001 L 229.72760310303298 151.64184330705481 L 234.07959292618767 163.90563267293498 L 238.4315827493424 176.71742602238248 L 242.78357257249706 190.02563478542149 L 247.13556239565176 203.77667150241277 L 251.4875522188064 217.91516560183948 L 255.83954204196115 232.38418635805687 L 260.19153186511585 247.12547213123017 L 264.54352168827052 262.07966496639602 L 268.89551151142524 277.18654960699621 L 273.24750133457991 292.38529596046379 L 277.59949115773458 307.61470403953626 L 281.9514809808893 322.81345039300379 L 286.30347080404403 337.92033503360409 L 290.65546062719864 352.87452786876975 L 295.00745045035342 367.61581364194313 L 299.35944027350808 382.08483439816047 L 303.71143009666275 396.22332849758737 L 308.06341991981742 409.97436521457848 L 312.41540974297209 423.28257397761757 L 316.76739956612687 436.09436732706496 L 321.11938938928148 448.35815669294533 L 325.4713792124362 460.02456012390996 L 329.82336903559093 471.04660113092706 L 334.17535885874554 481.37989784502196 L 338.52734868190032 490.98284172739972 L 342.87933850505499 499.81676511234514 L 347.23132832820966 507.84609690826534 L 351.58331815136438 515.03850582992061 L 355.93530797451905 521.36503058509959 L 360.28729779767372 526.80019649152041 L 364.6392876208285 531.32211805438612 L 368.99127744398317 534.91258709154692 L 373.34326726713778 537.55714605142384 L 377.6952570902925 539.24514622846607 L 382.04724691344722 539.96979064173001 L 386.39923673660189 539.72816140392194 L 390.75122655975662 538.52123147070097 L 395.10321638291123 536.35386072292988 L 399.45520620606595 533.23477639764997 L 403.80719602922068 529.1765379465777 L 408.15918585237534 524.19548646362568 L 412.51117567553007 518.31167888508435 L 416.86316549868479 511.54880722741962 L 421.2151553218394 503.93410318788347 L 425.56714514499413 495.49822849208061 L 429.91913496814891 486.27515143002159 L 434.27112479130352 476.30201007780795 L 438.62311461445819 465.61896275570689 L 442.9751044376128 454.26902632476953 L 447.32709426076758 442.29790297311365 L 451.67908408392231 429.75379618934335 L 456.03107390707692 416.6872166641125 L 460.38306373023164 403.15077890140128 L 464.73505355338636 389.19898935847851 L 469.08704337654103 374.88802696763685 L 473.43903319969576 360.27551692345901 L 477.79102302285048 345.42029864649834 L 482.14301284600509 330.38218885769976 L 486.49500266915982 315.22174071757547 L 490.84699249231448 300.00000000000006" style="fill:none;stroke:rgb(40%,76.1%,64.7%);stroke-opacity:1.0;stroke-width:2.0" /></g></g></g><g class="toyplot-coordinates" style="visibility:hidden"><rect height="14.0" style="fill:rgb(100%,100%,100%);fill-opacity:1.0;opacity:0.75;stroke:none" width="90.0" x="450.0" y="60.0" /><text style="alignment-baseline:middle;font-size:10px;font-weight:normal;stroke:none;text-anchor:middle" x="495.0" y="67.0" /></g><line style="" x1="60.0" x2="490.8469924923145" y1="550.0" y2="550.0" /><g><text style="alignment-baseline:middle;baseline-shift:-80%;font-size:10px;font-weight:normal;stroke:none;text-anchor:middle" x="60.0" y="550.0">0</text><text style="alignment-baseline:middle;baseline-shift:-80%;font-size:10px;font-weight:normal;stroke:none;text-anchor:middle" x="113.33333333333334" y="550.0">1</text><text style="alignment-baseline:middle;baseline-shift:-80%;font-size:10px;font-weight:normal;stroke:none;text-anchor:middle" x="166.66666666666669" y="550.0">2</text><text style="alignment-baseline:middle;baseline-shift:-80%;font-size:10px;font-weight:normal;stroke:none;text-anchor:middle" x="220.00000000000003" y="550.0">2</text><text style="alignment-baseline:middle;baseline-shift:-80%;font-size:10px;font-weight:normal;stroke:none;text-anchor:middle" x="273.33333333333337" y="550.0">3</text><text style="alignment-baseline:middle;baseline-shift:-80%;font-size:10px;font-weight:normal;stroke:none;text-anchor:middle" x="326.6666666666667" y="550.0">4</text><text style="alignment-baseline:middle;baseline-shift:-80%;font-size:10px;font-weight:normal;stroke:none;text-anchor:middle" x="380.00000000000006" y="550.0">5</text><text style="alignment-baseline:middle;baseline-shift:-80%;font-size:10px;font-weight:normal;stroke:none;text-anchor:middle" x="433.3333333333333" y="550.0">5</text><text style="alignment-baseline:middle;baseline-shift:-80%;font-size:10px;font-weight:normal;stroke:none;text-anchor:middle" x="486.66666666666674" y="550.0">6</text><text style="alignment-baseline:middle;baseline-shift:-80%;font-size:10px;font-weight:normal;stroke:none;text-anchor:middle" x="540.0" y="550.0">7</text></g><line style="" x1="50.0" x2="50.0" y1="60.03020935826996" y2="539.96979064173" /><g><text style="alignment-baseline:middle;baseline-shift:80%;font-size:10px;font-weight:normal;stroke:none;text-anchor:middle" transform="rotate(-90, 50.0, 540.0)" x="50.0" y="540.0">-1</text><text style="alignment-baseline:middle;baseline-shift:80%;font-size:10px;font-weight:normal;stroke:none;text-anchor:middle" transform="rotate(-90, 50.0, 300.0)" x="50.0" y="300.0">0</text><text style="alignment-baseline:middle;baseline-shift:80%;font-size:10px;font-weight:normal;stroke:none;text-anchor:middle" transform="rotate(-90, 50.0, 60.0)" x="50.0" y="60.0">1</text></g></g></svg>