<svg class="toyplot-canvas-Canvas" height="600px" id="te1f9cda11fc649fa8dcd02ec1fa006a4" preserveAspectRatio="xMidYMid meet" style="background-color:transparent;fill:rgb(16.1%,15.3%,14.1%);fill-opacity:1.0;font-family:Helvetica;font-size:12px;opacity:1.0;stroke:rgb(16.1%,15.3%,14.1%);stroke-opacity:1.0;stroke-width:1.0" viewBox="0 0 600 600" width="600px" xmlns="http://www.w3.org/2000/svg" xmlns:toyplot="http://www.sandia.gov/toyplot" xmlns:xlink="http://www.w3.org/1999/xlink"><g class="toyplot-coordinates-Cartesian" id="t951481dd33ca499f9b5870e34fb3d5f6"><clipPath id="t8006e9562fd945b082540675da476908"><rect height="520.0" width="520.0" x="40.0" y="40.0" /></clipPath><g clip-path="url(#t8006e9562fd945b082540675da476908)"><g class="toyplot-mark-FillMagnitudes" id="t506782e0ebb248c196fb19f9204616e8" style="stroke:none"><polygon points="50.0,300.0 60.0,302.60308204914617 70.0,305.31028738025822 80.0,308.12161599333615 90.0,311.03706788837985 100.0,314.05664306538944 110.0,317.18034152436491 120.00000000000001,320.40816326530614 130.0,323.74010828821326 140.0,327.17617659308621 150.0,330.71636817992504 160.0,334.3606830487297 170.0,338.10912119950018 180.0,341.96168263223649 190.00000000000003,345.91836734693879 200.0,349.97917534360687 210.0,354.14410662224077 220.0,358.41316118284044 230.0,362.78633902540611 240.0,367.26364014993754 250.0,371.84506455643481 260.0,376.53061224489795 270.0,381.32028321532692 280.0,386.21407746772184 290.0,391.2119950020824 300.0,396.31403581840902 310.0,401.52019991670136 320.0,406.83048729695963 330.00000000000006,412.24489795918367 340.0,417.7634319033736 350.0,423.38608912952935 360.0,429.11286963765093 370.0,434.94377342773845 380.0,440.87880049979174 390.0,446.91795085381085 400.0,453.06122448979585 410.0,459.30862140774678 420.0,465.66014160766343 430.0,472.11578508954602 440.0,478.67555185339444 450.0,485.33944189920862 460.0,492.10745522698875 470.0,498.97959183673464 480.0,505.95585172844642 490.0,513.03623490212408 500.0,520.22074135776757 510.0,527.50937109537688 520.0,534.90212411495202 530.0,542.3990004164931 540.0,550.0 540.0,300.0 530.0,297.50104123281966 520.0,295.10620574760515 510.0,292.81549354435651 500.0,290.62890462307371 490.0,288.54643898375679 480.0,286.56809662640563 470.0,284.69387755102042 460.0,282.92378175760098 450.0,281.25780924614747 440.0,279.69596001665968 430.0,278.23823406913783 420.0,276.88463140358181 410.0,275.63515201999166 400.0,274.48979591836741 390.0,273.44856309870886 380.0,272.5114535610162 370.0,271.67846730528947 360.0,270.94960433152858 350.0,270.32486463973345 340.0,269.8042482299042 330.00000000000006,269.38775510204079 320.0,269.07538525614331 310.0,268.8671386922116 300.0,268.76301541024571 290.0,268.76301541024571 280.0,268.8671386922116 270.0,269.07538525614331 260.0,269.38775510204084 250.0,269.8042482299042 240.0,270.32486463973345 230.0,270.94960433152858 220.0,271.67846730528947 210.0,272.51145356101625 200.0,273.44856309870886 190.00000000000003,274.48979591836741 180.0,275.63515201999166 170.0,276.88463140358181 160.0,278.23823406913783 150.0,279.69596001665968 140.0,281.25780924614742 130.0,282.92378175760098 120.00000000000001,284.69387755102036 110.0,286.56809662640563 100.0,288.54643898375679 90.0,290.62890462307371 80.0,292.81549354435651 70.0,295.10620574760515 60.0,297.50104123281966 50.0,300.0" style="fill:rgb(40%,76.1%,64.7%);fill-opacity:1.0;opacity:1.0;stroke:none" /><polygon points="50.0,300.0 60.0,297.50104123281966 70.0,295.10620574760515 80.0,292.81549354435651 90.0,290.62890462307371 100.0,288.54643898375679 110.0,286.56809662640563 120.00000000000001,284.69387755102036 130.0,282.92378175760098 140.0,281.25780924614742 150.0,279.69596001665968 160.0,278.23823406913783 170.0,276.88463140358181 180.0,275.63515201999166 190.00000000000003,274.48979591836741 200.0,273.44856309870886 210.0,272.51145356101625 220.0,271.67846730528947 230.0,270.94960433152858 240.0,270.32486463973345 250.0,269.8042482299042 260.0,269.38775510204084 270.0,269.07538525614331 280.0,268.8671386922116 290.0,268.76301541024571 300.0,268.76301541024571 310.0,268.8671386922116 320.0,269.07538525614331 330.00000000000006,269.38775510204079 340.0,269.8042482299042 350.0,270.32486463973345 360.0,270.94960433152858 370.0,271.67846730528947 380.0,272.5114535610162 390.0,273.44856309870886 400.0,274.48979591836741 410.0,275.63515201999166 420.0,276.88463140358181 430.0,278.23823406913783 440.0,279.69596001665968 450.0,281.25780924614747 460.0,282.92378175760098 470.0,284.69387755102042 480.0,286.56809662640563 490.0,288.54643898375679 500.0,290.62890462307371 510.0,292.81549354435651 520.0,295.10620574760515 530.0,297.50104123281966 540.0,300.0 540.0,50.0 530.0,57.600999583506905 520.0,65.097875885047898 510.0,72.490628904623051 500.0,79.779258642232406 490.0,86.963765097875921 480.0,94.044148271553553 470.0,101.02040816326536 460.0,107.89254477301131 450.0,114.66055810079141 440.0,121.32444814660565 430.0,127.88421491045393 420.0,134.33985839233654 410.0,140.6913785922533 400.0,146.93877551020412 390.0,153.08204914618906 380.0,159.12119950020826 370.0,165.05622657226155 360.0,170.88713036234904 350.0,176.6139108704707 340.0,182.2365680966264 330.00000000000006,187.75510204081633 320.0,193.16951270304043 310.0,198.47980008329864 300.0,203.68596418159098 290.0,208.78800499791757 280.0,213.78592253227819 270.0,218.67971678467308 260.0,223.46938775510208 250.0,228.15493544356519 240.0,232.73635985006248 230.0,237.21366097459389 220.0,241.58683881715956 210.0,245.85589337775926 200.0,250.02082465639322 190.00000000000003,254.08163265306123 180.0,258.03831736776345 170.0,261.89087880049982 160.0,265.6393169512703 150.0,269.28363182007502 140.0,272.82382340691385 130.0,276.25989171178674 120.00000000000001,279.59183673469386 110.0,282.81965847563509 100.0,285.94335693461062 90.0,288.9629321116202 80.0,291.87838400666385 70.0,294.68971261974178 60.0,297.39691795085383 50.0,300.0" style="fill:rgb(98.8%,55.3%,38.4%);fill-opacity:1.0;opacity:1.0;stroke:none" /></g><g class="toyplot-mark-FillMagnitudes" id="tc312bc6e8141493695cb30ca4cc53d7d" style="stroke:none"><polygon points="50.0,300.0 60.0,300.00106248246902 70.0,300.00849985975236 80.0,300.02868702666399 90.0,300.0679988780185 100.0,300.13281030862993 110.0,300.22949621331247 120.00000000000001,300.36443148688051 130.0,300.54399102414806 140.0,300.77454971992967 150.0,301.06248246903925 160.0,301.41416416629124 170.0,301.83596970649984 180.0,302.3342739844793 190.00000000000003,302.91545189504376 200.0,303.58587833300749 210.0,304.35192819318479 220.0,305.21997637038993 230.0,306.19639775943699 240.0,307.28756725514029 250.0,308.49985975231414 260.0,309.83965014577257 270.0,311.31331333033 280.0,312.92722420080077 290.0,314.68775765199865 300.0,316.60128857873849 310.0,318.67419187583408 320.0,320.91284243809974 330.00000000000006,323.32361516034985 340.0,325.91288493739853 350.0,328.68702666406 360.0,331.65241523514862 370.0,334.81542554547849 380.0,338.18243248986391 390.0,341.75981096311909 400.0,345.55393586005829 410.0,349.5711820754957 420.0,353.8179245042457 430.0,358.30053804112231 440.0,363.02539758093991 450.0,367.9988780185127 460.0,373.22735424865493 470.0,378.71720116618076 480.0,384.47479366590449 490.0,390.50650664264037 500.0,396.81871499120268 510.0,403.41779360640544 520.0,410.31011738306313 530.0,417.50206121598995 540.0,425.0 540.0,175.0 530.0,182.49793878401005 520.0,189.68988261693681 510.0,196.58220639359453 500.0,203.18128500879735 490.0,209.49349335735963 480.0,215.52520633409551 470.0,221.28279883381924 460.0,226.77264575134512 450.0,232.00112198148733 440.0,236.97460241906012 430.0,241.69946195887766 420.0,246.18207549575433 410.0,250.42881792450427 400.0,254.44606413994171 390.0,258.24018903688091 380.0,261.81756751013609 370.0,265.18457445452151 360.0,268.34758476485138 350.0,271.31297333593994 340.0,274.08711506260147 330.00000000000006,276.67638483965015 320.0,279.0871575619002 310.0,281.32580812416597 300.0,283.39871142126151 290.0,285.31224234800123 280.0,287.07277579919929 270.0,288.68668666967 260.0,290.16034985422743 250.0,291.50014024768586 240.0,292.71243274485971 230.0,293.80360224056301 220.0,294.78002362961007 210.0,295.64807180681521 200.0,296.41412166699251 190.00000000000003,297.08454810495624 180.0,297.6657260155207 170.0,298.16403029350016 160.0,298.58583583370876 150.0,298.93751753096075 140.0,299.22545028007033 130.0,299.45600897585194 120.00000000000001,299.63556851311949 110.0,299.77050378668753 100.0,299.86718969137007 90.0,299.9320011219815 80.0,299.97131297333596 70.0,299.99150014024764 60.0,299.99893751753092 50.0,300.0" style="fill:rgb(55.3%,62.7%,79.6%);fill-opacity:1.0;opacity:1.0;stroke:none" /></g></g><g class="toyplot-coordinates-Axis" id="tbaa80da3abe74cd0a227416dac790f44" transform="translate(50.0,550.0)translate(0,10.0)"><line style="" x1="0" x2="490.0" y1="0" y2="0" /><g><text style="font-size:10px;font-weight:normal;stroke:none;text-anchor:middle" transform="translate(0.0,6)translate(0,7.5)"><tspan>0</tspan></text><text style="font-size:10px;font-weight:normal;stroke:none;text-anchor:middle" transform="translate(100.0,6)translate(0,7.5)"><tspan>10</tspan></text><text style="font-size:10px;font-weight:normal;stroke:none;text-anchor:middle" transform="translate(200.0,6)translate(0,7.5)"><tspan>20</tspan></text><text style="font-size:10px;font-weight:normal;stroke:none;text-anchor:middle" transform="translate(300.0,6)translate(0,7.5)"><tspan>30</tspan></text><text style="font-size:10px;font-weight:normal;stroke:none;text-anchor:middle" transform="translate(400.0,6)translate(0,7.5)"><tspan>40</tspan></text><text style="font-size:10px;font-weight:normal;stroke:none;text-anchor:middle" transform="translate(500.0,6)translate(0,7.5)"><tspan>50</tspan></text></g><g class="toyplot-coordinates-Axis-coordinates" style="visibility:hidden" transform=""><line style="stroke:rgb(43.9%,50.2%,56.5%);stroke-opacity:1.0;stroke-width:1.0" x1="0" x2="0" y1="-3.0" y2="4.5" /><text style="alignment-baseline:alphabetic;fill:rgb(43.9%,50.2%,56.5%);fill-opacity:1.0;font-size:10px;font-weight:normal;stroke:none;text-anchor:middle" x="0" y="-6" /></g></g><g class="toyplot-coordinates-Axis" id="t2214834ccdcf4949b59dc9e032d22e18" transform="translate(50.0,550.0)rotate(-90.0)translate(0,-10.0)"><line style="" x1="0" x2="500.0" y1="0" y2="0" /><g><text style="font-size:10px;font-weight:normal;stroke:none;text-anchor:middle" transform="translate(0.0,-6)"><tspan>-1.0</tspan></text><text style="font-size:10px;font-weight:normal;stroke:none;text-anchor:middle" transform="translate(125.0,-6)"><tspan>-0.5</tspan></text><text style="font-size:10px;font-weight:normal;stroke:none;text-anchor:middle" transform="translate(250.0,-6)"><tspan>0.0</tspan></text><text style="font-size:10px;font-weight:normal;stroke:none;text-anchor:middle" transform="translate(375.0,-6)"><tspan>0.5</tspan></text><text style="font-size:10px;font-weight:normal;stroke:none;text-anchor:middle" transform="translate(500.0,-6)"><tspan>1.0</tspan></text></g><g class="toyplot-coordinates-Axis-coordinates" style="visibility:hidden" transform=""><line style="stroke:rgb(43.9%,50.2%,56.5%);stroke-opacity:1.0;stroke-width:1.0" x1="0" x2="0" y1="3.0" y2="-4.5" /><text style="alignment-baseline:hanging;fill:rgb(43.9%,50.2%,56.5%);fill-opacity:1.0;font-size:10px;font-weight:normal;stroke:none;text-anchor:middle" x="0" y="6" /></g></g></g><rect class="toyplot-mark-Legend" height="50.0" id="t0d37f24feb9244cb856332acc82a2ef9" style="fill:none;stroke:none" width="50.0" x="50.0" y="50.0" /><g style="fill:rgb(40%,76.1%,64.7%);fill-opacity:1.0;stroke:none"><rect height="10.0" transform="rotate(0, 65.0, 65.0)" width="10.0" x="60.0" y="60.0" /></g><g style="fill:rgb(98.8%,55.3%,38.4%);fill-opacity:1.0;stroke:none"><rect height="10.0" transform="rotate(0, 85.0, 65.0)" width="10.0" x="80.0" y="60.0" /></g><text style="font-size:12px;stroke:none" transform="translate(100.0,65.0)translate(0,3.375)"><tspan>Mark 0</tspan></text><g style="fill:rgb(55.3%,62.7%,79.6%);fill-opacity:1.0;stroke:none"><rect height="10.0" transform="rotate(0, 85.0, 85.0)" width="10.0" x="80.0" y="80.0" /></g><text style="font-size:12px;stroke:none" transform="translate(100.0,85.0)translate(0,3.375)"><tspan>Mark 1</tspan></text></svg>