<svg class="toyplot-canvas-Canvas" height="600px" id="t0d9e4d9d142e4cde91cde19cd0034e41" preserveAspectRatio="xMidYMid meet" style="background-color:transparent;fill:rgb(16.1%,15.3%,14.1%);fill-opacity:1.0;font-family:Helvetica;font-size:12px;opacity:1.0;stroke:rgb(16.1%,15.3%,14.1%);stroke-opacity:1.0;stroke-width:1.0" viewBox="0 0 600 600" width="600px" xmlns="http://www.w3.org/2000/svg" xmlns:toyplot="http://www.sandia.gov/toyplot" xmlns:xlink="http://www.w3.org/1999/xlink"><g class="toyplot-coordinates-Cartesian" id="tea4c01d221054e819307b64f7a216aa9"><clipPath id="t828de3d172d141e89e8571acbb57aad8"><rect height="520.0" width="520.0" x="40.0" y="40.0" /></clipPath><g clip-path="url(#t828de3d172d141e89e8571acbb57aad8)"><g class="toyplot-mark-Plot" id="t0478a400e0064c6a98397def3a1df73f" style="fill:none"><g class="toyplot-Series"><path d="M 50.0 550.0 L 60.0 539.79591836734687 L 70.0 529.59183673469386 L 80.0 519.38775510204084 L 90.0 509.18367346938777 L 100.0 498.97959183673464 L 110.0 488.77551020408157 L 120.00000000000001 478.57142857142861 L 130.0 468.36734693877554 L 140.0 458.16326530612247 L 150.0 447.9591836734694 L 160.0 437.75510204081633 L 170.0 427.55102040816325 L 180.0 417.34693877551024 L 190.00000000000003 407.14285714285717 L 200.0 396.93877551020415 L 210.0 386.73469387755102 L 220.0 376.53061224489795 L 230.0 366.32653061224488 L 240.0 356.12244897959187 L 250.0 345.91836734693879 L 260.0 335.71428571428572 L 270.0 325.51020408163271 L 280.0 315.30612244897964 L 290.0 305.10204081632656 L 300.0 294.89795918367344 L 310.0 284.69387755102042 L 320.0 274.48979591836741 L 330.00000000000006 264.28571428571428 L 340.0 254.08163265306123 L 350.0 243.87755102040822 L 360.0 233.67346938775515 L 370.0 223.46938775510208 L 380.0 213.26530612244898 L 390.0 203.0612244897959 L 400.0 192.85714285714289 L 410.0 182.65306122448985 L 420.0 172.44897959183677 L 430.0 162.2448979591837 L 440.0 152.04081632653066 L 450.0 141.83673469387759 L 460.0 131.63265306122452 L 470.0 121.42857142857144 L 480.0 111.22448979591839 L 490.0 101.02040816326536 L 500.0 90.816326530612287 L 510.0 80.612244897959215 L 520.0 70.408163265306143 L 530.0 60.204081632653072 L 540.0 50.0" style="stroke:rgb(40%,76.1%,64.7%);stroke-opacity:1.0;stroke-width:2.0" /></g><g class="toyplot-Series"><path d="M 50.0 550.0 L 60.0 549.79175343606835 L 70.0 549.16701374427316 L 80.0 548.12578092461479 L 90.0 546.66805497709288 L 100.0 544.79383590170767 L 110.0 542.50312369845904 L 120.00000000000001 539.79591836734687 L 130.0 536.67221990837152 L 140.0 533.13202832153274 L 150.0 529.17534360683055 L 160.0 524.80216576426483 L 170.0 520.01249479383591 L 180.0 514.80633069554358 L 190.00000000000003 509.18367346938777 L 200.0 503.14452311536866 L 210.0 496.68887963348607 L 220.0 489.81674302374012 L 230.0 482.5281132861308 L 240.0 474.82299042065807 L 250.0 466.70137442732198 L 260.0 458.16326530612247 L 270.0 449.2086630570596 L 280.0 439.83756768013325 L 290.0 430.04997917534359 L 300.0 419.84589754269052 L 310.0 409.22532278217409 L 320.0 398.18825489379429 L 330.00000000000006 386.73469387755102 L 340.0 374.86463973344439 L 350.0 362.5780924614744 L 360.0 349.87505206164099 L 370.0 336.75551853394421 L 380.0 323.21949187838402 L 390.0 309.26697209496041 L 400.0 294.89795918367355 L 410.0 280.11245314452316 L 420.0 264.91045397750941 L 430.0 249.29196168263226 L 440.0 233.25697625989181 L 450.0 216.80549770928786 L 460.0 199.93752603082055 L 470.0 182.65306122448985 L 480.0 164.95210329029578 L 490.0 146.83465222823833 L 500.0 128.30070803831745 L 510.0 109.35027072053317 L 520.0 89.983340274885478 L 530.0 70.199916701374448 L 540.0 50.0" style="stroke:rgb(98.8%,55.3%,38.4%);stroke-opacity:1.0;stroke-width:2.0" /></g></g><g class="toyplot-mark-Plot" id="t0b180fbbde9244e9b8f17739677518ff" style="fill:none"><g class="toyplot-Series"><path d="M 50.0 550.0 L 60.0 549.9957500701239 L 70.0 549.96600056099078 L 80.0 549.88525189334371 L 90.0 549.728004487926 L 100.0 549.4687587654804 L 110.0 549.08201514675011 L 120.00000000000001 548.54227405247821 L 130.0 547.82403590340755 L 140.0 546.90180112028145 L 150.0 545.75007012384299 L 160.0 544.34334333483491 L 170.0 542.65612117400065 L 180.0 540.66290406208293 L 190.00000000000003 538.33819241982508 L 200.0 535.65648666797006 L 210.0 532.59228722726073 L 220.0 529.12009451844051 L 230.0 525.21440896225215 L 240.0 520.84973097943873 L 250.0 516.00056099074368 L 260.0 510.64139941690962 L 270.0 504.74674667867981 L 280.0 498.29110319679728 L 290.0 491.24896939200505 L 300.0 483.59484568504621 L 310.0 475.3032324966639 L 320.0 466.34863024760097 L 330.00000000000006 456.70553935860056 L 340.0 446.34846025040588 L 350.0 435.25189334375989 L 360.0 423.39033905940556 L 370.0 410.73829781808598 L 380.0 397.27027004054435 L 390.0 382.96075614752357 L 400.0 367.78425655976685 L 410.0 351.71527169801703 L 420.0 334.72830198301739 L 430.0 316.79784783551071 L 440.0 297.89840967624042 L 450.0 278.00448792594926 L 460.0 257.09058300538049 L 470.0 235.13119533527703 L 480.0 212.10082533638197 L 490.0 187.97397342943856 L 500.0 162.72514003518953 L 510.0 136.3288255743781 L 520.0 108.75953046774734 L 530.0 79.991755136040297 L 540.0 50.0" style="stroke:rgb(55.3%,62.7%,79.6%);stroke-opacity:1.0;stroke-width:2.0" /></g></g></g><g class="toyplot-coordinates-Axis" id="tb91a295f397a4093ab4908f48526ca5d" transform="translate(50.0,550.0)translate(0,10.0)"><line style="" x1="0" x2="490.0" y1="0" y2="0" /><g><g transform="translate(0.0,6)"><text style="fill:rgb(16.1%,15.3%,14.1%);fill-opacity:1.0;font-family:helvetica;font-size:10.0;font-weight:normal;stroke:none;vertical-align:baseline;white-space:pre" x="-2.78" y="8.555">0</text></g><g transform="translate(100.0,6)"><text style="fill:rgb(16.1%,15.3%,14.1%);fill-opacity:1.0;font-family:helvetica;font-size:10.0;font-weight:normal;stroke:none;vertical-align:baseline;white-space:pre" x="-5.56" y="8.555">10</text></g><g transform="translate(200.0,6)"><text style="fill:rgb(16.1%,15.3%,14.1%);fill-opacity:1.0;font-family:helvetica;font-size:10.0;font-weight:normal;stroke:none;vertical-align:baseline;white-space:pre" x="-5.56" y="8.555">20</text></g><g transform="translate(300.0,6)"><text style="fill:rgb(16.1%,15.3%,14.1%);fill-opacity:1.0;font-family:helvetica;font-size:10.0;font-weight:normal;stroke:none;vertical-align:baseline;white-space:pre" x="-5.56" y="8.555">30</text></g><g transform="translate(400.0,6)"><text style="fill:rgb(16.1%,15.3%,14.1%);fill-opacity:1.0;font-family:helvetica;font-size:10.0;font-weight:normal;stroke:none;vertical-align:baseline;white-space:pre" x="-5.56" y="8.555">40</text></g><g transform="translate(500.0,6)"><text style="fill:rgb(16.1%,15.3%,14.1%);fill-opacity:1.0;font-family:helvetica;font-size:10.0;font-weight:normal;stroke:none;vertical-align:baseline;white-space:pre" x="-5.56" y="8.555">50</text></g></g><g class="toyplot-coordinates-Axis-coordinates" style="visibility:hidden" transform=""><line style="stroke:rgb(43.9%,50.2%,56.5%);stroke-opacity:1.0;stroke-width:1.0" x1="0" x2="0" y1="-3.0" y2="4.5" /><text style="alignment-baseline:alphabetic;fill:rgb(43.9%,50.2%,56.5%);fill-opacity:1.0;font-size:10px;font-weight:normal;stroke:none;text-anchor:middle" x="0" y="-6" /></g></g><g class="toyplot-coordinates-Axis" id="t97c5fedf8ebf4ef58d14d725282b8cd6" transform="translate(50.0,550.0)rotate(-90.0)translate(0,-10.0)"><line style="" x1="0" x2="500.0" y1="0" y2="0" /><g><g transform="translate(0.0,-6)"><text style="fill:rgb(16.1%,15.3%,14.1%);fill-opacity:1.0;font-family:helvetica;font-size:10.0;font-weight:normal;stroke:none;vertical-align:baseline;white-space:pre" x="-6.95" y="-4.4408920985e-16">0.0</text></g><g transform="translate(250.0,-6)"><text style="fill:rgb(16.1%,15.3%,14.1%);fill-opacity:1.0;font-family:helvetica;font-size:10.0;font-weight:normal;stroke:none;vertical-align:baseline;white-space:pre" x="-6.95" y="-4.4408920985e-16">0.5</text></g><g transform="translate(500.0,-6)"><text style="fill:rgb(16.1%,15.3%,14.1%);fill-opacity:1.0;font-family:helvetica;font-size:10.0;font-weight:normal;stroke:none;vertical-align:baseline;white-space:pre" x="-6.95" y="-4.4408920985e-16">1.0</text></g></g><g class="toyplot-coordinates-Axis-coordinates" style="visibility:hidden" transform=""><line style="stroke:rgb(43.9%,50.2%,56.5%);stroke-opacity:1.0;stroke-width:1.0" x1="0" x2="0" y1="3.0" y2="-4.5" /><text style="alignment-baseline:hanging;fill:rgb(43.9%,50.2%,56.5%);fill-opacity:1.0;font-size:10px;font-weight:normal;stroke:none;text-anchor:middle" x="0" y="6" /></g></g></g><g class="toyplot-coordinates-Table" id="t5f9d95d665dd42fe8e976c8a65eb3dbe"><g transform="translate(95.0,62.5)"><g style="fill:rgb(40%,76.1%,64.7%);fill-opacity:1.0;stroke:rgb(40%,76.1%,64.7%);stroke-opacity:1.0;stroke-width:2.0"><line transform="rotate(45, -19.986000000000001, -4.4408920985006262e-16)" x1="-19.986000000000001" x2="-19.986000000000001" y1="-5.5500000000000007" y2="5.5499999999999989" /></g><text style="fill:rgb(16.1%,15.3%,14.1%);fill-opacity:1.0;font-family:helvetica;font-size:12.0;font-weight:normal;stroke:none;vertical-align:baseline;white-space:pre" x="-14.436" y="3.066"> </text><g style="fill:rgb(98.8%,55.3%,38.4%);fill-opacity:1.0;stroke:rgb(98.8%,55.3%,38.4%);stroke-opacity:1.0;stroke-width:2.0"><line transform="rotate(45, -5.5500000000000016, -4.4408920985006262e-16)" x1="-5.5500000000000016" x2="-5.5500000000000016" y1="-5.5500000000000007" y2="5.5499999999999989" /></g></g><g transform="translate(105.0,62.5)"><text style="fill:rgb(16.1%,15.3%,14.1%);fill-opacity:1.0;font-family:helvetica;font-size:12.0;font-weight:normal;stroke:none;vertical-align:baseline;white-space:pre" x="0" y="3.066">Mark 0</text></g><g transform="translate(95.0,87.5)"><g style="fill:rgb(55.3%,62.7%,79.6%);fill-opacity:1.0;stroke:rgb(55.3%,62.7%,79.6%);stroke-opacity:1.0;stroke-width:2.0"><line transform="rotate(45, -5.5499999999999998, -4.4408920985006262e-16)" x1="-5.5499999999999998" x2="-5.5499999999999998" y1="-5.5500000000000007" y2="5.5499999999999989" /></g></g><g transform="translate(105.0,87.5)"><text style="fill:rgb(16.1%,15.3%,14.1%);fill-opacity:1.0;font-family:helvetica;font-size:12.0;font-weight:normal;stroke:none;vertical-align:baseline;white-space:pre" x="0" y="3.066">Mark 1</text></g><line style="stroke:rgb(16.1%,15.3%,14.1%);stroke-opacity:1.0;stroke-width:0.5" x1="50.0" x2="150.0" y1="50.0" y2="50.0" /><line style="stroke:rgb(16.1%,15.3%,14.1%);stroke-opacity:1.0;stroke-width:0.5" x1="50.0" x2="150.0" y1="75.0" y2="75.0" /><line style="stroke:rgb(16.1%,15.3%,14.1%);stroke-opacity:1.0;stroke-width:0.5" x1="50.0" x2="150.0" y1="100.0" y2="100.0" /><line style="stroke:rgb(16.1%,15.3%,14.1%);stroke-opacity:1.0;stroke-width:0.5" x1="50.0" x2="50.0" y1="50.0" y2="100.0" /><line style="stroke:rgb(16.1%,15.3%,14.1%);stroke-opacity:1.0;stroke-width:0.5" x1="100.0" x2="100.0" y1="50.0" y2="100.0" /><line style="stroke:rgb(16.1%,15.3%,14.1%);stroke-opacity:1.0;stroke-width:0.5" x1="150.0" x2="150.0" y1="50.0" y2="100.0" /></g></svg>