<svg class="toyplot-canvas-Canvas" height="600px" id="t2e47dac72c514d0c9a6e3df15479b6ae" preserveAspectRatio="xMidYMid meet" style="background-color:transparent;border-color:#292724;border-style:none;border-width:1.0;fill:rgb(16.1%,15.3%,14.1%);fill-opacity:1.0;font-family:Helvetica;font-size:12px;opacity:1.0;stroke:rgb(16.1%,15.3%,14.1%);stroke-opacity:1.0;stroke-width:1.0" viewBox="0 0 600 600" width="600px" xmlns="http://www.w3.org/2000/svg" xmlns:toyplot="http://www.sandia.gov/toyplot" xmlns:xlink="http://www.w3.org/1999/xlink"><g class="toyplot-coordinates-Cartesian" id="t47e7518d151445b898fbfa7580eb953b"><clipPath id="t1e8a024238b846e7bbb91c8a0e93fb6d"><rect height="520.0" width="520.0" x="40.0" y="40.0" /></clipPath><g clip-path="url(#t1e8a024238b846e7bbb91c8a0e93fb6d)"><g class="toyplot-mark-FillBoundaries" id="t660f36b226034d3e9bede9a3cf6a8652" style="stroke:none"><polygon points="50.0,550.0 60.0,539.7959183673469 70.0,529.5918367346939 80.0,519.3877551020408 90.0,509.18367346938777 100.0,498.97959183673464 110.0,488.77551020408157 120.00000000000001,478.5714285714286 130.0,468.36734693877554 140.0,458.16326530612247 150.0,447.9591836734694 160.0,437.7551020408163 170.0,427.55102040816325 180.0,417.34693877551024 190.00000000000003,407.14285714285717 200.0,396.93877551020415 210.0,386.734693877551 220.0,376.53061224489795 230.0,366.3265306122449 240.0,356.12244897959187 250.0,345.9183673469388 260.0,335.7142857142857 270.0,325.5102040816327 280.0,315.30612244897964 290.0,305.10204081632656 300.0,294.89795918367344 310.0,284.6938775510204 320.0,274.4897959183674 330.00000000000006,264.2857142857143 340.0,254.08163265306123 350.0,243.87755102040822 360.0,233.67346938775515 370.0,223.46938775510208 380.0,213.26530612244898 390.0,203.0612244897959 400.0,192.8571428571429 410.0,182.65306122448985 420.0,172.44897959183677 430.0,162.2448979591837 440.0,152.04081632653066 450.0,141.8367346938776 460.0,131.63265306122452 470.0,121.42857142857144 480.0,111.22448979591839 490.0,101.02040816326536 500.0,90.81632653061229 510.0,80.61224489795921 520.0,70.40816326530614 530.0,60.20408163265307 540.0,50.0 540.0,50.0 530.0,70.19991670137445 520.0,89.98334027488548 510.0,109.35027072053317 500.0,128.30070803831745 490.0,146.83465222823833 480.0,164.95210329029578 470.0,182.65306122448985 460.0,199.93752603082055 450.0,216.80549770928786 440.0,233.25697625989181 430.0,249.29196168263226 420.0,264.9104539775094 410.0,280.11245314452316 400.0,294.89795918367355 390.0,309.2669720949604 380.0,323.219491878384 370.0,336.7555185339442 360.0,349.875052061641 350.0,362.5780924614744 340.0,374.8646397334444 330.00000000000006,386.734693877551 320.0,398.1882548937943 310.0,409.2253227821741 300.0,419.8458975426905 290.0,430.0499791753436 280.0,439.83756768013325 270.0,449.2086630570596 260.0,458.16326530612247 250.0,466.701374427322 240.0,474.8229904206581 230.0,482.5281132861308 220.0,489.8167430237401 210.0,496.68887963348607 200.0,503.14452311536866 190.00000000000003,509.18367346938777 180.0,514.8063306955436 170.0,520.0124947938359 160.0,524.8021657642648 150.0,529.1753436068306 140.0,533.1320283215327 130.0,536.6722199083715 120.00000000000001,539.7959183673469 110.0,542.503123698459 100.0,544.7938359017077 90.0,546.6680549770929 80.0,548.1257809246148 70.0,549.1670137442732 60.0,549.7917534360683 50.0,550.0" style="fill:rgb(40%,76.1%,64.7%);fill-opacity:1.0;opacity:1.0;stroke:none" /></g><g class="toyplot-mark-FillBoundaries" id="tb1475df865f14744b2f76b13cf152667" style="stroke:none"><polygon points="50.0,550.0 60.0,550.0 70.0,550.0 80.0,550.0 90.0,550.0 100.0,550.0 110.0,550.0 120.00000000000001,550.0 130.0,550.0 140.0,550.0 150.0,550.0 160.0,550.0 170.0,550.0 180.0,550.0 190.00000000000003,550.0 200.0,550.0 210.0,550.0 220.0,550.0 230.0,550.0 240.0,550.0 250.0,550.0 260.0,550.0 270.0,550.0 280.0,550.0 290.0,550.0 300.0,550.0 310.0,550.0 320.0,550.0 330.00000000000006,550.0 340.0,550.0 350.0,550.0 360.0,550.0 370.0,550.0 380.0,550.0 390.0,550.0 400.0,550.0 410.0,550.0 420.0,550.0 430.0,550.0 440.0,550.0 450.0,550.0 460.0,550.0 470.0,550.0 480.0,550.0 490.0,550.0 500.0,550.0 510.0,550.0 520.0,550.0 530.0,550.0 540.0,550.0 540.0,50.0 530.0,79.9917551360403 520.0,108.75953046774734 510.0,136.3288255743781 500.0,162.72514003518953 490.0,187.97397342943856 480.0,212.10082533638197 470.0,235.13119533527703 460.0,257.0905830053805 450.0,278.00448792594926 440.0,297.8984096762404 430.0,316.7978478355107 420.0,334.7283019830174 410.0,351.71527169801703 400.0,367.78425655976685 390.0,382.96075614752357 380.0,397.27027004054435 370.0,410.738297818086 360.0,423.39033905940556 350.0,435.2518933437599 340.0,446.3484602504059 330.00000000000006,456.70553935860056 320.0,466.34863024760097 310.0,475.3032324966639 300.0,483.5948456850462 290.0,491.24896939200505 280.0,498.2911031967973 270.0,504.7467466786798 260.0,510.6413994169096 250.0,516.0005609907437 240.0,520.8497309794387 230.0,525.2144089622522 220.0,529.1200945184405 210.0,532.5922872272607 200.0,535.6564866679701 190.00000000000003,538.3381924198251 180.0,540.6629040620829 170.0,542.6561211740006 160.0,544.3433433348349 150.0,545.750070123843 140.0,546.9018011202814 130.0,547.8240359034075 120.00000000000001,548.5422740524782 110.0,549.0820151467501 100.0,549.4687587654804 90.0,549.728004487926 80.0,549.8852518933437 70.0,549.9660005609908 60.0,549.9957500701239 50.0,550.0" style="fill:rgb(98.8%,55.3%,38.4%);fill-opacity:1.0;opacity:1.0;stroke:none" /></g></g><g class="toyplot-coordinates-Axis" id="tf385a11961dc49999e7e932c5ca28f10" transform="translate(50.0,550.0)translate(0,10.0)"><line style="" x1="0" x2="490.0" y1="0" y2="0" /><g><g transform="translate(0.0,6)"><text style="fill:rgb(16.1%,15.3%,14.1%);fill-opacity:1.0;font-family:helvetica;font-size:10.0px;font-weight:normal;stroke:none;vertical-align:baseline;white-space:pre" x="-2.78" y="8.555">0</text></g><g transform="translate(100.0,6)"><text style="fill:rgb(16.1%,15.3%,14.1%);fill-opacity:1.0;font-family:helvetica;font-size:10.0px;font-weight:normal;stroke:none;vertical-align:baseline;white-space:pre" x="-5.56" y="8.555">10</text></g><g transform="translate(200.0,6)"><text style="fill:rgb(16.1%,15.3%,14.1%);fill-opacity:1.0;font-family:helvetica;font-size:10.0px;font-weight:normal;stroke:none;vertical-align:baseline;white-space:pre" x="-5.56" y="8.555">20</text></g><g transform="translate(300.0,6)"><text style="fill:rgb(16.1%,15.3%,14.1%);fill-opacity:1.0;font-family:helvetica;font-size:10.0px;font-weight:normal;stroke:none;vertical-align:baseline;white-space:pre" x="-5.56" y="8.555">30</text></g><g transform="translate(400.0,6)"><text style="fill:rgb(16.1%,15.3%,14.1%);fill-opacity:1.0;font-family:helvetica;font-size:10.0px;font-weight:normal;stroke:none;vertical-align:baseline;white-space:pre" x="-5.56" y="8.555">40</text></g><g transform="translate(500.0,6)"><text style="fill:rgb(16.1%,15.3%,14.1%);fill-opacity:1.0;font-family:helvetica;font-size:10.0px;font-weight:normal;stroke:none;vertical-align:baseline;white-space:pre" x="-5.56" y="8.555">50</text></g></g><g class="toyplot-coordinates-Axis-coordinates" style="visibility:hidden" transform=""><line style="stroke:rgb(43.9%,50.2%,56.5%);stroke-opacity:1.0;stroke-width:1.0" x1="0" x2="0" y1="-3.0" y2="4.5" /><text style="alignment-baseline:alphabetic;fill:rgb(43.9%,50.2%,56.5%);fill-opacity:1.0;font-size:10px;font-weight:normal;stroke:none;text-anchor:middle" x="0" y="-6" /></g></g><g class="toyplot-coordinates-Axis" id="tf256c3c039ec4aae95eaf7267b0a23a5" transform="translate(50.0,550.0)rotate(-90.0)translate(0,-10.0)"><line style="" x1="0" x2="500.0" y1="0" y2="0" /><g><g transform="translate(0.0,-6)"><text style="fill:rgb(16.1%,15.3%,14.1%);fill-opacity:1.0;font-family:helvetica;font-size:10.0px;font-weight:normal;stroke:none;vertical-align:baseline;white-space:pre" x="-6.95" y="-4.440892098500626e-16">0.0</text></g><g transform="translate(250.0,-6)"><text style="fill:rgb(16.1%,15.3%,14.1%);fill-opacity:1.0;font-family:helvetica;font-size:10.0px;font-weight:normal;stroke:none;vertical-align:baseline;white-space:pre" x="-6.95" y="-4.440892098500626e-16">0.5</text></g><g transform="translate(500.0,-6)"><text style="fill:rgb(16.1%,15.3%,14.1%);fill-opacity:1.0;font-family:helvetica;font-size:10.0px;font-weight:normal;stroke:none;vertical-align:baseline;white-space:pre" x="-6.95" y="-4.440892098500626e-16">1.0</text></g></g><g class="toyplot-coordinates-Axis-coordinates" style="visibility:hidden" transform=""><line style="stroke:rgb(43.9%,50.2%,56.5%);stroke-opacity:1.0;stroke-width:1.0" x1="0" x2="0" y1="3.0" y2="-4.5" /><text style="alignment-baseline:hanging;fill:rgb(43.9%,50.2%,56.5%);fill-opacity:1.0;font-size:10px;font-weight:normal;stroke:none;text-anchor:middle" x="0" y="6" /></g></g></g><g class="toyplot-coordinates-Table" id="t90caafbb93dc42a199d0f68ec08c202c"><g transform="translate(95.0,62.5)"><g style="fill:rgb(40%,76.1%,64.7%);fill-opacity:1.0;stroke:none" transform="translate(-5.55, -4.440892098500626e-16)"><rect height="11.1" width="11.1" x="-5.55" y="-5.55" /></g></g><g transform="translate(105.0,62.5)"><text style="fill:rgb(16.1%,15.3%,14.1%);fill-opacity:1.0;font-family:helvetica;font-size:12.0px;font-weight:normal;stroke:none;vertical-align:baseline;white-space:pre" x="0" y="3.066">Mark 0</text></g><g transform="translate(95.0,87.5)"><g style="fill:rgb(98.8%,55.3%,38.4%);fill-opacity:1.0;stroke:none" transform="translate(-5.55, -4.440892098500626e-16)"><rect height="11.1" width="11.1" x="-5.55" y="-5.55" /></g></g><g transform="translate(105.0,87.5)"><text style="fill:rgb(16.1%,15.3%,14.1%);fill-opacity:1.0;font-family:helvetica;font-size:12.0px;font-weight:normal;stroke:none;vertical-align:baseline;white-space:pre" x="0" y="3.066">Mark 1</text></g><line style="stroke:rgb(16.1%,15.3%,14.1%);stroke-opacity:1.0;stroke-width:0.5" x1="50.0" x2="150.0" y1="50.0" y2="50.0" /><line style="stroke:rgb(16.1%,15.3%,14.1%);stroke-opacity:1.0;stroke-width:0.5" x1="50.0" x2="150.0" y1="75.0" y2="75.0" /><line style="stroke:rgb(16.1%,15.3%,14.1%);stroke-opacity:1.0;stroke-width:0.5" x1="50.0" x2="150.0" y1="100.0" y2="100.0" /><line style="stroke:rgb(16.1%,15.3%,14.1%);stroke-opacity:1.0;stroke-width:0.5" x1="50.0" x2="50.0" y1="50.0" y2="100.0" /><line style="stroke:rgb(16.1%,15.3%,14.1%);stroke-opacity:1.0;stroke-width:0.5" x1="100.0" x2="100.0" y1="50.0" y2="100.0" /><line style="stroke:rgb(16.1%,15.3%,14.1%);stroke-opacity:1.0;stroke-width:0.5" x1="150.0" x2="150.0" y1="50.0" y2="100.0" /></g></svg>