<svg class="toyplot-canvas-Canvas" height="600px" id="tcb034c588c5c45e4b01770ef72e15512" preserveAspectRatio="xMidYMid meet" style="background-color:transparent;border-color:#292724;border-style:none;border-width:1.0;fill:rgb(16.1%,15.3%,14.1%);fill-opacity:1.0;font-family:Helvetica;font-size:12px;opacity:1.0;stroke:rgb(16.1%,15.3%,14.1%);stroke-opacity:1.0;stroke-width:1.0" viewBox="0 0 600 600" width="600px" xmlns="http://www.w3.org/2000/svg" xmlns:toyplot="http://www.sandia.gov/toyplot" xmlns:xlink="http://www.w3.org/1999/xlink"><g class="toyplot-coordinates-Cartesian" id="t8f0de756c0bc4bf39c7aff9e086ecfe2"><clipPath id="tac11792c0db24b9ba050d362a25ef74b"><rect height="520.0" width="520.0" x="40.0" y="40.0" /></clipPath><g clip-path="url(#tac11792c0db24b9ba050d362a25ef74b)"><g class="toyplot-mark-FillMagnitudes" id="tab2fac4480dc4012973e62e525bf119f" style="stroke:none"><polygon points="50.0,300.0 60.0,302.60308204914617 70.0,305.3102873802582 80.0,308.12161599333615 90.0,311.03706788837985 100.0,314.05664306538944 110.0,317.1803415243649 120.00000000000001,320.40816326530614 130.0,323.74010828821326 140.0,327.1761765930862 150.0,330.71636817992504 160.0,334.3606830487297 170.0,338.1091211995002 180.0,341.9616826322365 190.00000000000003,345.9183673469388 200.0,349.97917534360687 210.0,354.14410662224077 220.0,358.41316118284044 230.0,362.7863390254061 240.0,367.26364014993754 250.0,371.8450645564348 260.0,376.53061224489795 270.0,381.3202832153269 280.0,386.21407746772184 290.0,391.2119950020824 300.0,396.314035818409 310.0,401.52019991670136 320.0,406.83048729695963 330.00000000000006,412.2448979591837 340.0,417.7634319033736 350.0,423.38608912952935 360.0,429.11286963765093 370.0,434.94377342773845 380.0,440.87880049979174 390.0,446.91795085381085 400.0,453.06122448979585 410.0,459.3086214077468 420.0,465.66014160766343 430.0,472.115785089546 440.0,478.67555185339444 450.0,485.3394418992086 460.0,492.10745522698875 470.0,498.97959183673464 480.0,505.9558517284464 490.0,513.0362349021241 500.0,520.2207413577676 510.0,527.5093710953769 520.0,534.902124114952 530.0,542.3990004164931 540.0,550.0 540.0,300.0 530.0,297.50104123281966 520.0,295.10620574760515 510.0,292.8154935443565 500.0,290.6289046230737 490.0,288.5464389837568 480.0,286.56809662640563 470.0,284.6938775510204 460.0,282.923781757601 450.0,281.2578092461475 440.0,279.6959600166597 430.0,278.23823406913783 420.0,276.8846314035818 410.0,275.63515201999166 400.0,274.4897959183674 390.0,273.44856309870886 380.0,272.5114535610162 370.0,271.6784673052895 360.0,270.9496043315286 350.0,270.32486463973345 340.0,269.8042482299042 330.00000000000006,269.3877551020408 320.0,269.0753852561433 310.0,268.8671386922116 300.0,268.7630154102457 290.0,268.7630154102457 280.0,268.8671386922116 270.0,269.0753852561433 260.0,269.38775510204084 250.0,269.8042482299042 240.0,270.32486463973345 230.0,270.9496043315286 220.0,271.6784673052895 210.0,272.51145356101625 200.0,273.44856309870886 190.00000000000003,274.4897959183674 180.0,275.63515201999166 170.0,276.8846314035818 160.0,278.23823406913783 150.0,279.6959600166597 140.0,281.2578092461474 130.0,282.923781757601 120.00000000000001,284.69387755102036 110.0,286.56809662640563 100.0,288.5464389837568 90.0,290.6289046230737 80.0,292.8154935443565 70.0,295.10620574760515 60.0,297.50104123281966 50.0,300.0" style="fill:rgb(40%,76.1%,64.7%);fill-opacity:1.0;opacity:1.0;stroke:none" /><polygon points="50.0,300.0 60.0,297.50104123281966 70.0,295.10620574760515 80.0,292.8154935443565 90.0,290.6289046230737 100.0,288.5464389837568 110.0,286.56809662640563 120.00000000000001,284.69387755102036 130.0,282.923781757601 140.0,281.2578092461474 150.0,279.6959600166597 160.0,278.23823406913783 170.0,276.8846314035818 180.0,275.63515201999166 190.00000000000003,274.4897959183674 200.0,273.44856309870886 210.0,272.51145356101625 220.0,271.6784673052895 230.0,270.9496043315286 240.0,270.32486463973345 250.0,269.8042482299042 260.0,269.38775510204084 270.0,269.0753852561433 280.0,268.8671386922116 290.0,268.7630154102457 300.0,268.7630154102457 310.0,268.8671386922116 320.0,269.0753852561433 330.00000000000006,269.3877551020408 340.0,269.8042482299042 350.0,270.32486463973345 360.0,270.9496043315286 370.0,271.6784673052895 380.0,272.5114535610162 390.0,273.44856309870886 400.0,274.4897959183674 410.0,275.63515201999166 420.0,276.8846314035818 430.0,278.23823406913783 440.0,279.6959600166597 450.0,281.2578092461475 460.0,282.923781757601 470.0,284.6938775510204 480.0,286.56809662640563 490.0,288.5464389837568 500.0,290.6289046230737 510.0,292.8154935443565 520.0,295.10620574760515 530.0,297.50104123281966 540.0,300.0 540.0,50.0 530.0,57.600999583506905 520.0,65.0978758850479 510.0,72.49062890462305 500.0,79.7792586422324 490.0,86.96376509787592 480.0,94.04414827155355 470.0,101.02040816326536 460.0,107.89254477301131 450.0,114.6605581007914 440.0,121.32444814660565 430.0,127.88421491045393 420.0,134.33985839233654 410.0,140.6913785922533 400.0,146.93877551020412 390.0,153.08204914618906 380.0,159.12119950020826 370.0,165.05622657226155 360.0,170.88713036234904 350.0,176.6139108704707 340.0,182.2365680966264 330.00000000000006,187.75510204081633 320.0,193.16951270304043 310.0,198.47980008329864 300.0,203.68596418159098 290.0,208.78800499791757 280.0,213.7859225322782 270.0,218.67971678467308 260.0,223.46938775510208 250.0,228.1549354435652 240.0,232.73635985006248 230.0,237.2136609745939 220.0,241.58683881715956 210.0,245.85589337775926 200.0,250.02082465639322 190.00000000000003,254.08163265306123 180.0,258.03831736776345 170.0,261.8908788004998 160.0,265.6393169512703 150.0,269.283631820075 140.0,272.82382340691385 130.0,276.25989171178674 120.00000000000001,279.59183673469386 110.0,282.8196584756351 100.0,285.9433569346106 90.0,288.9629321116202 80.0,291.87838400666385 70.0,294.6897126197418 60.0,297.39691795085383 50.0,300.0" style="fill:rgb(98.8%,55.3%,38.4%);fill-opacity:1.0;opacity:1.0;stroke:none" /></g><g class="toyplot-mark-FillMagnitudes" id="t26d59fc29fc2436b9552852cc8965659" style="stroke:none"><polygon points="50.0,300.0 60.0,300.001062482469 70.0,300.00849985975236 80.0,300.028687026664 90.0,300.0679988780185 100.0,300.1328103086299 110.0,300.2294962133125 120.00000000000001,300.3644314868805 130.0,300.54399102414806 140.0,300.77454971992967 150.0,301.06248246903925 160.0,301.41416416629124 170.0,301.83596970649984 180.0,302.3342739844793 190.00000000000003,302.91545189504376 200.0,303.5858783330075 210.0,304.3519281931848 220.0,305.21997637038993 230.0,306.196397759437 240.0,307.2875672551403 250.0,308.49985975231414 260.0,309.83965014577257 270.0,311.31331333033 280.0,312.92722420080077 290.0,314.68775765199865 300.0,316.6012885787385 310.0,318.6741918758341 320.0,320.91284243809974 330.00000000000006,323.32361516034985 340.0,325.91288493739853 350.0,328.68702666406 360.0,331.6524152351486 370.0,334.8154255454785 380.0,338.1824324898639 390.0,341.7598109631191 400.0,345.5539358600583 410.0,349.5711820754957 420.0,353.8179245042457 430.0,358.3005380411223 440.0,363.0253975809399 450.0,367.9988780185127 460.0,373.22735424865493 470.0,378.71720116618076 480.0,384.4747936659045 490.0,390.5065066426404 500.0,396.8187149912027 510.0,403.41779360640544 520.0,410.31011738306313 530.0,417.50206121598995 540.0,425.0 540.0,175.0 530.0,182.49793878401005 520.0,189.6898826169368 510.0,196.58220639359453 500.0,203.18128500879735 490.0,209.49349335735963 480.0,215.52520633409551 470.0,221.28279883381924 460.0,226.77264575134512 450.0,232.00112198148733 440.0,236.97460241906012 430.0,241.69946195887766 420.0,246.18207549575433 410.0,250.42881792450427 400.0,254.4460641399417 390.0,258.2401890368809 380.0,261.8175675101361 370.0,265.1845744545215 360.0,268.3475847648514 350.0,271.31297333593994 340.0,274.08711506260147 330.00000000000006,276.67638483965015 320.0,279.0871575619002 310.0,281.325808124166 300.0,283.3987114212615 290.0,285.31224234800123 280.0,287.0727757991993 270.0,288.68668666967 260.0,290.16034985422743 250.0,291.50014024768586 240.0,292.7124327448597 230.0,293.803602240563 220.0,294.78002362961007 210.0,295.6480718068152 200.0,296.4141216669925 190.00000000000003,297.08454810495624 180.0,297.6657260155207 170.0,298.16403029350016 160.0,298.58583583370876 150.0,298.93751753096075 140.0,299.22545028007033 130.0,299.45600897585194 120.00000000000001,299.6355685131195 110.0,299.7705037866875 100.0,299.8671896913701 90.0,299.9320011219815 80.0,299.97131297333596 70.0,299.99150014024764 60.0,299.9989375175309 50.0,300.0" style="fill:rgb(55.3%,62.7%,79.6%);fill-opacity:1.0;opacity:1.0;stroke:none" /></g></g><g class="toyplot-coordinates-Axis" id="tea4f0f4a6ca44687926091d55196e785" transform="translate(50.0,550.0)translate(0,10.0)"><line style="" x1="0" x2="490.0" y1="0" y2="0" /><g><g transform="translate(0.0,6)"><text style="fill:rgb(16.1%,15.3%,14.1%);fill-opacity:1.0;font-family:helvetica;font-size:10.0px;font-weight:normal;stroke:none;vertical-align:baseline;white-space:pre" x="-2.78" y="8.555">0</text></g><g transform="translate(100.0,6)"><text style="fill:rgb(16.1%,15.3%,14.1%);fill-opacity:1.0;font-family:helvetica;font-size:10.0px;font-weight:normal;stroke:none;vertical-align:baseline;white-space:pre" x="-5.56" y="8.555">10</text></g><g transform="translate(200.0,6)"><text style="fill:rgb(16.1%,15.3%,14.1%);fill-opacity:1.0;font-family:helvetica;font-size:10.0px;font-weight:normal;stroke:none;vertical-align:baseline;white-space:pre" x="-5.56" y="8.555">20</text></g><g transform="translate(300.0,6)"><text style="fill:rgb(16.1%,15.3%,14.1%);fill-opacity:1.0;font-family:helvetica;font-size:10.0px;font-weight:normal;stroke:none;vertical-align:baseline;white-space:pre" x="-5.56" y="8.555">30</text></g><g transform="translate(400.0,6)"><text style="fill:rgb(16.1%,15.3%,14.1%);fill-opacity:1.0;font-family:helvetica;font-size:10.0px;font-weight:normal;stroke:none;vertical-align:baseline;white-space:pre" x="-5.56" y="8.555">40</text></g><g transform="translate(500.0,6)"><text style="fill:rgb(16.1%,15.3%,14.1%);fill-opacity:1.0;font-family:helvetica;font-size:10.0px;font-weight:normal;stroke:none;vertical-align:baseline;white-space:pre" x="-5.56" y="8.555">50</text></g></g><g class="toyplot-coordinates-Axis-coordinates" style="visibility:hidden" transform=""><line style="stroke:rgb(43.9%,50.2%,56.5%);stroke-opacity:1.0;stroke-width:1.0" x1="0" x2="0" y1="-3.0" y2="4.5" /><text style="alignment-baseline:alphabetic;fill:rgb(43.9%,50.2%,56.5%);fill-opacity:1.0;font-size:10px;font-weight:normal;stroke:none;text-anchor:middle" x="0" y="-6" /></g></g><g class="toyplot-coordinates-Axis" id="tb27d82a20abf4e20a17e865b6bda6ef0" transform="translate(50.0,550.0)rotate(-90.0)translate(0,-10.0)"><line style="" x1="0" x2="500.0" y1="0" y2="0" /><g><g transform="translate(0.0,-6)"><text style="fill:rgb(16.1%,15.3%,14.1%);fill-opacity:1.0;font-family:helvetica;font-size:10.0px;font-weight:normal;stroke:none;vertical-align:baseline;white-space:pre" x="-8.615" y="-4.440892098500626e-16">-1.0</text></g><g transform="translate(125.0,-6)"><text style="fill:rgb(16.1%,15.3%,14.1%);fill-opacity:1.0;font-family:helvetica;font-size:10.0px;font-weight:normal;stroke:none;vertical-align:baseline;white-space:pre" x="-8.615" y="-4.440892098500626e-16">-0.5</text></g><g transform="translate(250.0,-6)"><text style="fill:rgb(16.1%,15.3%,14.1%);fill-opacity:1.0;font-family:helvetica;font-size:10.0px;font-weight:normal;stroke:none;vertical-align:baseline;white-space:pre" x="-6.95" y="-4.440892098500626e-16">0.0</text></g><g transform="translate(375.0,-6)"><text style="fill:rgb(16.1%,15.3%,14.1%);fill-opacity:1.0;font-family:helvetica;font-size:10.0px;font-weight:normal;stroke:none;vertical-align:baseline;white-space:pre" x="-6.95" y="-4.440892098500626e-16">0.5</text></g><g transform="translate(500.0,-6)"><text style="fill:rgb(16.1%,15.3%,14.1%);fill-opacity:1.0;font-family:helvetica;font-size:10.0px;font-weight:normal;stroke:none;vertical-align:baseline;white-space:pre" x="-6.95" y="-4.440892098500626e-16">1.0</text></g></g><g class="toyplot-coordinates-Axis-coordinates" style="visibility:hidden" transform=""><line style="stroke:rgb(43.9%,50.2%,56.5%);stroke-opacity:1.0;stroke-width:1.0" x1="0" x2="0" y1="3.0" y2="-4.5" /><text style="alignment-baseline:hanging;fill:rgb(43.9%,50.2%,56.5%);fill-opacity:1.0;font-size:10px;font-weight:normal;stroke:none;text-anchor:middle" x="0" y="6" /></g></g></g><g class="toyplot-coordinates-Table" id="tad2885a326a04eb3830d4eb7550c311c"><g transform="translate(95.0,62.5)"><g style="fill:rgb(40%,76.1%,64.7%);fill-opacity:1.0;stroke:none" transform="translate(-19.986, -4.440892098500626e-16)"><rect height="11.1" width="11.1" x="-5.55" y="-5.55" /></g><text style="fill:rgb(16.1%,15.3%,14.1%);fill-opacity:1.0;font-family:helvetica;font-size:12.0px;font-weight:normal;stroke:none;vertical-align:baseline;white-space:pre" x="-14.436000000000002" y="3.066"> </text><g style="fill:rgb(98.8%,55.3%,38.4%);fill-opacity:1.0;stroke:none" transform="translate(-5.550000000000002, -4.440892098500626e-16)"><rect height="11.1" width="11.1" x="-5.55" y="-5.55" /></g></g><g transform="translate(105.0,62.5)"><text style="fill:rgb(16.1%,15.3%,14.1%);fill-opacity:1.0;font-family:helvetica;font-size:12.0px;font-weight:normal;stroke:none;vertical-align:baseline;white-space:pre" x="0" y="3.066">Mark 0</text></g><g transform="translate(95.0,87.5)"><g style="fill:rgb(55.3%,62.7%,79.6%);fill-opacity:1.0;stroke:none" transform="translate(-5.55, -4.440892098500626e-16)"><rect height="11.1" width="11.1" x="-5.55" y="-5.55" /></g></g><g transform="translate(105.0,87.5)"><text style="fill:rgb(16.1%,15.3%,14.1%);fill-opacity:1.0;font-family:helvetica;font-size:12.0px;font-weight:normal;stroke:none;vertical-align:baseline;white-space:pre" x="0" y="3.066">Mark 1</text></g><line style="stroke:rgb(16.1%,15.3%,14.1%);stroke-opacity:1.0;stroke-width:0.5" x1="50.0" x2="150.0" y1="50.0" y2="50.0" /><line style="stroke:rgb(16.1%,15.3%,14.1%);stroke-opacity:1.0;stroke-width:0.5" x1="50.0" x2="150.0" y1="75.0" y2="75.0" /><line style="stroke:rgb(16.1%,15.3%,14.1%);stroke-opacity:1.0;stroke-width:0.5" x1="50.0" x2="150.0" y1="100.0" y2="100.0" /><line style="stroke:rgb(16.1%,15.3%,14.1%);stroke-opacity:1.0;stroke-width:0.5" x1="50.0" x2="50.0" y1="50.0" y2="100.0" /><line style="stroke:rgb(16.1%,15.3%,14.1%);stroke-opacity:1.0;stroke-width:0.5" x1="100.0" x2="100.0" y1="50.0" y2="100.0" /><line style="stroke:rgb(16.1%,15.3%,14.1%);stroke-opacity:1.0;stroke-width:0.5" x1="150.0" x2="150.0" y1="50.0" y2="100.0" /></g></svg>