<svg height="600px" id="t592113e925f445eaa2d632bea810b532" preserveAspectRatio="xMidYMid meet" style="background-color:transparent;fill:rgb(16.1%,15.3%,14.1%);fill-opacity:1.0;font-family:helvetica;font-size:12px;opacity:1.0;stroke:rgb(16.1%,15.3%,14.1%);stroke-opacity:1.0;stroke-width:1.0" viewBox="0 0 600 600" width="600px" xmlns="http://www.w3.org/2000/svg" xmlns:toyplot="http://www.sandia.gov/toyplot"><g class="toyplot-axes-Cartesian" id="tf54cb0edc26146ec8849c4b276ba351e"><clipPath id="t3a8600b00c094bf9b7a5ba08c551aa12"><rect height="500.0" width="500.0" x="50.0" y="50.0" /></clipPath><g class="toyplot-coordinate-events" clip-path="url(#t3a8600b00c094bf9b7a5ba08c551aa12)" style="cursor:crosshair"><rect height="500.0" style="pointer-events:all;visibility:hidden" width="500.0" x="50.0" y="50.0" /><g class="toyplot-mark-FillBoundaries" id="td7772775d5914acf90c1f3115d045e62" style="stroke:none"><polygon points="60.0,540.0 69.599999999999994,539.80008329862562 79.199999999999989,539.20033319450226 88.799999999999997,538.20074968763015 98.400000000000006,536.80133277800917 108.0,535.00208246563932 117.59999999999999,532.8029987505206 127.20000000000002,530.20408163265301 136.80000000000001,527.20533111203667 146.40000000000001,523.80674718867135 156.0,520.00832986255739 165.59999999999999,515.81007913369422 175.19999999999999,511.21199500208246 184.80000000000001,506.21407746772184 194.40000000000001,500.81632653061229 204.0,495.01874219075387 213.60000000000002,488.82132444814664 223.20000000000002,482.22407330279049 232.80000000000001,475.22698875468558 242.39999999999998,467.83007080383175 252.0,460.0333194502291 261.59999999999997,451.83673469387753 271.19999999999999,443.24031653477721 280.80000000000001,434.24406497292796 290.39999999999998,424.84798000832984 300.0,415.05206164098291 309.60000000000002,404.85630987088712 319.20000000000005,394.26072469804251 328.80000000000001,383.26530612244898 338.39999999999998,371.87005414410658 348.0,360.07496876301548 357.60000000000002,347.88004997917534 367.20000000000005,335.28529779258645 376.80000000000001,322.29071220324863 386.40000000000003,308.89629321116195 396.0,295.10204081632656 405.60000000000002,280.90795501874226 415.20000000000005,266.31403581840902 424.79999999999995,251.32028321532695 434.39999999999998,235.92669720949613 444.0,220.13327780091635 453.59999999999997,203.94002498958773 463.19999999999999,187.34693877551024 472.79999999999995,170.35401915868394 482.39999999999998,152.9612661391088 492.0,135.16867971678477 501.60000000000002,116.97625989171185 511.19999999999999,98.384006663890062 520.79999999999995,79.391920033319465 530.40000000000009,60.0 530.40000000000009,300.0 520.79999999999995,309.69596001665974 511.19999999999999,319.19200333194499 501.60000000000002,328.48812994585592 492.0,337.58433985839235 482.39999999999998,346.48063306955441 472.79999999999995,355.17700957934204 463.19999999999999,363.67346938775512 453.59999999999997,371.97001249479388 444.0,380.0666389004582 434.39999999999998,387.96334860474803 424.79999999999995,395.66014160766349 415.20000000000005,403.15701790920451 405.60000000000002,410.45397750937104 396.0,417.55102040816325 386.40000000000003,424.44814660558103 376.80000000000001,431.14535610162432 367.20000000000005,437.64264889629322 357.60000000000002,443.9400249895877 348.0,450.03748438150774 338.39999999999998,455.93502707205329 328.80000000000001,461.63265306122452 319.20000000000005,467.13036234902125 309.60000000000002,472.42815493544356 300.0,477.52603082049148 290.39999999999998,482.42399000416492 280.80000000000001,487.12203248646404 271.19999999999999,491.6201582673886 261.59999999999997,495.91836734693879 252.0,500.01665972511455 242.39999999999998,503.91503540191587 232.80000000000001,507.61349437734282 223.20000000000002,511.11203665139527 213.60000000000002,514.41066222407335 204.0,517.50937109537688 194.40000000000001,520.40816326530614 184.80000000000001,523.10703873386092 175.19999999999999,525.6059975010412 165.59999999999999,527.90503956684711 156.0,530.00416493127864 146.40000000000001,531.90337359433568 136.80000000000001,533.60266555601834 127.20000000000002,535.10204081632651 117.59999999999999,536.40149937526019 108.0,537.50104123281972 98.400000000000006,538.40066638900453 88.799999999999997,539.10037484381508 79.199999999999989,539.60016659725113 69.599999999999994,539.90004164931281 60.0,540.0" style="fill:rgb(40%,76.1%,64.7%);fill-opacity:1.0;opacity:0.2;stroke:none" /><polygon points="60.0,540.0 69.599999999999994,539.90004164931281 79.199999999999989,539.60016659725113 88.799999999999997,539.10037484381508 98.400000000000006,538.40066638900453 108.0,537.50104123281972 117.59999999999999,536.40149937526019 127.20000000000002,535.10204081632651 136.80000000000001,533.60266555601834 146.40000000000001,531.90337359433568 156.0,530.00416493127864 165.59999999999999,527.90503956684711 175.19999999999999,525.6059975010412 184.80000000000001,523.10703873386092 194.40000000000001,520.40816326530614 204.0,517.50937109537688 213.60000000000002,514.41066222407335 223.20000000000002,511.11203665139527 232.80000000000001,507.61349437734282 242.39999999999998,503.91503540191587 252.0,500.01665972511455 261.59999999999997,495.91836734693879 271.19999999999999,491.6201582673886 280.80000000000001,487.12203248646404 290.39999999999998,482.42399000416492 300.0,477.52603082049148 309.60000000000002,472.42815493544356 319.20000000000005,467.13036234902125 328.80000000000001,461.63265306122452 338.39999999999998,455.93502707205329 348.0,450.03748438150774 357.60000000000002,443.9400249895877 367.20000000000005,437.64264889629322 376.80000000000001,431.14535610162432 386.40000000000003,424.44814660558103 396.0,417.55102040816325 405.60000000000002,410.45397750937104 415.20000000000005,403.15701790920451 424.79999999999995,395.66014160766349 434.39999999999998,387.96334860474803 444.0,380.0666389004582 453.59999999999997,371.97001249479388 463.19999999999999,363.67346938775512 472.79999999999995,355.17700957934204 482.39999999999998,346.48063306955441 492.0,337.58433985839235 501.60000000000002,328.48812994585592 511.19999999999999,319.19200333194499 520.79999999999995,309.69596001665974 530.40000000000009,300.0 530.40000000000009,380.00000000000006 520.79999999999995,386.46397334443986 511.19999999999999,392.79466888796338 501.60000000000002,398.99208663057061 492.0,405.05622657226161 482.39999999999998,410.9870887130362 472.79999999999995,416.78467305289462 463.19999999999999,422.4489795918368 453.59999999999997,427.98000832986259 444.0,433.37775926697213 434.39999999999998,438.64223240316539 424.79999999999995,443.77342773844231 415.20000000000005,448.77134527280299 405.60000000000002,453.63598500624744 396.0,458.36734693877554 386.40000000000003,462.96543107038735 376.80000000000001,467.43023740108288 367.20000000000005,471.76176593086217 357.60000000000002,475.96001665972511 348.0,480.02498958767183 338.39999999999998,483.95668471470225 328.80000000000001,487.75510204081633 319.20000000000005,491.42024156601417 309.60000000000002,494.95210329029572 300.0,498.35068721366099 290.39999999999998,501.61599333610991 280.80000000000001,504.7480216576426 271.19999999999999,507.74677217825911 261.59999999999997,510.61224489795921 252.0,513.34443981674303 242.39999999999998,515.94335693461062 232.80000000000001,518.40899625156192 223.20000000000002,520.74135776759681 213.60000000000002,522.94044148271553 204.0,525.00624739691796 194.40000000000001,526.93877551020398 184.80000000000001,528.73802582257395 175.19999999999999,530.40399833402751 165.59999999999999,531.93669304456478 156.0,533.33610995418576 146.40000000000001,534.60224906289045 136.80000000000001,535.73511037067897 127.20000000000002,536.73469387755108 117.59999999999999,537.6009995835069 108.0,538.33402748854644 98.400000000000006,538.9337775926698 88.799999999999997,539.40024989587664 79.199999999999989,539.73344439816742 69.599999999999994,539.93336109954191 60.0,540.0" style="fill:rgb(98.8%,55.3%,38.4%);fill-opacity:1.0;opacity:0.2;stroke:none" /><polygon points="60.0,540.0 69.599999999999994,539.93336109954191 79.199999999999989,539.73344439816742 88.799999999999997,539.40024989587664 98.400000000000006,538.9337775926698 108.0,538.33402748854644 117.59999999999999,537.6009995835069 127.20000000000002,536.73469387755108 136.80000000000001,535.73511037067897 146.40000000000001,534.60224906289045 156.0,533.33610995418576 165.59999999999999,531.93669304456478 175.19999999999999,530.40399833402751 184.80000000000001,528.73802582257395 194.40000000000001,526.93877551020398 204.0,525.00624739691796 213.60000000000002,522.94044148271553 223.20000000000002,520.74135776759681 232.80000000000001,518.40899625156192 242.39999999999998,515.94335693461062 252.0,513.34443981674303 261.59999999999997,510.61224489795921 271.19999999999999,507.74677217825911 280.80000000000001,504.7480216576426 290.39999999999998,501.61599333610991 300.0,498.35068721366099 309.60000000000002,494.95210329029572 319.20000000000005,491.42024156601417 328.80000000000001,487.75510204081633 338.39999999999998,483.95668471470225 348.0,480.02498958767183 357.60000000000002,475.96001665972511 367.20000000000005,471.76176593086217 376.80000000000001,467.43023740108288 386.40000000000003,462.96543107038735 396.0,458.36734693877554 405.60000000000002,453.63598500624744 415.20000000000005,448.77134527280299 424.79999999999995,443.77342773844231 434.39999999999998,438.64223240316539 444.0,433.37775926697213 453.59999999999997,427.98000832986259 463.19999999999999,422.4489795918368 472.79999999999995,416.78467305289462 482.39999999999998,410.9870887130362 492.0,405.05622657226161 501.60000000000002,398.99208663057061 511.19999999999999,392.79466888796338 520.79999999999995,386.46397334443986 530.40000000000009,380.00000000000006 530.40000000000009,420.0 520.79999999999995,424.84798000832984 511.19999999999999,429.59600166597255 501.60000000000002,434.24406497292796 492.0,438.79216992919618 482.39999999999998,443.24031653477721 472.79999999999995,447.58850478967099 463.19999999999999,451.83673469387753 453.59999999999997,455.98500624739694 444.0,460.0333194502291 434.39999999999998,463.98167430237402 424.79999999999995,467.83007080383175 415.20000000000005,471.57850895460234 405.60000000000002,475.22698875468558 396.0,478.77551020408168 386.40000000000003,482.22407330279049 376.80000000000001,485.57267805081216 367.20000000000005,488.82132444814664 357.60000000000002,491.97001249479388 348.0,495.01874219075387 338.39999999999998,497.96751353602667 328.80000000000001,500.81632653061229 319.20000000000005,503.5651811745106 309.60000000000002,506.21407746772184 300.0,508.76301541024571 290.39999999999998,511.21199500208246 280.80000000000001,513.56101624323196 271.19999999999999,515.81007913369422 261.59999999999997,517.9591836734694 252.0,520.00832986255739 242.39999999999998,521.95751770095785 232.80000000000001,523.80674718867135 223.20000000000002,525.55601832569766 213.60000000000002,527.20533111203667 204.0,528.7546855476885 194.40000000000001,530.20408163265301 184.80000000000001,531.55351936693046 175.19999999999999,532.8029987505206 165.59999999999999,533.95251978342355 156.0,535.00208246563932 146.40000000000001,535.95168679716789 136.80000000000001,536.80133277800917 127.20000000000002,537.55102040816337 117.59999999999999,538.20074968763015 108.0,538.75052061640986 98.400000000000006,539.20033319450226 88.799999999999997,539.55018742190759 79.199999999999989,539.80008329862562 69.599999999999994,539.95002082465635 60.0,540.0" style="fill:rgb(55.3%,62.7%,79.6%);fill-opacity:1.0;opacity:0.2;stroke:none" /></g></g><g class="toyplot-coordinates" style="visibility:hidden"><rect height="14.0" style="fill:rgb(100%,100%,100%);fill-opacity:1.0;opacity:0.75;stroke:none" width="90.0" x="450.0" y="60.0" /><text style="alignment-baseline:middle;font-size:10px;font-weight:normal;stroke:none;text-anchor:middle" x="495.0" y="67.0" /></g><line style="" x1="60.0" x2="530.4000000000001" y1="550.0" y2="550.0" /><g><text style="alignment-baseline:middle;baseline-shift:-80%;font-size:10px;font-weight:normal;stroke:none;text-anchor:middle" x="60.0" y="550.0">0</text><text style="alignment-baseline:middle;baseline-shift:-80%;font-size:10px;font-weight:normal;stroke:none;text-anchor:middle" x="156.0" y="550.0">10</text><text style="alignment-baseline:middle;baseline-shift:-80%;font-size:10px;font-weight:normal;stroke:none;text-anchor:middle" x="252.0" y="550.0">20</text><text style="alignment-baseline:middle;baseline-shift:-80%;font-size:10px;font-weight:normal;stroke:none;text-anchor:middle" x="348.0" y="550.0">30</text><text style="alignment-baseline:middle;baseline-shift:-80%;font-size:10px;font-weight:normal;stroke:none;text-anchor:middle" x="444.0" y="550.0">40</text><text style="alignment-baseline:middle;baseline-shift:-80%;font-size:10px;font-weight:normal;stroke:none;text-anchor:middle" x="540.0" y="550.0">50</text></g><line style="" x1="50.0" x2="50.0" y1="60.0" y2="540.0" /><g><text style="alignment-baseline:middle;baseline-shift:80%;font-size:10px;font-weight:normal;stroke:none;text-anchor:middle" transform="rotate(-90, 50.0, 540.0)" x="50.0" y="540.0">0.0</text><text style="alignment-baseline:middle;baseline-shift:80%;font-size:10px;font-weight:normal;stroke:none;text-anchor:middle" transform="rotate(-90, 50.0, 300.0)" x="50.0" y="300.0">0.5</text><text style="alignment-baseline:middle;baseline-shift:80%;font-size:10px;font-weight:normal;stroke:none;text-anchor:middle" transform="rotate(-90, 50.0, 60.0)" x="50.0" y="60.0">1.0</text></g></g></svg>