<svg class="toyplot-canvas-Canvas" height="600px" id="tfe935ee0a5b342819e06c3a51d0d618f" preserveAspectRatio="xMidYMid meet" style="background-color:transparent;border-color:#292724;border-style:none;border-width:1.0;fill:rgb(16.1%,15.3%,14.1%);fill-opacity:1.0;font-family:Helvetica;font-size:12px;opacity:1.0;stroke:rgb(16.1%,15.3%,14.1%);stroke-opacity:1.0;stroke-width:1.0" viewBox="0 0 600 600" width="600px" xmlns="http://www.w3.org/2000/svg" xmlns:toyplot="http://www.sandia.gov/toyplot" xmlns:xlink="http://www.w3.org/1999/xlink"><g class="toyplot-coordinates-Cartesian" id="t847814d9285c46d89df22d36b8c87b84"><clipPath id="t4e5e7dd112fc4d40b6af9d9496dedf1d"><rect height="520.0" width="520.0" x="40.0" y="40.0" /></clipPath><g clip-path="url(#t4e5e7dd112fc4d40b6af9d9496dedf1d)"><g class="toyplot-mark-FillBoundaries" id="ta3c5b32ad3ef4f3abc23c64d2e404ba8" style="stroke:none"><polygon points="50.0,550.0 60.0,549.7917534360683 70.0,549.1670137442732 80.0,548.1257809246148 90.0,546.6680549770929 100.0,544.7938359017077 110.0,542.503123698459 120.00000000000001,539.7959183673469 130.0,536.6722199083715 140.0,533.1320283215327 150.0,529.1753436068306 160.0,524.8021657642648 170.0,520.0124947938359 180.0,514.8063306955436 190.00000000000003,509.18367346938777 200.0,503.14452311536866 210.0,496.68887963348607 220.0,489.8167430237401 230.0,482.5281132861308 240.0,474.8229904206581 250.0,466.701374427322 260.0,458.16326530612247 270.0,449.2086630570596 280.0,439.83756768013325 290.0,430.0499791753436 300.0,419.8458975426905 310.0,409.2253227821741 320.0,398.1882548937943 330.00000000000006,386.734693877551 340.0,374.8646397334444 350.0,362.5780924614744 360.0,349.875052061641 370.0,336.7555185339442 380.0,323.219491878384 390.0,309.2669720949604 400.0,294.89795918367355 410.0,280.11245314452316 420.0,264.9104539775094 430.0,249.29196168263226 440.0,233.25697625989181 450.0,216.80549770928786 460.0,199.93752603082055 470.0,182.65306122448985 480.0,164.95210329029578 490.0,146.83465222823833 500.0,128.30070803831745 510.0,109.35027072053317 520.0,89.98334027488548 530.0,70.19991670137445 540.0,50.0 540.0,300.0 530.0,310.09995835068725 520.0,319.9916701374427 510.0,329.67513536026655 500.0,339.1503540191587 490.0,348.4173261141192 480.0,357.47605164514795 470.0,366.3265306122449 460.0,374.9687630154103 450.0,383.40274885464396 440.0,391.6284881299459 430.0,399.64598084131615 420.0,407.4552269887547 410.0,415.05622657226155 400.0,422.44897959183675 390.0,429.6334860474802 380.0,436.609745939192 370.0,443.37775926697213 360.0,449.9375260308205 350.0,456.28904623073726 340.0,462.43231986672214 330.00000000000006,468.36734693877554 320.0,474.0941274468971 310.0,479.61266139108704 300.0,484.92294877134526 290.0,490.02498958767177 280.0,494.9187838400667 270.0,499.60433152852977 260.0,504.0816326530612 250.0,508.350687213661 240.0,512.411495210329 230.0,516.2640566430655 220.0,519.9083715118701 210.0,523.344439816743 200.0,526.5722615576843 190.00000000000003,529.5918367346939 180.0,532.4031653477717 170.0,535.006247396918 160.0,537.4010828821324 150.0,539.5876718034152 140.0,541.5660141607663 130.0,543.3361099541858 120.00000000000001,544.8979591836735 110.0,546.2515618492295 100.0,547.3969179508539 90.0,548.3340274885464 80.0,549.0628904623073 70.0,549.5835068721366 60.0,549.8958767180342 50.0,550.0" style="fill:rgb(40%,76.1%,64.7%);fill-opacity:1.0;opacity:0.2;stroke:none" /><polygon points="50.0,550.0 60.0,549.8958767180342 70.0,549.5835068721366 80.0,549.0628904623073 90.0,548.3340274885464 100.0,547.3969179508539 110.0,546.2515618492295 120.00000000000001,544.8979591836735 130.0,543.3361099541858 140.0,541.5660141607663 150.0,539.5876718034152 160.0,537.4010828821324 170.0,535.006247396918 180.0,532.4031653477717 190.00000000000003,529.5918367346939 200.0,526.5722615576843 210.0,523.344439816743 220.0,519.9083715118701 230.0,516.2640566430655 240.0,512.411495210329 250.0,508.350687213661 260.0,504.0816326530612 270.0,499.60433152852977 280.0,494.9187838400667 290.0,490.02498958767177 300.0,484.92294877134526 310.0,479.61266139108704 320.0,474.0941274468971 330.00000000000006,468.36734693877554 340.0,462.43231986672214 350.0,456.28904623073726 360.0,449.9375260308205 370.0,443.37775926697213 380.0,436.609745939192 390.0,429.6334860474802 400.0,422.44897959183675 410.0,415.05622657226155 420.0,407.4552269887547 430.0,399.64598084131615 440.0,391.6284881299459 450.0,383.40274885464396 460.0,374.9687630154103 470.0,366.3265306122449 480.0,357.47605164514795 490.0,348.4173261141192 500.0,339.1503540191587 510.0,329.67513536026655 520.0,319.9916701374427 530.0,310.09995835068725 540.0,300.0 540.0,383.33333333333337 530.0,390.06663890045814 520.0,396.66111342496185 510.0,403.11675690684444 500.0,409.43356934610586 490.0,415.6115507427461 480.0,421.6507010967652 470.0,427.5510204081633 460.0,433.3125086769402 450.0,438.93516590309594 440.0,444.4189920866306 430.0,449.7639872275441 420.0,454.97015132583647 410.0,460.03748438150774 400.0,464.96598639455783 390.0,469.75565736498686 380.0,474.40649729279465 370.0,478.91850617798144 360.0,483.29168402054705 350.0,487.5260308204914 340.0,491.62154657781485 330.00000000000006,495.578231292517 320.0,499.3960849645981 310.0,503.075107594058 300.0,506.61529918089684 290.0,510.01665972511455 280.0,513.2791892267111 270.0,516.4028876856866 260.0,519.3877551020408 250.0,522.2337914757741 240.0,524.940996806886 230.0,527.5093710953769 220.0,529.9389143412467 210.0,532.2296265444953 200.0,534.3815077051229 190.00000000000003,536.3945578231293 180.0,538.2687768985145 170.0,540.0041649312786 160.0,541.6007219214216 150.0,543.0584478689435 140.0,544.3773427738442 130.0,545.5574066361239 120.00000000000001,546.5986394557823 110.0,547.5010412328197 100.0,548.2646119672359 90.0,548.8893516590309 80.0,549.3752603082049 70.0,549.7223379147578 60.0,549.9305844786894 50.0,550.0" style="fill:rgb(98.8%,55.3%,38.4%);fill-opacity:1.0;opacity:0.5;stroke:none" /><polygon points="50.0,550.0 60.0,549.9305844786894 70.0,549.7223379147578 80.0,549.3752603082049 90.0,548.8893516590309 100.0,548.2646119672359 110.0,547.5010412328197 120.00000000000001,546.5986394557823 130.0,545.5574066361239 140.0,544.3773427738442 150.0,543.0584478689435 160.0,541.6007219214216 170.0,540.0041649312786 180.0,538.2687768985145 190.00000000000003,536.3945578231293 200.0,534.3815077051229 210.0,532.2296265444953 220.0,529.9389143412467 230.0,527.5093710953769 240.0,524.940996806886 250.0,522.2337914757741 260.0,519.3877551020408 270.0,516.4028876856866 280.0,513.2791892267111 290.0,510.01665972511455 300.0,506.61529918089684 310.0,503.075107594058 320.0,499.3960849645981 330.00000000000006,495.578231292517 340.0,491.62154657781485 350.0,487.5260308204914 360.0,483.29168402054705 370.0,478.91850617798144 380.0,474.40649729279465 390.0,469.75565736498686 400.0,464.96598639455783 410.0,460.03748438150774 420.0,454.97015132583647 430.0,449.7639872275441 440.0,444.4189920866306 450.0,438.93516590309594 460.0,433.3125086769402 470.0,427.5510204081633 480.0,421.6507010967652 490.0,415.6115507427461 500.0,409.43356934610586 510.0,403.11675690684444 520.0,396.66111342496185 530.0,390.06663890045814 540.0,383.33333333333337 540.0,425.0 530.0,430.0499791753436 520.0,434.9958350687214 510.0,439.83756768013325 500.0,444.5751770095793 490.0,449.2086630570596 480.0,453.73802582257395 470.0,458.16326530612247 460.0,462.48438150770517 450.0,466.701374427322 440.0,470.8142440649729 430.0,474.8229904206581 420.0,478.7276134943774 410.0,482.5281132861308 400.0,486.2244897959184 390.0,489.8167430237401 380.0,493.304872969596 370.0,496.68887963348607 360.0,499.9687630154103 350.0,503.14452311536866 340.0,506.21615993336115 330.00000000000006,509.18367346938777 320.0,512.0470637234486 310.0,514.8063306955436 300.0,517.4614743856727 290.0,520.0124947938359 280.0,522.4593919200333 270.0,524.8021657642648 260.0,527.0408163265307 250.0,529.1753436068306 240.0,531.2057476051646 230.0,533.1320283215327 220.0,534.9541857559351 210.0,536.6722199083715 200.0,538.2861307788421 190.00000000000003,539.7959183673469 180.0,541.2015826738859 170.0,542.503123698459 160.0,543.7005414410663 150.0,544.7938359017077 140.0,545.7830070803832 130.0,546.6680549770929 120.00000000000001,547.4489795918369 110.0,548.1257809246148 100.0,548.6984589754269 90.0,549.1670137442732 80.0,549.5314452311536 70.0,549.7917534360683 60.0,549.947938359017 50.0,550.0" style="fill:rgb(55.3%,62.7%,79.6%);fill-opacity:1.0;opacity:0.8;stroke:none" /></g></g><g class="toyplot-coordinates-Axis" id="td772509614844a198bc7704d7ad1b65e" transform="translate(50.0,550.0)translate(0,10.0)"><line style="" x1="0" x2="490.0" y1="0" y2="0" /><g><g transform="translate(0.0,6)"><text style="fill:rgb(16.1%,15.3%,14.1%);fill-opacity:1.0;font-family:helvetica;font-size:10.0px;font-weight:normal;stroke:none;vertical-align:baseline;white-space:pre" x="-2.78" y="8.555">0</text></g><g transform="translate(100.0,6)"><text style="fill:rgb(16.1%,15.3%,14.1%);fill-opacity:1.0;font-family:helvetica;font-size:10.0px;font-weight:normal;stroke:none;vertical-align:baseline;white-space:pre" x="-5.56" y="8.555">10</text></g><g transform="translate(200.0,6)"><text style="fill:rgb(16.1%,15.3%,14.1%);fill-opacity:1.0;font-family:helvetica;font-size:10.0px;font-weight:normal;stroke:none;vertical-align:baseline;white-space:pre" x="-5.56" y="8.555">20</text></g><g transform="translate(300.0,6)"><text style="fill:rgb(16.1%,15.3%,14.1%);fill-opacity:1.0;font-family:helvetica;font-size:10.0px;font-weight:normal;stroke:none;vertical-align:baseline;white-space:pre" x="-5.56" y="8.555">30</text></g><g transform="translate(400.0,6)"><text style="fill:rgb(16.1%,15.3%,14.1%);fill-opacity:1.0;font-family:helvetica;font-size:10.0px;font-weight:normal;stroke:none;vertical-align:baseline;white-space:pre" x="-5.56" y="8.555">40</text></g><g transform="translate(500.0,6)"><text style="fill:rgb(16.1%,15.3%,14.1%);fill-opacity:1.0;font-family:helvetica;font-size:10.0px;font-weight:normal;stroke:none;vertical-align:baseline;white-space:pre" x="-5.56" y="8.555">50</text></g></g><g class="toyplot-coordinates-Axis-coordinates" style="visibility:hidden" transform=""><line style="stroke:rgb(43.9%,50.2%,56.5%);stroke-opacity:1.0;stroke-width:1.0" x1="0" x2="0" y1="-3.0" y2="4.5" /><text style="alignment-baseline:alphabetic;fill:rgb(43.9%,50.2%,56.5%);fill-opacity:1.0;font-size:10px;font-weight:normal;stroke:none;text-anchor:middle" x="0" y="-6" /></g></g><g class="toyplot-coordinates-Axis" id="te1ea738223aa49169a03258c126f87cd" transform="translate(50.0,550.0)rotate(-90.0)translate(0,-10.0)"><line style="" x1="0" x2="500.0" y1="0" y2="0" /><g><g transform="translate(0.0,-6)"><text style="fill:rgb(16.1%,15.3%,14.1%);fill-opacity:1.0;font-family:helvetica;font-size:10.0px;font-weight:normal;stroke:none;vertical-align:baseline;white-space:pre" x="-6.95" y="-4.440892098500626e-16">0.0</text></g><g transform="translate(250.0,-6)"><text style="fill:rgb(16.1%,15.3%,14.1%);fill-opacity:1.0;font-family:helvetica;font-size:10.0px;font-weight:normal;stroke:none;vertical-align:baseline;white-space:pre" x="-6.95" y="-4.440892098500626e-16">0.5</text></g><g transform="translate(500.0,-6)"><text style="fill:rgb(16.1%,15.3%,14.1%);fill-opacity:1.0;font-family:helvetica;font-size:10.0px;font-weight:normal;stroke:none;vertical-align:baseline;white-space:pre" x="-6.95" y="-4.440892098500626e-16">1.0</text></g></g><g class="toyplot-coordinates-Axis-coordinates" style="visibility:hidden" transform=""><line style="stroke:rgb(43.9%,50.2%,56.5%);stroke-opacity:1.0;stroke-width:1.0" x1="0" x2="0" y1="3.0" y2="-4.5" /><text style="alignment-baseline:hanging;fill:rgb(43.9%,50.2%,56.5%);fill-opacity:1.0;font-size:10px;font-weight:normal;stroke:none;text-anchor:middle" x="0" y="6" /></g></g></g></svg>