<svg class="toyplot-canvas-Canvas" height="600px" id="t89b0dc601281497599fb073ad047ea3f" preserveAspectRatio="xMidYMid meet" style="background-color:transparent;fill:rgb(16.1%,15.3%,14.1%);fill-opacity:1.0;font-family:Helvetica;font-size:12px;opacity:1.0;stroke:rgb(16.1%,15.3%,14.1%);stroke-opacity:1.0;stroke-width:1.0" viewBox="0 0 600 600" width="600px" xmlns="http://www.w3.org/2000/svg" xmlns:toyplot="http://www.sandia.gov/toyplot"><g class="toyplot-axes-Cartesian" id="t9fbc21d8f4c548b9983a40ebb8a680d1"><clipPath id="t6c775ccc53ac484a9255b9aca97bd409"><rect height="520.0" width="520.0" x="40.0" y="40.0" /></clipPath><g clip-path="url(#t6c775ccc53ac484a9255b9aca97bd409)"><rect height="520.0" style="pointer-events:all;visibility:hidden" width="520.0" x="40.0" y="40.0" /><g class="toyplot-mark-Plot" id="t980241acef6549429686d456ef3e5ad9" style="fill:none;stroke-dasharray:5,5"><g class="toyplot-Series"><path d="M 50.0 550.0 L 60.0 549.79175343606835 L 70.0 549.16701374427316 L 80.0 548.12578092461479 L 90.0 546.66805497709288 L 100.0 544.79383590170767 L 110.0 542.50312369845904 L 120.00000000000001 539.79591836734687 L 130.0 536.67221990837152 L 140.0 533.13202832153274 L 150.0 529.17534360683055 L 160.0 524.80216576426483 L 170.0 520.01249479383591 L 180.0 514.80633069554358 L 190.00000000000003 509.18367346938777 L 200.0 503.14452311536866 L 210.0 496.68887963348607 L 220.0 489.81674302374012 L 230.0 482.5281132861308 L 240.0 474.82299042065807 L 250.0 466.70137442732198 L 260.0 458.16326530612247 L 270.0 449.2086630570596 L 280.0 439.83756768013325 L 290.0 430.04997917534359 L 300.0 419.84589754269052 L 310.0 409.22532278217409 L 320.0 398.18825489379429 L 330.00000000000006 386.73469387755102 L 340.0 374.86463973344439 L 350.0 362.5780924614744 L 360.0 349.87505206164099 L 370.0 336.75551853394421 L 380.0 323.21949187838402 L 390.0 309.26697209496041 L 400.0 294.89795918367355 L 410.0 280.11245314452316 L 420.0 264.91045397750941 L 430.0 249.29196168263226 L 440.0 233.25697625989181 L 450.0 216.80549770928786 L 460.0 199.93752603082055 L 470.0 182.65306122448985 L 480.0 164.95210329029578 L 490.0 146.83465222823833 L 500.0 128.30070803831745 L 510.0 109.35027072053317 L 520.0 89.983340274885478 L 530.0 70.199916701374448 L 540.0 50.0" style="stroke:rgb(40%,76.1%,64.7%);stroke-dasharray:5,5;stroke-opacity:1.0;stroke-width:2.0" /></g></g></g><g class="toyplot-axes-Axis" id="t1bcb4bb102bd4ff1b6e7a5e828c641e2" transform="translate(50.0,550.0) rotate(0.0) translate(0,10.0)"><line style="" x1="0" x2="490.0" y1="0" y2="0" /><g><text style="dominant-baseline:hanging;font-size:10px;font-weight:normal;stroke:none;text-anchor:middle" transform="translate(0.0,6)"><tspan style="dominant-baseline:inherit">0</tspan></text><text style="dominant-baseline:hanging;font-size:10px;font-weight:normal;stroke:none;text-anchor:middle" transform="translate(100.0,6)"><tspan style="dominant-baseline:inherit">10</tspan></text><text style="dominant-baseline:hanging;font-size:10px;font-weight:normal;stroke:none;text-anchor:middle" transform="translate(200.0,6)"><tspan style="dominant-baseline:inherit">20</tspan></text><text style="dominant-baseline:hanging;font-size:10px;font-weight:normal;stroke:none;text-anchor:middle" transform="translate(300.0,6)"><tspan style="dominant-baseline:inherit">30</tspan></text><text style="dominant-baseline:hanging;font-size:10px;font-weight:normal;stroke:none;text-anchor:middle" transform="translate(400.0,6)"><tspan style="dominant-baseline:inherit">40</tspan></text><text style="dominant-baseline:hanging;font-size:10px;font-weight:normal;stroke:none;text-anchor:middle" transform="translate(500.0,6)"><tspan style="dominant-baseline:inherit">50</tspan></text></g><g class="toyplot-axes-Axis-coordinates" style="visibility:hidden" transform=""><line style="stroke:rgb(43.9%,50.2%,56.5%);stroke-opacity:1.0;stroke-width:1.0" x1="0" x2="0" y1="-3.0" y2="4.5" /><text style="alignment-baseline:alphabetic;fill:rgb(43.9%,50.2%,56.5%);fill-opacity:1.0;font-size:10px;font-weight:normal;stroke:none;text-anchor:middle" x="0" y="-6" /></g></g><g class="toyplot-axes-Axis" id="te6997ea165f843f8aad8014cd4c385f2" transform="translate(50.0,550.0) rotate(-90.0) translate(0,-10.0)"><line style="" x1="0" x2="500.0" y1="0" y2="0" /><g><text style="dominant-baseline:alphabetic;font-size:10px;font-weight:normal;stroke:none;text-anchor:middle" transform="translate(0.0,-6)"><tspan style="dominant-baseline:inherit">0.0</tspan></text><text style="dominant-baseline:alphabetic;font-size:10px;font-weight:normal;stroke:none;text-anchor:middle" transform="translate(250.0,-6)"><tspan style="dominant-baseline:inherit">0.5</tspan></text><text style="dominant-baseline:alphabetic;font-size:10px;font-weight:normal;stroke:none;text-anchor:middle" transform="translate(500.0,-6)"><tspan style="dominant-baseline:inherit">1.0</tspan></text></g><g class="toyplot-axes-Axis-coordinates" style="visibility:hidden" transform=""><line style="stroke:rgb(43.9%,50.2%,56.5%);stroke-opacity:1.0;stroke-width:1.0" x1="0" x2="0" y1="3.0" y2="-4.5" /><text style="alignment-baseline:hanging;fill:rgb(43.9%,50.2%,56.5%);fill-opacity:1.0;font-size:10px;font-weight:normal;stroke:none;text-anchor:middle" x="0" y="6" /></g></g></g></svg>