<svg class="toyplot-canvas-Canvas" height="600px" id="t92b7950c4c2242d2af77ee839cd75580" preserveAspectRatio="xMidYMid meet" style="background-color:transparent;border-color:#292724;border-style:none;border-width:1.0;fill:rgb(16.1%,15.3%,14.1%);fill-opacity:1.0;font-family:Helvetica;font-size:12px;opacity:1.0;stroke:rgb(16.1%,15.3%,14.1%);stroke-opacity:1.0;stroke-width:1.0" viewBox="0 0 600 600" width="600px" xmlns="http://www.w3.org/2000/svg" xmlns:toyplot="http://www.sandia.gov/toyplot" xmlns:xlink="http://www.w3.org/1999/xlink"><g class="toyplot-coordinates-Cartesian" id="t8c6cb86ae1ac480c99e2b2e7142f5290"><clipPath id="t4f7816bd97b040ecb96c5e5daa740848"><rect height="520.0" width="520.0" x="40.0" y="40.0" /></clipPath><g clip-path="url(#t4f7816bd97b040ecb96c5e5daa740848)"><g class="toyplot-mark-Plot" id="ta9db7f6f25bb41e2a952415211a75649" style="fill:none;stroke-dasharray:5,5"><g class="toyplot-Series"><path d="M 50.0 550.0 L 60.0 549.7917534360683 L 70.0 549.1670137442732 L 80.0 548.1257809246148 L 90.0 546.6680549770929 L 100.0 544.7938359017077 L 110.0 542.503123698459 L 120.00000000000001 539.7959183673469 L 130.0 536.6722199083715 L 140.0 533.1320283215327 L 150.0 529.1753436068306 L 160.0 524.8021657642648 L 170.0 520.0124947938359 L 180.0 514.8063306955436 L 190.00000000000003 509.18367346938777 L 200.0 503.14452311536866 L 210.0 496.68887963348607 L 220.0 489.8167430237401 L 230.0 482.5281132861308 L 240.0 474.8229904206581 L 250.0 466.701374427322 L 260.0 458.16326530612247 L 270.0 449.2086630570596 L 280.0 439.83756768013325 L 290.0 430.0499791753436 L 300.0 419.8458975426905 L 310.0 409.2253227821741 L 320.0 398.1882548937943 L 330.00000000000006 386.734693877551 L 340.0 374.8646397334444 L 350.0 362.5780924614744 L 360.0 349.875052061641 L 370.0 336.7555185339442 L 380.0 323.219491878384 L 390.0 309.2669720949604 L 400.0 294.89795918367355 L 410.0 280.11245314452316 L 420.0 264.9104539775094 L 430.0 249.29196168263226 L 440.0 233.25697625989181 L 450.0 216.80549770928786 L 460.0 199.93752603082055 L 470.0 182.65306122448985 L 480.0 164.95210329029578 L 490.0 146.83465222823833 L 500.0 128.30070803831745 L 510.0 109.35027072053317 L 520.0 89.98334027488548 L 530.0 70.19991670137445 L 540.0 50.0" style="stroke:rgb(40%,76.1%,64.7%);stroke-dasharray:5,5;stroke-opacity:1.0;stroke-width:2.0" /></g></g></g><g class="toyplot-coordinates-Axis" id="tf3a4e3e38b43471aafacda5bc20e5066" transform="translate(50.0,550.0)translate(0,10.0)"><line style="" x1="0" x2="490.0" y1="0" y2="0" /><g><g transform="translate(0.0,6)"><text style="fill:rgb(16.1%,15.3%,14.1%);fill-opacity:1.0;font-family:helvetica;font-size:10.0px;font-weight:normal;stroke:none;vertical-align:baseline;white-space:pre" x="-2.78" y="8.555">0</text></g><g transform="translate(100.0,6)"><text style="fill:rgb(16.1%,15.3%,14.1%);fill-opacity:1.0;font-family:helvetica;font-size:10.0px;font-weight:normal;stroke:none;vertical-align:baseline;white-space:pre" x="-5.56" y="8.555">10</text></g><g transform="translate(200.0,6)"><text style="fill:rgb(16.1%,15.3%,14.1%);fill-opacity:1.0;font-family:helvetica;font-size:10.0px;font-weight:normal;stroke:none;vertical-align:baseline;white-space:pre" x="-5.56" y="8.555">20</text></g><g transform="translate(300.0,6)"><text style="fill:rgb(16.1%,15.3%,14.1%);fill-opacity:1.0;font-family:helvetica;font-size:10.0px;font-weight:normal;stroke:none;vertical-align:baseline;white-space:pre" x="-5.56" y="8.555">30</text></g><g transform="translate(400.0,6)"><text style="fill:rgb(16.1%,15.3%,14.1%);fill-opacity:1.0;font-family:helvetica;font-size:10.0px;font-weight:normal;stroke:none;vertical-align:baseline;white-space:pre" x="-5.56" y="8.555">40</text></g><g transform="translate(500.0,6)"><text style="fill:rgb(16.1%,15.3%,14.1%);fill-opacity:1.0;font-family:helvetica;font-size:10.0px;font-weight:normal;stroke:none;vertical-align:baseline;white-space:pre" x="-5.56" y="8.555">50</text></g></g><g class="toyplot-coordinates-Axis-coordinates" style="visibility:hidden" transform=""><line style="stroke:rgb(43.9%,50.2%,56.5%);stroke-opacity:1.0;stroke-width:1.0" x1="0" x2="0" y1="-3.0" y2="4.5" /><text style="alignment-baseline:alphabetic;fill:rgb(43.9%,50.2%,56.5%);fill-opacity:1.0;font-size:10px;font-weight:normal;stroke:none;text-anchor:middle" x="0" y="-6" /></g></g><g class="toyplot-coordinates-Axis" id="tfad7fff17bfe4a27abb1e70f5fc5d990" transform="translate(50.0,550.0)rotate(-90.0)translate(0,-10.0)"><line style="" x1="0" x2="500.0" y1="0" y2="0" /><g><g transform="translate(0.0,-6)"><text style="fill:rgb(16.1%,15.3%,14.1%);fill-opacity:1.0;font-family:helvetica;font-size:10.0px;font-weight:normal;stroke:none;vertical-align:baseline;white-space:pre" x="-6.95" y="-4.440892098500626e-16">0.0</text></g><g transform="translate(250.0,-6)"><text style="fill:rgb(16.1%,15.3%,14.1%);fill-opacity:1.0;font-family:helvetica;font-size:10.0px;font-weight:normal;stroke:none;vertical-align:baseline;white-space:pre" x="-6.95" y="-4.440892098500626e-16">0.5</text></g><g transform="translate(500.0,-6)"><text style="fill:rgb(16.1%,15.3%,14.1%);fill-opacity:1.0;font-family:helvetica;font-size:10.0px;font-weight:normal;stroke:none;vertical-align:baseline;white-space:pre" x="-6.95" y="-4.440892098500626e-16">1.0</text></g></g><g class="toyplot-coordinates-Axis-coordinates" style="visibility:hidden" transform=""><line style="stroke:rgb(43.9%,50.2%,56.5%);stroke-opacity:1.0;stroke-width:1.0" x1="0" x2="0" y1="3.0" y2="-4.5" /><text style="alignment-baseline:hanging;fill:rgb(43.9%,50.2%,56.5%);fill-opacity:1.0;font-size:10px;font-weight:normal;stroke:none;text-anchor:middle" x="0" y="6" /></g></g></g></svg>