<svg class="toyplot-canvas-Canvas" height="200.0px" id="t9fd3e83ae6bd4c8eab91989116671029" preserveAspectRatio="xMidYMid meet" style="background-color:transparent;fill:rgb(16.1%,15.3%,14.1%);fill-opacity:1.0;font-family:Helvetica;font-size:12px;opacity:1.0;stroke:rgb(16.1%,15.3%,14.1%);stroke-opacity:1.0;stroke-width:1.0" viewBox="0 0 800.0 200.0" width="800.0px" xmlns="http://www.w3.org/2000/svg" xmlns:toyplot="http://www.sandia.gov/toyplot" xmlns:xlink="http://www.w3.org/1999/xlink"><g class="toyplot-coordinates-Numberline" id="tfcf4122b317e4255869a0bd74e546f87"><clipPath id="tcbf01c0500f4400d9ec80fee36c3fe9c"><rect height="40.0" width="700.0" x="0" y="-20.0" /></clipPath><g clip-path="url(#tcbf01c0500f4400d9ec80fee36c3fe9c)" transform="translate(50.0,100.0)"><g class="toyplot-mark-Scatterplot" id="tb427b459d10c45eaa969d0d6a7cc4838" style=""><g class="toyplot-Series"><g class="toyplot-Datum" style="fill:rgb(40%,76.1%,64.7%);fill-opacity:1.0;opacity:1.0;stroke:rgb(40%,76.1%,64.7%);stroke-opacity:1.0"><line transform="rotate(0, 134.0636157989502, 0)" x1="134.0636157989502" x2="134.0636157989502" y1="-7.5" y2="7.5" /></g><g class="toyplot-Datum" style="fill:rgb(40%,76.1%,64.7%);fill-opacity:1.0;opacity:1.0;stroke:rgb(40%,76.1%,64.7%);stroke-opacity:1.0"><line transform="rotate(0, 435.47613998254138, 0)" x1="435.47613998254138" x2="435.47613998254138" y1="-7.5" y2="7.5" /></g><g class="toyplot-Datum" style="fill:rgb(40%,76.1%,64.7%);fill-opacity:1.0;opacity:1.0;stroke:rgb(40%,76.1%,64.7%);stroke-opacity:1.0"><line transform="rotate(0, 306.40941758950549, 0)" x1="306.40941758950549" x2="306.40941758950549" y1="-7.5" y2="7.5" /></g><g class="toyplot-Datum" style="fill:rgb(40%,76.1%,64.7%);fill-opacity:1.0;opacity:1.0;stroke:rgb(40%,76.1%,64.7%);stroke-opacity:1.0"><line transform="rotate(0, 549.75100874900818, 0)" x1="549.75100874900818" x2="549.75100874900818" y1="-7.5" y2="7.5" /></g><g class="toyplot-Datum" style="fill:rgb(40%,76.1%,64.7%);fill-opacity:1.0;opacity:1.0;stroke:rgb(40%,76.1%,64.7%);stroke-opacity:1.0"><line transform="rotate(0, 545.983065366745, 0)" x1="545.983065366745" x2="545.983065366745" y1="-7.5" y2="7.5" /></g><g class="toyplot-Datum" style="fill:rgb(40%,76.1%,64.7%);fill-opacity:1.0;opacity:1.0;stroke:rgb(40%,76.1%,64.7%);stroke-opacity:1.0"><line transform="rotate(0, 190.81482430299121, 0)" x1="190.81482430299121" x2="190.81482430299121" y1="-7.5" y2="7.5" /></g><g class="toyplot-Datum" style="fill:rgb(40%,76.1%,64.7%);fill-opacity:1.0;opacity:1.0;stroke:rgb(40%,76.1%,64.7%);stroke-opacity:1.0"><line transform="rotate(0, 193.52497895558673, 0)" x1="193.52497895558673" x2="193.52497895558673" y1="-7.5" y2="7.5" /></g><g class="toyplot-Datum" style="fill:rgb(40%,76.1%,64.7%);fill-opacity:1.0;opacity:1.0;stroke:rgb(40%,76.1%,64.7%);stroke-opacity:1.0"><line transform="rotate(0, 561.31052454312635, 0)" x1="561.31052454312635" x2="561.31052454312635" y1="-7.5" y2="7.5" /></g><g class="toyplot-Datum" style="fill:rgb(40%,76.1%,64.7%);fill-opacity:1.0;opacity:1.0;stroke:rgb(40%,76.1%,64.7%);stroke-opacity:1.0"><line transform="rotate(0, 670.69754779338837, 0)" x1="670.69754779338837" x2="670.69754779338837" y1="-7.5" y2="7.5" /></g><g class="toyplot-Datum" style="fill:rgb(40%,76.1%,64.7%);fill-opacity:1.0;opacity:1.0;stroke:rgb(40%,76.1%,64.7%);stroke-opacity:1.0"><line transform="rotate(0, 613.15284371376038, 0)" x1="613.15284371376038" x2="613.15284371376038" y1="-7.5" y2="7.5" /></g></g></g></g><g class="toyplot-coordinates-Axis" id="t6ac1593f70d741cba6535b1ca2b798d9" transform="translate(50.0,100.0)translate(0,20.0)"><line style="" x1="134.0636157989502" x2="670.6975477933884" y1="0" y2="0" /><g><line style="" x1="0.0" x2="0.0" y1="3" y2="-3" /><line style="" x1="87.5" x2="87.5" y1="3" y2="-3" /><line style="" x1="175.0" x2="175.0" y1="3" y2="-3" /><line style="" x1="262.5" x2="262.5" y1="3" y2="-3" /><line style="" x1="350.0" x2="350.0" y1="3" y2="-3" /><line style="" x1="437.5" x2="437.5" y1="3" y2="-3" /><line style="" x1="525.0" x2="525.0" y1="3" y2="-3" /><line style="" x1="612.5" x2="612.5" y1="3" y2="-3" /><line style="" x1="700.0" x2="700.0" y1="3" y2="-3" /></g><g><text style="font-weight:normal;stroke:none;text-anchor:middle" transform="translate(0.0,6)translate(0,7.5)"><tspan style="font-size:10.0px">00:00:00</tspan></text><text style="font-weight:normal;stroke:none;text-anchor:middle" transform="translate(87.5,6)translate(0,7.5)"><tspan style="font-size:10.0px">00:00:15</tspan></text><text style="font-weight:normal;stroke:none;text-anchor:middle" transform="translate(175.0,6)translate(0,7.5)"><tspan style="font-size:10.0px">00:00:30</tspan></text><text style="font-weight:normal;stroke:none;text-anchor:middle" transform="translate(262.5,6)translate(0,7.5)"><tspan style="font-size:10.0px">00:00:45</tspan></text><text style="font-weight:normal;stroke:none;text-anchor:middle" transform="translate(350.0,6)translate(0,7.5)"><tspan style="font-size:10.0px">00:01:00</tspan></text><text style="font-weight:normal;stroke:none;text-anchor:middle" transform="translate(437.5,6)translate(0,7.5)"><tspan style="font-size:10.0px">00:01:15</tspan></text><text style="font-weight:normal;stroke:none;text-anchor:middle" transform="translate(525.0,6)translate(0,7.5)"><tspan style="font-size:10.0px">00:01:30</tspan></text><text style="font-weight:normal;stroke:none;text-anchor:middle" transform="translate(612.5,6)translate(0,7.5)"><tspan style="font-size:10.0px">00:01:45</tspan></text><text style="font-weight:normal;stroke:none;text-anchor:middle" transform="translate(700.0,6)translate(0,7.5)"><tspan style="font-size:10.0px">00:02:00</tspan></text></g><g class="toyplot-coordinates-Axis-coordinates" style="visibility:hidden" transform=""><line style="stroke:rgb(43.9%,50.2%,56.5%);stroke-opacity:1.0;stroke-width:1.0" x1="0" x2="0" y1="-3.0" y2="4.5" /><text style="alignment-baseline:alphabetic;fill:rgb(43.9%,50.2%,56.5%);fill-opacity:1.0;font-size:10px;font-weight:normal;stroke:none;text-anchor:middle" x="0" y="-6" /></g></g></g></svg>