<svg class="toyplot-canvas-Canvas" height="600px" id="tc80b81ad154140068d69d631c81bb668" preserveAspectRatio="xMidYMid meet" style="background-color:transparent;border-color:#292724;border-style:none;border-width:1.0;fill:rgb(16.1%,15.3%,14.1%);fill-opacity:1.0;font-family:Helvetica;font-size:12px;opacity:1.0;stroke:rgb(16.1%,15.3%,14.1%);stroke-opacity:1.0;stroke-width:1.0" viewBox="0 0 600 600" width="600px" xmlns="http://www.w3.org/2000/svg" xmlns:toyplot="http://www.sandia.gov/toyplot" xmlns:xlink="http://www.w3.org/1999/xlink"><g class="toyplot-coordinates-Cartesian" id="tb072dced462e47348ebdfbc3d3141f8a"><clipPath id="t015c66e6d0564ba8bd7d648689bb481c"><rect height="520.0" width="520.0" x="40.0" y="40.0" /></clipPath><g clip-path="url(#t015c66e6d0564ba8bd7d648689bb481c)"><g class="toyplot-mark-Plot" id="ta7d71a7c83a944f7aaa7f4690eff4d57" style="fill:none"><g class="toyplot-Series"><path d="M 50.0 300.0 L 54.5333227324528 284.14402008585887 L 59.066645464905605 268.3518866065627 L 63.599968197358415 252.68718890989743 L 68.13329092981121 237.2130032047302 L 72.66661366226401 221.99163857537823 L 77.19993639471683 207.0843860849181 L 81.73325912716963 192.5512719777071 L 86.26658185962243 178.45081597488286 L 90.79990459207524 164.83979563610058 L 95.33322732452804 151.7730177363399 L 99.86655005698084 139.3030975783652 L 104.39987278943366 127.48024712947199 L 108.93319552188646 116.35207283561667 L 113.46651825433926 105.96338392706079 L 117.99984098679207 96.35601198741607 L 122.53316371924487 87.56864251262138 L 127.06648645169767 79.63665913810448 L 131.59980918415047 72.59200116137039 L 136.1331319166033 66.4630349337233 L 140.66645464905608 61.274439638981555 L 145.19977738150888 57.047107919114566 L 149.73310011396168 53.798061746947965 L 154.26642284641449 51.54038388468647 L 158.79974557886732 50.283165204247986 L 163.3330683113201 50.03146808153121 L 167.86639104377292 50.78630601201441 L 172.39971377622572 52.544639529766805 L 176.93303650867853 55.29938844630529 L 181.46635924113133 59.039460360014466 L 185.99968197358413 63.74979532133292 L 190.53300470603693 69.41142647385463 L 195.06632743848974 76.00155642716607 L 199.59965017094254 83.49364905389035 L 204.13297290339534 91.85753634130717 L 208.66629563584817 101.059539867292 L 213.19961836830095 111.06260641143541 L 217.73294110075378 121.82645715528429 L 222.26626383320658 133.3077498709271 L 226.79958656565935 145.46025344484877 L 231.33290929811216 158.2350340343073 L 235.866232030565 171.58065210664842 L 240.39955476301776 185.4433695681474 L 244.9328774954706 199.7673661483466 L 249.46620022792337 214.49496416858278 L 253.9995229603762 229.56686078964256 L 258.53284569282897 244.92236680336478 L 263.0661684252818 260.49965100666253 L 267.5994911577346 276.2359891739544 L 272.1328138901874 292.06801662548315 L 276.6661366226402 307.9319833745169 L 281.199459355093 323.76401082604565 L 285.73278208754584 339.5003489933376 L 290.2661048199986 355.07763319663513 L 294.79942755245145 370.4331392103574 L 299.33275028490425 385.50503583141716 L 303.86607301735705 400.2326338516535 L 308.3993957498098 414.55663043185257 L 312.93271848226266 428.41934789335164 L 317.46604121471546 441.7649659656926 L 321.99936394716826 454.53974655515134 L 326.53268667962107 466.6922501290728 L 331.06600941207387 478.1735428447157 L 335.59933214452667 488.93739358856453 L 340.1326548769795 498.9404601327081 L 344.6659776094323 508.1424636586928 L 349.1993003418851 516.5063509461097 L 353.73262307433794 523.9984435728339 L 358.2659458067907 530.5885735261454 L 362.7992685392434 536.250204678667 L 367.33259127169634 540.9605396399855 L 371.8659140041491 544.7006115536948 L 376.3992367366019 547.4553604702332 L 380.9325594690547 549.2136939879855 L 385.46588220150755 549.9685319184688 L 389.9992049339603 549.716834795752 L 394.53252766641316 548.4596161153135 L 399.0658503988659 546.2019382530519 L 403.5991731313187 542.9528920808855 L 408.13249586377157 538.7255603610184 L 412.6658185962243 533.5369650662767 L 417.1991413286772 527.4079988386296 L 421.73246406113 520.3633408618955 L 426.2657867935828 512.4313574873786 L 430.7991095260355 503.643988012584 L 435.33243225848844 494.0366160729391 L 439.8657549909412 483.64792716438325 L 444.39907772339393 472.519752870528 L 448.93240045584673 460.69690242163495 L 453.4657231882996 448.22698226366003 L 457.9990459207524 435.1602043638993 L 462.53236865320514 421.54918402511714 L 467.065691385658 407.44872802229304 L 471.5990141181108 392.9156139150818 L 476.1323368505636 378.00836142462174 L 480.6656595830164 362.78699679526983 L 485.1989823154692 347.31281109010246 L 489.732305047922 331.64811339343726 L 494.2656277803748 315.85597991414113 L 498.7989505128276 300.00000000000006" style="stroke:rgb(40%,76.1%,64.7%);stroke-opacity:1.0;stroke-width:2.0" /></g></g></g><g class="toyplot-coordinates-Axis" id="t048be752163f4dea9d04d3ffe2c199bc" transform="translate(50.0,550.0)translate(0,10.0)"><line style="" x1="0" x2="448.79895051282756" y1="0" y2="0" /><g><g transform="translate(0.0,6)"><text style="fill:rgb(16.1%,15.3%,14.1%);fill-opacity:1.0;font-family:helvetica;font-size:10.0px;font-weight:normal;stroke:none;vertical-align:baseline;white-space:pre" x="-2.78" y="8.555">0</text></g><g transform="translate(55.55555555555556,6)"><text style="fill:rgb(16.1%,15.3%,14.1%);fill-opacity:1.0;font-family:helvetica;font-size:10.0px;font-weight:normal;stroke:none;vertical-align:baseline;white-space:pre" x="-2.78" y="8.555">1</text></g><g transform="translate(111.11111111111111,6)"><text style="fill:rgb(16.1%,15.3%,14.1%);fill-opacity:1.0;font-family:helvetica;font-size:10.0px;font-weight:normal;stroke:none;vertical-align:baseline;white-space:pre" x="-2.78" y="8.555">2</text></g><g transform="translate(166.66666666666669,6)"><text style="fill:rgb(16.1%,15.3%,14.1%);fill-opacity:1.0;font-family:helvetica;font-size:10.0px;font-weight:normal;stroke:none;vertical-align:baseline;white-space:pre" x="-2.78" y="8.555">2</text></g><g transform="translate(222.22222222222223,6)"><text style="fill:rgb(16.1%,15.3%,14.1%);fill-opacity:1.0;font-family:helvetica;font-size:10.0px;font-weight:normal;stroke:none;vertical-align:baseline;white-space:pre" x="-2.78" y="8.555">3</text></g><g transform="translate(277.77777777777777,6)"><text style="fill:rgb(16.1%,15.3%,14.1%);fill-opacity:1.0;font-family:helvetica;font-size:10.0px;font-weight:normal;stroke:none;vertical-align:baseline;white-space:pre" x="-2.78" y="8.555">4</text></g><g transform="translate(333.33333333333337,6)"><text style="fill:rgb(16.1%,15.3%,14.1%);fill-opacity:1.0;font-family:helvetica;font-size:10.0px;font-weight:normal;stroke:none;vertical-align:baseline;white-space:pre" x="-2.78" y="8.555">5</text></g><g transform="translate(388.8888888888889,6)"><text style="fill:rgb(16.1%,15.3%,14.1%);fill-opacity:1.0;font-family:helvetica;font-size:10.0px;font-weight:normal;stroke:none;vertical-align:baseline;white-space:pre" x="-2.78" y="8.555">5</text></g><g transform="translate(444.44444444444446,6)"><text style="fill:rgb(16.1%,15.3%,14.1%);fill-opacity:1.0;font-family:helvetica;font-size:10.0px;font-weight:normal;stroke:none;vertical-align:baseline;white-space:pre" x="-2.78" y="8.555">6</text></g><g transform="translate(500.0,6)"><text style="fill:rgb(16.1%,15.3%,14.1%);fill-opacity:1.0;font-family:helvetica;font-size:10.0px;font-weight:normal;stroke:none;vertical-align:baseline;white-space:pre" x="-2.78" y="8.555">7</text></g></g><g class="toyplot-coordinates-Axis-coordinates" style="visibility:hidden" transform=""><line style="stroke:rgb(43.9%,50.2%,56.5%);stroke-opacity:1.0;stroke-width:1.0" x1="0" x2="0" y1="-3.0" y2="4.5" /><text style="alignment-baseline:alphabetic;fill:rgb(43.9%,50.2%,56.5%);fill-opacity:1.0;font-size:10px;font-weight:normal;stroke:none;text-anchor:middle" x="0" y="-6" /></g></g><g class="toyplot-coordinates-Axis" id="t4620f07c400f4361a1303d903fb3b52c" transform="translate(50.0,550.0)rotate(-90.0)translate(0,-10.0)"><line style="" x1="0.03146808153123293" x2="499.9685319184688" y1="0" y2="0" /><g><g transform="translate(0.0,-6)"><text style="fill:rgb(16.1%,15.3%,14.1%);fill-opacity:1.0;font-family:helvetica;font-size:10.0px;font-weight:normal;stroke:none;vertical-align:baseline;white-space:pre" x="-4.445" y="-4.440892098500626e-16">-1</text></g><g transform="translate(250.0,-6)"><text style="fill:rgb(16.1%,15.3%,14.1%);fill-opacity:1.0;font-family:helvetica;font-size:10.0px;font-weight:normal;stroke:none;vertical-align:baseline;white-space:pre" x="-2.78" y="-4.440892098500626e-16">0</text></g><g transform="translate(500.0,-6)"><text style="fill:rgb(16.1%,15.3%,14.1%);fill-opacity:1.0;font-family:helvetica;font-size:10.0px;font-weight:normal;stroke:none;vertical-align:baseline;white-space:pre" x="-2.78" y="-4.440892098500626e-16">1</text></g></g><g class="toyplot-coordinates-Axis-coordinates" style="visibility:hidden" transform=""><line style="stroke:rgb(43.9%,50.2%,56.5%);stroke-opacity:1.0;stroke-width:1.0" x1="0" x2="0" y1="3.0" y2="-4.5" /><text style="alignment-baseline:hanging;fill:rgb(43.9%,50.2%,56.5%);fill-opacity:1.0;font-size:10px;font-weight:normal;stroke:none;text-anchor:middle" x="0" y="6" /></g></g></g></svg>