<svg class="toyplot-canvas-Canvas" height="200.0px" id="t1483c2e32ed4446ebf6818cee8834f30" preserveAspectRatio="xMidYMid meet" style="background-color:transparent;fill:rgb(16.1%,15.3%,14.1%);fill-opacity:1.0;font-family:Helvetica;font-size:12px;opacity:1.0;stroke:rgb(16.1%,15.3%,14.1%);stroke-opacity:1.0;stroke-width:1.0" viewBox="0 0 800.0 200.0" width="800.0px" xmlns="http://www.w3.org/2000/svg" xmlns:toyplot="http://www.sandia.gov/toyplot" xmlns:xlink="http://www.w3.org/1999/xlink"><g class="toyplot-coordinates-Numberline" id="t60f76f69f6a34d3b8612feeb27a28398"><clipPath id="t4adb02c72c794258b40dc42abd37dafa"><rect height="40.0" width="700.0" x="0" y="-20.0" /></clipPath><g clip-path="url(#t4adb02c72c794258b40dc42abd37dafa)" transform="translate(50.0,100.0)"><g class="toyplot-mark-Scatterplot" id="tdba21a2804b64cb589dbe4c825e33929" style=""><g class="toyplot-Series"><g class="toyplot-Datum" style="fill:rgb(40%,76.1%,64.7%);fill-opacity:1.0;opacity:1.0;stroke:rgb(40%,76.1%,64.7%);stroke-opacity:1.0"><line transform="rotate(0, 134.06361526522451, 0)" x1="134.06361526522451" x2="134.06361526522451" y1="-7.5" y2="7.5" /></g><g class="toyplot-Datum" style="fill:rgb(40%,76.1%,64.7%);fill-opacity:1.0;opacity:1.0;stroke:rgb(40%,76.1%,64.7%);stroke-opacity:1.0"><line transform="rotate(0, 435.47613972788207, 0)" x1="435.47613972788207" x2="435.47613972788207" y1="-7.5" y2="7.5" /></g><g class="toyplot-Datum" style="fill:rgb(40%,76.1%,64.7%);fill-opacity:1.0;opacity:1.0;stroke:rgb(40%,76.1%,64.7%);stroke-opacity:1.0"><line transform="rotate(0, 306.40941730498042, 0)" x1="306.40941730498042" x2="306.40941730498042" y1="-7.5" y2="7.5" /></g><g class="toyplot-Datum" style="fill:rgb(40%,76.1%,64.7%);fill-opacity:1.0;opacity:1.0;stroke:rgb(40%,76.1%,64.7%);stroke-opacity:1.0"><line transform="rotate(0, 549.75100859963811, 0)" x1="549.75100859963811" x2="549.75100859963811" y1="-7.5" y2="7.5" /></g><g class="toyplot-Datum" style="fill:rgb(40%,76.1%,64.7%);fill-opacity:1.0;opacity:1.0;stroke:rgb(40%,76.1%,64.7%);stroke-opacity:1.0"><line transform="rotate(0, 545.98306568316264, 0)" x1="545.98306568316264" x2="545.98306568316264" y1="-7.5" y2="7.5" /></g><g class="toyplot-Datum" style="fill:rgb(40%,76.1%,64.7%);fill-opacity:1.0;opacity:1.0;stroke:rgb(40%,76.1%,64.7%);stroke-opacity:1.0"><line transform="rotate(0, 190.81482369784911, 0)" x1="190.81482369784911" x2="190.81482369784911" y1="-7.5" y2="7.5" /></g><g class="toyplot-Datum" style="fill:rgb(40%,76.1%,64.7%);fill-opacity:1.0;opacity:1.0;stroke:rgb(40%,76.1%,64.7%);stroke-opacity:1.0"><line transform="rotate(0, 193.52497860016754, 0)" x1="193.52497860016754" x2="193.52497860016754" y1="-7.5" y2="7.5" /></g><g class="toyplot-Datum" style="fill:rgb(40%,76.1%,64.7%);fill-opacity:1.0;opacity:1.0;stroke:rgb(40%,76.1%,64.7%);stroke-opacity:1.0"><line transform="rotate(0, 561.31052427451323, 0)" x1="561.31052427451323" x2="561.31052427451323" y1="-7.5" y2="7.5" /></g><g class="toyplot-Datum" style="fill:rgb(40%,76.1%,64.7%);fill-opacity:1.0;opacity:1.0;stroke:rgb(40%,76.1%,64.7%);stroke-opacity:1.0"><line transform="rotate(0, 670.69754757859334, 0)" x1="670.69754757859334" x2="670.69754757859334" y1="-7.5" y2="7.5" /></g><g class="toyplot-Datum" style="fill:rgb(40%,76.1%,64.7%);fill-opacity:1.0;opacity:1.0;stroke:rgb(40%,76.1%,64.7%);stroke-opacity:1.0"><line transform="rotate(0, 613.15284431946611, 0)" x1="613.15284431946611" x2="613.15284431946611" y1="-7.5" y2="7.5" /></g></g></g></g><g class="toyplot-coordinates-Axis" id="t08f0f40d440f4e308d5da8528991d433" transform="translate(50.0,100.0)translate(0,20.0)"><line style="" x1="134.0636152652245" x2="670.6975475785933" y1="0" y2="0" /><g><line style="" x1="0.0" x2="0.0" y1="3" y2="-3" /><line style="" x1="140.22988505747128" x2="140.22988505747128" y1="3" y2="-3" /><line style="" x1="280.0766283524904" x2="280.0766283524904" y1="3" y2="-3" /><line style="" x1="419.92337164750955" x2="419.92337164750955" y1="3" y2="-3" /><line style="" x1="559.7701149425287" x2="559.7701149425287" y1="3" y2="-3" /><line style="" x1="700.0" x2="700.0" y1="3" y2="-3" /></g><g><text style="font-weight:normal;stroke:none;text-anchor:middle" transform="translate(0.0,6)translate(0,7.5)"><tspan style="font-size:10.0px">2016</tspan></text><text style="font-weight:normal;stroke:none;text-anchor:middle" transform="translate(140.22988505747128,6)translate(0,7.5)"><tspan style="font-size:10.0px">2017</tspan></text><text style="font-weight:normal;stroke:none;text-anchor:middle" transform="translate(280.0766283524904,6)translate(0,7.5)"><tspan style="font-size:10.0px">2018</tspan></text><text style="font-weight:normal;stroke:none;text-anchor:middle" transform="translate(419.92337164750955,6)translate(0,7.5)"><tspan style="font-size:10.0px">2019</tspan></text><text style="font-weight:normal;stroke:none;text-anchor:middle" transform="translate(559.7701149425287,6)translate(0,7.5)"><tspan style="font-size:10.0px">2020</tspan></text><text style="font-weight:normal;stroke:none;text-anchor:middle" transform="translate(700.0,6)translate(0,7.5)"><tspan style="font-size:10.0px">2021</tspan></text></g><g class="toyplot-coordinates-Axis-coordinates" style="visibility:hidden" transform=""><line style="stroke:rgb(43.9%,50.2%,56.5%);stroke-opacity:1.0;stroke-width:1.0" x1="0" x2="0" y1="-3.0" y2="4.5" /><text style="alignment-baseline:alphabetic;fill:rgb(43.9%,50.2%,56.5%);fill-opacity:1.0;font-size:10px;font-weight:normal;stroke:none;text-anchor:middle" x="0" y="-6" /></g></g></g></svg>