<svg height="200.0px" id="t4ec6fd9903c1492d97cf2b771c2a889f" preserveAspectRatio="xMidYMid meet" style="background-color:transparent;fill:rgb(16.1%,15.3%,14.1%);fill-opacity:1.0;font-family:Helvetica;font-size:12px;opacity:1.0;stroke:rgb(16.1%,15.3%,14.1%);stroke-opacity:1.0;stroke-width:1.0" viewBox="0 0 800.0 200.0" width="800.0px" xmlns="http://www.w3.org/2000/svg" xmlns:toyplot="http://www.sandia.gov/toyplot"><g class="toyplot-axes-NumberLine" id="t139b01fd629d4d02a56f961a4bbe233b"><g class="toyplot-coordinate-events"><g class="toyplot-mark-Scatterplot" id="t9a662410251e4acc8a21fa2f59b7728b" style="" transform="translate(50.0,100.0) rotate(0.0) translate(0,-0.0)"><g class="toyplot-Series"><g class="toyplot-Datum" style="fill:rgb(40%,76.1%,64.7%);fill-opacity:1.0;opacity:1.0;stroke:rgb(40%,76.1%,64.7%);stroke-opacity:1.0"><line transform="rotate(0, 134.06361526522542, 0)" x1="134.06361526522542" x2="134.06361526522542" y1="-7.5" y2="7.5" /></g><g class="toyplot-Datum" style="fill:rgb(40%,76.1%,64.7%);fill-opacity:1.0;opacity:1.0;stroke:rgb(40%,76.1%,64.7%);stroke-opacity:1.0"><line transform="rotate(0, 435.4761397278844, 0)" x1="435.4761397278844" x2="435.4761397278844" y1="-7.5" y2="7.5" /></g><g class="toyplot-Datum" style="fill:rgb(40%,76.1%,64.7%);fill-opacity:1.0;opacity:1.0;stroke:rgb(40%,76.1%,64.7%);stroke-opacity:1.0"><line transform="rotate(0, 306.40941730498247, 0)" x1="306.40941730498247" x2="306.40941730498247" y1="-7.5" y2="7.5" /></g><g class="toyplot-Datum" style="fill:rgb(40%,76.1%,64.7%);fill-opacity:1.0;opacity:1.0;stroke:rgb(40%,76.1%,64.7%);stroke-opacity:1.0"><line transform="rotate(0, 549.75100859963572, 0)" x1="549.75100859963572" x2="549.75100859963572" y1="-7.5" y2="7.5" /></g><g class="toyplot-Datum" style="fill:rgb(40%,76.1%,64.7%);fill-opacity:1.0;opacity:1.0;stroke:rgb(40%,76.1%,64.7%);stroke-opacity:1.0"><line transform="rotate(0, 545.98306568316116, 0)" x1="545.98306568316116" x2="545.98306568316116" y1="-7.5" y2="7.5" /></g><g class="toyplot-Datum" style="fill:rgb(40%,76.1%,64.7%);fill-opacity:1.0;opacity:1.0;stroke:rgb(40%,76.1%,64.7%);stroke-opacity:1.0"><line transform="rotate(0, 190.81482369784914, 0)" x1="190.81482369784914" x2="190.81482369784914" y1="-7.5" y2="7.5" /></g><g class="toyplot-Datum" style="fill:rgb(40%,76.1%,64.7%);fill-opacity:1.0;opacity:1.0;stroke:rgb(40%,76.1%,64.7%);stroke-opacity:1.0"><line transform="rotate(0, 193.52497860016649, 0)" x1="193.52497860016649" x2="193.52497860016649" y1="-7.5" y2="7.5" /></g><g class="toyplot-Datum" style="fill:rgb(40%,76.1%,64.7%);fill-opacity:1.0;opacity:1.0;stroke:rgb(40%,76.1%,64.7%);stroke-opacity:1.0"><line transform="rotate(0, 561.31052427451277, 0)" x1="561.31052427451277" x2="561.31052427451277" y1="-7.5" y2="7.5" /></g><g class="toyplot-Datum" style="fill:rgb(40%,76.1%,64.7%);fill-opacity:1.0;opacity:1.0;stroke:rgb(40%,76.1%,64.7%);stroke-opacity:1.0"><line transform="rotate(0, 670.69754757859505, 0)" x1="670.69754757859505" x2="670.69754757859505" y1="-7.5" y2="7.5" /></g><g class="toyplot-Datum" style="fill:rgb(40%,76.1%,64.7%);fill-opacity:1.0;opacity:1.0;stroke:rgb(40%,76.1%,64.7%);stroke-opacity:1.0"><line transform="rotate(0, 613.15284431946498, 0)" x1="613.15284431946498" x2="613.15284431946498" y1="-7.5" y2="7.5" /></g></g></g></g><g class="toyplot-axes-Axis" id="t56a5bc9a5e0a4f7cb920a79ba75cd5a5" transform="translate(50.0,100.0) rotate(0.0) translate(0,20.0)"><line style="" x1="134.06361526522542" x2="670.697547578595" y1="0" y2="0" /><g><line style="" x1="0.0" x2="0.0" y1="-3" y2="3" /><line style="" x1="119.23076923076924" x2="119.23076923076924" y1="-3" y2="3" /><line style="" x1="230.76923076923077" x2="230.76923076923077" y1="-3" y2="3" /><line style="" x1="350.0" x2="350.0" y1="-3" y2="3" /><line style="" x1="465.38461538461536" x2="465.38461538461536" y1="-3" y2="3" /><line style="" x1="584.6153846153846" x2="584.6153846153846" y1="-3" y2="3" /><line style="" x1="700.0" x2="700.0" y1="-3" y2="3" /></g><g><text style="alignment-baseline:middle;baseline-shift:-100%;font-size:10px;font-weight:normal;stroke:none;text-anchor:middle" transform="translate(0.0,0) rotate(0)" x="0" y="0">January 2016</text><text style="alignment-baseline:middle;baseline-shift:-100%;font-size:10px;font-weight:normal;stroke:none;text-anchor:middle" transform="translate(119.23076923076924,0) rotate(0)" x="0" y="0">February 2016</text><text style="alignment-baseline:middle;baseline-shift:-100%;font-size:10px;font-weight:normal;stroke:none;text-anchor:middle" transform="translate(230.76923076923077,0) rotate(0)" x="0" y="0">March 2016</text><text style="alignment-baseline:middle;baseline-shift:-100%;font-size:10px;font-weight:normal;stroke:none;text-anchor:middle" transform="translate(350.0,0) rotate(0)" x="0" y="0">April 2016</text><text style="alignment-baseline:middle;baseline-shift:-100%;font-size:10px;font-weight:normal;stroke:none;text-anchor:middle" transform="translate(465.38461538461536,0) rotate(0)" x="0" y="0">May 2016</text><text style="alignment-baseline:middle;baseline-shift:-100%;font-size:10px;font-weight:normal;stroke:none;text-anchor:middle" transform="translate(584.6153846153846,0) rotate(0)" x="0" y="0">June 2016</text><text style="alignment-baseline:middle;baseline-shift:-100%;font-size:10px;font-weight:normal;stroke:none;text-anchor:middle" transform="translate(700.0,0) rotate(0)" x="0" y="0">July 2016</text></g></g></g></svg>