<svg height="200.0px" id="tcb01c89886f8437190d35f0ae1085d71" preserveAspectRatio="xMidYMid meet" style="background-color:transparent;fill:rgb(16.1%,15.3%,14.1%);fill-opacity:1.0;font-family:Helvetica;font-size:12px;opacity:1.0;stroke:rgb(16.1%,15.3%,14.1%);stroke-opacity:1.0;stroke-width:1.0" viewBox="0 0 800.0 200.0" width="800.0px" xmlns="http://www.w3.org/2000/svg" xmlns:toyplot="http://www.sandia.gov/toyplot"><g class="toyplot-axes-NumberLine" id="ta50e58261d0c414cb5e18d1252b52743"><g class="toyplot-coordinate-events"><g class="toyplot-mark-Scatterplot" id="tffca6e26ad974c3d9e70140e36f22ee4" style="" transform="translate(50.0,100.0) rotate(0.0) translate(0,-0.0)"><g class="toyplot-Series"><g class="toyplot-Datum" style="fill:rgb(40%,76.1%,64.7%);fill-opacity:1.0;opacity:1.0;stroke:rgb(40%,76.1%,64.7%);stroke-opacity:1.0"><line transform="rotate(0, 134.0636157989502, 0)" x1="134.0636157989502" x2="134.0636157989502" y1="-7.5" y2="7.5" /></g><g class="toyplot-Datum" style="fill:rgb(40%,76.1%,64.7%);fill-opacity:1.0;opacity:1.0;stroke:rgb(40%,76.1%,64.7%);stroke-opacity:1.0"><line transform="rotate(0, 435.4761385917663, 0)" x1="435.4761385917663" x2="435.4761385917663" y1="-7.5" y2="7.5" /></g><g class="toyplot-Datum" style="fill:rgb(40%,76.1%,64.7%);fill-opacity:1.0;opacity:1.0;stroke:rgb(40%,76.1%,64.7%);stroke-opacity:1.0"><line transform="rotate(0, 306.40941619873047, 0)" x1="306.40941619873047" x2="306.40941619873047" y1="-7.5" y2="7.5" /></g><g class="toyplot-Datum" style="fill:rgb(40%,76.1%,64.7%);fill-opacity:1.0;opacity:1.0;stroke:rgb(40%,76.1%,64.7%);stroke-opacity:1.0"><line transform="rotate(0, 549.75100874900818, 0)" x1="549.75100874900818" x2="549.75100874900818" y1="-7.5" y2="7.5" /></g><g class="toyplot-Datum" style="fill:rgb(40%,76.1%,64.7%);fill-opacity:1.0;opacity:1.0;stroke:rgb(40%,76.1%,64.7%);stroke-opacity:1.0"><line transform="rotate(0, 545.983065366745, 0)" x1="545.983065366745" x2="545.983065366745" y1="-7.5" y2="7.5" /></g><g class="toyplot-Datum" style="fill:rgb(40%,76.1%,64.7%);fill-opacity:1.0;opacity:1.0;stroke:rgb(40%,76.1%,64.7%);stroke-opacity:1.0"><line transform="rotate(0, 190.81482291221619, 0)" x1="190.81482291221619" x2="190.81482291221619" y1="-7.5" y2="7.5" /></g><g class="toyplot-Datum" style="fill:rgb(40%,76.1%,64.7%);fill-opacity:1.0;opacity:1.0;stroke:rgb(40%,76.1%,64.7%);stroke-opacity:1.0"><line transform="rotate(0, 193.52497895558673, 0)" x1="193.52497895558673" x2="193.52497895558673" y1="-7.5" y2="7.5" /></g><g class="toyplot-Datum" style="fill:rgb(40%,76.1%,64.7%);fill-opacity:1.0;opacity:1.0;stroke:rgb(40%,76.1%,64.7%);stroke-opacity:1.0"><line transform="rotate(0, 561.31052454312635, 0)" x1="561.31052454312635" x2="561.31052454312635" y1="-7.5" y2="7.5" /></g><g class="toyplot-Datum" style="fill:rgb(40%,76.1%,64.7%);fill-opacity:1.0;opacity:1.0;stroke:rgb(40%,76.1%,64.7%);stroke-opacity:1.0"><line transform="rotate(0, 670.6975464026134, 0)" x1="670.6975464026134" x2="670.6975464026134" y1="-7.5" y2="7.5" /></g><g class="toyplot-Datum" style="fill:rgb(40%,76.1%,64.7%);fill-opacity:1.0;opacity:1.0;stroke:rgb(40%,76.1%,64.7%);stroke-opacity:1.0"><line transform="rotate(0, 613.15284371376038, 0)" x1="613.15284371376038" x2="613.15284371376038" y1="-7.5" y2="7.5" /></g></g></g></g><g class="toyplot-axes-Axis" id="tc348c7fb13694f17aebbebd5e4dfd8dd" transform="translate(50.0,100.0) rotate(0.0) translate(0,20.0)"><line style="" x1="134.0636157989502" x2="670.6975464026134" y1="0" y2="0" /><g><line style="" x1="0.0" x2="0.0" y1="-3" y2="3" /><line style="" x1="116.66666666666666" x2="116.66666666666666" y1="-3" y2="3" /><line style="" x1="233.33333333333331" x2="233.33333333333331" y1="-3" y2="3" /><line style="" x1="350.0" x2="350.0" y1="-3" y2="3" /><line style="" x1="466.66666666666663" x2="466.66666666666663" y1="-3" y2="3" /><line style="" x1="583.3333333333334" x2="583.3333333333334" y1="-3" y2="3" /><line style="" x1="700.0" x2="700.0" y1="-3" y2="3" /></g><g><text style="alignment-baseline:middle;baseline-shift:-100%;font-size:10px;font-weight:normal;stroke:none;text-anchor:middle" transform="translate(0.0,0) rotate(0)" x="0" y="0">00:00:00</text><text style="alignment-baseline:middle;baseline-shift:-100%;font-size:10px;font-weight:normal;stroke:none;text-anchor:middle" transform="translate(116.66666666666666,0) rotate(0)" x="0" y="0">00:00:10</text><text style="alignment-baseline:middle;baseline-shift:-100%;font-size:10px;font-weight:normal;stroke:none;text-anchor:middle" transform="translate(233.33333333333331,0) rotate(0)" x="0" y="0">00:00:20</text><text style="alignment-baseline:middle;baseline-shift:-100%;font-size:10px;font-weight:normal;stroke:none;text-anchor:middle" transform="translate(350.0,0) rotate(0)" x="0" y="0">00:00:30</text><text style="alignment-baseline:middle;baseline-shift:-100%;font-size:10px;font-weight:normal;stroke:none;text-anchor:middle" transform="translate(466.66666666666663,0) rotate(0)" x="0" y="0">00:00:40</text><text style="alignment-baseline:middle;baseline-shift:-100%;font-size:10px;font-weight:normal;stroke:none;text-anchor:middle" transform="translate(583.3333333333334,0) rotate(0)" x="0" y="0">00:00:50</text><text style="alignment-baseline:middle;baseline-shift:-100%;font-size:10px;font-weight:normal;stroke:none;text-anchor:middle" transform="translate(700.0,0) rotate(0)" x="0" y="0">00:01:00</text></g></g></g></svg>