<svg class="toyplot-canvas-Canvas" height="600px" id="tff665a25293540eaa1047685f7a25563" preserveAspectRatio="xMidYMid meet" style="background-color:transparent;border-color:#292724;border-style:none;border-width:1.0;fill:rgb(16.1%,15.3%,14.1%);fill-opacity:1.0;font-family:Helvetica;font-size:12px;opacity:1.0;stroke:rgb(16.1%,15.3%,14.1%);stroke-opacity:1.0;stroke-width:1.0" viewBox="0 0 600 600" width="600px" xmlns="http://www.w3.org/2000/svg" xmlns:toyplot="http://www.sandia.gov/toyplot" xmlns:xlink="http://www.w3.org/1999/xlink"><g class="toyplot-coordinates-Cartesian" id="tb252be6122a84e3e8b9b18d2290e86e4"><clipPath id="t374a13acbd5440e68059ceb60637780e"><rect height="520.0" width="520.0" x="40.0" y="40.0" /></clipPath><g clip-path="url(#t374a13acbd5440e68059ceb60637780e)"><g class="toyplot-mark-Plot" id="tb037fcd82cc843798ba332d6ce023ac1" style="fill:none"><g class="toyplot-Series"><path d="M 50.0 300.0 L 55.05050505050505 284.1420240055328 L 60.101010101010104 268.34790248342154 L 65.15151515151516 252.68123278659888 L 70.20202020202021 237.20509906448063 L 75.25252525252526 221.98181824536073 L 80.30303030303031 207.07268910813565 L 85.35353535353536 192.53774545375674 L 90.40404040404042 178.43551437030243 L 95.45454545454545 164.82278056505123 L 100.5050505050505 151.75435771250727 L 105.55555555555554 139.28286773907934 L 110.60606060606061 127.45852893315575 L 115.65656565656568 116.32895373378139 L 120.70707070707071 105.93895701216967 L 125.75757575757575 96.33037561803417 L 130.80808080808083 87.5418999173599 L 135.85858585858585 79.60891799995596 L 140.9090909090909 72.56337318410712 L 145.95959595959596 66.43363539210557 L 151.010101010101 61.24438691458707 L 156.06060606060606 57.016523023657626 L 161.11111111111111 53.7670678350078 L 166.16161616161617 51.509105757807326 L 171.21212121212122 50.25172880840746 L 176.26262626262627 50.0 L 181.31313131313132 50.754932955650375 L 186.3636363636364 52.51348782679506 L 191.41414141414143 55.26858353363885 L 196.46464646464648 59.009126278164246 L 201.5151515151515 63.720054214940276 L 206.56565656565658 69.38239809985814 L 211.61616161616163 75.9733576725823 L 216.66666666666669 83.46639346515163 L 221.7171717171717 91.8313336670495 L 226.7676767676768 101.03449561643663 L 231.8181818181818 111.03882142834132 L 236.8686868686869 121.80402721368361 L 241.91919191919192 133.28676528827816 L 246.969696969697 145.44079871865944 L 252.02020202020202 158.21718750189365 L 257.0707070707071 171.56448562969763 L 262.1212121212121 185.42894824335616 L 267.1717171717172 199.75474804530012 L 272.22222222222223 214.4842000959284 L 277.2727272727273 229.5579940905019 L 282.32323232323233 244.91543318080568 L 287.37373737373736 260.4946783799359 L 292.42424242424244 276.23299756607304 L 297.47474747474746 292.067018082596 L 302.52525252525254 307.932981917404 L 307.57575757575756 323.7670024339271 L 312.62626262626264 339.50532162006414 L 317.67676767676767 355.08456681919427 L 322.7272727272728 370.4420059094983 L 327.77777777777777 385.5157999040715 L 332.82828282828285 400.24525195469994 L 337.8787878787879 414.5710517566437 L 342.92929292929296 428.4355143703024 L 347.979797979798 441.7828124981063 L 353.030303030303 454.5592012813406 L 358.080808080808 466.71323471172184 L 363.13131313131316 478.19597278631636 L 368.1818181818182 488.9611785716587 L 373.23232323232327 498.9655043835634 L 378.2828282828283 508.1686663329505 L 383.33333333333337 516.5336065348486 L 388.3838383838384 524.0266423274177 L 393.4343434343434 530.6176019001418 L 398.48484848484844 536.2799457850597 L 403.53535353535364 540.9908737218358 L 408.5858585858586 544.7314164663611 L 413.6363636363636 547.486512173205 L 418.68686868686865 549.2450670443496 L 423.7373737373738 550.0 L 428.7878787878788 549.7482711915925 L 433.83838383838383 548.4908942421927 L 438.88888888888886 546.2329321649922 L 443.939393939394 542.9834769763424 L 448.989898989899 538.755613085413 L 454.04040404040404 533.5663646078945 L 459.09090909090907 527.4366268158929 L 464.1414141414142 520.391082000044 L 469.1919191919192 512.4581000826402 L 474.24242424242425 503.66962438196595 L 479.29292929292933 494.06104298783026 L 484.3434343434344 483.6710462662186 L 489.3939393939394 472.5414710668442 L 494.4444444444444 460.7171322609207 L 499.49494949494954 448.2456422874927 L 504.5454545454546 435.17721943494877 L 509.59595959595964 421.5644856296975 L 514.6464646464647 407.4622545462434 L 519.6969696969697 392.92731089186435 L 524.7474747474747 378.0181817546392 L 529.7979797979798 362.79490093551937 L 534.8484848484849 347.318767213401 L 539.89898989899 331.65209751657835 L 544.9494949494949 315.8579759944672 L 550.0 300.00000000000006" style="stroke:rgb(40%,76.1%,64.7%);stroke-opacity:1.0;stroke-width:2.0" /></g></g></g><g class="toyplot-coordinates-Axis" id="tae87e42d0b724c399dcb8fdea6c72969" transform="translate(50.0,550.0)translate(0,10.0)"><line style="" x1="0" x2="500.0" y1="0" y2="0" /><g /><g class="toyplot-coordinates-Axis-coordinates" style="visibility:hidden" transform=""><line style="stroke:rgb(43.9%,50.2%,56.5%);stroke-opacity:1.0;stroke-width:1.0" x1="0" x2="0" y1="-3.0" y2="4.5" /><text style="alignment-baseline:alphabetic;fill:rgb(43.9%,50.2%,56.5%);fill-opacity:1.0;font-size:10px;font-weight:normal;stroke:none;text-anchor:middle" x="0" y="-6" /></g></g><g class="toyplot-coordinates-Axis" id="t65714d4875a541a2ae73830292dd8c68" transform="translate(50.0,550.0)rotate(-90.0)translate(0,-10.0)"><line style="" x1="0" x2="500.0" y1="0" y2="0" /><g /><g class="toyplot-coordinates-Axis-coordinates" style="visibility:hidden" transform=""><line style="stroke:rgb(43.9%,50.2%,56.5%);stroke-opacity:1.0;stroke-width:1.0" x1="0" x2="0" y1="3.0" y2="-4.5" /><text style="alignment-baseline:hanging;fill:rgb(43.9%,50.2%,56.5%);fill-opacity:1.0;font-size:10px;font-weight:normal;stroke:none;text-anchor:middle" x="0" y="6" /></g></g></g></svg>