<svg class="toyplot-canvas-Canvas" height="600px" id="t8f9aab8ff15148f595925a2a152bfd9a" preserveAspectRatio="xMidYMid meet" style="background-color:transparent;fill:rgb(16.1%,15.3%,14.1%);fill-opacity:1.0;font-family:Helvetica;font-size:12px;opacity:1.0;stroke:rgb(16.1%,15.3%,14.1%);stroke-opacity:1.0;stroke-width:1.0" viewBox="0 0 600 600" width="600px" xmlns="http://www.w3.org/2000/svg" xmlns:toyplot="http://www.sandia.gov/toyplot"><g class="toyplot-axes-Cartesian" id="te79556a349774721b13bc33eb39c8873"><clipPath id="t148d01e28e3e456c94e6dc49fc2b2b3e"><rect height="520.0" width="520.0" x="40.0" y="40.0" /></clipPath><g clip-path="url(#t148d01e28e3e456c94e6dc49fc2b2b3e)"><g class="toyplot-mark-Plot" id="te5c81295922c43e58f931ec2dfb516e8" style="fill:none"><g class="toyplot-Series"><path d="M 50.0 300.0 L 55.050505050505052 284.14402008585887 L 60.101010101010104 268.35188660656269 L 65.151515151515156 252.68718890989743 L 70.202020202020208 237.2130032047302 L 75.25252525252526 221.99163857537823 L 80.303030303030312 207.08438608491809 L 85.353535353535364 192.5512719777071 L 90.404040404040416 178.45081597488286 L 95.454545454545453 164.83979563610058 L 100.50505050505051 151.77301773633991 L 105.55555555555554 139.3030975783652 L 110.60606060606061 127.48024712947199 L 115.65656565656568 116.35207283561667 L 120.70707070707071 105.96338392706079 L 125.75757575757575 96.356011987416068 L 130.80808080808083 87.568642512621381 L 135.85858585858585 79.636659138104477 L 140.90909090909091 72.592001161370391 L 145.95959595959596 66.463034933723307 L 151.01010101010101 61.274439638981555 L 156.06060606060606 57.047107919114566 L 161.11111111111111 53.798061746947965 L 166.16161616161617 51.54038388468647 L 171.21212121212122 50.283165204247986 L 176.26262626262627 50.031468081531209 L 181.31313131313132 50.786306012014407 L 186.3636363636364 52.544639529766805 L 191.41414141414143 55.299388446305286 L 196.46464646464648 59.039460360014466 L 201.5151515151515 63.749795321332918 L 206.56565656565658 69.411426473854632 L 211.61616161616163 76.001556427166065 L 216.66666666666669 83.493649053890351 L 221.71717171717171 91.857536341307167 L 226.76767676767679 101.059539867292 L 231.81818181818181 111.06260641143541 L 236.86868686868689 121.82645715528429 L 241.91919191919192 133.3077498709271 L 246.969696969697 145.46025344484877 L 252.02020202020202 158.23503403430729 L 257.0707070707071 171.58065210664842 L 262.12121212121212 185.4433695681474 L 267.17171717171721 199.76736614834661 L 272.22222222222223 214.49496416858278 L 277.27272727272731 229.56686078964256 L 282.32323232323233 244.92236680336478 L 287.37373737373736 260.49965100666253 L 292.42424242424244 276.23598917395441 L 297.47474747474746 292.06801662548315 L 302.52525252525254 307.9319833745169 L 307.57575757575756 323.76401082604565 L 312.62626262626264 339.50034899333758 L 317.67676767676767 355.07763319663513 L 322.7272727272728 370.43313921035741 L 327.77777777777777 385.50503583141716 L 332.82828282828285 400.23263385165347 L 337.87878787878788 414.55663043185257 L 342.92929292929296 428.41934789335164 L 347.97979797979798 441.76496596569262 L 353.030303030303 454.53974655515134 L 358.08080808080803 466.69225012907282 L 363.13131313131316 478.17354284471571 L 368.18181818181819 488.93739358856453 L 373.23232323232327 498.9404601327081 L 378.28282828282829 508.1424636586928 L 383.33333333333337 516.50635094610971 L 388.38383838383839 523.99844357283393 L 393.43434343434342 530.58857352614541 L 398.48484848484844 536.25020467866705 L 403.53535353535364 540.96053963998554 L 408.5858585858586 544.70061155369478 L 413.63636363636363 547.45536047023324 L 418.68686868686865 549.21369398798549 L 423.73737373737379 549.96853191846878 L 428.78787878787881 549.71683479575199 L 433.83838383838383 548.45961611531345 L 438.88888888888886 546.20193825305194 L 443.93939393939399 542.95289208088548 L 448.98989898989902 538.72556036101844 L 454.04040404040404 533.53696506627671 L 459.09090909090907 527.40799883862962 L 464.1414141414142 520.36334086189549 L 469.19191919191923 512.43135748737859 L 474.24242424242425 503.64398801258397 L 479.29292929292933 494.03661607293913 L 484.34343434343441 483.64792716438325 L 489.39393939393938 472.51975287052801 L 494.4444444444444 460.69690242163495 L 499.49494949494954 448.22698226366003 L 504.54545454545462 435.16020436389931 L 509.59595959595964 421.54918402511714 L 514.64646464646466 407.44872802229304 L 519.69696969696975 392.91561391508179 L 524.74747474747471 378.00836142462174 L 529.79797979797979 362.78699679526983 L 534.84848484848487 347.31281109010246 L 539.89898989898995 331.64811339343726 L 544.94949494949492 315.85597991414113 L 550.0 300.00000000000006" style="stroke:rgb(40%,76.1%,64.7%);stroke-opacity:1.0;stroke-width:2.0" /></g></g></g><g class="toyplot-axes-Axis" id="tef1629dc7b7c4f86960856ccde7d89a7" transform="translate(50.0,550.0) rotate(0.0) translate(0,10.0)"><line style="" x1="0" x2="500.0" y1="0" y2="0" /><g><text style="dominant-baseline:hanging;font-size:10px;font-weight:normal;stroke:none;text-anchor:middle" transform="translate(0.0,6)"><tspan style="dominant-baseline:inherit">0</tspan></text><text style="dominant-baseline:hanging;font-size:10px;font-weight:normal;stroke:none;text-anchor:middle" transform="translate(159.15494309189535,6)"><tspan style="dominant-baseline:inherit">2</tspan></text><text style="dominant-baseline:hanging;font-size:10px;font-weight:normal;stroke:none;text-anchor:middle" transform="translate(250.0,6)"><tspan style="dominant-baseline:inherit">3.14159</tspan></text><text style="dominant-baseline:hanging;font-size:10px;font-weight:normal;stroke:none;text-anchor:middle" transform="translate(318.3098861837907,6)"><tspan style="dominant-baseline:inherit">4</tspan></text><text style="dominant-baseline:hanging;font-size:10px;font-weight:normal;stroke:none;text-anchor:middle" transform="translate(477.464829275686,6)"><tspan style="dominant-baseline:inherit">6</tspan></text></g><g class="toyplot-axes-Axis-coordinates" style="visibility:hidden" transform=""><line style="stroke:rgb(43.9%,50.2%,56.5%);stroke-opacity:1.0;stroke-width:1.0" x1="0" x2="0" y1="-3.0" y2="4.5" /><text style="alignment-baseline:alphabetic;fill:rgb(43.9%,50.2%,56.5%);fill-opacity:1.0;font-size:10px;font-weight:normal;stroke:none;text-anchor:middle" x="0" y="-6" /></g></g><g class="toyplot-axes-Axis" id="t4ac8e7d794eb49a78896f1f794bc8d31" transform="translate(50.0,550.0) rotate(-90.0) translate(0,-10.0)"><line style="" x1="0.03146808153123293" x2="499.9685319184688" y1="0" y2="0" /><g><text style="dominant-baseline:alphabetic;font-size:10px;font-weight:normal;stroke:none;text-anchor:middle" transform="translate(0.0,-6)"><tspan style="dominant-baseline:inherit">-1.0</tspan></text><text style="dominant-baseline:alphabetic;font-size:10px;font-weight:normal;stroke:none;text-anchor:middle" transform="translate(125.0,-6)"><tspan style="dominant-baseline:inherit">-0.5</tspan></text><text style="dominant-baseline:alphabetic;font-size:10px;font-weight:normal;stroke:none;text-anchor:middle" transform="translate(250.0,-6)"><tspan style="dominant-baseline:inherit">0.0</tspan></text><text style="dominant-baseline:alphabetic;font-size:10px;font-weight:normal;stroke:none;text-anchor:middle" transform="translate(375.0,-6)"><tspan style="dominant-baseline:inherit">0.5</tspan></text><text style="dominant-baseline:alphabetic;font-size:10px;font-weight:normal;stroke:none;text-anchor:middle" transform="translate(500.0,-6)"><tspan style="dominant-baseline:inherit">1.0</tspan></text></g><g class="toyplot-axes-Axis-coordinates" style="visibility:hidden" transform=""><line style="stroke:rgb(43.9%,50.2%,56.5%);stroke-opacity:1.0;stroke-width:1.0" x1="0" x2="0" y1="3.0" y2="-4.5" /><text style="alignment-baseline:hanging;fill:rgb(43.9%,50.2%,56.5%);fill-opacity:1.0;font-size:10px;font-weight:normal;stroke:none;text-anchor:middle" x="0" y="6" /></g></g></g></svg>