<svg class="toyplot-canvas-Canvas" height="200.0px" id="te9725530f7114527bfbea8424a9a8075" preserveAspectRatio="xMidYMid meet" style="background-color:transparent;fill:rgb(16.1%,15.3%,14.1%);fill-opacity:1.0;font-family:Helvetica;font-size:12px;opacity:1.0;stroke:rgb(16.1%,15.3%,14.1%);stroke-opacity:1.0;stroke-width:1.0" viewBox="0 0 800.0 200.0" width="800.0px" xmlns="http://www.w3.org/2000/svg" xmlns:toyplot="http://www.sandia.gov/toyplot" xmlns:xlink="http://www.w3.org/1999/xlink"><g class="toyplot-coordinates-Numberline" id="tdd53b02de52049a6b3ea19c4a925f45f"><clipPath id="t81f64054e0674888bdcf76ac4570b3ce"><rect height="40.0" width="700.0" x="0" y="-20.0" /></clipPath><g clip-path="url(#t81f64054e0674888bdcf76ac4570b3ce)" transform="translate(50.0,100.0)"><g class="toyplot-mark-Scatterplot" id="tf73eceb44d33454c8e2609edf630ae82" style=""><g class="toyplot-Series"><g class="toyplot-Datum" style="fill:rgb(40%,76.1%,64.7%);fill-opacity:1.0;opacity:1.0;stroke:rgb(40%,76.1%,64.7%);stroke-opacity:1.0"><line transform="rotate(0, 134.06361526526786, 0)" x1="134.06361526526786" x2="134.06361526526786" y1="-7.5" y2="7.5" /></g><g class="toyplot-Datum" style="fill:rgb(40%,76.1%,64.7%);fill-opacity:1.0;opacity:1.0;stroke:rgb(40%,76.1%,64.7%);stroke-opacity:1.0"><line transform="rotate(0, 435.47613972784188, 0)" x1="435.47613972784188" x2="435.47613972784188" y1="-7.5" y2="7.5" /></g><g class="toyplot-Datum" style="fill:rgb(40%,76.1%,64.7%);fill-opacity:1.0;opacity:1.0;stroke:rgb(40%,76.1%,64.7%);stroke-opacity:1.0"><line transform="rotate(0, 306.40941730500373, 0)" x1="306.40941730500373" x2="306.40941730500373" y1="-7.5" y2="7.5" /></g><g class="toyplot-Datum" style="fill:rgb(40%,76.1%,64.7%);fill-opacity:1.0;opacity:1.0;stroke:rgb(40%,76.1%,64.7%);stroke-opacity:1.0"><line transform="rotate(0, 549.75100859972054, 0)" x1="549.75100859972054" x2="549.75100859972054" y1="-7.5" y2="7.5" /></g><g class="toyplot-Datum" style="fill:rgb(40%,76.1%,64.7%);fill-opacity:1.0;opacity:1.0;stroke:rgb(40%,76.1%,64.7%);stroke-opacity:1.0"><line transform="rotate(0, 545.98306568325677, 0)" x1="545.98306568325677" x2="545.98306568325677" y1="-7.5" y2="7.5" /></g><g class="toyplot-Datum" style="fill:rgb(40%,76.1%,64.7%);fill-opacity:1.0;opacity:1.0;stroke:rgb(40%,76.1%,64.7%);stroke-opacity:1.0"><line transform="rotate(0, 190.81482369783853, 0)" x1="190.81482369783853" x2="190.81482369783853" y1="-7.5" y2="7.5" /></g><g class="toyplot-Datum" style="fill:rgb(40%,76.1%,64.7%);fill-opacity:1.0;opacity:1.0;stroke:rgb(40%,76.1%,64.7%);stroke-opacity:1.0"><line transform="rotate(0, 193.52497860016649, 0)" x1="193.52497860016649" x2="193.52497860016649" y1="-7.5" y2="7.5" /></g><g class="toyplot-Datum" style="fill:rgb(40%,76.1%,64.7%);fill-opacity:1.0;opacity:1.0;stroke:rgb(40%,76.1%,64.7%);stroke-opacity:1.0"><line transform="rotate(0, 561.31052427462964, 0)" x1="561.31052427462964" x2="561.31052427462964" y1="-7.5" y2="7.5" /></g><g class="toyplot-Datum" style="fill:rgb(40%,76.1%,64.7%);fill-opacity:1.0;opacity:1.0;stroke:rgb(40%,76.1%,64.7%);stroke-opacity:1.0"><line transform="rotate(0, 670.69754757870123, 0)" x1="670.69754757870123" x2="670.69754757870123" y1="-7.5" y2="7.5" /></g><g class="toyplot-Datum" style="fill:rgb(40%,76.1%,64.7%);fill-opacity:1.0;opacity:1.0;stroke:rgb(40%,76.1%,64.7%);stroke-opacity:1.0"><line transform="rotate(0, 613.15284431946498, 0)" x1="613.15284431946498" x2="613.15284431946498" y1="-7.5" y2="7.5" /></g></g></g></g><g class="toyplot-coordinates-Axis" id="t9bb99a9b4c134501ac1eb023e1a841f1" transform="translate(50.0,100.0)translate(0,20.0)"><line style="" x1="134.06361526526786" x2="670.6975475787012" y1="0" y2="0" /><g><line style="" x1="0.0" x2="0.0" y1="3" y2="-3" /><line style="" x1="200.0" x2="200.0" y1="3" y2="-3" /><line style="" x1="400.0" x2="400.0" y1="3" y2="-3" /><line style="" x1="600.0" x2="600.0" y1="3" y2="-3" /></g><g><text style="font-size:10px;font-weight:normal;stroke:none;text-anchor:middle" transform="translate(0.0,6)translate(0,7.5)"><tspan>Fri, Jan 1</tspan></text><text style="font-size:10px;font-weight:normal;stroke:none;text-anchor:middle" transform="translate(200.0,6)translate(0,7.5)"><tspan>Sun, Jan 3</tspan></text><text style="font-size:10px;font-weight:normal;stroke:none;text-anchor:middle" transform="translate(400.0,6)translate(0,7.5)"><tspan>Tue, Jan 5</tspan></text><text style="font-size:10px;font-weight:normal;stroke:none;text-anchor:middle" transform="translate(600.0,6)translate(0,7.5)"><tspan>Thu, Jan 7</tspan></text></g><g class="toyplot-coordinates-Axis-coordinates" style="visibility:hidden" transform=""><line style="stroke:rgb(43.9%,50.2%,56.5%);stroke-opacity:1.0;stroke-width:1.0" x1="0" x2="0" y1="-3.0" y2="4.5" /><text style="alignment-baseline:alphabetic;fill:rgb(43.9%,50.2%,56.5%);fill-opacity:1.0;font-size:10px;font-weight:normal;stroke:none;text-anchor:middle" x="0" y="-6" /></g></g></g></svg>