<svg class="toyplot-canvas-Canvas" height="600px" id="t7a11b974947d49c3bf47f73d9dd5a9be" preserveAspectRatio="xMidYMid meet" style="background-color:transparent;fill:rgb(16.1%,15.3%,14.1%);fill-opacity:1.0;font-family:Helvetica;font-size:12px;opacity:1.0;stroke:rgb(16.1%,15.3%,14.1%);stroke-opacity:1.0;stroke-width:1.0" viewBox="0 0 600 600" width="600px" xmlns="http://www.w3.org/2000/svg" xmlns:toyplot="http://www.sandia.gov/toyplot"><g class="toyplot-axes-Cartesian" id="t3a1e8767b8804bd0afa2b42375e74bf7"><clipPath id="t37d5a130ba5e4298b41eb4dd36ea237a"><rect height="520.0" width="520.0" x="40.0" y="40.0" /></clipPath><g clip-path="url(#t37d5a130ba5e4298b41eb4dd36ea237a)"><rect height="520.0" style="pointer-events:all;visibility:hidden" width="520.0" x="40.0" y="40.0" /><g class="toyplot-mark-Plot" id="t3541ae9ff86c4e0684f2fdf1d688816e" style="fill:none"><g class="toyplot-Series"><path d="M 50.0 300.0 L 54.533322732452802 284.14402008585887 L 59.066645464905605 268.35188660656269 L 63.599968197358415 252.68718890989743 L 68.13329092981121 237.2130032047302 L 72.666613662264012 221.99163857537823 L 77.199936394716829 207.08438608491809 L 81.733259127169632 192.5512719777071 L 86.266581859622434 178.45081597488286 L 90.799904592075237 164.83979563610058 L 95.333227324528039 151.77301773633991 L 99.866550056980842 139.3030975783652 L 104.39987278943366 127.48024712947199 L 108.93319552188646 116.35207283561667 L 113.46651825433926 105.96338392706079 L 117.99984098679207 96.356011987416068 L 122.53316371924487 87.568642512621381 L 127.06648645169767 79.636659138104477 L 131.59980918415047 72.592001161370391 L 136.1331319166033 66.463034933723307 L 140.66645464905608 61.274439638981555 L 145.19977738150888 57.047107919114566 L 149.73310011396168 53.798061746947965 L 154.26642284641449 51.54038388468647 L 158.79974557886732 50.283165204247986 L 163.33306831132009 50.031468081531209 L 167.86639104377292 50.786306012014407 L 172.39971377622572 52.544639529766805 L 176.93303650867853 55.299388446305286 L 181.46635924113133 59.039460360014466 L 185.99968197358413 63.749795321332918 L 190.53300470603693 69.411426473854632 L 195.06632743848974 76.001556427166065 L 199.59965017094254 83.493649053890351 L 204.13297290339534 91.857536341307167 L 208.66629563584817 101.059539867292 L 213.19961836830095 111.06260641143541 L 217.73294110075378 121.82645715528429 L 222.26626383320658 133.3077498709271 L 226.79958656565935 145.46025344484877 L 231.33290929811216 158.23503403430729 L 235.86623203056499 171.58065210664842 L 240.39955476301776 185.4433695681474 L 244.93287749547059 199.76736614834661 L 249.46620022792337 214.49496416858278 L 253.9995229603762 229.56686078964256 L 258.53284569282897 244.92236680336478 L 263.06616842528177 260.49965100666253 L 267.59949115773458 276.23598917395441 L 272.13281389018738 292.06801662548315 L 276.66613662264018 307.9319833745169 L 281.19945935509298 323.76401082604565 L 285.73278208754584 339.50034899333758 L 290.26610481999859 355.07763319663513 L 294.79942755245145 370.43313921035741 L 299.33275028490425 385.50503583141716 L 303.86607301735705 400.23263385165347 L 308.3993957498098 414.55663043185257 L 312.93271848226266 428.41934789335164 L 317.46604121471546 441.76496596569262 L 321.99936394716826 454.53974655515134 L 326.53268667962107 466.69225012907282 L 331.06600941207387 478.17354284471571 L 335.59933214452667 488.93739358856453 L 340.13265487697947 498.9404601327081 L 344.66597760943228 508.1424636586928 L 349.19930034188508 516.50635094610971 L 353.73262307433794 523.99844357283393 L 358.26594580679068 530.58857352614541 L 362.79926853924343 536.25020467866705 L 367.33259127169634 540.96053963998554 L 371.86591400414909 544.70061155369478 L 376.39923673660189 547.45536047023324 L 380.9325594690547 549.21369398798549 L 385.46588220150755 549.96853191846878 L 389.9992049339603 549.71683479575199 L 394.53252766641316 548.45961611531345 L 399.0658503988659 546.20193825305194 L 403.59917313131871 542.95289208088548 L 408.13249586377157 538.72556036101844 L 412.66581859622431 533.53696506627671 L 417.19914132867717 527.40799883862962 L 421.73246406112997 520.36334086189549 L 426.26578679358278 512.43135748737859 L 430.79910952603552 503.64398801258397 L 435.33243225848844 494.03661607293913 L 439.86575499094118 483.64792716438325 L 444.39907772339393 472.51975287052801 L 448.93240045584673 460.69690242163495 L 453.46572318829959 448.22698226366003 L 457.99904592075239 435.16020436389931 L 462.53236865320514 421.54918402511714 L 467.065691385658 407.44872802229304 L 471.5990141181108 392.91561391508179 L 476.1323368505636 378.00836142462174 L 480.66565958301641 362.78699679526983 L 485.19898231546921 347.31281109010246 L 489.73230504792201 331.64811339343726 L 494.26562778037481 315.85597991414113 L 498.79895051282762 300.00000000000006" style="stroke:rgb(40%,76.1%,64.7%);stroke-opacity:1.0;stroke-width:2.0" /></g></g></g><g class="toyplot-axes-Axis" id="tef1baad61c684c35854e727c955d3e81" transform="translate(50.0,550.0) rotate(0.0) translate(0,10.0)"><line style="" x1="0" x2="448.79895051282756" y1="0" y2="0" /><g><text style="dominant-baseline:hanging;font-size:10px;font-weight:normal;stroke:none;text-anchor:middle" transform="translate(0.0,6)"><tspan style="dominant-baseline:inherit">0</tspan></text><text style="dominant-baseline:hanging;font-size:10px;font-weight:normal;stroke:none;text-anchor:middle" transform="translate(55.55555555555556,6)"><tspan style="dominant-baseline:inherit">1</tspan></text><text style="dominant-baseline:hanging;font-size:10px;font-weight:normal;stroke:none;text-anchor:middle" transform="translate(111.11111111111111,6)"><tspan style="dominant-baseline:inherit">2</tspan></text><text style="dominant-baseline:hanging;font-size:10px;font-weight:normal;stroke:none;text-anchor:middle" transform="translate(166.66666666666669,6)"><tspan style="dominant-baseline:inherit">2</tspan></text><text style="dominant-baseline:hanging;font-size:10px;font-weight:normal;stroke:none;text-anchor:middle" transform="translate(222.22222222222223,6)"><tspan style="dominant-baseline:inherit">3</tspan></text><text style="dominant-baseline:hanging;font-size:10px;font-weight:normal;stroke:none;text-anchor:middle" transform="translate(277.77777777777777,6)"><tspan style="dominant-baseline:inherit">4</tspan></text><text style="dominant-baseline:hanging;font-size:10px;font-weight:normal;stroke:none;text-anchor:middle" transform="translate(333.33333333333337,6)"><tspan style="dominant-baseline:inherit">5</tspan></text><text style="dominant-baseline:hanging;font-size:10px;font-weight:normal;stroke:none;text-anchor:middle" transform="translate(388.8888888888889,6)"><tspan style="dominant-baseline:inherit">5</tspan></text><text style="dominant-baseline:hanging;font-size:10px;font-weight:normal;stroke:none;text-anchor:middle" transform="translate(444.44444444444446,6)"><tspan style="dominant-baseline:inherit">6</tspan></text><text style="dominant-baseline:hanging;font-size:10px;font-weight:normal;stroke:none;text-anchor:middle" transform="translate(500.0,6)"><tspan style="dominant-baseline:inherit">7</tspan></text></g><g class="toyplot-axes-Axis-coordinates" style="visibility:hidden" transform=""><line x1="0" x2="0" y1="-10" y2="10" /><text style="alignment-baseline:alphabetic;font-weight:normal;stroke:none;text-anchor:middle" x="0" y="-20" /></g></g><g class="toyplot-axes-Axis" id="t5ef6a82dbaee4801aeb9f5dae4018546" transform="translate(50.0,550.0) rotate(-90.0) translate(0,-10.0)"><line style="" x1="0.03146808153123293" x2="499.9685319184688" y1="0" y2="0" /><g><text style="dominant-baseline:alphabetic;font-size:10px;font-weight:normal;stroke:none;text-anchor:middle" transform="translate(0.0,-6)"><tspan style="dominant-baseline:inherit">-1</tspan></text><text style="dominant-baseline:alphabetic;font-size:10px;font-weight:normal;stroke:none;text-anchor:middle" transform="translate(250.0,-6)"><tspan style="dominant-baseline:inherit">0</tspan></text><text style="dominant-baseline:alphabetic;font-size:10px;font-weight:normal;stroke:none;text-anchor:middle" transform="translate(500.0,-6)"><tspan style="dominant-baseline:inherit">1</tspan></text></g><g class="toyplot-axes-Axis-coordinates" style="visibility:hidden" transform=""><line x1="0" x2="0" y1="10" y2="-10" /><text style="alignment-baseline:hanging;font-weight:normal;stroke:none;text-anchor:middle" x="0" y="20" /></g></g></g></svg>