<svg class="toyplot-canvas-Canvas" height="600px" id="t399b0b20cb984e06a4f07fd72a7efa6b" preserveAspectRatio="xMidYMid meet" style="background-color:transparent;border-color:#292724;border-style:none;border-width:1.0;fill:rgb(16.1%,15.3%,14.1%);fill-opacity:1.0;font-family:Helvetica;font-size:12px;opacity:1.0;stroke:rgb(16.1%,15.3%,14.1%);stroke-opacity:1.0;stroke-width:1.0" viewBox="0 0 600 600" width="600px" xmlns="http://www.w3.org/2000/svg" xmlns:toyplot="http://www.sandia.gov/toyplot" xmlns:xlink="http://www.w3.org/1999/xlink"><g class="toyplot-coordinates-Cartesian" id="t13a4945dc4ad458db12dfe8f44559238"><clipPath id="t41e22c54a103481d9ee740d9f00f8b20"><rect height="520.0" width="520.0" x="40.0" y="40.0" /></clipPath><g clip-path="url(#t41e22c54a103481d9ee740d9f00f8b20)"><g class="toyplot-mark-Plot" id="tab1c4d79105b41aaa1b90e61d0a1a073" style="fill:none"><g class="toyplot-Series"><path d="M 50.0 300.0 L 55.05050505050505 284.14402008585887 L 60.101010101010104 268.3518866065627 L 65.15151515151516 252.68718890989743 L 70.20202020202021 237.2130032047302 L 75.25252525252526 221.99163857537823 L 80.30303030303031 207.0843860849181 L 85.35353535353536 192.5512719777071 L 90.40404040404042 178.45081597488286 L 95.45454545454545 164.83979563610058 L 100.5050505050505 151.7730177363399 L 105.55555555555554 139.3030975783652 L 110.60606060606061 127.48024712947199 L 115.65656565656568 116.35207283561667 L 120.70707070707071 105.96338392706079 L 125.75757575757575 96.35601198741607 L 130.80808080808083 87.56864251262138 L 135.85858585858585 79.63665913810448 L 140.9090909090909 72.59200116137039 L 145.95959595959596 66.4630349337233 L 151.010101010101 61.274439638981555 L 156.06060606060606 57.047107919114566 L 161.11111111111111 53.798061746947965 L 166.16161616161617 51.54038388468647 L 171.21212121212122 50.283165204247986 L 176.26262626262627 50.03146808153121 L 181.31313131313132 50.78630601201441 L 186.3636363636364 52.544639529766805 L 191.41414141414143 55.29938844630529 L 196.46464646464648 59.039460360014466 L 201.5151515151515 63.74979532133292 L 206.56565656565658 69.41142647385463 L 211.61616161616163 76.00155642716607 L 216.66666666666669 83.49364905389035 L 221.7171717171717 91.85753634130717 L 226.7676767676768 101.059539867292 L 231.8181818181818 111.06260641143541 L 236.8686868686869 121.82645715528429 L 241.91919191919192 133.3077498709271 L 246.969696969697 145.46025344484877 L 252.02020202020202 158.2350340343073 L 257.0707070707071 171.58065210664842 L 262.1212121212121 185.4433695681474 L 267.1717171717172 199.7673661483466 L 272.22222222222223 214.49496416858278 L 277.2727272727273 229.56686078964256 L 282.32323232323233 244.92236680336478 L 287.37373737373736 260.49965100666253 L 292.42424242424244 276.2359891739544 L 297.47474747474746 292.06801662548315 L 302.52525252525254 307.9319833745169 L 307.57575757575756 323.76401082604565 L 312.62626262626264 339.5003489933376 L 317.67676767676767 355.07763319663513 L 322.7272727272728 370.4331392103574 L 327.77777777777777 385.50503583141716 L 332.82828282828285 400.2326338516535 L 337.8787878787879 414.55663043185257 L 342.92929292929296 428.41934789335164 L 347.979797979798 441.7649659656926 L 353.030303030303 454.53974655515134 L 358.080808080808 466.6922501290728 L 363.13131313131316 478.1735428447157 L 368.1818181818182 488.93739358856453 L 373.23232323232327 498.9404601327081 L 378.2828282828283 508.1424636586928 L 383.33333333333337 516.5063509461097 L 388.3838383838384 523.9984435728339 L 393.4343434343434 530.5885735261454 L 398.48484848484844 536.250204678667 L 403.53535353535364 540.9605396399855 L 408.5858585858586 544.7006115536948 L 413.6363636363636 547.4553604702332 L 418.68686868686865 549.2136939879855 L 423.7373737373738 549.9685319184688 L 428.7878787878788 549.716834795752 L 433.83838383838383 548.4596161153135 L 438.88888888888886 546.2019382530519 L 443.939393939394 542.9528920808855 L 448.989898989899 538.7255603610184 L 454.04040404040404 533.5369650662767 L 459.09090909090907 527.4079988386296 L 464.1414141414142 520.3633408618955 L 469.1919191919192 512.4313574873786 L 474.24242424242425 503.643988012584 L 479.29292929292933 494.0366160729391 L 484.3434343434344 483.64792716438325 L 489.3939393939394 472.519752870528 L 494.4444444444444 460.69690242163495 L 499.49494949494954 448.22698226366003 L 504.5454545454546 435.1602043638993 L 509.59595959595964 421.54918402511714 L 514.6464646464647 407.44872802229304 L 519.6969696969697 392.9156139150818 L 524.7474747474747 378.00836142462174 L 529.7979797979798 362.78699679526983 L 534.8484848484849 347.31281109010246 L 539.89898989899 331.64811339343726 L 544.9494949494949 315.85597991414113 L 550.0 300.00000000000006" style="stroke:rgb(40%,76.1%,64.7%);stroke-opacity:1.0;stroke-width:2.0" /></g></g></g><g class="toyplot-coordinates-Axis" id="t2bb9bbf799844137a02e897b3407970b" transform="translate(50.0,550.0)translate(0,10.0)"><line style="" x1="0" x2="500.0" y1="0" y2="0" /><g><g transform="translate(0.0,6)"><text style="fill:rgb(16.1%,15.3%,14.1%);fill-opacity:1.0;font-family:helvetica;font-size:10.0px;font-weight:normal;stroke:none;vertical-align:baseline;white-space:pre" x="-2.78" y="8.555">0</text></g><g transform="translate(250.0,6)"><text style="fill:rgb(16.1%,15.3%,14.1%);fill-opacity:1.0;font-family:helvetica;font-size:10.0px;font-weight:normal;stroke:none;vertical-align:baseline;white-space:pre" x="-3.89" y="8.555">pi</text></g><g transform="translate(500.0,6)"><text style="fill:rgb(16.1%,15.3%,14.1%);fill-opacity:1.0;font-family:helvetica;font-size:10.0px;font-weight:normal;stroke:none;vertical-align:baseline;white-space:pre" x="-6.670000000000001" y="8.555">2pi</text></g></g><g class="toyplot-coordinates-Axis-coordinates" style="visibility:hidden" transform=""><line style="stroke:rgb(43.9%,50.2%,56.5%);stroke-opacity:1.0;stroke-width:1.0" x1="0" x2="0" y1="-3.0" y2="4.5" /><text style="alignment-baseline:alphabetic;fill:rgb(43.9%,50.2%,56.5%);fill-opacity:1.0;font-size:10px;font-weight:normal;stroke:none;text-anchor:middle" x="0" y="-6" /></g></g><g class="toyplot-coordinates-Axis" id="t2b28416afbc74a01a9fb8e194922c094" transform="translate(50.0,550.0)rotate(-90.0)translate(0,-10.0)"><line style="" x1="0.03146808153123293" x2="499.9685319184688" y1="0" y2="0" /><g><g transform="translate(0.0,-6)"><text style="fill:rgb(16.1%,15.3%,14.1%);fill-opacity:1.0;font-family:helvetica;font-size:10.0px;font-weight:normal;stroke:none;vertical-align:baseline;white-space:pre" x="-4.445" y="-4.440892098500626e-16">-1</text></g><g transform="translate(500.0,-6)"><text style="fill:rgb(16.1%,15.3%,14.1%);fill-opacity:1.0;font-family:helvetica;font-size:10.0px;font-weight:normal;stroke:none;vertical-align:baseline;white-space:pre" x="-2.78" y="-4.440892098500626e-16">1</text></g></g><g class="toyplot-coordinates-Axis-coordinates" style="visibility:hidden" transform=""><line style="stroke:rgb(43.9%,50.2%,56.5%);stroke-opacity:1.0;stroke-width:1.0" x1="0" x2="0" y1="3.0" y2="-4.5" /><text style="alignment-baseline:hanging;fill:rgb(43.9%,50.2%,56.5%);fill-opacity:1.0;font-size:10px;font-weight:normal;stroke:none;text-anchor:middle" x="0" y="6" /></g></g></g></svg>