<svg class="toyplot-canvas-Canvas" height="200.0px" id="t379967ef01ad4f47995e9225b65c0c8f" preserveAspectRatio="xMidYMid meet" style="background-color:transparent;fill:rgb(16.1%,15.3%,14.1%);fill-opacity:1.0;font-family:Helvetica;font-size:12px;opacity:1.0;stroke:rgb(16.1%,15.3%,14.1%);stroke-opacity:1.0;stroke-width:1.0" viewBox="0 0 800.0 200.0" width="800.0px" xmlns="http://www.w3.org/2000/svg" xmlns:toyplot="http://www.sandia.gov/toyplot" xmlns:xlink="http://www.w3.org/1999/xlink"><g class="toyplot-coordinates-Numberline" id="td324ece92a314980b4d6ed2f084a1564"><clipPath id="tfe8b0e0f2ce44fc6b100b3d6bc7baba0"><rect height="40.0" width="700.0" x="0" y="-20.0" /></clipPath><g clip-path="url(#tfe8b0e0f2ce44fc6b100b3d6bc7baba0)" transform="translate(50.0,100.0)"><g class="toyplot-mark-Scatterplot" id="t8891f96278da4d4fa0a1e9ab4a4e9037" style=""><g class="toyplot-Series"><g class="toyplot-Datum" style="fill:rgb(40%,76.1%,64.7%);fill-opacity:1.0;opacity:1.0;stroke:rgb(40%,76.1%,64.7%);stroke-opacity:1.0"><line transform="rotate(0, 134.06361526522338, 0)" x1="134.06361526522338" x2="134.06361526522338" y1="-7.5" y2="7.5" /></g><g class="toyplot-Datum" style="fill:rgb(40%,76.1%,64.7%);fill-opacity:1.0;opacity:1.0;stroke:rgb(40%,76.1%,64.7%);stroke-opacity:1.0"><line transform="rotate(0, 435.47613972788264, 0)" x1="435.47613972788264" x2="435.47613972788264" y1="-7.5" y2="7.5" /></g><g class="toyplot-Datum" style="fill:rgb(40%,76.1%,64.7%);fill-opacity:1.0;opacity:1.0;stroke:rgb(40%,76.1%,64.7%);stroke-opacity:1.0"><line transform="rotate(0, 306.40941730498031, 0)" x1="306.40941730498031" x2="306.40941730498031" y1="-7.5" y2="7.5" /></g><g class="toyplot-Datum" style="fill:rgb(40%,76.1%,64.7%);fill-opacity:1.0;opacity:1.0;stroke:rgb(40%,76.1%,64.7%);stroke-opacity:1.0"><line transform="rotate(0, 549.75100859963925, 0)" x1="549.75100859963925" x2="549.75100859963925" y1="-7.5" y2="7.5" /></g><g class="toyplot-Datum" style="fill:rgb(40%,76.1%,64.7%);fill-opacity:1.0;opacity:1.0;stroke:rgb(40%,76.1%,64.7%);stroke-opacity:1.0"><line transform="rotate(0, 545.9830656831632, 0)" x1="545.9830656831632" x2="545.9830656831632" y1="-7.5" y2="7.5" /></g><g class="toyplot-Datum" style="fill:rgb(40%,76.1%,64.7%);fill-opacity:1.0;opacity:1.0;stroke:rgb(40%,76.1%,64.7%);stroke-opacity:1.0"><line transform="rotate(0, 190.8148236978468, 0)" x1="190.8148236978468" x2="190.8148236978468" y1="-7.5" y2="7.5" /></g><g class="toyplot-Datum" style="fill:rgb(40%,76.1%,64.7%);fill-opacity:1.0;opacity:1.0;stroke:rgb(40%,76.1%,64.7%);stroke-opacity:1.0"><line transform="rotate(0, 193.52497860016649, 0)" x1="193.52497860016649" x2="193.52497860016649" y1="-7.5" y2="7.5" /></g><g class="toyplot-Datum" style="fill:rgb(40%,76.1%,64.7%);fill-opacity:1.0;opacity:1.0;stroke:rgb(40%,76.1%,64.7%);stroke-opacity:1.0"><line transform="rotate(0, 561.31052427451345, 0)" x1="561.31052427451345" x2="561.31052427451345" y1="-7.5" y2="7.5" /></g><g class="toyplot-Datum" style="fill:rgb(40%,76.1%,64.7%);fill-opacity:1.0;opacity:1.0;stroke:rgb(40%,76.1%,64.7%);stroke-opacity:1.0"><line transform="rotate(0, 670.69754757859187, 0)" x1="670.69754757859187" x2="670.69754757859187" y1="-7.5" y2="7.5" /></g><g class="toyplot-Datum" style="fill:rgb(40%,76.1%,64.7%);fill-opacity:1.0;opacity:1.0;stroke:rgb(40%,76.1%,64.7%);stroke-opacity:1.0"><line transform="rotate(0, 613.15284431946418, 0)" x1="613.15284431946418" x2="613.15284431946418" y1="-7.5" y2="7.5" /></g></g></g></g><g class="toyplot-coordinates-Axis" id="t0f413158039c419d8457aaa949d7a31f" transform="translate(50.0,100.0)translate(0,20.0)"><line style="" x1="134.06361526522338" x2="670.6975475785919" y1="0" y2="0" /><g><line style="" x1="0.0" x2="0.0" y1="3" y2="-3" /><line style="" x1="174.04371584699453" x2="174.04371584699453" y1="3" y2="-3" /><line style="" x1="348.08743169398906" x2="348.08743169398906" y1="3" y2="-3" /><line style="" x1="524.0437158469946" x2="524.0437158469946" y1="3" y2="-3" /><line style="" x1="700.0" x2="700.0" y1="3" y2="-3" /></g><g><text style="font-size:10px;font-weight:normal;stroke:none;text-anchor:middle" transform="translate(0.0,6)translate(0,7.5)"><tspan>January 2016</tspan></text><text style="font-size:10px;font-weight:normal;stroke:none;text-anchor:middle" transform="translate(174.04371584699453,6)translate(0,7.5)"><tspan>April 2016</tspan></text><text style="font-size:10px;font-weight:normal;stroke:none;text-anchor:middle" transform="translate(348.08743169398906,6)translate(0,7.5)"><tspan>July 2016</tspan></text><text style="font-size:10px;font-weight:normal;stroke:none;text-anchor:middle" transform="translate(524.0437158469946,6)translate(0,7.5)"><tspan>October 2016</tspan></text><text style="font-size:10px;font-weight:normal;stroke:none;text-anchor:middle" transform="translate(700.0,6)translate(0,7.5)"><tspan>January 2017</tspan></text></g><g class="toyplot-coordinates-Axis-coordinates" style="visibility:hidden" transform=""><line style="stroke:rgb(43.9%,50.2%,56.5%);stroke-opacity:1.0;stroke-width:1.0" x1="0" x2="0" y1="-3.0" y2="4.5" /><text style="alignment-baseline:alphabetic;fill:rgb(43.9%,50.2%,56.5%);fill-opacity:1.0;font-size:10px;font-weight:normal;stroke:none;text-anchor:middle" x="0" y="-6" /></g></g></g></svg>