<svg height="200.0px" id="t44835528b252476a97222999c7d11a97" preserveAspectRatio="xMidYMid meet" style="background-color:transparent;fill:rgb(16.1%,15.3%,14.1%);fill-opacity:1.0;font-family:Helvetica;font-size:12px;opacity:1.0;stroke:rgb(16.1%,15.3%,14.1%);stroke-opacity:1.0;stroke-width:1.0" viewBox="0 0 800.0 200.0" width="800.0px" xmlns="http://www.w3.org/2000/svg" xmlns:toyplot="http://www.sandia.gov/toyplot"><g class="toyplot-axes-NumberLine" id="ted0056faffc843af93abc785ba254dbf"><g class="toyplot-coordinate-events"><g class="toyplot-mark-Scatterplot" id="te48dbfb1af2e441db1fda890ecfea45f" style="stroke:none" transform="translate(50.0,100.0) rotate(0.0) translate(0,-0.0)"><g class="toyplot-Series"><g class="toyplot-Datum" style="fill:rgb(40%,76.1%,64.7%);fill-opacity:1.0;opacity:1.0;stroke:rgb(40%,76.1%,64.7%);stroke-opacity:1.0"><line transform="rotate(0, 134.06361526581978, 0)" x1="134.06361526581978" x2="134.06361526581978" y1="-7.5" y2="7.5" /></g><g class="toyplot-Datum" style="fill:rgb(40%,76.1%,64.7%);fill-opacity:1.0;opacity:1.0;stroke:rgb(40%,76.1%,64.7%);stroke-opacity:1.0"><line transform="rotate(0, 435.47613972756602, 0)" x1="435.47613972756602" x2="435.47613972756602" y1="-7.5" y2="7.5" /></g><g class="toyplot-Datum" style="fill:rgb(40%,76.1%,64.7%);fill-opacity:1.0;opacity:1.0;stroke:rgb(40%,76.1%,64.7%);stroke-opacity:1.0"><line transform="rotate(0, 306.40941731135052, 0)" x1="306.40941731135052" x2="306.40941731135052" y1="-7.5" y2="7.5" /></g><g class="toyplot-Datum" style="fill:rgb(40%,76.1%,64.7%);fill-opacity:1.0;opacity:1.0;stroke:rgb(40%,76.1%,64.7%);stroke-opacity:1.0"><line transform="rotate(0, 549.75100860993064, 0)" x1="549.75100860993064" x2="549.75100860993064" y1="-7.5" y2="7.5" /></g><g class="toyplot-Datum" style="fill:rgb(40%,76.1%,64.7%);fill-opacity:1.0;opacity:1.0;stroke:rgb(40%,76.1%,64.7%);stroke-opacity:1.0"><line transform="rotate(0, 545.98306569125918, 0)" x1="545.98306569125918" x2="545.98306569125918" y1="-7.5" y2="7.5" /></g><g class="toyplot-Datum" style="fill:rgb(40%,76.1%,64.7%);fill-opacity:1.0;opacity:1.0;stroke:rgb(40%,76.1%,64.7%);stroke-opacity:1.0"><line transform="rotate(0, 190.81482370032205, 0)" x1="190.81482370032205" x2="190.81482370032205" y1="-7.5" y2="7.5" /></g><g class="toyplot-Datum" style="fill:rgb(40%,76.1%,64.7%);fill-opacity:1.0;opacity:1.0;stroke:rgb(40%,76.1%,64.7%);stroke-opacity:1.0"><line transform="rotate(0, 193.52497860789302, 0)" x1="193.52497860789302" x2="193.52497860789302" y1="-7.5" y2="7.5" /></g><g class="toyplot-Datum" style="fill:rgb(40%,76.1%,64.7%);fill-opacity:1.0;opacity:1.0;stroke:rgb(40%,76.1%,64.7%);stroke-opacity:1.0"><line transform="rotate(0, 561.31052426497138, 0)" x1="561.31052426497138" x2="561.31052426497138" y1="-7.5" y2="7.5" /></g><g class="toyplot-Datum" style="fill:rgb(40%,76.1%,64.7%);fill-opacity:1.0;opacity:1.0;stroke:rgb(40%,76.1%,64.7%);stroke-opacity:1.0"><line transform="rotate(0, 670.69754758477211, 0)" x1="670.69754758477211" x2="670.69754758477211" y1="-7.5" y2="7.5" /></g><g class="toyplot-Datum" style="fill:rgb(40%,76.1%,64.7%);fill-opacity:1.0;opacity:1.0;stroke:rgb(40%,76.1%,64.7%);stroke-opacity:1.0"><line transform="rotate(0, 613.15284431642954, 0)" x1="613.15284431642954" x2="613.15284431642954" y1="-7.5" y2="7.5" /></g></g></g></g><g class="toyplot-axes-Axis" id="t8dfd4b9c74b7444ab73c27f27ce8468f" transform="translate(50.0,100.0) rotate(0.0) translate(0,20.0)"><line style="" x1="134.06361526581978" x2="670.6975475847721" y1="0" y2="0" /><g><line style="" x1="0.0" x2="0.0" y1="-3" y2="3" /><line style="" x1="87.5" x2="87.5" y1="-3" y2="3" /><line style="" x1="175.0" x2="175.0" y1="-3" y2="3" /><line style="" x1="262.5" x2="262.5" y1="-3" y2="3" /><line style="" x1="350.0" x2="350.0" y1="-3" y2="3" /><line style="" x1="437.5" x2="437.5" y1="-3" y2="3" /><line style="" x1="525.0" x2="525.0" y1="-3" y2="3" /><line style="" x1="612.5" x2="612.5" y1="-3" y2="3" /><line style="" x1="700.0" x2="700.0" y1="-3" y2="3" /></g><g><text style="alignment-baseline:middle;baseline-shift:-100%;font-size:10px;font-weight:normal;stroke:none;text-anchor:middle" transform="translate(0.0,0) rotate(0)" x="0" y="0">01/01 00:00</text><text style="alignment-baseline:middle;baseline-shift:-100%;font-size:10px;font-weight:normal;stroke:none;text-anchor:middle" transform="translate(87.5,0) rotate(0)" x="0" y="0">01/01 00:15</text><text style="alignment-baseline:middle;baseline-shift:-100%;font-size:10px;font-weight:normal;stroke:none;text-anchor:middle" transform="translate(175.0,0) rotate(0)" x="0" y="0">01/01 00:30</text><text style="alignment-baseline:middle;baseline-shift:-100%;font-size:10px;font-weight:normal;stroke:none;text-anchor:middle" transform="translate(262.5,0) rotate(0)" x="0" y="0">01/01 00:45</text><text style="alignment-baseline:middle;baseline-shift:-100%;font-size:10px;font-weight:normal;stroke:none;text-anchor:middle" transform="translate(350.0,0) rotate(0)" x="0" y="0">01/01 01:00</text><text style="alignment-baseline:middle;baseline-shift:-100%;font-size:10px;font-weight:normal;stroke:none;text-anchor:middle" transform="translate(437.5,0) rotate(0)" x="0" y="0">01/01 01:15</text><text style="alignment-baseline:middle;baseline-shift:-100%;font-size:10px;font-weight:normal;stroke:none;text-anchor:middle" transform="translate(525.0,0) rotate(0)" x="0" y="0">01/01 01:30</text><text style="alignment-baseline:middle;baseline-shift:-100%;font-size:10px;font-weight:normal;stroke:none;text-anchor:middle" transform="translate(612.5,0) rotate(0)" x="0" y="0">01/01 01:45</text><text style="alignment-baseline:middle;baseline-shift:-100%;font-size:10px;font-weight:normal;stroke:none;text-anchor:middle" transform="translate(700.0,0) rotate(0)" x="0" y="0">01/01 02:00</text></g></g></g></svg>