<svg height="200.0px" id="tcd7e167548614addbad9f5f54ef33db1" preserveAspectRatio="xMidYMid meet" style="background-color:transparent;fill:rgb(16.1%,15.3%,14.1%);fill-opacity:1.0;font-family:Helvetica;font-size:12px;opacity:1.0;stroke:rgb(16.1%,15.3%,14.1%);stroke-opacity:1.0;stroke-width:1.0" viewBox="0 0 800.0 200.0" width="800.0px" xmlns="http://www.w3.org/2000/svg" xmlns:toyplot="http://www.sandia.gov/toyplot"><g class="toyplot-axes-NumberLine" id="t47acfb9fb9934f86a5a2483c25882aee"><g class="toyplot-coordinate-events"><g class="toyplot-mark-Scatterplot" id="tb1c0ab35fd1943a4b7c18e5b0b7cdcf5" style="stroke:none" transform="translate(50.0,100.0) rotate(0.0) translate(0,-0.0)"><g class="toyplot-Series"><g class="toyplot-Datum" style="fill:rgb(40%,76.1%,64.7%);fill-opacity:1.0;opacity:1.0;stroke:rgb(40%,76.1%,64.7%);stroke-opacity:1.0"><line transform="rotate(0, 134.06361524264017, 0)" x1="134.06361524264017" x2="134.06361524264017" y1="-7.5" y2="7.5" /></g><g class="toyplot-Datum" style="fill:rgb(40%,76.1%,64.7%);fill-opacity:1.0;opacity:1.0;stroke:rgb(40%,76.1%,64.7%);stroke-opacity:1.0"><line transform="rotate(0, 435.47613970438641, 0)" x1="435.47613970438641" x2="435.47613970438641" y1="-7.5" y2="7.5" /></g><g class="toyplot-Datum" style="fill:rgb(40%,76.1%,64.7%);fill-opacity:1.0;opacity:1.0;stroke:rgb(40%,76.1%,64.7%);stroke-opacity:1.0"><line transform="rotate(0, 306.40941731135052, 0)" x1="306.40941731135052" x2="306.40941731135052" y1="-7.5" y2="7.5" /></g><g class="toyplot-Datum" style="fill:rgb(40%,76.1%,64.7%);fill-opacity:1.0;opacity:1.0;stroke:rgb(40%,76.1%,64.7%);stroke-opacity:1.0"><line transform="rotate(0, 549.75100856357153, 0)" x1="549.75100856357153" x2="549.75100856357153" y1="-7.5" y2="7.5" /></g><g class="toyplot-Datum" style="fill:rgb(40%,76.1%,64.7%);fill-opacity:1.0;opacity:1.0;stroke:rgb(40%,76.1%,64.7%);stroke-opacity:1.0"><line transform="rotate(0, 545.98306564490008, 0)" x1="545.98306564490008" x2="545.98306564490008" y1="-7.5" y2="7.5" /></g><g class="toyplot-Datum" style="fill:rgb(40%,76.1%,64.7%);fill-opacity:1.0;opacity:1.0;stroke:rgb(40%,76.1%,64.7%);stroke-opacity:1.0"><line transform="rotate(0, 190.81482365396289, 0)" x1="190.81482365396289" x2="190.81482365396289" y1="-7.5" y2="7.5" /></g><g class="toyplot-Datum" style="fill:rgb(40%,76.1%,64.7%);fill-opacity:1.0;opacity:1.0;stroke:rgb(40%,76.1%,64.7%);stroke-opacity:1.0"><line transform="rotate(0, 193.52497858471338, 0)" x1="193.52497858471338" x2="193.52497858471338" y1="-7.5" y2="7.5" /></g><g class="toyplot-Datum" style="fill:rgb(40%,76.1%,64.7%);fill-opacity:1.0;opacity:1.0;stroke:rgb(40%,76.1%,64.7%);stroke-opacity:1.0"><line transform="rotate(0, 561.31052426497138, 0)" x1="561.31052426497138" x2="561.31052426497138" y1="-7.5" y2="7.5" /></g><g class="toyplot-Datum" style="fill:rgb(40%,76.1%,64.7%);fill-opacity:1.0;opacity:1.0;stroke:rgb(40%,76.1%,64.7%);stroke-opacity:1.0"><line transform="rotate(0, 670.69754760795172, 0)" x1="670.69754760795172" x2="670.69754760795172" y1="-7.5" y2="7.5" /></g><g class="toyplot-Datum" style="fill:rgb(40%,76.1%,64.7%);fill-opacity:1.0;opacity:1.0;stroke:rgb(40%,76.1%,64.7%);stroke-opacity:1.0"><line transform="rotate(0, 613.15284436278876, 0)" x1="613.15284436278876" x2="613.15284436278876" y1="-7.5" y2="7.5" /></g></g></g></g><g class="toyplot-axes-Axis" id="tcf185fecf9614caba78a40ef279d49d8" transform="translate(50.0,100.0) rotate(0.0) translate(0,20.0)"><line style="" x1="134.06361524264017" x2="670.6975476079517" y1="0" y2="0" /><g><line style="" x1="0.0" x2="0.0" y1="-3" y2="3" /><line style="" x1="116.66666666666666" x2="116.66666666666666" y1="-3" y2="3" /><line style="" x1="233.33333333333331" x2="233.33333333333331" y1="-3" y2="3" /><line style="" x1="350.0" x2="350.0" y1="-3" y2="3" /><line style="" x1="466.66666666666663" x2="466.66666666666663" y1="-3" y2="3" /><line style="" x1="583.3333333333334" x2="583.3333333333334" y1="-3" y2="3" /><line style="" x1="700.0" x2="700.0" y1="-3" y2="3" /></g><g><text style="alignment-baseline:middle;baseline-shift:-100%;font-size:10px;font-weight:normal;stroke:none;text-anchor:middle" transform="translate(0.0,0) rotate(0)" x="0" y="0">01/01 00:00</text><text style="alignment-baseline:middle;baseline-shift:-100%;font-size:10px;font-weight:normal;stroke:none;text-anchor:middle" transform="translate(116.66666666666666,0) rotate(0)" x="0" y="0">01/01 00:05</text><text style="alignment-baseline:middle;baseline-shift:-100%;font-size:10px;font-weight:normal;stroke:none;text-anchor:middle" transform="translate(233.33333333333331,0) rotate(0)" x="0" y="0">01/01 00:10</text><text style="alignment-baseline:middle;baseline-shift:-100%;font-size:10px;font-weight:normal;stroke:none;text-anchor:middle" transform="translate(350.0,0) rotate(0)" x="0" y="0">01/01 00:15</text><text style="alignment-baseline:middle;baseline-shift:-100%;font-size:10px;font-weight:normal;stroke:none;text-anchor:middle" transform="translate(466.66666666666663,0) rotate(0)" x="0" y="0">01/01 00:20</text><text style="alignment-baseline:middle;baseline-shift:-100%;font-size:10px;font-weight:normal;stroke:none;text-anchor:middle" transform="translate(583.3333333333334,0) rotate(0)" x="0" y="0">01/01 00:25</text><text style="alignment-baseline:middle;baseline-shift:-100%;font-size:10px;font-weight:normal;stroke:none;text-anchor:middle" transform="translate(700.0,0) rotate(0)" x="0" y="0">01/01 00:30</text></g></g></g></svg>