<svg height="600px" id="t002979a046744d55be791dbb78b3ea70" preserveAspectRatio="xMidYMid meet" style="background-color:transparent;fill:rgb(16.1%,15.3%,14.1%);fill-opacity:1.0;font-family:Helvetica;font-size:12px;opacity:1.0;stroke:rgb(16.1%,15.3%,14.1%);stroke-opacity:1.0;stroke-width:1.0" viewBox="0 0 600 600" width="600px" xmlns="http://www.w3.org/2000/svg" xmlns:toyplot="http://www.sandia.gov/toyplot"><g class="toyplot-axes-Cartesian" id="t8c09348edd5c429aaa743c85ce283e8f"><clipPath id="t1f71e2d567584a49a810416af74041f4"><rect height="520.0" width="520.0" x="40.0" y="40.0" /></clipPath><g class="toyplot-coordinate-events" clip-path="url(#t1f71e2d567584a49a810416af74041f4)" style="cursor:crosshair"><rect height="520.0" style="pointer-events:all;visibility:hidden" width="520.0" x="40.0" y="40.0" /><g class="toyplot-mark-FillBoundaries" id="t2f224bd2691a47fb8dd9b04f49729c21" style="stroke:none"><polygon points="50.0,550.0 60.0,549.79175343606835 70.0,549.16701374427316 80.0,548.12578092461479 90.0,546.66805497709288 100.0,544.79383590170767 110.0,542.50312369845904 120.00000000000001,539.79591836734687 130.0,536.67221990837152 140.0,533.13202832153274 150.0,529.17534360683055 160.0,524.80216576426483 170.0,520.01249479383591 180.0,514.80633069554358 190.00000000000003,509.18367346938777 200.0,503.14452311536866 210.0,496.68887963348607 220.0,489.81674302374012 230.0,482.5281132861308 240.0,474.82299042065807 250.0,466.70137442732198 260.0,458.16326530612247 270.0,449.2086630570596 280.0,439.83756768013325 290.0,430.04997917534359 300.0,419.84589754269052 310.0,409.22532278217409 320.0,398.18825489379429 330.00000000000006,386.73469387755102 340.0,374.86463973344439 350.0,362.5780924614744 360.0,349.87505206164099 370.0,336.75551853394421 380.0,323.21949187838402 390.0,309.26697209496041 400.0,294.89795918367355 410.0,280.11245314452316 420.0,264.91045397750941 430.0,249.29196168263226 440.0,233.25697625989181 450.0,216.80549770928786 460.0,199.93752603082055 470.0,182.65306122448985 480.0,164.95210329029578 490.0,146.83465222823833 500.0,128.30070803831745 510.0,109.35027072053317 520.0,89.983340274885478 530.0,70.199916701374448 540.0,50.0 540.0,300.0 530.0,310.09995835068725 520.0,319.99167013744272 510.0,329.67513536026655 500.0,339.15035401915873 490.0,348.41732611411919 480.0,357.47605164514795 470.0,366.32653061224488 460.0,374.96876301541027 450.0,383.40274885464396 440.0,391.62848812994588 430.0,399.64598084131615 420.0,407.4552269887547 410.0,415.05622657226155 400.0,422.44897959183675 390.0,429.63348604748018 380.0,436.60974593919201 370.0,443.37775926697213 360.0,449.93752603082049 350.0,456.28904623073726 340.0,462.43231986672214 330.00000000000006,468.36734693877554 320.0,474.09412744689712 310.0,479.61266139108704 300.0,484.92294877134526 290.0,490.02498958767177 280.0,494.91878384006668 270.0,499.60433152852977 260.0,504.08163265306121 250.0,508.35068721366099 240.0,512.41149521032901 230.0,516.26405664306549 220.0,519.90837151187009 210.0,523.34443981674303 200.0,526.57226155768433 190.00000000000003,529.59183673469386 180.0,532.40316534777173 170.0,535.00624739691796 160.0,537.40108288213241 150.0,539.58767180341522 140.0,541.56601416076626 130.0,543.33610995418576 120.00000000000001,544.89795918367349 110.0,546.25156184922946 100.0,547.39691795085389 90.0,548.33402748854644 80.0,549.06289046230734 70.0,549.58350687213658 60.0,549.89587671803417 50.0,550.0" style="fill:rgb(40%,76.1%,64.7%);fill-opacity:1.0;opacity:1.0;stroke:none"><title>S0</title></polygon><polygon points="50.0,550.0 60.0,549.89587671803417 70.0,549.58350687213658 80.0,549.06289046230734 90.0,548.33402748854644 100.0,547.39691795085389 110.0,546.25156184922946 120.00000000000001,544.89795918367349 130.0,543.33610995418576 140.0,541.56601416076626 150.0,539.58767180341522 160.0,537.40108288213241 170.0,535.00624739691796 180.0,532.40316534777173 190.00000000000003,529.59183673469386 200.0,526.57226155768433 210.0,523.34443981674303 220.0,519.90837151187009 230.0,516.26405664306549 240.0,512.41149521032901 250.0,508.35068721366099 260.0,504.08163265306121 270.0,499.60433152852977 280.0,494.91878384006668 290.0,490.02498958767177 300.0,484.92294877134526 310.0,479.61266139108704 320.0,474.09412744689712 330.00000000000006,468.36734693877554 340.0,462.43231986672214 350.0,456.28904623073726 360.0,449.93752603082049 370.0,443.37775926697213 380.0,436.60974593919201 390.0,429.63348604748018 400.0,422.44897959183675 410.0,415.05622657226155 420.0,407.4552269887547 430.0,399.64598084131615 440.0,391.62848812994588 450.0,383.40274885464396 460.0,374.96876301541027 470.0,366.32653061224488 480.0,357.47605164514795 490.0,348.41732611411919 500.0,339.15035401915873 510.0,329.67513536026655 520.0,319.99167013744272 530.0,310.09995835068725 540.0,300.0 540.0,383.33333333333337 530.0,390.06663890045814 520.0,396.66111342496185 510.0,403.11675690684444 500.0,409.43356934610586 490.0,415.61155074274609 480.0,421.6507010967652 470.0,427.55102040816331 460.0,433.31250867694018 450.0,438.93516590309594 440.0,444.41899208663062 430.0,449.76398722754408 420.0,454.97015132583647 410.0,460.03748438150774 400.0,464.96598639455783 390.0,469.75565736498686 380.0,474.40649729279465 370.0,478.91850617798144 360.0,483.29168402054705 350.0,487.52603082049143 340.0,491.62154657781485 330.00000000000006,495.57823129251699 320.0,499.39608496459812 310.0,503.07510759405801 300.0,506.61529918089684 290.0,510.01665972511455 280.0,513.27918922671108 270.0,516.40288768568655 260.0,519.38775510204084 250.0,522.23379147577407 240.0,524.94099680688601 230.0,527.50937109537688 220.0,529.93891434124669 210.0,532.22962654449532 200.0,534.38150770512289 190.00000000000003,536.39455782312928 180.0,538.26877689851449 170.0,540.00416493127864 160.0,541.60072192142161 150.0,543.05844786894352 140.0,544.37734277384425 130.0,545.55740663612391 120.00000000000001,546.59863945578229 110.0,547.50104123281972 100.0,548.26461196723585 90.0,548.88935165903092 80.0,549.37526030820493 70.0,549.72233791475776 60.0,549.93058447868941 50.0,550.0" style="fill:rgb(98.8%,55.3%,38.4%);fill-opacity:1.0;opacity:1.0;stroke:none"><title>S1</title></polygon><polygon points="50.0,550.0 60.0,549.93058447868941 70.0,549.72233791475776 80.0,549.37526030820493 90.0,548.88935165903092 100.0,548.26461196723585 110.0,547.50104123281972 120.00000000000001,546.59863945578229 130.0,545.55740663612391 140.0,544.37734277384425 150.0,543.05844786894352 160.0,541.60072192142161 170.0,540.00416493127864 180.0,538.26877689851449 190.00000000000003,536.39455782312928 200.0,534.38150770512289 210.0,532.22962654449532 220.0,529.93891434124669 230.0,527.50937109537688 240.0,524.94099680688601 250.0,522.23379147577407 260.0,519.38775510204084 270.0,516.40288768568655 280.0,513.27918922671108 290.0,510.01665972511455 300.0,506.61529918089684 310.0,503.07510759405801 320.0,499.39608496459812 330.00000000000006,495.57823129251699 340.0,491.62154657781485 350.0,487.52603082049143 360.0,483.29168402054705 370.0,478.91850617798144 380.0,474.40649729279465 390.0,469.75565736498686 400.0,464.96598639455783 410.0,460.03748438150774 420.0,454.97015132583647 430.0,449.76398722754408 440.0,444.41899208663062 450.0,438.93516590309594 460.0,433.31250867694018 470.0,427.55102040816331 480.0,421.6507010967652 490.0,415.61155074274609 500.0,409.43356934610586 510.0,403.11675690684444 520.0,396.66111342496185 530.0,390.06663890045814 540.0,383.33333333333337 540.0,425.0 530.0,430.04997917534359 520.0,434.99583506872142 510.0,439.83756768013325 500.0,444.57517700957931 490.0,449.2086630570596 480.0,453.73802582257395 470.0,458.16326530612247 460.0,462.48438150770517 450.0,466.70137442732198 440.0,470.81424406497291 430.0,474.82299042065807 420.0,478.72761349437741 410.0,482.5281132861308 400.0,486.22448979591837 390.0,489.81674302374012 380.0,493.30487296959598 370.0,496.68887963348607 360.0,499.96876301541027 350.0,503.14452311536866 340.0,506.21615993336115 330.00000000000006,509.18367346938777 320.0,512.04706372344856 310.0,514.80633069554358 300.0,517.46147438567266 290.0,520.01249479383591 280.0,522.45939192003334 270.0,524.80216576426483 260.0,527.04081632653072 250.0,529.17534360683055 240.0,531.20574760516456 230.0,533.13202832153274 220.0,534.9541857559351 210.0,536.67221990837152 200.0,538.28613077884211 190.00000000000003,539.79591836734687 180.0,541.20158267388592 170.0,542.50312369845904 160.0,543.70054144106632 150.0,544.79383590170767 140.0,545.78300708038319 130.0,546.66805497709288 120.00000000000001,547.44897959183686 110.0,548.12578092461479 100.0,548.69845897542689 90.0,549.16701374427316 80.0,549.53144523115361 70.0,549.79175343606835 60.0,549.94793835901703 50.0,550.0" style="fill:rgb(55.3%,62.7%,79.6%);fill-opacity:1.0;opacity:1.0;stroke:none"><title>S2</title></polygon></g></g><g class="toyplot-coordinates" style="visibility:hidden"><rect height="14.0" style="fill:rgb(100%,100%,100%);fill-opacity:1.0;opacity:0.75;stroke:none" width="90.0" x="450.0" y="60.0" /><text style="alignment-baseline:middle;font-size:10px;font-weight:normal;stroke:none;text-anchor:middle" x="495.0" y="67.0" /></g><g class="toyplot-axes-Axis" id="t3f6c9bb490034cb3bcc71d7b3bbba528" transform="translate(50.0,550.0) rotate(0.0) translate(0,10.0)"><line style="" x1="0" x2="490.0" y1="0" y2="0" /><g><text style="alignment-baseline:middle;baseline-shift:-80%;font-size:10px;font-weight:normal;stroke:none;text-anchor:middle" transform="translate(0.0,0) rotate(0)" x="0" y="0">0</text><text style="alignment-baseline:middle;baseline-shift:-80%;font-size:10px;font-weight:normal;stroke:none;text-anchor:middle" transform="translate(100.0,0) rotate(0)" x="0" y="0">10</text><text style="alignment-baseline:middle;baseline-shift:-80%;font-size:10px;font-weight:normal;stroke:none;text-anchor:middle" transform="translate(200.0,0) rotate(0)" x="0" y="0">20</text><text style="alignment-baseline:middle;baseline-shift:-80%;font-size:10px;font-weight:normal;stroke:none;text-anchor:middle" transform="translate(300.0,0) rotate(0)" x="0" y="0">30</text><text style="alignment-baseline:middle;baseline-shift:-80%;font-size:10px;font-weight:normal;stroke:none;text-anchor:middle" transform="translate(400.0,0) rotate(0)" x="0" y="0">40</text><text style="alignment-baseline:middle;baseline-shift:-80%;font-size:10px;font-weight:normal;stroke:none;text-anchor:middle" transform="translate(500.0,0) rotate(0)" x="0" y="0">50</text></g></g><g class="toyplot-axes-Axis" id="t1c02168cf21c4f1681fd597c68be150c" transform="translate(50.0,550.0) rotate(-90.0) translate(0,-10.0)"><line style="" x1="0" x2="500.0" y1="0" y2="0" /><g><text style="alignment-baseline:middle;baseline-shift:80%;font-size:10px;font-weight:normal;stroke:none;text-anchor:middle" transform="translate(0.0,0) rotate(0)" x="0" y="0">0.0</text><text style="alignment-baseline:middle;baseline-shift:80%;font-size:10px;font-weight:normal;stroke:none;text-anchor:middle" transform="translate(250.0,0) rotate(0)" x="0" y="0">0.5</text><text style="alignment-baseline:middle;baseline-shift:80%;font-size:10px;font-weight:normal;stroke:none;text-anchor:middle" transform="translate(500.0,0) rotate(0)" x="0" y="0">1.0</text></g></g></g></svg>